<svg xmlns="http://www.w3.org/2000/svg" xmlns:xlink="http://www.w3.org/1999/xlink" width="1080" zoomAndPan="magnify" viewBox="0 0 810 809.999993" height="1080" preserveAspectRatio="xMidYMid meet" version="1.0"><defs><g/><clipPath id="c523b56316"><path d="M 51.394531 62.722656 L 758.605469 62.722656 L 758.605469 769.9375 L 51.394531 769.9375 Z M 51.394531 62.722656 " clip-rule="nonzero"/></clipPath><clipPath id="74e0686475"><path d="M 126.394531 62.722656 L 683.605469 62.722656 C 725.027344 62.722656 758.605469 96.300781 758.605469 137.722656 L 758.605469 694.9375 C 758.605469 736.359375 725.027344 769.9375 683.605469 769.9375 L 126.394531 769.9375 C 84.972656 769.9375 51.394531 736.359375 51.394531 694.9375 L 51.394531 137.722656 C 51.394531 96.300781 84.972656 62.722656 126.394531 62.722656 Z M 126.394531 62.722656 " clip-rule="nonzero"/></clipPath><clipPath id="3a9cf52bd0"><path d="M 0.394531 0.722656 L 707.605469 0.722656 L 707.605469 707.9375 L 0.394531 707.9375 Z M 0.394531 0.722656 " clip-rule="nonzero"/></clipPath><clipPath id="5700a89514"><path d="M 75.394531 0.722656 L 632.605469 0.722656 C 674.027344 0.722656 707.605469 34.300781 707.605469 75.722656 L 707.605469 632.9375 C 707.605469 674.359375 674.027344 707.9375 632.605469 707.9375 L 75.394531 707.9375 C 33.972656 707.9375 0.394531 674.359375 0.394531 632.9375 L 0.394531 75.722656 C 0.394531 34.300781 33.972656 0.722656 75.394531 0.722656 Z M 75.394531 0.722656 " clip-rule="nonzero"/></clipPath><clipPath id="650de58691"><rect x="0" width="708" y="0" height="708"/></clipPath><clipPath id="116bb823d3"><path d="M 51.394531 62.722656 L 758.640625 62.722656 L 758.640625 769.972656 L 51.394531 769.972656 Z M 51.394531 62.722656 " clip-rule="nonzero"/></clipPath><clipPath id="92b969b2e7"><path d="M 126.390625 62.722656 L 683.597656 62.722656 C 725.019531 62.722656 758.59375 96.300781 758.59375 137.722656 L 758.59375 694.929688 C 758.59375 736.347656 725.019531 769.925781 683.597656 769.925781 L 126.390625 769.925781 C 84.96875 769.925781 51.394531 736.347656 51.394531 694.929688 L 51.394531 137.722656 C 51.394531 96.300781 84.96875 62.722656 126.390625 62.722656 Z M 126.390625 62.722656 " clip-rule="nonzero"/></clipPath><clipPath id="c5bed45e4a"><path d="M 47.328125 60.808594 L 763.578125 60.808594 L 763.578125 775.558594 L 47.328125 775.558594 Z M 47.328125 60.808594 " clip-rule="nonzero"/></clipPath><clipPath id="c04a07f76c"><path d="M 122.328125 60.808594 L 688.25 60.808594 C 729.671875 60.808594 763.25 94.386719 763.25 135.804688 L 763.25 700.558594 C 763.25 741.980469 729.671875 775.558594 688.25 775.558594 L 122.328125 775.558594 C 80.90625 775.558594 47.328125 741.980469 47.328125 700.558594 L 47.328125 135.804688 C 47.328125 94.386719 80.90625 60.808594 122.328125 60.808594 Z M 122.328125 60.808594 " clip-rule="nonzero"/></clipPath><clipPath id="dcde14b8d8"><path d="M 88.839844 103.125 L 722 103.125 L 722 729.539062 L 88.839844 729.539062 Z M 88.839844 103.125 " clip-rule="nonzero"/></clipPath><clipPath id="85c19a8158"><path d="M 127.089844 103.125 L 682.910156 103.125 C 693.054688 103.125 702.785156 107.152344 709.957031 114.328125 C 717.132812 121.5 721.160156 131.230469 721.160156 141.375 L 721.160156 691.289062 C 721.160156 701.433594 717.132812 711.160156 709.957031 718.335938 C 702.785156 725.507812 693.054688 729.539062 682.910156 729.539062 L 127.089844 729.539062 C 116.945312 729.539062 107.214844 725.507812 100.042969 718.335938 C 92.867188 711.160156 88.839844 701.433594 88.839844 691.289062 L 88.839844 141.375 C 88.839844 131.230469 92.867188 121.5 100.042969 114.328125 C 107.214844 107.152344 116.945312 103.125 127.089844 103.125 Z M 127.089844 103.125 " clip-rule="nonzero"/></clipPath><clipPath id="13bc9df777"><path d="M 0.839844 0.125 L 633 0.125 L 633 626.539062 L 0.839844 626.539062 Z M 0.839844 0.125 " clip-rule="nonzero"/></clipPath><clipPath id="2bcb9f2057"><path d="M 39.089844 0.125 L 594.910156 0.125 C 605.054688 0.125 614.785156 4.152344 621.957031 11.328125 C 629.132812 18.5 633.160156 28.230469 633.160156 38.375 L 633.160156 588.289062 C 633.160156 598.433594 629.132812 608.160156 621.957031 615.335938 C 614.785156 622.507812 605.054688 626.539062 594.910156 626.539062 L 39.089844 626.539062 C 28.945312 626.539062 19.214844 622.507812 12.042969 615.335938 C 4.867188 608.160156 0.839844 598.433594 0.839844 588.289062 L 0.839844 38.375 C 0.839844 28.230469 4.867188 18.5 12.042969 11.328125 C 19.214844 4.152344 28.945312 0.125 39.089844 0.125 Z M 39.089844 0.125 " clip-rule="nonzero"/></clipPath><clipPath id="a513cda815"><rect x="0" width="634" y="0" height="627"/></clipPath><clipPath id="a02bccecc5"><path d="M 88.839844 103.125 L 721.089844 103.125 L 721.089844 729.375 L 88.839844 729.375 Z M 88.839844 103.125 " clip-rule="nonzero"/></clipPath><clipPath id="234f1166d3"><path d="M 127.089844 103.125 L 682.910156 103.125 C 693.054688 103.125 702.78125 107.15625 709.957031 114.328125 C 717.128906 121.5 721.160156 131.230469 721.160156 141.375 L 721.160156 691.285156 C 721.160156 701.429688 717.128906 711.160156 709.957031 718.332031 C 702.78125 725.507812 693.054688 729.535156 682.910156 729.535156 L 127.089844 729.535156 C 116.945312 729.535156 107.214844 725.507812 100.042969 718.332031 C 92.867188 711.160156 88.839844 701.429688 88.839844 691.285156 L 88.839844 141.375 C 88.839844 131.230469 92.867188 121.5 100.042969 114.328125 C 107.214844 107.15625 116.945312 103.125 127.089844 103.125 Z M 127.089844 103.125 " clip-rule="nonzero"/></clipPath><clipPath id="ccb276962d"><path d="M 137.992188 161.386719 L 260.585938 161.386719 L 260.585938 283.980469 L 137.992188 283.980469 Z M 137.992188 161.386719 " clip-rule="nonzero"/></clipPath><clipPath id="3c4ede2432"><path d="M 175.492188 161.386719 L 223.085938 161.386719 C 243.796875 161.386719 260.585938 178.175781 260.585938 198.886719 L 260.585938 246.480469 C 260.585938 267.191406 243.796875 283.980469 223.085938 283.980469 L 175.492188 283.980469 C 154.78125 283.980469 137.992188 267.191406 137.992188 246.480469 L 137.992188 198.886719 C 137.992188 178.175781 154.78125 161.386719 175.492188 161.386719 Z M 175.492188 161.386719 " clip-rule="nonzero"/></clipPath><clipPath id="0545105cd5"><path d="M 0.992188 0.386719 L 123.585938 0.386719 L 123.585938 122.980469 L 0.992188 122.980469 Z M 0.992188 0.386719 " clip-rule="nonzero"/></clipPath><clipPath id="6e65f6423f"><path d="M 38.492188 0.386719 L 86.085938 0.386719 C 106.796875 0.386719 123.585938 17.175781 123.585938 37.886719 L 123.585938 85.480469 C 123.585938 106.191406 106.796875 122.980469 86.085938 122.980469 L 38.492188 122.980469 C 17.78125 122.980469 0.992188 106.191406 0.992188 85.480469 L 0.992188 37.886719 C 0.992188 17.175781 17.78125 0.386719 38.492188 0.386719 Z M 38.492188 0.386719 " clip-rule="nonzero"/></clipPath><clipPath id="413f11b75b"><rect x="0" width="124" y="0" height="123"/></clipPath><clipPath id="10836e2375"><path d="M 137.992188 161.386719 L 260.242188 161.386719 L 260.242188 283.636719 L 137.992188 283.636719 Z M 137.992188 161.386719 " clip-rule="nonzero"/></clipPath><clipPath id="092ff92558"><path d="M 175.488281 161.386719 L 223.082031 161.386719 C 243.792969 161.386719 260.582031 178.175781 260.582031 198.882812 L 260.582031 246.476562 C 260.582031 267.1875 243.792969 283.976562 223.082031 283.976562 L 175.488281 283.976562 C 154.777344 283.976562 137.992188 267.1875 137.992188 246.476562 L 137.992188 198.882812 C 137.992188 178.175781 154.777344 161.386719 175.488281 161.386719 Z M 175.488281 161.386719 " clip-rule="nonzero"/></clipPath><clipPath id="7b1c996a97"><path d="M 420.683594 161.386719 L 543.28125 161.386719 L 543.28125 283.980469 L 420.683594 283.980469 Z M 420.683594 161.386719 " clip-rule="nonzero"/></clipPath><clipPath id="227d7735ad"><path d="M 458.183594 161.386719 L 505.78125 161.386719 C 526.492188 161.386719 543.28125 178.175781 543.28125 198.886719 L 543.28125 246.480469 C 543.28125 267.191406 526.492188 283.980469 505.78125 283.980469 L 458.183594 283.980469 C 437.472656 283.980469 420.683594 267.191406 420.683594 246.480469 L 420.683594 198.886719 C 420.683594 178.175781 437.472656 161.386719 458.183594 161.386719 Z M 458.183594 161.386719 " clip-rule="nonzero"/></clipPath><clipPath id="49b0375695"><path d="M 0.683594 0.386719 L 123.28125 0.386719 L 123.28125 122.980469 L 0.683594 122.980469 Z M 0.683594 0.386719 " clip-rule="nonzero"/></clipPath><clipPath id="14af850077"><path d="M 38.183594 0.386719 L 85.78125 0.386719 C 106.492188 0.386719 123.28125 17.175781 123.28125 37.886719 L 123.28125 85.480469 C 123.28125 106.191406 106.492188 122.980469 85.78125 122.980469 L 38.183594 122.980469 C 17.472656 122.980469 0.683594 106.191406 0.683594 85.480469 L 0.683594 37.886719 C 0.683594 17.175781 17.472656 0.386719 38.183594 0.386719 Z M 38.183594 0.386719 " clip-rule="nonzero"/></clipPath><clipPath id="c57c1703f2"><rect x="0" width="124" y="0" height="123"/></clipPath><clipPath id="d6e6ff69f7"><path d="M 420.683594 161.386719 L 542.933594 161.386719 L 542.933594 283.636719 L 420.683594 283.636719 Z M 420.683594 161.386719 " clip-rule="nonzero"/></clipPath><clipPath id="468cbdbaf4"><path d="M 458.179688 161.386719 L 505.777344 161.386719 C 526.484375 161.386719 543.273438 178.175781 543.273438 198.882812 L 543.273438 246.476562 C 543.273438 267.1875 526.484375 283.976562 505.777344 283.976562 L 458.179688 283.976562 C 437.472656 283.976562 420.683594 267.1875 420.683594 246.476562 L 420.683594 198.882812 C 420.683594 178.175781 437.472656 161.386719 458.179688 161.386719 Z M 458.179688 161.386719 " clip-rule="nonzero"/></clipPath><clipPath id="f0999a8f5f"><path d="M 562.03125 161.386719 L 684.625 161.386719 L 684.625 283.980469 L 562.03125 283.980469 Z M 562.03125 161.386719 " clip-rule="nonzero"/></clipPath><clipPath id="2c049e1860"><path d="M 599.53125 161.386719 L 647.125 161.386719 C 667.835938 161.386719 684.625 178.175781 684.625 198.886719 L 684.625 246.480469 C 684.625 267.191406 667.835938 283.980469 647.125 283.980469 L 599.53125 283.980469 C 578.820312 283.980469 562.03125 267.191406 562.03125 246.480469 L 562.03125 198.886719 C 562.03125 178.175781 578.820312 161.386719 599.53125 161.386719 Z M 599.53125 161.386719 " clip-rule="nonzero"/></clipPath><clipPath id="867bc3f7db"><path d="M 0.03125 0.386719 L 122.625 0.386719 L 122.625 122.980469 L 0.03125 122.980469 Z M 0.03125 0.386719 " clip-rule="nonzero"/></clipPath><clipPath id="2e07eaa578"><path d="M 37.53125 0.386719 L 85.125 0.386719 C 105.835938 0.386719 122.625 17.175781 122.625 37.886719 L 122.625 85.480469 C 122.625 106.191406 105.835938 122.980469 85.125 122.980469 L 37.53125 122.980469 C 16.820312 122.980469 0.03125 106.191406 0.03125 85.480469 L 0.03125 37.886719 C 0.03125 17.175781 16.820312 0.386719 37.53125 0.386719 Z M 37.53125 0.386719 " clip-rule="nonzero"/></clipPath><clipPath id="11a5b246e2"><rect x="0" width="123" y="0" height="123"/></clipPath><clipPath id="a4f2d3a1bd"><path d="M 562.03125 161.386719 L 684.28125 161.386719 L 684.28125 283.636719 L 562.03125 283.636719 Z M 562.03125 161.386719 " clip-rule="nonzero"/></clipPath><clipPath id="e741fc31d2"><path d="M 599.527344 161.386719 L 647.121094 161.386719 C 667.832031 161.386719 684.621094 178.175781 684.621094 198.882812 L 684.621094 246.476562 C 684.621094 267.1875 667.832031 283.976562 647.121094 283.976562 L 599.527344 283.976562 C 578.820312 283.976562 562.03125 267.1875 562.03125 246.476562 L 562.03125 198.882812 C 562.03125 178.175781 578.820312 161.386719 599.527344 161.386719 Z M 599.527344 161.386719 " clip-rule="nonzero"/></clipPath><clipPath id="573b3b8e58"><path d="M 279.335938 161.386719 L 401.933594 161.386719 L 401.933594 283.980469 L 279.335938 283.980469 Z M 279.335938 161.386719 " clip-rule="nonzero"/></clipPath><clipPath id="9928ec82e2"><path d="M 316.835938 161.386719 L 364.433594 161.386719 C 385.144531 161.386719 401.933594 178.175781 401.933594 198.886719 L 401.933594 246.480469 C 401.933594 267.191406 385.144531 283.980469 364.433594 283.980469 L 316.835938 283.980469 C 296.125 283.980469 279.335938 267.191406 279.335938 246.480469 L 279.335938 198.886719 C 279.335938 178.175781 296.125 161.386719 316.835938 161.386719 Z M 316.835938 161.386719 " clip-rule="nonzero"/></clipPath><clipPath id="f03b7801d8"><path d="M 0.335938 0.386719 L 122.933594 0.386719 L 122.933594 122.980469 L 0.335938 122.980469 Z M 0.335938 0.386719 " clip-rule="nonzero"/></clipPath><clipPath id="7e984b145d"><path d="M 37.835938 0.386719 L 85.433594 0.386719 C 106.144531 0.386719 122.933594 17.175781 122.933594 37.886719 L 122.933594 85.480469 C 122.933594 106.191406 106.144531 122.980469 85.433594 122.980469 L 37.835938 122.980469 C 17.125 122.980469 0.335938 106.191406 0.335938 85.480469 L 0.335938 37.886719 C 0.335938 17.175781 17.125 0.386719 37.835938 0.386719 Z M 37.835938 0.386719 " clip-rule="nonzero"/></clipPath><clipPath id="ff386c5711"><rect x="0" width="123" y="0" height="123"/></clipPath><clipPath id="538aff22da"><path d="M 279.335938 161.386719 L 401.585938 161.386719 L 401.585938 283.636719 L 279.335938 283.636719 Z M 279.335938 161.386719 " clip-rule="nonzero"/></clipPath><clipPath id="a489c8b493"><path d="M 316.835938 161.386719 L 364.429688 161.386719 C 385.136719 161.386719 401.925781 178.175781 401.925781 198.882812 L 401.925781 246.476562 C 401.925781 267.1875 385.136719 283.976562 364.429688 283.976562 L 316.835938 283.976562 C 296.125 283.976562 279.335938 267.1875 279.335938 246.476562 L 279.335938 198.882812 C 279.335938 178.175781 296.125 161.386719 316.835938 161.386719 Z M 316.835938 161.386719 " clip-rule="nonzero"/></clipPath><clipPath id="ae9dd76ca2"><path d="M 420.683594 548.679688 L 543.28125 548.679688 L 543.28125 671.277344 L 420.683594 671.277344 Z M 420.683594 548.679688 " clip-rule="nonzero"/></clipPath><clipPath id="217b11f1ce"><path d="M 458.183594 548.679688 L 505.78125 548.679688 C 526.492188 548.679688 543.28125 565.46875 543.28125 586.179688 L 543.28125 633.777344 C 543.28125 654.488281 526.492188 671.277344 505.78125 671.277344 L 458.183594 671.277344 C 437.472656 671.277344 420.683594 654.488281 420.683594 633.777344 L 420.683594 586.179688 C 420.683594 565.46875 437.472656 548.679688 458.183594 548.679688 Z M 458.183594 548.679688 " clip-rule="nonzero"/></clipPath><clipPath id="b6aabd0123"><path d="M 0.683594 0.679688 L 123.28125 0.679688 L 123.28125 123.277344 L 0.683594 123.277344 Z M 0.683594 0.679688 " clip-rule="nonzero"/></clipPath><clipPath id="f34ef9ed12"><path d="M 38.183594 0.679688 L 85.78125 0.679688 C 106.492188 0.679688 123.28125 17.46875 123.28125 38.179688 L 123.28125 85.777344 C 123.28125 106.488281 106.492188 123.277344 85.78125 123.277344 L 38.183594 123.277344 C 17.472656 123.277344 0.683594 106.488281 0.683594 85.777344 L 0.683594 38.179688 C 0.683594 17.46875 17.472656 0.679688 38.183594 0.679688 Z M 38.183594 0.679688 " clip-rule="nonzero"/></clipPath><clipPath id="aed9791c6f"><rect x="0" width="124" y="0" height="124"/></clipPath><clipPath id="1007a75c65"><path d="M 420.683594 548.679688 L 542.933594 548.679688 L 542.933594 670.929688 L 420.683594 670.929688 Z M 420.683594 548.679688 " clip-rule="nonzero"/></clipPath><clipPath id="bfe5d1879f"><path d="M 458.179688 548.679688 L 505.777344 548.679688 C 526.484375 548.679688 543.273438 565.46875 543.273438 586.179688 L 543.273438 633.773438 C 543.273438 654.480469 526.484375 671.269531 505.777344 671.269531 L 458.179688 671.269531 C 437.472656 671.269531 420.683594 654.480469 420.683594 633.773438 L 420.683594 586.179688 C 420.683594 565.46875 437.472656 548.679688 458.179688 548.679688 Z M 458.179688 548.679688 " clip-rule="nonzero"/></clipPath><clipPath id="714dd8a211"><path d="M 280.726562 548.679688 L 403.320312 548.679688 L 403.320312 671.277344 L 280.726562 671.277344 Z M 280.726562 548.679688 " clip-rule="nonzero"/></clipPath><clipPath id="1fb5c94480"><path d="M 318.226562 548.679688 L 365.820312 548.679688 C 386.53125 548.679688 403.320312 565.46875 403.320312 586.179688 L 403.320312 633.777344 C 403.320312 654.488281 386.53125 671.277344 365.820312 671.277344 L 318.226562 671.277344 C 297.515625 671.277344 280.726562 654.488281 280.726562 633.777344 L 280.726562 586.179688 C 280.726562 565.46875 297.515625 548.679688 318.226562 548.679688 Z M 318.226562 548.679688 " clip-rule="nonzero"/></clipPath><clipPath id="f71ea57b64"><path d="M 0.726562 0.679688 L 123.320312 0.679688 L 123.320312 123.277344 L 0.726562 123.277344 Z M 0.726562 0.679688 " clip-rule="nonzero"/></clipPath><clipPath id="18a4afe582"><path d="M 38.226562 0.679688 L 85.820312 0.679688 C 106.53125 0.679688 123.320312 17.46875 123.320312 38.179688 L 123.320312 85.777344 C 123.320312 106.488281 106.53125 123.277344 85.820312 123.277344 L 38.226562 123.277344 C 17.515625 123.277344 0.726562 106.488281 0.726562 85.777344 L 0.726562 38.179688 C 0.726562 17.46875 17.515625 0.679688 38.226562 0.679688 Z M 38.226562 0.679688 " clip-rule="nonzero"/></clipPath><clipPath id="dd52821b27"><rect x="0" width="124" y="0" height="124"/></clipPath><clipPath id="bdf22addbf"><path d="M 280.726562 548.679688 L 402.976562 548.679688 L 402.976562 670.929688 L 280.726562 670.929688 Z M 280.726562 548.679688 " clip-rule="nonzero"/></clipPath><clipPath id="5182f47b66"><path d="M 318.222656 548.679688 L 365.816406 548.679688 C 386.527344 548.679688 403.316406 565.46875 403.316406 586.179688 L 403.316406 633.773438 C 403.316406 654.480469 386.527344 671.269531 365.816406 671.269531 L 318.222656 671.269531 C 297.511719 671.269531 280.726562 654.480469 280.726562 633.773438 L 280.726562 586.179688 C 280.726562 565.46875 297.511719 548.679688 318.222656 548.679688 Z M 318.222656 548.679688 " clip-rule="nonzero"/></clipPath><clipPath id="dff6190e6b"><path d="M 162.5 315.628906 L 648 315.628906 L 648 517.179688 L 162.5 517.179688 Z M 162.5 315.628906 " clip-rule="nonzero"/></clipPath><clipPath id="b5e3cdd52e"><path d="M 218.75 315.628906 L 591.25 315.628906 C 606.167969 315.628906 620.476562 321.558594 631.023438 332.105469 C 641.574219 342.65625 647.5 356.960938 647.5 371.878906 L 647.5 460.929688 C 647.5 475.847656 641.574219 490.15625 631.023438 500.703125 C 620.476562 511.253906 606.167969 517.179688 591.25 517.179688 L 218.75 517.179688 C 203.832031 517.179688 189.523438 511.253906 178.976562 500.703125 C 168.425781 490.15625 162.5 475.847656 162.5 460.929688 L 162.5 371.878906 C 162.5 356.960938 168.425781 342.65625 178.976562 332.105469 C 189.523438 321.558594 203.832031 315.628906 218.75 315.628906 Z M 218.75 315.628906 " clip-rule="nonzero"/></clipPath><clipPath id="ef18553597"><path d="M 0.5 0.628906 L 485.519531 0.628906 L 485.519531 202.179688 L 0.5 202.179688 Z M 0.5 0.628906 " clip-rule="nonzero"/></clipPath><clipPath id="341b3b5fff"><path d="M 56.75 0.628906 L 429.25 0.628906 C 444.167969 0.628906 458.476562 6.558594 469.023438 17.105469 C 479.574219 27.65625 485.5 41.960938 485.5 56.878906 L 485.5 145.929688 C 485.5 160.847656 479.574219 175.15625 469.023438 185.703125 C 458.476562 196.253906 444.167969 202.179688 429.25 202.179688 L 56.75 202.179688 C 41.832031 202.179688 27.523438 196.253906 16.976562 185.703125 C 6.425781 175.15625 0.5 160.847656 0.5 145.929688 L 0.5 56.878906 C 0.5 41.960938 6.425781 27.65625 16.976562 17.105469 C 27.523438 6.558594 41.832031 0.628906 56.75 0.628906 Z M 56.75 0.628906 " clip-rule="nonzero"/></clipPath><clipPath id="9bf4c5e1d2"><rect x="0" width="486" y="0" height="203"/></clipPath><clipPath id="4b12a2f27e"><path d="M 162.511719 315.628906 L 647.75 315.628906 L 647.75 517.378906 L 162.511719 517.378906 Z M 162.511719 315.628906 " clip-rule="nonzero"/></clipPath><clipPath id="7feb8b92f3"><path d="M 218.757812 315.628906 L 591.238281 315.628906 C 606.152344 315.628906 620.460938 321.554688 631.007812 332.105469 C 641.558594 342.652344 647.484375 356.960938 647.484375 371.878906 L 647.484375 460.921875 C 647.484375 475.839844 641.558594 490.148438 631.007812 500.695312 C 620.460938 511.242188 606.152344 517.167969 591.238281 517.167969 L 218.757812 517.167969 C 203.839844 517.167969 189.53125 511.242188 178.984375 500.695312 C 168.4375 490.148438 162.511719 475.839844 162.511719 460.921875 L 162.511719 371.878906 C 162.511719 356.960938 168.4375 342.652344 178.984375 332.105469 C 189.53125 321.554688 203.839844 315.628906 218.757812 315.628906 Z M 218.757812 315.628906 " clip-rule="nonzero"/></clipPath><clipPath id="fab2f859db"><path d="M 308.398438 332.273438 L 481.980469 332.273438 L 481.980469 505.855469 L 308.398438 505.855469 Z M 308.398438 332.273438 " clip-rule="nonzero"/></clipPath><clipPath id="80cb916584"><path d="M 395.191406 332.273438 C 347.257812 332.273438 308.398438 371.128906 308.398438 419.0625 C 308.398438 466.996094 347.257812 505.855469 395.191406 505.855469 C 443.125 505.855469 481.980469 466.996094 481.980469 419.0625 C 481.980469 371.128906 443.125 332.273438 395.191406 332.273438 Z M 395.191406 332.273438 " clip-rule="nonzero"/></clipPath><clipPath id="b2047afb1b"><path d="M 0.398438 0.273438 L 173.980469 0.273438 L 173.980469 173.855469 L 0.398438 173.855469 Z M 0.398438 0.273438 " clip-rule="nonzero"/></clipPath><clipPath id="cc76918b0f"><path d="M 87.191406 0.273438 C 39.257812 0.273438 0.398438 39.128906 0.398438 87.0625 C 0.398438 134.996094 39.257812 173.855469 87.191406 173.855469 C 135.125 173.855469 173.980469 134.996094 173.980469 87.0625 C 173.980469 39.128906 135.125 0.273438 87.191406 0.273438 Z M 87.191406 0.273438 " clip-rule="nonzero"/></clipPath><clipPath id="e7b43f33c6"><rect x="0" width="174" y="0" height="174"/></clipPath><clipPath id="8b4fad2963"><path d="M 175.921875 378.480469 L 326.785156 378.480469 L 326.785156 477.253906 L 175.921875 477.253906 Z M 175.921875 378.480469 " clip-rule="nonzero"/></clipPath><clipPath id="507514b0a3"><path d="M 261.382812 378.480469 C 263.03125 378.480469 264.691406 378.480469 266.339844 378.480469 C 279.476562 380.128906 287.6875 385.621094 291.425781 394.609375 C 313.324219 393.410156 329.25 410.402344 319.542969 427.078125 C 322.769531 430.582031 325.464844 434.5 326.433594 439.761719 C 326.433594 441.269531 326.433594 442.773438 326.433594 444.277344 C 323.539062 457.667969 311.070312 466.714844 290.601562 464.28125 C 285.335938 471.15625 275.964844 478.039062 261.382812 477.183594 C 253.847656 476.730469 248.601562 474.117188 244.011719 470.941406 C 239.175781 473.582031 233.941406 475.652344 226.375 475.675781 C 208.867188 475.714844 197.160156 465.542969 196.875 451.589844 C 185.621094 448.328125 178 442.234375 175.921875 431.8125 C 175.921875 430.304688 175.921875 428.792969 175.921875 427.292969 C 178.214844 416.964844 185.421875 410.476562 197.421875 407.722656 C 196.703125 390.296875 220.707031 379.410156 240.425781 387.085938 C 245.121094 383.289062 251.765625 379.148438 261.382812 378.480469 Z M 261.382812 378.480469 " clip-rule="nonzero"/></clipPath><clipPath id="b0ee35d3a5"><path d="M 0.921875 0.480469 L 151.785156 0.480469 L 151.785156 99.253906 L 0.921875 99.253906 Z M 0.921875 0.480469 " clip-rule="nonzero"/></clipPath><clipPath id="120d49e7e6"><path d="M 86.382812 0.480469 C 88.03125 0.480469 89.691406 0.480469 91.339844 0.480469 C 104.476562 2.128906 112.6875 7.621094 116.425781 16.609375 C 138.324219 15.410156 154.25 32.402344 144.542969 49.078125 C 147.769531 52.582031 150.464844 56.5 151.433594 61.761719 C 151.433594 63.269531 151.433594 64.773438 151.433594 66.277344 C 148.539062 79.667969 136.070312 88.714844 115.601562 86.28125 C 110.335938 93.15625 100.964844 100.039062 86.382812 99.183594 C 78.847656 98.730469 73.601562 96.117188 69.011719 92.941406 C 64.175781 95.582031 58.941406 97.652344 51.375 97.675781 C 33.867188 97.714844 22.160156 87.542969 21.875 73.589844 C 10.621094 70.328125 3 64.234375 0.921875 53.8125 C 0.921875 52.304688 0.921875 50.792969 0.921875 49.292969 C 3.214844 38.964844 10.421875 32.476562 22.421875 29.722656 C 21.703125 12.296875 45.707031 1.410156 65.425781 9.085938 C 70.121094 5.289062 76.765625 1.148438 86.382812 0.480469 Z M 86.382812 0.480469 " clip-rule="nonzero"/></clipPath><clipPath id="a709f76bdc"><rect x="0" width="152" y="0" height="100"/></clipPath><clipPath id="2a7dfa24a1"><path d="M 395.191406 329.09375 L 546 329.09375 L 546 427.867188 L 395.191406 427.867188 Z M 395.191406 329.09375 " clip-rule="nonzero"/></clipPath><clipPath id="07b3ba837b"><path d="M 480.648438 329.09375 C 482.296875 329.09375 483.960938 329.09375 485.605469 329.09375 C 498.742188 330.746094 506.953125 336.234375 510.691406 345.222656 C 532.59375 344.023438 548.515625 361.015625 538.8125 377.691406 C 542.039062 381.195312 544.730469 385.113281 545.703125 390.375 C 545.703125 391.882812 545.703125 393.386719 545.703125 394.890625 C 542.804688 408.28125 530.335938 417.328125 509.871094 414.894531 C 504.601562 421.769531 495.234375 428.652344 480.652344 427.796875 C 473.113281 427.34375 467.871094 424.730469 463.28125 421.554688 C 458.445312 424.195312 453.207031 426.265625 445.640625 426.289062 C 428.136719 426.328125 416.425781 416.15625 416.140625 402.203125 C 404.886719 398.941406 397.265625 392.847656 395.191406 382.425781 C 395.191406 380.917969 395.191406 379.40625 395.191406 377.90625 C 397.480469 367.578125 404.6875 361.089844 416.6875 358.339844 C 415.96875 340.910156 439.972656 330.023438 459.695312 337.699219 C 464.390625 333.902344 471.03125 329.761719 480.648438 329.09375 Z M 480.648438 329.09375 " clip-rule="nonzero"/></clipPath><clipPath id="9f987a93a1"><path d="M 0.191406 0.09375 L 151 0.09375 L 151 98.867188 L 0.191406 98.867188 Z M 0.191406 0.09375 " clip-rule="nonzero"/></clipPath><clipPath id="9a381cf1ac"><path d="M 85.648438 0.09375 C 87.296875 0.09375 88.960938 0.09375 90.605469 0.09375 C 103.742188 1.746094 111.953125 7.234375 115.691406 16.222656 C 137.59375 15.023438 153.515625 32.015625 143.8125 48.691406 C 147.039062 52.195312 149.730469 56.113281 150.703125 61.375 C 150.703125 62.882812 150.703125 64.386719 150.703125 65.890625 C 147.804688 79.28125 135.335938 88.328125 114.871094 85.894531 C 109.601562 92.769531 100.234375 99.652344 85.652344 98.796875 C 78.113281 98.34375 72.871094 95.730469 68.28125 92.554688 C 63.445312 95.195312 58.207031 97.265625 50.640625 97.289062 C 33.136719 97.328125 21.425781 87.15625 21.140625 73.203125 C 9.886719 69.941406 2.265625 63.847656 0.191406 53.425781 C 0.191406 51.917969 0.191406 50.40625 0.191406 48.90625 C 2.480469 38.578125 9.6875 32.089844 21.6875 29.339844 C 20.96875 11.910156 44.972656 1.023438 64.695312 8.699219 C 69.390625 4.902344 76.03125 0.761719 85.648438 0.09375 Z M 85.648438 0.09375 " clip-rule="nonzero"/></clipPath><clipPath id="936f7f8d41"><rect x="0" width="151" y="0" height="99"/></clipPath><clipPath id="7eca438f07"><path d="M 458.363281 392.90625 L 609 392.90625 L 609 491.679688 L 458.363281 491.679688 Z M 458.363281 392.90625 " clip-rule="nonzero"/></clipPath><clipPath id="2d2a225268"><path d="M 543.820312 392.90625 C 545.472656 392.90625 547.132812 392.90625 548.78125 392.90625 C 561.917969 394.554688 570.125 400.046875 573.867188 409.035156 C 595.765625 407.835938 611.6875 424.828125 601.984375 441.503906 C 605.210938 445.007812 607.902344 448.925781 608.875 454.1875 C 608.875 455.695312 608.875 457.195312 608.875 458.703125 C 605.976562 472.09375 593.511719 481.140625 573.042969 478.707031 C 567.777344 485.582031 558.40625 492.464844 543.824219 491.609375 C 536.285156 491.15625 531.042969 488.542969 526.453125 485.367188 C 521.617188 488.007812 516.378906 490.078125 508.8125 490.101562 C 491.308594 490.140625 479.597656 479.96875 479.3125 466.015625 C 468.0625 462.753906 460.4375 456.660156 458.363281 446.238281 C 458.363281 444.730469 458.363281 443.21875 458.363281 441.71875 C 460.652344 431.390625 467.863281 424.902344 479.863281 422.148438 C 479.140625 404.722656 503.144531 393.835938 522.867188 401.511719 C 527.5625 397.714844 534.207031 393.574219 543.820312 392.90625 Z M 543.820312 392.90625 " clip-rule="nonzero"/></clipPath><clipPath id="b2b985624b"><path d="M 0.363281 0.90625 L 151 0.90625 L 151 99.679688 L 0.363281 99.679688 Z M 0.363281 0.90625 " clip-rule="nonzero"/></clipPath><clipPath id="323e0ee4f8"><path d="M 85.820312 0.90625 C 87.472656 0.90625 89.132812 0.90625 90.78125 0.90625 C 103.917969 2.554688 112.125 8.046875 115.867188 17.035156 C 137.765625 15.835938 153.6875 32.828125 143.984375 49.503906 C 147.210938 53.007812 149.902344 56.925781 150.875 62.1875 C 150.875 63.695312 150.875 65.195312 150.875 66.703125 C 147.976562 80.09375 135.511719 89.140625 115.042969 86.707031 C 109.777344 93.582031 100.40625 100.464844 85.824219 99.609375 C 78.285156 99.15625 73.042969 96.542969 68.453125 93.367188 C 63.617188 96.007812 58.378906 98.078125 50.8125 98.101562 C 33.308594 98.140625 21.597656 87.96875 21.3125 74.015625 C 10.0625 70.753906 2.4375 64.660156 0.363281 54.238281 C 0.363281 52.730469 0.363281 51.21875 0.363281 49.71875 C 2.652344 39.390625 9.863281 32.902344 21.863281 30.148438 C 21.140625 12.722656 45.144531 1.835938 64.867188 9.511719 C 69.5625 5.714844 76.207031 1.574219 85.820312 0.90625 Z M 85.820312 0.90625 " clip-rule="nonzero"/></clipPath><clipPath id="4f482576e0"><rect x="0" width="151" y="0" height="100"/></clipPath></defs><g clip-path="url(#c523b56316)"><g clip-path="url(#74e0686475)"><g transform="matrix(1, 0, 0, 1, 51, 62)"><g clip-path="url(#650de58691)"><g clip-path="url(#3a9cf52bd0)"><g clip-path="url(#5700a89514)"><path fill="#ffffff" d="M 0.394531 0.722656 L 707.605469 0.722656 L 707.605469 707.9375 L 0.394531 707.9375 Z M 0.394531 0.722656 " fill-opacity="1" fill-rule="nonzero"/></g></g></g></g></g></g><g clip-path="url(#116bb823d3)"><g clip-path="url(#92b969b2e7)"><path stroke-linecap="butt" transform="matrix(0.75, 0, 0, 0.75, 51.3926, 62.723842)" fill="none" stroke-linejoin="miter" d="M 99.997372 -0.00158053 L 842.940117 -0.00158053 C 898.169287 -0.00158053 942.934914 44.769255 942.934914 99.998425 L 942.934914 842.94117 C 942.934914 898.165131 898.169287 942.935967 842.940117 942.935967 L 99.997372 942.935967 C 44.768202 942.935967 0.00257485 898.165131 0.00257485 842.94117 L 0.00257485 99.998425 C 0.00257485 44.769255 44.768202 -0.00158053 99.997372 -0.00158053 Z M 99.997372 -0.00158053 " stroke="#67c7ff" stroke-width="120" stroke-opacity="1" stroke-miterlimit="4"/></g></g><g clip-path="url(#c5bed45e4a)"><g clip-path="url(#c04a07f76c)"><path stroke-linecap="butt" transform="matrix(0.75, 0, 0, 0.75, 47.329535, 60.807387)" fill="none" stroke-linejoin="miter" d="M 99.998119 0.00160961 L 854.560609 0.00160961 C 909.789775 0.00160961 954.560607 44.772442 954.560607 99.9964 L 954.560607 853.001598 C 954.560607 908.230764 909.789775 953.001597 854.560609 953.001597 L 99.998119 953.001597 C 44.768953 953.001597 -0.00187963 908.230764 -0.00187963 853.001598 L -0.00187963 99.9964 C -0.00187963 44.772442 44.768953 0.00160961 99.998119 0.00160961 Z M 99.998119 0.00160961 " stroke="#000000" stroke-width="20" stroke-opacity="1" stroke-miterlimit="4"/></g></g><g clip-path="url(#dcde14b8d8)"><g clip-path="url(#85c19a8158)"><g transform="matrix(1, 0, 0, 1, 88, 103)"><g clip-path="url(#a513cda815)"><g clip-path="url(#13bc9df777)"><g clip-path="url(#2bcb9f2057)"><path fill="#ffffff" d="M 0.839844 0.125 L 632.148438 0.125 L 632.148438 626.539062 L 0.839844 626.539062 Z M 0.839844 0.125 " fill-opacity="1" fill-rule="nonzero"/></g></g></g></g></g></g><g clip-path="url(#a02bccecc5)"><g clip-path="url(#234f1166d3)"><path stroke-linecap="butt" transform="matrix(0.75, 0, 0, 0.75, 88.838181, 103.125483)" fill="none" stroke-linejoin="miter" d="M 51.00222 -0.000643749 L 792.096007 -0.000643749 C 805.62205 -0.000643749 818.5908 5.374357 828.158509 14.936857 C 837.72101 24.499357 843.09601 37.473316 843.09601 50.999359 L 843.09601 784.212937 C 843.09601 797.73898 837.72101 810.712939 828.158509 820.275439 C 818.5908 829.843148 805.62205 835.21294 792.096007 835.21294 L 51.00222 835.21294 C 37.476178 835.21294 24.502219 829.843148 14.939718 820.275439 C 5.372009 810.712939 0.00221749 797.73898 0.00221749 784.212937 L 0.00221749 50.999359 C 0.00221749 37.473316 5.372009 24.499357 14.939718 14.936857 C 24.502219 5.374357 37.476178 -0.000643749 51.00222 -0.000643749 Z M 51.00222 -0.000643749 " stroke="#000000" stroke-width="20" stroke-opacity="1" stroke-miterlimit="4"/></g></g><g clip-path="url(#ccb276962d)"><g clip-path="url(#3c4ede2432)"><g transform="matrix(1, 0, 0, 1, 137, 161)"><g clip-path="url(#413f11b75b)"><g clip-path="url(#0545105cd5)"><g clip-path="url(#6e65f6423f)"><path fill="#d9d9d9" d="M 0.992188 0.386719 L 123.585938 0.386719 L 123.585938 122.980469 L 0.992188 122.980469 Z M 0.992188 0.386719 " fill-opacity="1" fill-rule="nonzero"/></g></g></g></g></g></g><g clip-path="url(#10836e2375)"><g clip-path="url(#092ff92558)"><path stroke-linecap="butt" transform="matrix(0.75, 0, 0, 0.75, 137.990519, 161.385729)" fill="none" stroke-linejoin="miter" d="M 49.997016 0.00131903 L 113.455348 0.00131903 C 141.069931 0.00131903 163.455347 22.386735 163.455347 49.99611 L 163.455347 113.454442 C 163.455347 141.069025 141.069931 163.454442 113.455348 163.454442 L 49.997016 163.454442 C 22.382433 163.454442 0.00222472 141.069025 0.00222472 113.454442 L 0.00222472 49.99611 C 0.00222472 22.386735 22.382433 0.00131903 49.997016 0.00131903 Z M 49.997016 0.00131903 " stroke="#000000" stroke-width="20" stroke-opacity="1" stroke-miterlimit="4"/></g></g><g clip-path="url(#7b1c996a97)"><g clip-path="url(#227d7735ad)"><g transform="matrix(1, 0, 0, 1, 420, 161)"><g clip-path="url(#c57c1703f2)"><g clip-path="url(#49b0375695)"><g clip-path="url(#14af850077)"><path fill="#d9d9d9" d="M 0.683594 0.386719 L 123.28125 0.386719 L 123.28125 122.980469 L 0.683594 122.980469 Z M 0.683594 0.386719 " fill-opacity="1" fill-rule="nonzero"/></g></g></g></g></g></g><g clip-path="url(#d6e6ff69f7)"><g clip-path="url(#468cbdbaf4)"><path stroke-linecap="butt" transform="matrix(0.75, 0, 0, 0.75, 420.683646, 161.385729)" fill="none" stroke-linejoin="miter" d="M 49.994721 0.00131903 L 113.458262 0.00131903 C 141.067636 0.00131903 163.453053 22.386735 163.453053 49.99611 L 163.453053 113.454442 C 163.453053 141.069025 141.067636 163.454442 113.458262 163.454442 L 49.994721 163.454442 C 22.385346 163.454442 -0.0000701146 141.069025 -0.0000701146 113.454442 L -0.0000701146 49.99611 C -0.0000701146 22.386735 22.385346 0.00131903 49.994721 0.00131903 Z M 49.994721 0.00131903 " stroke="#000000" stroke-width="20" stroke-opacity="1" stroke-miterlimit="4"/></g></g><g clip-path="url(#f0999a8f5f)"><g clip-path="url(#2c049e1860)"><g transform="matrix(1, 0, 0, 1, 562, 161)"><g clip-path="url(#11a5b246e2)"><g clip-path="url(#867bc3f7db)"><g clip-path="url(#2e07eaa578)"><path fill="#d9d9d9" d="M 0.03125 0.386719 L 122.625 0.386719 L 122.625 122.980469 L 0.03125 122.980469 Z M 0.03125 0.386719 " fill-opacity="1" fill-rule="nonzero"/></g></g></g></g></g></g><g clip-path="url(#a4f2d3a1bd)"><g clip-path="url(#e741fc31d2)"><path stroke-linecap="butt" transform="matrix(0.75, 0, 0, 0.75, 562.030223, 161.385729)" fill="none" stroke-linejoin="miter" d="M 49.99616 0.00131903 L 113.454492 0.00131903 C 141.069075 0.00131903 163.454492 22.386735 163.454492 49.99611 L 163.454492 113.454442 C 163.454492 141.069025 141.069075 163.454442 113.454492 163.454442 L 49.99616 163.454442 C 22.386785 163.454442 0.00136903 141.069025 0.00136903 113.454442 L 0.00136903 49.99611 C 0.00136903 22.386735 22.386785 0.00131903 49.99616 0.00131903 Z M 49.99616 0.00131903 " stroke="#000000" stroke-width="20" stroke-opacity="1" stroke-miterlimit="4"/></g></g><g clip-path="url(#573b3b8e58)"><g clip-path="url(#9928ec82e2)"><g transform="matrix(1, 0, 0, 1, 279, 161)"><g clip-path="url(#ff386c5711)"><g clip-path="url(#f03b7801d8)"><g clip-path="url(#7e984b145d)"><path fill="#d9d9d9" d="M 0.335938 0.386719 L 122.933594 0.386719 L 122.933594 122.980469 L 0.335938 122.980469 Z M 0.335938 0.386719 " fill-opacity="1" fill-rule="nonzero"/></g></g></g></g></g></g><g clip-path="url(#538aff22da)"><g clip-path="url(#a489c8b493)"><path stroke-linecap="butt" transform="matrix(0.75, 0, 0, 0.75, 279.337079, 161.385729)" fill="none" stroke-linejoin="miter" d="M 49.998477 0.00131903 L 113.45681 0.00131903 C 141.066184 0.00131903 163.451601 22.386735 163.451601 49.99611 L 163.451601 113.454442 C 163.451601 141.069025 141.066184 163.454442 113.45681 163.454442 L 49.998477 163.454442 C 22.383894 163.454442 -0.00152206 141.069025 -0.00152206 113.454442 L -0.00152206 49.99611 C -0.00152206 22.386735 22.383894 0.00131903 49.998477 0.00131903 Z M 49.998477 0.00131903 " stroke="#000000" stroke-width="20" stroke-opacity="1" stroke-miterlimit="4"/></g></g><g clip-path="url(#ae9dd76ca2)"><g clip-path="url(#217b11f1ce)"><g transform="matrix(1, 0, 0, 1, 420, 548)"><g clip-path="url(#aed9791c6f)"><g clip-path="url(#b6aabd0123)"><g clip-path="url(#f34ef9ed12)"><path fill="#67c7ff" d="M 0.683594 0.679688 L 123.28125 0.679688 L 123.28125 123.277344 L 0.683594 123.277344 Z M 0.683594 0.679688 " fill-opacity="1" fill-rule="nonzero"/></g></g></g></g></g></g><g clip-path="url(#1007a75c65)"><g clip-path="url(#bfe5d1879f)"><path stroke-linecap="butt" transform="matrix(0.75, 0, 0, 0.75, 420.683646, 548.68012)" fill="none" stroke-linejoin="miter" d="M 49.994721 -0.000577196 L 113.458262 -0.000577196 C 141.067636 -0.000577196 163.453053 22.384839 163.453053 49.999422 L 163.453053 113.457755 C 163.453053 141.067129 141.067636 163.452546 113.458262 163.452546 L 49.994721 163.452546 C 22.385346 163.452546 -0.0000701146 141.067129 -0.0000701146 113.457755 L -0.0000701146 49.999422 C -0.0000701146 22.384839 22.385346 -0.000577196 49.994721 -0.000577196 Z M 49.994721 -0.000577196 " stroke="#000000" stroke-width="20" stroke-opacity="1" stroke-miterlimit="4"/></g></g><g clip-path="url(#714dd8a211)"><g clip-path="url(#1fb5c94480)"><g transform="matrix(1, 0, 0, 1, 280, 548)"><g clip-path="url(#dd52821b27)"><g clip-path="url(#f71ea57b64)"><g clip-path="url(#18a4afe582)"><path fill="#67c7ff" d="M 0.726562 0.679688 L 123.320312 0.679688 L 123.320312 123.277344 L 0.726562 123.277344 Z M 0.726562 0.679688 " fill-opacity="1" fill-rule="nonzero"/></g></g></g></g></g></g><g clip-path="url(#bdf22addbf)"><g clip-path="url(#5182f47b66)"><path stroke-linecap="butt" transform="matrix(0.75, 0, 0, 0.75, 280.724901, 548.68012)" fill="none" stroke-linejoin="miter" d="M 49.997007 -0.000577196 L 113.455339 -0.000577196 C 141.069922 -0.000577196 163.455339 22.384839 163.455339 49.999422 L 163.455339 113.457755 C 163.455339 141.067129 141.069922 163.452546 113.455339 163.452546 L 49.997007 163.452546 C 22.382424 163.452546 0.0022159 141.067129 0.0022159 113.457755 L 0.0022159 49.999422 C 0.0022159 22.384839 22.382424 -0.000577196 49.997007 -0.000577196 Z M 49.997007 -0.000577196 " stroke="#000000" stroke-width="20" stroke-opacity="1" stroke-miterlimit="4"/></g></g><g clip-path="url(#dff6190e6b)"><g clip-path="url(#b5e3cdd52e)"><g transform="matrix(1, 0, 0, 1, 162, 315)"><g clip-path="url(#9bf4c5e1d2)"><g clip-path="url(#ef18553597)"><g clip-path="url(#341b3b5fff)"><path fill="#d7f0ff" d="M 0.5 0.628906 L 485.480469 0.628906 L 485.480469 202.179688 L 0.5 202.179688 Z M 0.5 0.628906 " fill-opacity="1" fill-rule="nonzero"/></g></g></g></g></g></g><g clip-path="url(#4b12a2f27e)"><g clip-path="url(#7feb8b92f3)"><path stroke-linecap="butt" transform="matrix(0.75, 0, 0, 0.75, 162.509938, 315.630532)" fill="none" stroke-linejoin="miter" d="M 74.99717 -0.00216783 L 571.632612 -0.00216783 C 591.523238 -0.00216783 610.601364 7.898874 624.663864 21.966583 C 638.731574 36.029084 646.632616 55.10721 646.632616 74.997836 L 646.632616 193.7218 C 646.632616 213.612426 638.731574 232.690552 624.663864 246.753053 C 610.601364 260.815554 591.523238 268.716596 571.632612 268.716596 L 74.99717 268.716596 C 55.106544 268.716596 36.028418 260.815554 21.965917 246.753053 C 7.903417 232.690552 0.0023747 213.612426 0.0023747 193.7218 L 0.0023747 74.997836 C 0.0023747 55.10721 7.903417 36.029084 21.965917 21.966583 C 36.028418 7.898874 55.106544 -0.00216783 74.99717 -0.00216783 Z M 74.99717 -0.00216783 " stroke="#000000" stroke-width="20" stroke-opacity="1" stroke-miterlimit="4"/></g></g><g clip-path="url(#fab2f859db)"><g clip-path="url(#80cb916584)"><g transform="matrix(1, 0, 0, 1, 308, 332)"><g clip-path="url(#e7b43f33c6)"><g clip-path="url(#b2047afb1b)"><g clip-path="url(#cc76918b0f)"><path fill="#ffe372" d="M 0.398438 0.273438 L 173.980469 0.273438 L 173.980469 173.855469 L 0.398438 173.855469 Z M 0.398438 0.273438 " fill-opacity="1" fill-rule="nonzero"/></g></g></g></g></g></g><g clip-path="url(#8b4fad2963)"><g clip-path="url(#507514b0a3)"><g transform="matrix(1, 0, 0, 1, 175, 378)"><g clip-path="url(#a709f76bdc)"><g clip-path="url(#b0ee35d3a5)"><g clip-path="url(#120d49e7e6)"><path fill="#ffffff" d="M 0.921875 0.480469 L 151.398438 0.480469 L 151.398438 99.253906 L 0.921875 99.253906 Z M 0.921875 0.480469 " fill-opacity="1" fill-rule="nonzero"/></g></g></g></g></g></g><g clip-path="url(#2a7dfa24a1)"><g clip-path="url(#07b3ba837b)"><g transform="matrix(1, 0, 0, 1, 395, 329)"><g clip-path="url(#936f7f8d41)"><g clip-path="url(#9f987a93a1)"><g clip-path="url(#9a381cf1ac)"><path fill="#ffffff" d="M 0.191406 0.09375 L 150.664062 0.09375 L 150.664062 98.867188 L 0.191406 98.867188 Z M 0.191406 0.09375 " fill-opacity="1" fill-rule="nonzero"/></g></g></g></g></g></g><g clip-path="url(#7eca438f07)"><g clip-path="url(#2d2a225268)"><g transform="matrix(1, 0, 0, 1, 458, 392)"><g clip-path="url(#4f482576e0)"><g clip-path="url(#b2b985624b)"><g clip-path="url(#323e0ee4f8)"><path fill="#ffffff" d="M 0.363281 0.90625 L 150.839844 0.90625 L 150.839844 99.679688 L 0.363281 99.679688 Z M 0.363281 0.90625 " fill-opacity="1" fill-rule="nonzero"/></g></g></g></g></g></g><g fill="#000000" fill-opacity="1"><g transform="translate(207.335033, 460.206237)"><g><path d="M 25.4375 -76.078125 L 25.4375 -45.796875 L 69 -45.796875 L 69 -35.125 L 25.4375 -35.125 L 25.4375 0 L 13.03125 0 L 13.03125 -86.875 L 74.34375 -86.875 L 74.34375 -76.078125 Z M 25.4375 -76.078125 "/></g></g></g><g fill="#000000" fill-opacity="1"><g transform="translate(284.898471, 460.206237)"><g><path d="M 22.71875 -54.734375 C 24.78125 -58.535156 27.835938 -61.429688 31.890625 -63.421875 C 35.953125 -65.410156 40.878906 -66.40625 46.671875 -66.40625 L 46.671875 -54.859375 C 46.003906 -54.941406 45.09375 -54.984375 43.9375 -54.984375 C 37.476562 -54.984375 32.40625 -53.054688 28.71875 -49.203125 C 25.039062 -45.359375 23.203125 -39.878906 23.203125 -32.765625 L 23.203125 0 L 11.296875 0 L 11.296875 -65.78125 L 22.71875 -65.78125 Z M 22.71875 -54.734375 "/></g></g></g><g fill="#000000" fill-opacity="1"><g transform="translate(334.91137, 460.206237)"><g><path d="M 11.296875 -65.78125 L 23.203125 -65.78125 L 23.203125 0 L 11.296875 0 Z M 17.25 -78.4375 C 14.9375 -78.4375 13.015625 -79.179688 11.484375 -80.671875 C 9.953125 -82.160156 9.1875 -83.976562 9.1875 -86.125 C 9.1875 -88.28125 9.953125 -90.125 11.484375 -91.65625 C 13.015625 -93.1875 14.9375 -93.953125 17.25 -93.953125 C 19.570312 -93.953125 21.492188 -93.226562 23.015625 -91.78125 C 24.546875 -90.332031 25.3125 -88.53125 25.3125 -86.375 C 25.3125 -84.144531 24.546875 -82.265625 23.015625 -80.734375 C 21.492188 -79.203125 19.570312 -78.4375 17.25 -78.4375 Z M 17.25 -78.4375 "/></g></g></g><g fill="#000000" fill-opacity="1"><g transform="translate(369.535696, 460.206237)"><g><path d="M 73.34375 -92.09375 L 73.34375 0 L 61.9375 0 L 61.9375 -10.421875 C 59.28125 -6.785156 55.925781 -4.015625 51.875 -2.109375 C 47.820312 -0.203125 43.351562 0.75 38.46875 0.75 C 32.101562 0.75 26.394531 -0.65625 21.34375 -3.46875 C 16.300781 -6.28125 12.351562 -10.226562 9.5 -15.3125 C 6.644531 -20.40625 5.21875 -26.265625 5.21875 -32.890625 C 5.21875 -39.503906 6.644531 -45.332031 9.5 -50.375 C 12.351562 -55.425781 16.300781 -59.359375 21.34375 -62.171875 C 26.394531 -64.992188 32.101562 -66.40625 38.46875 -66.40625 C 43.1875 -66.40625 47.53125 -65.515625 51.5 -63.734375 C 55.476562 -61.953125 58.789062 -59.320312 61.4375 -55.84375 L 61.4375 -92.09375 Z M 39.46875 -9.6875 C 43.601562 -9.6875 47.363281 -10.65625 50.75 -12.59375 C 54.144531 -14.539062 56.796875 -17.269531 58.703125 -20.78125 C 60.609375 -24.300781 61.5625 -28.335938 61.5625 -32.890625 C 61.5625 -37.441406 60.609375 -41.472656 58.703125 -44.984375 C 56.796875 -48.503906 54.144531 -51.210938 50.75 -53.109375 C 47.363281 -55.015625 43.601562 -55.96875 39.46875 -55.96875 C 35.25 -55.96875 31.460938 -55.015625 28.109375 -53.109375 C 24.753906 -51.210938 22.101562 -48.503906 20.15625 -44.984375 C 18.21875 -41.472656 17.25 -37.441406 17.25 -32.890625 C 17.25 -28.335938 18.21875 -24.300781 20.15625 -20.78125 C 22.101562 -17.269531 24.753906 -14.539062 28.109375 -12.59375 C 31.460938 -10.65625 35.25 -9.6875 39.46875 -9.6875 Z M 39.46875 -9.6875 "/></g></g></g><g fill="#000000" fill-opacity="1"><g transform="translate(454.172933, 460.206237)"><g><path d="M 35.25 -66.40625 C 44.351562 -66.40625 51.320312 -64.171875 56.15625 -59.703125 C 61 -55.234375 63.421875 -48.570312 63.421875 -39.71875 L 63.421875 0 L 52.125 0 L 52.125 -8.6875 C 50.132812 -5.625 47.296875 -3.285156 43.609375 -1.671875 C 39.929688 -0.0546875 35.570312 0.75 30.53125 0.75 C 23.164062 0.75 17.269531 -1.023438 12.84375 -4.578125 C 8.414062 -8.140625 6.203125 -12.816406 6.203125 -18.609375 C 6.203125 -24.398438 8.3125 -29.054688 12.53125 -32.578125 C 16.75 -36.097656 23.453125 -37.859375 32.640625 -37.859375 L 51.5 -37.859375 L 51.5 -40.21875 C 51.5 -45.34375 50.007812 -49.269531 47.03125 -52 C 44.050781 -54.726562 39.664062 -56.09375 33.875 -56.09375 C 29.988281 -56.09375 26.179688 -55.453125 22.453125 -54.171875 C 18.734375 -52.890625 15.59375 -51.171875 13.03125 -49.015625 L 8.0625 -57.953125 C 11.457031 -60.679688 15.507812 -62.769531 20.21875 -64.21875 C 24.9375 -65.675781 29.945312 -66.40625 35.25 -66.40625 Z M 32.515625 -8.4375 C 37.066406 -8.4375 40.992188 -9.445312 44.296875 -11.46875 C 47.609375 -13.5 50.007812 -16.378906 51.5 -20.109375 L 51.5 -29.296875 L 33.140625 -29.296875 C 23.046875 -29.296875 18 -25.898438 18 -19.109375 C 18 -15.804688 19.28125 -13.203125 21.84375 -11.296875 C 24.40625 -9.390625 27.960938 -8.4375 32.515625 -8.4375 Z M 32.515625 -8.4375 "/></g></g></g><g fill="#000000" fill-opacity="1"><g transform="translate(527.144602, 460.206237)"><g><path d="M 69.5 -65.78125 L 37.609375 6.578125 C 34.796875 13.273438 31.503906 17.988281 27.734375 20.71875 C 23.972656 23.457031 19.445312 24.828125 14.15625 24.828125 C 10.925781 24.828125 7.800781 24.304688 4.78125 23.265625 C 1.757812 22.234375 -0.742188 20.722656 -2.734375 18.734375 L 2.359375 9.796875 C 5.753906 13.023438 9.6875 14.640625 14.15625 14.640625 C 17.050781 14.640625 19.46875 13.875 21.40625 12.34375 C 23.351562 10.8125 25.113281 8.1875 26.6875 4.46875 L 28.796875 -0.125 L -0.25 -65.78125 L 12.15625 -65.78125 L 35.125 -13.15625 L 57.828125 -65.78125 Z M 69.5 -65.78125 "/></g></g></g><g fill="#000000" fill-opacity="1"><g transform="translate(169.068365, 244.809017)"><g><path d="M 47.171875 0 L 47.109375 -29.703125 L 32.390625 -5.125 L 28.671875 -5.125 L 13.953125 -29.3125 L 13.953125 0 L 6.015625 0 L 6.015625 -44.796875 L 12.859375 -44.796875 L 30.65625 -15.109375 L 48.125 -44.796875 L 54.96875 -44.796875 L 55.046875 0 Z M 47.171875 0 "/></g></g></g><g fill="#000000" fill-opacity="1"><g transform="translate(445.372541, 244.809017)"><g><path d="M 71.484375 -44.796875 L 56.640625 0 L 47.8125 0 L 36.734375 -33.15625 L 25.46875 0 L 16.578125 0 L 1.734375 -44.796875 L 10.375 -44.796875 L 21.5 -10.75 L 33.09375 -44.796875 L 40.765625 -44.796875 L 52.09375 -10.5625 L 63.546875 -44.796875 Z M 71.484375 -44.796875 "/></g></g></g><g fill="#000000" fill-opacity="1"><g transform="translate(582.581974, 244.809017)"><g><path d="M 15.109375 -37.765625 L 0.25 -37.765625 L 0.25 -44.796875 L 38.265625 -44.796875 L 38.265625 -37.765625 L 23.421875 -37.765625 L 23.421875 0 L 15.109375 0 Z M 15.109375 -37.765625 "/></g></g></g><g fill="#000000" fill-opacity="1"><g transform="translate(621.107615, 244.809017)"><g><path d="M 24.640625 -34.5625 C 28.953125 -34.5625 32.40625 -33.300781 35 -30.78125 C 37.601562 -28.269531 38.90625 -24.535156 38.90625 -19.578125 L 38.90625 0 L 30.90625 0 L 30.90625 -18.5625 C 30.90625 -21.550781 30.203125 -23.800781 28.796875 -25.3125 C 27.390625 -26.820312 25.382812 -27.578125 22.78125 -27.578125 C 19.84375 -27.578125 17.519531 -26.691406 15.8125 -24.921875 C 14.101562 -23.148438 13.25 -20.601562 13.25 -17.28125 L 13.25 0 L 5.25 0 L 5.25 -47.484375 L 13.25 -47.484375 L 13.25 -30.203125 C 14.570312 -31.609375 16.203125 -32.6875 18.140625 -33.4375 C 20.085938 -34.1875 22.253906 -34.5625 24.640625 -34.5625 Z M 24.640625 -34.5625 "/></g></g></g><g fill="#000000" fill-opacity="1"><g transform="translate(300.287333, 244.809017)"><g><path d="M 15.109375 -37.765625 L 0.25 -37.765625 L 0.25 -44.796875 L 38.265625 -44.796875 L 38.265625 -37.765625 L 23.421875 -37.765625 L 23.421875 0 L 15.109375 0 Z M 15.109375 -37.765625 "/></g></g></g><g fill="#000000" fill-opacity="1"><g transform="translate(337.981011, 244.809017)"><g><path d="M 38.328125 -34.171875 L 38.328125 0 L 30.71875 0 L 30.71875 -4.359375 C 29.4375 -2.816406 27.835938 -1.628906 25.921875 -0.796875 C 24.003906 0.0351562 21.9375 0.453125 19.71875 0.453125 C 15.144531 0.453125 11.546875 -0.816406 8.921875 -3.359375 C 6.296875 -5.898438 4.984375 -9.664062 4.984375 -14.65625 L 4.984375 -34.171875 L 12.984375 -34.171875 L 12.984375 -15.75 C 12.984375 -12.675781 13.675781 -10.378906 15.0625 -8.859375 C 16.457031 -7.347656 18.429688 -6.59375 20.984375 -6.59375 C 23.847656 -6.59375 26.125 -7.476562 27.8125 -9.25 C 29.5 -11.019531 30.34375 -13.566406 30.34375 -16.890625 L 30.34375 -34.171875 Z M 38.328125 -34.171875 "/></g></g></g><g fill="#000000" fill-opacity="1"><g transform="translate(304.816131, 632.103396)"><g><path d="M 19.90625 0.640625 C 16.445312 0.640625 13.109375 0.148438 9.890625 -0.828125 C 6.671875 -1.804688 4.117188 -3.109375 2.234375 -4.734375 L 5.125 -11.203125 C 6.957031 -9.753906 9.207031 -8.566406 11.875 -7.640625 C 14.539062 -6.722656 17.21875 -6.265625 19.90625 -6.265625 C 23.226562 -6.265625 25.710938 -6.796875 27.359375 -7.859375 C 29.003906 -8.929688 29.828125 -10.34375 29.828125 -12.09375 C 29.828125 -13.375 29.367188 -14.429688 28.453125 -15.265625 C 27.535156 -16.097656 26.367188 -16.75 24.953125 -17.21875 C 23.546875 -17.6875 21.628906 -18.21875 19.203125 -18.8125 C 15.785156 -19.625 13.019531 -20.4375 10.90625 -21.25 C 8.800781 -22.0625 6.988281 -23.328125 5.46875 -25.046875 C 3.957031 -26.773438 3.203125 -29.113281 3.203125 -32.0625 C 3.203125 -34.539062 3.875 -36.789062 5.21875 -38.8125 C 6.5625 -40.84375 8.585938 -42.453125 11.296875 -43.640625 C 14.003906 -44.835938 17.320312 -45.4375 21.25 -45.4375 C 23.976562 -45.4375 26.664062 -45.09375 29.3125 -44.40625 C 31.957031 -43.726562 34.238281 -42.75 36.15625 -41.46875 L 33.53125 -35.015625 C 31.570312 -36.160156 29.523438 -37.03125 27.390625 -37.625 C 25.253906 -38.226562 23.1875 -38.53125 21.1875 -38.53125 C 17.894531 -38.53125 15.445312 -37.972656 13.84375 -36.859375 C 12.25 -35.753906 11.453125 -34.285156 11.453125 -32.453125 C 11.453125 -31.171875 11.910156 -30.125 12.828125 -29.3125 C 13.742188 -28.5 14.90625 -27.859375 16.3125 -27.390625 C 17.726562 -26.921875 19.648438 -26.390625 22.078125 -25.796875 C 25.410156 -25.023438 28.140625 -24.222656 30.265625 -23.390625 C 32.398438 -22.554688 34.222656 -21.285156 35.734375 -19.578125 C 37.253906 -17.878906 38.015625 -15.578125 38.015625 -12.671875 C 38.015625 -10.191406 37.34375 -7.945312 36 -5.9375 C 34.65625 -3.9375 32.617188 -2.335938 29.890625 -1.140625 C 27.160156 0.046875 23.832031 0.640625 19.90625 0.640625 Z M 19.90625 0.640625 "/></g></g></g><g fill="#000000" fill-opacity="1"><g transform="translate(345.069657, 632.103396)"><g><path d="M 18.296875 -34.5625 C 23.335938 -34.5625 27.191406 -33.351562 29.859375 -30.9375 C 32.523438 -28.53125 33.859375 -24.894531 33.859375 -20.03125 L 33.859375 0 L 26.296875 0 L 26.296875 -4.15625 C 25.316406 -2.664062 23.921875 -1.523438 22.109375 -0.734375 C 20.296875 0.0546875 18.109375 0.453125 15.546875 0.453125 C 12.992188 0.453125 10.753906 0.015625 8.828125 -0.859375 C 6.910156 -1.734375 5.425781 -2.945312 4.375 -4.5 C 3.332031 -6.0625 2.8125 -7.828125 2.8125 -9.796875 C 2.8125 -12.867188 3.953125 -15.332031 6.234375 -17.1875 C 8.515625 -19.039062 12.113281 -19.96875 17.03125 -19.96875 L 25.859375 -19.96875 L 25.859375 -20.484375 C 25.859375 -22.867188 25.140625 -24.703125 23.703125 -25.984375 C 22.273438 -27.265625 20.15625 -27.90625 17.34375 -27.90625 C 15.425781 -27.90625 13.535156 -27.601562 11.671875 -27 C 9.816406 -26.40625 8.25 -25.578125 6.96875 -24.515625 L 3.84375 -30.34375 C 5.632812 -31.707031 7.785156 -32.75 10.296875 -33.46875 C 12.816406 -34.195312 15.484375 -34.5625 18.296875 -34.5625 Z M 17.21875 -5.375 C 19.21875 -5.375 20.992188 -5.832031 22.546875 -6.75 C 24.109375 -7.664062 25.210938 -8.976562 25.859375 -10.6875 L 25.859375 -14.65625 L 17.59375 -14.65625 C 12.988281 -14.65625 10.6875 -13.140625 10.6875 -10.109375 C 10.6875 -8.660156 11.257812 -7.507812 12.40625 -6.65625 C 13.5625 -5.800781 15.164062 -5.375 17.21875 -5.375 Z M 17.21875 -5.375 "/></g></g></g><g fill="#000000" fill-opacity="1"><g transform="translate(440.061005, 632.103396)"><g><path d="M 19.90625 0.640625 C 16.445312 0.640625 13.109375 0.148438 9.890625 -0.828125 C 6.671875 -1.804688 4.117188 -3.109375 2.234375 -4.734375 L 5.125 -11.203125 C 6.957031 -9.753906 9.207031 -8.566406 11.875 -7.640625 C 14.539062 -6.722656 17.21875 -6.265625 19.90625 -6.265625 C 23.226562 -6.265625 25.710938 -6.796875 27.359375 -7.859375 C 29.003906 -8.929688 29.828125 -10.34375 29.828125 -12.09375 C 29.828125 -13.375 29.367188 -14.429688 28.453125 -15.265625 C 27.535156 -16.097656 26.367188 -16.75 24.953125 -17.21875 C 23.546875 -17.6875 21.628906 -18.21875 19.203125 -18.8125 C 15.785156 -19.625 13.019531 -20.4375 10.90625 -21.25 C 8.800781 -22.0625 6.988281 -23.328125 5.46875 -25.046875 C 3.957031 -26.773438 3.203125 -29.113281 3.203125 -32.0625 C 3.203125 -34.539062 3.875 -36.789062 5.21875 -38.8125 C 6.5625 -40.84375 8.585938 -42.453125 11.296875 -43.640625 C 14.003906 -44.835938 17.320312 -45.4375 21.25 -45.4375 C 23.976562 -45.4375 26.664062 -45.09375 29.3125 -44.40625 C 31.957031 -43.726562 34.238281 -42.75 36.15625 -41.46875 L 33.53125 -35.015625 C 31.570312 -36.160156 29.523438 -37.03125 27.390625 -37.625 C 25.253906 -38.226562 23.1875 -38.53125 21.1875 -38.53125 C 17.894531 -38.53125 15.445312 -37.972656 13.84375 -36.859375 C 12.25 -35.753906 11.453125 -34.285156 11.453125 -32.453125 C 11.453125 -31.171875 11.910156 -30.125 12.828125 -29.3125 C 13.742188 -28.5 14.90625 -27.859375 16.3125 -27.390625 C 17.726562 -26.921875 19.648438 -26.390625 22.078125 -25.796875 C 25.410156 -25.023438 28.140625 -24.222656 30.265625 -23.390625 C 32.398438 -22.554688 34.222656 -21.285156 35.734375 -19.578125 C 37.253906 -17.878906 38.015625 -15.578125 38.015625 -12.671875 C 38.015625 -10.191406 37.34375 -7.945312 36 -5.9375 C 34.65625 -3.9375 32.617188 -2.335938 29.890625 -1.140625 C 27.160156 0.046875 23.832031 0.640625 19.90625 0.640625 Z M 19.90625 0.640625 "/></g></g></g><g fill="#000000" fill-opacity="1"><g transform="translate(480.314532, 632.103396)"><g><path d="M 38.328125 -34.171875 L 38.328125 0 L 30.71875 0 L 30.71875 -4.359375 C 29.4375 -2.816406 27.835938 -1.628906 25.921875 -0.796875 C 24.003906 0.0351562 21.9375 0.453125 19.71875 0.453125 C 15.144531 0.453125 11.546875 -0.816406 8.921875 -3.359375 C 6.296875 -5.898438 4.984375 -9.664062 4.984375 -14.65625 L 4.984375 -34.171875 L 12.984375 -34.171875 L 12.984375 -15.75 C 12.984375 -12.675781 13.675781 -10.378906 15.0625 -8.859375 C 16.457031 -7.347656 18.429688 -6.59375 20.984375 -6.59375 C 23.847656 -6.59375 26.125 -7.476562 27.8125 -9.25 C 29.5 -11.019531 30.34375 -13.566406 30.34375 -16.890625 L 30.34375 -34.171875 Z M 38.328125 -34.171875 "/></g></g></g></svg>