<svg xmlns="http://www.w3.org/2000/svg" xmlns:xlink="http://www.w3.org/1999/xlink" width="500" zoomAndPan="magnify" viewBox="0 0 375 374.999991" height="500" preserveAspectRatio="xMidYMid meet" version="1.0"><defs><g/><clipPath id="ff95b121a9"><path d="M 116.425781 268.046875 L 179.257812 268.046875 L 179.257812 330.878906 L 116.425781 330.878906 Z M 116.425781 268.046875 " clip-rule="nonzero"/></clipPath><clipPath id="eb0a818a52"><path d="M 133.675781 268.046875 L 162.007812 268.046875 C 166.582031 268.046875 170.96875 269.863281 174.207031 273.097656 C 177.441406 276.332031 179.257812 280.722656 179.257812 285.296875 L 179.257812 313.628906 C 179.257812 318.203125 177.441406 322.589844 174.207031 325.824219 C 170.96875 329.058594 166.582031 330.878906 162.007812 330.878906 L 133.675781 330.878906 C 129.101562 330.878906 124.714844 329.058594 121.480469 325.824219 C 118.242188 322.589844 116.425781 318.203125 116.425781 313.628906 L 116.425781 285.296875 C 116.425781 280.722656 118.242188 276.332031 121.480469 273.097656 C 124.714844 269.863281 129.101562 268.046875 133.675781 268.046875 Z M 133.675781 268.046875 " clip-rule="nonzero"/></clipPath><clipPath id="38a4d376af"><path d="M 0.425781 0.046875 L 63.257812 0.046875 L 63.257812 62.878906 L 0.425781 62.878906 Z M 0.425781 0.046875 " clip-rule="nonzero"/></clipPath><clipPath id="ec94e824c4"><path d="M 17.675781 0.046875 L 46.007812 0.046875 C 50.582031 0.046875 54.96875 1.863281 58.207031 5.097656 C 61.441406 8.332031 63.257812 12.722656 63.257812 17.296875 L 63.257812 45.628906 C 63.257812 50.203125 61.441406 54.589844 58.207031 57.824219 C 54.96875 61.058594 50.582031 62.878906 46.007812 62.878906 L 17.675781 62.878906 C 13.101562 62.878906 8.714844 61.058594 5.480469 57.824219 C 2.242188 54.589844 0.425781 50.203125 0.425781 45.628906 L 0.425781 17.296875 C 0.425781 12.722656 2.242188 8.332031 5.480469 5.097656 C 8.714844 1.863281 13.101562 0.046875 17.675781 0.046875 Z M 17.675781 0.046875 " clip-rule="nonzero"/></clipPath><clipPath id="483fad2f75"><rect x="0" width="64" y="0" height="63"/></clipPath><clipPath id="84f863e5be"><path d="M 116.425781 268.046875 L 179.425781 268.046875 L 179.425781 331 L 116.425781 331 Z M 116.425781 268.046875 " clip-rule="nonzero"/></clipPath><clipPath id="bef6bdb83a"><path d="M 133.675781 268.046875 L 162.003906 268.046875 C 166.578125 268.046875 170.964844 269.863281 174.199219 273.097656 C 177.433594 276.332031 179.25 280.71875 179.25 285.292969 L 179.25 313.621094 C 179.25 318.195312 177.433594 322.585938 174.199219 325.820312 C 170.964844 329.054688 166.578125 330.871094 162.003906 330.871094 L 133.675781 330.871094 C 129.101562 330.871094 124.714844 329.054688 121.480469 325.820312 C 118.242188 322.585938 116.425781 318.195312 116.425781 313.621094 L 116.425781 285.292969 C 116.425781 280.71875 118.242188 276.332031 121.480469 273.097656 C 124.714844 269.863281 129.101562 268.046875 133.675781 268.046875 Z M 133.675781 268.046875 " clip-rule="nonzero"/></clipPath><clipPath id="575c794f27"><path d="M 195.351562 268.046875 L 258.183594 268.046875 L 258.183594 330.878906 L 195.351562 330.878906 Z M 195.351562 268.046875 " clip-rule="nonzero"/></clipPath><clipPath id="0101e369b0"><path d="M 212.601562 268.046875 L 240.933594 268.046875 C 245.507812 268.046875 249.898438 269.863281 253.132812 273.097656 C 256.367188 276.332031 258.183594 280.722656 258.183594 285.296875 L 258.183594 313.628906 C 258.183594 318.203125 256.367188 322.589844 253.132812 325.824219 C 249.898438 329.058594 245.507812 330.878906 240.933594 330.878906 L 212.601562 330.878906 C 208.027344 330.878906 203.640625 329.058594 200.40625 325.824219 C 197.171875 322.589844 195.351562 318.203125 195.351562 313.628906 L 195.351562 285.296875 C 195.351562 280.722656 197.171875 276.332031 200.40625 273.097656 C 203.640625 269.863281 208.027344 268.046875 212.601562 268.046875 Z M 212.601562 268.046875 " clip-rule="nonzero"/></clipPath><clipPath id="1d548922a1"><path d="M 0.351562 0.046875 L 63.183594 0.046875 L 63.183594 62.878906 L 0.351562 62.878906 Z M 0.351562 0.046875 " clip-rule="nonzero"/></clipPath><clipPath id="24ea0c7d3a"><path d="M 17.601562 0.046875 L 45.933594 0.046875 C 50.507812 0.046875 54.898438 1.863281 58.132812 5.097656 C 61.367188 8.332031 63.183594 12.722656 63.183594 17.296875 L 63.183594 45.628906 C 63.183594 50.203125 61.367188 54.589844 58.132812 57.824219 C 54.898438 61.058594 50.507812 62.878906 45.933594 62.878906 L 17.601562 62.878906 C 13.027344 62.878906 8.640625 61.058594 5.40625 57.824219 C 2.171875 54.589844 0.351562 50.203125 0.351562 45.628906 L 0.351562 17.296875 C 0.351562 12.722656 2.171875 8.332031 5.40625 5.097656 C 8.640625 1.863281 13.027344 0.046875 17.601562 0.046875 Z M 17.601562 0.046875 " clip-rule="nonzero"/></clipPath><clipPath id="53a41fcfb6"><rect x="0" width="64" y="0" height="63"/></clipPath><clipPath id="8b928615a9"><path d="M 195.351562 268.046875 L 258.351562 268.046875 L 258.351562 331 L 195.351562 331 Z M 195.351562 268.046875 " clip-rule="nonzero"/></clipPath><clipPath id="019256193e"><path d="M 212.601562 268.046875 L 240.929688 268.046875 C 245.503906 268.046875 249.890625 269.863281 253.125 273.097656 C 256.359375 276.332031 258.175781 280.71875 258.175781 285.292969 L 258.175781 313.621094 C 258.175781 318.195312 256.359375 322.585938 253.125 325.820312 C 249.890625 329.054688 245.503906 330.871094 240.929688 330.871094 L 212.601562 330.871094 C 208.027344 330.871094 203.640625 329.054688 200.40625 325.820312 C 197.171875 322.585938 195.351562 318.195312 195.351562 313.621094 L 195.351562 285.292969 C 195.351562 280.71875 197.171875 276.332031 200.40625 273.097656 C 203.640625 269.863281 208.027344 268.046875 212.601562 268.046875 Z M 212.601562 268.046875 " clip-rule="nonzero"/></clipPath><clipPath id="ed1e7f7ff9"><path d="M 37.5 43.292969 L 100.332031 43.292969 L 100.332031 106.125 L 37.5 106.125 Z M 37.5 43.292969 " clip-rule="nonzero"/></clipPath><clipPath id="780d756a8d"><path d="M 54.75 43.292969 L 83.082031 43.292969 C 87.65625 43.292969 92.042969 45.113281 95.277344 48.347656 C 98.515625 51.582031 100.332031 55.96875 100.332031 60.542969 L 100.332031 88.875 C 100.332031 93.449219 98.515625 97.839844 95.277344 101.074219 C 92.042969 104.308594 87.65625 106.125 83.082031 106.125 L 54.75 106.125 C 50.175781 106.125 45.789062 104.308594 42.550781 101.074219 C 39.316406 97.839844 37.5 93.449219 37.5 88.875 L 37.5 60.542969 C 37.5 55.96875 39.316406 51.582031 42.550781 48.347656 C 45.789062 45.113281 50.175781 43.292969 54.75 43.292969 Z M 54.75 43.292969 " clip-rule="nonzero"/></clipPath><clipPath id="c9f831dac3"><path d="M 0.5 0.292969 L 63.332031 0.292969 L 63.332031 63.125 L 0.5 63.125 Z M 0.5 0.292969 " clip-rule="nonzero"/></clipPath><clipPath id="96babecad6"><path d="M 17.75 0.292969 L 46.082031 0.292969 C 50.65625 0.292969 55.042969 2.113281 58.277344 5.347656 C 61.515625 8.582031 63.332031 12.96875 63.332031 17.542969 L 63.332031 45.875 C 63.332031 50.449219 61.515625 54.839844 58.277344 58.074219 C 55.042969 61.308594 50.65625 63.125 46.082031 63.125 L 17.75 63.125 C 13.175781 63.125 8.789062 61.308594 5.550781 58.074219 C 2.316406 54.839844 0.5 50.449219 0.5 45.875 L 0.5 17.542969 C 0.5 12.96875 2.316406 8.582031 5.550781 5.347656 C 8.789062 2.113281 13.175781 0.292969 17.75 0.292969 Z M 17.75 0.292969 " clip-rule="nonzero"/></clipPath><clipPath id="444f52fca6"><rect x="0" width="64" y="0" height="64"/></clipPath><clipPath id="3c9bb55b64"><path d="M 37.5 43.292969 L 100.5 43.292969 L 100.5 106.292969 L 37.5 106.292969 Z M 37.5 43.292969 " clip-rule="nonzero"/></clipPath><clipPath id="1fe7d57b4e"><path d="M 54.75 43.292969 L 83.074219 43.292969 C 87.652344 43.292969 92.039062 45.113281 95.273438 48.347656 C 98.507812 51.582031 100.324219 55.96875 100.324219 60.542969 L 100.324219 88.871094 C 100.324219 93.445312 98.507812 97.832031 95.273438 101.066406 C 92.039062 104.300781 87.652344 106.117188 83.074219 106.117188 L 54.75 106.117188 C 50.171875 106.117188 45.785156 104.300781 42.550781 101.066406 C 39.316406 97.832031 37.5 93.445312 37.5 88.871094 L 37.5 60.542969 C 37.5 55.96875 39.316406 51.582031 42.550781 48.347656 C 45.785156 45.113281 50.171875 43.292969 54.75 43.292969 Z M 54.75 43.292969 " clip-rule="nonzero"/></clipPath><clipPath id="c4bfbb2f90"><path d="M 116.425781 43.292969 L 179.257812 43.292969 L 179.257812 106.125 L 116.425781 106.125 Z M 116.425781 43.292969 " clip-rule="nonzero"/></clipPath><clipPath id="8bd9759dbd"><path d="M 133.675781 43.292969 L 162.007812 43.292969 C 166.582031 43.292969 170.96875 45.113281 174.207031 48.347656 C 177.441406 51.582031 179.257812 55.96875 179.257812 60.542969 L 179.257812 88.875 C 179.257812 93.449219 177.441406 97.839844 174.207031 101.074219 C 170.96875 104.308594 166.582031 106.125 162.007812 106.125 L 133.675781 106.125 C 129.101562 106.125 124.714844 104.308594 121.480469 101.074219 C 118.242188 97.839844 116.425781 93.449219 116.425781 88.875 L 116.425781 60.542969 C 116.425781 55.96875 118.242188 51.582031 121.480469 48.347656 C 124.714844 45.113281 129.101562 43.292969 133.675781 43.292969 Z M 133.675781 43.292969 " clip-rule="nonzero"/></clipPath><clipPath id="b6d1bb7109"><path d="M 0.425781 0.292969 L 63.257812 0.292969 L 63.257812 63.125 L 0.425781 63.125 Z M 0.425781 0.292969 " clip-rule="nonzero"/></clipPath><clipPath id="895514d3c7"><path d="M 17.675781 0.292969 L 46.007812 0.292969 C 50.582031 0.292969 54.96875 2.113281 58.207031 5.347656 C 61.441406 8.582031 63.257812 12.96875 63.257812 17.542969 L 63.257812 45.875 C 63.257812 50.449219 61.441406 54.839844 58.207031 58.074219 C 54.96875 61.308594 50.582031 63.125 46.007812 63.125 L 17.675781 63.125 C 13.101562 63.125 8.714844 61.308594 5.480469 58.074219 C 2.242188 54.839844 0.425781 50.449219 0.425781 45.875 L 0.425781 17.542969 C 0.425781 12.96875 2.242188 8.582031 5.480469 5.347656 C 8.714844 2.113281 13.101562 0.292969 17.675781 0.292969 Z M 17.675781 0.292969 " clip-rule="nonzero"/></clipPath><clipPath id="22f0d8ad55"><rect x="0" width="64" y="0" height="64"/></clipPath><clipPath id="339f0572f5"><path d="M 116.425781 43.292969 L 179.425781 43.292969 L 179.425781 106.292969 L 116.425781 106.292969 Z M 116.425781 43.292969 " clip-rule="nonzero"/></clipPath><clipPath id="f89b0a67c6"><path d="M 133.675781 43.292969 L 162.003906 43.292969 C 166.578125 43.292969 170.964844 45.113281 174.199219 48.347656 C 177.433594 51.582031 179.25 55.96875 179.25 60.542969 L 179.25 88.871094 C 179.25 93.445312 177.433594 97.832031 174.199219 101.066406 C 170.964844 104.300781 166.578125 106.117188 162.003906 106.117188 L 133.675781 106.117188 C 129.101562 106.117188 124.714844 104.300781 121.480469 101.066406 C 118.242188 97.832031 116.425781 93.445312 116.425781 88.871094 L 116.425781 60.542969 C 116.425781 55.96875 118.242188 51.582031 121.480469 48.347656 C 124.714844 45.113281 129.101562 43.292969 133.675781 43.292969 Z M 133.675781 43.292969 " clip-rule="nonzero"/></clipPath><clipPath id="8875207b2f"><path d="M 195.351562 43.292969 L 258.183594 43.292969 L 258.183594 106.125 L 195.351562 106.125 Z M 195.351562 43.292969 " clip-rule="nonzero"/></clipPath><clipPath id="b00411a05a"><path d="M 212.601562 43.292969 L 240.933594 43.292969 C 245.507812 43.292969 249.898438 45.113281 253.132812 48.347656 C 256.367188 51.582031 258.183594 55.96875 258.183594 60.542969 L 258.183594 88.875 C 258.183594 93.449219 256.367188 97.839844 253.132812 101.074219 C 249.898438 104.308594 245.507812 106.125 240.933594 106.125 L 212.601562 106.125 C 208.027344 106.125 203.640625 104.308594 200.40625 101.074219 C 197.171875 97.839844 195.351562 93.449219 195.351562 88.875 L 195.351562 60.542969 C 195.351562 55.96875 197.171875 51.582031 200.40625 48.347656 C 203.640625 45.113281 208.027344 43.292969 212.601562 43.292969 Z M 212.601562 43.292969 " clip-rule="nonzero"/></clipPath><clipPath id="7260ce31b0"><path d="M 0.351562 0.292969 L 63.183594 0.292969 L 63.183594 63.125 L 0.351562 63.125 Z M 0.351562 0.292969 " clip-rule="nonzero"/></clipPath><clipPath id="eaf1044fab"><path d="M 17.601562 0.292969 L 45.933594 0.292969 C 50.507812 0.292969 54.898438 2.113281 58.132812 5.347656 C 61.367188 8.582031 63.183594 12.96875 63.183594 17.542969 L 63.183594 45.875 C 63.183594 50.449219 61.367188 54.839844 58.132812 58.074219 C 54.898438 61.308594 50.507812 63.125 45.933594 63.125 L 17.601562 63.125 C 13.027344 63.125 8.640625 61.308594 5.40625 58.074219 C 2.171875 54.839844 0.351562 50.449219 0.351562 45.875 L 0.351562 17.542969 C 0.351562 12.96875 2.171875 8.582031 5.40625 5.347656 C 8.640625 2.113281 13.027344 0.292969 17.601562 0.292969 Z M 17.601562 0.292969 " clip-rule="nonzero"/></clipPath><clipPath id="8b62bc22d3"><rect x="0" width="64" y="0" height="64"/></clipPath><clipPath id="a34e0b7ca6"><path d="M 195.351562 43.292969 L 258.351562 43.292969 L 258.351562 106.292969 L 195.351562 106.292969 Z M 195.351562 43.292969 " clip-rule="nonzero"/></clipPath><clipPath id="50b68f3760"><path d="M 212.601562 43.292969 L 240.929688 43.292969 C 245.503906 43.292969 249.890625 45.113281 253.125 48.347656 C 256.359375 51.582031 258.175781 55.96875 258.175781 60.542969 L 258.175781 88.871094 C 258.175781 93.445312 256.359375 97.832031 253.125 101.066406 C 249.890625 104.300781 245.503906 106.117188 240.929688 106.117188 L 212.601562 106.117188 C 208.027344 106.117188 203.640625 104.300781 200.40625 101.066406 C 197.171875 97.832031 195.351562 93.445312 195.351562 88.871094 L 195.351562 60.542969 C 195.351562 55.96875 197.171875 51.582031 200.40625 48.347656 C 203.640625 45.113281 208.027344 43.292969 212.601562 43.292969 Z M 212.601562 43.292969 " clip-rule="nonzero"/></clipPath><clipPath id="c07779c655"><path d="M 274.667969 43.292969 L 337.5 43.292969 L 337.5 106.125 L 274.667969 106.125 Z M 274.667969 43.292969 " clip-rule="nonzero"/></clipPath><clipPath id="96b06bb106"><path d="M 291.917969 43.292969 L 320.25 43.292969 C 324.824219 43.292969 329.210938 45.113281 332.449219 48.347656 C 335.683594 51.582031 337.5 55.96875 337.5 60.542969 L 337.5 88.875 C 337.5 93.449219 335.683594 97.839844 332.449219 101.074219 C 329.210938 104.308594 324.824219 106.125 320.25 106.125 L 291.917969 106.125 C 287.34375 106.125 282.957031 104.308594 279.722656 101.074219 C 276.484375 97.839844 274.667969 93.449219 274.667969 88.875 L 274.667969 60.542969 C 274.667969 55.96875 276.484375 51.582031 279.722656 48.347656 C 282.957031 45.113281 287.34375 43.292969 291.917969 43.292969 Z M 291.917969 43.292969 " clip-rule="nonzero"/></clipPath><clipPath id="7c6fa48d95"><path d="M 0.667969 0.292969 L 63.5 0.292969 L 63.5 63.125 L 0.667969 63.125 Z M 0.667969 0.292969 " clip-rule="nonzero"/></clipPath><clipPath id="29ee129c79"><path d="M 17.917969 0.292969 L 46.25 0.292969 C 50.824219 0.292969 55.210938 2.113281 58.449219 5.347656 C 61.683594 8.582031 63.5 12.96875 63.5 17.542969 L 63.5 45.875 C 63.5 50.449219 61.683594 54.839844 58.449219 58.074219 C 55.210938 61.308594 50.824219 63.125 46.25 63.125 L 17.917969 63.125 C 13.34375 63.125 8.957031 61.308594 5.722656 58.074219 C 2.484375 54.839844 0.667969 50.449219 0.667969 45.875 L 0.667969 17.542969 C 0.667969 12.96875 2.484375 8.582031 5.722656 5.347656 C 8.957031 2.113281 13.34375 0.292969 17.917969 0.292969 Z M 17.917969 0.292969 " clip-rule="nonzero"/></clipPath><clipPath id="dfc2b21e03"><rect x="0" width="64" y="0" height="64"/></clipPath><clipPath id="6edeb2836d"><path d="M 274.667969 43.292969 L 337.667969 43.292969 L 337.667969 106.292969 L 274.667969 106.292969 Z M 274.667969 43.292969 " clip-rule="nonzero"/></clipPath><clipPath id="76a680e767"><path d="M 291.917969 43.292969 L 320.246094 43.292969 C 324.820312 43.292969 329.207031 45.113281 332.441406 48.347656 C 335.675781 51.582031 337.492188 55.96875 337.492188 60.542969 L 337.492188 88.871094 C 337.492188 93.445312 335.675781 97.832031 332.441406 101.066406 C 329.207031 104.300781 324.820312 106.117188 320.246094 106.117188 L 291.917969 106.117188 C 287.34375 106.117188 282.957031 104.300781 279.722656 101.066406 C 276.484375 97.832031 274.667969 93.445312 274.667969 88.871094 L 274.667969 60.542969 C 274.667969 55.96875 276.484375 51.582031 279.722656 48.347656 C 282.957031 45.113281 287.34375 43.292969 291.917969 43.292969 Z M 291.917969 43.292969 " clip-rule="nonzero"/></clipPath><clipPath id="a895bd1900"><path d="M 37.5 136.5625 L 337.519531 136.5625 L 337.519531 237.488281 L 37.5 237.488281 Z M 37.5 136.5625 " clip-rule="nonzero"/></clipPath><clipPath id="7b54b5e6e0"><path d="M 54.75 136.5625 L 320.25 136.5625 C 324.824219 136.5625 329.210938 138.378906 332.449219 141.613281 C 335.683594 144.847656 337.5 149.238281 337.5 153.8125 L 337.5 220.238281 C 337.5 224.8125 335.683594 229.199219 332.449219 232.433594 C 329.210938 235.671875 324.824219 237.488281 320.25 237.488281 L 54.75 237.488281 C 50.175781 237.488281 45.789062 235.671875 42.550781 232.433594 C 39.316406 229.199219 37.5 224.8125 37.5 220.238281 L 37.5 153.8125 C 37.5 149.238281 39.316406 144.847656 42.550781 141.613281 C 45.789062 138.378906 50.175781 136.5625 54.75 136.5625 Z M 54.75 136.5625 " clip-rule="nonzero"/></clipPath><clipPath id="ad27608fa8"><path d="M 0.5 0.5625 L 300.519531 0.5625 L 300.519531 101.488281 L 0.5 101.488281 Z M 0.5 0.5625 " clip-rule="nonzero"/></clipPath><clipPath id="58e41cb879"><path d="M 17.75 0.5625 L 283.25 0.5625 C 287.824219 0.5625 292.210938 2.378906 295.449219 5.613281 C 298.683594 8.847656 300.5 13.238281 300.5 17.8125 L 300.5 84.238281 C 300.5 88.8125 298.683594 93.199219 295.449219 96.433594 C 292.210938 99.671875 287.824219 101.488281 283.25 101.488281 L 17.75 101.488281 C 13.175781 101.488281 8.789062 99.671875 5.550781 96.433594 C 2.316406 93.199219 0.5 88.8125 0.5 84.238281 L 0.5 17.8125 C 0.5 13.238281 2.316406 8.847656 5.550781 5.613281 C 8.789062 2.378906 13.175781 0.5625 17.75 0.5625 Z M 17.75 0.5625 " clip-rule="nonzero"/></clipPath><clipPath id="f45676dae0"><rect x="0" width="301" y="0" height="102"/></clipPath><clipPath id="345e7dd836"><path d="M 37.507812 136.5625 L 337.5 136.5625 L 337.5 237.8125 L 37.507812 237.8125 Z M 37.507812 136.5625 " clip-rule="nonzero"/></clipPath><clipPath id="d1cf2b9886"><path d="M 54.753906 136.5625 L 320.246094 136.5625 C 324.820312 136.5625 329.207031 138.378906 332.441406 141.613281 C 335.675781 144.847656 337.492188 149.234375 337.492188 153.8125 L 337.492188 220.234375 C 337.492188 224.808594 335.675781 229.195312 332.441406 232.429688 C 329.207031 235.667969 324.820312 237.484375 320.246094 237.484375 L 54.753906 237.484375 C 50.179688 237.484375 45.792969 235.667969 42.558594 232.429688 C 39.324219 229.195312 37.507812 224.808594 37.507812 220.234375 L 37.507812 153.8125 C 37.507812 149.234375 39.324219 144.847656 42.558594 141.613281 C 45.792969 138.378906 50.179688 136.5625 54.753906 136.5625 Z M 54.753906 136.5625 " clip-rule="nonzero"/></clipPath><clipPath id="57688f0bc6"><path d="M 138.929688 137.554688 L 236.96875 137.554688 L 236.96875 235.59375 L 138.929688 235.59375 Z M 138.929688 137.554688 " clip-rule="nonzero"/></clipPath><clipPath id="4c95a7724b"><path d="M 187.949219 137.554688 C 160.878906 137.554688 138.929688 159.503906 138.929688 186.574219 C 138.929688 213.648438 160.878906 235.59375 187.949219 235.59375 C 215.023438 235.59375 236.96875 213.648438 236.96875 186.574219 C 236.96875 159.503906 215.023438 137.554688 187.949219 137.554688 Z M 187.949219 137.554688 " clip-rule="nonzero"/></clipPath><clipPath id="f3d62b13c5"><path d="M 0.929688 0.554688 L 98.96875 0.554688 L 98.96875 98.59375 L 0.929688 98.59375 Z M 0.929688 0.554688 " clip-rule="nonzero"/></clipPath><clipPath id="1fb08cb24c"><path d="M 49.949219 0.554688 C 22.878906 0.554688 0.929688 22.503906 0.929688 49.574219 C 0.929688 76.648438 22.878906 98.59375 49.949219 98.59375 C 77.023438 98.59375 98.96875 76.648438 98.96875 49.574219 C 98.96875 22.503906 77.023438 0.554688 49.949219 0.554688 Z M 49.949219 0.554688 " clip-rule="nonzero"/></clipPath><clipPath id="6c205cffa8"><rect x="0" width="99" y="0" height="99"/></clipPath><clipPath id="3b68958504"><path d="M 78.042969 180.296875 L 190.582031 180.296875 L 190.582031 235.59375 L 78.042969 235.59375 Z M 78.042969 180.296875 " clip-rule="nonzero"/></clipPath><clipPath id="d2fca308f1"><path d="M 123.476562 180.296875 C 134.316406 180.296875 143.824219 185.097656 149.175781 192.308594 C 153.878906 189.664062 159.703125 189.003906 165.199219 190.980469 C 171.335938 193.1875 175.621094 198.164062 177.125 203.933594 C 184.75 205.242188 190.542969 211.773438 190.542969 219.640625 C 190.542969 228.453125 183.277344 235.59375 174.316406 235.59375 L 94.269531 235.59375 C 84.78125 235.59375 78.042969 229.332031 78.042969 219.640625 C 78.042969 211.15625 84.785156 204.21875 93.289062 203.722656 C 94.554688 190.609375 107.585938 180.296875 123.476562 180.296875 Z M 123.476562 180.296875 " clip-rule="nonzero"/></clipPath><clipPath id="5fe508f686"><path d="M 0.0429688 0.296875 L 112.558594 0.296875 L 112.558594 55.59375 L 0.0429688 55.59375 Z M 0.0429688 0.296875 " clip-rule="nonzero"/></clipPath><clipPath id="eeb8fa6567"><path d="M 45.476562 0.296875 C 56.316406 0.296875 65.824219 5.097656 71.175781 12.308594 C 75.878906 9.664062 81.703125 9.003906 87.199219 10.980469 C 93.335938 13.1875 97.621094 18.164062 99.125 23.933594 C 106.75 25.242188 112.542969 31.773438 112.542969 39.640625 C 112.542969 48.453125 105.277344 55.59375 96.316406 55.59375 L 16.269531 55.59375 C 6.78125 55.59375 0.0429688 49.332031 0.0429688 39.640625 C 0.0429688 31.15625 6.785156 24.21875 15.289062 23.722656 C 16.554688 10.609375 29.585938 0.296875 45.476562 0.296875 Z M 45.476562 0.296875 " clip-rule="nonzero"/></clipPath><clipPath id="82c863fb0c"><rect x="0" width="113" y="0" height="56"/></clipPath><clipPath id="0f3544bede"><path d="M 187.5 140.84375 L 300 140.84375 L 300 214.671875 L 187.5 214.671875 Z M 187.5 140.84375 " clip-rule="nonzero"/></clipPath><clipPath id="f4ed60d5a3"><path d="M 251.375 140.84375 C 252.609375 140.84375 253.851562 140.84375 255.082031 140.84375 C 264.902344 142.078125 271.035156 146.183594 273.832031 152.898438 C 290.199219 152.003906 302.101562 164.703125 294.847656 177.167969 C 297.261719 179.785156 299.273438 182.714844 300 186.648438 C 300 187.773438 300 188.898438 300 190.023438 C 297.835938 200.03125 288.515625 206.796875 273.21875 204.976562 C 269.28125 210.113281 262.277344 215.257812 251.378906 214.617188 C 245.742188 214.28125 241.824219 212.328125 238.394531 209.953125 C 234.777344 211.925781 230.863281 213.476562 225.207031 213.492188 C 212.125 213.523438 203.371094 205.917969 203.160156 195.492188 C 194.75 193.050781 189.050781 188.5 187.5 180.707031 C 187.5 179.582031 187.5 178.453125 187.5 177.332031 C 189.210938 169.609375 194.597656 164.757812 203.570312 162.703125 C 203.03125 149.679688 220.972656 141.539062 235.714844 147.277344 C 239.222656 144.441406 244.1875 141.34375 251.375 140.84375 Z M 251.375 140.84375 " clip-rule="nonzero"/></clipPath><clipPath id="5975992478"><path d="M 0.5 0.84375 L 113 0.84375 L 113 74.671875 L 0.5 74.671875 Z M 0.5 0.84375 " clip-rule="nonzero"/></clipPath><clipPath id="df05ebb28b"><path d="M 64.375 0.84375 C 65.609375 0.84375 66.851562 0.84375 68.082031 0.84375 C 77.902344 2.078125 84.035156 6.183594 86.832031 12.898438 C 103.199219 12.003906 115.101562 24.703125 107.847656 37.167969 C 110.261719 39.785156 112.273438 42.714844 113 46.648438 C 113 47.773438 113 48.898438 113 50.023438 C 110.835938 60.03125 101.515625 66.796875 86.21875 64.976562 C 82.28125 70.113281 75.277344 75.257812 64.378906 74.617188 C 58.742188 74.28125 54.824219 72.328125 51.394531 69.953125 C 47.777344 71.925781 43.863281 73.476562 38.207031 73.492188 C 25.125 73.523438 16.371094 65.917969 16.160156 55.492188 C 7.75 53.050781 2.050781 48.5 0.5 40.707031 C 0.5 39.582031 0.5 38.453125 0.5 37.332031 C 2.210938 29.609375 7.597656 24.757812 16.570312 22.703125 C 16.03125 9.679688 33.972656 1.539062 48.714844 7.277344 C 52.222656 4.441406 57.1875 1.34375 64.375 0.84375 Z M 64.375 0.84375 " clip-rule="nonzero"/></clipPath><clipPath id="5d3ed32a17"><rect x="0" width="113" y="0" height="75"/></clipPath></defs><g clip-path="url(#ff95b121a9)"><g clip-path="url(#eb0a818a52)"><g transform="matrix(1, 0, 0, 1, 116, 268)"><g clip-path="url(#483fad2f75)"><g clip-path="url(#38a4d376af)"><g clip-path="url(#ec94e824c4)"><path fill="#38b6ff" d="M 0.425781 0.046875 L 63.257812 0.046875 L 63.257812 62.878906 L 0.425781 62.878906 Z M 0.425781 0.046875 " fill-opacity="1" fill-rule="nonzero"/></g></g></g></g></g></g><g clip-path="url(#84f863e5be)"><g clip-path="url(#bef6bdb83a)"><path stroke-linecap="butt" transform="matrix(0.75, 0, 0, 0.75, 116.426738, 268.046349)" fill="none" stroke-linejoin="miter" d="M 22.998726 0.000701602 L 60.769562 0.000701602 C 66.868521 0.000701602 72.71748 2.422577 77.02998 6.735077 C 81.34248 11.047577 83.764355 16.896536 83.764355 22.995495 L 83.764355 60.766331 C 83.764355 66.865289 81.34248 72.719456 77.02998 77.031957 C 72.71748 81.344457 66.868521 83.766332 60.769562 83.766332 L 22.998726 83.766332 C 16.899768 83.766332 11.050809 81.344457 6.738309 77.031957 C 2.4206 72.719456 -0.00127521 66.865289 -0.00127521 60.766331 L -0.00127521 22.995495 C -0.00127521 16.896536 2.4206 11.047577 6.738309 6.735077 C 11.050809 2.422577 16.899768 0.000701602 22.998726 0.000701602 Z M 22.998726 0.000701602 " stroke="#000000" stroke-width="4" stroke-opacity="1" stroke-miterlimit="4"/></g></g><g clip-path="url(#575c794f27)"><g clip-path="url(#0101e369b0)"><g transform="matrix(1, 0, 0, 1, 195, 268)"><g clip-path="url(#53a41fcfb6)"><g clip-path="url(#1d548922a1)"><g clip-path="url(#24ea0c7d3a)"><path fill="#38b6ff" d="M 0.351562 0.046875 L 63.183594 0.046875 L 63.183594 62.878906 L 0.351562 62.878906 Z M 0.351562 0.046875 " fill-opacity="1" fill-rule="nonzero"/></g></g></g></g></g></g><g clip-path="url(#8b928615a9)"><g clip-path="url(#019256193e)"><path stroke-linecap="butt" transform="matrix(0.75, 0, 0, 0.75, 195.353473, 268.046349)" fill="none" stroke-linejoin="miter" d="M 22.997454 0.000701602 L 60.76829 0.000701602 C 66.867248 0.000701602 72.716207 2.422577 77.028707 6.735077 C 81.341208 11.047577 83.763083 16.896536 83.763083 22.995495 L 83.763083 60.766331 C 83.763083 66.865289 81.341208 72.719456 77.028707 77.031957 C 72.716207 81.344457 66.867248 83.766332 60.76829 83.766332 L 22.997454 83.766332 C 16.898495 83.766332 11.049536 81.344457 6.737036 77.031957 C 2.424536 72.719456 -0.0025477 66.865289 -0.0025477 60.766331 L -0.0025477 22.995495 C -0.0025477 16.896536 2.424536 11.047577 6.737036 6.735077 C 11.049536 2.422577 16.898495 0.000701602 22.997454 0.000701602 Z M 22.997454 0.000701602 " stroke="#000000" stroke-width="4" stroke-opacity="1" stroke-miterlimit="4"/></g></g><g clip-path="url(#ed1e7f7ff9)"><g clip-path="url(#780d756a8d)"><g transform="matrix(1, 0, 0, 1, 37, 43)"><g clip-path="url(#444f52fca6)"><g clip-path="url(#c9f831dac3)"><g clip-path="url(#96babecad6)"><path fill="#d9d9d9" d="M 0.5 0.292969 L 63.332031 0.292969 L 63.332031 63.125 L 0.5 63.125 Z M 0.5 0.292969 " fill-opacity="1" fill-rule="nonzero"/></g></g></g></g></g></g><g clip-path="url(#3c9bb55b64)"><g clip-path="url(#1fe7d57b4e)"><path stroke-linecap="butt" transform="matrix(0.75, 0, 0, 0.75, 37.500002, 43.294699)" fill="none" stroke-linejoin="miter" d="M 22.999999 -0.00230668 L 60.765626 -0.00230668 C 66.869793 -0.00230668 72.718752 2.424777 77.031252 6.737277 C 81.343753 11.049777 83.765628 16.898736 83.765628 22.997695 L 83.765628 60.768531 C 83.765628 66.867489 81.343753 72.716448 77.031252 77.028948 C 72.718752 81.341449 66.869793 83.763324 60.765626 83.763324 L 22.999999 83.763324 C 16.895832 83.763324 11.046873 81.341449 6.734373 77.028948 C 2.421872 72.716448 -0.00000271667 66.867489 -0.00000271667 60.768531 L -0.00000271667 22.997695 C -0.00000271667 16.898736 2.421872 11.049777 6.734373 6.737277 C 11.046873 2.424777 16.895832 -0.00230668 22.999999 -0.00230668 Z M 22.999999 -0.00230668 " stroke="#000000" stroke-width="4" stroke-opacity="1" stroke-miterlimit="4"/></g></g><g clip-path="url(#c4bfbb2f90)"><g clip-path="url(#8bd9759dbd)"><g transform="matrix(1, 0, 0, 1, 116, 43)"><g clip-path="url(#22f0d8ad55)"><g clip-path="url(#b6d1bb7109)"><g clip-path="url(#895514d3c7)"><path fill="#d9d9d9" d="M 0.425781 0.292969 L 63.257812 0.292969 L 63.257812 63.125 L 0.425781 63.125 Z M 0.425781 0.292969 " fill-opacity="1" fill-rule="nonzero"/></g></g></g></g></g></g><g clip-path="url(#339f0572f5)"><g clip-path="url(#f89b0a67c6)"><path stroke-linecap="butt" transform="matrix(0.75, 0, 0, 0.75, 116.426738, 43.294699)" fill="none" stroke-linejoin="miter" d="M 22.998726 -0.00230668 L 60.769562 -0.00230668 C 66.868521 -0.00230668 72.71748 2.424777 77.02998 6.737277 C 81.34248 11.049777 83.764355 16.898736 83.764355 22.997695 L 83.764355 60.768531 C 83.764355 66.867489 81.34248 72.716448 77.02998 77.028948 C 72.71748 81.341449 66.868521 83.763324 60.769562 83.763324 L 22.998726 83.763324 C 16.899768 83.763324 11.050809 81.341449 6.738309 77.028948 C 2.4206 72.716448 -0.00127521 66.867489 -0.00127521 60.768531 L -0.00127521 22.997695 C -0.00127521 16.898736 2.4206 11.049777 6.738309 6.737277 C 11.050809 2.424777 16.899768 -0.00230668 22.998726 -0.00230668 Z M 22.998726 -0.00230668 " stroke="#000000" stroke-width="4" stroke-opacity="1" stroke-miterlimit="4"/></g></g><g clip-path="url(#8875207b2f)"><g clip-path="url(#b00411a05a)"><g transform="matrix(1, 0, 0, 1, 195, 43)"><g clip-path="url(#8b62bc22d3)"><g clip-path="url(#7260ce31b0)"><g clip-path="url(#eaf1044fab)"><path fill="#d9d9d9" d="M 0.351562 0.292969 L 63.183594 0.292969 L 63.183594 63.125 L 0.351562 63.125 Z M 0.351562 0.292969 " fill-opacity="1" fill-rule="nonzero"/></g></g></g></g></g></g><g clip-path="url(#a34e0b7ca6)"><g clip-path="url(#50b68f3760)"><path stroke-linecap="butt" transform="matrix(0.75, 0, 0, 0.75, 195.353473, 43.294699)" fill="none" stroke-linejoin="miter" d="M 22.997454 -0.00230668 L 60.76829 -0.00230668 C 66.867248 -0.00230668 72.716207 2.424777 77.028707 6.737277 C 81.341208 11.049777 83.763083 16.898736 83.763083 22.997695 L 83.763083 60.768531 C 83.763083 66.867489 81.341208 72.716448 77.028707 77.028948 C 72.716207 81.341449 66.867248 83.763324 60.76829 83.763324 L 22.997454 83.763324 C 16.898495 83.763324 11.049536 81.341449 6.737036 77.028948 C 2.424536 72.716448 -0.0025477 66.867489 -0.0025477 60.768531 L -0.0025477 22.997695 C -0.0025477 16.898736 2.424536 11.049777 6.737036 6.737277 C 11.049536 2.424777 16.898495 -0.00230668 22.997454 -0.00230668 Z M 22.997454 -0.00230668 " stroke="#000000" stroke-width="4" stroke-opacity="1" stroke-miterlimit="4"/></g></g><g clip-path="url(#c07779c655)"><g clip-path="url(#96b06bb106)"><g transform="matrix(1, 0, 0, 1, 274, 43)"><g clip-path="url(#dfc2b21e03)"><g clip-path="url(#7c6fa48d95)"><g clip-path="url(#29ee129c79)"><path fill="#d9d9d9" d="M 0.667969 0.292969 L 63.5 0.292969 L 63.5 63.125 L 0.667969 63.125 Z M 0.667969 0.292969 " fill-opacity="1" fill-rule="nonzero"/></g></g></g></g></g></g><g clip-path="url(#6edeb2836d)"><g clip-path="url(#76a680e767)"><path stroke-linecap="butt" transform="matrix(0.75, 0, 0, 0.75, 274.668853, 43.294699)" fill="none" stroke-linejoin="miter" d="M 22.998823 -0.00230668 L 60.769659 -0.00230668 C 66.868617 -0.00230668 72.717576 2.424777 77.030076 6.737277 C 81.342577 11.049777 83.764452 16.898736 83.764452 22.997695 L 83.764452 60.768531 C 83.764452 66.867489 81.342577 72.716448 77.030076 77.028948 C 72.717576 81.341449 66.868617 83.763324 60.769659 83.763324 L 22.998823 83.763324 C 16.899864 83.763324 11.050905 81.341449 6.738405 77.028948 C 2.420696 72.716448 -0.00117882 66.867489 -0.00117882 60.768531 L -0.00117882 22.997695 C -0.00117882 16.898736 2.420696 11.049777 6.738405 6.737277 C 11.050905 2.424777 16.899864 -0.00230668 22.998823 -0.00230668 Z M 22.998823 -0.00230668 " stroke="#000000" stroke-width="4" stroke-opacity="1" stroke-miterlimit="4"/></g></g><g clip-path="url(#a895bd1900)"><g clip-path="url(#7b54b5e6e0)"><g transform="matrix(1, 0, 0, 1, 37, 136)"><g clip-path="url(#f45676dae0)"><g clip-path="url(#ad27608fa8)"><g clip-path="url(#58e41cb879)"><path fill="#a5deff" d="M 0.5 0.5625 L 300.519531 0.5625 L 300.519531 101.488281 L 0.5 101.488281 Z M 0.5 0.5625 " fill-opacity="1" fill-rule="nonzero"/></g></g></g></g></g></g><g clip-path="url(#345e7dd836)"><g clip-path="url(#d1cf2b9886)"><path stroke-linecap="butt" transform="matrix(0.75, 0, 0, 0.75, 37.506228, 136.561748)" fill="none" stroke-linejoin="miter" d="M 22.996906 0.00100289 L 376.986513 0.00100289 C 383.085472 0.00100289 388.93443 2.422878 393.246931 6.735378 C 397.559431 11.047879 399.981306 16.896837 399.981306 23.001004 L 399.981306 111.56351 C 399.981306 117.662469 397.559431 123.511428 393.246931 127.823928 C 388.93443 132.141637 383.085472 134.563512 376.986513 134.563512 L 22.996906 134.563512 C 16.897948 134.563512 11.048989 132.141637 6.736489 127.823928 C 2.423988 123.511428 0.00211315 117.662469 0.00211315 111.56351 L 0.00211315 23.001004 C 0.00211315 16.896837 2.423988 11.047879 6.736489 6.735378 C 11.048989 2.422878 16.897948 0.00100289 22.996906 0.00100289 Z M 22.996906 0.00100289 " stroke="#000000" stroke-width="4" stroke-opacity="1" stroke-miterlimit="4"/></g></g><g clip-path="url(#57688f0bc6)"><g clip-path="url(#4c95a7724b)"><g transform="matrix(1, 0, 0, 1, 138, 137)"><g clip-path="url(#6c205cffa8)"><g clip-path="url(#f3d62b13c5)"><g clip-path="url(#1fb08cb24c)"><path fill="#ffde59" d="M 0.929688 0.554688 L 98.96875 0.554688 L 98.96875 98.59375 L 0.929688 98.59375 Z M 0.929688 0.554688 " fill-opacity="1" fill-rule="nonzero"/></g></g></g></g></g></g><g clip-path="url(#3b68958504)"><g clip-path="url(#d2fca308f1)"><g transform="matrix(1, 0, 0, 1, 78, 180)"><g clip-path="url(#82c863fb0c)"><g clip-path="url(#5fe508f686)"><g clip-path="url(#eeb8fa6567)"><path fill="#ffffff" d="M 0.0429688 0.296875 L 112.582031 0.296875 L 112.582031 55.59375 L 0.0429688 55.59375 Z M 0.0429688 0.296875 " fill-opacity="1" fill-rule="nonzero"/></g></g></g></g></g></g><g clip-path="url(#0f3544bede)"><g clip-path="url(#f4ed60d5a3)"><g transform="matrix(1, 0, 0, 1, 187, 140)"><g clip-path="url(#5d3ed32a17)"><g clip-path="url(#5975992478)"><g clip-path="url(#df05ebb28b)"><path fill="#ffffff" d="M 0.5 0.84375 L 112.972656 0.84375 L 112.972656 74.671875 L 0.5 74.671875 Z M 0.5 0.84375 " fill-opacity="1" fill-rule="nonzero"/></g></g></g></g></g></g><g fill="#000000" fill-opacity="1"><g transform="translate(103.194819, 200.951632)"><g><path d="M 2.34375 -41.75 C 2.34375 -42.582031 2.648438 -43.300781 3.265625 -43.90625 C 3.878906 -44.507812 4.613281 -44.8125 5.46875 -44.8125 L 30.9375 -44.84375 L 30.96875 -44.84375 C 31.820312 -44.84375 32.554688 -44.535156 33.171875 -43.921875 C 33.785156 -43.304688 34.09375 -42.570312 34.09375 -41.71875 C 34.09375 -40.863281 33.785156 -40.128906 33.171875 -39.515625 C 32.554688 -38.898438 31.820312 -38.59375 30.96875 -38.59375 L 30.9375 -38.59375 L 8.59375 -38.5625 L 8.625 -27.1875 L 24.90625 -27.34375 L 25.25 -27.34375 C 26.019531 -27.34375 26.679688 -27.023438 27.234375 -26.390625 C 27.785156 -25.753906 28.0625 -25.09375 28.0625 -24.40625 C 28.0625 -23.488281 27.769531 -22.707031 27.1875 -22.0625 C 26.601562 -21.414062 25.851562 -21.09375 24.9375 -21.09375 L 8.65625 -20.9375 L 8.6875 -2.75 L 8.6875 -2.6875 C 8.6875 -1.851562 8.378906 -1.132812 7.765625 -0.53125 C 7.148438 0.0703125 6.414062 0.375 5.5625 0.375 C 4.707031 0.375 3.972656 0.0703125 3.359375 -0.53125 C 2.742188 -1.132812 2.4375 -1.851562 2.4375 -2.6875 L 2.4375 -2.71875 Z M 2.34375 -41.75 "/></g></g></g><g fill="#000000" fill-opacity="1"><g transform="translate(139.630093, 200.951632)"><g><path d="M 23.84375 -30.28125 C 23.84375 -28.632812 23.039062 -27.707031 21.4375 -27.5 C 21.0625 -27.457031 20.300781 -27.65625 19.15625 -28.09375 C 18.007812 -28.53125 17.125 -28.75 16.5 -28.75 C 13.9375 -28.75 12.082031 -27.8125 10.9375 -25.9375 C 9.789062 -24.0625 9.21875 -21.539062 9.21875 -18.375 L 9.21875 -2.25 C 9.21875 -1.332031 8.9375 -0.601562 8.375 -0.0625 C 7.8125 0.476562 7.050781 0.75 6.09375 0.75 C 5.132812 0.75 4.375 0.476562 3.8125 -0.0625 C 3.25 -0.601562 2.96875 -1.34375 2.96875 -2.28125 L 2.96875 -31.0625 C 2.96875 -32.019531 3.207031 -32.796875 3.6875 -33.390625 C 4.164062 -33.984375 4.800781 -34.28125 5.59375 -34.28125 C 6.175781 -34.28125 6.757812 -34.054688 7.34375 -33.609375 C 7.925781 -33.160156 8.34375 -32.488281 8.59375 -31.59375 L 8.90625 -29.34375 C 9.382812 -30.382812 10.378906 -31.460938 11.890625 -32.578125 C 13.398438 -33.691406 14.945312 -34.25 16.53125 -34.25 C 18.925781 -34.25 20.742188 -33.972656 21.984375 -33.421875 C 23.222656 -32.867188 23.84375 -31.820312 23.84375 -30.28125 Z M 23.84375 -30.28125 "/></g></g></g><g fill="#000000" fill-opacity="1"><g transform="translate(164.253588, 200.951632)"><g><path d="M 6.34375 -37.4375 C 5.382812 -37.4375 4.601562 -37.726562 4 -38.3125 C 3.394531 -38.894531 3.082031 -39.632812 3.0625 -40.53125 L 3 -42.90625 C 3 -43.632812 3.335938 -44.257812 4.015625 -44.78125 C 4.691406 -45.300781 5.382812 -45.5625 6.09375 -45.5625 C 6.96875 -45.5625 7.703125 -45.257812 8.296875 -44.65625 C 8.890625 -44.050781 9.195312 -43.320312 9.21875 -42.46875 L 9.25 -40.59375 C 9.25 -39.757812 8.972656 -39.023438 8.421875 -38.390625 C 7.867188 -37.753906 7.175781 -37.4375 6.34375 -37.4375 Z M 2.96875 -31.53125 C 2.96875 -32.257812 3.285156 -32.890625 3.921875 -33.421875 C 4.554688 -33.953125 5.21875 -34.21875 5.90625 -34.21875 C 6.84375 -34.21875 7.628906 -33.941406 8.265625 -33.390625 C 8.898438 -32.835938 9.21875 -32.125 9.21875 -31.25 L 9.21875 -31.21875 L 9.28125 -2.28125 C 9.28125 -1.445312 8.972656 -0.738281 8.359375 -0.15625 C 7.742188 0.425781 7.007812 0.71875 6.15625 0.71875 C 5.28125 0.71875 4.539062 0.421875 3.9375 -0.171875 C 3.332031 -0.765625 3.03125 -1.476562 3.03125 -2.3125 Z M 2.96875 -31.53125 "/></g></g></g><g fill="#000000" fill-opacity="1"><g transform="translate(176.502839, 200.951632)"><g><path d="M 1.5625 -16.8125 C 1.5625 -19.207031 2.003906 -21.519531 2.890625 -23.75 C 3.773438 -25.976562 5.0625 -27.925781 6.75 -29.59375 C 8.269531 -31.070312 10.019531 -32.21875 12 -33.03125 C 13.976562 -33.84375 16.03125 -34.25 18.15625 -34.25 C 22.113281 -34.25 25.550781 -32.550781 28.46875 -29.15625 L 28.46875 -42.3125 C 28.46875 -43.164062 28.773438 -43.898438 29.390625 -44.515625 C 30.003906 -45.128906 30.738281 -45.4375 31.59375 -45.4375 C 32.445312 -45.4375 33.179688 -45.128906 33.796875 -44.515625 C 34.410156 -43.898438 34.71875 -43.164062 34.71875 -42.3125 L 34.71875 -2.40625 C 34.71875 -1.550781 34.410156 -0.816406 33.796875 -0.203125 C 33.179688 0.410156 32.445312 0.71875 31.59375 0.71875 C 30.070312 0.71875 29.15625 -0.320312 28.84375 -2.40625 L 28.46875 -4.9375 C 27.300781 -3.269531 25.75 -1.9375 23.8125 -0.9375 C 21.875 0.0625 19.914062 0.5625 17.9375 0.5625 C 14.875 0.5625 12.082031 -0.242188 9.5625 -1.859375 C 7.039062 -3.472656 5.078125 -5.601562 3.671875 -8.25 C 2.265625 -10.894531 1.5625 -13.75 1.5625 -16.8125 Z M 17.875 -5.6875 C 19.226562 -5.6875 20.570312 -5.984375 21.90625 -6.578125 C 23.238281 -7.171875 24.375 -7.988281 25.3125 -9.03125 C 26.25 -10.050781 26.972656 -11.265625 27.484375 -12.671875 C 27.992188 -14.078125 28.25 -15.507812 28.25 -16.96875 C 28.25 -20.03125 27.28125 -22.648438 25.34375 -24.828125 C 23.40625 -27.003906 20.96875 -28.09375 18.03125 -28.09375 C 15.15625 -28.09375 12.726562 -26.957031 10.75 -24.6875 C 8.769531 -22.414062 7.78125 -19.789062 7.78125 -16.8125 C 7.78125 -13.832031 8.753906 -11.234375 10.703125 -9.015625 C 12.648438 -6.796875 15.039062 -5.6875 17.875 -5.6875 Z M 17.875 -5.6875 "/></g></g></g><g fill="#000000" fill-opacity="1"><g transform="translate(214.344282, 200.951632)"><g><path d="M 19.46875 -34.375 C 21.65625 -34.375 23.816406 -33.75 25.953125 -32.5 C 28.085938 -31.25 29.601562 -29.84375 30.5 -28.28125 L 30.84375 -31.28125 C 30.84375 -32.15625 31.097656 -32.894531 31.609375 -33.5 C 32.117188 -34.101562 32.789062 -34.40625 33.625 -34.40625 C 34.476562 -34.40625 35.210938 -34.097656 35.828125 -33.484375 C 36.441406 -32.867188 36.75 -32.132812 36.75 -31.28125 L 36.75 -31.21875 L 36.6875 -2.28125 C 36.6875 -1.425781 36.378906 -0.691406 35.765625 -0.078125 C 35.148438 0.535156 34.414062 0.84375 33.5625 0.84375 C 32.726562 0.84375 32.054688 0.539062 31.546875 -0.0625 C 31.035156 -0.664062 30.78125 -1.40625 30.78125 -2.28125 L 30.4375 -4.78125 C 29.394531 -3.007812 27.851562 -1.648438 25.8125 -0.703125 C 23.769531 0.242188 21.632812 0.71875 19.40625 0.71875 C 16.320312 0.71875 13.46875 -0.0820312 10.84375 -1.6875 C 8.21875 -3.289062 6.144531 -5.429688 4.625 -8.109375 C 3.101562 -10.785156 2.34375 -13.664062 2.34375 -16.75 C 2.34375 -19.8125 3.082031 -22.691406 4.5625 -25.390625 C 6.039062 -28.085938 8.109375 -30.257812 10.765625 -31.90625 C 13.421875 -33.550781 16.320312 -34.375 19.46875 -34.375 Z M 30.25 -16.8125 C 30.25 -19.894531 29.207031 -22.550781 27.125 -24.78125 C 25.039062 -27.007812 22.46875 -28.125 19.40625 -28.125 C 16.382812 -28.125 13.816406 -27.003906 11.703125 -24.765625 C 9.585938 -22.523438 8.53125 -19.882812 8.53125 -16.84375 C 8.53125 -13.78125 9.597656 -11.128906 11.734375 -8.890625 C 13.867188 -6.648438 16.4375 -5.53125 19.4375 -5.53125 C 22.414062 -5.53125 24.960938 -6.648438 27.078125 -8.890625 C 29.191406 -11.128906 30.25 -13.769531 30.25 -16.8125 Z M 30.25 -16.8125 "/></g></g></g><g fill="#000000" fill-opacity="1"><g transform="translate(254.216846, 200.951632)"><g><path d="M 3.90625 -34.40625 C 4.507812 -34.40625 5.078125 -34.226562 5.609375 -33.875 C 6.140625 -33.519531 6.519531 -33.082031 6.75 -32.5625 L 17.375 -8.40625 L 26.46875 -32.34375 C 26.695312 -32.90625 27.082031 -33.375 27.625 -33.75 C 28.164062 -34.125 28.75 -34.3125 29.375 -34.3125 C 30.226562 -34.3125 30.960938 -34.003906 31.578125 -33.390625 C 32.191406 -32.773438 32.5 -32.039062 32.5 -31.1875 C 32.5 -30.75 32.414062 -30.34375 32.25 -29.96875 L 20.75 0.03125 C 20.6875 0.40625 20.507812 0.832031 20.21875 1.3125 L 18.46875 5.6875 C 18.09375 6.644531 17.765625 7.425781 17.484375 8.03125 C 17.203125 8.632812 16.785156 9.378906 16.234375 10.265625 C 15.679688 11.148438 15.070312 11.925781 14.40625 12.59375 C 13.34375 13.71875 12.070312 14.628906 10.59375 15.328125 C 9.113281 16.023438 7.601562 16.375 6.0625 16.375 C 5.1875 16.375 4.445312 16.0625 3.84375 15.4375 C 3.238281 14.8125 2.9375 14.0625 2.9375 13.1875 C 2.9375 12.351562 3.222656 11.628906 3.796875 11.015625 C 4.367188 10.398438 5.0625 10.082031 5.875 10.0625 C 7.539062 9.957031 8.878906 9.328125 9.890625 8.171875 C 10.898438 7.015625 11.832031 5.394531 12.6875 3.3125 L 14.1875 -0.5 L 1.0625 -29.9375 C 0.875 -30.375 0.78125 -30.820312 0.78125 -31.28125 C 0.78125 -32.132812 1.085938 -32.867188 1.703125 -33.484375 C 2.316406 -34.097656 3.050781 -34.40625 3.90625 -34.40625 Z M 3.90625 -34.40625 "/></g></g></g><g fill="#000000" fill-opacity="1"><g transform="translate(53.279206, 87.075822)"><g><path d="M 5.109375 -0.59375 C 4.710938 -0.195312 4.234375 0 3.671875 0 C 3.109375 0 2.625 -0.195312 2.21875 -0.59375 C 1.820312 -1 1.625 -1.484375 1.625 -2.046875 L 1.5625 -27.5 C 1.539062 -27.625 1.53125 -27.75 1.53125 -27.875 C 1.53125 -28.132812 1.679688 -28.503906 1.984375 -28.984375 C 2.316406 -29.515625 2.789062 -29.78125 3.40625 -29.78125 C 4.382812 -29.78125 5.0625 -29.394531 5.4375 -28.625 L 16.40625 -10.71875 L 26.5625 -28.65625 C 26.96875 -29.332031 27.519531 -29.671875 28.21875 -29.671875 C 28.820312 -29.671875 29.335938 -29.472656 29.765625 -29.078125 C 30.191406 -28.691406 30.40625 -28.207031 30.40625 -27.625 L 30.40625 -1.96875 C 30.40625 -1.40625 30.203125 -0.921875 29.796875 -0.515625 C 29.398438 -0.117188 28.921875 0.078125 28.359375 0.078125 C 27.796875 0.078125 27.3125 -0.117188 26.90625 -0.515625 C 26.507812 -0.921875 26.3125 -1.40625 26.3125 -1.96875 L 26.3125 -20.296875 L 18.25 -5.65625 C 18.070312 -5.382812 17.828125 -5.140625 17.515625 -4.921875 C 17.203125 -4.710938 16.875 -4.609375 16.53125 -4.609375 C 15.738281 -4.609375 15.128906 -4.9375 14.703125 -5.59375 L 5.65625 -20.390625 L 5.71875 -2.078125 L 5.71875 -2.046875 C 5.71875 -1.484375 5.515625 -1 5.109375 -0.59375 Z M 5.109375 -0.59375 "/></g></g></g><g fill="#000000" fill-opacity="1"><g transform="translate(123.463758, 87.075822)"><g><path d="M 1.109375 -25.84375 C 0.710938 -26.25 0.515625 -26.734375 0.515625 -27.296875 C 0.515625 -27.859375 0.710938 -28.335938 1.109375 -28.734375 C 1.515625 -29.140625 2 -29.34375 2.5625 -29.34375 L 2.578125 -29.34375 L 23.078125 -29.46875 L 23.109375 -29.46875 C 23.671875 -29.46875 24.148438 -29.265625 24.546875 -28.859375 C 24.953125 -28.460938 25.15625 -27.984375 25.15625 -27.421875 C 25.15625 -26.859375 24.953125 -26.375 24.546875 -25.96875 C 24.148438 -25.570312 23.671875 -25.375 23.109375 -25.375 L 23.09375 -25.375 L 14.9375 -25.328125 L 14.828125 -1.78125 L 14.828125 -1.765625 C 14.828125 -1.210938 14.625 -0.738281 14.21875 -0.34375 C 13.820312 0.0507812 13.34375 0.25 12.78125 0.25 C 12.21875 0.25 11.734375 0.0507812 11.328125 -0.34375 C 10.921875 -0.738281 10.71875 -1.210938 10.71875 -1.765625 L 10.71875 -1.8125 L 10.828125 -25.3125 L 2.578125 -25.25 L 2.5625 -25.25 C 2 -25.25 1.515625 -25.445312 1.109375 -25.84375 Z M 1.109375 -25.84375 "/></g></g><g transform="translate(149.119029, 87.075822)"><g><path d="M 16.25 -2.765625 C 15.613281 -2.148438 15.046875 -1.644531 14.546875 -1.25 C 14.054688 -0.851562 13.382812 -0.46875 12.53125 -0.09375 C 11.6875 0.269531 10.835938 0.453125 9.984375 0.453125 C 8.304688 0.453125 6.859375 0.0078125 5.640625 -0.875 C 4.421875 -1.769531 3.503906 -2.90625 2.890625 -4.28125 C 2.273438 -5.675781 1.96875 -7.582031 1.96875 -10 L 1.96875 -20.359375 C 1.96875 -20.921875 2.171875 -21.40625 2.578125 -21.8125 C 2.984375 -22.21875 3.460938 -22.421875 4.015625 -22.421875 C 4.578125 -22.421875 5.0625 -22.21875 5.46875 -21.8125 C 5.875 -21.40625 6.078125 -20.921875 6.078125 -20.359375 L 6.078125 -10 C 6.078125 -8.15625 6.269531 -6.8125 6.65625 -5.96875 C 6.945312 -5.300781 7.375 -4.75 7.9375 -4.3125 C 8.5 -3.875 9.171875 -3.65625 9.953125 -3.65625 C 11.941406 -3.65625 13.488281 -4.421875 14.59375 -5.953125 C 15.695312 -7.484375 16.238281 -9.570312 16.21875 -12.21875 L 16.203125 -20.40625 C 16.203125 -20.96875 16.40625 -21.445312 16.8125 -21.84375 C 17.21875 -22.25 17.695312 -22.453125 18.25 -22.453125 C 18.832031 -22.453125 19.320312 -22.25 19.71875 -21.84375 C 20.113281 -21.445312 20.3125 -20.960938 20.3125 -20.390625 L 20.34375 -1.53125 C 20.34375 -0.945312 20.1875 -0.457031 19.875 -0.0625 C 19.5625 0.320312 19.128906 0.515625 18.578125 0.515625 C 17.640625 0.515625 16.976562 -0.164062 16.59375 -1.53125 Z M 16.25 -2.765625 "/></g></g></g><g fill="#000000" fill-opacity="1"><g transform="translate(208.450142, 87.075822)"><g><path d="M 16.671875 -28.296875 C 16.796875 -28.679688 17.046875 -29.003906 17.421875 -29.265625 C 17.796875 -29.523438 18.195312 -29.65625 18.625 -29.65625 C 19.070312 -29.65625 19.476562 -29.515625 19.84375 -29.234375 C 20.207031 -28.953125 20.445312 -28.613281 20.5625 -28.21875 L 26.859375 -8.15625 L 32.46875 -27.453125 C 32.570312 -28.046875 32.8125 -28.546875 33.1875 -28.953125 C 33.5625 -29.367188 33.984375 -29.578125 34.453125 -29.578125 C 35.023438 -29.578125 35.507812 -29.328125 35.90625 -28.828125 C 36.300781 -28.335938 36.5 -27.757812 36.5 -27.09375 C 36.5 -26.820312 36.46875 -26.582031 36.40625 -26.375 L 28.953125 -1.09375 C 28.828125 -0.675781 28.582031 -0.332031 28.21875 -0.0625 C 27.851562 0.195312 27.453125 0.328125 27.015625 0.328125 C 26.585938 0.328125 26.179688 0.203125 25.796875 -0.046875 C 25.410156 -0.304688 25.160156 -0.632812 25.046875 -1.03125 L 18.5625 -19.625 L 11.703125 -0.40625 C 11.210938 0.0820312 10.566406 0.328125 9.765625 0.328125 C 9.328125 0.328125 8.914062 0.195312 8.53125 -0.0625 C 8.144531 -0.332031 7.890625 -0.675781 7.765625 -1.09375 L 0.59375 -26.109375 C 0.539062 -26.328125 0.515625 -26.566406 0.515625 -26.828125 C 0.515625 -27.492188 0.710938 -28.070312 1.109375 -28.5625 C 1.503906 -29.0625 1.988281 -29.3125 2.5625 -29.3125 C 3.03125 -29.3125 3.453125 -29.097656 3.828125 -28.671875 C 4.203125 -28.242188 4.441406 -27.738281 4.546875 -27.15625 L 9.953125 -8.046875 Z M 16.671875 -28.296875 "/></g></g></g><g fill="#000000" fill-opacity="1"><g transform="translate(282.051665, 87.075822)"><g><path d="M 1.109375 -25.84375 C 0.710938 -26.25 0.515625 -26.734375 0.515625 -27.296875 C 0.515625 -27.859375 0.710938 -28.335938 1.109375 -28.734375 C 1.515625 -29.140625 2 -29.34375 2.5625 -29.34375 L 2.578125 -29.34375 L 23.078125 -29.46875 L 23.109375 -29.46875 C 23.671875 -29.46875 24.148438 -29.265625 24.546875 -28.859375 C 24.953125 -28.460938 25.15625 -27.984375 25.15625 -27.421875 C 25.15625 -26.859375 24.953125 -26.375 24.546875 -25.96875 C 24.148438 -25.570312 23.671875 -25.375 23.109375 -25.375 L 23.09375 -25.375 L 14.9375 -25.328125 L 14.828125 -1.78125 L 14.828125 -1.765625 C 14.828125 -1.210938 14.625 -0.738281 14.21875 -0.34375 C 13.820312 0.0507812 13.34375 0.25 12.78125 0.25 C 12.21875 0.25 11.734375 0.0507812 11.328125 -0.34375 C 10.921875 -0.738281 10.71875 -1.210938 10.71875 -1.765625 L 10.71875 -1.8125 L 10.828125 -25.3125 L 2.578125 -25.25 L 2.5625 -25.25 C 2 -25.25 1.515625 -25.445312 1.109375 -25.84375 Z M 1.109375 -25.84375 "/></g></g><g transform="translate(307.706936, 87.075822)"><g><path d="M 1.953125 -27.9375 C 1.953125 -28.476562 2.148438 -28.941406 2.546875 -29.328125 C 2.941406 -29.722656 3.425781 -29.921875 4 -29.921875 C 4.5625 -29.921875 5.039062 -29.722656 5.4375 -29.328125 C 5.84375 -28.941406 6.046875 -28.476562 6.046875 -27.9375 L 6.046875 -18.984375 C 6.554688 -20.054688 7.296875 -20.898438 8.265625 -21.515625 C 9.242188 -22.128906 10.226562 -22.4375 11.21875 -22.4375 C 14.320312 -22.4375 16.632812 -21.507812 18.15625 -19.65625 C 19.6875 -17.800781 20.453125 -15.273438 20.453125 -12.078125 L 20.453125 -11.890625 L 20.421875 -1.53125 L 20.421875 -1.515625 C 20.421875 -0.972656 20.21875 -0.503906 19.8125 -0.109375 C 19.414062 0.273438 18.9375 0.46875 18.375 0.46875 C 17.8125 0.46875 17.328125 0.273438 16.921875 -0.109375 C 16.523438 -0.503906 16.328125 -0.972656 16.328125 -1.515625 L 16.328125 -1.53125 L 16.34375 -11.796875 L 16.34375 -11.828125 C 16.34375 -14.054688 15.96875 -15.691406 15.21875 -16.734375 C 14.476562 -17.785156 13.144531 -18.3125 11.21875 -18.3125 C 9.550781 -18.3125 8.28125 -17.726562 7.40625 -16.5625 C 6.53125 -15.40625 6.09375 -13.863281 6.09375 -11.9375 L 6.09375 -1.5 C 6.09375 -0.945312 5.890625 -0.472656 5.484375 -0.078125 C 5.078125 0.304688 4.597656 0.5 4.046875 0.5 C 3.453125 0.5 2.953125 0.300781 2.546875 -0.09375 C 2.148438 -0.5 1.953125 -0.96875 1.953125 -1.5 Z M 1.953125 -27.9375 "/></g></g></g><g fill="#000000" fill-opacity="1"><g transform="translate(120.428602, 311.827451)"><g><path d="M 14.03125 -29.796875 C 16.363281 -29.796875 18.5 -29.210938 20.4375 -28.046875 C 22.375 -26.890625 23.75 -25.375 24.5625 -23.5 C 24.6875 -23.226562 24.75 -22.945312 24.75 -22.65625 C 24.75 -22.101562 24.546875 -21.625 24.140625 -21.21875 C 23.742188 -20.8125 23.265625 -20.609375 22.703125 -20.609375 C 22.335938 -20.609375 21.960938 -20.726562 21.578125 -20.96875 C 21.203125 -21.207031 20.945312 -21.5 20.8125 -21.84375 C 20.289062 -23.03125 19.425781 -23.96875 18.21875 -24.65625 C 17.007812 -25.351562 15.613281 -25.703125 14.03125 -25.703125 C 13.21875 -25.703125 12.382812 -25.601562 11.53125 -25.40625 C 10.675781 -25.207031 9.867188 -24.914062 9.109375 -24.53125 C 8.359375 -24.15625 7.738281 -23.660156 7.25 -23.046875 C 6.757812 -22.429688 6.515625 -21.753906 6.515625 -21.015625 C 6.515625 -20.429688 6.707031 -19.90625 7.09375 -19.4375 C 7.476562 -18.976562 7.953125 -18.601562 8.515625 -18.3125 C 9.515625 -17.8125 10.773438 -17.421875 12.296875 -17.140625 C 13.816406 -16.867188 15.375 -16.597656 16.96875 -16.328125 C 18.570312 -16.066406 19.898438 -15.710938 20.953125 -15.265625 C 22.335938 -14.660156 23.488281 -13.800781 24.40625 -12.6875 C 25.320312 -11.570312 25.78125 -10.210938 25.78125 -8.609375 C 25.78125 -7.453125 25.535156 -6.367188 25.046875 -5.359375 C 24.566406 -4.359375 23.925781 -3.507812 23.125 -2.8125 C 22.332031 -2.113281 21.421875 -1.515625 20.390625 -1.015625 C 19.359375 -0.515625 18.300781 -0.148438 17.21875 0.078125 C 16.132812 0.316406 15.054688 0.4375 13.984375 0.4375 C 11.304688 0.4375 8.90625 -0.191406 6.78125 -1.453125 C 4.664062 -2.710938 3.148438 -4.398438 2.234375 -6.515625 C 2.109375 -6.796875 2.046875 -7.070312 2.046875 -7.34375 C 2.046875 -7.90625 2.25 -8.382812 2.65625 -8.78125 C 3.0625 -9.1875 3.546875 -9.390625 4.109375 -9.390625 C 4.484375 -9.390625 4.851562 -9.265625 5.21875 -9.015625 C 5.59375 -8.773438 5.847656 -8.484375 5.984375 -8.140625 C 6.578125 -6.765625 7.59375 -5.675781 9.03125 -4.875 C 10.476562 -4.070312 12.128906 -3.671875 13.984375 -3.671875 C 15.210938 -3.671875 16.390625 -3.835938 17.515625 -4.171875 C 18.648438 -4.503906 19.625 -5.0625 20.4375 -5.84375 C 21.25 -6.625 21.65625 -7.546875 21.65625 -8.609375 C 21.65625 -9.265625 21.429688 -9.832031 20.984375 -10.3125 C 20.546875 -10.800781 20 -11.191406 19.34375 -11.484375 C 18.269531 -11.929688 16.929688 -12.289062 15.328125 -12.5625 C 13.734375 -12.832031 12.160156 -13.109375 10.609375 -13.390625 C 9.054688 -13.679688 7.742188 -14.097656 6.671875 -14.640625 C 5.429688 -15.253906 4.410156 -16.09375 3.609375 -17.15625 C 2.804688 -18.226562 2.40625 -19.515625 2.40625 -21.015625 C 2.40625 -22.109375 2.632812 -23.132812 3.09375 -24.09375 C 3.550781 -25.0625 4.164062 -25.890625 4.9375 -26.578125 C 5.707031 -27.265625 6.59375 -27.851562 7.59375 -28.34375 C 8.601562 -28.832031 9.65625 -29.195312 10.75 -29.4375 C 11.84375 -29.675781 12.9375 -29.796875 14.03125 -29.796875 Z M 14.03125 -29.796875 "/></g></g><g transform="translate(148.257702, 311.827451)"><g><path d="M 12.78125 -22.5625 C 14.21875 -22.5625 15.632812 -22.148438 17.03125 -21.328125 C 18.4375 -20.503906 19.429688 -19.582031 20.015625 -18.5625 L 20.234375 -20.53125 C 20.234375 -21.101562 20.398438 -21.585938 20.734375 -21.984375 C 21.078125 -22.378906 21.519531 -22.578125 22.0625 -22.578125 C 22.625 -22.578125 23.109375 -22.375 23.515625 -21.96875 C 23.921875 -21.570312 24.125 -21.09375 24.125 -20.53125 L 24.125 -20.484375 L 24.078125 -1.5 C 24.078125 -0.9375 23.875 -0.453125 23.46875 -0.046875 C 23.0625 0.347656 22.582031 0.546875 22.03125 0.546875 C 21.476562 0.546875 21.035156 0.347656 20.703125 -0.046875 C 20.367188 -0.441406 20.203125 -0.925781 20.203125 -1.5 L 19.96875 -3.140625 C 19.289062 -1.972656 18.28125 -1.078125 16.9375 -0.453125 C 15.601562 0.160156 14.203125 0.46875 12.734375 0.46875 C 10.710938 0.46875 8.835938 -0.0546875 7.109375 -1.109375 C 5.390625 -2.160156 4.03125 -3.5625 3.03125 -5.3125 C 2.03125 -7.070312 1.53125 -8.96875 1.53125 -11 C 1.53125 -13 2.015625 -14.882812 2.984375 -16.65625 C 3.960938 -18.425781 5.320312 -19.851562 7.0625 -20.9375 C 8.8125 -22.019531 10.71875 -22.5625 12.78125 -22.5625 Z M 19.859375 -11.03125 C 19.859375 -13.050781 19.171875 -14.789062 17.796875 -16.25 C 16.429688 -17.71875 14.742188 -18.453125 12.734375 -18.453125 C 10.753906 -18.453125 9.066406 -17.71875 7.671875 -16.25 C 6.285156 -14.78125 5.59375 -13.046875 5.59375 -11.046875 C 5.59375 -9.046875 6.289062 -7.304688 7.6875 -5.828125 C 9.09375 -4.359375 10.78125 -3.625 12.75 -3.625 C 14.707031 -3.625 16.378906 -4.359375 17.765625 -5.828125 C 19.160156 -7.304688 19.859375 -9.039062 19.859375 -11.03125 Z M 19.859375 -11.03125 "/></g></g></g><g fill="#000000" fill-opacity="1"><g transform="translate(201.899361, 311.827451)"><g><path d="M 14.03125 -29.796875 C 16.363281 -29.796875 18.5 -29.210938 20.4375 -28.046875 C 22.375 -26.890625 23.75 -25.375 24.5625 -23.5 C 24.6875 -23.226562 24.75 -22.945312 24.75 -22.65625 C 24.75 -22.101562 24.546875 -21.625 24.140625 -21.21875 C 23.742188 -20.8125 23.265625 -20.609375 22.703125 -20.609375 C 22.335938 -20.609375 21.960938 -20.726562 21.578125 -20.96875 C 21.203125 -21.207031 20.945312 -21.5 20.8125 -21.84375 C 20.289062 -23.03125 19.425781 -23.96875 18.21875 -24.65625 C 17.007812 -25.351562 15.613281 -25.703125 14.03125 -25.703125 C 13.21875 -25.703125 12.382812 -25.601562 11.53125 -25.40625 C 10.675781 -25.207031 9.867188 -24.914062 9.109375 -24.53125 C 8.359375 -24.15625 7.738281 -23.660156 7.25 -23.046875 C 6.757812 -22.429688 6.515625 -21.753906 6.515625 -21.015625 C 6.515625 -20.429688 6.707031 -19.90625 7.09375 -19.4375 C 7.476562 -18.976562 7.953125 -18.601562 8.515625 -18.3125 C 9.515625 -17.8125 10.773438 -17.421875 12.296875 -17.140625 C 13.816406 -16.867188 15.375 -16.597656 16.96875 -16.328125 C 18.570312 -16.066406 19.898438 -15.710938 20.953125 -15.265625 C 22.335938 -14.660156 23.488281 -13.800781 24.40625 -12.6875 C 25.320312 -11.570312 25.78125 -10.210938 25.78125 -8.609375 C 25.78125 -7.453125 25.535156 -6.367188 25.046875 -5.359375 C 24.566406 -4.359375 23.925781 -3.507812 23.125 -2.8125 C 22.332031 -2.113281 21.421875 -1.515625 20.390625 -1.015625 C 19.359375 -0.515625 18.300781 -0.148438 17.21875 0.078125 C 16.132812 0.316406 15.054688 0.4375 13.984375 0.4375 C 11.304688 0.4375 8.90625 -0.191406 6.78125 -1.453125 C 4.664062 -2.710938 3.148438 -4.398438 2.234375 -6.515625 C 2.109375 -6.796875 2.046875 -7.070312 2.046875 -7.34375 C 2.046875 -7.90625 2.25 -8.382812 2.65625 -8.78125 C 3.0625 -9.1875 3.546875 -9.390625 4.109375 -9.390625 C 4.484375 -9.390625 4.851562 -9.265625 5.21875 -9.015625 C 5.59375 -8.773438 5.847656 -8.484375 5.984375 -8.140625 C 6.578125 -6.765625 7.59375 -5.675781 9.03125 -4.875 C 10.476562 -4.070312 12.128906 -3.671875 13.984375 -3.671875 C 15.210938 -3.671875 16.390625 -3.835938 17.515625 -4.171875 C 18.648438 -4.503906 19.625 -5.0625 20.4375 -5.84375 C 21.25 -6.625 21.65625 -7.546875 21.65625 -8.609375 C 21.65625 -9.265625 21.429688 -9.832031 20.984375 -10.3125 C 20.546875 -10.800781 20 -11.191406 19.34375 -11.484375 C 18.269531 -11.929688 16.929688 -12.289062 15.328125 -12.5625 C 13.734375 -12.832031 12.160156 -13.109375 10.609375 -13.390625 C 9.054688 -13.679688 7.742188 -14.097656 6.671875 -14.640625 C 5.429688 -15.253906 4.410156 -16.09375 3.609375 -17.15625 C 2.804688 -18.226562 2.40625 -19.515625 2.40625 -21.015625 C 2.40625 -22.109375 2.632812 -23.132812 3.09375 -24.09375 C 3.550781 -25.0625 4.164062 -25.890625 4.9375 -26.578125 C 5.707031 -27.265625 6.59375 -27.851562 7.59375 -28.34375 C 8.601562 -28.832031 9.65625 -29.195312 10.75 -29.4375 C 11.84375 -29.675781 12.9375 -29.796875 14.03125 -29.796875 Z M 14.03125 -29.796875 "/></g></g><g transform="translate(229.728461, 311.827451)"><g><path d="M 16.25 -2.765625 C 15.613281 -2.148438 15.046875 -1.644531 14.546875 -1.25 C 14.054688 -0.851562 13.382812 -0.46875 12.53125 -0.09375 C 11.6875 0.269531 10.835938 0.453125 9.984375 0.453125 C 8.304688 0.453125 6.859375 0.0078125 5.640625 -0.875 C 4.421875 -1.769531 3.503906 -2.90625 2.890625 -4.28125 C 2.273438 -5.675781 1.96875 -7.582031 1.96875 -10 L 1.96875 -20.359375 C 1.96875 -20.921875 2.171875 -21.40625 2.578125 -21.8125 C 2.984375 -22.21875 3.460938 -22.421875 4.015625 -22.421875 C 4.578125 -22.421875 5.0625 -22.21875 5.46875 -21.8125 C 5.875 -21.40625 6.078125 -20.921875 6.078125 -20.359375 L 6.078125 -10 C 6.078125 -8.15625 6.269531 -6.8125 6.65625 -5.96875 C 6.945312 -5.300781 7.375 -4.75 7.9375 -4.3125 C 8.5 -3.875 9.171875 -3.65625 9.953125 -3.65625 C 11.941406 -3.65625 13.488281 -4.421875 14.59375 -5.953125 C 15.695312 -7.484375 16.238281 -9.570312 16.21875 -12.21875 L 16.203125 -20.40625 C 16.203125 -20.96875 16.40625 -21.445312 16.8125 -21.84375 C 17.21875 -22.25 17.695312 -22.453125 18.25 -22.453125 C 18.832031 -22.453125 19.320312 -22.25 19.71875 -21.84375 C 20.113281 -21.445312 20.3125 -20.960938 20.3125 -20.390625 L 20.34375 -1.53125 C 20.34375 -0.945312 20.1875 -0.457031 19.875 -0.0625 C 19.5625 0.320312 19.128906 0.515625 18.578125 0.515625 C 17.640625 0.515625 16.976562 -0.164062 16.59375 -1.53125 Z M 16.25 -2.765625 "/></g></g></g></svg>