<svg xmlns="http://www.w3.org/2000/svg" xmlns:xlink="http://www.w3.org/1999/xlink" width="500" zoomAndPan="magnify" viewBox="0 0 375 374.999991" height="500" preserveAspectRatio="xMidYMid meet" version="1.0"><defs><g/><clipPath id="3fa4685a98"><path d="M 159.101562 263.394531 L 221.933594 263.394531 L 221.933594 326.226562 L 159.101562 326.226562 Z M 159.101562 263.394531 " clip-rule="nonzero"/></clipPath><clipPath id="acf76ddbb1"><path d="M 176.351562 263.394531 L 204.683594 263.394531 C 209.257812 263.394531 213.648438 265.210938 216.882812 268.449219 C 220.117188 271.683594 221.933594 276.070312 221.933594 280.644531 L 221.933594 308.976562 C 221.933594 313.550781 220.117188 317.9375 216.882812 321.175781 C 213.648438 324.410156 209.257812 326.226562 204.683594 326.226562 L 176.351562 326.226562 C 171.777344 326.226562 167.390625 324.410156 164.15625 321.175781 C 160.921875 317.9375 159.101562 313.550781 159.101562 308.976562 L 159.101562 280.644531 C 159.101562 276.070312 160.921875 271.683594 164.15625 268.449219 C 167.390625 265.210938 171.777344 263.394531 176.351562 263.394531 Z M 176.351562 263.394531 " clip-rule="nonzero"/></clipPath><clipPath id="621bf5d764"><path d="M 0.101562 0.394531 L 62.933594 0.394531 L 62.933594 63.226562 L 0.101562 63.226562 Z M 0.101562 0.394531 " clip-rule="nonzero"/></clipPath><clipPath id="3e3d6e1867"><path d="M 17.351562 0.394531 L 45.683594 0.394531 C 50.257812 0.394531 54.648438 2.210938 57.882812 5.449219 C 61.117188 8.683594 62.933594 13.070312 62.933594 17.644531 L 62.933594 45.976562 C 62.933594 50.550781 61.117188 54.9375 57.882812 58.175781 C 54.648438 61.410156 50.257812 63.226562 45.683594 63.226562 L 17.351562 63.226562 C 12.777344 63.226562 8.390625 61.410156 5.15625 58.175781 C 1.921875 54.9375 0.101562 50.550781 0.101562 45.976562 L 0.101562 17.644531 C 0.101562 13.070312 1.921875 8.683594 5.15625 5.449219 C 8.390625 2.210938 12.777344 0.394531 17.351562 0.394531 Z M 17.351562 0.394531 " clip-rule="nonzero"/></clipPath><clipPath id="2a0cfcb79b"><rect x="0" width="63" y="0" height="64"/></clipPath><clipPath id="9924127bce"><path d="M 159.101562 263.394531 L 222 263.394531 L 222 326.394531 L 159.101562 326.394531 Z M 159.101562 263.394531 " clip-rule="nonzero"/></clipPath><clipPath id="988d709260"><path d="M 176.351562 263.394531 L 204.679688 263.394531 C 209.253906 263.394531 213.640625 265.210938 216.875 268.449219 C 220.109375 271.683594 221.925781 276.070312 221.925781 280.644531 L 221.925781 308.972656 C 221.925781 313.546875 220.109375 317.933594 216.875 321.167969 C 213.640625 324.402344 209.253906 326.21875 204.679688 326.21875 L 176.351562 326.21875 C 171.777344 326.21875 167.390625 324.402344 164.15625 321.167969 C 160.921875 317.933594 159.101562 313.546875 159.101562 308.972656 L 159.101562 280.644531 C 159.101562 276.070312 160.921875 271.683594 164.15625 268.449219 C 167.390625 265.210938 171.777344 263.394531 176.351562 263.394531 Z M 176.351562 263.394531 " clip-rule="nonzero"/></clipPath><clipPath id="77767f3e3f"><path d="M 236.871094 263.394531 L 299.703125 263.394531 L 299.703125 326.226562 L 236.871094 326.226562 Z M 236.871094 263.394531 " clip-rule="nonzero"/></clipPath><clipPath id="0bdd89a0b9"><path d="M 254.121094 263.394531 L 282.453125 263.394531 C 287.027344 263.394531 291.414062 265.210938 294.652344 268.449219 C 297.886719 271.683594 299.703125 276.070312 299.703125 280.644531 L 299.703125 308.976562 C 299.703125 313.550781 297.886719 317.9375 294.652344 321.175781 C 291.414062 324.410156 287.027344 326.226562 282.453125 326.226562 L 254.121094 326.226562 C 249.546875 326.226562 245.160156 324.410156 241.925781 321.175781 C 238.6875 317.9375 236.871094 313.550781 236.871094 308.976562 L 236.871094 280.644531 C 236.871094 276.070312 238.6875 271.683594 241.925781 268.449219 C 245.160156 265.210938 249.546875 263.394531 254.121094 263.394531 Z M 254.121094 263.394531 " clip-rule="nonzero"/></clipPath><clipPath id="93430f49ef"><path d="M 0.871094 0.394531 L 63.703125 0.394531 L 63.703125 63.226562 L 0.871094 63.226562 Z M 0.871094 0.394531 " clip-rule="nonzero"/></clipPath><clipPath id="1f6fd9f89a"><path d="M 18.121094 0.394531 L 46.453125 0.394531 C 51.027344 0.394531 55.414062 2.210938 58.652344 5.449219 C 61.886719 8.683594 63.703125 13.070312 63.703125 17.644531 L 63.703125 45.976562 C 63.703125 50.550781 61.886719 54.9375 58.652344 58.175781 C 55.414062 61.410156 51.027344 63.226562 46.453125 63.226562 L 18.121094 63.226562 C 13.546875 63.226562 9.160156 61.410156 5.925781 58.175781 C 2.6875 54.9375 0.871094 50.550781 0.871094 45.976562 L 0.871094 17.644531 C 0.871094 13.070312 2.6875 8.683594 5.925781 5.449219 C 9.160156 2.210938 13.546875 0.394531 18.121094 0.394531 Z M 18.121094 0.394531 " clip-rule="nonzero"/></clipPath><clipPath id="9ff6bdca20"><rect x="0" width="64" y="0" height="64"/></clipPath><clipPath id="bdf9966a5a"><path d="M 236.871094 263.394531 L 299.871094 263.394531 L 299.871094 326.394531 L 236.871094 326.394531 Z M 236.871094 263.394531 " clip-rule="nonzero"/></clipPath><clipPath id="8992aa64f6"><path d="M 254.121094 263.394531 L 282.449219 263.394531 C 287.023438 263.394531 291.410156 265.210938 294.644531 268.449219 C 297.878906 271.683594 299.695312 276.070312 299.695312 280.644531 L 299.695312 308.972656 C 299.695312 313.546875 297.878906 317.933594 294.644531 321.167969 C 291.410156 324.402344 287.023438 326.21875 282.449219 326.21875 L 254.121094 326.21875 C 249.546875 326.21875 245.160156 324.402344 241.921875 321.167969 C 238.6875 317.933594 236.871094 313.546875 236.871094 308.972656 L 236.871094 280.644531 C 236.871094 276.070312 238.6875 271.683594 241.921875 268.449219 C 245.160156 265.210938 249.546875 263.394531 254.121094 263.394531 Z M 254.121094 263.394531 " clip-rule="nonzero"/></clipPath><clipPath id="ef773ec73a"><path d="M 156.800781 188.113281 L 219.632812 188.113281 L 219.632812 250.945312 L 156.800781 250.945312 Z M 156.800781 188.113281 " clip-rule="nonzero"/></clipPath><clipPath id="16252bea95"><path d="M 174.050781 188.113281 L 202.382812 188.113281 C 206.957031 188.113281 211.34375 189.929688 214.578125 193.164062 C 217.8125 196.398438 219.632812 200.789062 219.632812 205.363281 L 219.632812 233.695312 C 219.632812 238.269531 217.8125 242.65625 214.578125 245.890625 C 211.34375 249.125 206.957031 250.945312 202.382812 250.945312 L 174.050781 250.945312 C 169.476562 250.945312 165.085938 249.125 161.851562 245.890625 C 158.617188 242.65625 156.800781 238.269531 156.800781 233.695312 L 156.800781 205.363281 C 156.800781 200.789062 158.617188 196.398438 161.851562 193.164062 C 165.085938 189.929688 169.476562 188.113281 174.050781 188.113281 Z M 174.050781 188.113281 " clip-rule="nonzero"/></clipPath><clipPath id="a09497e24f"><path d="M 0.800781 0.113281 L 63.632812 0.113281 L 63.632812 62.945312 L 0.800781 62.945312 Z M 0.800781 0.113281 " clip-rule="nonzero"/></clipPath><clipPath id="f97305708b"><path d="M 18.050781 0.113281 L 46.382812 0.113281 C 50.957031 0.113281 55.34375 1.929688 58.578125 5.164062 C 61.8125 8.398438 63.632812 12.789062 63.632812 17.363281 L 63.632812 45.695312 C 63.632812 50.269531 61.8125 54.65625 58.578125 57.890625 C 55.34375 61.125 50.957031 62.945312 46.382812 62.945312 L 18.050781 62.945312 C 13.476562 62.945312 9.085938 61.125 5.851562 57.890625 C 2.617188 54.65625 0.800781 50.269531 0.800781 45.695312 L 0.800781 17.363281 C 0.800781 12.789062 2.617188 8.398438 5.851562 5.164062 C 9.085938 1.929688 13.476562 0.113281 18.050781 0.113281 Z M 18.050781 0.113281 " clip-rule="nonzero"/></clipPath><clipPath id="e97eafcde1"><rect x="0" width="64" y="0" height="63"/></clipPath><clipPath id="904f44cac5"><path d="M 156.800781 188.113281 L 219.800781 188.113281 L 219.800781 251 L 156.800781 251 Z M 156.800781 188.113281 " clip-rule="nonzero"/></clipPath><clipPath id="6a5e0232a6"><path d="M 174.046875 188.113281 L 202.375 188.113281 C 206.949219 188.113281 211.339844 189.929688 214.574219 193.164062 C 217.808594 196.398438 219.625 200.785156 219.625 205.359375 L 219.625 233.6875 C 219.625 238.261719 217.808594 242.648438 214.574219 245.882812 C 211.339844 249.121094 206.949219 250.9375 202.375 250.9375 L 174.046875 250.9375 C 169.472656 250.9375 165.085938 249.121094 161.851562 245.882812 C 158.617188 242.648438 156.800781 238.261719 156.800781 233.6875 L 156.800781 205.359375 C 156.800781 200.785156 158.617188 196.398438 161.851562 193.164062 C 165.085938 189.929688 169.472656 188.113281 174.046875 188.113281 Z M 174.046875 188.113281 " clip-rule="nonzero"/></clipPath><clipPath id="fd0f9efe6e"><path d="M 79.691406 188.863281 L 142.519531 188.863281 L 142.519531 251.695312 L 79.691406 251.695312 Z M 79.691406 188.863281 " clip-rule="nonzero"/></clipPath><clipPath id="4682c401be"><path d="M 96.941406 188.863281 L 125.269531 188.863281 C 129.847656 188.863281 134.234375 190.679688 137.46875 193.914062 C 140.703125 197.148438 142.519531 201.539062 142.519531 206.113281 L 142.519531 234.445312 C 142.519531 239.019531 140.703125 243.40625 137.46875 246.640625 C 134.234375 249.875 129.847656 251.695312 125.269531 251.695312 L 96.941406 251.695312 C 92.363281 251.695312 87.976562 249.875 84.742188 246.640625 C 81.507812 243.40625 79.691406 239.019531 79.691406 234.445312 L 79.691406 206.113281 C 79.691406 201.539062 81.507812 197.148438 84.742188 193.914062 C 87.976562 190.679688 92.363281 188.863281 96.941406 188.863281 Z M 96.941406 188.863281 " clip-rule="nonzero"/></clipPath><clipPath id="4292efa24e"><path d="M 0.691406 0.863281 L 63.519531 0.863281 L 63.519531 63.695312 L 0.691406 63.695312 Z M 0.691406 0.863281 " clip-rule="nonzero"/></clipPath><clipPath id="eb9ccfc769"><path d="M 17.941406 0.863281 L 46.269531 0.863281 C 50.847656 0.863281 55.234375 2.679688 58.46875 5.914062 C 61.703125 9.148438 63.519531 13.539062 63.519531 18.113281 L 63.519531 46.445312 C 63.519531 51.019531 61.703125 55.40625 58.46875 58.640625 C 55.234375 61.875 50.847656 63.695312 46.269531 63.695312 L 17.941406 63.695312 C 13.363281 63.695312 8.976562 61.875 5.742188 58.640625 C 2.507812 55.40625 0.691406 51.019531 0.691406 46.445312 L 0.691406 18.113281 C 0.691406 13.539062 2.507812 9.148438 5.742188 5.914062 C 8.976562 2.679688 13.363281 0.863281 17.941406 0.863281 Z M 17.941406 0.863281 " clip-rule="nonzero"/></clipPath><clipPath id="c3067a06e7"><rect x="0" width="64" y="0" height="64"/></clipPath><clipPath id="c92f9e12d8"><path d="M 79.691406 188.863281 L 142.691406 188.863281 L 142.691406 251.863281 L 79.691406 251.863281 Z M 79.691406 188.863281 " clip-rule="nonzero"/></clipPath><clipPath id="f797a83e19"><path d="M 96.9375 188.863281 L 125.265625 188.863281 C 129.839844 188.863281 134.226562 190.679688 137.460938 193.914062 C 140.695312 197.148438 142.515625 201.535156 142.515625 206.109375 L 142.515625 234.4375 C 142.515625 239.011719 140.695312 243.398438 137.460938 246.632812 C 134.226562 249.871094 129.839844 251.6875 125.265625 251.6875 L 96.9375 251.6875 C 92.363281 251.6875 87.976562 249.871094 84.742188 246.632812 C 81.507812 243.398438 79.691406 239.011719 79.691406 234.4375 L 79.691406 206.109375 C 79.691406 201.535156 81.507812 197.148438 84.742188 193.914062 C 87.976562 190.679688 92.363281 188.863281 96.9375 188.863281 Z M 96.9375 188.863281 " clip-rule="nonzero"/></clipPath><clipPath id="f8c69e6f23"><path d="M 236.675781 188.863281 L 299.507812 188.863281 L 299.507812 251.695312 L 236.675781 251.695312 Z M 236.675781 188.863281 " clip-rule="nonzero"/></clipPath><clipPath id="fd1bd02602"><path d="M 253.925781 188.863281 L 282.257812 188.863281 C 286.832031 188.863281 291.222656 190.679688 294.457031 193.914062 C 297.691406 197.148438 299.507812 201.539062 299.507812 206.113281 L 299.507812 234.445312 C 299.507812 239.019531 297.691406 243.40625 294.457031 246.640625 C 291.222656 249.875 286.832031 251.695312 282.257812 251.695312 L 253.925781 251.695312 C 249.351562 251.695312 244.964844 249.875 241.730469 246.640625 C 238.496094 243.40625 236.675781 239.019531 236.675781 234.445312 L 236.675781 206.113281 C 236.675781 201.539062 238.496094 197.148438 241.730469 193.914062 C 244.964844 190.679688 249.351562 188.863281 253.925781 188.863281 Z M 253.925781 188.863281 " clip-rule="nonzero"/></clipPath><clipPath id="0d4d2429f1"><path d="M 0.675781 0.863281 L 63.507812 0.863281 L 63.507812 63.695312 L 0.675781 63.695312 Z M 0.675781 0.863281 " clip-rule="nonzero"/></clipPath><clipPath id="6185ca9ec7"><path d="M 17.925781 0.863281 L 46.257812 0.863281 C 50.832031 0.863281 55.222656 2.679688 58.457031 5.914062 C 61.691406 9.148438 63.507812 13.539062 63.507812 18.113281 L 63.507812 46.445312 C 63.507812 51.019531 61.691406 55.40625 58.457031 58.640625 C 55.222656 61.875 50.832031 63.695312 46.257812 63.695312 L 17.925781 63.695312 C 13.351562 63.695312 8.964844 61.875 5.730469 58.640625 C 2.496094 55.40625 0.675781 51.019531 0.675781 46.445312 L 0.675781 18.113281 C 0.675781 13.539062 2.496094 9.148438 5.730469 5.914062 C 8.964844 2.679688 13.351562 0.863281 17.925781 0.863281 Z M 17.925781 0.863281 " clip-rule="nonzero"/></clipPath><clipPath id="2320d087a2"><rect x="0" width="64" y="0" height="64"/></clipPath><clipPath id="520d4d6b5a"><path d="M 236.675781 188.863281 L 299.675781 188.863281 L 299.675781 251.863281 L 236.675781 251.863281 Z M 236.675781 188.863281 " clip-rule="nonzero"/></clipPath><clipPath id="fcc01a7fdc"><path d="M 253.925781 188.863281 L 282.253906 188.863281 C 286.828125 188.863281 291.214844 190.679688 294.449219 193.914062 C 297.683594 197.148438 299.5 201.535156 299.5 206.109375 L 299.5 234.4375 C 299.5 239.011719 297.683594 243.398438 294.449219 246.632812 C 291.214844 249.871094 286.828125 251.6875 282.253906 251.6875 L 253.925781 251.6875 C 249.351562 251.6875 244.964844 249.871094 241.730469 246.632812 C 238.496094 243.398438 236.675781 239.011719 236.675781 234.4375 L 236.675781 206.109375 C 236.675781 201.535156 238.496094 197.148438 241.730469 193.914062 C 244.964844 190.679688 249.351562 188.863281 253.925781 188.863281 Z M 253.925781 188.863281 " clip-rule="nonzero"/></clipPath><clipPath id="fb50e3cd2c"><path d="M 79.285156 262.433594 L 142.117188 262.433594 L 142.117188 325.265625 L 79.285156 325.265625 Z M 79.285156 262.433594 " clip-rule="nonzero"/></clipPath><clipPath id="0db936c1c8"><path d="M 96.535156 262.433594 L 124.867188 262.433594 C 129.441406 262.433594 133.828125 264.253906 137.066406 267.488281 C 140.300781 270.722656 142.117188 275.109375 142.117188 279.683594 L 142.117188 308.015625 C 142.117188 312.589844 140.300781 316.980469 137.066406 320.214844 C 133.828125 323.449219 129.441406 325.265625 124.867188 325.265625 L 96.535156 325.265625 C 91.960938 325.265625 87.574219 323.449219 84.339844 320.214844 C 81.101562 316.980469 79.285156 312.589844 79.285156 308.015625 L 79.285156 279.683594 C 79.285156 275.109375 81.101562 270.722656 84.339844 267.488281 C 87.574219 264.253906 91.960938 262.433594 96.535156 262.433594 Z M 96.535156 262.433594 " clip-rule="nonzero"/></clipPath><clipPath id="03591300d9"><path d="M 0.285156 0.433594 L 63.117188 0.433594 L 63.117188 63.265625 L 0.285156 63.265625 Z M 0.285156 0.433594 " clip-rule="nonzero"/></clipPath><clipPath id="426fa7769d"><path d="M 17.535156 0.433594 L 45.867188 0.433594 C 50.441406 0.433594 54.828125 2.253906 58.066406 5.488281 C 61.300781 8.722656 63.117188 13.109375 63.117188 17.683594 L 63.117188 46.015625 C 63.117188 50.589844 61.300781 54.980469 58.066406 58.214844 C 54.828125 61.449219 50.441406 63.265625 45.867188 63.265625 L 17.535156 63.265625 C 12.960938 63.265625 8.574219 61.449219 5.339844 58.214844 C 2.101562 54.980469 0.285156 50.589844 0.285156 46.015625 L 0.285156 17.683594 C 0.285156 13.109375 2.101562 8.722656 5.339844 5.488281 C 8.574219 2.253906 12.960938 0.433594 17.535156 0.433594 Z M 17.535156 0.433594 " clip-rule="nonzero"/></clipPath><clipPath id="0133ca045e"><rect x="0" width="64" y="0" height="64"/></clipPath><clipPath id="0ee201e2c4"><path d="M 79.285156 262.433594 L 142.285156 262.433594 L 142.285156 325.433594 L 79.285156 325.433594 Z M 79.285156 262.433594 " clip-rule="nonzero"/></clipPath><clipPath id="c7d6b1b7d2"><path d="M 96.535156 262.433594 L 124.863281 262.433594 C 129.4375 262.433594 133.824219 264.253906 137.058594 267.488281 C 140.292969 270.722656 142.109375 275.109375 142.109375 279.683594 L 142.109375 308.011719 C 142.109375 312.585938 140.292969 316.972656 137.058594 320.207031 C 133.824219 323.441406 129.4375 325.257812 124.863281 325.257812 L 96.535156 325.257812 C 91.960938 325.257812 87.570312 323.441406 84.335938 320.207031 C 81.101562 316.972656 79.285156 312.585938 79.285156 308.011719 L 79.285156 279.683594 C 79.285156 275.109375 81.101562 270.722656 84.335938 267.488281 C 87.570312 264.253906 91.960938 262.433594 96.535156 262.433594 Z M 96.535156 262.433594 " clip-rule="nonzero"/></clipPath><clipPath id="b03a60e43d"><path d="M 37.5 65.003906 L 337.519531 65.003906 L 337.519531 165.929688 L 37.5 165.929688 Z M 37.5 65.003906 " clip-rule="nonzero"/></clipPath><clipPath id="5f15fa1f14"><path d="M 54.75 65.003906 L 320.25 65.003906 C 324.824219 65.003906 329.210938 66.820312 332.449219 70.054688 C 335.683594 73.289062 337.5 77.679688 337.5 82.253906 L 337.5 148.679688 C 337.5 153.253906 335.683594 157.640625 332.449219 160.875 C 329.210938 164.113281 324.824219 165.929688 320.25 165.929688 L 54.75 165.929688 C 50.175781 165.929688 45.789062 164.113281 42.550781 160.875 C 39.316406 157.640625 37.5 153.253906 37.5 148.679688 L 37.5 82.253906 C 37.5 77.679688 39.316406 73.289062 42.550781 70.054688 C 45.789062 66.820312 50.175781 65.003906 54.75 65.003906 Z M 54.75 65.003906 " clip-rule="nonzero"/></clipPath><clipPath id="f77ca33a16"><path d="M 0.5 0.00390625 L 300.519531 0.00390625 L 300.519531 100.929688 L 0.5 100.929688 Z M 0.5 0.00390625 " clip-rule="nonzero"/></clipPath><clipPath id="d51097e329"><path d="M 17.75 0.00390625 L 283.25 0.00390625 C 287.824219 0.00390625 292.210938 1.820312 295.449219 5.054688 C 298.683594 8.289062 300.5 12.679688 300.5 17.253906 L 300.5 83.679688 C 300.5 88.253906 298.683594 92.640625 295.449219 95.875 C 292.210938 99.113281 287.824219 100.929688 283.25 100.929688 L 17.75 100.929688 C 13.175781 100.929688 8.789062 99.113281 5.550781 95.875 C 2.316406 92.640625 0.5 88.253906 0.5 83.679688 L 0.5 17.253906 C 0.5 12.679688 2.316406 8.289062 5.550781 5.054688 C 8.789062 1.820312 13.175781 0.00390625 17.75 0.00390625 Z M 17.75 0.00390625 " clip-rule="nonzero"/></clipPath><clipPath id="c735b8fe05"><rect x="0" width="301" y="0" height="101"/></clipPath><clipPath id="7cf2641792"><path d="M 37.507812 65.003906 L 337.5 65.003906 L 337.5 166 L 37.507812 166 Z M 37.507812 65.003906 " clip-rule="nonzero"/></clipPath><clipPath id="d306a6c305"><path d="M 54.753906 65.003906 L 320.246094 65.003906 C 324.820312 65.003906 329.207031 66.820312 332.441406 70.054688 C 335.675781 73.289062 337.492188 77.675781 337.492188 82.253906 L 337.492188 148.675781 C 337.492188 153.25 335.675781 157.636719 332.441406 160.871094 C 329.207031 164.109375 324.820312 165.925781 320.246094 165.925781 L 54.753906 165.925781 C 50.179688 165.925781 45.792969 164.109375 42.558594 160.871094 C 39.324219 157.636719 37.507812 153.25 37.507812 148.675781 L 37.507812 82.253906 C 37.507812 77.675781 39.324219 73.289062 42.558594 70.054688 C 45.792969 66.820312 50.179688 65.003906 54.753906 65.003906 Z M 54.753906 65.003906 " clip-rule="nonzero"/></clipPath><clipPath id="635e51d46a"><path d="M 139.027344 66.445312 L 237.066406 66.445312 L 237.066406 164.484375 L 139.027344 164.484375 Z M 139.027344 66.445312 " clip-rule="nonzero"/></clipPath><clipPath id="9c33300eae"><path d="M 188.046875 66.445312 C 160.976562 66.445312 139.027344 88.394531 139.027344 115.464844 C 139.027344 142.539062 160.976562 164.484375 188.046875 164.484375 C 215.121094 164.484375 237.066406 142.539062 237.066406 115.464844 C 237.066406 88.394531 215.121094 66.445312 188.046875 66.445312 Z M 188.046875 66.445312 " clip-rule="nonzero"/></clipPath><clipPath id="ae325d3914"><path d="M 0.0273438 0.445312 L 98.066406 0.445312 L 98.066406 98.484375 L 0.0273438 98.484375 Z M 0.0273438 0.445312 " clip-rule="nonzero"/></clipPath><clipPath id="3b137e7f5b"><path d="M 49.046875 0.445312 C 21.976562 0.445312 0.0273438 22.394531 0.0273438 49.464844 C 0.0273438 76.539062 21.976562 98.484375 49.046875 98.484375 C 76.121094 98.484375 98.066406 76.539062 98.066406 49.464844 C 98.066406 22.394531 76.121094 0.445312 49.046875 0.445312 Z M 49.046875 0.445312 " clip-rule="nonzero"/></clipPath><clipPath id="ccee99f479"><rect x="0" width="99" y="0" height="99"/></clipPath><clipPath id="f60c6a973c"><path d="M 255.664062 72.367188 L 332.476562 72.367188 L 332.476562 122.660156 L 255.664062 122.660156 Z M 255.664062 72.367188 " clip-rule="nonzero"/></clipPath><clipPath id="7d7d73091a"><path d="M 299.175781 72.367188 C 300.015625 72.367188 300.863281 72.367188 301.699219 72.367188 C 308.390625 73.207031 312.570312 76.003906 314.472656 80.578125 C 325.625 79.96875 333.730469 88.617188 328.789062 97.109375 C 330.433594 98.894531 331.804688 100.890625 332.300781 103.570312 C 332.300781 104.335938 332.300781 105.101562 332.300781 105.867188 C 330.824219 112.6875 324.476562 117.292969 314.054688 116.054688 C 311.371094 119.554688 306.601562 123.058594 299.175781 122.621094 C 295.339844 122.390625 292.667969 121.0625 290.332031 119.445312 C 287.871094 120.789062 285.203125 121.84375 281.351562 121.855469 C 272.4375 121.875 266.476562 116.695312 266.332031 109.59375 C 260.601562 107.929688 256.71875 104.828125 255.664062 99.519531 C 255.664062 98.753906 255.664062 97.984375 255.664062 97.21875 C 256.828125 91.960938 260.5 88.65625 266.609375 87.257812 C 266.242188 78.382812 278.464844 72.839844 288.507812 76.75 C 290.898438 74.816406 294.277344 72.707031 299.175781 72.367188 Z M 299.175781 72.367188 " clip-rule="nonzero"/></clipPath><clipPath id="4ded7f83ff"><path d="M 0.664062 0.367188 L 77.476562 0.367188 L 77.476562 50.660156 L 0.664062 50.660156 Z M 0.664062 0.367188 " clip-rule="nonzero"/></clipPath><clipPath id="d1be84285a"><path d="M 44.175781 0.367188 C 45.015625 0.367188 45.863281 0.367188 46.699219 0.367188 C 53.390625 1.207031 57.570312 4.003906 59.472656 8.578125 C 70.625 7.96875 78.730469 16.617188 73.789062 25.109375 C 75.433594 26.894531 76.804688 28.890625 77.300781 31.570312 C 77.300781 32.335938 77.300781 33.101562 77.300781 33.867188 C 75.824219 40.6875 69.476562 45.292969 59.054688 44.054688 C 56.371094 47.554688 51.601562 51.058594 44.175781 50.621094 C 40.339844 50.390625 37.667969 49.0625 35.332031 47.445312 C 32.871094 48.789062 30.203125 49.84375 26.351562 49.855469 C 17.4375 49.875 11.476562 44.695312 11.332031 37.59375 C 5.601562 35.929688 1.71875 32.828125 0.664062 27.519531 C 0.664062 26.753906 0.664062 25.984375 0.664062 25.21875 C 1.828125 19.960938 5.5 16.65625 11.609375 15.257812 C 11.242188 6.382812 23.464844 0.839844 33.507812 4.75 C 35.898438 2.816406 39.277344 0.707031 44.175781 0.367188 Z M 44.175781 0.367188 " clip-rule="nonzero"/></clipPath><clipPath id="45bb0c4573"><rect x="0" width="78" y="0" height="51"/></clipPath><clipPath id="fc64853cf3"><path d="M 96.917969 103.152344 L 182.40625 103.152344 L 182.40625 159.125 L 96.917969 159.125 Z M 96.917969 103.152344 " clip-rule="nonzero"/></clipPath><clipPath id="5b4b3bdef2"><path d="M 145.34375 103.152344 C 146.277344 103.152344 147.21875 103.152344 148.152344 103.152344 C 155.597656 104.085938 160.25 107.199219 162.367188 112.292969 C 174.777344 111.613281 183.800781 121.242188 178.300781 130.691406 C 180.128906 132.675781 181.65625 134.898438 182.207031 137.878906 C 182.207031 138.730469 182.207031 139.585938 182.207031 140.4375 C 180.566406 148.023438 173.5 153.152344 161.902344 151.773438 C 158.917969 155.667969 153.609375 159.570312 145.34375 159.082031 C 141.074219 158.828125 138.101562 157.347656 135.5 155.546875 C 132.761719 157.042969 129.792969 158.214844 125.503906 158.230469 C 115.585938 158.25 108.949219 152.488281 108.789062 144.582031 C 102.410156 142.734375 98.09375 139.28125 96.917969 133.375 C 96.917969 132.519531 96.917969 131.664062 96.917969 130.8125 C 98.214844 124.960938 102.296875 121.28125 109.097656 119.722656 C 108.691406 109.847656 122.292969 103.679688 133.46875 108.027344 C 136.128906 105.878906 139.894531 103.53125 145.34375 103.152344 Z M 145.34375 103.152344 " clip-rule="nonzero"/></clipPath><clipPath id="9063efc00a"><path d="M 0.917969 0.152344 L 86.40625 0.152344 L 86.40625 56.125 L 0.917969 56.125 Z M 0.917969 0.152344 " clip-rule="nonzero"/></clipPath><clipPath id="3f240b2c43"><path d="M 49.34375 0.152344 C 50.277344 0.152344 51.21875 0.152344 52.152344 0.152344 C 59.597656 1.085938 64.25 4.199219 66.367188 9.292969 C 78.777344 8.613281 87.800781 18.242188 82.300781 27.691406 C 84.128906 29.675781 85.65625 31.898438 86.207031 34.878906 C 86.207031 35.730469 86.207031 36.585938 86.207031 37.4375 C 84.566406 45.023438 77.5 50.152344 65.902344 48.773438 C 62.917969 52.667969 57.609375 56.570312 49.34375 56.082031 C 45.074219 55.828125 42.101562 54.347656 39.5 52.546875 C 36.761719 54.042969 33.792969 55.214844 29.503906 55.230469 C 19.585938 55.25 12.949219 49.488281 12.789062 41.582031 C 6.410156 39.734375 2.09375 36.28125 0.917969 30.375 C 0.917969 29.519531 0.917969 28.664062 0.917969 27.8125 C 2.214844 21.960938 6.296875 18.28125 13.097656 16.722656 C 12.691406 6.847656 26.292969 0.679688 37.46875 5.027344 C 40.128906 2.878906 43.894531 0.53125 49.34375 0.152344 Z M 49.34375 0.152344 " clip-rule="nonzero"/></clipPath><clipPath id="c6f565028a"><rect x="0" width="87" y="0" height="57"/></clipPath><clipPath id="43b781cb3b"><path d="M 213.28125 103.152344 L 298.769531 103.152344 L 298.769531 159.125 L 213.28125 159.125 Z M 213.28125 103.152344 " clip-rule="nonzero"/></clipPath><clipPath id="489a6d5009"><path d="M 261.707031 103.152344 C 262.640625 103.152344 263.582031 103.152344 264.515625 103.152344 C 271.960938 104.085938 276.613281 107.199219 278.730469 112.292969 C 291.140625 111.613281 300.164062 121.242188 294.667969 130.691406 C 296.496094 132.675781 298.019531 134.898438 298.570312 137.878906 C 298.570312 138.730469 298.570312 139.585938 298.570312 140.4375 C 296.929688 148.023438 289.863281 153.152344 278.265625 151.773438 C 275.28125 155.667969 269.972656 159.570312 261.707031 159.082031 C 257.4375 158.828125 254.464844 157.347656 251.863281 155.546875 C 249.125 157.042969 246.15625 158.214844 241.871094 158.230469 C 231.949219 158.25 225.3125 152.488281 225.152344 144.582031 C 218.777344 142.734375 214.457031 139.28125 213.28125 133.375 C 213.28125 132.519531 213.28125 131.664062 213.28125 130.8125 C 214.578125 124.960938 218.664062 121.28125 225.464844 119.722656 C 225.054688 109.847656 238.65625 103.679688 249.832031 108.027344 C 252.492188 105.878906 256.257812 103.53125 261.707031 103.152344 Z M 261.707031 103.152344 " clip-rule="nonzero"/></clipPath><clipPath id="890f7ded22"><path d="M 0.28125 0.152344 L 85.769531 0.152344 L 85.769531 56.125 L 0.28125 56.125 Z M 0.28125 0.152344 " clip-rule="nonzero"/></clipPath><clipPath id="c5ed1d277a"><path d="M 48.707031 0.152344 C 49.640625 0.152344 50.582031 0.152344 51.515625 0.152344 C 58.960938 1.085938 63.613281 4.199219 65.730469 9.292969 C 78.140625 8.613281 87.164062 18.242188 81.667969 27.691406 C 83.496094 29.675781 85.019531 31.898438 85.570312 34.878906 C 85.570312 35.730469 85.570312 36.585938 85.570312 37.4375 C 83.929688 45.023438 76.863281 50.152344 65.265625 48.773438 C 62.28125 52.667969 56.972656 56.570312 48.707031 56.082031 C 44.4375 55.828125 41.464844 54.347656 38.863281 52.546875 C 36.125 54.042969 33.15625 55.214844 28.871094 55.230469 C 18.949219 55.25 12.3125 49.488281 12.152344 41.582031 C 5.777344 39.734375 1.457031 36.28125 0.28125 30.375 C 0.28125 29.519531 0.28125 28.664062 0.28125 27.8125 C 1.578125 21.960938 5.664062 18.28125 12.464844 16.722656 C 12.054688 6.847656 25.65625 0.679688 36.832031 5.027344 C 39.492188 2.878906 43.257812 0.53125 48.707031 0.152344 Z M 48.707031 0.152344 " clip-rule="nonzero"/></clipPath><clipPath id="be5a5c6f1d"><rect x="0" width="86" y="0" height="57"/></clipPath></defs><g clip-path="url(#3fa4685a98)"><g clip-path="url(#acf76ddbb1)"><g transform="matrix(1, 0, 0, 1, 159, 263)"><g clip-path="url(#2a0cfcb79b)"><g clip-path="url(#621bf5d764)"><g clip-path="url(#3e3d6e1867)"><path fill="#38b6ff" d="M 0.101562 0.394531 L 62.933594 0.394531 L 62.933594 63.226562 L 0.101562 63.226562 Z M 0.101562 0.394531 " fill-opacity="1" fill-rule="nonzero"/></g></g></g></g></g></g><g clip-path="url(#9924127bce)"><g clip-path="url(#988d709260)"><path stroke-linecap="butt" transform="matrix(0.75, 0, 0, 0.75, 159.103163, 263.395413)" fill="none" stroke-linejoin="miter" d="M 22.997868 -0.00117581 L 60.768704 -0.00117581 C 66.867662 -0.00117581 72.716621 2.420699 77.029121 6.7332 C 81.341622 11.050908 83.763497 16.899867 83.763497 22.998826 L 83.763497 60.769662 C 83.763497 66.86862 81.341622 72.717579 77.029121 77.030079 C 72.716621 81.34258 66.867662 83.764455 60.768704 83.764455 L 22.997868 83.764455 C 16.898909 83.764455 11.04995 81.34258 6.73745 77.030079 C 2.42495 72.717579 -0.0021338 66.86862 -0.0021338 60.769662 L -0.0021338 22.998826 C -0.0021338 16.899867 2.42495 11.050908 6.73745 6.7332 C 11.04995 2.420699 16.898909 -0.00117581 22.997868 -0.00117581 Z M 22.997868 -0.00117581 " stroke="#000000" stroke-width="4" stroke-opacity="1" stroke-miterlimit="4"/></g></g><g clip-path="url(#77767f3e3f)"><g clip-path="url(#0bdd89a0b9)"><g transform="matrix(1, 0, 0, 1, 236, 263)"><g clip-path="url(#9ff6bdca20)"><g clip-path="url(#93430f49ef)"><g clip-path="url(#1f6fd9f89a)"><path fill="#38b6ff" d="M 0.871094 0.394531 L 63.703125 0.394531 L 63.703125 63.226562 L 0.871094 63.226562 Z M 0.871094 0.394531 " fill-opacity="1" fill-rule="nonzero"/></g></g></g></g></g></g><g clip-path="url(#bdf9966a5a)"><g clip-path="url(#8992aa64f6)"><path stroke-linecap="butt" transform="matrix(0.75, 0, 0, 0.75, 236.871947, 263.395413)" fill="none" stroke-linejoin="miter" d="M 22.998864 -0.00117581 L 60.7697 -0.00117581 C 66.868659 -0.00117581 72.717618 2.420699 77.030118 6.7332 C 81.342618 11.050908 83.764493 16.899867 83.764493 22.998826 L 83.764493 60.769662 C 83.764493 66.86862 81.342618 72.717579 77.030118 77.030079 C 72.717618 81.34258 66.868659 83.764455 60.7697 83.764455 L 22.998864 83.764455 C 16.899906 83.764455 11.050947 81.34258 6.733238 77.030079 C 2.420738 72.717579 -0.00113706 66.86862 -0.00113706 60.769662 L -0.00113706 22.998826 C -0.00113706 16.899867 2.420738 11.050908 6.733238 6.7332 C 11.050947 2.420699 16.899906 -0.00117581 22.998864 -0.00117581 Z M 22.998864 -0.00117581 " stroke="#000000" stroke-width="4" stroke-opacity="1" stroke-miterlimit="4"/></g></g><g clip-path="url(#ef773ec73a)"><g clip-path="url(#16252bea95)"><g transform="matrix(1, 0, 0, 1, 156, 188)"><g clip-path="url(#e97eafcde1)"><g clip-path="url(#a09497e24f)"><g clip-path="url(#f97305708b)"><path fill="#38b6ff" d="M 0.800781 0.113281 L 63.632812 0.113281 L 63.632812 62.945312 L 0.800781 62.945312 Z M 0.800781 0.113281 " fill-opacity="1" fill-rule="nonzero"/></g></g></g></g></g></g><g clip-path="url(#904f44cac5)"><g clip-path="url(#6a5e0232a6)"><path stroke-linecap="butt" transform="matrix(0.75, 0, 0, 0.75, 156.800238, 188.112292)" fill="none" stroke-linejoin="miter" d="M 22.995517 0.0013184 L 60.766353 0.0013184 C 66.865312 0.0013184 72.719479 2.423194 77.031979 6.735694 C 81.344479 11.048194 83.766355 16.897153 83.766355 22.996112 L 83.766355 60.766947 C 83.766355 66.865906 81.344479 72.714865 77.031979 77.027365 C 72.719479 81.345074 66.865312 83.766949 60.766353 83.766949 L 22.995517 83.766949 C 16.896559 83.766949 11.0476 81.345074 6.7351 77.027365 C 2.422599 72.714865 0.000724062 66.865906 0.000724062 60.766947 L 0.000724062 22.996112 C 0.000724062 16.897153 2.422599 11.048194 6.7351 6.735694 C 11.0476 2.423194 16.896559 0.0013184 22.995517 0.0013184 Z M 22.995517 0.0013184 " stroke="#000000" stroke-width="4" stroke-opacity="1" stroke-miterlimit="4"/></g></g><g clip-path="url(#fd0f9efe6e)"><g clip-path="url(#4682c401be)"><g transform="matrix(1, 0, 0, 1, 79, 188)"><g clip-path="url(#c3067a06e7)"><g clip-path="url(#4292efa24e)"><g clip-path="url(#eb9ccfc769)"><path fill="#38b6ff" d="M 0.691406 0.863281 L 63.519531 0.863281 L 63.519531 63.695312 L 0.691406 63.695312 Z M 0.691406 0.863281 " fill-opacity="1" fill-rule="nonzero"/></g></g></g></g></g></g><g clip-path="url(#c92f9e12d8)"><g clip-path="url(#f797a83e19)"><path stroke-linecap="butt" transform="matrix(0.75, 0, 0, 0.75, 79.690137, 188.862292)" fill="none" stroke-linejoin="miter" d="M 22.996486 0.00131847 L 60.767322 0.00131847 C 66.86628 0.00131847 72.715239 2.423194 77.027739 6.735694 C 81.34024 11.048194 83.767323 16.897153 83.767323 22.996112 L 83.767323 60.766947 C 83.767323 66.865906 81.34024 72.714865 77.027739 77.027365 C 72.715239 81.345074 66.86628 83.766949 60.767322 83.766949 L 22.996486 83.766949 C 16.897527 83.766949 11.048568 81.345074 6.736068 77.027365 C 2.423568 72.714865 0.00169251 66.865906 0.00169251 60.766947 L 0.00169251 22.996112 C 0.00169251 16.897153 2.423568 11.048194 6.736068 6.735694 C 11.048568 2.423194 16.897527 0.00131847 22.996486 0.00131847 Z M 22.996486 0.00131847 " stroke="#000000" stroke-width="4" stroke-opacity="1" stroke-miterlimit="4"/></g></g><g clip-path="url(#f8c69e6f23)"><g clip-path="url(#fd1bd02602)"><g transform="matrix(1, 0, 0, 1, 236, 188)"><g clip-path="url(#2320d087a2)"><g clip-path="url(#0d4d2429f1)"><g clip-path="url(#6185ca9ec7)"><path fill="#38b6ff" d="M 0.675781 0.863281 L 63.507812 0.863281 L 63.507812 63.695312 L 0.675781 63.695312 Z M 0.675781 0.863281 " fill-opacity="1" fill-rule="nonzero"/></g></g></g></g></g></g><g clip-path="url(#520d4d6b5a)"><g clip-path="url(#fcc01a7fdc)"><path stroke-linecap="butt" transform="matrix(0.75, 0, 0, 0.75, 236.677607, 188.862292)" fill="none" stroke-linejoin="miter" d="M 22.997568 0.00131847 L 60.768404 0.00131847 C 66.867362 0.00131847 72.716321 2.423194 77.028821 6.735694 C 81.341322 11.048194 83.763197 16.897153 83.763197 22.996112 L 83.763197 60.766947 C 83.763197 66.865906 81.341322 72.714865 77.028821 77.027365 C 72.716321 81.345074 66.867362 83.766949 60.768404 83.766949 L 22.997568 83.766949 C 16.898609 83.766949 11.04965 81.345074 6.73715 77.027365 C 2.42465 72.714865 -0.00243374 66.865906 -0.00243374 60.766947 L -0.00243374 22.996112 C -0.00243374 16.897153 2.42465 11.048194 6.73715 6.735694 C 11.04965 2.423194 16.898609 0.00131847 22.997568 0.00131847 Z M 22.997568 0.00131847 " stroke="#000000" stroke-width="4" stroke-opacity="1" stroke-miterlimit="4"/></g></g><g clip-path="url(#fb50e3cd2c)"><g clip-path="url(#0db936c1c8)"><g transform="matrix(1, 0, 0, 1, 79, 262)"><g clip-path="url(#0133ca045e)"><g clip-path="url(#03591300d9)"><g clip-path="url(#426fa7769d)"><path fill="#38b6ff" d="M 0.285156 0.433594 L 63.117188 0.433594 L 63.117188 63.265625 L 0.285156 63.265625 Z M 0.285156 0.433594 " fill-opacity="1" fill-rule="nonzero"/></g></g></g></g></g></g><g clip-path="url(#0ee201e2c4)"><g clip-path="url(#c7d6b1b7d2)"><path stroke-linecap="butt" transform="matrix(0.75, 0, 0, 0.75, 79.285751, 262.435178)" fill="none" stroke-linejoin="miter" d="M 22.999208 -0.00211229 L 60.770044 -0.00211229 C 66.869003 -0.00211229 72.717961 2.424971 77.030462 6.737471 C 81.342962 11.049972 83.764837 16.89893 83.764837 22.997889 L 83.764837 60.768725 C 83.764837 66.867684 81.342962 72.716642 77.030462 77.029143 C 72.717961 81.341643 66.869003 83.763518 60.770044 83.763518 L 22.999208 83.763518 C 16.900249 83.763518 11.046082 81.341643 6.733582 77.029143 C 2.421082 72.716642 -0.000793391 66.867684 -0.000793391 60.768725 L -0.000793391 22.997889 C -0.000793391 16.89893 2.421082 11.049972 6.733582 6.737471 C 11.046082 2.424971 16.900249 -0.00211229 22.999208 -0.00211229 Z M 22.999208 -0.00211229 " stroke="#000000" stroke-width="4" stroke-opacity="1" stroke-miterlimit="4"/></g></g><g clip-path="url(#b03a60e43d)"><g clip-path="url(#5f15fa1f14)"><g transform="matrix(1, 0, 0, 1, 37, 65)"><g clip-path="url(#c735b8fe05)"><g clip-path="url(#f77ca33a16)"><g clip-path="url(#d51097e329)"><path fill="#a5deff" d="M 0.5 0.00390625 L 300.519531 0.00390625 L 300.519531 100.929688 L 0.5 100.929688 Z M 0.5 0.00390625 " fill-opacity="1" fill-rule="nonzero"/></g></g></g></g></g></g><g clip-path="url(#7cf2641792)"><g clip-path="url(#d306a6c305)"><path stroke-linecap="butt" transform="matrix(0.75, 0, 0, 0.75, 37.506228, 65.002964)" fill="none" stroke-linejoin="miter" d="M 22.996906 0.00125669 L 376.986513 0.00125669 C 383.085472 0.00125669 388.93443 2.423132 393.246931 6.735632 C 397.559431 11.048132 399.981306 16.897091 399.981306 23.001258 L 399.981306 111.563764 C 399.981306 117.662723 397.559431 123.511681 393.246931 127.824182 C 388.93443 132.14189 383.085472 134.563766 376.986513 134.563766 L 22.996906 134.563766 C 16.897948 134.563766 11.048989 132.14189 6.736489 127.824182 C 2.423988 123.511681 0.00211315 117.662723 0.00211315 111.563764 L 0.00211315 23.001258 C 0.00211315 16.897091 2.423988 11.048132 6.736489 6.735632 C 11.048989 2.423132 16.897948 0.00125669 22.996906 0.00125669 Z M 22.996906 0.00125669 " stroke="#000000" stroke-width="4" stroke-opacity="1" stroke-miterlimit="4"/></g></g><g clip-path="url(#635e51d46a)"><g clip-path="url(#9c33300eae)"><g transform="matrix(1, 0, 0, 1, 139, 66)"><g clip-path="url(#ccee99f479)"><g clip-path="url(#ae325d3914)"><g clip-path="url(#3b137e7f5b)"><path fill="#ffde59" d="M 0.0273438 0.445312 L 98.066406 0.445312 L 98.066406 98.484375 L 0.0273438 98.484375 Z M 0.0273438 0.445312 " fill-opacity="1" fill-rule="nonzero"/></g></g></g></g></g></g><g clip-path="url(#f60c6a973c)"><g clip-path="url(#7d7d73091a)"><g transform="matrix(1, 0, 0, 1, 255, 72)"><g clip-path="url(#45bb0c4573)"><g clip-path="url(#4ded7f83ff)"><g clip-path="url(#d1be84285a)"><path fill="#ffffff" d="M 0.664062 0.367188 L 77.28125 0.367188 L 77.28125 50.660156 L 0.664062 50.660156 Z M 0.664062 0.367188 " fill-opacity="1" fill-rule="nonzero"/></g></g></g></g></g></g><g clip-path="url(#fc64853cf3)"><g clip-path="url(#5b4b3bdef2)"><g transform="matrix(1, 0, 0, 1, 96, 103)"><g clip-path="url(#c6f565028a)"><g clip-path="url(#9063efc00a)"><g clip-path="url(#3f240b2c43)"><path fill="#ffffff" d="M 0.917969 0.152344 L 86.1875 0.152344 L 86.1875 56.125 L 0.917969 56.125 Z M 0.917969 0.152344 " fill-opacity="1" fill-rule="nonzero"/></g></g></g></g></g></g><g clip-path="url(#43b781cb3b)"><g clip-path="url(#489a6d5009)"><g transform="matrix(1, 0, 0, 1, 213, 103)"><g clip-path="url(#be5a5c6f1d)"><g clip-path="url(#890f7ded22)"><g clip-path="url(#c5ed1d277a)"><path fill="#ffffff" d="M 0.28125 0.152344 L 85.550781 0.152344 L 85.550781 56.125 L 0.28125 56.125 Z M 0.28125 0.152344 " fill-opacity="1" fill-rule="nonzero"/></g></g></g></g></g></g><g fill="#000000" fill-opacity="1"><g transform="translate(72.005128, 130.159211)"><g><path d="M 7.796875 -0.921875 C 7.179688 -0.304688 6.445312 0 5.59375 0 C 4.738281 0 4.003906 -0.304688 3.390625 -0.921875 C 2.773438 -1.535156 2.46875 -2.269531 2.46875 -3.125 L 2.375 -41.90625 C 2.351562 -42.09375 2.34375 -42.28125 2.34375 -42.46875 C 2.34375 -42.863281 2.570312 -43.425781 3.03125 -44.15625 C 3.53125 -44.96875 4.25 -45.375 5.1875 -45.375 C 6.6875 -45.375 7.71875 -44.789062 8.28125 -43.625 L 25 -16.34375 L 40.46875 -43.65625 C 41.09375 -44.695312 41.9375 -45.21875 43 -45.21875 C 43.914062 -45.21875 44.703125 -44.921875 45.359375 -44.328125 C 46.015625 -43.734375 46.34375 -42.988281 46.34375 -42.09375 L 46.34375 -3 C 46.34375 -2.144531 46.035156 -1.410156 45.421875 -0.796875 C 44.804688 -0.179688 44.070312 0.125 43.21875 0.125 C 42.363281 0.125 41.628906 -0.179688 41.015625 -0.796875 C 40.398438 -1.410156 40.09375 -2.144531 40.09375 -3 L 40.09375 -30.9375 L 27.8125 -8.625 C 27.539062 -8.207031 27.164062 -7.835938 26.6875 -7.515625 C 26.207031 -7.191406 25.707031 -7.03125 25.1875 -7.03125 C 23.976562 -7.03125 23.050781 -7.53125 22.40625 -8.53125 L 8.625 -31.0625 L 8.71875 -3.15625 L 8.71875 -3.125 C 8.71875 -2.269531 8.410156 -1.535156 7.796875 -0.921875 Z M 7.796875 -0.921875 "/></g></g></g><g fill="#000000" fill-opacity="1"><g transform="translate(120.689652, 130.159211)"><g><path d="M 18.6875 -34.21875 C 21.019531 -34.21875 23.253906 -33.75 25.390625 -32.8125 C 27.523438 -31.875 29.351562 -30.617188 30.875 -29.046875 C 32.394531 -27.472656 33.601562 -25.609375 34.5 -23.453125 C 35.394531 -21.296875 35.84375 -19.050781 35.84375 -16.71875 C 35.84375 -13.632812 35.078125 -10.765625 33.546875 -8.109375 C 32.015625 -5.453125 29.925781 -3.335938 27.28125 -1.765625 C 24.632812 -0.191406 21.769531 0.59375 18.6875 0.59375 C 15.601562 0.59375 12.75 -0.175781 10.125 -1.71875 C 7.5 -3.257812 5.414062 -5.363281 3.875 -8.03125 C 2.332031 -10.695312 1.5625 -13.59375 1.5625 -16.71875 C 1.5625 -19.820312 2.328125 -22.71875 3.859375 -25.40625 C 5.390625 -28.09375 7.472656 -30.234375 10.109375 -31.828125 C 12.742188 -33.421875 15.601562 -34.21875 18.6875 -34.21875 Z M 7.875 -16.65625 C 7.875 -13.632812 8.941406 -11.054688 11.078125 -8.921875 C 13.210938 -6.785156 15.757812 -5.71875 18.71875 -5.71875 C 21.695312 -5.71875 24.242188 -6.804688 26.359375 -8.984375 C 28.472656 -11.160156 29.53125 -13.738281 29.53125 -16.71875 C 29.53125 -19.78125 28.484375 -22.410156 26.390625 -24.609375 C 24.296875 -26.804688 21.726562 -27.90625 18.6875 -27.90625 C 15.625 -27.90625 13.054688 -26.800781 10.984375 -24.59375 C 8.910156 -22.382812 7.875 -19.738281 7.875 -16.65625 Z M 7.875 -16.65625 "/></g></g></g><g fill="#000000" fill-opacity="1"><g transform="translate(158.062369, 130.159211)"><g><path d="M 9.21875 -29.28125 C 10.175781 -30.21875 11.035156 -30.988281 11.796875 -31.59375 C 12.554688 -32.195312 13.582031 -32.78125 14.875 -33.34375 C 16.164062 -33.90625 17.457031 -34.1875 18.75 -34.1875 C 21.3125 -34.1875 23.519531 -33.507812 25.375 -32.15625 C 27.226562 -30.800781 28.625 -29.070312 29.5625 -26.96875 C 30.5 -24.84375 30.96875 -21.9375 30.96875 -18.25 L 30.96875 -2.46875 C 30.96875 -1.613281 30.660156 -0.878906 30.046875 -0.265625 C 29.429688 0.347656 28.695312 0.65625 27.84375 0.65625 C 26.988281 0.65625 26.253906 0.347656 25.640625 -0.265625 C 25.023438 -0.878906 24.71875 -1.613281 24.71875 -2.46875 L 24.71875 -18.25 C 24.71875 -21.0625 24.425781 -23.113281 23.84375 -24.40625 C 23.382812 -25.425781 22.726562 -26.269531 21.875 -26.9375 C 21.019531 -27.601562 20 -27.9375 18.8125 -27.9375 C 15.769531 -27.9375 13.410156 -26.769531 11.734375 -24.4375 C 10.054688 -22.101562 9.226562 -18.914062 9.25 -14.875 L 9.28125 -2.40625 C 9.28125 -1.550781 8.972656 -0.816406 8.359375 -0.203125 C 7.742188 0.410156 7.007812 0.71875 6.15625 0.71875 C 5.28125 0.71875 4.539062 0.410156 3.9375 -0.203125 C 3.332031 -0.816406 3.03125 -1.5625 3.03125 -2.4375 L 2.96875 -31.15625 C 2.96875 -32.050781 3.207031 -32.796875 3.6875 -33.390625 C 4.164062 -33.984375 4.820312 -34.28125 5.65625 -34.28125 C 7.09375 -34.28125 8.101562 -33.238281 8.6875 -31.15625 Z M 9.21875 -29.28125 "/></g></g></g><g fill="#000000" fill-opacity="1"><g transform="translate(191.997795, 130.159211)"><g><path d="M 1.5625 -16.8125 C 1.5625 -19.207031 2.003906 -21.519531 2.890625 -23.75 C 3.773438 -25.976562 5.0625 -27.925781 6.75 -29.59375 C 8.269531 -31.070312 10.019531 -32.21875 12 -33.03125 C 13.976562 -33.84375 16.03125 -34.25 18.15625 -34.25 C 22.113281 -34.25 25.550781 -32.550781 28.46875 -29.15625 L 28.46875 -42.3125 C 28.46875 -43.164062 28.773438 -43.898438 29.390625 -44.515625 C 30.003906 -45.128906 30.738281 -45.4375 31.59375 -45.4375 C 32.445312 -45.4375 33.179688 -45.128906 33.796875 -44.515625 C 34.410156 -43.898438 34.71875 -43.164062 34.71875 -42.3125 L 34.71875 -2.40625 C 34.71875 -1.550781 34.410156 -0.816406 33.796875 -0.203125 C 33.179688 0.410156 32.445312 0.71875 31.59375 0.71875 C 30.070312 0.71875 29.15625 -0.320312 28.84375 -2.40625 L 28.46875 -4.9375 C 27.300781 -3.269531 25.75 -1.9375 23.8125 -0.9375 C 21.875 0.0625 19.914062 0.5625 17.9375 0.5625 C 14.875 0.5625 12.082031 -0.242188 9.5625 -1.859375 C 7.039062 -3.472656 5.078125 -5.601562 3.671875 -8.25 C 2.265625 -10.894531 1.5625 -13.75 1.5625 -16.8125 Z M 17.875 -5.6875 C 19.226562 -5.6875 20.570312 -5.984375 21.90625 -6.578125 C 23.238281 -7.171875 24.375 -7.988281 25.3125 -9.03125 C 26.25 -10.050781 26.972656 -11.265625 27.484375 -12.671875 C 27.992188 -14.078125 28.25 -15.507812 28.25 -16.96875 C 28.25 -20.03125 27.28125 -22.648438 25.34375 -24.828125 C 23.40625 -27.003906 20.96875 -28.09375 18.03125 -28.09375 C 15.15625 -28.09375 12.726562 -26.957031 10.75 -24.6875 C 8.769531 -22.414062 7.78125 -19.789062 7.78125 -16.8125 C 7.78125 -13.832031 8.753906 -11.234375 10.703125 -9.015625 C 12.648438 -6.796875 15.039062 -5.6875 17.875 -5.6875 Z M 17.875 -5.6875 "/></g></g></g><g fill="#000000" fill-opacity="1"><g transform="translate(229.839239, 130.159211)"><g><path d="M 19.46875 -34.375 C 21.65625 -34.375 23.816406 -33.75 25.953125 -32.5 C 28.085938 -31.25 29.601562 -29.84375 30.5 -28.28125 L 30.84375 -31.28125 C 30.84375 -32.15625 31.097656 -32.894531 31.609375 -33.5 C 32.117188 -34.101562 32.789062 -34.40625 33.625 -34.40625 C 34.476562 -34.40625 35.210938 -34.097656 35.828125 -33.484375 C 36.441406 -32.867188 36.75 -32.132812 36.75 -31.28125 L 36.75 -31.21875 L 36.6875 -2.28125 C 36.6875 -1.425781 36.378906 -0.691406 35.765625 -0.078125 C 35.148438 0.535156 34.414062 0.84375 33.5625 0.84375 C 32.726562 0.84375 32.054688 0.539062 31.546875 -0.0625 C 31.035156 -0.664062 30.78125 -1.40625 30.78125 -2.28125 L 30.4375 -4.78125 C 29.394531 -3.007812 27.851562 -1.648438 25.8125 -0.703125 C 23.769531 0.242188 21.632812 0.71875 19.40625 0.71875 C 16.320312 0.71875 13.46875 -0.0820312 10.84375 -1.6875 C 8.21875 -3.289062 6.144531 -5.429688 4.625 -8.109375 C 3.101562 -10.785156 2.34375 -13.664062 2.34375 -16.75 C 2.34375 -19.8125 3.082031 -22.691406 4.5625 -25.390625 C 6.039062 -28.085938 8.109375 -30.257812 10.765625 -31.90625 C 13.421875 -33.550781 16.320312 -34.375 19.46875 -34.375 Z M 30.25 -16.8125 C 30.25 -19.894531 29.207031 -22.550781 27.125 -24.78125 C 25.039062 -27.007812 22.46875 -28.125 19.40625 -28.125 C 16.382812 -28.125 13.816406 -27.003906 11.703125 -24.765625 C 9.585938 -22.523438 8.53125 -19.882812 8.53125 -16.84375 C 8.53125 -13.78125 9.597656 -11.128906 11.734375 -8.890625 C 13.867188 -6.648438 16.4375 -5.53125 19.4375 -5.53125 C 22.414062 -5.53125 24.960938 -6.648438 27.078125 -8.890625 C 29.191406 -11.128906 30.25 -13.769531 30.25 -16.8125 Z M 30.25 -16.8125 "/></g></g></g><g fill="#000000" fill-opacity="1"><g transform="translate(269.711802, 130.159211)"><g><path d="M 3.90625 -34.40625 C 4.507812 -34.40625 5.078125 -34.226562 5.609375 -33.875 C 6.140625 -33.519531 6.519531 -33.082031 6.75 -32.5625 L 17.375 -8.40625 L 26.46875 -32.34375 C 26.695312 -32.90625 27.082031 -33.375 27.625 -33.75 C 28.164062 -34.125 28.75 -34.3125 29.375 -34.3125 C 30.226562 -34.3125 30.960938 -34.003906 31.578125 -33.390625 C 32.191406 -32.773438 32.5 -32.039062 32.5 -31.1875 C 32.5 -30.75 32.414062 -30.34375 32.25 -29.96875 L 20.75 0.03125 C 20.6875 0.40625 20.507812 0.832031 20.21875 1.3125 L 18.46875 5.6875 C 18.09375 6.644531 17.765625 7.425781 17.484375 8.03125 C 17.203125 8.632812 16.785156 9.378906 16.234375 10.265625 C 15.679688 11.148438 15.070312 11.925781 14.40625 12.59375 C 13.34375 13.71875 12.070312 14.628906 10.59375 15.328125 C 9.113281 16.023438 7.601562 16.375 6.0625 16.375 C 5.1875 16.375 4.445312 16.0625 3.84375 15.4375 C 3.238281 14.8125 2.9375 14.0625 2.9375 13.1875 C 2.9375 12.351562 3.222656 11.628906 3.796875 11.015625 C 4.367188 10.398438 5.0625 10.082031 5.875 10.0625 C 7.539062 9.957031 8.878906 9.328125 9.890625 8.171875 C 10.898438 7.015625 11.832031 5.394531 12.6875 3.3125 L 14.1875 -0.5 L 1.0625 -29.9375 C 0.875 -30.375 0.78125 -30.820312 0.78125 -31.28125 C 0.78125 -32.132812 1.085938 -32.867188 1.703125 -33.484375 C 2.316406 -34.097656 3.050781 -34.40625 3.90625 -34.40625 Z M 3.90625 -34.40625 "/></g></g></g><g fill="#000000" fill-opacity="1"><g transform="translate(170.048181, 231.893306)"><g><path d="M 16.671875 -28.296875 C 16.796875 -28.679688 17.046875 -29.003906 17.421875 -29.265625 C 17.796875 -29.523438 18.195312 -29.65625 18.625 -29.65625 C 19.070312 -29.65625 19.476562 -29.515625 19.84375 -29.234375 C 20.207031 -28.953125 20.445312 -28.613281 20.5625 -28.21875 L 26.859375 -8.15625 L 32.46875 -27.453125 C 32.570312 -28.046875 32.8125 -28.546875 33.1875 -28.953125 C 33.5625 -29.367188 33.984375 -29.578125 34.453125 -29.578125 C 35.023438 -29.578125 35.507812 -29.328125 35.90625 -28.828125 C 36.300781 -28.335938 36.5 -27.757812 36.5 -27.09375 C 36.5 -26.820312 36.46875 -26.582031 36.40625 -26.375 L 28.953125 -1.09375 C 28.828125 -0.675781 28.582031 -0.332031 28.21875 -0.0625 C 27.851562 0.195312 27.453125 0.328125 27.015625 0.328125 C 26.585938 0.328125 26.179688 0.203125 25.796875 -0.046875 C 25.410156 -0.304688 25.160156 -0.632812 25.046875 -1.03125 L 18.5625 -19.625 L 11.703125 -0.40625 C 11.210938 0.0820312 10.566406 0.328125 9.765625 0.328125 C 9.328125 0.328125 8.914062 0.195312 8.53125 -0.0625 C 8.144531 -0.332031 7.890625 -0.675781 7.765625 -1.09375 L 0.59375 -26.109375 C 0.539062 -26.328125 0.515625 -26.566406 0.515625 -26.828125 C 0.515625 -27.492188 0.710938 -28.070312 1.109375 -28.5625 C 1.503906 -29.0625 1.988281 -29.3125 2.5625 -29.3125 C 3.03125 -29.3125 3.453125 -29.097656 3.828125 -28.671875 C 4.203125 -28.242188 4.441406 -27.738281 4.546875 -27.15625 L 9.953125 -8.046875 Z M 16.671875 -28.296875 "/></g></g></g><g fill="#000000" fill-opacity="1"><g transform="translate(86.727157, 232.643306)"><g><path d="M 1.109375 -25.84375 C 0.710938 -26.25 0.515625 -26.734375 0.515625 -27.296875 C 0.515625 -27.859375 0.710938 -28.335938 1.109375 -28.734375 C 1.515625 -29.140625 2 -29.34375 2.5625 -29.34375 L 2.578125 -29.34375 L 23.078125 -29.46875 L 23.109375 -29.46875 C 23.671875 -29.46875 24.148438 -29.265625 24.546875 -28.859375 C 24.953125 -28.460938 25.15625 -27.984375 25.15625 -27.421875 C 25.15625 -26.859375 24.953125 -26.375 24.546875 -25.96875 C 24.148438 -25.570312 23.671875 -25.375 23.109375 -25.375 L 23.09375 -25.375 L 14.9375 -25.328125 L 14.828125 -1.78125 L 14.828125 -1.765625 C 14.828125 -1.210938 14.625 -0.738281 14.21875 -0.34375 C 13.820312 0.0507812 13.34375 0.25 12.78125 0.25 C 12.21875 0.25 11.734375 0.0507812 11.328125 -0.34375 C 10.921875 -0.738281 10.71875 -1.210938 10.71875 -1.765625 L 10.71875 -1.8125 L 10.828125 -25.3125 L 2.578125 -25.25 L 2.5625 -25.25 C 2 -25.25 1.515625 -25.445312 1.109375 -25.84375 Z M 1.109375 -25.84375 "/></g></g><g transform="translate(112.382429, 232.643306)"><g><path d="M 16.25 -2.765625 C 15.613281 -2.148438 15.046875 -1.644531 14.546875 -1.25 C 14.054688 -0.851562 13.382812 -0.46875 12.53125 -0.09375 C 11.6875 0.269531 10.835938 0.453125 9.984375 0.453125 C 8.304688 0.453125 6.859375 0.0078125 5.640625 -0.875 C 4.421875 -1.769531 3.503906 -2.90625 2.890625 -4.28125 C 2.273438 -5.675781 1.96875 -7.582031 1.96875 -10 L 1.96875 -20.359375 C 1.96875 -20.921875 2.171875 -21.40625 2.578125 -21.8125 C 2.984375 -22.21875 3.460938 -22.421875 4.015625 -22.421875 C 4.578125 -22.421875 5.0625 -22.21875 5.46875 -21.8125 C 5.875 -21.40625 6.078125 -20.921875 6.078125 -20.359375 L 6.078125 -10 C 6.078125 -8.15625 6.269531 -6.8125 6.65625 -5.96875 C 6.945312 -5.300781 7.375 -4.75 7.9375 -4.3125 C 8.5 -3.875 9.171875 -3.65625 9.953125 -3.65625 C 11.941406 -3.65625 13.488281 -4.421875 14.59375 -5.953125 C 15.695312 -7.484375 16.238281 -9.570312 16.21875 -12.21875 L 16.203125 -20.40625 C 16.203125 -20.96875 16.40625 -21.445312 16.8125 -21.84375 C 17.21875 -22.25 17.695312 -22.453125 18.25 -22.453125 C 18.832031 -22.453125 19.320312 -22.25 19.71875 -21.84375 C 20.113281 -21.445312 20.3125 -20.960938 20.3125 -20.390625 L 20.34375 -1.53125 C 20.34375 -0.945312 20.1875 -0.457031 19.875 -0.0625 C 19.5625 0.320312 19.128906 0.515625 18.578125 0.515625 C 17.640625 0.515625 16.976562 -0.164062 16.59375 -1.53125 Z M 16.25 -2.765625 "/></g></g></g><g fill="#000000" fill-opacity="1"><g transform="translate(244.254759, 232.643306)"><g><path d="M 1.109375 -25.84375 C 0.710938 -26.25 0.515625 -26.734375 0.515625 -27.296875 C 0.515625 -27.859375 0.710938 -28.335938 1.109375 -28.734375 C 1.515625 -29.140625 2 -29.34375 2.5625 -29.34375 L 2.578125 -29.34375 L 23.078125 -29.46875 L 23.109375 -29.46875 C 23.671875 -29.46875 24.148438 -29.265625 24.546875 -28.859375 C 24.953125 -28.460938 25.15625 -27.984375 25.15625 -27.421875 C 25.15625 -26.859375 24.953125 -26.375 24.546875 -25.96875 C 24.148438 -25.570312 23.671875 -25.375 23.109375 -25.375 L 23.09375 -25.375 L 14.9375 -25.328125 L 14.828125 -1.78125 L 14.828125 -1.765625 C 14.828125 -1.210938 14.625 -0.738281 14.21875 -0.34375 C 13.820312 0.0507812 13.34375 0.25 12.78125 0.25 C 12.21875 0.25 11.734375 0.0507812 11.328125 -0.34375 C 10.921875 -0.738281 10.71875 -1.210938 10.71875 -1.765625 L 10.71875 -1.8125 L 10.828125 -25.3125 L 2.578125 -25.25 L 2.5625 -25.25 C 2 -25.25 1.515625 -25.445312 1.109375 -25.84375 Z M 1.109375 -25.84375 "/></g></g><g transform="translate(269.91003, 232.643306)"><g><path d="M 1.953125 -27.9375 C 1.953125 -28.476562 2.148438 -28.941406 2.546875 -29.328125 C 2.941406 -29.722656 3.425781 -29.921875 4 -29.921875 C 4.5625 -29.921875 5.039062 -29.722656 5.4375 -29.328125 C 5.84375 -28.941406 6.046875 -28.476562 6.046875 -27.9375 L 6.046875 -18.984375 C 6.554688 -20.054688 7.296875 -20.898438 8.265625 -21.515625 C 9.242188 -22.128906 10.226562 -22.4375 11.21875 -22.4375 C 14.320312 -22.4375 16.632812 -21.507812 18.15625 -19.65625 C 19.6875 -17.800781 20.453125 -15.273438 20.453125 -12.078125 L 20.453125 -11.890625 L 20.421875 -1.53125 L 20.421875 -1.515625 C 20.421875 -0.972656 20.21875 -0.503906 19.8125 -0.109375 C 19.414062 0.273438 18.9375 0.46875 18.375 0.46875 C 17.8125 0.46875 17.328125 0.273438 16.921875 -0.109375 C 16.523438 -0.503906 16.328125 -0.972656 16.328125 -1.515625 L 16.328125 -1.53125 L 16.34375 -11.796875 L 16.34375 -11.828125 C 16.34375 -14.054688 15.96875 -15.691406 15.21875 -16.734375 C 14.476562 -17.785156 13.144531 -18.3125 11.21875 -18.3125 C 9.550781 -18.3125 8.28125 -17.726562 7.40625 -16.5625 C 6.53125 -15.40625 6.09375 -13.863281 6.09375 -11.9375 L 6.09375 -1.5 C 6.09375 -0.945312 5.890625 -0.472656 5.484375 -0.078125 C 5.078125 0.304688 4.597656 0.5 4.046875 0.5 C 3.453125 0.5 2.953125 0.300781 2.546875 -0.09375 C 2.148438 -0.5 1.953125 -0.96875 1.953125 -1.5 Z M 1.953125 -27.9375 "/></g></g></g><g fill="#000000" fill-opacity="1"><g transform="translate(100.725158, 307.176659)"><g><path d="M 1.53125 -27.40625 C 1.53125 -27.945312 1.734375 -28.414062 2.140625 -28.8125 C 2.546875 -29.207031 3.03125 -29.40625 3.59375 -29.40625 L 20.296875 -29.421875 L 20.328125 -29.421875 C 20.890625 -29.421875 21.367188 -29.21875 21.765625 -28.8125 C 22.171875 -28.414062 22.375 -27.9375 22.375 -27.375 C 22.375 -26.8125 22.171875 -26.328125 21.765625 -25.921875 C 21.367188 -25.523438 20.890625 -25.328125 20.328125 -25.328125 L 20.296875 -25.328125 L 5.640625 -25.3125 L 5.65625 -17.84375 L 16.34375 -17.9375 L 16.578125 -17.9375 C 17.078125 -17.9375 17.507812 -17.726562 17.875 -17.3125 C 18.238281 -16.894531 18.421875 -16.460938 18.421875 -16.015625 C 18.421875 -15.410156 18.226562 -14.894531 17.84375 -14.46875 C 17.457031 -14.050781 16.960938 -13.84375 16.359375 -13.84375 L 5.6875 -13.734375 L 5.703125 -1.8125 L 5.703125 -1.765625 C 5.703125 -1.210938 5.5 -0.738281 5.09375 -0.34375 C 4.6875 0.0507812 4.203125 0.25 3.640625 0.25 C 3.085938 0.25 2.609375 0.0507812 2.203125 -0.34375 C 1.796875 -0.738281 1.59375 -1.210938 1.59375 -1.765625 L 1.59375 -1.78125 Z M 1.53125 -27.40625 "/></g></g></g><g fill="#000000" fill-opacity="1"><g transform="translate(163.509413, 307.176659)"><g><path d="M 14.03125 -29.796875 C 16.363281 -29.796875 18.5 -29.210938 20.4375 -28.046875 C 22.375 -26.890625 23.75 -25.375 24.5625 -23.5 C 24.6875 -23.226562 24.75 -22.945312 24.75 -22.65625 C 24.75 -22.101562 24.546875 -21.625 24.140625 -21.21875 C 23.742188 -20.8125 23.265625 -20.609375 22.703125 -20.609375 C 22.335938 -20.609375 21.960938 -20.726562 21.578125 -20.96875 C 21.203125 -21.207031 20.945312 -21.5 20.8125 -21.84375 C 20.289062 -23.03125 19.425781 -23.96875 18.21875 -24.65625 C 17.007812 -25.351562 15.613281 -25.703125 14.03125 -25.703125 C 13.21875 -25.703125 12.382812 -25.601562 11.53125 -25.40625 C 10.675781 -25.207031 9.867188 -24.914062 9.109375 -24.53125 C 8.359375 -24.15625 7.738281 -23.660156 7.25 -23.046875 C 6.757812 -22.429688 6.515625 -21.753906 6.515625 -21.015625 C 6.515625 -20.429688 6.707031 -19.90625 7.09375 -19.4375 C 7.476562 -18.976562 7.953125 -18.601562 8.515625 -18.3125 C 9.515625 -17.8125 10.773438 -17.421875 12.296875 -17.140625 C 13.816406 -16.867188 15.375 -16.597656 16.96875 -16.328125 C 18.570312 -16.066406 19.898438 -15.710938 20.953125 -15.265625 C 22.335938 -14.660156 23.488281 -13.800781 24.40625 -12.6875 C 25.320312 -11.570312 25.78125 -10.210938 25.78125 -8.609375 C 25.78125 -7.453125 25.535156 -6.367188 25.046875 -5.359375 C 24.566406 -4.359375 23.925781 -3.507812 23.125 -2.8125 C 22.332031 -2.113281 21.421875 -1.515625 20.390625 -1.015625 C 19.359375 -0.515625 18.300781 -0.148438 17.21875 0.078125 C 16.132812 0.316406 15.054688 0.4375 13.984375 0.4375 C 11.304688 0.4375 8.90625 -0.191406 6.78125 -1.453125 C 4.664062 -2.710938 3.148438 -4.398438 2.234375 -6.515625 C 2.109375 -6.796875 2.046875 -7.070312 2.046875 -7.34375 C 2.046875 -7.90625 2.25 -8.382812 2.65625 -8.78125 C 3.0625 -9.1875 3.546875 -9.390625 4.109375 -9.390625 C 4.484375 -9.390625 4.851562 -9.265625 5.21875 -9.015625 C 5.59375 -8.773438 5.847656 -8.484375 5.984375 -8.140625 C 6.578125 -6.765625 7.59375 -5.675781 9.03125 -4.875 C 10.476562 -4.070312 12.128906 -3.671875 13.984375 -3.671875 C 15.210938 -3.671875 16.390625 -3.835938 17.515625 -4.171875 C 18.648438 -4.503906 19.625 -5.0625 20.4375 -5.84375 C 21.25 -6.625 21.65625 -7.546875 21.65625 -8.609375 C 21.65625 -9.265625 21.429688 -9.832031 20.984375 -10.3125 C 20.546875 -10.800781 20 -11.191406 19.34375 -11.484375 C 18.269531 -11.929688 16.929688 -12.289062 15.328125 -12.5625 C 13.734375 -12.832031 12.160156 -13.109375 10.609375 -13.390625 C 9.054688 -13.679688 7.742188 -14.097656 6.671875 -14.640625 C 5.429688 -15.253906 4.410156 -16.09375 3.609375 -17.15625 C 2.804688 -18.226562 2.40625 -19.515625 2.40625 -21.015625 C 2.40625 -22.109375 2.632812 -23.132812 3.09375 -24.09375 C 3.550781 -25.0625 4.164062 -25.890625 4.9375 -26.578125 C 5.707031 -27.265625 6.59375 -27.851562 7.59375 -28.34375 C 8.601562 -28.832031 9.65625 -29.195312 10.75 -29.4375 C 11.84375 -29.675781 12.9375 -29.796875 14.03125 -29.796875 Z M 14.03125 -29.796875 "/></g></g><g transform="translate(191.338512, 307.176659)"><g><path d="M 12.78125 -22.5625 C 14.21875 -22.5625 15.632812 -22.148438 17.03125 -21.328125 C 18.4375 -20.503906 19.429688 -19.582031 20.015625 -18.5625 L 20.234375 -20.53125 C 20.234375 -21.101562 20.398438 -21.585938 20.734375 -21.984375 C 21.078125 -22.378906 21.519531 -22.578125 22.0625 -22.578125 C 22.625 -22.578125 23.109375 -22.375 23.515625 -21.96875 C 23.921875 -21.570312 24.125 -21.09375 24.125 -20.53125 L 24.125 -20.484375 L 24.078125 -1.5 C 24.078125 -0.9375 23.875 -0.453125 23.46875 -0.046875 C 23.0625 0.347656 22.582031 0.546875 22.03125 0.546875 C 21.476562 0.546875 21.035156 0.347656 20.703125 -0.046875 C 20.367188 -0.441406 20.203125 -0.925781 20.203125 -1.5 L 19.96875 -3.140625 C 19.289062 -1.972656 18.28125 -1.078125 16.9375 -0.453125 C 15.601562 0.160156 14.203125 0.46875 12.734375 0.46875 C 10.710938 0.46875 8.835938 -0.0546875 7.109375 -1.109375 C 5.390625 -2.160156 4.03125 -3.5625 3.03125 -5.3125 C 2.03125 -7.070312 1.53125 -8.96875 1.53125 -11 C 1.53125 -13 2.015625 -14.882812 2.984375 -16.65625 C 3.960938 -18.425781 5.320312 -19.851562 7.0625 -20.9375 C 8.8125 -22.019531 10.71875 -22.5625 12.78125 -22.5625 Z M 19.859375 -11.03125 C 19.859375 -13.050781 19.171875 -14.789062 17.796875 -16.25 C 16.429688 -17.71875 14.742188 -18.453125 12.734375 -18.453125 C 10.753906 -18.453125 9.066406 -17.71875 7.671875 -16.25 C 6.285156 -14.78125 5.59375 -13.046875 5.59375 -11.046875 C 5.59375 -9.046875 6.289062 -7.304688 7.6875 -5.828125 C 9.09375 -4.359375 10.78125 -3.625 12.75 -3.625 C 14.707031 -3.625 16.378906 -4.359375 17.765625 -5.828125 C 19.160156 -7.304688 19.859375 -9.039062 19.859375 -11.03125 Z M 19.859375 -11.03125 "/></g></g></g><g fill="#000000" fill-opacity="1"><g transform="translate(243.417834, 307.176659)"><g><path d="M 14.03125 -29.796875 C 16.363281 -29.796875 18.5 -29.210938 20.4375 -28.046875 C 22.375 -26.890625 23.75 -25.375 24.5625 -23.5 C 24.6875 -23.226562 24.75 -22.945312 24.75 -22.65625 C 24.75 -22.101562 24.546875 -21.625 24.140625 -21.21875 C 23.742188 -20.8125 23.265625 -20.609375 22.703125 -20.609375 C 22.335938 -20.609375 21.960938 -20.726562 21.578125 -20.96875 C 21.203125 -21.207031 20.945312 -21.5 20.8125 -21.84375 C 20.289062 -23.03125 19.425781 -23.96875 18.21875 -24.65625 C 17.007812 -25.351562 15.613281 -25.703125 14.03125 -25.703125 C 13.21875 -25.703125 12.382812 -25.601562 11.53125 -25.40625 C 10.675781 -25.207031 9.867188 -24.914062 9.109375 -24.53125 C 8.359375 -24.15625 7.738281 -23.660156 7.25 -23.046875 C 6.757812 -22.429688 6.515625 -21.753906 6.515625 -21.015625 C 6.515625 -20.429688 6.707031 -19.90625 7.09375 -19.4375 C 7.476562 -18.976562 7.953125 -18.601562 8.515625 -18.3125 C 9.515625 -17.8125 10.773438 -17.421875 12.296875 -17.140625 C 13.816406 -16.867188 15.375 -16.597656 16.96875 -16.328125 C 18.570312 -16.066406 19.898438 -15.710938 20.953125 -15.265625 C 22.335938 -14.660156 23.488281 -13.800781 24.40625 -12.6875 C 25.320312 -11.570312 25.78125 -10.210938 25.78125 -8.609375 C 25.78125 -7.453125 25.535156 -6.367188 25.046875 -5.359375 C 24.566406 -4.359375 23.925781 -3.507812 23.125 -2.8125 C 22.332031 -2.113281 21.421875 -1.515625 20.390625 -1.015625 C 19.359375 -0.515625 18.300781 -0.148438 17.21875 0.078125 C 16.132812 0.316406 15.054688 0.4375 13.984375 0.4375 C 11.304688 0.4375 8.90625 -0.191406 6.78125 -1.453125 C 4.664062 -2.710938 3.148438 -4.398438 2.234375 -6.515625 C 2.109375 -6.796875 2.046875 -7.070312 2.046875 -7.34375 C 2.046875 -7.90625 2.25 -8.382812 2.65625 -8.78125 C 3.0625 -9.1875 3.546875 -9.390625 4.109375 -9.390625 C 4.484375 -9.390625 4.851562 -9.265625 5.21875 -9.015625 C 5.59375 -8.773438 5.847656 -8.484375 5.984375 -8.140625 C 6.578125 -6.765625 7.59375 -5.675781 9.03125 -4.875 C 10.476562 -4.070312 12.128906 -3.671875 13.984375 -3.671875 C 15.210938 -3.671875 16.390625 -3.835938 17.515625 -4.171875 C 18.648438 -4.503906 19.625 -5.0625 20.4375 -5.84375 C 21.25 -6.625 21.65625 -7.546875 21.65625 -8.609375 C 21.65625 -9.265625 21.429688 -9.832031 20.984375 -10.3125 C 20.546875 -10.800781 20 -11.191406 19.34375 -11.484375 C 18.269531 -11.929688 16.929688 -12.289062 15.328125 -12.5625 C 13.734375 -12.832031 12.160156 -13.109375 10.609375 -13.390625 C 9.054688 -13.679688 7.742188 -14.097656 6.671875 -14.640625 C 5.429688 -15.253906 4.410156 -16.09375 3.609375 -17.15625 C 2.804688 -18.226562 2.40625 -19.515625 2.40625 -21.015625 C 2.40625 -22.109375 2.632812 -23.132812 3.09375 -24.09375 C 3.550781 -25.0625 4.164062 -25.890625 4.9375 -26.578125 C 5.707031 -27.265625 6.59375 -27.851562 7.59375 -28.34375 C 8.601562 -28.832031 9.65625 -29.195312 10.75 -29.4375 C 11.84375 -29.675781 12.9375 -29.796875 14.03125 -29.796875 Z M 14.03125 -29.796875 "/></g></g><g transform="translate(271.246934, 307.176659)"><g><path d="M 16.25 -2.765625 C 15.613281 -2.148438 15.046875 -1.644531 14.546875 -1.25 C 14.054688 -0.851562 13.382812 -0.46875 12.53125 -0.09375 C 11.6875 0.269531 10.835938 0.453125 9.984375 0.453125 C 8.304688 0.453125 6.859375 0.0078125 5.640625 -0.875 C 4.421875 -1.769531 3.503906 -2.90625 2.890625 -4.28125 C 2.273438 -5.675781 1.96875 -7.582031 1.96875 -10 L 1.96875 -20.359375 C 1.96875 -20.921875 2.171875 -21.40625 2.578125 -21.8125 C 2.984375 -22.21875 3.460938 -22.421875 4.015625 -22.421875 C 4.578125 -22.421875 5.0625 -22.21875 5.46875 -21.8125 C 5.875 -21.40625 6.078125 -20.921875 6.078125 -20.359375 L 6.078125 -10 C 6.078125 -8.15625 6.269531 -6.8125 6.65625 -5.96875 C 6.945312 -5.300781 7.375 -4.75 7.9375 -4.3125 C 8.5 -3.875 9.171875 -3.65625 9.953125 -3.65625 C 11.941406 -3.65625 13.488281 -4.421875 14.59375 -5.953125 C 15.695312 -7.484375 16.238281 -9.570312 16.21875 -12.21875 L 16.203125 -20.40625 C 16.203125 -20.96875 16.40625 -21.445312 16.8125 -21.84375 C 17.21875 -22.25 17.695312 -22.453125 18.25 -22.453125 C 18.832031 -22.453125 19.320312 -22.25 19.71875 -21.84375 C 20.113281 -21.445312 20.3125 -20.960938 20.3125 -20.390625 L 20.34375 -1.53125 C 20.34375 -0.945312 20.1875 -0.457031 19.875 -0.0625 C 19.5625 0.320312 19.128906 0.515625 18.578125 0.515625 C 17.640625 0.515625 16.976562 -0.164062 16.59375 -1.53125 Z M 16.25 -2.765625 "/></g></g></g></svg>