<svg xmlns="http://www.w3.org/2000/svg" xmlns:xlink="http://www.w3.org/1999/xlink" width="1080" zoomAndPan="magnify" viewBox="0 0 810 809.999993" height="1080" preserveAspectRatio="xMidYMid meet" version="1.0"><defs><g/><clipPath id="096a1562a9"><path d="M 51.394531 62.722656 L 758.605469 62.722656 L 758.605469 769.9375 L 51.394531 769.9375 Z M 51.394531 62.722656 " clip-rule="nonzero"/></clipPath><clipPath id="8284bc07be"><path d="M 126.394531 62.722656 L 683.605469 62.722656 C 725.027344 62.722656 758.605469 96.300781 758.605469 137.722656 L 758.605469 694.9375 C 758.605469 736.359375 725.027344 769.9375 683.605469 769.9375 L 126.394531 769.9375 C 84.972656 769.9375 51.394531 736.359375 51.394531 694.9375 L 51.394531 137.722656 C 51.394531 96.300781 84.972656 62.722656 126.394531 62.722656 Z M 126.394531 62.722656 " clip-rule="nonzero"/></clipPath><clipPath id="7a5cb8d4f8"><path d="M 0.394531 0.722656 L 707.605469 0.722656 L 707.605469 707.9375 L 0.394531 707.9375 Z M 0.394531 0.722656 " clip-rule="nonzero"/></clipPath><clipPath id="7df63dff9f"><path d="M 75.394531 0.722656 L 632.605469 0.722656 C 674.027344 0.722656 707.605469 34.300781 707.605469 75.722656 L 707.605469 632.9375 C 707.605469 674.359375 674.027344 707.9375 632.605469 707.9375 L 75.394531 707.9375 C 33.972656 707.9375 0.394531 674.359375 0.394531 632.9375 L 0.394531 75.722656 C 0.394531 34.300781 33.972656 0.722656 75.394531 0.722656 Z M 75.394531 0.722656 " clip-rule="nonzero"/></clipPath><clipPath id="26ac7b84c8"><rect x="0" width="708" y="0" height="708"/></clipPath><clipPath id="3d47fa05e7"><path d="M 51.394531 62.722656 L 758.640625 62.722656 L 758.640625 769.972656 L 51.394531 769.972656 Z M 51.394531 62.722656 " clip-rule="nonzero"/></clipPath><clipPath id="c52d22a358"><path d="M 126.390625 62.722656 L 683.597656 62.722656 C 725.019531 62.722656 758.59375 96.300781 758.59375 137.722656 L 758.59375 694.929688 C 758.59375 736.347656 725.019531 769.925781 683.597656 769.925781 L 126.390625 769.925781 C 84.96875 769.925781 51.394531 736.347656 51.394531 694.929688 L 51.394531 137.722656 C 51.394531 96.300781 84.96875 62.722656 126.390625 62.722656 Z M 126.390625 62.722656 " clip-rule="nonzero"/></clipPath><clipPath id="c4ff32b23c"><path d="M 47.328125 60.808594 L 763.578125 60.808594 L 763.578125 775.558594 L 47.328125 775.558594 Z M 47.328125 60.808594 " clip-rule="nonzero"/></clipPath><clipPath id="324faef278"><path d="M 122.328125 60.808594 L 688.25 60.808594 C 729.671875 60.808594 763.25 94.386719 763.25 135.804688 L 763.25 700.558594 C 763.25 741.980469 729.671875 775.558594 688.25 775.558594 L 122.328125 775.558594 C 80.90625 775.558594 47.328125 741.980469 47.328125 700.558594 L 47.328125 135.804688 C 47.328125 94.386719 80.90625 60.808594 122.328125 60.808594 Z M 122.328125 60.808594 " clip-rule="nonzero"/></clipPath><clipPath id="3df358685c"><path d="M 88.839844 103.125 L 722 103.125 L 722 729.539062 L 88.839844 729.539062 Z M 88.839844 103.125 " clip-rule="nonzero"/></clipPath><clipPath id="760f058ca6"><path d="M 127.089844 103.125 L 682.910156 103.125 C 693.054688 103.125 702.785156 107.152344 709.957031 114.328125 C 717.132812 121.5 721.160156 131.230469 721.160156 141.375 L 721.160156 691.289062 C 721.160156 701.433594 717.132812 711.160156 709.957031 718.335938 C 702.785156 725.507812 693.054688 729.539062 682.910156 729.539062 L 127.089844 729.539062 C 116.945312 729.539062 107.214844 725.507812 100.042969 718.335938 C 92.867188 711.160156 88.839844 701.433594 88.839844 691.289062 L 88.839844 141.375 C 88.839844 131.230469 92.867188 121.5 100.042969 114.328125 C 107.214844 107.152344 116.945312 103.125 127.089844 103.125 Z M 127.089844 103.125 " clip-rule="nonzero"/></clipPath><clipPath id="00b3bcc428"><path d="M 0.839844 0.125 L 633 0.125 L 633 626.539062 L 0.839844 626.539062 Z M 0.839844 0.125 " clip-rule="nonzero"/></clipPath><clipPath id="306bce86d8"><path d="M 39.089844 0.125 L 594.910156 0.125 C 605.054688 0.125 614.785156 4.152344 621.957031 11.328125 C 629.132812 18.5 633.160156 28.230469 633.160156 38.375 L 633.160156 588.289062 C 633.160156 598.433594 629.132812 608.160156 621.957031 615.335938 C 614.785156 622.507812 605.054688 626.539062 594.910156 626.539062 L 39.089844 626.539062 C 28.945312 626.539062 19.214844 622.507812 12.042969 615.335938 C 4.867188 608.160156 0.839844 598.433594 0.839844 588.289062 L 0.839844 38.375 C 0.839844 28.230469 4.867188 18.5 12.042969 11.328125 C 19.214844 4.152344 28.945312 0.125 39.089844 0.125 Z M 39.089844 0.125 " clip-rule="nonzero"/></clipPath><clipPath id="2bf5357474"><rect x="0" width="634" y="0" height="627"/></clipPath><clipPath id="57ce3b137d"><path d="M 88.839844 103.125 L 721.089844 103.125 L 721.089844 729.375 L 88.839844 729.375 Z M 88.839844 103.125 " clip-rule="nonzero"/></clipPath><clipPath id="89e8872d19"><path d="M 127.089844 103.125 L 682.910156 103.125 C 693.054688 103.125 702.78125 107.15625 709.957031 114.328125 C 717.128906 121.5 721.160156 131.230469 721.160156 141.375 L 721.160156 691.285156 C 721.160156 701.429688 717.128906 711.160156 709.957031 718.332031 C 702.78125 725.507812 693.054688 729.535156 682.910156 729.535156 L 127.089844 729.535156 C 116.945312 729.535156 107.214844 725.507812 100.042969 718.332031 C 92.867188 711.160156 88.839844 701.429688 88.839844 691.285156 L 88.839844 141.375 C 88.839844 131.230469 92.867188 121.5 100.042969 114.328125 C 107.214844 107.15625 116.945312 103.125 127.089844 103.125 Z M 127.089844 103.125 " clip-rule="nonzero"/></clipPath><clipPath id="b328191d5b"><path d="M 200.855469 395.710938 L 323.453125 395.710938 L 323.453125 518.308594 L 200.855469 518.308594 Z M 200.855469 395.710938 " clip-rule="nonzero"/></clipPath><clipPath id="c376acf985"><path d="M 238.355469 395.710938 L 285.953125 395.710938 C 306.664062 395.710938 323.453125 412.5 323.453125 433.210938 L 323.453125 480.808594 C 323.453125 501.519531 306.664062 518.308594 285.953125 518.308594 L 238.355469 518.308594 C 217.644531 518.308594 200.855469 501.519531 200.855469 480.808594 L 200.855469 433.210938 C 200.855469 412.5 217.644531 395.710938 238.355469 395.710938 Z M 238.355469 395.710938 " clip-rule="nonzero"/></clipPath><clipPath id="226bd10379"><path d="M 0.855469 0.710938 L 123.453125 0.710938 L 123.453125 123.308594 L 0.855469 123.308594 Z M 0.855469 0.710938 " clip-rule="nonzero"/></clipPath><clipPath id="491b97f54a"><path d="M 38.355469 0.710938 L 85.953125 0.710938 C 106.664062 0.710938 123.453125 17.5 123.453125 38.210938 L 123.453125 85.808594 C 123.453125 106.519531 106.664062 123.308594 85.953125 123.308594 L 38.355469 123.308594 C 17.644531 123.308594 0.855469 106.519531 0.855469 85.808594 L 0.855469 38.210938 C 0.855469 17.5 17.644531 0.710938 38.355469 0.710938 Z M 38.355469 0.710938 " clip-rule="nonzero"/></clipPath><clipPath id="3f2635fdf9"><rect x="0" width="124" y="0" height="124"/></clipPath><clipPath id="c68b94a4fc"><path d="M 200.855469 395.710938 L 323.105469 395.710938 L 323.105469 517.960938 L 200.855469 517.960938 Z M 200.855469 395.710938 " clip-rule="nonzero"/></clipPath><clipPath id="a362b6f036"><path d="M 238.351562 395.710938 L 285.945312 395.710938 C 306.65625 395.710938 323.445312 412.5 323.445312 433.210938 L 323.445312 480.804688 C 323.445312 501.511719 306.65625 518.300781 285.945312 518.300781 L 238.351562 518.300781 C 217.644531 518.300781 200.855469 501.511719 200.855469 480.804688 L 200.855469 433.210938 C 200.855469 412.5 217.644531 395.710938 238.351562 395.710938 Z M 238.351562 395.710938 " clip-rule="nonzero"/></clipPath><clipPath id="47f3b20995"><path d="M 343.703125 395.035156 L 466.296875 395.035156 L 466.296875 517.632812 L 343.703125 517.632812 Z M 343.703125 395.035156 " clip-rule="nonzero"/></clipPath><clipPath id="835b137192"><path d="M 381.203125 395.035156 L 428.796875 395.035156 C 449.507812 395.035156 466.296875 411.824219 466.296875 432.535156 L 466.296875 480.132812 C 466.296875 500.84375 449.507812 517.632812 428.796875 517.632812 L 381.203125 517.632812 C 360.492188 517.632812 343.703125 500.84375 343.703125 480.132812 L 343.703125 432.535156 C 343.703125 411.824219 360.492188 395.035156 381.203125 395.035156 Z M 381.203125 395.035156 " clip-rule="nonzero"/></clipPath><clipPath id="ff2e0a47d6"><path d="M 0.703125 0.0351562 L 123.296875 0.0351562 L 123.296875 122.632812 L 0.703125 122.632812 Z M 0.703125 0.0351562 " clip-rule="nonzero"/></clipPath><clipPath id="51fd7807ad"><path d="M 38.203125 0.0351562 L 85.796875 0.0351562 C 106.507812 0.0351562 123.296875 16.824219 123.296875 37.535156 L 123.296875 85.132812 C 123.296875 105.84375 106.507812 122.632812 85.796875 122.632812 L 38.203125 122.632812 C 17.492188 122.632812 0.703125 105.84375 0.703125 85.132812 L 0.703125 37.535156 C 0.703125 16.824219 17.492188 0.0351562 38.203125 0.0351562 Z M 38.203125 0.0351562 " clip-rule="nonzero"/></clipPath><clipPath id="736e280e4a"><rect x="0" width="124" y="0" height="123"/></clipPath><clipPath id="cd76b91b09"><path d="M 343.703125 395.035156 L 465.953125 395.035156 L 465.953125 517.285156 L 343.703125 517.285156 Z M 343.703125 395.035156 " clip-rule="nonzero"/></clipPath><clipPath id="8ef3a55a18"><path d="M 381.199219 395.035156 L 428.792969 395.035156 C 449.503906 395.035156 466.292969 411.824219 466.292969 432.535156 L 466.292969 480.128906 C 466.292969 500.839844 449.503906 517.625 428.792969 517.625 L 381.199219 517.625 C 360.488281 517.625 343.703125 500.839844 343.703125 480.128906 L 343.703125 432.535156 C 343.703125 411.824219 360.488281 395.035156 381.199219 395.035156 Z M 381.199219 395.035156 " clip-rule="nonzero"/></clipPath><clipPath id="3220fa2c0f"><path d="M 486.652344 395.710938 L 609.25 395.710938 L 609.25 518.308594 L 486.652344 518.308594 Z M 486.652344 395.710938 " clip-rule="nonzero"/></clipPath><clipPath id="644e85b707"><path d="M 524.152344 395.710938 L 571.75 395.710938 C 592.460938 395.710938 609.25 412.5 609.25 433.210938 L 609.25 480.808594 C 609.25 501.519531 592.460938 518.308594 571.75 518.308594 L 524.152344 518.308594 C 503.441406 518.308594 486.652344 501.519531 486.652344 480.808594 L 486.652344 433.210938 C 486.652344 412.5 503.441406 395.710938 524.152344 395.710938 Z M 524.152344 395.710938 " clip-rule="nonzero"/></clipPath><clipPath id="668f37eb6c"><path d="M 0.652344 0.710938 L 123.25 0.710938 L 123.25 123.308594 L 0.652344 123.308594 Z M 0.652344 0.710938 " clip-rule="nonzero"/></clipPath><clipPath id="2ced6f9148"><path d="M 38.152344 0.710938 L 85.75 0.710938 C 106.460938 0.710938 123.25 17.5 123.25 38.210938 L 123.25 85.808594 C 123.25 106.519531 106.460938 123.308594 85.75 123.308594 L 38.152344 123.308594 C 17.441406 123.308594 0.652344 106.519531 0.652344 85.808594 L 0.652344 38.210938 C 0.652344 17.5 17.441406 0.710938 38.152344 0.710938 Z M 38.152344 0.710938 " clip-rule="nonzero"/></clipPath><clipPath id="f15ec772f1"><rect x="0" width="124" y="0" height="124"/></clipPath><clipPath id="d681b33068"><path d="M 486.652344 395.710938 L 608.902344 395.710938 L 608.902344 517.960938 L 486.652344 517.960938 Z M 486.652344 395.710938 " clip-rule="nonzero"/></clipPath><clipPath id="cd7d0ca0c1"><path d="M 524.152344 395.710938 L 571.746094 395.710938 C 592.453125 395.710938 609.242188 412.5 609.242188 433.210938 L 609.242188 480.804688 C 609.242188 501.511719 592.453125 518.300781 571.746094 518.300781 L 524.152344 518.300781 C 503.441406 518.300781 486.652344 501.511719 486.652344 480.804688 L 486.652344 433.210938 C 486.652344 412.5 503.441406 395.710938 524.152344 395.710938 Z M 524.152344 395.710938 " clip-rule="nonzero"/></clipPath><clipPath id="b3eac29131"><path d="M 133.722656 161.515625 L 689 161.515625 L 689 362.785156 L 133.722656 362.785156 Z M 133.722656 161.515625 " clip-rule="nonzero"/></clipPath><clipPath id="a758a1ef69"><path d="M 189.972656 161.515625 L 632.644531 161.515625 C 663.710938 161.515625 688.894531 186.699219 688.894531 217.765625 L 688.894531 306.535156 C 688.894531 337.601562 663.710938 362.785156 632.644531 362.785156 L 189.972656 362.785156 C 158.90625 362.785156 133.722656 337.601562 133.722656 306.535156 L 133.722656 217.765625 C 133.722656 186.699219 158.90625 161.515625 189.972656 161.515625 Z M 189.972656 161.515625 " clip-rule="nonzero"/></clipPath><clipPath id="64626074b7"><path d="M 0.722656 0.515625 L 556 0.515625 L 556 201.785156 L 0.722656 201.785156 Z M 0.722656 0.515625 " clip-rule="nonzero"/></clipPath><clipPath id="3c3205f9cd"><path d="M 56.972656 0.515625 L 499.644531 0.515625 C 530.710938 0.515625 555.894531 25.699219 555.894531 56.765625 L 555.894531 145.535156 C 555.894531 176.601562 530.710938 201.785156 499.644531 201.785156 L 56.972656 201.785156 C 25.90625 201.785156 0.722656 176.601562 0.722656 145.535156 L 0.722656 56.765625 C 0.722656 25.699219 25.90625 0.515625 56.972656 0.515625 Z M 56.972656 0.515625 " clip-rule="nonzero"/></clipPath><clipPath id="905b732fd6"><rect x="0" width="556" y="0" height="202"/></clipPath><clipPath id="a9e5f76bad"><path d="M 133.722656 161.515625 L 688.722656 161.515625 L 688.722656 362.515625 L 133.722656 362.515625 Z M 133.722656 161.515625 " clip-rule="nonzero"/></clipPath><clipPath id="64cf91f906"><path d="M 189.972656 161.515625 L 632.636719 161.515625 C 663.703125 161.515625 688.886719 186.699219 688.886719 217.765625 L 688.886719 306.535156 C 688.886719 337.601562 663.703125 362.785156 632.636719 362.785156 L 189.972656 362.785156 C 158.90625 362.785156 133.722656 337.601562 133.722656 306.535156 L 133.722656 217.765625 C 133.722656 186.699219 158.90625 161.515625 189.972656 161.515625 Z M 189.972656 161.515625 " clip-rule="nonzero"/></clipPath><clipPath id="8d8625d34a"><path d="M 303.132812 176.289062 L 474.855469 176.289062 L 474.855469 348.011719 L 303.132812 348.011719 Z M 303.132812 176.289062 " clip-rule="nonzero"/></clipPath><clipPath id="8c6e065f6e"><path d="M 388.996094 176.289062 C 341.574219 176.289062 303.132812 214.730469 303.132812 262.152344 C 303.132812 309.570312 341.574219 348.011719 388.996094 348.011719 C 436.414062 348.011719 474.855469 309.570312 474.855469 262.152344 C 474.855469 214.730469 436.414062 176.289062 388.996094 176.289062 Z M 388.996094 176.289062 " clip-rule="nonzero"/></clipPath><clipPath id="14e04a47d5"><path d="M 0.132812 0.289062 L 171.855469 0.289062 L 171.855469 172.011719 L 0.132812 172.011719 Z M 0.132812 0.289062 " clip-rule="nonzero"/></clipPath><clipPath id="1b03c937fe"><path d="M 85.996094 0.289062 C 38.574219 0.289062 0.132812 38.730469 0.132812 86.152344 C 0.132812 133.570312 38.574219 172.011719 85.996094 172.011719 C 133.414062 172.011719 171.855469 133.570312 171.855469 86.152344 C 171.855469 38.730469 133.414062 0.289062 85.996094 0.289062 Z M 85.996094 0.289062 " clip-rule="nonzero"/></clipPath><clipPath id="e1277d368f"><rect x="0" width="172" y="0" height="173"/></clipPath><clipPath id="580de74012"><path d="M 193.171875 192.769531 L 342.414062 192.769531 L 342.414062 290.484375 L 193.171875 290.484375 Z M 193.171875 192.769531 " clip-rule="nonzero"/></clipPath><clipPath id="d0fbf9b511"><path d="M 277.710938 192.769531 C 279.34375 192.769531 280.988281 192.769531 282.617188 192.769531 C 295.613281 194.402344 303.734375 199.832031 307.433594 208.722656 C 329.097656 207.535156 344.851562 224.347656 335.25 240.84375 C 338.445312 244.308594 341.105469 248.1875 342.070312 253.390625 C 342.070312 254.882812 342.070312 256.371094 342.070312 257.859375 C 339.203125 271.105469 326.867188 280.058594 306.621094 277.648438 C 301.410156 284.449219 292.140625 291.257812 277.714844 290.410156 C 270.257812 289.964844 265.070312 287.378906 260.53125 284.238281 C 255.746094 286.847656 250.566406 288.898438 243.078125 288.921875 C 225.761719 288.957031 214.175781 278.898438 213.894531 265.09375 C 202.761719 261.867188 195.222656 255.839844 193.171875 245.527344 C 193.171875 244.035156 193.171875 242.542969 193.171875 241.058594 C 195.4375 230.839844 202.566406 224.417969 214.4375 221.699219 C 213.726562 204.460938 237.472656 193.6875 256.980469 201.28125 C 261.628906 197.527344 268.199219 193.429688 277.710938 192.769531 Z M 277.710938 192.769531 " clip-rule="nonzero"/></clipPath><clipPath id="7dffac33b2"><path d="M 0.171875 0.769531 L 149.414062 0.769531 L 149.414062 98.484375 L 0.171875 98.484375 Z M 0.171875 0.769531 " clip-rule="nonzero"/></clipPath><clipPath id="816bdad595"><path d="M 84.710938 0.769531 C 86.34375 0.769531 87.988281 0.769531 89.617188 0.769531 C 102.613281 2.402344 110.734375 7.832031 114.433594 16.722656 C 136.097656 15.535156 151.851562 32.347656 142.25 48.84375 C 145.445312 52.308594 148.105469 56.1875 149.070312 61.390625 C 149.070312 62.882812 149.070312 64.371094 149.070312 65.859375 C 146.203125 79.105469 133.867188 88.058594 113.621094 85.648438 C 108.410156 92.449219 99.140625 99.257812 84.714844 98.410156 C 77.257812 97.964844 72.070312 95.378906 67.53125 92.238281 C 62.746094 94.847656 57.566406 96.898438 50.078125 96.921875 C 32.761719 96.957031 21.175781 86.898438 20.894531 73.09375 C 9.761719 69.867188 2.222656 63.839844 0.171875 53.527344 C 0.171875 52.035156 0.171875 50.542969 0.171875 49.058594 C 2.4375 38.839844 9.566406 32.417969 21.4375 29.699219 C 20.726562 12.460938 44.472656 1.6875 63.980469 9.28125 C 68.628906 5.527344 75.199219 1.429688 84.710938 0.769531 Z M 84.710938 0.769531 " clip-rule="nonzero"/></clipPath><clipPath id="0550e18d03"><rect x="0" width="150" y="0" height="99"/></clipPath><clipPath id="7abc06b5b2"><path d="M 378.277344 192.769531 L 527.523438 192.769531 L 527.523438 290.484375 L 378.277344 290.484375 Z M 378.277344 192.769531 " clip-rule="nonzero"/></clipPath><clipPath id="a84368797a"><path d="M 462.820312 192.769531 C 464.453125 192.769531 466.097656 192.769531 467.726562 192.769531 C 480.722656 194.402344 488.84375 199.832031 492.542969 208.722656 C 514.207031 207.535156 529.960938 224.347656 520.359375 240.84375 C 523.550781 244.308594 526.214844 248.1875 527.175781 253.390625 C 527.175781 254.882812 527.175781 256.371094 527.175781 257.859375 C 524.3125 271.105469 511.976562 280.058594 491.726562 277.648438 C 486.519531 284.449219 477.25 291.257812 462.824219 290.410156 C 455.367188 289.964844 450.179688 287.378906 445.636719 284.238281 C 440.855469 286.847656 435.671875 288.898438 428.1875 288.921875 C 410.871094 288.957031 399.285156 278.898438 399.003906 265.09375 C 387.871094 261.867188 380.332031 255.839844 378.277344 245.527344 C 378.277344 244.035156 378.277344 242.542969 378.277344 241.058594 C 380.542969 230.839844 387.675781 224.417969 399.546875 221.699219 C 398.832031 204.460938 422.582031 193.6875 442.089844 201.28125 C 446.734375 197.527344 453.308594 193.429688 462.820312 192.769531 Z M 462.820312 192.769531 " clip-rule="nonzero"/></clipPath><clipPath id="8817e9af52"><path d="M 0.277344 0.769531 L 149.523438 0.769531 L 149.523438 98.484375 L 0.277344 98.484375 Z M 0.277344 0.769531 " clip-rule="nonzero"/></clipPath><clipPath id="36d00a32b9"><path d="M 84.820312 0.769531 C 86.453125 0.769531 88.097656 0.769531 89.726562 0.769531 C 102.722656 2.402344 110.84375 7.832031 114.542969 16.722656 C 136.207031 15.535156 151.960938 32.347656 142.359375 48.84375 C 145.550781 52.308594 148.214844 56.1875 149.175781 61.390625 C 149.175781 62.882812 149.175781 64.371094 149.175781 65.859375 C 146.3125 79.105469 133.976562 88.058594 113.726562 85.648438 C 108.519531 92.449219 99.25 99.257812 84.824219 98.410156 C 77.367188 97.964844 72.179688 95.378906 67.636719 92.238281 C 62.855469 94.847656 57.671875 96.898438 50.1875 96.921875 C 32.871094 96.957031 21.285156 86.898438 21.003906 73.09375 C 9.871094 69.867188 2.332031 63.839844 0.277344 53.527344 C 0.277344 52.035156 0.277344 50.542969 0.277344 49.058594 C 2.542969 38.839844 9.675781 32.417969 21.546875 29.699219 C 20.832031 12.460938 44.582031 1.6875 64.089844 9.28125 C 68.734375 5.527344 75.308594 1.429688 84.820312 0.769531 Z M 84.820312 0.769531 " clip-rule="nonzero"/></clipPath><clipPath id="4663e7abe9"><rect x="0" width="150" y="0" height="99"/></clipPath><clipPath id="6dc8efe5c7"><path d="M 463.777344 233.820312 L 613 233.820312 L 613 331.53125 L 463.777344 331.53125 Z M 463.777344 233.820312 " clip-rule="nonzero"/></clipPath><clipPath id="a1c2dbb7da"><path d="M 548.320312 233.820312 C 549.953125 233.820312 551.59375 233.820312 553.226562 233.820312 C 566.21875 235.449219 574.339844 240.882812 578.039062 249.773438 C 599.707031 248.585938 615.457031 265.394531 605.859375 281.894531 C 609.050781 285.359375 611.714844 289.238281 612.675781 294.441406 C 612.675781 295.933594 612.675781 297.417969 612.675781 298.910156 C 609.808594 312.15625 597.476562 321.105469 577.226562 318.699219 C 572.015625 325.5 562.746094 332.308594 548.320312 331.460938 C 540.867188 331.015625 535.679688 328.429688 531.136719 325.285156 C 526.351562 327.898438 521.171875 329.949219 513.6875 329.972656 C 496.367188 330.007812 484.785156 319.949219 484.503906 306.144531 C 473.371094 302.917969 465.832031 296.890625 463.777344 286.578125 C 463.777344 285.085938 463.777344 283.59375 463.777344 282.109375 C 466.042969 271.890625 473.171875 265.46875 485.046875 262.75 C 484.332031 245.507812 508.078125 234.738281 527.589844 242.332031 C 532.234375 238.578125 538.804688 234.480469 548.320312 233.820312 Z M 548.320312 233.820312 " clip-rule="nonzero"/></clipPath><clipPath id="32cc5a7e9a"><path d="M 0.777344 0.820312 L 150 0.820312 L 150 98.53125 L 0.777344 98.53125 Z M 0.777344 0.820312 " clip-rule="nonzero"/></clipPath><clipPath id="3dcb766ad9"><path d="M 85.320312 0.820312 C 86.953125 0.820312 88.59375 0.820312 90.226562 0.820312 C 103.21875 2.449219 111.339844 7.882812 115.039062 16.773438 C 136.707031 15.585938 152.457031 32.394531 142.859375 48.894531 C 146.050781 52.359375 148.714844 56.238281 149.675781 61.441406 C 149.675781 62.933594 149.675781 64.417969 149.675781 65.910156 C 146.808594 79.15625 134.476562 88.105469 114.226562 85.699219 C 109.015625 92.5 99.746094 99.308594 85.320312 98.460938 C 77.867188 98.015625 72.679688 95.429688 68.136719 92.285156 C 63.351562 94.898438 58.171875 96.949219 50.6875 96.972656 C 33.367188 97.007812 21.785156 86.949219 21.503906 73.144531 C 10.371094 69.917969 2.832031 63.890625 0.777344 53.578125 C 0.777344 52.085938 0.777344 50.59375 0.777344 49.109375 C 3.042969 38.890625 10.171875 32.46875 22.046875 29.75 C 21.332031 12.507812 45.078125 1.738281 64.589844 9.332031 C 69.234375 5.578125 75.804688 1.480469 85.320312 0.820312 Z M 85.320312 0.820312 " clip-rule="nonzero"/></clipPath><clipPath id="93feab6d49"><rect x="0" width="150" y="0" height="99"/></clipPath><clipPath id="067587befd"><path d="M 343.703125 549.882812 L 466.296875 549.882812 L 466.296875 672.480469 L 343.703125 672.480469 Z M 343.703125 549.882812 " clip-rule="nonzero"/></clipPath><clipPath id="c876bec399"><path d="M 381.203125 549.882812 L 428.796875 549.882812 C 449.507812 549.882812 466.296875 566.671875 466.296875 587.382812 L 466.296875 634.980469 C 466.296875 655.691406 449.507812 672.480469 428.796875 672.480469 L 381.203125 672.480469 C 360.492188 672.480469 343.703125 655.691406 343.703125 634.980469 L 343.703125 587.382812 C 343.703125 566.671875 360.492188 549.882812 381.203125 549.882812 Z M 381.203125 549.882812 " clip-rule="nonzero"/></clipPath><clipPath id="71d48c7a78"><path d="M 0.703125 0.882812 L 123.296875 0.882812 L 123.296875 123.480469 L 0.703125 123.480469 Z M 0.703125 0.882812 " clip-rule="nonzero"/></clipPath><clipPath id="3db6f7cccf"><path d="M 38.203125 0.882812 L 85.796875 0.882812 C 106.507812 0.882812 123.296875 17.671875 123.296875 38.382812 L 123.296875 85.980469 C 123.296875 106.691406 106.507812 123.480469 85.796875 123.480469 L 38.203125 123.480469 C 17.492188 123.480469 0.703125 106.691406 0.703125 85.980469 L 0.703125 38.382812 C 0.703125 17.671875 17.492188 0.882812 38.203125 0.882812 Z M 38.203125 0.882812 " clip-rule="nonzero"/></clipPath><clipPath id="91a1f39e2f"><rect x="0" width="124" y="0" height="124"/></clipPath><clipPath id="64518681ef"><path d="M 343.703125 549.882812 L 465.953125 549.882812 L 465.953125 672.132812 L 343.703125 672.132812 Z M 343.703125 549.882812 " clip-rule="nonzero"/></clipPath><clipPath id="2dbd368f47"><path d="M 381.199219 549.882812 L 428.792969 549.882812 C 449.503906 549.882812 466.292969 566.671875 466.292969 587.382812 L 466.292969 634.976562 C 466.292969 655.683594 449.503906 672.472656 428.792969 672.472656 L 381.199219 672.472656 C 360.488281 672.472656 343.703125 655.683594 343.703125 634.976562 L 343.703125 587.382812 C 343.703125 566.671875 360.488281 549.882812 381.199219 549.882812 Z M 381.199219 549.882812 " clip-rule="nonzero"/></clipPath><clipPath id="f763ebd64b"><path d="M 200.75 549.882812 L 323.347656 549.882812 L 323.347656 672.480469 L 200.75 672.480469 Z M 200.75 549.882812 " clip-rule="nonzero"/></clipPath><clipPath id="926dda613a"><path d="M 238.25 549.882812 L 285.847656 549.882812 C 306.558594 549.882812 323.347656 566.671875 323.347656 587.382812 L 323.347656 634.980469 C 323.347656 655.691406 306.558594 672.480469 285.847656 672.480469 L 238.25 672.480469 C 217.539062 672.480469 200.75 655.691406 200.75 634.980469 L 200.75 587.382812 C 200.75 566.671875 217.539062 549.882812 238.25 549.882812 Z M 238.25 549.882812 " clip-rule="nonzero"/></clipPath><clipPath id="f8d0cae9a4"><path d="M 0.75 0.882812 L 123.347656 0.882812 L 123.347656 123.480469 L 0.75 123.480469 Z M 0.75 0.882812 " clip-rule="nonzero"/></clipPath><clipPath id="0a7a6ba9cd"><path d="M 38.25 0.882812 L 85.847656 0.882812 C 106.558594 0.882812 123.347656 17.671875 123.347656 38.382812 L 123.347656 85.980469 C 123.347656 106.691406 106.558594 123.480469 85.847656 123.480469 L 38.25 123.480469 C 17.539062 123.480469 0.75 106.691406 0.75 85.980469 L 0.75 38.382812 C 0.75 17.671875 17.539062 0.882812 38.25 0.882812 Z M 38.25 0.882812 " clip-rule="nonzero"/></clipPath><clipPath id="c933e3a467"><rect x="0" width="124" y="0" height="124"/></clipPath><clipPath id="ccf8e6e2b7"><path d="M 200.75 549.882812 L 323 549.882812 L 323 672.132812 L 200.75 672.132812 Z M 200.75 549.882812 " clip-rule="nonzero"/></clipPath><clipPath id="211a3e8817"><path d="M 238.246094 549.882812 L 285.84375 549.882812 C 306.550781 549.882812 323.339844 566.671875 323.339844 587.382812 L 323.339844 634.976562 C 323.339844 655.683594 306.550781 672.472656 285.84375 672.472656 L 238.246094 672.472656 C 217.539062 672.472656 200.75 655.683594 200.75 634.976562 L 200.75 587.382812 C 200.75 566.671875 217.539062 549.882812 238.246094 549.882812 Z M 238.246094 549.882812 " clip-rule="nonzero"/></clipPath><clipPath id="cd3f21639e"><path d="M 486.652344 549.882812 L 609.25 549.882812 L 609.25 672.480469 L 486.652344 672.480469 Z M 486.652344 549.882812 " clip-rule="nonzero"/></clipPath><clipPath id="1a40385526"><path d="M 524.152344 549.882812 L 571.75 549.882812 C 592.460938 549.882812 609.25 566.671875 609.25 587.382812 L 609.25 634.980469 C 609.25 655.691406 592.460938 672.480469 571.75 672.480469 L 524.152344 672.480469 C 503.441406 672.480469 486.652344 655.691406 486.652344 634.980469 L 486.652344 587.382812 C 486.652344 566.671875 503.441406 549.882812 524.152344 549.882812 Z M 524.152344 549.882812 " clip-rule="nonzero"/></clipPath><clipPath id="0e37a904bf"><path d="M 0.652344 0.882812 L 123.25 0.882812 L 123.25 123.480469 L 0.652344 123.480469 Z M 0.652344 0.882812 " clip-rule="nonzero"/></clipPath><clipPath id="b3070dffb6"><path d="M 38.152344 0.882812 L 85.75 0.882812 C 106.460938 0.882812 123.25 17.671875 123.25 38.382812 L 123.25 85.980469 C 123.25 106.691406 106.460938 123.480469 85.75 123.480469 L 38.152344 123.480469 C 17.441406 123.480469 0.652344 106.691406 0.652344 85.980469 L 0.652344 38.382812 C 0.652344 17.671875 17.441406 0.882812 38.152344 0.882812 Z M 38.152344 0.882812 " clip-rule="nonzero"/></clipPath><clipPath id="8b60d8118e"><rect x="0" width="124" y="0" height="124"/></clipPath><clipPath id="f262640805"><path d="M 486.652344 549.882812 L 608.902344 549.882812 L 608.902344 672.132812 L 486.652344 672.132812 Z M 486.652344 549.882812 " clip-rule="nonzero"/></clipPath><clipPath id="329c5478c2"><path d="M 524.152344 549.882812 L 571.746094 549.882812 C 592.453125 549.882812 609.242188 566.671875 609.242188 587.382812 L 609.242188 634.976562 C 609.242188 655.683594 592.453125 672.472656 571.746094 672.472656 L 524.152344 672.472656 C 503.441406 672.472656 486.652344 655.683594 486.652344 634.976562 L 486.652344 587.382812 C 486.652344 566.671875 503.441406 549.882812 524.152344 549.882812 Z M 524.152344 549.882812 " clip-rule="nonzero"/></clipPath></defs><g clip-path="url(#096a1562a9)"><g clip-path="url(#8284bc07be)"><g transform="matrix(1, 0, 0, 1, 51, 62)"><g clip-path="url(#26ac7b84c8)"><g clip-path="url(#7a5cb8d4f8)"><g clip-path="url(#7df63dff9f)"><path fill="#ffffff" d="M 0.394531 0.722656 L 707.605469 0.722656 L 707.605469 707.9375 L 0.394531 707.9375 Z M 0.394531 0.722656 " fill-opacity="1" fill-rule="nonzero"/></g></g></g></g></g></g><g clip-path="url(#3d47fa05e7)"><g clip-path="url(#c52d22a358)"><path stroke-linecap="butt" transform="matrix(0.75, 0, 0, 0.75, 51.3926, 62.723842)" fill="none" stroke-linejoin="miter" d="M 99.997372 -0.00158053 L 842.940117 -0.00158053 C 898.169287 -0.00158053 942.934914 44.769255 942.934914 99.998425 L 942.934914 842.94117 C 942.934914 898.165131 898.169287 942.935967 842.940117 942.935967 L 99.997372 942.935967 C 44.768202 942.935967 0.00257485 898.165131 0.00257485 842.94117 L 0.00257485 99.998425 C 0.00257485 44.769255 44.768202 -0.00158053 99.997372 -0.00158053 Z M 99.997372 -0.00158053 " stroke="#67c7ff" stroke-width="120" stroke-opacity="1" stroke-miterlimit="4"/></g></g><g clip-path="url(#c4ff32b23c)"><g clip-path="url(#324faef278)"><path stroke-linecap="butt" transform="matrix(0.75, 0, 0, 0.75, 47.329535, 60.807387)" fill="none" stroke-linejoin="miter" d="M 99.998119 0.00160961 L 854.560609 0.00160961 C 909.789775 0.00160961 954.560607 44.772442 954.560607 99.9964 L 954.560607 853.001598 C 954.560607 908.230764 909.789775 953.001597 854.560609 953.001597 L 99.998119 953.001597 C 44.768953 953.001597 -0.00187963 908.230764 -0.00187963 853.001598 L -0.00187963 99.9964 C -0.00187963 44.772442 44.768953 0.00160961 99.998119 0.00160961 Z M 99.998119 0.00160961 " stroke="#000000" stroke-width="20" stroke-opacity="1" stroke-miterlimit="4"/></g></g><g clip-path="url(#3df358685c)"><g clip-path="url(#760f058ca6)"><g transform="matrix(1, 0, 0, 1, 88, 103)"><g clip-path="url(#2bf5357474)"><g clip-path="url(#00b3bcc428)"><g clip-path="url(#306bce86d8)"><path fill="#ffffff" d="M 0.839844 0.125 L 632.148438 0.125 L 632.148438 626.539062 L 0.839844 626.539062 Z M 0.839844 0.125 " fill-opacity="1" fill-rule="nonzero"/></g></g></g></g></g></g><g clip-path="url(#57ce3b137d)"><g clip-path="url(#89e8872d19)"><path stroke-linecap="butt" transform="matrix(0.75, 0, 0, 0.75, 88.838181, 103.125483)" fill="none" stroke-linejoin="miter" d="M 51.00222 -0.000643749 L 792.096007 -0.000643749 C 805.62205 -0.000643749 818.5908 5.374357 828.158509 14.936857 C 837.72101 24.499357 843.09601 37.473316 843.09601 50.999359 L 843.09601 784.212937 C 843.09601 797.73898 837.72101 810.712939 828.158509 820.275439 C 818.5908 829.843148 805.62205 835.21294 792.096007 835.21294 L 51.00222 835.21294 C 37.476178 835.21294 24.502219 829.843148 14.939718 820.275439 C 5.372009 810.712939 0.00221749 797.73898 0.00221749 784.212937 L 0.00221749 50.999359 C 0.00221749 37.473316 5.372009 24.499357 14.939718 14.936857 C 24.502219 5.374357 37.476178 -0.000643749 51.00222 -0.000643749 Z M 51.00222 -0.000643749 " stroke="#000000" stroke-width="20" stroke-opacity="1" stroke-miterlimit="4"/></g></g><g clip-path="url(#b328191d5b)"><g clip-path="url(#c376acf985)"><g transform="matrix(1, 0, 0, 1, 200, 395)"><g clip-path="url(#3f2635fdf9)"><g clip-path="url(#226bd10379)"><g clip-path="url(#491b97f54a)"><path fill="#67c7ff" d="M 0.855469 0.710938 L 123.453125 0.710938 L 123.453125 123.308594 L 0.855469 123.308594 Z M 0.855469 0.710938 " fill-opacity="1" fill-rule="nonzero"/></g></g></g></g></g></g><g clip-path="url(#c68b94a4fc)"><g clip-path="url(#a362b6f036)"><path stroke-linecap="butt" transform="matrix(0.75, 0, 0, 0.75, 200.855134, 395.711102)" fill="none" stroke-linejoin="miter" d="M 49.995237 -0.00021999 L 113.45357 -0.00021999 C 141.068152 -0.00021999 163.453569 22.385196 163.453569 49.999779 L 163.453569 113.458112 C 163.453569 141.067486 141.068152 163.452903 113.45357 163.452903 L 49.995237 163.452903 C 22.385862 163.452903 0.000446073 141.067486 0.000446073 113.458112 L 0.000446073 49.999779 C 0.000446073 22.385196 22.385862 -0.00021999 49.995237 -0.00021999 Z M 49.995237 -0.00021999 " stroke="#000000" stroke-width="20" stroke-opacity="1" stroke-miterlimit="4"/></g></g><g clip-path="url(#47f3b20995)"><g clip-path="url(#835b137192)"><g transform="matrix(1, 0, 0, 1, 343, 395)"><g clip-path="url(#736e280e4a)"><g clip-path="url(#ff2e0a47d6)"><g clip-path="url(#51fd7807ad)"><path fill="#67c7ff" d="M 0.703125 0.0351562 L 123.296875 0.0351562 L 123.296875 122.632812 L 0.703125 122.632812 Z M 0.703125 0.0351562 " fill-opacity="1" fill-rule="nonzero"/></g></g></g></g></g></g><g clip-path="url(#cd76b91b09)"><g clip-path="url(#8ef3a55a18)"><path stroke-linecap="butt" transform="matrix(0.75, 0, 0, 0.75, 343.701694, 395.036484)" fill="none" stroke-linejoin="miter" d="M 49.996699 -0.0017705 L 113.455031 -0.0017705 C 141.069614 -0.0017705 163.45503 22.383646 163.45503 49.998229 L 163.45503 113.456561 C 163.45503 141.071144 141.069614 163.451352 113.455031 163.451352 L 49.996699 163.451352 C 22.382116 163.451352 0.00190772 141.071144 0.00190772 113.456561 L 0.00190772 49.998229 C 0.00190772 22.383646 22.382116 -0.0017705 49.996699 -0.0017705 Z M 49.996699 -0.0017705 " stroke="#000000" stroke-width="20" stroke-opacity="1" stroke-miterlimit="4"/></g></g><g clip-path="url(#3220fa2c0f)"><g clip-path="url(#644e85b707)"><g transform="matrix(1, 0, 0, 1, 486, 395)"><g clip-path="url(#f15ec772f1)"><g clip-path="url(#668f37eb6c)"><g clip-path="url(#2ced6f9148)"><path fill="#67c7ff" d="M 0.652344 0.710938 L 123.25 0.710938 L 123.25 123.308594 L 0.652344 123.308594 Z M 0.652344 0.710938 " fill-opacity="1" fill-rule="nonzero"/></g></g></g></g></g></g><g clip-path="url(#d681b33068)"><g clip-path="url(#cd7d0ca0c1)"><path stroke-linecap="butt" transform="matrix(0.75, 0, 0, 0.75, 486.653451, 395.711102)" fill="none" stroke-linejoin="miter" d="M 49.998523 -0.00021999 L 113.456855 -0.00021999 C 141.06623 -0.00021999 163.451646 22.385196 163.451646 49.999779 L 163.451646 113.458112 C 163.451646 141.067486 141.06623 163.452903 113.456855 163.452903 L 49.998523 163.452903 C 22.38394 163.452903 -0.00147636 141.067486 -0.00147636 113.458112 L -0.00147636 49.999779 C -0.00147636 22.385196 22.38394 -0.00021999 49.998523 -0.00021999 Z M 49.998523 -0.00021999 " stroke="#000000" stroke-width="20" stroke-opacity="1" stroke-miterlimit="4"/></g></g><g clip-path="url(#b3eac29131)"><g clip-path="url(#a758a1ef69)"><g transform="matrix(1, 0, 0, 1, 133, 161)"><g clip-path="url(#905b732fd6)"><g clip-path="url(#64626074b7)"><g clip-path="url(#3c3205f9cd)"><path fill="#d7f0ff" d="M 0.722656 0.515625 L 555.792969 0.515625 L 555.792969 201.785156 L 0.722656 201.785156 Z M 0.722656 0.515625 " fill-opacity="1" fill-rule="nonzero"/></g></g></g></g></g></g><g clip-path="url(#a9e5f76bad)"><g clip-path="url(#64cf91f906)"><path stroke-linecap="butt" transform="matrix(0.75, 0, 0, 0.75, 133.723077, 161.515325)" fill="none" stroke-linejoin="miter" d="M 74.999443 0.000400434 L 665.218223 0.000400434 C 706.6401 0.000400434 740.218227 33.578527 740.218227 75.000404 L 740.218227 193.359785 C 740.218227 234.781662 706.6401 268.359789 665.218223 268.359789 L 74.999443 268.359789 C 33.577566 268.359789 -0.000560697 234.781662 -0.000560697 193.359785 L -0.000560697 75.000404 C -0.000560697 33.578527 33.577566 0.000400434 74.999443 0.000400434 Z M 74.999443 0.000400434 " stroke="#000000" stroke-width="20" stroke-opacity="1" stroke-miterlimit="4"/></g></g><g clip-path="url(#8d8625d34a)"><g clip-path="url(#8c6e065f6e)"><g transform="matrix(1, 0, 0, 1, 303, 176)"><g clip-path="url(#e1277d368f)"><g clip-path="url(#14e04a47d5)"><g clip-path="url(#1b03c937fe)"><path fill="#ffe372" d="M 0.132812 0.289062 L 171.855469 0.289062 L 171.855469 172.011719 L 0.132812 172.011719 Z M 0.132812 0.289062 " fill-opacity="1" fill-rule="nonzero"/></g></g></g></g></g></g><g clip-path="url(#580de74012)"><g clip-path="url(#d0fbf9b511)"><g transform="matrix(1, 0, 0, 1, 193, 192)"><g clip-path="url(#0550e18d03)"><g clip-path="url(#7dffac33b2)"><g clip-path="url(#816bdad595)"><path fill="#ffffff" d="M 0.171875 0.769531 L 149.03125 0.769531 L 149.03125 98.484375 L 0.171875 98.484375 Z M 0.171875 0.769531 " fill-opacity="1" fill-rule="nonzero"/></g></g></g></g></g></g><g clip-path="url(#7abc06b5b2)"><g clip-path="url(#a84368797a)"><g transform="matrix(1, 0, 0, 1, 378, 192)"><g clip-path="url(#4663e7abe9)"><g clip-path="url(#8817e9af52)"><g clip-path="url(#36d00a32b9)"><path fill="#ffffff" d="M 0.277344 0.769531 L 149.140625 0.769531 L 149.140625 98.484375 L 0.277344 98.484375 Z M 0.277344 0.769531 " fill-opacity="1" fill-rule="nonzero"/></g></g></g></g></g></g><g clip-path="url(#6dc8efe5c7)"><g clip-path="url(#a1c2dbb7da)"><g transform="matrix(1, 0, 0, 1, 463, 233)"><g clip-path="url(#93feab6d49)"><g clip-path="url(#32cc5a7e9a)"><g clip-path="url(#3dcb766ad9)"><path fill="#ffffff" d="M 0.777344 0.820312 L 149.640625 0.820312 L 149.640625 98.53125 L 0.777344 98.53125 Z M 0.777344 0.820312 " fill-opacity="1" fill-rule="nonzero"/></g></g></g></g></g></g><g fill="#000000" fill-opacity="1"><g transform="translate(164.589986, 300.214531)"><g><path d="M 87.59375 0 L 87.484375 -59.25 L 58.078125 -9.875 L 52.734375 -9.875 L 23.34375 -58.90625 L 23.34375 0 L 12.203125 0 L 12.203125 -81.3125 L 21.71875 -81.3125 L 55.640625 -24.15625 L 89.109375 -81.3125 L 98.625 -81.3125 L 98.75 0 Z M 87.59375 0 "/></g></g></g><g fill="#000000" fill-opacity="1"><g transform="translate(275.530323, 300.214531)"><g><path d="M 36.9375 0.703125 C 30.820312 0.703125 25.320312 -0.648438 20.4375 -3.359375 C 15.5625 -6.078125 11.75 -9.816406 9 -14.578125 C 6.25 -19.335938 4.875 -24.738281 4.875 -30.78125 C 4.875 -36.820312 6.25 -42.222656 9 -46.984375 C 11.75 -51.753906 15.5625 -55.472656 20.4375 -58.140625 C 25.320312 -60.816406 30.820312 -62.15625 36.9375 -62.15625 C 43.0625 -62.15625 48.539062 -60.816406 53.375 -58.140625 C 58.21875 -55.472656 62.015625 -51.753906 64.765625 -46.984375 C 67.515625 -42.222656 68.890625 -36.820312 68.890625 -30.78125 C 68.890625 -24.738281 67.515625 -19.335938 64.765625 -14.578125 C 62.015625 -9.816406 58.21875 -6.078125 53.375 -3.359375 C 48.539062 -0.648438 43.0625 0.703125 36.9375 0.703125 Z M 36.9375 -9.0625 C 40.894531 -9.0625 44.441406 -9.96875 47.578125 -11.78125 C 50.710938 -13.601562 53.171875 -16.160156 54.953125 -19.453125 C 56.734375 -22.742188 57.625 -26.519531 57.625 -30.78125 C 57.625 -35.039062 56.734375 -38.816406 54.953125 -42.109375 C 53.171875 -45.398438 50.710938 -47.9375 47.578125 -49.71875 C 44.441406 -51.5 40.894531 -52.390625 36.9375 -52.390625 C 32.988281 -52.390625 29.445312 -51.5 26.3125 -49.71875 C 23.175781 -47.9375 20.695312 -45.398438 18.875 -42.109375 C 17.050781 -38.816406 16.140625 -35.039062 16.140625 -30.78125 C 16.140625 -26.519531 17.050781 -22.742188 18.875 -19.453125 C 20.695312 -16.160156 23.175781 -13.601562 26.3125 -11.78125 C 29.445312 -9.96875 32.988281 -9.0625 36.9375 -9.0625 Z M 36.9375 -9.0625 "/></g></g></g><g fill="#000000" fill-opacity="1"><g transform="translate(349.296932, 300.214531)"><g><path d="M 43.453125 -62.15625 C 51.273438 -62.15625 57.488281 -59.890625 62.09375 -55.359375 C 66.695312 -50.828125 69 -44.1875 69 -35.4375 L 69 0 L 57.859375 0 L 57.859375 -34.15625 C 57.859375 -40.113281 56.421875 -44.601562 53.546875 -47.625 C 50.679688 -50.644531 46.578125 -52.15625 41.234375 -52.15625 C 35.191406 -52.15625 30.425781 -50.394531 26.9375 -46.875 C 23.457031 -43.351562 21.71875 -38.300781 21.71875 -31.71875 L 21.71875 0 L 10.578125 0 L 10.578125 -61.578125 L 21.265625 -61.578125 L 21.265625 -52.28125 C 23.503906 -55.457031 26.539062 -57.894531 30.375 -59.59375 C 34.207031 -61.300781 38.566406 -62.15625 43.453125 -62.15625 Z M 43.453125 -62.15625 "/></g></g></g><g fill="#000000" fill-opacity="1"><g transform="translate(428.755798, 300.214531)"><g><path d="M 68.65625 -86.203125 L 68.65625 0 L 57.96875 0 L 57.96875 -9.765625 C 55.488281 -6.347656 52.351562 -3.75 48.5625 -1.96875 C 44.769531 -0.1875 40.585938 0.703125 36.015625 0.703125 C 30.046875 0.703125 24.695312 -0.613281 19.96875 -3.25 C 15.25 -5.882812 11.550781 -9.582031 8.875 -14.34375 C 6.207031 -19.101562 4.875 -24.582031 4.875 -30.78125 C 4.875 -36.976562 6.207031 -42.4375 8.875 -47.15625 C 11.550781 -51.882812 15.25 -55.566406 19.96875 -58.203125 C 24.695312 -60.835938 30.046875 -62.15625 36.015625 -62.15625 C 40.429688 -62.15625 44.492188 -61.320312 48.203125 -59.65625 C 51.921875 -57.988281 55.019531 -55.53125 57.5 -52.28125 L 57.5 -86.203125 Z M 36.9375 -9.0625 C 40.8125 -9.0625 44.335938 -9.96875 47.515625 -11.78125 C 50.691406 -13.601562 53.171875 -16.160156 54.953125 -19.453125 C 56.734375 -22.742188 57.625 -26.519531 57.625 -30.78125 C 57.625 -35.039062 56.734375 -38.816406 54.953125 -42.109375 C 53.171875 -45.398438 50.691406 -47.9375 47.515625 -49.71875 C 44.335938 -51.5 40.8125 -52.390625 36.9375 -52.390625 C 32.988281 -52.390625 29.445312 -51.5 26.3125 -49.71875 C 23.175781 -47.9375 20.695312 -45.398438 18.875 -42.109375 C 17.050781 -38.816406 16.140625 -35.039062 16.140625 -30.78125 C 16.140625 -26.519531 17.050781 -22.742188 18.875 -19.453125 C 20.695312 -16.160156 23.175781 -13.601562 26.3125 -11.78125 C 29.445312 -9.96875 32.988281 -9.0625 36.9375 -9.0625 Z M 36.9375 -9.0625 "/></g></g></g><g fill="#000000" fill-opacity="1"><g transform="translate(507.982303, 300.214531)"><g><path d="M 33 -62.15625 C 41.507812 -62.15625 48.03125 -60.0625 52.5625 -55.875 C 57.09375 -51.695312 59.359375 -45.460938 59.359375 -37.171875 L 59.359375 0 L 48.796875 0 L 48.796875 -8.125 C 46.929688 -5.257812 44.273438 -3.070312 40.828125 -1.5625 C 37.390625 -0.0507812 33.304688 0.703125 28.578125 0.703125 C 21.679688 0.703125 16.160156 -0.960938 12.015625 -4.296875 C 7.878906 -7.628906 5.8125 -12.003906 5.8125 -17.421875 C 5.8125 -22.847656 7.785156 -27.207031 11.734375 -30.5 C 15.679688 -33.789062 21.953125 -35.4375 30.546875 -35.4375 L 48.21875 -35.4375 L 48.21875 -37.640625 C 48.21875 -42.441406 46.820312 -46.117188 44.03125 -48.671875 C 41.238281 -51.234375 37.132812 -52.515625 31.71875 -52.515625 C 28.070312 -52.515625 24.503906 -51.910156 21.015625 -50.703125 C 17.535156 -49.503906 14.597656 -47.898438 12.203125 -45.890625 L 7.546875 -54.25 C 10.722656 -56.800781 14.519531 -58.753906 18.9375 -60.109375 C 23.351562 -61.472656 28.039062 -62.15625 33 -62.15625 Z M 30.4375 -7.90625 C 34.695312 -7.90625 38.375 -8.851562 41.46875 -10.75 C 44.570312 -12.644531 46.820312 -15.332031 48.21875 -18.8125 L 48.21875 -27.421875 L 31.015625 -27.421875 C 21.566406 -27.421875 16.84375 -24.242188 16.84375 -17.890625 C 16.84375 -14.796875 18.039062 -12.359375 20.4375 -10.578125 C 22.84375 -8.796875 26.175781 -7.90625 30.4375 -7.90625 Z M 30.4375 -7.90625 "/></g></g></g><g fill="#000000" fill-opacity="1"><g transform="translate(576.288971, 300.214531)"><g><path d="M 65.0625 -61.578125 L 35.203125 6.15625 C 32.566406 12.425781 29.484375 16.835938 25.953125 19.390625 C 22.429688 21.953125 18.195312 23.234375 13.25 23.234375 C 10.226562 23.234375 7.300781 22.75 4.46875 21.78125 C 1.644531 20.8125 -0.695312 19.398438 -2.5625 17.546875 L 2.203125 9.171875 C 5.378906 12.191406 9.0625 13.703125 13.25 13.703125 C 15.957031 13.703125 18.21875 12.984375 20.03125 11.546875 C 21.851562 10.117188 23.503906 7.664062 24.984375 4.1875 L 26.953125 -0.109375 L -0.234375 -61.578125 L 11.390625 -61.578125 L 32.875 -12.3125 L 54.140625 -61.578125 Z M 65.0625 -61.578125 "/></g></g></g><g fill="#000000" fill-opacity="1"><g transform="translate(221.851927, 479.134364)"><g><path d="M 15.109375 -37.765625 L 0.25 -37.765625 L 0.25 -44.796875 L 38.265625 -44.796875 L 38.265625 -37.765625 L 23.421875 -37.765625 L 23.421875 0 L 15.109375 0 Z M 15.109375 -37.765625 "/></g></g></g><g fill="#000000" fill-opacity="1"><g transform="translate(259.545605, 479.134364)"><g><path d="M 38.328125 -34.171875 L 38.328125 0 L 30.71875 0 L 30.71875 -4.359375 C 29.4375 -2.816406 27.835938 -1.628906 25.921875 -0.796875 C 24.003906 0.0351562 21.9375 0.453125 19.71875 0.453125 C 15.144531 0.453125 11.546875 -0.816406 8.921875 -3.359375 C 6.296875 -5.898438 4.984375 -9.664062 4.984375 -14.65625 L 4.984375 -34.171875 L 12.984375 -34.171875 L 12.984375 -15.75 C 12.984375 -12.675781 13.675781 -10.378906 15.0625 -8.859375 C 16.457031 -7.347656 18.429688 -6.59375 20.984375 -6.59375 C 23.847656 -6.59375 26.125 -7.476562 27.8125 -9.25 C 29.5 -11.019531 30.34375 -13.566406 30.34375 -16.890625 L 30.34375 -34.171875 Z M 38.328125 -34.171875 "/></g></g></g><g fill="#000000" fill-opacity="1"><g transform="translate(506.769122, 479.134364)"><g><path d="M 15.109375 -37.765625 L 0.25 -37.765625 L 0.25 -44.796875 L 38.265625 -44.796875 L 38.265625 -37.765625 L 23.421875 -37.765625 L 23.421875 0 L 15.109375 0 Z M 15.109375 -37.765625 "/></g></g></g><g fill="#000000" fill-opacity="1"><g transform="translate(545.294762, 479.134364)"><g><path d="M 24.640625 -34.5625 C 28.953125 -34.5625 32.40625 -33.300781 35 -30.78125 C 37.601562 -28.269531 38.90625 -24.535156 38.90625 -19.578125 L 38.90625 0 L 30.90625 0 L 30.90625 -18.5625 C 30.90625 -21.550781 30.203125 -23.800781 28.796875 -25.3125 C 27.390625 -26.820312 25.382812 -27.578125 22.78125 -27.578125 C 19.84375 -27.578125 17.519531 -26.691406 15.8125 -24.921875 C 14.101562 -23.148438 13.25 -20.601562 13.25 -17.28125 L 13.25 0 L 5.25 0 L 5.25 -47.484375 L 13.25 -47.484375 L 13.25 -30.203125 C 14.570312 -31.609375 16.203125 -32.6875 18.140625 -33.4375 C 20.085938 -34.1875 22.253906 -34.5625 24.640625 -34.5625 Z M 24.640625 -34.5625 "/></g></g></g><g fill="#000000" fill-opacity="1"><g transform="translate(368.683197, 478.459796)"><g><path d="M 71.484375 -44.796875 L 56.640625 0 L 47.8125 0 L 36.734375 -33.15625 L 25.46875 0 L 16.578125 0 L 1.734375 -44.796875 L 10.375 -44.796875 L 21.5 -10.75 L 33.09375 -44.796875 L 40.765625 -44.796875 L 52.09375 -10.5625 L 63.546875 -44.796875 Z M 71.484375 -44.796875 "/></g></g></g><g clip-path="url(#067587befd)"><g clip-path="url(#c876bec399)"><g transform="matrix(1, 0, 0, 1, 343, 549)"><g clip-path="url(#91a1f39e2f)"><g clip-path="url(#71d48c7a78)"><g clip-path="url(#3db6f7cccf)"><path fill="#67c7ff" d="M 0.703125 0.882812 L 123.296875 0.882812 L 123.296875 123.480469 L 0.703125 123.480469 Z M 0.703125 0.882812 " fill-opacity="1" fill-rule="nonzero"/></g></g></g></g></g></g><g clip-path="url(#64518681ef)"><g clip-path="url(#2dbd368f47)"><path stroke-linecap="butt" transform="matrix(0.75, 0, 0, 0.75, 343.701694, 549.883048)" fill="none" stroke-linejoin="miter" d="M 49.996699 -0.000314448 L 113.455031 -0.000314448 C 141.069614 -0.000314448 163.45503 22.385102 163.45503 49.999685 L 163.45503 113.458017 C 163.45503 141.067392 141.069614 163.452808 113.455031 163.452808 L 49.996699 163.452808 C 22.382116 163.452808 0.00190772 141.067392 0.00190772 113.458017 L 0.00190772 49.999685 C 0.00190772 22.385102 22.382116 -0.000314448 49.996699 -0.000314448 Z M 49.996699 -0.000314448 " stroke="#000000" stroke-width="20" stroke-opacity="1" stroke-miterlimit="4"/></g></g><g clip-path="url(#f763ebd64b)"><g clip-path="url(#926dda613a)"><g transform="matrix(1, 0, 0, 1, 200, 549)"><g clip-path="url(#c933e3a467)"><g clip-path="url(#f8d0cae9a4)"><g clip-path="url(#0a7a6ba9cd)"><path fill="#67c7ff" d="M 0.75 0.882812 L 123.347656 0.882812 L 123.347656 123.480469 L 0.75 123.480469 Z M 0.75 0.882812 " fill-opacity="1" fill-rule="nonzero"/></g></g></g></g></g></g><g clip-path="url(#ccf8e6e2b7)"><g clip-path="url(#211a3e8817)"><path stroke-linecap="butt" transform="matrix(0.75, 0, 0, 0.75, 200.749945, 549.883048)" fill="none" stroke-linejoin="miter" d="M 49.994865 -0.000314448 L 113.458406 -0.000314448 C 141.06778 -0.000314448 163.453197 22.385102 163.453197 49.999685 L 163.453197 113.458017 C 163.453197 141.067392 141.06778 163.452808 113.458406 163.452808 L 49.994865 163.452808 C 22.38549 163.452808 0.0000738659 141.067392 0.0000738659 113.458017 L 0.0000738659 49.999685 C 0.0000738659 22.385102 22.38549 -0.000314448 49.994865 -0.000314448 Z M 49.994865 -0.000314448 " stroke="#000000" stroke-width="20" stroke-opacity="1" stroke-miterlimit="4"/></g></g><g clip-path="url(#cd3f21639e)"><g clip-path="url(#1a40385526)"><g transform="matrix(1, 0, 0, 1, 486, 549)"><g clip-path="url(#8b60d8118e)"><g clip-path="url(#0e37a904bf)"><g clip-path="url(#b3070dffb6)"><path fill="#67c7ff" d="M 0.652344 0.882812 L 123.25 0.882812 L 123.25 123.480469 L 0.652344 123.480469 Z M 0.652344 0.882812 " fill-opacity="1" fill-rule="nonzero"/></g></g></g></g></g></g><g clip-path="url(#f262640805)"><g clip-path="url(#329c5478c2)"><path stroke-linecap="butt" transform="matrix(0.75, 0, 0, 0.75, 486.653451, 549.883048)" fill="none" stroke-linejoin="miter" d="M 49.998523 -0.000314448 L 113.456855 -0.000314448 C 141.06623 -0.000314448 163.451646 22.385102 163.451646 49.999685 L 163.451646 113.458017 C 163.451646 141.067392 141.06623 163.452808 113.456855 163.452808 L 49.998523 163.452808 C 22.38394 163.452808 -0.00147636 141.067392 -0.00147636 113.458017 L -0.00147636 49.999685 C -0.00147636 22.385102 22.38394 -0.000314448 49.998523 -0.000314448 Z M 49.998523 -0.000314448 " stroke="#000000" stroke-width="20" stroke-opacity="1" stroke-miterlimit="4"/></g></g><g fill="#000000" fill-opacity="1"><g transform="translate(365.788343, 633.306372)"><g><path d="M 19.90625 0.640625 C 16.445312 0.640625 13.109375 0.148438 9.890625 -0.828125 C 6.671875 -1.804688 4.117188 -3.109375 2.234375 -4.734375 L 5.125 -11.203125 C 6.957031 -9.753906 9.207031 -8.566406 11.875 -7.640625 C 14.539062 -6.722656 17.21875 -6.265625 19.90625 -6.265625 C 23.226562 -6.265625 25.710938 -6.796875 27.359375 -7.859375 C 29.003906 -8.929688 29.828125 -10.34375 29.828125 -12.09375 C 29.828125 -13.375 29.367188 -14.429688 28.453125 -15.265625 C 27.535156 -16.097656 26.367188 -16.75 24.953125 -17.21875 C 23.546875 -17.6875 21.628906 -18.21875 19.203125 -18.8125 C 15.785156 -19.625 13.019531 -20.4375 10.90625 -21.25 C 8.800781 -22.0625 6.988281 -23.328125 5.46875 -25.046875 C 3.957031 -26.773438 3.203125 -29.113281 3.203125 -32.0625 C 3.203125 -34.539062 3.875 -36.789062 5.21875 -38.8125 C 6.5625 -40.84375 8.585938 -42.453125 11.296875 -43.640625 C 14.003906 -44.835938 17.320312 -45.4375 21.25 -45.4375 C 23.976562 -45.4375 26.664062 -45.09375 29.3125 -44.40625 C 31.957031 -43.726562 34.238281 -42.75 36.15625 -41.46875 L 33.53125 -35.015625 C 31.570312 -36.160156 29.523438 -37.03125 27.390625 -37.625 C 25.253906 -38.226562 23.1875 -38.53125 21.1875 -38.53125 C 17.894531 -38.53125 15.445312 -37.972656 13.84375 -36.859375 C 12.25 -35.753906 11.453125 -34.285156 11.453125 -32.453125 C 11.453125 -31.171875 11.910156 -30.125 12.828125 -29.3125 C 13.742188 -28.5 14.90625 -27.859375 16.3125 -27.390625 C 17.726562 -26.921875 19.648438 -26.390625 22.078125 -25.796875 C 25.410156 -25.023438 28.140625 -24.222656 30.265625 -23.390625 C 32.398438 -22.554688 34.222656 -21.285156 35.734375 -19.578125 C 37.253906 -17.878906 38.015625 -15.578125 38.015625 -12.671875 C 38.015625 -10.191406 37.34375 -7.945312 36 -5.9375 C 34.65625 -3.9375 32.617188 -2.335938 29.890625 -1.140625 C 27.160156 0.046875 23.832031 0.640625 19.90625 0.640625 Z M 19.90625 0.640625 "/></g></g></g><g fill="#000000" fill-opacity="1"><g transform="translate(406.04187, 633.306372)"><g><path d="M 18.296875 -34.5625 C 23.335938 -34.5625 27.191406 -33.351562 29.859375 -30.9375 C 32.523438 -28.53125 33.859375 -24.894531 33.859375 -20.03125 L 33.859375 0 L 26.296875 0 L 26.296875 -4.15625 C 25.316406 -2.664062 23.921875 -1.523438 22.109375 -0.734375 C 20.296875 0.0546875 18.109375 0.453125 15.546875 0.453125 C 12.992188 0.453125 10.753906 0.015625 8.828125 -0.859375 C 6.910156 -1.734375 5.425781 -2.945312 4.375 -4.5 C 3.332031 -6.0625 2.8125 -7.828125 2.8125 -9.796875 C 2.8125 -12.867188 3.953125 -15.332031 6.234375 -17.1875 C 8.515625 -19.039062 12.113281 -19.96875 17.03125 -19.96875 L 25.859375 -19.96875 L 25.859375 -20.484375 C 25.859375 -22.867188 25.140625 -24.703125 23.703125 -25.984375 C 22.273438 -27.265625 20.15625 -27.90625 17.34375 -27.90625 C 15.425781 -27.90625 13.535156 -27.601562 11.671875 -27 C 9.816406 -26.40625 8.25 -25.578125 6.96875 -24.515625 L 3.84375 -30.34375 C 5.632812 -31.707031 7.785156 -32.75 10.296875 -33.46875 C 12.816406 -34.195312 15.484375 -34.5625 18.296875 -34.5625 Z M 17.21875 -5.375 C 19.21875 -5.375 20.992188 -5.832031 22.546875 -6.75 C 24.109375 -7.664062 25.210938 -8.976562 25.859375 -10.6875 L 25.859375 -14.65625 L 17.59375 -14.65625 C 12.988281 -14.65625 10.6875 -13.140625 10.6875 -10.109375 C 10.6875 -8.660156 11.257812 -7.507812 12.40625 -6.65625 C 13.5625 -5.800781 15.164062 -5.375 17.21875 -5.375 Z M 17.21875 -5.375 "/></g></g></g><g fill="#000000" fill-opacity="1"><g transform="translate(241.663453, 633.306372)"><g><path d="M 14.34375 -37.828125 L 14.34375 -24.1875 L 35.96875 -24.1875 L 35.96875 -17.15625 L 14.34375 -17.15625 L 14.34375 0 L 6.015625 0 L 6.015625 -44.796875 L 38.71875 -44.796875 L 38.71875 -37.828125 Z M 14.34375 -37.828125 "/></g></g></g><g fill="#000000" fill-opacity="1"><g transform="translate(506.323394, 633.306372)"><g><path d="M 19.90625 0.640625 C 16.445312 0.640625 13.109375 0.148438 9.890625 -0.828125 C 6.671875 -1.804688 4.117188 -3.109375 2.234375 -4.734375 L 5.125 -11.203125 C 6.957031 -9.753906 9.207031 -8.566406 11.875 -7.640625 C 14.539062 -6.722656 17.21875 -6.265625 19.90625 -6.265625 C 23.226562 -6.265625 25.710938 -6.796875 27.359375 -7.859375 C 29.003906 -8.929688 29.828125 -10.34375 29.828125 -12.09375 C 29.828125 -13.375 29.367188 -14.429688 28.453125 -15.265625 C 27.535156 -16.097656 26.367188 -16.75 24.953125 -17.21875 C 23.546875 -17.6875 21.628906 -18.21875 19.203125 -18.8125 C 15.785156 -19.625 13.019531 -20.4375 10.90625 -21.25 C 8.800781 -22.0625 6.988281 -23.328125 5.46875 -25.046875 C 3.957031 -26.773438 3.203125 -29.113281 3.203125 -32.0625 C 3.203125 -34.539062 3.875 -36.789062 5.21875 -38.8125 C 6.5625 -40.84375 8.585938 -42.453125 11.296875 -43.640625 C 14.003906 -44.835938 17.320312 -45.4375 21.25 -45.4375 C 23.976562 -45.4375 26.664062 -45.09375 29.3125 -44.40625 C 31.957031 -43.726562 34.238281 -42.75 36.15625 -41.46875 L 33.53125 -35.015625 C 31.570312 -36.160156 29.523438 -37.03125 27.390625 -37.625 C 25.253906 -38.226562 23.1875 -38.53125 21.1875 -38.53125 C 17.894531 -38.53125 15.445312 -37.972656 13.84375 -36.859375 C 12.25 -35.753906 11.453125 -34.285156 11.453125 -32.453125 C 11.453125 -31.171875 11.910156 -30.125 12.828125 -29.3125 C 13.742188 -28.5 14.90625 -27.859375 16.3125 -27.390625 C 17.726562 -26.921875 19.648438 -26.390625 22.078125 -25.796875 C 25.410156 -25.023438 28.140625 -24.222656 30.265625 -23.390625 C 32.398438 -22.554688 34.222656 -21.285156 35.734375 -19.578125 C 37.253906 -17.878906 38.015625 -15.578125 38.015625 -12.671875 C 38.015625 -10.191406 37.34375 -7.945312 36 -5.9375 C 34.65625 -3.9375 32.617188 -2.335938 29.890625 -1.140625 C 27.160156 0.046875 23.832031 0.640625 19.90625 0.640625 Z M 19.90625 0.640625 "/></g></g></g><g fill="#000000" fill-opacity="1"><g transform="translate(546.57692, 633.306372)"><g><path d="M 38.328125 -34.171875 L 38.328125 0 L 30.71875 0 L 30.71875 -4.359375 C 29.4375 -2.816406 27.835938 -1.628906 25.921875 -0.796875 C 24.003906 0.0351562 21.9375 0.453125 19.71875 0.453125 C 15.144531 0.453125 11.546875 -0.816406 8.921875 -3.359375 C 6.296875 -5.898438 4.984375 -9.664062 4.984375 -14.65625 L 4.984375 -34.171875 L 12.984375 -34.171875 L 12.984375 -15.75 C 12.984375 -12.675781 13.675781 -10.378906 15.0625 -8.859375 C 16.457031 -7.347656 18.429688 -6.59375 20.984375 -6.59375 C 23.847656 -6.59375 26.125 -7.476562 27.8125 -9.25 C 29.5 -11.019531 30.34375 -13.566406 30.34375 -16.890625 L 30.34375 -34.171875 Z M 38.328125 -34.171875 "/></g></g></g></svg>