<svg xmlns="http://www.w3.org/2000/svg" xmlns:xlink="http://www.w3.org/1999/xlink" width="500" zoomAndPan="magnify" viewBox="0 0 375 374.999991" height="500" preserveAspectRatio="xMidYMid meet" version="1.0"><defs><g/><clipPath id="e1e9948ddc"><path d="M 195.050781 94.816406 L 257.882812 94.816406 L 257.882812 157.644531 L 195.050781 157.644531 Z M 195.050781 94.816406 " clip-rule="nonzero"/></clipPath><clipPath id="c8fc1583ac"><path d="M 212.300781 94.816406 L 240.632812 94.816406 C 245.207031 94.816406 249.597656 96.632812 252.832031 99.867188 C 256.066406 103.101562 257.882812 107.488281 257.882812 112.066406 L 257.882812 140.394531 C 257.882812 144.972656 256.066406 149.359375 252.832031 152.59375 C 249.597656 155.828125 245.207031 157.644531 240.632812 157.644531 L 212.300781 157.644531 C 207.726562 157.644531 203.339844 155.828125 200.105469 152.59375 C 196.871094 149.359375 195.050781 144.972656 195.050781 140.394531 L 195.050781 112.066406 C 195.050781 107.488281 196.871094 103.101562 200.105469 99.867188 C 203.339844 96.632812 207.726562 94.816406 212.300781 94.816406 Z M 212.300781 94.816406 " clip-rule="nonzero"/></clipPath><clipPath id="1f1bdf801b"><path d="M 0.0507812 0.816406 L 62.882812 0.816406 L 62.882812 63.644531 L 0.0507812 63.644531 Z M 0.0507812 0.816406 " clip-rule="nonzero"/></clipPath><clipPath id="08406c50d5"><path d="M 17.300781 0.816406 L 45.632812 0.816406 C 50.207031 0.816406 54.597656 2.632812 57.832031 5.867188 C 61.066406 9.101562 62.882812 13.488281 62.882812 18.066406 L 62.882812 46.394531 C 62.882812 50.972656 61.066406 55.359375 57.832031 58.59375 C 54.597656 61.828125 50.207031 63.644531 45.632812 63.644531 L 17.300781 63.644531 C 12.726562 63.644531 8.339844 61.828125 5.105469 58.59375 C 1.871094 55.359375 0.0507812 50.972656 0.0507812 46.394531 L 0.0507812 18.066406 C 0.0507812 13.488281 1.871094 9.101562 5.105469 5.867188 C 8.339844 2.632812 12.726562 0.816406 17.300781 0.816406 Z M 17.300781 0.816406 " clip-rule="nonzero"/></clipPath><clipPath id="c7f5c75334"><rect x="0" width="63" y="0" height="64"/></clipPath><clipPath id="b2093e8bc8"><path d="M 195.050781 94.816406 L 258 94.816406 L 258 157.816406 L 195.050781 157.816406 Z M 195.050781 94.816406 " clip-rule="nonzero"/></clipPath><clipPath id="0dc959e23b"><path d="M 212.300781 94.816406 L 240.628906 94.816406 C 245.203125 94.816406 249.589844 96.632812 252.824219 99.867188 C 256.058594 103.101562 257.875 107.488281 257.875 112.0625 L 257.875 140.390625 C 257.875 144.964844 256.058594 149.351562 252.824219 152.585938 C 249.589844 155.820312 245.203125 157.640625 240.628906 157.640625 L 212.300781 157.640625 C 207.726562 157.640625 203.339844 155.820312 200.105469 152.585938 C 196.871094 149.351562 195.050781 144.964844 195.050781 140.390625 L 195.050781 112.0625 C 195.050781 107.488281 196.871094 103.101562 200.105469 99.867188 C 203.339844 96.632812 207.726562 94.816406 212.300781 94.816406 Z M 212.300781 94.816406 " clip-rule="nonzero"/></clipPath><clipPath id="970f7c8af2"><path d="M 156.535156 300.839844 L 219.367188 300.839844 L 219.367188 363.671875 L 156.535156 363.671875 Z M 156.535156 300.839844 " clip-rule="nonzero"/></clipPath><clipPath id="4e42a2b4ca"><path d="M 173.785156 300.839844 L 202.117188 300.839844 C 206.691406 300.839844 211.078125 302.65625 214.3125 305.890625 C 217.546875 309.125 219.367188 313.515625 219.367188 318.089844 L 219.367188 346.421875 C 219.367188 350.996094 217.546875 355.382812 214.3125 358.617188 C 211.078125 361.851562 206.691406 363.671875 202.117188 363.671875 L 173.785156 363.671875 C 169.210938 363.671875 164.820312 361.851562 161.585938 358.617188 C 158.351562 355.382812 156.535156 350.996094 156.535156 346.421875 L 156.535156 318.089844 C 156.535156 313.515625 158.351562 309.125 161.585938 305.890625 C 164.820312 302.65625 169.210938 300.839844 173.785156 300.839844 Z M 173.785156 300.839844 " clip-rule="nonzero"/></clipPath><clipPath id="cf5aef35a1"><path d="M 0.535156 0.839844 L 63.367188 0.839844 L 63.367188 63.671875 L 0.535156 63.671875 Z M 0.535156 0.839844 " clip-rule="nonzero"/></clipPath><clipPath id="e1fabd896e"><path d="M 17.785156 0.839844 L 46.117188 0.839844 C 50.691406 0.839844 55.078125 2.65625 58.3125 5.890625 C 61.546875 9.125 63.367188 13.515625 63.367188 18.089844 L 63.367188 46.421875 C 63.367188 50.996094 61.546875 55.382812 58.3125 58.617188 C 55.078125 61.851562 50.691406 63.671875 46.117188 63.671875 L 17.785156 63.671875 C 13.210938 63.671875 8.820312 61.851562 5.585938 58.617188 C 2.351562 55.382812 0.535156 50.996094 0.535156 46.421875 L 0.535156 18.089844 C 0.535156 13.515625 2.351562 9.125 5.585938 5.890625 C 8.820312 2.65625 13.210938 0.839844 17.785156 0.839844 Z M 17.785156 0.839844 " clip-rule="nonzero"/></clipPath><clipPath id="c0f1e4914e"><rect x="0" width="64" y="0" height="64"/></clipPath><clipPath id="cc2c6880b9"><path d="M 156.535156 300.839844 L 219.535156 300.839844 L 219.535156 363.839844 L 156.535156 363.839844 Z M 156.535156 300.839844 " clip-rule="nonzero"/></clipPath><clipPath id="15585be6fc"><path d="M 173.78125 300.839844 L 202.109375 300.839844 C 206.683594 300.839844 211.074219 302.65625 214.308594 305.890625 C 217.542969 309.125 219.359375 313.511719 219.359375 318.085938 L 219.359375 346.414062 C 219.359375 350.988281 217.542969 355.375 214.308594 358.609375 C 211.074219 361.847656 206.683594 363.664062 202.109375 363.664062 L 173.78125 363.664062 C 169.207031 363.664062 164.820312 361.847656 161.585938 358.609375 C 158.351562 355.375 156.535156 350.988281 156.535156 346.414062 L 156.535156 318.085938 C 156.535156 313.511719 158.351562 309.125 161.585938 305.890625 C 164.820312 302.65625 169.207031 300.839844 173.78125 300.839844 Z M 173.78125 300.839844 " clip-rule="nonzero"/></clipPath><clipPath id="222559dece"><path d="M 155.738281 20.492188 L 218.570312 20.492188 L 218.570312 83.324219 L 155.738281 83.324219 Z M 155.738281 20.492188 " clip-rule="nonzero"/></clipPath><clipPath id="10cb025c6a"><path d="M 172.988281 20.492188 L 201.320312 20.492188 C 205.894531 20.492188 210.28125 22.308594 213.515625 25.542969 C 216.753906 28.777344 218.570312 33.167969 218.570312 37.742188 L 218.570312 66.074219 C 218.570312 70.648438 216.753906 75.035156 213.515625 78.269531 C 210.28125 81.503906 205.894531 83.324219 201.320312 83.324219 L 172.988281 83.324219 C 168.414062 83.324219 164.027344 81.503906 160.792969 78.269531 C 157.554688 75.035156 155.738281 70.648438 155.738281 66.074219 L 155.738281 37.742188 C 155.738281 33.167969 157.554688 28.777344 160.792969 25.542969 C 164.027344 22.308594 168.414062 20.492188 172.988281 20.492188 Z M 172.988281 20.492188 " clip-rule="nonzero"/></clipPath><clipPath id="4623142ca9"><path d="M 0.738281 0.492188 L 63.570312 0.492188 L 63.570312 63.324219 L 0.738281 63.324219 Z M 0.738281 0.492188 " clip-rule="nonzero"/></clipPath><clipPath id="3c649c7110"><path d="M 17.988281 0.492188 L 46.320312 0.492188 C 50.894531 0.492188 55.28125 2.308594 58.515625 5.542969 C 61.753906 8.777344 63.570312 13.167969 63.570312 17.742188 L 63.570312 46.074219 C 63.570312 50.648438 61.753906 55.035156 58.515625 58.269531 C 55.28125 61.503906 50.894531 63.324219 46.320312 63.324219 L 17.988281 63.324219 C 13.414062 63.324219 9.027344 61.503906 5.792969 58.269531 C 2.554688 55.035156 0.738281 50.648438 0.738281 46.074219 L 0.738281 17.742188 C 0.738281 13.167969 2.554688 8.777344 5.792969 5.542969 C 9.027344 2.308594 13.414062 0.492188 17.988281 0.492188 Z M 17.988281 0.492188 " clip-rule="nonzero"/></clipPath><clipPath id="82d6f97afa"><rect x="0" width="64" y="0" height="64"/></clipPath><clipPath id="ed6c9b8637"><path d="M 155.738281 20.492188 L 218.738281 20.492188 L 218.738281 83.492188 L 155.738281 83.492188 Z M 155.738281 20.492188 " clip-rule="nonzero"/></clipPath><clipPath id="892c2d140a"><path d="M 172.988281 20.492188 L 201.316406 20.492188 C 205.890625 20.492188 210.277344 22.308594 213.511719 25.542969 C 216.746094 28.777344 218.5625 33.164062 218.5625 37.738281 L 218.5625 66.066406 C 218.5625 70.640625 216.746094 75.03125 213.511719 78.265625 C 210.277344 81.5 205.890625 83.316406 201.316406 83.316406 L 172.988281 83.316406 C 168.414062 83.316406 164.023438 81.5 160.789062 78.265625 C 157.554688 75.03125 155.738281 70.640625 155.738281 66.066406 L 155.738281 37.738281 C 155.738281 33.164062 157.554688 28.777344 160.789062 25.542969 C 164.023438 22.308594 168.414062 20.492188 172.988281 20.492188 Z M 172.988281 20.492188 " clip-rule="nonzero"/></clipPath><clipPath id="fa05be010c"><path d="M 78.628906 21.242188 L 141.460938 21.242188 L 141.460938 84.074219 L 78.628906 84.074219 Z M 78.628906 21.242188 " clip-rule="nonzero"/></clipPath><clipPath id="ace14d4643"><path d="M 95.878906 21.242188 L 124.210938 21.242188 C 128.785156 21.242188 133.171875 23.058594 136.40625 26.292969 C 139.640625 29.527344 141.460938 33.917969 141.460938 38.492188 L 141.460938 66.824219 C 141.460938 71.398438 139.640625 75.785156 136.40625 79.019531 C 133.171875 82.253906 128.785156 84.074219 124.210938 84.074219 L 95.878906 84.074219 C 91.304688 84.074219 86.917969 82.253906 83.679688 79.019531 C 80.445312 75.785156 78.628906 71.398438 78.628906 66.824219 L 78.628906 38.492188 C 78.628906 33.917969 80.445312 29.527344 83.679688 26.292969 C 86.917969 23.058594 91.304688 21.242188 95.878906 21.242188 Z M 95.878906 21.242188 " clip-rule="nonzero"/></clipPath><clipPath id="ed83d3a60c"><path d="M 0.628906 0.242188 L 63.460938 0.242188 L 63.460938 63.074219 L 0.628906 63.074219 Z M 0.628906 0.242188 " clip-rule="nonzero"/></clipPath><clipPath id="c43b7c3fcc"><path d="M 17.878906 0.242188 L 46.210938 0.242188 C 50.785156 0.242188 55.171875 2.058594 58.40625 5.292969 C 61.640625 8.527344 63.460938 12.917969 63.460938 17.492188 L 63.460938 45.824219 C 63.460938 50.398438 61.640625 54.785156 58.40625 58.019531 C 55.171875 61.253906 50.785156 63.074219 46.210938 63.074219 L 17.878906 63.074219 C 13.304688 63.074219 8.917969 61.253906 5.679688 58.019531 C 2.445312 54.785156 0.628906 50.398438 0.628906 45.824219 L 0.628906 17.492188 C 0.628906 12.917969 2.445312 8.527344 5.679688 5.292969 C 8.917969 2.058594 13.304688 0.242188 17.878906 0.242188 Z M 17.878906 0.242188 " clip-rule="nonzero"/></clipPath><clipPath id="6f31725123"><rect x="0" width="64" y="0" height="64"/></clipPath><clipPath id="9daa2d8585"><path d="M 78.628906 21.242188 L 141.628906 21.242188 L 141.628906 84.242188 L 78.628906 84.242188 Z M 78.628906 21.242188 " clip-rule="nonzero"/></clipPath><clipPath id="ff990ffc80"><path d="M 95.875 21.242188 L 124.203125 21.242188 C 128.78125 21.242188 133.167969 23.058594 136.402344 26.292969 C 139.636719 29.527344 141.453125 33.914062 141.453125 38.488281 L 141.453125 66.816406 C 141.453125 71.390625 139.636719 75.78125 136.402344 79.015625 C 133.167969 82.25 128.78125 84.066406 124.203125 84.066406 L 95.875 84.066406 C 91.300781 84.066406 86.914062 82.25 83.679688 79.015625 C 80.445312 75.78125 78.628906 71.390625 78.628906 66.816406 L 78.628906 38.488281 C 78.628906 33.914062 80.445312 29.527344 83.679688 26.292969 C 86.914062 23.058594 91.300781 21.242188 95.875 21.242188 Z M 95.875 21.242188 " clip-rule="nonzero"/></clipPath><clipPath id="ce41725ca1"><path d="M 235.617188 21.242188 L 298.449219 21.242188 L 298.449219 84.074219 L 235.617188 84.074219 Z M 235.617188 21.242188 " clip-rule="nonzero"/></clipPath><clipPath id="fe0e575180"><path d="M 252.867188 21.242188 L 281.199219 21.242188 C 285.773438 21.242188 290.160156 23.058594 293.394531 26.292969 C 296.628906 29.527344 298.449219 33.917969 298.449219 38.492188 L 298.449219 66.824219 C 298.449219 71.398438 296.628906 75.785156 293.394531 79.019531 C 290.160156 82.253906 285.773438 84.074219 281.199219 84.074219 L 252.867188 84.074219 C 248.292969 84.074219 243.902344 82.253906 240.667969 79.019531 C 237.433594 75.785156 235.617188 71.398438 235.617188 66.824219 L 235.617188 38.492188 C 235.617188 33.917969 237.433594 29.527344 240.667969 26.292969 C 243.902344 23.058594 248.292969 21.242188 252.867188 21.242188 Z M 252.867188 21.242188 " clip-rule="nonzero"/></clipPath><clipPath id="502f0df548"><path d="M 0.617188 0.242188 L 63.449219 0.242188 L 63.449219 63.074219 L 0.617188 63.074219 Z M 0.617188 0.242188 " clip-rule="nonzero"/></clipPath><clipPath id="bd3f7cb840"><path d="M 17.867188 0.242188 L 46.199219 0.242188 C 50.773438 0.242188 55.160156 2.058594 58.394531 5.292969 C 61.628906 8.527344 63.449219 12.917969 63.449219 17.492188 L 63.449219 45.824219 C 63.449219 50.398438 61.628906 54.785156 58.394531 58.019531 C 55.160156 61.253906 50.773438 63.074219 46.199219 63.074219 L 17.867188 63.074219 C 13.292969 63.074219 8.902344 61.253906 5.667969 58.019531 C 2.433594 54.785156 0.617188 50.398438 0.617188 45.824219 L 0.617188 17.492188 C 0.617188 12.917969 2.433594 8.527344 5.667969 5.292969 C 8.902344 2.058594 13.292969 0.242188 17.867188 0.242188 Z M 17.867188 0.242188 " clip-rule="nonzero"/></clipPath><clipPath id="b63b99b9b6"><rect x="0" width="64" y="0" height="64"/></clipPath><clipPath id="3a488d994d"><path d="M 235.617188 21.242188 L 298.617188 21.242188 L 298.617188 84.242188 L 235.617188 84.242188 Z M 235.617188 21.242188 " clip-rule="nonzero"/></clipPath><clipPath id="86efedb716"><path d="M 252.863281 21.242188 L 281.191406 21.242188 C 285.765625 21.242188 290.152344 23.058594 293.386719 26.292969 C 296.625 29.527344 298.441406 33.914062 298.441406 38.488281 L 298.441406 66.816406 C 298.441406 71.390625 296.625 75.78125 293.386719 79.015625 C 290.152344 82.25 285.765625 84.066406 281.191406 84.066406 L 252.863281 84.066406 C 248.289062 84.066406 243.902344 82.25 240.667969 79.015625 C 237.433594 75.78125 235.617188 71.390625 235.617188 66.816406 L 235.617188 38.488281 C 235.617188 33.914062 237.433594 29.527344 240.667969 26.292969 C 243.902344 23.058594 248.289062 21.242188 252.863281 21.242188 Z M 252.863281 21.242188 " clip-rule="nonzero"/></clipPath><clipPath id="7679d7e57e"><path d="M 119.347656 93.855469 L 182.179688 93.855469 L 182.179688 156.683594 L 119.347656 156.683594 Z M 119.347656 93.855469 " clip-rule="nonzero"/></clipPath><clipPath id="8996c7057a"><path d="M 136.597656 93.855469 L 164.929688 93.855469 C 169.503906 93.855469 173.890625 95.671875 177.125 98.90625 C 180.359375 102.140625 182.179688 106.53125 182.179688 111.105469 L 182.179688 139.433594 C 182.179688 144.011719 180.359375 148.398438 177.125 151.632812 C 173.890625 154.867188 169.503906 156.683594 164.929688 156.683594 L 136.597656 156.683594 C 132.023438 156.683594 127.632812 154.867188 124.398438 151.632812 C 121.164062 148.398438 119.347656 144.011719 119.347656 139.433594 L 119.347656 111.105469 C 119.347656 106.53125 121.164062 102.140625 124.398438 98.90625 C 127.632812 95.671875 132.023438 93.855469 136.597656 93.855469 Z M 136.597656 93.855469 " clip-rule="nonzero"/></clipPath><clipPath id="88c804c58e"><path d="M 0.347656 0.855469 L 63.179688 0.855469 L 63.179688 63.683594 L 0.347656 63.683594 Z M 0.347656 0.855469 " clip-rule="nonzero"/></clipPath><clipPath id="95f03a1ccb"><path d="M 17.597656 0.855469 L 45.929688 0.855469 C 50.503906 0.855469 54.890625 2.671875 58.125 5.90625 C 61.359375 9.140625 63.179688 13.53125 63.179688 18.105469 L 63.179688 46.433594 C 63.179688 51.011719 61.359375 55.398438 58.125 58.632812 C 54.890625 61.867188 50.503906 63.683594 45.929688 63.683594 L 17.597656 63.683594 C 13.023438 63.683594 8.632812 61.867188 5.398438 58.632812 C 2.164062 55.398438 0.347656 51.011719 0.347656 46.433594 L 0.347656 18.105469 C 0.347656 13.53125 2.164062 9.140625 5.398438 5.90625 C 8.632812 2.671875 13.023438 0.855469 17.597656 0.855469 Z M 17.597656 0.855469 " clip-rule="nonzero"/></clipPath><clipPath id="8612513df6"><rect x="0" width="64" y="0" height="64"/></clipPath><clipPath id="023567d40d"><path d="M 119.347656 93.855469 L 182.347656 93.855469 L 182.347656 156.855469 L 119.347656 156.855469 Z M 119.347656 93.855469 " clip-rule="nonzero"/></clipPath><clipPath id="0c190a66e0"><path d="M 136.59375 93.855469 L 164.921875 93.855469 C 169.496094 93.855469 173.886719 95.671875 177.121094 98.90625 C 180.355469 102.140625 182.171875 106.527344 182.171875 111.101562 L 182.171875 139.429688 C 182.171875 144.003906 180.355469 148.390625 177.121094 151.625 C 173.886719 154.863281 169.496094 156.679688 164.921875 156.679688 L 136.59375 156.679688 C 132.019531 156.679688 127.632812 154.863281 124.398438 151.625 C 121.164062 148.390625 119.347656 144.003906 119.347656 139.429688 L 119.347656 111.101562 C 119.347656 106.527344 121.164062 102.140625 124.398438 98.90625 C 127.632812 95.671875 132.019531 93.855469 136.59375 93.855469 Z M 136.59375 93.855469 " clip-rule="nonzero"/></clipPath><clipPath id="0635cc17b5"><path d="M 37.5 179.664062 L 337.519531 179.664062 L 337.519531 280.589844 L 37.5 280.589844 Z M 37.5 179.664062 " clip-rule="nonzero"/></clipPath><clipPath id="29df17469f"><path d="M 54.75 179.664062 L 320.25 179.664062 C 324.824219 179.664062 329.210938 181.480469 332.449219 184.714844 C 335.683594 187.949219 337.5 192.335938 337.5 196.914062 L 337.5 263.339844 C 337.5 267.914062 335.683594 272.300781 332.449219 275.535156 C 329.210938 278.773438 324.824219 280.589844 320.25 280.589844 L 54.75 280.589844 C 50.175781 280.589844 45.789062 278.773438 42.550781 275.535156 C 39.316406 272.300781 37.5 267.914062 37.5 263.339844 L 37.5 196.914062 C 37.5 192.335938 39.316406 187.949219 42.550781 184.714844 C 45.789062 181.480469 50.175781 179.664062 54.75 179.664062 Z M 54.75 179.664062 " clip-rule="nonzero"/></clipPath><clipPath id="e87ef3721d"><path d="M 0.5 0.664062 L 300.519531 0.664062 L 300.519531 101.589844 L 0.5 101.589844 Z M 0.5 0.664062 " clip-rule="nonzero"/></clipPath><clipPath id="1c9d6390ef"><path d="M 17.75 0.664062 L 283.25 0.664062 C 287.824219 0.664062 292.210938 2.480469 295.449219 5.714844 C 298.683594 8.949219 300.5 13.335938 300.5 17.914062 L 300.5 84.339844 C 300.5 88.914062 298.683594 93.300781 295.449219 96.535156 C 292.210938 99.773438 287.824219 101.589844 283.25 101.589844 L 17.75 101.589844 C 13.175781 101.589844 8.789062 99.773438 5.550781 96.535156 C 2.316406 93.300781 0.5 88.914062 0.5 84.339844 L 0.5 17.914062 C 0.5 13.335938 2.316406 8.949219 5.550781 5.714844 C 8.789062 2.480469 13.175781 0.664062 17.75 0.664062 Z M 17.75 0.664062 " clip-rule="nonzero"/></clipPath><clipPath id="f52047c622"><rect x="0" width="301" y="0" height="102"/></clipPath><clipPath id="755e4067b8"><path d="M 37.507812 179.664062 L 337.5 179.664062 L 337.5 280.914062 L 37.507812 280.914062 Z M 37.507812 179.664062 " clip-rule="nonzero"/></clipPath><clipPath id="da946ae84b"><path d="M 54.753906 179.664062 L 320.246094 179.664062 C 324.820312 179.664062 329.207031 181.480469 332.441406 184.714844 C 335.675781 187.949219 337.492188 192.335938 337.492188 196.914062 L 337.492188 263.335938 C 337.492188 267.910156 335.675781 272.296875 332.441406 275.53125 C 329.207031 278.765625 324.820312 280.585938 320.246094 280.585938 L 54.753906 280.585938 C 50.179688 280.585938 45.792969 278.765625 42.558594 275.53125 C 39.324219 272.296875 37.507812 267.910156 37.507812 263.335938 L 37.507812 196.914062 C 37.507812 192.335938 39.324219 187.949219 42.558594 184.714844 C 45.792969 181.480469 50.179688 179.664062 54.753906 179.664062 Z M 54.753906 179.664062 " clip-rule="nonzero"/></clipPath><clipPath id="20070036ea"><path d="M 139.027344 181.105469 L 237.066406 181.105469 L 237.066406 279.144531 L 139.027344 279.144531 Z M 139.027344 181.105469 " clip-rule="nonzero"/></clipPath><clipPath id="a79b1de8c7"><path d="M 188.046875 181.105469 C 160.976562 181.105469 139.027344 203.054688 139.027344 230.125 C 139.027344 257.199219 160.976562 279.144531 188.046875 279.144531 C 215.121094 279.144531 237.066406 257.199219 237.066406 230.125 C 237.066406 203.054688 215.121094 181.105469 188.046875 181.105469 Z M 188.046875 181.105469 " clip-rule="nonzero"/></clipPath><clipPath id="c9d25df77e"><path d="M 0.0273438 0.105469 L 98.066406 0.105469 L 98.066406 98.144531 L 0.0273438 98.144531 Z M 0.0273438 0.105469 " clip-rule="nonzero"/></clipPath><clipPath id="5126376430"><path d="M 49.046875 0.105469 C 21.976562 0.105469 0.0273438 22.054688 0.0273438 49.125 C 0.0273438 76.199219 21.976562 98.144531 49.046875 98.144531 C 76.121094 98.144531 98.066406 76.199219 98.066406 49.125 C 98.066406 22.054688 76.121094 0.105469 49.046875 0.105469 Z M 49.046875 0.105469 " clip-rule="nonzero"/></clipPath><clipPath id="7ac5692ff7"><rect x="0" width="99" y="0" height="99"/></clipPath><clipPath id="c1cf2505de"><path d="M 255.664062 187.027344 L 332.476562 187.027344 L 332.476562 237.320312 L 255.664062 237.320312 Z M 255.664062 187.027344 " clip-rule="nonzero"/></clipPath><clipPath id="c9f67c2e83"><path d="M 299.175781 187.027344 C 300.015625 187.027344 300.863281 187.027344 301.699219 187.027344 C 308.390625 187.867188 312.570312 190.660156 314.472656 195.238281 C 325.625 194.628906 333.730469 203.277344 328.789062 211.769531 C 330.433594 213.554688 331.804688 215.550781 332.300781 218.226562 C 332.300781 218.996094 332.300781 219.761719 332.300781 220.527344 C 330.824219 227.347656 324.476562 231.953125 314.054688 230.710938 C 311.371094 234.214844 306.601562 237.71875 299.175781 237.28125 C 295.339844 237.050781 292.667969 235.722656 290.332031 234.105469 C 287.871094 235.449219 285.203125 236.503906 281.351562 236.515625 C 272.4375 236.535156 266.476562 231.355469 266.332031 224.253906 C 260.601562 222.589844 256.71875 219.488281 255.664062 214.179688 C 255.664062 213.414062 255.664062 212.644531 255.664062 211.878906 C 256.828125 206.621094 260.5 203.316406 266.609375 201.917969 C 266.242188 193.042969 278.464844 187.5 288.507812 191.40625 C 290.898438 189.476562 294.277344 187.367188 299.175781 187.027344 Z M 299.175781 187.027344 " clip-rule="nonzero"/></clipPath><clipPath id="2ba83b8681"><path d="M 0.664062 0.0273438 L 77.476562 0.0273438 L 77.476562 50.320312 L 0.664062 50.320312 Z M 0.664062 0.0273438 " clip-rule="nonzero"/></clipPath><clipPath id="058876544f"><path d="M 44.175781 0.0273438 C 45.015625 0.0273438 45.863281 0.0273438 46.699219 0.0273438 C 53.390625 0.867188 57.570312 3.660156 59.472656 8.238281 C 70.625 7.628906 78.730469 16.277344 73.789062 24.769531 C 75.433594 26.554688 76.804688 28.550781 77.300781 31.226562 C 77.300781 31.996094 77.300781 32.761719 77.300781 33.527344 C 75.824219 40.347656 69.476562 44.953125 59.054688 43.710938 C 56.371094 47.214844 51.601562 50.71875 44.175781 50.28125 C 40.339844 50.050781 37.667969 48.722656 35.332031 47.105469 C 32.871094 48.449219 30.203125 49.503906 26.351562 49.515625 C 17.4375 49.535156 11.476562 44.355469 11.332031 37.253906 C 5.601562 35.589844 1.71875 32.488281 0.664062 27.179688 C 0.664062 26.414062 0.664062 25.644531 0.664062 24.878906 C 1.828125 19.621094 5.5 16.316406 11.609375 14.917969 C 11.242188 6.042969 23.464844 0.5 33.507812 4.40625 C 35.898438 2.476562 39.277344 0.367188 44.175781 0.0273438 Z M 44.175781 0.0273438 " clip-rule="nonzero"/></clipPath><clipPath id="70caaa5be3"><rect x="0" width="78" y="0" height="51"/></clipPath><clipPath id="4329e61292"><path d="M 96.917969 217.8125 L 182.40625 217.8125 L 182.40625 273.785156 L 96.917969 273.785156 Z M 96.917969 217.8125 " clip-rule="nonzero"/></clipPath><clipPath id="0d320c51a0"><path d="M 145.34375 217.8125 C 146.277344 217.8125 147.21875 217.8125 148.152344 217.8125 C 155.597656 218.746094 160.25 221.859375 162.367188 226.949219 C 174.777344 226.273438 183.800781 235.898438 178.300781 245.351562 C 180.128906 247.335938 181.65625 249.558594 182.207031 252.539062 C 182.207031 253.390625 182.207031 254.242188 182.207031 255.097656 C 180.566406 262.683594 173.5 267.8125 161.902344 266.433594 C 158.917969 270.328125 153.609375 274.230469 145.34375 273.742188 C 141.074219 273.488281 138.101562 272.007812 135.5 270.207031 C 132.761719 271.703125 129.792969 272.875 125.503906 272.890625 C 115.585938 272.910156 108.949219 267.148438 108.789062 259.242188 C 102.410156 257.390625 98.09375 253.941406 96.917969 248.03125 C 96.917969 247.179688 96.917969 246.324219 96.917969 245.472656 C 98.214844 239.621094 102.296875 235.941406 109.097656 234.382812 C 108.691406 224.507812 122.292969 218.339844 133.46875 222.6875 C 136.128906 220.539062 139.894531 218.191406 145.34375 217.8125 Z M 145.34375 217.8125 " clip-rule="nonzero"/></clipPath><clipPath id="e7d7f055a6"><path d="M 0.917969 0.8125 L 86.40625 0.8125 L 86.40625 56.785156 L 0.917969 56.785156 Z M 0.917969 0.8125 " clip-rule="nonzero"/></clipPath><clipPath id="368daf1ca4"><path d="M 49.34375 0.8125 C 50.277344 0.8125 51.21875 0.8125 52.152344 0.8125 C 59.597656 1.746094 64.25 4.859375 66.367188 9.949219 C 78.777344 9.273438 87.800781 18.898438 82.300781 28.351562 C 84.128906 30.335938 85.65625 32.558594 86.207031 35.539062 C 86.207031 36.390625 86.207031 37.242188 86.207031 38.097656 C 84.566406 45.683594 77.5 50.8125 65.902344 49.433594 C 62.917969 53.328125 57.609375 57.230469 49.34375 56.742188 C 45.074219 56.488281 42.101562 55.007812 39.5 53.207031 C 36.761719 54.703125 33.792969 55.875 29.503906 55.890625 C 19.585938 55.910156 12.949219 50.148438 12.789062 42.242188 C 6.410156 40.390625 2.09375 36.941406 0.917969 31.03125 C 0.917969 30.179688 0.917969 29.324219 0.917969 28.472656 C 2.214844 22.621094 6.296875 18.941406 13.097656 17.382812 C 12.691406 7.507812 26.292969 1.339844 37.46875 5.6875 C 40.128906 3.539062 43.894531 1.191406 49.34375 0.8125 Z M 49.34375 0.8125 " clip-rule="nonzero"/></clipPath><clipPath id="8af55c0f56"><rect x="0" width="87" y="0" height="57"/></clipPath><clipPath id="e4e0d11dd7"><path d="M 213.28125 217.8125 L 298.769531 217.8125 L 298.769531 273.785156 L 213.28125 273.785156 Z M 213.28125 217.8125 " clip-rule="nonzero"/></clipPath><clipPath id="4058182213"><path d="M 261.707031 217.8125 C 262.640625 217.8125 263.582031 217.8125 264.515625 217.8125 C 271.960938 218.746094 276.613281 221.859375 278.730469 226.949219 C 291.140625 226.273438 300.164062 235.898438 294.667969 245.351562 C 296.496094 247.335938 298.019531 249.558594 298.570312 252.539062 C 298.570312 253.390625 298.570312 254.242188 298.570312 255.097656 C 296.929688 262.683594 289.863281 267.8125 278.265625 266.433594 C 275.28125 270.328125 269.972656 274.230469 261.707031 273.742188 C 257.4375 273.488281 254.464844 272.007812 251.863281 270.207031 C 249.125 271.703125 246.15625 272.875 241.871094 272.890625 C 231.949219 272.910156 225.3125 267.148438 225.152344 259.242188 C 218.777344 257.390625 214.457031 253.941406 213.28125 248.03125 C 213.28125 247.179688 213.28125 246.324219 213.28125 245.472656 C 214.578125 239.621094 218.664062 235.941406 225.464844 234.382812 C 225.054688 224.507812 238.65625 218.339844 249.832031 222.6875 C 252.492188 220.539062 256.257812 218.191406 261.707031 217.8125 Z M 261.707031 217.8125 " clip-rule="nonzero"/></clipPath><clipPath id="ed0ada99ac"><path d="M 0.28125 0.8125 L 85.769531 0.8125 L 85.769531 56.785156 L 0.28125 56.785156 Z M 0.28125 0.8125 " clip-rule="nonzero"/></clipPath><clipPath id="996e816d21"><path d="M 48.707031 0.8125 C 49.640625 0.8125 50.582031 0.8125 51.515625 0.8125 C 58.960938 1.746094 63.613281 4.859375 65.730469 9.949219 C 78.140625 9.273438 87.164062 18.898438 81.667969 28.351562 C 83.496094 30.335938 85.019531 32.558594 85.570312 35.539062 C 85.570312 36.390625 85.570312 37.242188 85.570312 38.097656 C 83.929688 45.683594 76.863281 50.8125 65.265625 49.433594 C 62.28125 53.328125 56.972656 57.230469 48.707031 56.742188 C 44.4375 56.488281 41.464844 55.007812 38.863281 53.207031 C 36.125 54.703125 33.15625 55.875 28.871094 55.890625 C 18.949219 55.910156 12.3125 50.148438 12.152344 42.242188 C 5.777344 40.390625 1.457031 36.941406 0.28125 31.03125 C 0.28125 30.179688 0.28125 29.324219 0.28125 28.472656 C 1.578125 22.621094 5.664062 18.941406 12.464844 17.382812 C 12.054688 7.507812 25.65625 1.339844 36.832031 5.6875 C 39.492188 3.539062 43.257812 1.191406 48.707031 0.8125 Z M 48.707031 0.8125 " clip-rule="nonzero"/></clipPath><clipPath id="48541a6d6e"><rect x="0" width="86" y="0" height="57"/></clipPath></defs><g clip-path="url(#e1e9948ddc)"><g clip-path="url(#c8fc1583ac)"><g transform="matrix(1, 0, 0, 1, 195, 94)"><g clip-path="url(#c7f5c75334)"><g clip-path="url(#1f1bdf801b)"><g clip-path="url(#08406c50d5)"><path fill="#d9d9d9" d="M 0.0507812 0.816406 L 62.882812 0.816406 L 62.882812 63.644531 L 0.0507812 63.644531 Z M 0.0507812 0.816406 " fill-opacity="1" fill-rule="nonzero"/></g></g></g></g></g></g><g clip-path="url(#b2093e8bc8)"><g clip-path="url(#0dc959e23b)"><path stroke-linecap="butt" transform="matrix(0.75, 0, 0, 0.75, 195.052081, 94.814687)" fill="none" stroke-linejoin="miter" d="M 22.998268 0.0022929 L 60.769104 0.0022929 C 66.868063 0.0022929 72.717021 2.424168 77.029522 6.736668 C 81.342022 11.049169 83.763897 16.898127 83.763897 22.997086 L 83.763897 60.767922 C 83.763897 66.866881 81.342022 72.715839 77.029522 77.02834 C 72.717021 81.34084 66.868063 83.767923 60.769104 83.767923 L 22.998268 83.767923 C 16.899309 83.767923 11.050351 81.34084 6.73785 77.02834 C 2.42535 72.715839 -0.00173339 66.866881 -0.00173339 60.767922 L -0.00173339 22.997086 C -0.00173339 16.898127 2.42535 11.049169 6.73785 6.736668 C 11.050351 2.424168 16.899309 0.0022929 22.998268 0.0022929 Z M 22.998268 0.0022929 " stroke="#000000" stroke-width="4" stroke-opacity="1" stroke-miterlimit="4"/></g></g><g clip-path="url(#970f7c8af2)"><g clip-path="url(#4e42a2b4ca)"><g transform="matrix(1, 0, 0, 1, 156, 300)"><g clip-path="url(#c0f1e4914e)"><g clip-path="url(#cf5aef35a1)"><g clip-path="url(#e1fabd896e)"><path fill="#38b6ff" d="M 0.535156 0.839844 L 63.367188 0.839844 L 63.367188 63.671875 L 0.535156 63.671875 Z M 0.535156 0.839844 " fill-opacity="1" fill-rule="nonzero"/></g></g></g></g></g></g><g clip-path="url(#cc2c6880b9)"><g clip-path="url(#15585be6fc)"><path stroke-linecap="butt" transform="matrix(0.75, 0, 0, 0.75, 156.534589, 300.838895)" fill="none" stroke-linejoin="miter" d="M 22.995549 0.00126441 L 60.766385 0.00126441 C 66.865343 0.00126441 72.719511 2.42314 77.032011 6.73564 C 81.344511 11.04814 83.766386 16.897099 83.766386 22.996058 L 83.766386 60.766893 C 83.766386 66.865852 81.344511 72.714811 77.032011 77.027311 C 72.719511 81.34502 66.865343 83.766895 60.766385 83.766895 L 22.995549 83.766895 C 16.89659 83.766895 11.047631 81.34502 6.735131 77.027311 C 2.422631 72.714811 0.000755772 66.865852 0.000755772 60.766893 L 0.000755772 22.996058 C 0.000755772 16.897099 2.422631 11.04814 6.735131 6.73564 C 11.047631 2.42314 16.89659 0.00126441 22.995549 0.00126441 Z M 22.995549 0.00126441 " stroke="#000000" stroke-width="4" stroke-opacity="1" stroke-miterlimit="4"/></g></g><g clip-path="url(#222559dece)"><g clip-path="url(#10cb025c6a)"><g transform="matrix(1, 0, 0, 1, 155, 20)"><g clip-path="url(#82d6f97afa)"><g clip-path="url(#4623142ca9)"><g clip-path="url(#3c649c7110)"><path fill="#d9d9d9" d="M 0.738281 0.492188 L 63.570312 0.492188 L 63.570312 63.324219 L 0.738281 63.324219 Z M 0.738281 0.492188 " fill-opacity="1" fill-rule="nonzero"/></g></g></g></g></g></g><g clip-path="url(#ed6c9b8637)"><g clip-path="url(#892c2d140a)"><path stroke-linecap="butt" transform="matrix(0.75, 0, 0, 0.75, 155.738812, 20.49187)" fill="none" stroke-linejoin="miter" d="M 22.999294 0.000423421 L 60.77013 0.000423421 C 66.869089 0.000423421 72.718047 2.422299 77.030548 6.734799 C 81.343048 11.047299 83.764923 16.896258 83.764923 22.995217 L 83.764923 60.766052 C 83.764923 66.865011 81.343048 72.719178 77.030548 77.031678 C 72.718047 81.344179 66.869089 83.766054 60.77013 83.766054 L 22.999294 83.766054 C 16.900335 83.766054 11.046168 81.344179 6.733668 77.031678 C 2.421168 72.719178 -0.000707498 66.865011 -0.000707498 60.766052 L -0.000707498 22.995217 C -0.000707498 16.896258 2.421168 11.047299 6.733668 6.734799 C 11.046168 2.422299 16.900335 0.000423421 22.999294 0.000423421 Z M 22.999294 0.000423421 " stroke="#000000" stroke-width="4" stroke-opacity="1" stroke-miterlimit="4"/></g></g><g clip-path="url(#fa05be010c)"><g clip-path="url(#ace14d4643)"><g transform="matrix(1, 0, 0, 1, 78, 21)"><g clip-path="url(#6f31725123)"><g clip-path="url(#ed83d3a60c)"><g clip-path="url(#c43b7c3fcc)"><path fill="#d9d9d9" d="M 0.628906 0.242188 L 63.460938 0.242188 L 63.460938 63.074219 L 0.628906 63.074219 Z M 0.628906 0.242188 " fill-opacity="1" fill-rule="nonzero"/></g></g></g></g></g></g><g clip-path="url(#9daa2d8585)"><g clip-path="url(#ff990ffc80)"><path stroke-linecap="butt" transform="matrix(0.75, 0, 0, 0.75, 78.628725, 21.24187)" fill="none" stroke-linejoin="miter" d="M 22.995035 0.000423487 L 60.765871 0.000423487 C 66.870038 0.000423487 72.718997 2.422299 77.031497 6.734799 C 81.343997 11.047299 83.765872 16.896258 83.765872 22.995217 L 83.765872 60.766052 C 83.765872 66.865011 81.343997 72.719178 77.031497 77.031679 C 72.718997 81.344179 66.870038 83.766054 60.765871 83.766054 L 22.995035 83.766054 C 16.896076 83.766054 11.047117 81.344179 6.734617 77.031679 C 2.422117 72.719178 0.000241751 66.865011 0.000241751 60.766052 L 0.000241751 22.995217 C 0.000241751 16.896258 2.422117 11.047299 6.734617 6.734799 C 11.047117 2.422299 16.896076 0.000423487 22.995035 0.000423487 Z M 22.995035 0.000423487 " stroke="#000000" stroke-width="4" stroke-opacity="1" stroke-miterlimit="4"/></g></g><g clip-path="url(#ce41725ca1)"><g clip-path="url(#fe0e575180)"><g transform="matrix(1, 0, 0, 1, 235, 21)"><g clip-path="url(#b63b99b9b6)"><g clip-path="url(#502f0df548)"><g clip-path="url(#bd3f7cb840)"><path fill="#d9d9d9" d="M 0.617188 0.242188 L 63.449219 0.242188 L 63.449219 63.074219 L 0.617188 63.074219 Z M 0.617188 0.242188 " fill-opacity="1" fill-rule="nonzero"/></g></g></g></g></g></g><g clip-path="url(#3a488d994d)"><g clip-path="url(#86efedb716)"><path stroke-linecap="butt" transform="matrix(0.75, 0, 0, 0.75, 235.616209, 21.24187)" fill="none" stroke-linejoin="miter" d="M 22.996098 0.000423487 L 60.766934 0.000423487 C 66.865892 0.000423487 72.714851 2.422299 77.027351 6.734799 C 81.34506 11.047299 83.766935 16.896258 83.766935 22.995217 L 83.766935 60.766052 C 83.766935 66.865011 81.34506 72.719178 77.027351 77.031679 C 72.714851 81.344179 66.865892 83.766054 60.766934 83.766054 L 22.996098 83.766054 C 16.897139 83.766054 11.04818 81.344179 6.73568 77.031679 C 2.42318 72.719178 0.00130463 66.865011 0.00130463 60.766052 L 0.00130463 22.995217 C 0.00130463 16.896258 2.42318 11.047299 6.73568 6.734799 C 11.04818 2.422299 16.897139 0.000423487 22.996098 0.000423487 Z M 22.996098 0.000423487 " stroke="#000000" stroke-width="4" stroke-opacity="1" stroke-miterlimit="4"/></g></g><g clip-path="url(#7679d7e57e)"><g clip-path="url(#8996c7057a)"><g transform="matrix(1, 0, 0, 1, 119, 93)"><g clip-path="url(#8612513df6)"><g clip-path="url(#88c804c58e)"><g clip-path="url(#95f03a1ccb)"><path fill="#d9d9d9" d="M 0.347656 0.855469 L 63.179688 0.855469 L 63.179688 63.683594 L 0.347656 63.683594 Z M 0.347656 0.855469 " fill-opacity="1" fill-rule="nonzero"/></g></g></g></g></g></g><g clip-path="url(#023567d40d)"><g clip-path="url(#0c190a66e0)"><path stroke-linecap="butt" transform="matrix(0.75, 0, 0, 0.75, 119.347168, 93.854348)" fill="none" stroke-linejoin="miter" d="M 22.995444 0.00149402 L 60.76628 0.00149402 C 66.865239 0.00149402 72.719406 2.423369 77.031906 6.735869 C 81.344407 11.04837 83.766282 16.897328 83.766282 22.996287 L 83.766282 60.767123 C 83.766282 66.866082 81.344407 72.71504 77.031906 77.027541 C 72.719406 81.345249 66.865239 83.767125 60.76628 83.767125 L 22.995444 83.767125 C 16.896486 83.767125 11.047527 81.345249 6.735027 77.027541 C 2.422526 72.71504 0.000651183 66.866082 0.000651183 60.767123 L 0.000651183 22.996287 C 0.000651183 16.897328 2.422526 11.04837 6.735027 6.735869 C 11.047527 2.423369 16.896486 0.00149402 22.995444 0.00149402 Z M 22.995444 0.00149402 " stroke="#000000" stroke-width="4" stroke-opacity="1" stroke-miterlimit="4"/></g></g><g clip-path="url(#0635cc17b5)"><g clip-path="url(#29df17469f)"><g transform="matrix(1, 0, 0, 1, 37, 179)"><g clip-path="url(#f52047c622)"><g clip-path="url(#e87ef3721d)"><g clip-path="url(#1c9d6390ef)"><path fill="#a5deff" d="M 0.5 0.664062 L 300.519531 0.664062 L 300.519531 101.589844 L 0.5 101.589844 Z M 0.5 0.664062 " fill-opacity="1" fill-rule="nonzero"/></g></g></g></g></g></g><g clip-path="url(#755e4067b8)"><g clip-path="url(#da946ae84b)"><path stroke-linecap="butt" transform="matrix(0.75, 0, 0, 0.75, 37.506228, 179.662855)" fill="none" stroke-linejoin="miter" d="M 22.996906 0.00160946 L 376.986513 0.00160946 C 383.085472 0.00160946 388.93443 2.423485 393.246931 6.735985 C 397.559431 11.048485 399.981306 16.897444 399.981306 23.001611 L 399.981306 111.564117 C 399.981306 117.663076 397.559431 123.512034 393.246931 127.824535 C 388.93443 132.137035 383.085472 134.564118 376.986513 134.564118 L 22.996906 134.564118 C 16.897948 134.564118 11.048989 132.137035 6.736489 127.824535 C 2.423988 123.512034 0.00211315 117.663076 0.00211315 111.564117 L 0.00211315 23.001611 C 0.00211315 16.897444 2.423988 11.048485 6.736489 6.735985 C 11.048989 2.423485 16.897948 0.00160946 22.996906 0.00160946 Z M 22.996906 0.00160946 " stroke="#000000" stroke-width="4" stroke-opacity="1" stroke-miterlimit="4"/></g></g><g clip-path="url(#20070036ea)"><g clip-path="url(#a79b1de8c7)"><g transform="matrix(1, 0, 0, 1, 139, 181)"><g clip-path="url(#7ac5692ff7)"><g clip-path="url(#c9d25df77e)"><g clip-path="url(#5126376430)"><path fill="#ffde59" d="M 0.0273438 0.105469 L 98.066406 0.105469 L 98.066406 98.144531 L 0.0273438 98.144531 Z M 0.0273438 0.105469 " fill-opacity="1" fill-rule="nonzero"/></g></g></g></g></g></g><g clip-path="url(#c1cf2505de)"><g clip-path="url(#c9f67c2e83)"><g transform="matrix(1, 0, 0, 1, 255, 187)"><g clip-path="url(#70caaa5be3)"><g clip-path="url(#2ba83b8681)"><g clip-path="url(#058876544f)"><path fill="#ffffff" d="M 0.664062 0.0273438 L 77.28125 0.0273438 L 77.28125 50.320312 L 0.664062 50.320312 Z M 0.664062 0.0273438 " fill-opacity="1" fill-rule="nonzero"/></g></g></g></g></g></g><g clip-path="url(#4329e61292)"><g clip-path="url(#0d320c51a0)"><g transform="matrix(1, 0, 0, 1, 96, 217)"><g clip-path="url(#8af55c0f56)"><g clip-path="url(#e7d7f055a6)"><g clip-path="url(#368daf1ca4)"><path fill="#ffffff" d="M 0.917969 0.8125 L 86.1875 0.8125 L 86.1875 56.785156 L 0.917969 56.785156 Z M 0.917969 0.8125 " fill-opacity="1" fill-rule="nonzero"/></g></g></g></g></g></g><g clip-path="url(#e4e0d11dd7)"><g clip-path="url(#4058182213)"><g transform="matrix(1, 0, 0, 1, 213, 217)"><g clip-path="url(#48541a6d6e)"><g clip-path="url(#ed0ada99ac)"><g clip-path="url(#996e816d21)"><path fill="#ffffff" d="M 0.28125 0.8125 L 85.550781 0.8125 L 85.550781 56.785156 L 0.28125 56.785156 Z M 0.28125 0.8125 " fill-opacity="1" fill-rule="nonzero"/></g></g></g></g></g></g><g fill="#000000" fill-opacity="1"><g transform="translate(50.395754, 244.818997)"><g><path d="M 21.375 -45.40625 C 24.9375 -45.40625 28.191406 -44.519531 31.140625 -42.75 C 34.085938 -40.976562 36.1875 -38.664062 37.4375 -35.8125 C 37.625 -35.394531 37.71875 -34.96875 37.71875 -34.53125 C 37.71875 -33.675781 37.410156 -32.941406 36.796875 -32.328125 C 36.179688 -31.710938 35.445312 -31.40625 34.59375 -31.40625 C 34.03125 -31.40625 33.460938 -31.585938 32.890625 -31.953125 C 32.316406 -32.316406 31.925781 -32.757812 31.71875 -33.28125 C 30.925781 -35.09375 29.609375 -36.523438 27.765625 -37.578125 C 25.921875 -38.628906 23.789062 -39.15625 21.375 -39.15625 C 20.144531 -39.15625 18.878906 -39.003906 17.578125 -38.703125 C 16.273438 -38.398438 15.046875 -37.960938 13.890625 -37.390625 C 12.734375 -36.816406 11.785156 -36.0625 11.046875 -35.125 C 10.304688 -34.1875 9.9375 -33.15625 9.9375 -32.03125 C 9.9375 -31.132812 10.226562 -30.332031 10.8125 -29.625 C 11.394531 -28.914062 12.113281 -28.34375 12.96875 -27.90625 C 14.488281 -27.132812 16.410156 -26.539062 18.734375 -26.125 C 21.054688 -25.707031 23.4375 -25.296875 25.875 -24.890625 C 28.3125 -24.484375 30.332031 -23.9375 31.9375 -23.25 C 34.039062 -22.332031 35.789062 -21.023438 37.1875 -19.328125 C 38.582031 -17.628906 39.28125 -15.5625 39.28125 -13.125 C 39.28125 -11.351562 38.910156 -9.703125 38.171875 -8.171875 C 37.429688 -6.640625 36.457031 -5.34375 35.25 -4.28125 C 34.039062 -3.21875 32.648438 -2.304688 31.078125 -1.546875 C 29.503906 -0.785156 27.890625 -0.226562 26.234375 0.125 C 24.578125 0.476562 22.9375 0.65625 21.3125 0.65625 C 17.226562 0.65625 13.570312 -0.300781 10.34375 -2.21875 C 7.113281 -4.132812 4.800781 -6.707031 3.40625 -9.9375 C 3.21875 -10.351562 3.125 -10.769531 3.125 -11.1875 C 3.125 -12.039062 3.429688 -12.773438 4.046875 -13.390625 C 4.660156 -14.003906 5.394531 -14.3125 6.25 -14.3125 C 6.832031 -14.3125 7.40625 -14.125 7.96875 -13.75 C 8.53125 -13.375 8.914062 -12.925781 9.125 -12.40625 C 10.019531 -10.300781 11.566406 -8.640625 13.765625 -7.421875 C 15.960938 -6.203125 18.476562 -5.59375 21.3125 -5.59375 C 23.1875 -5.59375 24.984375 -5.847656 26.703125 -6.359375 C 28.421875 -6.867188 29.898438 -7.71875 31.140625 -8.90625 C 32.378906 -10.09375 33 -11.5 33 -13.125 C 33 -14.125 32.660156 -14.992188 31.984375 -15.734375 C 31.304688 -16.472656 30.46875 -17.0625 29.46875 -17.5 C 27.84375 -18.1875 25.8125 -18.734375 23.375 -19.140625 C 20.9375 -19.546875 18.535156 -19.96875 16.171875 -20.40625 C 13.804688 -20.84375 11.800781 -21.476562 10.15625 -22.3125 C 8.28125 -23.25 6.726562 -24.53125 5.5 -26.15625 C 4.269531 -27.78125 3.65625 -29.738281 3.65625 -32.03125 C 3.65625 -33.695312 4.003906 -35.265625 4.703125 -36.734375 C 5.398438 -38.203125 6.335938 -39.457031 7.515625 -40.5 C 8.691406 -41.539062 10.046875 -42.4375 11.578125 -43.1875 C 13.109375 -43.9375 14.707031 -44.492188 16.375 -44.859375 C 18.039062 -45.222656 19.707031 -45.40625 21.375 -45.40625 Z M 21.375 -45.40625 "/></g></g></g><g fill="#000000" fill-opacity="1"><g transform="translate(92.799419, 244.818997)"><g><path d="M 19.46875 -34.375 C 21.65625 -34.375 23.816406 -33.75 25.953125 -32.5 C 28.085938 -31.25 29.601562 -29.84375 30.5 -28.28125 L 30.84375 -31.28125 C 30.84375 -32.15625 31.097656 -32.894531 31.609375 -33.5 C 32.117188 -34.101562 32.789062 -34.40625 33.625 -34.40625 C 34.476562 -34.40625 35.210938 -34.097656 35.828125 -33.484375 C 36.441406 -32.867188 36.75 -32.132812 36.75 -31.28125 L 36.75 -31.21875 L 36.6875 -2.28125 C 36.6875 -1.425781 36.378906 -0.691406 35.765625 -0.078125 C 35.148438 0.535156 34.414062 0.84375 33.5625 0.84375 C 32.726562 0.84375 32.054688 0.539062 31.546875 -0.0625 C 31.035156 -0.664062 30.78125 -1.40625 30.78125 -2.28125 L 30.4375 -4.78125 C 29.394531 -3.007812 27.851562 -1.648438 25.8125 -0.703125 C 23.769531 0.242188 21.632812 0.71875 19.40625 0.71875 C 16.320312 0.71875 13.46875 -0.0820312 10.84375 -1.6875 C 8.21875 -3.289062 6.144531 -5.429688 4.625 -8.109375 C 3.101562 -10.785156 2.34375 -13.664062 2.34375 -16.75 C 2.34375 -19.8125 3.082031 -22.691406 4.5625 -25.390625 C 6.039062 -28.085938 8.109375 -30.257812 10.765625 -31.90625 C 13.421875 -33.550781 16.320312 -34.375 19.46875 -34.375 Z M 30.25 -16.8125 C 30.25 -19.894531 29.207031 -22.550781 27.125 -24.78125 C 25.039062 -27.007812 22.46875 -28.125 19.40625 -28.125 C 16.382812 -28.125 13.816406 -27.003906 11.703125 -24.765625 C 9.585938 -22.523438 8.53125 -19.882812 8.53125 -16.84375 C 8.53125 -13.78125 9.597656 -11.128906 11.734375 -8.890625 C 13.867188 -6.648438 16.4375 -5.53125 19.4375 -5.53125 C 22.414062 -5.53125 24.960938 -6.648438 27.078125 -8.890625 C 29.191406 -11.128906 30.25 -13.769531 30.25 -16.8125 Z M 30.25 -16.8125 "/></g></g></g><g fill="#000000" fill-opacity="1"><g transform="translate(132.671982, 244.818997)"><g><path d="M 7.8125 -39.8125 C 7.8125 -40.664062 8.113281 -41.398438 8.71875 -42.015625 C 9.320312 -42.628906 10.0625 -42.9375 10.9375 -42.9375 C 11.789062 -42.9375 12.523438 -42.628906 13.140625 -42.015625 C 13.753906 -41.398438 14.0625 -40.664062 14.0625 -39.8125 L 14.0625 -33.59375 L 18.25 -33.59375 C 19.0625 -33.59375 19.757812 -33.300781 20.34375 -32.71875 C 20.925781 -32.132812 21.21875 -31.4375 21.21875 -30.625 C 21.21875 -29.8125 20.925781 -29.113281 20.34375 -28.53125 C 19.757812 -27.945312 19.0625 -27.65625 18.25 -27.65625 L 14.03125 -27.65625 L 14 -8.3125 L 14 -8.25 C 14 -7.207031 14.113281 -6.5 14.34375 -6.125 C 14.570312 -5.75 15.039062 -5.5625 15.75 -5.5625 C 16.644531 -5.5625 17.4375 -5.800781 18.125 -6.28125 C 18.769531 -6.71875 19.414062 -6.9375 20.0625 -6.9375 C 20.914062 -6.9375 21.648438 -6.632812 22.265625 -6.03125 C 22.878906 -5.425781 23.1875 -4.695312 23.1875 -3.84375 C 23.1875 -2.820312 22.769531 -2 21.9375 -1.375 C 20.101562 0.0195312 18.101562 0.71875 15.9375 0.71875 C 13.375 0.71875 11.367188 -0.0664062 9.921875 -1.640625 C 8.472656 -3.210938 7.75 -5.25 7.75 -7.75 L 7.75 -8.03125 L 7.78125 -27.625 L 3.75 -27.625 C 2.9375 -27.625 2.238281 -27.914062 1.65625 -28.5 C 1.070312 -29.082031 0.78125 -29.78125 0.78125 -30.59375 C 0.78125 -31.40625 1.070312 -32.101562 1.65625 -32.6875 C 2.238281 -33.269531 2.9375 -33.5625 3.75 -33.5625 L 7.8125 -33.5625 Z M 7.8125 -39.8125 "/></g></g></g><g fill="#000000" fill-opacity="1"><g transform="translate(156.60802, 244.818997)"><g><path d="M 24.75 -4.21875 C 23.789062 -3.28125 22.929688 -2.507812 22.171875 -1.90625 C 21.410156 -1.300781 20.382812 -0.71875 19.09375 -0.15625 C 17.800781 0.40625 16.507812 0.6875 15.21875 0.6875 C 12.65625 0.6875 10.445312 0.0078125 8.59375 -1.34375 C 6.738281 -2.695312 5.34375 -4.425781 4.40625 -6.53125 C 3.46875 -8.65625 3 -11.5625 3 -15.25 L 3 -31.03125 C 3 -31.882812 3.304688 -32.617188 3.921875 -33.234375 C 4.535156 -33.847656 5.269531 -34.15625 6.125 -34.15625 C 6.976562 -34.15625 7.710938 -33.847656 8.328125 -33.234375 C 8.941406 -32.617188 9.25 -31.882812 9.25 -31.03125 L 9.25 -15.25 C 9.25 -12.4375 9.539062 -10.382812 10.125 -9.09375 C 10.582031 -8.070312 11.238281 -7.226562 12.09375 -6.5625 C 12.945312 -5.894531 13.96875 -5.5625 15.15625 -5.5625 C 18.195312 -5.5625 20.554688 -6.726562 22.234375 -9.0625 C 23.910156 -11.394531 24.738281 -14.582031 24.71875 -18.625 L 24.6875 -31.09375 C 24.6875 -31.945312 24.992188 -32.679688 25.609375 -33.296875 C 26.222656 -33.910156 26.957031 -34.21875 27.8125 -34.21875 C 28.6875 -34.21875 29.425781 -33.910156 30.03125 -33.296875 C 30.632812 -32.679688 30.9375 -31.9375 30.9375 -31.0625 L 31 -2.34375 C 31 -1.445312 30.757812 -0.703125 30.28125 -0.109375 C 29.800781 0.484375 29.144531 0.78125 28.3125 0.78125 C 26.875 0.78125 25.863281 -0.257812 25.28125 -2.34375 Z M 24.75 -4.21875 "/></g></g></g><g fill="#000000" fill-opacity="1"><g transform="translate(190.543446, 244.818997)"><g><path d="M 23.84375 -30.28125 C 23.84375 -28.632812 23.039062 -27.707031 21.4375 -27.5 C 21.0625 -27.457031 20.300781 -27.65625 19.15625 -28.09375 C 18.007812 -28.53125 17.125 -28.75 16.5 -28.75 C 13.9375 -28.75 12.082031 -27.8125 10.9375 -25.9375 C 9.789062 -24.0625 9.21875 -21.539062 9.21875 -18.375 L 9.21875 -2.25 C 9.21875 -1.332031 8.9375 -0.601562 8.375 -0.0625 C 7.8125 0.476562 7.050781 0.75 6.09375 0.75 C 5.132812 0.75 4.375 0.476562 3.8125 -0.0625 C 3.25 -0.601562 2.96875 -1.34375 2.96875 -2.28125 L 2.96875 -31.0625 C 2.96875 -32.019531 3.207031 -32.796875 3.6875 -33.390625 C 4.164062 -33.984375 4.800781 -34.28125 5.59375 -34.28125 C 6.175781 -34.28125 6.757812 -34.054688 7.34375 -33.609375 C 7.925781 -33.160156 8.34375 -32.488281 8.59375 -31.59375 L 8.90625 -29.34375 C 9.382812 -30.382812 10.378906 -31.460938 11.890625 -32.578125 C 13.398438 -33.691406 14.945312 -34.25 16.53125 -34.25 C 18.925781 -34.25 20.742188 -33.972656 21.984375 -33.421875 C 23.222656 -32.867188 23.84375 -31.820312 23.84375 -30.28125 Z M 23.84375 -30.28125 "/></g></g></g><g fill="#000000" fill-opacity="1"><g transform="translate(213.604503, 244.818997)"><g><path d="M 1.5625 -16.8125 C 1.5625 -19.207031 2.003906 -21.519531 2.890625 -23.75 C 3.773438 -25.976562 5.0625 -27.925781 6.75 -29.59375 C 8.269531 -31.070312 10.019531 -32.21875 12 -33.03125 C 13.976562 -33.84375 16.03125 -34.25 18.15625 -34.25 C 22.113281 -34.25 25.550781 -32.550781 28.46875 -29.15625 L 28.46875 -42.3125 C 28.46875 -43.164062 28.773438 -43.898438 29.390625 -44.515625 C 30.003906 -45.128906 30.738281 -45.4375 31.59375 -45.4375 C 32.445312 -45.4375 33.179688 -45.128906 33.796875 -44.515625 C 34.410156 -43.898438 34.71875 -43.164062 34.71875 -42.3125 L 34.71875 -2.40625 C 34.71875 -1.550781 34.410156 -0.816406 33.796875 -0.203125 C 33.179688 0.410156 32.445312 0.71875 31.59375 0.71875 C 30.070312 0.71875 29.15625 -0.320312 28.84375 -2.40625 L 28.46875 -4.9375 C 27.300781 -3.269531 25.75 -1.9375 23.8125 -0.9375 C 21.875 0.0625 19.914062 0.5625 17.9375 0.5625 C 14.875 0.5625 12.082031 -0.242188 9.5625 -1.859375 C 7.039062 -3.472656 5.078125 -5.601562 3.671875 -8.25 C 2.265625 -10.894531 1.5625 -13.75 1.5625 -16.8125 Z M 17.875 -5.6875 C 19.226562 -5.6875 20.570312 -5.984375 21.90625 -6.578125 C 23.238281 -7.171875 24.375 -7.988281 25.3125 -9.03125 C 26.25 -10.050781 26.972656 -11.265625 27.484375 -12.671875 C 27.992188 -14.078125 28.25 -15.507812 28.25 -16.96875 C 28.25 -20.03125 27.28125 -22.648438 25.34375 -24.828125 C 23.40625 -27.003906 20.96875 -28.09375 18.03125 -28.09375 C 15.15625 -28.09375 12.726562 -26.957031 10.75 -24.6875 C 8.769531 -22.414062 7.78125 -19.789062 7.78125 -16.8125 C 7.78125 -13.832031 8.753906 -11.234375 10.703125 -9.015625 C 12.648438 -6.796875 15.039062 -5.6875 17.875 -5.6875 Z M 17.875 -5.6875 "/></g></g></g><g fill="#000000" fill-opacity="1"><g transform="translate(251.445957, 244.818997)"><g><path d="M 19.46875 -34.375 C 21.65625 -34.375 23.816406 -33.75 25.953125 -32.5 C 28.085938 -31.25 29.601562 -29.84375 30.5 -28.28125 L 30.84375 -31.28125 C 30.84375 -32.15625 31.097656 -32.894531 31.609375 -33.5 C 32.117188 -34.101562 32.789062 -34.40625 33.625 -34.40625 C 34.476562 -34.40625 35.210938 -34.097656 35.828125 -33.484375 C 36.441406 -32.867188 36.75 -32.132812 36.75 -31.28125 L 36.75 -31.21875 L 36.6875 -2.28125 C 36.6875 -1.425781 36.378906 -0.691406 35.765625 -0.078125 C 35.148438 0.535156 34.414062 0.84375 33.5625 0.84375 C 32.726562 0.84375 32.054688 0.539062 31.546875 -0.0625 C 31.035156 -0.664062 30.78125 -1.40625 30.78125 -2.28125 L 30.4375 -4.78125 C 29.394531 -3.007812 27.851562 -1.648438 25.8125 -0.703125 C 23.769531 0.242188 21.632812 0.71875 19.40625 0.71875 C 16.320312 0.71875 13.46875 -0.0820312 10.84375 -1.6875 C 8.21875 -3.289062 6.144531 -5.429688 4.625 -8.109375 C 3.101562 -10.785156 2.34375 -13.664062 2.34375 -16.75 C 2.34375 -19.8125 3.082031 -22.691406 4.5625 -25.390625 C 6.039062 -28.085938 8.109375 -30.257812 10.765625 -31.90625 C 13.421875 -33.550781 16.320312 -34.375 19.46875 -34.375 Z M 30.25 -16.8125 C 30.25 -19.894531 29.207031 -22.550781 27.125 -24.78125 C 25.039062 -27.007812 22.46875 -28.125 19.40625 -28.125 C 16.382812 -28.125 13.816406 -27.003906 11.703125 -24.765625 C 9.585938 -22.523438 8.53125 -19.882812 8.53125 -16.84375 C 8.53125 -13.78125 9.597656 -11.128906 11.734375 -8.890625 C 13.867188 -6.648438 16.4375 -5.53125 19.4375 -5.53125 C 22.414062 -5.53125 24.960938 -6.648438 27.078125 -8.890625 C 29.191406 -11.128906 30.25 -13.769531 30.25 -16.8125 Z M 30.25 -16.8125 "/></g></g></g><g fill="#000000" fill-opacity="1"><g transform="translate(291.318498, 244.818997)"><g><path d="M 3.90625 -34.40625 C 4.507812 -34.40625 5.078125 -34.226562 5.609375 -33.875 C 6.140625 -33.519531 6.519531 -33.082031 6.75 -32.5625 L 17.375 -8.40625 L 26.46875 -32.34375 C 26.695312 -32.90625 27.082031 -33.375 27.625 -33.75 C 28.164062 -34.125 28.75 -34.3125 29.375 -34.3125 C 30.226562 -34.3125 30.960938 -34.003906 31.578125 -33.390625 C 32.191406 -32.773438 32.5 -32.039062 32.5 -31.1875 C 32.5 -30.75 32.414062 -30.34375 32.25 -29.96875 L 20.75 0.03125 C 20.6875 0.40625 20.507812 0.832031 20.21875 1.3125 L 18.46875 5.6875 C 18.09375 6.644531 17.765625 7.425781 17.484375 8.03125 C 17.203125 8.632812 16.785156 9.378906 16.234375 10.265625 C 15.679688 11.148438 15.070312 11.925781 14.40625 12.59375 C 13.34375 13.71875 12.070312 14.628906 10.59375 15.328125 C 9.113281 16.023438 7.601562 16.375 6.0625 16.375 C 5.1875 16.375 4.445312 16.0625 3.84375 15.4375 C 3.238281 14.8125 2.9375 14.0625 2.9375 13.1875 C 2.9375 12.351562 3.222656 11.628906 3.796875 11.015625 C 4.367188 10.398438 5.0625 10.082031 5.875 10.0625 C 7.539062 9.957031 8.878906 9.328125 9.890625 8.171875 C 10.898438 7.015625 11.832031 5.394531 12.6875 3.3125 L 14.1875 -0.5 L 1.0625 -29.9375 C 0.875 -30.375 0.78125 -30.820312 0.78125 -31.28125 C 0.78125 -32.132812 1.085938 -32.867188 1.703125 -33.484375 C 2.316406 -34.097656 3.050781 -34.40625 3.90625 -34.40625 Z M 3.90625 -34.40625 "/></g></g></g><g fill="#000000" fill-opacity="1"><g transform="translate(163.525834, 64.272994)"><g><path d="M 1.109375 -25.84375 C 0.710938 -26.25 0.515625 -26.734375 0.515625 -27.296875 C 0.515625 -27.859375 0.710938 -28.335938 1.109375 -28.734375 C 1.515625 -29.140625 2 -29.34375 2.5625 -29.34375 L 2.578125 -29.34375 L 23.078125 -29.46875 L 23.109375 -29.46875 C 23.671875 -29.46875 24.148438 -29.265625 24.546875 -28.859375 C 24.953125 -28.460938 25.15625 -27.984375 25.15625 -27.421875 C 25.15625 -26.859375 24.953125 -26.375 24.546875 -25.96875 C 24.148438 -25.570312 23.671875 -25.375 23.109375 -25.375 L 23.09375 -25.375 L 14.9375 -25.328125 L 14.828125 -1.78125 L 14.828125 -1.765625 C 14.828125 -1.210938 14.625 -0.738281 14.21875 -0.34375 C 13.820312 0.0507812 13.34375 0.25 12.78125 0.25 C 12.21875 0.25 11.734375 0.0507812 11.328125 -0.34375 C 10.921875 -0.738281 10.71875 -1.210938 10.71875 -1.765625 L 10.71875 -1.8125 L 10.828125 -25.3125 L 2.578125 -25.25 L 2.5625 -25.25 C 2 -25.25 1.515625 -25.445312 1.109375 -25.84375 Z M 1.109375 -25.84375 "/></g></g><g transform="translate(189.181106, 64.272994)"><g><path d="M 16.25 -2.765625 C 15.613281 -2.148438 15.046875 -1.644531 14.546875 -1.25 C 14.054688 -0.851562 13.382812 -0.46875 12.53125 -0.09375 C 11.6875 0.269531 10.835938 0.453125 9.984375 0.453125 C 8.304688 0.453125 6.859375 0.0078125 5.640625 -0.875 C 4.421875 -1.769531 3.503906 -2.90625 2.890625 -4.28125 C 2.273438 -5.675781 1.96875 -7.582031 1.96875 -10 L 1.96875 -20.359375 C 1.96875 -20.921875 2.171875 -21.40625 2.578125 -21.8125 C 2.984375 -22.21875 3.460938 -22.421875 4.015625 -22.421875 C 4.578125 -22.421875 5.0625 -22.21875 5.46875 -21.8125 C 5.875 -21.40625 6.078125 -20.921875 6.078125 -20.359375 L 6.078125 -10 C 6.078125 -8.15625 6.269531 -6.8125 6.65625 -5.96875 C 6.945312 -5.300781 7.375 -4.75 7.9375 -4.3125 C 8.5 -3.875 9.171875 -3.65625 9.953125 -3.65625 C 11.941406 -3.65625 13.488281 -4.421875 14.59375 -5.953125 C 15.695312 -7.484375 16.238281 -9.570312 16.21875 -12.21875 L 16.203125 -20.40625 C 16.203125 -20.96875 16.40625 -21.445312 16.8125 -21.84375 C 17.21875 -22.25 17.695312 -22.453125 18.25 -22.453125 C 18.832031 -22.453125 19.320312 -22.25 19.71875 -21.84375 C 20.113281 -21.445312 20.3125 -20.960938 20.3125 -20.390625 L 20.34375 -1.53125 C 20.34375 -0.945312 20.1875 -0.457031 19.875 -0.0625 C 19.5625 0.320312 19.128906 0.515625 18.578125 0.515625 C 17.640625 0.515625 16.976562 -0.164062 16.59375 -1.53125 Z M 16.25 -2.765625 "/></g></g></g><g fill="#000000" fill-opacity="1"><g transform="translate(93.657932, 65.022994)"><g><path d="M 5.109375 -0.59375 C 4.710938 -0.195312 4.234375 0 3.671875 0 C 3.109375 0 2.625 -0.195312 2.21875 -0.59375 C 1.820312 -1 1.625 -1.484375 1.625 -2.046875 L 1.5625 -27.5 C 1.539062 -27.625 1.53125 -27.75 1.53125 -27.875 C 1.53125 -28.132812 1.679688 -28.503906 1.984375 -28.984375 C 2.316406 -29.515625 2.789062 -29.78125 3.40625 -29.78125 C 4.382812 -29.78125 5.0625 -29.394531 5.4375 -28.625 L 16.40625 -10.71875 L 26.5625 -28.65625 C 26.96875 -29.332031 27.519531 -29.671875 28.21875 -29.671875 C 28.820312 -29.671875 29.335938 -29.472656 29.765625 -29.078125 C 30.191406 -28.691406 30.40625 -28.207031 30.40625 -27.625 L 30.40625 -1.96875 C 30.40625 -1.40625 30.203125 -0.921875 29.796875 -0.515625 C 29.398438 -0.117188 28.921875 0.078125 28.359375 0.078125 C 27.796875 0.078125 27.3125 -0.117188 26.90625 -0.515625 C 26.507812 -0.921875 26.3125 -1.40625 26.3125 -1.96875 L 26.3125 -20.296875 L 18.25 -5.65625 C 18.070312 -5.382812 17.828125 -5.140625 17.515625 -4.921875 C 17.203125 -4.710938 16.875 -4.609375 16.53125 -4.609375 C 15.738281 -4.609375 15.128906 -4.9375 14.703125 -5.59375 L 5.65625 -20.390625 L 5.71875 -2.078125 L 5.71875 -2.046875 C 5.71875 -1.484375 5.515625 -1 5.109375 -0.59375 Z M 5.109375 -0.59375 "/></g></g></g><g fill="#000000" fill-opacity="1"><g transform="translate(248.71288, 65.022994)"><g><path d="M 16.671875 -28.296875 C 16.796875 -28.679688 17.046875 -29.003906 17.421875 -29.265625 C 17.796875 -29.523438 18.195312 -29.65625 18.625 -29.65625 C 19.070312 -29.65625 19.476562 -29.515625 19.84375 -29.234375 C 20.207031 -28.953125 20.445312 -28.613281 20.5625 -28.21875 L 26.859375 -8.15625 L 32.46875 -27.453125 C 32.570312 -28.046875 32.8125 -28.546875 33.1875 -28.953125 C 33.5625 -29.367188 33.984375 -29.578125 34.453125 -29.578125 C 35.023438 -29.578125 35.507812 -29.328125 35.90625 -28.828125 C 36.300781 -28.335938 36.5 -27.757812 36.5 -27.09375 C 36.5 -26.820312 36.46875 -26.582031 36.40625 -26.375 L 28.953125 -1.09375 C 28.828125 -0.675781 28.582031 -0.332031 28.21875 -0.0625 C 27.851562 0.195312 27.453125 0.328125 27.015625 0.328125 C 26.585938 0.328125 26.179688 0.203125 25.796875 -0.046875 C 25.410156 -0.304688 25.160156 -0.632812 25.046875 -1.03125 L 18.5625 -19.625 L 11.703125 -0.40625 C 11.210938 0.0820312 10.566406 0.328125 9.765625 0.328125 C 9.328125 0.328125 8.914062 0.195312 8.53125 -0.0625 C 8.144531 -0.332031 7.890625 -0.675781 7.765625 -1.09375 L 0.59375 -26.109375 C 0.539062 -26.328125 0.515625 -26.566406 0.515625 -26.828125 C 0.515625 -27.492188 0.710938 -28.070312 1.109375 -28.5625 C 1.503906 -29.0625 1.988281 -29.3125 2.5625 -29.3125 C 3.03125 -29.3125 3.453125 -29.097656 3.828125 -28.671875 C 4.203125 -28.242188 4.441406 -27.738281 4.546875 -27.15625 L 9.953125 -8.046875 Z M 16.671875 -28.296875 "/></g></g></g><g fill="#000000" fill-opacity="1"><g transform="translate(126.72998, 138.5958)"><g><path d="M 1.109375 -25.84375 C 0.710938 -26.25 0.515625 -26.734375 0.515625 -27.296875 C 0.515625 -27.859375 0.710938 -28.335938 1.109375 -28.734375 C 1.515625 -29.140625 2 -29.34375 2.5625 -29.34375 L 2.578125 -29.34375 L 23.078125 -29.46875 L 23.109375 -29.46875 C 23.671875 -29.46875 24.148438 -29.265625 24.546875 -28.859375 C 24.953125 -28.460938 25.15625 -27.984375 25.15625 -27.421875 C 25.15625 -26.859375 24.953125 -26.375 24.546875 -25.96875 C 24.148438 -25.570312 23.671875 -25.375 23.109375 -25.375 L 23.09375 -25.375 L 14.9375 -25.328125 L 14.828125 -1.78125 L 14.828125 -1.765625 C 14.828125 -1.210938 14.625 -0.738281 14.21875 -0.34375 C 13.820312 0.0507812 13.34375 0.25 12.78125 0.25 C 12.21875 0.25 11.734375 0.0507812 11.328125 -0.34375 C 10.921875 -0.738281 10.71875 -1.210938 10.71875 -1.765625 L 10.71875 -1.8125 L 10.828125 -25.3125 L 2.578125 -25.25 L 2.5625 -25.25 C 2 -25.25 1.515625 -25.445312 1.109375 -25.84375 Z M 1.109375 -25.84375 "/></g></g><g transform="translate(152.385251, 138.5958)"><g><path d="M 1.953125 -27.9375 C 1.953125 -28.476562 2.148438 -28.941406 2.546875 -29.328125 C 2.941406 -29.722656 3.425781 -29.921875 4 -29.921875 C 4.5625 -29.921875 5.039062 -29.722656 5.4375 -29.328125 C 5.84375 -28.941406 6.046875 -28.476562 6.046875 -27.9375 L 6.046875 -18.984375 C 6.554688 -20.054688 7.296875 -20.898438 8.265625 -21.515625 C 9.242188 -22.128906 10.226562 -22.4375 11.21875 -22.4375 C 14.320312 -22.4375 16.632812 -21.507812 18.15625 -19.65625 C 19.6875 -17.800781 20.453125 -15.273438 20.453125 -12.078125 L 20.453125 -11.890625 L 20.421875 -1.53125 L 20.421875 -1.515625 C 20.421875 -0.972656 20.21875 -0.503906 19.8125 -0.109375 C 19.414062 0.273438 18.9375 0.46875 18.375 0.46875 C 17.8125 0.46875 17.328125 0.273438 16.921875 -0.109375 C 16.523438 -0.503906 16.328125 -0.972656 16.328125 -1.515625 L 16.328125 -1.53125 L 16.34375 -11.796875 L 16.34375 -11.828125 C 16.34375 -14.054688 15.96875 -15.691406 15.21875 -16.734375 C 14.476562 -17.785156 13.144531 -18.3125 11.21875 -18.3125 C 9.550781 -18.3125 8.28125 -17.726562 7.40625 -16.5625 C 6.53125 -15.40625 6.09375 -13.863281 6.09375 -11.9375 L 6.09375 -1.5 C 6.09375 -0.945312 5.890625 -0.472656 5.484375 -0.078125 C 5.078125 0.304688 4.597656 0.5 4.046875 0.5 C 3.453125 0.5 2.953125 0.300781 2.546875 -0.09375 C 2.148438 -0.5 1.953125 -0.96875 1.953125 -1.5 Z M 1.953125 -27.9375 "/></g></g></g><g fill="#000000" fill-opacity="1"><g transform="translate(214.505205, 138.5958)"><g><path d="M 1.53125 -27.40625 C 1.53125 -27.945312 1.734375 -28.414062 2.140625 -28.8125 C 2.546875 -29.207031 3.03125 -29.40625 3.59375 -29.40625 L 20.296875 -29.421875 L 20.328125 -29.421875 C 20.890625 -29.421875 21.367188 -29.21875 21.765625 -28.8125 C 22.171875 -28.414062 22.375 -27.9375 22.375 -27.375 C 22.375 -26.8125 22.171875 -26.328125 21.765625 -25.921875 C 21.367188 -25.523438 20.890625 -25.328125 20.328125 -25.328125 L 20.296875 -25.328125 L 5.640625 -25.3125 L 5.65625 -17.84375 L 16.34375 -17.9375 L 16.578125 -17.9375 C 17.078125 -17.9375 17.507812 -17.726562 17.875 -17.3125 C 18.238281 -16.894531 18.421875 -16.460938 18.421875 -16.015625 C 18.421875 -15.410156 18.226562 -14.894531 17.84375 -14.46875 C 17.457031 -14.050781 16.960938 -13.84375 16.359375 -13.84375 L 5.6875 -13.734375 L 5.703125 -1.8125 L 5.703125 -1.765625 C 5.703125 -1.210938 5.5 -0.738281 5.09375 -0.34375 C 4.6875 0.0507812 4.203125 0.25 3.640625 0.25 C 3.085938 0.25 2.609375 0.0507812 2.203125 -0.34375 C 1.796875 -0.738281 1.59375 -1.210938 1.59375 -1.765625 L 1.59375 -1.78125 Z M 1.53125 -27.40625 "/></g></g></g><g fill="#000000" fill-opacity="1"><g transform="translate(163.080477, 344.620026)"><g><path d="M 14.03125 -29.796875 C 16.363281 -29.796875 18.5 -29.210938 20.4375 -28.046875 C 22.375 -26.890625 23.75 -25.375 24.5625 -23.5 C 24.6875 -23.226562 24.75 -22.945312 24.75 -22.65625 C 24.75 -22.101562 24.546875 -21.625 24.140625 -21.21875 C 23.742188 -20.8125 23.265625 -20.609375 22.703125 -20.609375 C 22.335938 -20.609375 21.960938 -20.726562 21.578125 -20.96875 C 21.203125 -21.207031 20.945312 -21.5 20.8125 -21.84375 C 20.289062 -23.03125 19.425781 -23.96875 18.21875 -24.65625 C 17.007812 -25.351562 15.613281 -25.703125 14.03125 -25.703125 C 13.21875 -25.703125 12.382812 -25.601562 11.53125 -25.40625 C 10.675781 -25.207031 9.867188 -24.914062 9.109375 -24.53125 C 8.359375 -24.15625 7.738281 -23.660156 7.25 -23.046875 C 6.757812 -22.429688 6.515625 -21.753906 6.515625 -21.015625 C 6.515625 -20.429688 6.707031 -19.90625 7.09375 -19.4375 C 7.476562 -18.976562 7.953125 -18.601562 8.515625 -18.3125 C 9.515625 -17.8125 10.773438 -17.421875 12.296875 -17.140625 C 13.816406 -16.867188 15.375 -16.597656 16.96875 -16.328125 C 18.570312 -16.066406 19.898438 -15.710938 20.953125 -15.265625 C 22.335938 -14.660156 23.488281 -13.800781 24.40625 -12.6875 C 25.320312 -11.570312 25.78125 -10.210938 25.78125 -8.609375 C 25.78125 -7.453125 25.535156 -6.367188 25.046875 -5.359375 C 24.566406 -4.359375 23.925781 -3.507812 23.125 -2.8125 C 22.332031 -2.113281 21.421875 -1.515625 20.390625 -1.015625 C 19.359375 -0.515625 18.300781 -0.148438 17.21875 0.078125 C 16.132812 0.316406 15.054688 0.4375 13.984375 0.4375 C 11.304688 0.4375 8.90625 -0.191406 6.78125 -1.453125 C 4.664062 -2.710938 3.148438 -4.398438 2.234375 -6.515625 C 2.109375 -6.796875 2.046875 -7.070312 2.046875 -7.34375 C 2.046875 -7.90625 2.25 -8.382812 2.65625 -8.78125 C 3.0625 -9.1875 3.546875 -9.390625 4.109375 -9.390625 C 4.484375 -9.390625 4.851562 -9.265625 5.21875 -9.015625 C 5.59375 -8.773438 5.847656 -8.484375 5.984375 -8.140625 C 6.578125 -6.765625 7.59375 -5.675781 9.03125 -4.875 C 10.476562 -4.070312 12.128906 -3.671875 13.984375 -3.671875 C 15.210938 -3.671875 16.390625 -3.835938 17.515625 -4.171875 C 18.648438 -4.503906 19.625 -5.0625 20.4375 -5.84375 C 21.25 -6.625 21.65625 -7.546875 21.65625 -8.609375 C 21.65625 -9.265625 21.429688 -9.832031 20.984375 -10.3125 C 20.546875 -10.800781 20 -11.191406 19.34375 -11.484375 C 18.269531 -11.929688 16.929688 -12.289062 15.328125 -12.5625 C 13.734375 -12.832031 12.160156 -13.109375 10.609375 -13.390625 C 9.054688 -13.679688 7.742188 -14.097656 6.671875 -14.640625 C 5.429688 -15.253906 4.410156 -16.09375 3.609375 -17.15625 C 2.804688 -18.226562 2.40625 -19.515625 2.40625 -21.015625 C 2.40625 -22.109375 2.632812 -23.132812 3.09375 -24.09375 C 3.550781 -25.0625 4.164062 -25.890625 4.9375 -26.578125 C 5.707031 -27.265625 6.59375 -27.851562 7.59375 -28.34375 C 8.601562 -28.832031 9.65625 -29.195312 10.75 -29.4375 C 11.84375 -29.675781 12.9375 -29.796875 14.03125 -29.796875 Z M 14.03125 -29.796875 "/></g></g><g transform="translate(190.909577, 344.620026)"><g><path d="M 16.25 -2.765625 C 15.613281 -2.148438 15.046875 -1.644531 14.546875 -1.25 C 14.054688 -0.851562 13.382812 -0.46875 12.53125 -0.09375 C 11.6875 0.269531 10.835938 0.453125 9.984375 0.453125 C 8.304688 0.453125 6.859375 0.0078125 5.640625 -0.875 C 4.421875 -1.769531 3.503906 -2.90625 2.890625 -4.28125 C 2.273438 -5.675781 1.96875 -7.582031 1.96875 -10 L 1.96875 -20.359375 C 1.96875 -20.921875 2.171875 -21.40625 2.578125 -21.8125 C 2.984375 -22.21875 3.460938 -22.421875 4.015625 -22.421875 C 4.578125 -22.421875 5.0625 -22.21875 5.46875 -21.8125 C 5.875 -21.40625 6.078125 -20.921875 6.078125 -20.359375 L 6.078125 -10 C 6.078125 -8.15625 6.269531 -6.8125 6.65625 -5.96875 C 6.945312 -5.300781 7.375 -4.75 7.9375 -4.3125 C 8.5 -3.875 9.171875 -3.65625 9.953125 -3.65625 C 11.941406 -3.65625 13.488281 -4.421875 14.59375 -5.953125 C 15.695312 -7.484375 16.238281 -9.570312 16.21875 -12.21875 L 16.203125 -20.40625 C 16.203125 -20.96875 16.40625 -21.445312 16.8125 -21.84375 C 17.21875 -22.25 17.695312 -22.453125 18.25 -22.453125 C 18.832031 -22.453125 19.320312 -22.25 19.71875 -21.84375 C 20.113281 -21.445312 20.3125 -20.960938 20.3125 -20.390625 L 20.34375 -1.53125 C 20.34375 -0.945312 20.1875 -0.457031 19.875 -0.0625 C 19.5625 0.320312 19.128906 0.515625 18.578125 0.515625 C 17.640625 0.515625 16.976562 -0.164062 16.59375 -1.53125 Z M 16.25 -2.765625 "/></g></g></g></svg>