<svg xmlns="http://www.w3.org/2000/svg" xmlns:xlink="http://www.w3.org/1999/xlink" width="1080" zoomAndPan="magnify" viewBox="0 0 810 809.999993" height="1080" preserveAspectRatio="xMidYMid meet" version="1.0"><defs><g/><clipPath id="bfae35169b"><path d="M 51.394531 62.722656 L 758.605469 62.722656 L 758.605469 769.9375 L 51.394531 769.9375 Z M 51.394531 62.722656 " clip-rule="nonzero"/></clipPath><clipPath id="1485ec35b7"><path d="M 126.394531 62.722656 L 683.605469 62.722656 C 725.027344 62.722656 758.605469 96.300781 758.605469 137.722656 L 758.605469 694.9375 C 758.605469 736.359375 725.027344 769.9375 683.605469 769.9375 L 126.394531 769.9375 C 84.972656 769.9375 51.394531 736.359375 51.394531 694.9375 L 51.394531 137.722656 C 51.394531 96.300781 84.972656 62.722656 126.394531 62.722656 Z M 126.394531 62.722656 " clip-rule="nonzero"/></clipPath><clipPath id="6d85e97530"><path d="M 0.394531 0.722656 L 707.605469 0.722656 L 707.605469 707.9375 L 0.394531 707.9375 Z M 0.394531 0.722656 " clip-rule="nonzero"/></clipPath><clipPath id="81a1204c27"><path d="M 75.394531 0.722656 L 632.605469 0.722656 C 674.027344 0.722656 707.605469 34.300781 707.605469 75.722656 L 707.605469 632.9375 C 707.605469 674.359375 674.027344 707.9375 632.605469 707.9375 L 75.394531 707.9375 C 33.972656 707.9375 0.394531 674.359375 0.394531 632.9375 L 0.394531 75.722656 C 0.394531 34.300781 33.972656 0.722656 75.394531 0.722656 Z M 75.394531 0.722656 " clip-rule="nonzero"/></clipPath><clipPath id="0938a5075f"><rect x="0" width="708" y="0" height="708"/></clipPath><clipPath id="ae6e6f5335"><path d="M 51.394531 62.722656 L 758.640625 62.722656 L 758.640625 769.972656 L 51.394531 769.972656 Z M 51.394531 62.722656 " clip-rule="nonzero"/></clipPath><clipPath id="ce032f61c5"><path d="M 126.390625 62.722656 L 683.597656 62.722656 C 725.019531 62.722656 758.59375 96.300781 758.59375 137.722656 L 758.59375 694.929688 C 758.59375 736.347656 725.019531 769.925781 683.597656 769.925781 L 126.390625 769.925781 C 84.96875 769.925781 51.394531 736.347656 51.394531 694.929688 L 51.394531 137.722656 C 51.394531 96.300781 84.96875 62.722656 126.390625 62.722656 Z M 126.390625 62.722656 " clip-rule="nonzero"/></clipPath><clipPath id="21202ef085"><path d="M 47.328125 60.808594 L 763.578125 60.808594 L 763.578125 775.558594 L 47.328125 775.558594 Z M 47.328125 60.808594 " clip-rule="nonzero"/></clipPath><clipPath id="3a26252038"><path d="M 122.328125 60.808594 L 688.25 60.808594 C 729.671875 60.808594 763.25 94.386719 763.25 135.804688 L 763.25 700.558594 C 763.25 741.980469 729.671875 775.558594 688.25 775.558594 L 122.328125 775.558594 C 80.90625 775.558594 47.328125 741.980469 47.328125 700.558594 L 47.328125 135.804688 C 47.328125 94.386719 80.90625 60.808594 122.328125 60.808594 Z M 122.328125 60.808594 " clip-rule="nonzero"/></clipPath><clipPath id="62103508be"><path d="M 88.839844 103.125 L 722 103.125 L 722 729.539062 L 88.839844 729.539062 Z M 88.839844 103.125 " clip-rule="nonzero"/></clipPath><clipPath id="2f337825cb"><path d="M 127.089844 103.125 L 682.910156 103.125 C 693.054688 103.125 702.785156 107.152344 709.957031 114.328125 C 717.132812 121.5 721.160156 131.230469 721.160156 141.375 L 721.160156 691.289062 C 721.160156 701.433594 717.132812 711.160156 709.957031 718.335938 C 702.785156 725.507812 693.054688 729.539062 682.910156 729.539062 L 127.089844 729.539062 C 116.945312 729.539062 107.214844 725.507812 100.042969 718.335938 C 92.867188 711.160156 88.839844 701.433594 88.839844 691.289062 L 88.839844 141.375 C 88.839844 131.230469 92.867188 121.5 100.042969 114.328125 C 107.214844 107.152344 116.945312 103.125 127.089844 103.125 Z M 127.089844 103.125 " clip-rule="nonzero"/></clipPath><clipPath id="24826da6c3"><path d="M 0.839844 0.125 L 633 0.125 L 633 626.539062 L 0.839844 626.539062 Z M 0.839844 0.125 " clip-rule="nonzero"/></clipPath><clipPath id="4429fa2147"><path d="M 39.089844 0.125 L 594.910156 0.125 C 605.054688 0.125 614.785156 4.152344 621.957031 11.328125 C 629.132812 18.5 633.160156 28.230469 633.160156 38.375 L 633.160156 588.289062 C 633.160156 598.433594 629.132812 608.160156 621.957031 615.335938 C 614.785156 622.507812 605.054688 626.539062 594.910156 626.539062 L 39.089844 626.539062 C 28.945312 626.539062 19.214844 622.507812 12.042969 615.335938 C 4.867188 608.160156 0.839844 598.433594 0.839844 588.289062 L 0.839844 38.375 C 0.839844 28.230469 4.867188 18.5 12.042969 11.328125 C 19.214844 4.152344 28.945312 0.125 39.089844 0.125 Z M 39.089844 0.125 " clip-rule="nonzero"/></clipPath><clipPath id="c075302669"><rect x="0" width="634" y="0" height="627"/></clipPath><clipPath id="bbfc708a76"><path d="M 88.839844 103.125 L 721.089844 103.125 L 721.089844 729.375 L 88.839844 729.375 Z M 88.839844 103.125 " clip-rule="nonzero"/></clipPath><clipPath id="1aa26cb9a4"><path d="M 127.089844 103.125 L 682.910156 103.125 C 693.054688 103.125 702.78125 107.15625 709.957031 114.328125 C 717.128906 121.5 721.160156 131.230469 721.160156 141.375 L 721.160156 691.285156 C 721.160156 701.429688 717.128906 711.160156 709.957031 718.332031 C 702.78125 725.507812 693.054688 729.535156 682.910156 729.535156 L 127.089844 729.535156 C 116.945312 729.535156 107.214844 725.507812 100.042969 718.332031 C 92.867188 711.160156 88.839844 701.429688 88.839844 691.285156 L 88.839844 141.375 C 88.839844 131.230469 92.867188 121.5 100.042969 114.328125 C 107.214844 107.15625 116.945312 103.125 127.089844 103.125 Z M 127.089844 103.125 " clip-rule="nonzero"/></clipPath><clipPath id="2eba0d7d31"><path d="M 131.972656 161.535156 L 254.570312 161.535156 L 254.570312 284.128906 L 131.972656 284.128906 Z M 131.972656 161.535156 " clip-rule="nonzero"/></clipPath><clipPath id="c0515ef25e"><path d="M 169.472656 161.535156 L 217.070312 161.535156 C 237.78125 161.535156 254.570312 178.324219 254.570312 199.035156 L 254.570312 246.628906 C 254.570312 267.339844 237.78125 284.128906 217.070312 284.128906 L 169.472656 284.128906 C 148.765625 284.128906 131.972656 267.339844 131.972656 246.628906 L 131.972656 199.035156 C 131.972656 178.324219 148.765625 161.535156 169.472656 161.535156 Z M 169.472656 161.535156 " clip-rule="nonzero"/></clipPath><clipPath id="c9490bb7a2"><path d="M 0.972656 0.535156 L 123.570312 0.535156 L 123.570312 123.128906 L 0.972656 123.128906 Z M 0.972656 0.535156 " clip-rule="nonzero"/></clipPath><clipPath id="c0eb15df48"><path d="M 38.472656 0.535156 L 86.070312 0.535156 C 106.78125 0.535156 123.570312 17.324219 123.570312 38.035156 L 123.570312 85.628906 C 123.570312 106.339844 106.78125 123.128906 86.070312 123.128906 L 38.472656 123.128906 C 17.765625 123.128906 0.972656 106.339844 0.972656 85.628906 L 0.972656 38.035156 C 0.972656 17.324219 17.765625 0.535156 38.472656 0.535156 Z M 38.472656 0.535156 " clip-rule="nonzero"/></clipPath><clipPath id="718eedaed7"><rect x="0" width="124" y="0" height="124"/></clipPath><clipPath id="25090ca706"><path d="M 131.972656 161.535156 L 254.222656 161.535156 L 254.222656 283.785156 L 131.972656 283.785156 Z M 131.972656 161.535156 " clip-rule="nonzero"/></clipPath><clipPath id="d688f88c33"><path d="M 169.472656 161.535156 L 217.066406 161.535156 C 237.777344 161.535156 254.5625 178.324219 254.5625 199.03125 L 254.5625 246.625 C 254.5625 267.335938 237.777344 284.125 217.066406 284.125 L 169.472656 284.125 C 148.761719 284.125 131.972656 267.335938 131.972656 246.625 L 131.972656 199.03125 C 131.972656 178.324219 148.761719 161.535156 169.472656 161.535156 Z M 169.472656 161.535156 " clip-rule="nonzero"/></clipPath><clipPath id="925fa1a461"><path d="M 230.671875 162.191406 L 353.269531 162.191406 L 353.269531 284.785156 L 230.671875 284.785156 Z M 230.671875 162.191406 " clip-rule="nonzero"/></clipPath><clipPath id="173de26b98"><path d="M 268.171875 162.191406 L 315.769531 162.191406 C 336.480469 162.191406 353.269531 178.980469 353.269531 199.691406 L 353.269531 247.285156 C 353.269531 267.996094 336.480469 284.785156 315.769531 284.785156 L 268.171875 284.785156 C 247.460938 284.785156 230.671875 267.996094 230.671875 247.285156 L 230.671875 199.691406 C 230.671875 178.980469 247.460938 162.191406 268.171875 162.191406 Z M 268.171875 162.191406 " clip-rule="nonzero"/></clipPath><clipPath id="ae8aec33f0"><path d="M 0.671875 0.191406 L 123.269531 0.191406 L 123.269531 122.785156 L 0.671875 122.785156 Z M 0.671875 0.191406 " clip-rule="nonzero"/></clipPath><clipPath id="5879ddcd08"><path d="M 38.171875 0.191406 L 85.769531 0.191406 C 106.480469 0.191406 123.269531 16.980469 123.269531 37.691406 L 123.269531 85.285156 C 123.269531 105.996094 106.480469 122.785156 85.769531 122.785156 L 38.171875 122.785156 C 17.460938 122.785156 0.671875 105.996094 0.671875 85.285156 L 0.671875 37.691406 C 0.671875 16.980469 17.460938 0.191406 38.171875 0.191406 Z M 38.171875 0.191406 " clip-rule="nonzero"/></clipPath><clipPath id="6f324c7212"><rect x="0" width="124" y="0" height="123"/></clipPath><clipPath id="3fa34a8106"><path d="M 230.671875 162.191406 L 352.921875 162.191406 L 352.921875 284.441406 L 230.671875 284.441406 Z M 230.671875 162.191406 " clip-rule="nonzero"/></clipPath><clipPath id="36acdb23e8"><path d="M 268.171875 162.191406 L 315.765625 162.191406 C 336.472656 162.191406 353.261719 178.976562 353.261719 199.6875 L 353.261719 247.28125 C 353.261719 267.992188 336.472656 284.78125 315.765625 284.78125 L 268.171875 284.78125 C 247.460938 284.78125 230.671875 267.992188 230.671875 247.28125 L 230.671875 199.6875 C 230.671875 178.976562 247.460938 162.191406 268.171875 162.191406 Z M 268.171875 162.191406 " clip-rule="nonzero"/></clipPath><clipPath id="522b5abd54"><path d="M 341.625 162.191406 L 464.222656 162.191406 L 464.222656 284.785156 L 341.625 284.785156 Z M 341.625 162.191406 " clip-rule="nonzero"/></clipPath><clipPath id="aced03fd5c"><path d="M 379.125 162.191406 L 426.722656 162.191406 C 447.433594 162.191406 464.222656 178.980469 464.222656 199.691406 L 464.222656 247.285156 C 464.222656 267.996094 447.433594 284.785156 426.722656 284.785156 L 379.125 284.785156 C 358.414062 284.785156 341.625 267.996094 341.625 247.285156 L 341.625 199.691406 C 341.625 178.980469 358.414062 162.191406 379.125 162.191406 Z M 379.125 162.191406 " clip-rule="nonzero"/></clipPath><clipPath id="7fc59008f5"><path d="M 0.625 0.191406 L 123.222656 0.191406 L 123.222656 122.785156 L 0.625 122.785156 Z M 0.625 0.191406 " clip-rule="nonzero"/></clipPath><clipPath id="76dd9b1c21"><path d="M 38.125 0.191406 L 85.722656 0.191406 C 106.433594 0.191406 123.222656 16.980469 123.222656 37.691406 L 123.222656 85.285156 C 123.222656 105.996094 106.433594 122.785156 85.722656 122.785156 L 38.125 122.785156 C 17.414062 122.785156 0.625 105.996094 0.625 85.285156 L 0.625 37.691406 C 0.625 16.980469 17.414062 0.191406 38.125 0.191406 Z M 38.125 0.191406 " clip-rule="nonzero"/></clipPath><clipPath id="875fb6d2d3"><rect x="0" width="124" y="0" height="123"/></clipPath><clipPath id="0348c5da3a"><path d="M 341.625 162.191406 L 463.875 162.191406 L 463.875 284.441406 L 341.625 284.441406 Z M 341.625 162.191406 " clip-rule="nonzero"/></clipPath><clipPath id="5cea550041"><path d="M 379.121094 162.191406 L 426.714844 162.191406 C 447.425781 162.191406 464.214844 178.976562 464.214844 199.6875 L 464.214844 247.28125 C 464.214844 267.992188 447.425781 284.78125 426.714844 284.78125 L 379.121094 284.78125 C 358.414062 284.78125 341.625 267.992188 341.625 247.28125 L 341.625 199.6875 C 341.625 178.976562 358.414062 162.191406 379.121094 162.191406 Z M 379.121094 162.191406 " clip-rule="nonzero"/></clipPath><clipPath id="319d975d22"><path d="M 133.722656 323.066406 L 689 323.066406 L 689 524.339844 L 133.722656 524.339844 Z M 133.722656 323.066406 " clip-rule="nonzero"/></clipPath><clipPath id="e0cf1c97d5"><path d="M 189.972656 323.066406 L 632.644531 323.066406 C 663.710938 323.066406 688.894531 348.253906 688.894531 379.316406 L 688.894531 468.089844 C 688.894531 499.15625 663.710938 524.339844 632.644531 524.339844 L 189.972656 524.339844 C 158.90625 524.339844 133.722656 499.15625 133.722656 468.089844 L 133.722656 379.316406 C 133.722656 348.253906 158.90625 323.066406 189.972656 323.066406 Z M 189.972656 323.066406 " clip-rule="nonzero"/></clipPath><clipPath id="792961e2d1"><path d="M 0.722656 0.0664062 L 556 0.0664062 L 556 201.339844 L 0.722656 201.339844 Z M 0.722656 0.0664062 " clip-rule="nonzero"/></clipPath><clipPath id="1ef806d67f"><path d="M 56.972656 0.0664062 L 499.644531 0.0664062 C 530.710938 0.0664062 555.894531 25.253906 555.894531 56.316406 L 555.894531 145.089844 C 555.894531 176.15625 530.710938 201.339844 499.644531 201.339844 L 56.972656 201.339844 C 25.90625 201.339844 0.722656 176.15625 0.722656 145.089844 L 0.722656 56.316406 C 0.722656 25.253906 25.90625 0.0664062 56.972656 0.0664062 Z M 56.972656 0.0664062 " clip-rule="nonzero"/></clipPath><clipPath id="da51c79ab0"><rect x="0" width="556" y="0" height="202"/></clipPath><clipPath id="5fb9acec9f"><path d="M 133.722656 323.070312 L 688.722656 323.070312 L 688.722656 524.066406 L 133.722656 524.066406 Z M 133.722656 323.070312 " clip-rule="nonzero"/></clipPath><clipPath id="41db1c7096"><path d="M 189.972656 323.070312 L 632.636719 323.070312 C 663.703125 323.070312 688.886719 348.253906 688.886719 379.316406 L 688.886719 468.089844 C 688.886719 499.152344 663.703125 524.335938 632.636719 524.335938 L 189.972656 524.335938 C 158.90625 524.335938 133.722656 499.152344 133.722656 468.089844 L 133.722656 379.316406 C 133.722656 348.253906 158.90625 323.070312 189.972656 323.070312 Z M 189.972656 323.070312 " clip-rule="nonzero"/></clipPath><clipPath id="7987253129"><path d="M 316.699219 337.84375 L 488.421875 337.84375 L 488.421875 509.566406 L 316.699219 509.566406 Z M 316.699219 337.84375 " clip-rule="nonzero"/></clipPath><clipPath id="bf81d3ebfe"><path d="M 402.5625 337.84375 C 355.140625 337.84375 316.699219 376.285156 316.699219 423.703125 C 316.699219 471.125 355.140625 509.566406 402.5625 509.566406 C 449.980469 509.566406 488.421875 471.125 488.421875 423.703125 C 488.421875 376.285156 449.980469 337.84375 402.5625 337.84375 Z M 402.5625 337.84375 " clip-rule="nonzero"/></clipPath><clipPath id="64766ca630"><path d="M 0.699219 0.84375 L 172.421875 0.84375 L 172.421875 172.566406 L 0.699219 172.566406 Z M 0.699219 0.84375 " clip-rule="nonzero"/></clipPath><clipPath id="a51f4a92c8"><path d="M 86.5625 0.84375 C 39.140625 0.84375 0.699219 39.285156 0.699219 86.703125 C 0.699219 134.125 39.140625 172.566406 86.5625 172.566406 C 133.980469 172.566406 172.421875 134.125 172.421875 86.703125 C 172.421875 39.285156 133.980469 0.84375 86.5625 0.84375 Z M 86.5625 0.84375 " clip-rule="nonzero"/></clipPath><clipPath id="9130312cd0"><rect x="0" width="173" y="0" height="173"/></clipPath><clipPath id="7b7d276b33"><path d="M 184.007812 356.144531 L 333 356.144531 L 333 453.855469 L 184.007812 453.855469 Z M 184.007812 356.144531 " clip-rule="nonzero"/></clipPath><clipPath id="88521c49a9"><path d="M 268.546875 356.144531 C 270.179688 356.144531 271.824219 356.144531 273.453125 356.144531 C 286.449219 357.773438 294.570312 363.207031 298.269531 372.097656 C 319.933594 370.910156 335.6875 387.71875 326.085938 404.21875 C 329.28125 407.683594 331.941406 411.5625 332.90625 416.765625 C 332.90625 418.257812 332.90625 419.742188 332.90625 421.234375 C 330.039062 434.480469 317.703125 443.429688 297.457031 441.023438 C 292.246094 447.824219 282.976562 454.632812 268.550781 453.785156 C 261.09375 453.339844 255.90625 450.753906 251.363281 447.609375 C 246.582031 450.222656 241.402344 452.273438 233.914062 452.292969 C 216.597656 452.332031 205.011719 442.269531 204.730469 428.46875 C 193.597656 425.242188 186.058594 419.214844 184.007812 408.902344 C 184.007812 407.410156 184.007812 405.917969 184.007812 404.433594 C 186.273438 394.214844 193.402344 387.792969 205.273438 385.074219 C 204.5625 367.832031 228.308594 357.0625 247.816406 364.65625 C 252.460938 360.902344 259.035156 356.804688 268.546875 356.144531 Z M 268.546875 356.144531 " clip-rule="nonzero"/></clipPath><clipPath id="82aabd1942"><path d="M 0.0078125 0.144531 L 149 0.144531 L 149 97.855469 L 0.0078125 97.855469 Z M 0.0078125 0.144531 " clip-rule="nonzero"/></clipPath><clipPath id="a38a9ec588"><path d="M 84.546875 0.144531 C 86.179688 0.144531 87.824219 0.144531 89.453125 0.144531 C 102.449219 1.773438 110.570312 7.207031 114.269531 16.097656 C 135.933594 14.910156 151.6875 31.71875 142.085938 48.21875 C 145.28125 51.683594 147.941406 55.5625 148.90625 60.765625 C 148.90625 62.257812 148.90625 63.742188 148.90625 65.234375 C 146.039062 78.480469 133.703125 87.429688 113.457031 85.023438 C 108.246094 91.824219 98.976562 98.632812 84.550781 97.785156 C 77.09375 97.339844 71.90625 94.753906 67.363281 91.609375 C 62.582031 94.222656 57.402344 96.273438 49.914062 96.292969 C 32.597656 96.332031 21.011719 86.269531 20.730469 72.46875 C 9.597656 69.242188 2.058594 63.214844 0.0078125 52.902344 C 0.0078125 51.410156 0.0078125 49.917969 0.0078125 48.433594 C 2.273438 38.214844 9.402344 31.792969 21.273438 29.074219 C 20.5625 11.832031 44.308594 1.0625 63.816406 8.65625 C 68.460938 4.902344 75.035156 0.804688 84.546875 0.144531 Z M 84.546875 0.144531 " clip-rule="nonzero"/></clipPath><clipPath id="894f16cfe4"><rect x="0" width="149" y="0" height="98"/></clipPath><clipPath id="08d7ebe010"><path d="M 398.289062 341.035156 L 547.53125 341.035156 L 547.53125 438.75 L 398.289062 438.75 Z M 398.289062 341.035156 " clip-rule="nonzero"/></clipPath><clipPath id="cefaa9af64"><path d="M 482.828125 341.035156 C 484.460938 341.035156 486.105469 341.035156 487.734375 341.035156 C 500.730469 342.664062 508.851562 348.097656 512.550781 356.988281 C 534.214844 355.800781 549.96875 372.609375 540.367188 389.109375 C 543.5625 392.574219 546.222656 396.453125 547.1875 401.65625 C 547.1875 403.148438 547.1875 404.636719 547.1875 406.125 C 544.320312 419.371094 531.988281 428.320312 511.738281 425.914062 C 506.527344 432.714844 497.257812 439.523438 482.832031 438.675781 C 475.375 438.230469 470.1875 435.644531 465.648438 432.5 C 460.863281 435.113281 455.683594 437.164062 448.199219 437.1875 C 430.878906 437.222656 419.296875 427.164062 419.015625 413.359375 C 407.882812 410.132812 400.339844 404.105469 398.289062 393.792969 C 398.289062 392.300781 398.289062 390.808594 398.289062 389.324219 C 400.554688 379.105469 407.683594 372.683594 419.554688 369.964844 C 418.84375 352.726562 442.589844 341.953125 462.101562 349.546875 C 466.746094 345.792969 473.316406 341.695312 482.828125 341.035156 Z M 482.828125 341.035156 " clip-rule="nonzero"/></clipPath><clipPath id="4e99e19e01"><path d="M 0.289062 0.0351562 L 149.53125 0.0351562 L 149.53125 97.75 L 0.289062 97.75 Z M 0.289062 0.0351562 " clip-rule="nonzero"/></clipPath><clipPath id="6dd93a3c5a"><path d="M 84.828125 0.0351562 C 86.460938 0.0351562 88.105469 0.0351562 89.734375 0.0351562 C 102.730469 1.664062 110.851562 7.097656 114.550781 15.988281 C 136.214844 14.800781 151.96875 31.609375 142.367188 48.109375 C 145.5625 51.574219 148.222656 55.453125 149.1875 60.65625 C 149.1875 62.148438 149.1875 63.636719 149.1875 65.125 C 146.320312 78.371094 133.988281 87.320312 113.738281 84.914062 C 108.527344 91.714844 99.257812 98.523438 84.832031 97.675781 C 77.375 97.230469 72.1875 94.644531 67.648438 91.5 C 62.863281 94.113281 57.683594 96.164062 50.199219 96.1875 C 32.878906 96.222656 21.296875 86.164062 21.015625 72.359375 C 9.882812 69.132812 2.339844 63.105469 0.289062 52.792969 C 0.289062 51.300781 0.289062 49.808594 0.289062 48.324219 C 2.554688 38.105469 9.683594 31.683594 21.554688 28.964844 C 20.84375 11.726562 44.589844 0.953125 64.101562 8.546875 C 68.746094 4.792969 75.316406 0.695312 84.828125 0.0351562 Z M 84.828125 0.0351562 " clip-rule="nonzero"/></clipPath><clipPath id="5e224b5746"><rect x="0" width="150" y="0" height="98"/></clipPath><clipPath id="98348715a8"><path d="M 488.421875 389.890625 L 637.664062 389.890625 L 637.664062 487.605469 L 488.421875 487.605469 Z M 488.421875 389.890625 " clip-rule="nonzero"/></clipPath><clipPath id="e85f7d5246"><path d="M 572.964844 389.890625 C 574.597656 389.890625 576.238281 389.890625 577.871094 389.890625 C 590.863281 391.523438 598.984375 396.957031 602.683594 405.84375 C 624.351562 404.660156 640.101562 421.46875 630.503906 437.964844 C 633.695312 441.433594 636.359375 445.308594 637.320312 450.515625 C 637.320312 452.003906 637.320312 453.492188 637.320312 454.984375 C 634.453125 468.230469 622.121094 477.179688 601.871094 474.769531 C 596.660156 481.570312 587.390625 488.382812 572.964844 487.535156 C 565.507812 487.085938 560.324219 484.5 555.78125 481.359375 C 550.996094 483.972656 545.816406 486.019531 538.332031 486.042969 C 521.011719 486.082031 509.429688 476.019531 509.148438 462.21875 C 498.015625 458.988281 490.476562 452.960938 488.421875 442.648438 C 488.421875 441.160156 488.421875 439.664062 488.421875 438.179688 C 490.6875 427.960938 497.816406 421.542969 509.691406 418.820312 C 508.976562 401.582031 532.722656 390.808594 552.234375 398.40625 C 556.878906 394.648438 563.449219 390.554688 572.964844 389.890625 Z M 572.964844 389.890625 " clip-rule="nonzero"/></clipPath><clipPath id="bee01c431e"><path d="M 0.421875 0.890625 L 149.664062 0.890625 L 149.664062 98.605469 L 0.421875 98.605469 Z M 0.421875 0.890625 " clip-rule="nonzero"/></clipPath><clipPath id="93327c1e39"><path d="M 84.964844 0.890625 C 86.597656 0.890625 88.238281 0.890625 89.871094 0.890625 C 102.863281 2.523438 110.984375 7.957031 114.683594 16.84375 C 136.351562 15.660156 152.101562 32.46875 142.503906 48.964844 C 145.695312 52.433594 148.359375 56.308594 149.320312 61.515625 C 149.320312 63.003906 149.320312 64.492188 149.320312 65.984375 C 146.453125 79.230469 134.121094 88.179688 113.871094 85.769531 C 108.660156 92.570312 99.390625 99.382812 84.964844 98.535156 C 77.507812 98.085938 72.324219 95.5 67.78125 92.359375 C 62.996094 94.972656 57.816406 97.019531 50.332031 97.042969 C 33.011719 97.082031 21.429688 87.019531 21.148438 73.21875 C 10.015625 69.988281 2.476562 63.960938 0.421875 53.648438 C 0.421875 52.160156 0.421875 50.664062 0.421875 49.179688 C 2.6875 38.960938 9.816406 32.542969 21.691406 29.820312 C 20.976562 12.582031 44.722656 1.808594 64.234375 9.40625 C 68.878906 5.648438 75.449219 1.554688 84.964844 0.890625 Z M 84.964844 0.890625 " clip-rule="nonzero"/></clipPath><clipPath id="b530357090"><rect x="0" width="150" y="0" height="99"/></clipPath><clipPath id="804430e6a0"><path d="M 452.28125 162.191406 L 574.878906 162.191406 L 574.878906 284.785156 L 452.28125 284.785156 Z M 452.28125 162.191406 " clip-rule="nonzero"/></clipPath><clipPath id="dd434fbc4a"><path d="M 489.78125 162.191406 L 537.378906 162.191406 C 558.089844 162.191406 574.878906 178.980469 574.878906 199.691406 L 574.878906 247.285156 C 574.878906 267.996094 558.089844 284.785156 537.378906 284.785156 L 489.78125 284.785156 C 469.070312 284.785156 452.28125 267.996094 452.28125 247.285156 L 452.28125 199.691406 C 452.28125 178.980469 469.070312 162.191406 489.78125 162.191406 Z M 489.78125 162.191406 " clip-rule="nonzero"/></clipPath><clipPath id="7ff485a4db"><path d="M 0.28125 0.191406 L 122.878906 0.191406 L 122.878906 122.785156 L 0.28125 122.785156 Z M 0.28125 0.191406 " clip-rule="nonzero"/></clipPath><clipPath id="acfbb44b18"><path d="M 37.78125 0.191406 L 85.378906 0.191406 C 106.089844 0.191406 122.878906 16.980469 122.878906 37.691406 L 122.878906 85.285156 C 122.878906 105.996094 106.089844 122.785156 85.378906 122.785156 L 37.78125 122.785156 C 17.070312 122.785156 0.28125 105.996094 0.28125 85.285156 L 0.28125 37.691406 C 0.28125 16.980469 17.070312 0.191406 37.78125 0.191406 Z M 37.78125 0.191406 " clip-rule="nonzero"/></clipPath><clipPath id="58ccef8e35"><rect x="0" width="123" y="0" height="123"/></clipPath><clipPath id="0e95986a1f"><path d="M 452.28125 162.191406 L 574.53125 162.191406 L 574.53125 284.441406 L 452.28125 284.441406 Z M 452.28125 162.191406 " clip-rule="nonzero"/></clipPath><clipPath id="3365a680cd"><path d="M 489.78125 162.191406 L 537.375 162.191406 C 558.082031 162.191406 574.871094 178.976562 574.871094 199.6875 L 574.871094 247.28125 C 574.871094 267.992188 558.082031 284.78125 537.375 284.78125 L 489.78125 284.78125 C 469.070312 284.78125 452.28125 267.992188 452.28125 247.28125 L 452.28125 199.6875 C 452.28125 178.976562 469.070312 162.191406 489.78125 162.191406 Z M 489.78125 162.191406 " clip-rule="nonzero"/></clipPath><clipPath id="3bf7e2f9a4"><path d="M 343.996094 562.621094 L 466.589844 562.621094 L 466.589844 685.21875 L 343.996094 685.21875 Z M 343.996094 562.621094 " clip-rule="nonzero"/></clipPath><clipPath id="c83b598870"><path d="M 381.496094 562.621094 L 429.089844 562.621094 C 449.800781 562.621094 466.589844 579.410156 466.589844 600.121094 L 466.589844 647.71875 C 466.589844 668.429688 449.800781 685.21875 429.089844 685.21875 L 381.496094 685.21875 C 360.785156 685.21875 343.996094 668.429688 343.996094 647.71875 L 343.996094 600.121094 C 343.996094 579.410156 360.785156 562.621094 381.496094 562.621094 Z M 381.496094 562.621094 " clip-rule="nonzero"/></clipPath><clipPath id="1799810396"><path d="M 0.996094 0.621094 L 123.589844 0.621094 L 123.589844 123.21875 L 0.996094 123.21875 Z M 0.996094 0.621094 " clip-rule="nonzero"/></clipPath><clipPath id="bf8670dd15"><path d="M 38.496094 0.621094 L 86.089844 0.621094 C 106.800781 0.621094 123.589844 17.410156 123.589844 38.121094 L 123.589844 85.71875 C 123.589844 106.429688 106.800781 123.21875 86.089844 123.21875 L 38.496094 123.21875 C 17.785156 123.21875 0.996094 106.429688 0.996094 85.71875 L 0.996094 38.121094 C 0.996094 17.410156 17.785156 0.621094 38.496094 0.621094 Z M 38.496094 0.621094 " clip-rule="nonzero"/></clipPath><clipPath id="4029a28200"><rect x="0" width="124" y="0" height="124"/></clipPath><clipPath id="66dfff06db"><path d="M 343.996094 562.621094 L 466.246094 562.621094 L 466.246094 684.871094 L 343.996094 684.871094 Z M 343.996094 562.621094 " clip-rule="nonzero"/></clipPath><clipPath id="48f8f84021"><path d="M 381.492188 562.621094 L 429.085938 562.621094 C 449.796875 562.621094 466.585938 579.410156 466.585938 600.121094 L 466.585938 647.714844 C 466.585938 668.421875 449.796875 685.210938 429.085938 685.210938 L 381.492188 685.210938 C 360.78125 685.210938 343.996094 668.421875 343.996094 647.714844 L 343.996094 600.121094 C 343.996094 579.410156 360.78125 562.621094 381.492188 562.621094 Z M 381.492188 562.621094 " clip-rule="nonzero"/></clipPath><clipPath id="a03ba640f5"><path d="M 559.988281 161.535156 L 682.585938 161.535156 L 682.585938 284.128906 L 559.988281 284.128906 Z M 559.988281 161.535156 " clip-rule="nonzero"/></clipPath><clipPath id="3692b9b1d2"><path d="M 597.488281 161.535156 L 645.085938 161.535156 C 665.796875 161.535156 682.585938 178.324219 682.585938 199.035156 L 682.585938 246.628906 C 682.585938 267.339844 665.796875 284.128906 645.085938 284.128906 L 597.488281 284.128906 C 576.777344 284.128906 559.988281 267.339844 559.988281 246.628906 L 559.988281 199.035156 C 559.988281 178.324219 576.777344 161.535156 597.488281 161.535156 Z M 597.488281 161.535156 " clip-rule="nonzero"/></clipPath><clipPath id="0d02743ee7"><path d="M 0.988281 0.535156 L 123.585938 0.535156 L 123.585938 123.128906 L 0.988281 123.128906 Z M 0.988281 0.535156 " clip-rule="nonzero"/></clipPath><clipPath id="13a668450d"><path d="M 38.488281 0.535156 L 86.085938 0.535156 C 106.796875 0.535156 123.585938 17.324219 123.585938 38.035156 L 123.585938 85.628906 C 123.585938 106.339844 106.796875 123.128906 86.085938 123.128906 L 38.488281 123.128906 C 17.777344 123.128906 0.988281 106.339844 0.988281 85.628906 L 0.988281 38.035156 C 0.988281 17.324219 17.777344 0.535156 38.488281 0.535156 Z M 38.488281 0.535156 " clip-rule="nonzero"/></clipPath><clipPath id="518742c18e"><rect x="0" width="124" y="0" height="124"/></clipPath><clipPath id="9177ef0cb5"><path d="M 559.988281 161.535156 L 682.238281 161.535156 L 682.238281 283.785156 L 559.988281 283.785156 Z M 559.988281 161.535156 " clip-rule="nonzero"/></clipPath><clipPath id="5ca358cd7d"><path d="M 597.488281 161.535156 L 645.082031 161.535156 C 665.789062 161.535156 682.578125 178.324219 682.578125 199.03125 L 682.578125 246.625 C 682.578125 267.335938 665.789062 284.125 645.082031 284.125 L 597.488281 284.125 C 576.777344 284.125 559.988281 267.335938 559.988281 246.625 L 559.988281 199.03125 C 559.988281 178.324219 576.777344 161.535156 597.488281 161.535156 Z M 597.488281 161.535156 " clip-rule="nonzero"/></clipPath></defs><g clip-path="url(#bfae35169b)"><g clip-path="url(#1485ec35b7)"><g transform="matrix(1, 0, 0, 1, 51, 62)"><g clip-path="url(#0938a5075f)"><g clip-path="url(#6d85e97530)"><g clip-path="url(#81a1204c27)"><path fill="#ffffff" d="M 0.394531 0.722656 L 707.605469 0.722656 L 707.605469 707.9375 L 0.394531 707.9375 Z M 0.394531 0.722656 " fill-opacity="1" fill-rule="nonzero"/></g></g></g></g></g></g><g clip-path="url(#ae6e6f5335)"><g clip-path="url(#ce032f61c5)"><path stroke-linecap="butt" transform="matrix(0.75, 0, 0, 0.75, 51.3926, 62.723842)" fill="none" stroke-linejoin="miter" d="M 99.997372 -0.00158053 L 842.940117 -0.00158053 C 898.169287 -0.00158053 942.934914 44.769255 942.934914 99.998425 L 942.934914 842.94117 C 942.934914 898.165131 898.169287 942.935967 842.940117 942.935967 L 99.997372 942.935967 C 44.768202 942.935967 0.00257485 898.165131 0.00257485 842.94117 L 0.00257485 99.998425 C 0.00257485 44.769255 44.768202 -0.00158053 99.997372 -0.00158053 Z M 99.997372 -0.00158053 " stroke="#67c7ff" stroke-width="120" stroke-opacity="1" stroke-miterlimit="4"/></g></g><g clip-path="url(#21202ef085)"><g clip-path="url(#3a26252038)"><path stroke-linecap="butt" transform="matrix(0.75, 0, 0, 0.75, 47.329535, 60.807387)" fill="none" stroke-linejoin="miter" d="M 99.998119 0.00160961 L 854.560609 0.00160961 C 909.789775 0.00160961 954.560607 44.772442 954.560607 99.9964 L 954.560607 853.001598 C 954.560607 908.230764 909.789775 953.001597 854.560609 953.001597 L 99.998119 953.001597 C 44.768953 953.001597 -0.00187963 908.230764 -0.00187963 853.001598 L -0.00187963 99.9964 C -0.00187963 44.772442 44.768953 0.00160961 99.998119 0.00160961 Z M 99.998119 0.00160961 " stroke="#000000" stroke-width="20" stroke-opacity="1" stroke-miterlimit="4"/></g></g><g clip-path="url(#62103508be)"><g clip-path="url(#2f337825cb)"><g transform="matrix(1, 0, 0, 1, 88, 103)"><g clip-path="url(#c075302669)"><g clip-path="url(#24826da6c3)"><g clip-path="url(#4429fa2147)"><path fill="#ffffff" d="M 0.839844 0.125 L 632.148438 0.125 L 632.148438 626.539062 L 0.839844 626.539062 Z M 0.839844 0.125 " fill-opacity="1" fill-rule="nonzero"/></g></g></g></g></g></g><g clip-path="url(#bbfc708a76)"><g clip-path="url(#1aa26cb9a4)"><path stroke-linecap="butt" transform="matrix(0.75, 0, 0, 0.75, 88.838181, 103.125483)" fill="none" stroke-linejoin="miter" d="M 51.00222 -0.000643749 L 792.096007 -0.000643749 C 805.62205 -0.000643749 818.5908 5.374357 828.158509 14.936857 C 837.72101 24.499357 843.09601 37.473316 843.09601 50.999359 L 843.09601 784.212937 C 843.09601 797.73898 837.72101 810.712939 828.158509 820.275439 C 818.5908 829.843148 805.62205 835.21294 792.096007 835.21294 L 51.00222 835.21294 C 37.476178 835.21294 24.502219 829.843148 14.939718 820.275439 C 5.372009 810.712939 0.00221749 797.73898 0.00221749 784.212937 L 0.00221749 50.999359 C 0.00221749 37.473316 5.372009 24.499357 14.939718 14.936857 C 24.502219 5.374357 37.476178 -0.000643749 51.00222 -0.000643749 Z M 51.00222 -0.000643749 " stroke="#000000" stroke-width="20" stroke-opacity="1" stroke-miterlimit="4"/></g></g><g clip-path="url(#2eba0d7d31)"><g clip-path="url(#c0515ef25e)"><g transform="matrix(1, 0, 0, 1, 131, 161)"><g clip-path="url(#718eedaed7)"><g clip-path="url(#c9490bb7a2)"><g clip-path="url(#c0eb15df48)"><path fill="#d9d9d9" d="M 0.972656 0.535156 L 123.570312 0.535156 L 123.570312 123.128906 L 0.972656 123.128906 Z M 0.972656 0.535156 " fill-opacity="1" fill-rule="nonzero"/></g></g></g></g></g></g><g clip-path="url(#25090ca706)"><g clip-path="url(#d688f88c33)"><path stroke-linecap="butt" transform="matrix(0.75, 0, 0, 0.75, 131.974406, 161.533973)" fill="none" stroke-linejoin="miter" d="M 49.997667 0.0015781 L 113.455999 0.0015781 C 141.070582 0.0015781 163.45079 22.386994 163.45079 49.996369 L 163.45079 113.454702 C 163.45079 141.069285 141.070582 163.454701 113.455999 163.454701 L 49.997667 163.454701 C 22.383084 163.454701 -0.00233255 141.069285 -0.00233255 113.454702 L -0.00233255 49.996369 C -0.00233255 22.386994 22.383084 0.0015781 49.997667 0.0015781 Z M 49.997667 0.0015781 " stroke="#000000" stroke-width="20" stroke-opacity="1" stroke-miterlimit="4"/></g></g><g clip-path="url(#925fa1a461)"><g clip-path="url(#173de26b98)"><g transform="matrix(1, 0, 0, 1, 230, 162)"><g clip-path="url(#6f324c7212)"><g clip-path="url(#ae8aec33f0)"><g clip-path="url(#5879ddcd08)"><path fill="#d9d9d9" d="M 0.671875 0.191406 L 123.269531 0.191406 L 123.269531 122.785156 L 0.671875 122.785156 Z M 0.671875 0.191406 " fill-opacity="1" fill-rule="nonzero"/></g></g></g></g></g></g><g clip-path="url(#3fa34a8106)"><g clip-path="url(#36acdb23e8)"><path stroke-linecap="butt" transform="matrix(0.75, 0, 0, 0.75, 230.672965, 162.189578)" fill="none" stroke-linejoin="miter" d="M 49.998545 0.00243735 L 113.456878 0.00243735 C 141.066252 0.00243735 163.451669 22.382645 163.451669 49.997228 L 163.451669 113.455561 C 163.451669 141.070144 141.066252 163.45556 113.456878 163.45556 L 49.998545 163.45556 C 22.383962 163.45556 -0.00145399 141.070144 -0.00145399 113.455561 L -0.00145399 49.997228 C -0.00145399 22.382645 22.383962 0.00243735 49.998545 0.00243735 Z M 49.998545 0.00243735 " stroke="#000000" stroke-width="20" stroke-opacity="1" stroke-miterlimit="4"/></g></g><g clip-path="url(#522b5abd54)"><g clip-path="url(#aced03fd5c)"><g transform="matrix(1, 0, 0, 1, 341, 162)"><g clip-path="url(#875fb6d2d3)"><g clip-path="url(#7fc59008f5)"><g clip-path="url(#76dd9b1c21)"><path fill="#d9d9d9" d="M 0.625 0.191406 L 123.222656 0.191406 L 123.222656 122.785156 L 0.625 122.785156 Z M 0.625 0.191406 " fill-opacity="1" fill-rule="nonzero"/></g></g></g></g></g></g><g clip-path="url(#0348c5da3a)"><g clip-path="url(#5cea550041)"><path stroke-linecap="butt" transform="matrix(0.75, 0, 0, 0.75, 341.624722, 162.189578)" fill="none" stroke-linejoin="miter" d="M 49.995161 0.00243735 L 113.453494 0.00243735 C 141.068077 0.00243735 163.453493 22.382645 163.453493 49.997228 L 163.453493 113.455561 C 163.453493 141.070144 141.068077 163.45556 113.453494 163.45556 L 49.995161 163.45556 C 22.385787 163.45556 0.000370249 141.070144 0.000370249 113.455561 L 0.000370249 49.997228 C 0.000370249 22.382645 22.385787 0.00243735 49.995161 0.00243735 Z M 49.995161 0.00243735 " stroke="#000000" stroke-width="20" stroke-opacity="1" stroke-miterlimit="4"/></g></g><g clip-path="url(#319d975d22)"><g clip-path="url(#e0cf1c97d5)"><g transform="matrix(1, 0, 0, 1, 133, 323)"><g clip-path="url(#da51c79ab0)"><g clip-path="url(#792961e2d1)"><g clip-path="url(#1ef806d67f)"><path fill="#d7f0ff" d="M 0.722656 0.0664062 L 555.792969 0.0664062 L 555.792969 201.339844 L 0.722656 201.339844 Z M 0.722656 0.0664062 " fill-opacity="1" fill-rule="nonzero"/></g></g></g></g></g></g><g clip-path="url(#5fb9acec9f)"><g clip-path="url(#41db1c7096)"><path stroke-linecap="butt" transform="matrix(0.75, 0, 0, 0.75, 133.723077, 323.068509)" fill="none" stroke-linejoin="miter" d="M 74.999443 0.00240527 L 665.218223 0.00240527 C 706.6401 0.00240527 740.218227 33.580532 740.218227 74.997201 L 740.218227 193.36179 C 740.218227 234.778459 706.6401 268.356585 665.218223 268.356585 L 74.999443 268.356585 C 33.577566 268.356585 -0.000560697 234.778459 -0.000560697 193.36179 L -0.000560697 74.997201 C -0.000560697 33.580532 33.577566 0.00240527 74.999443 0.00240527 Z M 74.999443 0.00240527 " stroke="#000000" stroke-width="20" stroke-opacity="1" stroke-miterlimit="4"/></g></g><g clip-path="url(#7987253129)"><g clip-path="url(#bf81d3ebfe)"><g transform="matrix(1, 0, 0, 1, 316, 337)"><g clip-path="url(#9130312cd0)"><g clip-path="url(#64766ca630)"><g clip-path="url(#a51f4a92c8)"><path fill="#ffe372" d="M 0.699219 0.84375 L 172.421875 0.84375 L 172.421875 172.566406 L 0.699219 172.566406 Z M 0.699219 0.84375 " fill-opacity="1" fill-rule="nonzero"/></g></g></g></g></g></g><g clip-path="url(#7b7d276b33)"><g clip-path="url(#88521c49a9)"><g transform="matrix(1, 0, 0, 1, 184, 356)"><g clip-path="url(#894f16cfe4)"><g clip-path="url(#82aabd1942)"><g clip-path="url(#a38a9ec588)"><path fill="#ffffff" d="M 0.0078125 0.144531 L 148.867188 0.144531 L 148.867188 97.855469 L 0.0078125 97.855469 Z M 0.0078125 0.144531 " fill-opacity="1" fill-rule="nonzero"/></g></g></g></g></g></g><g clip-path="url(#08d7ebe010)"><g clip-path="url(#cefaa9af64)"><g transform="matrix(1, 0, 0, 1, 398, 341)"><g clip-path="url(#5e224b5746)"><g clip-path="url(#4e99e19e01)"><g clip-path="url(#6dd93a3c5a)"><path fill="#ffffff" d="M 0.289062 0.0351562 L 149.148438 0.0351562 L 149.148438 97.75 L 0.289062 97.75 Z M 0.289062 0.0351562 " fill-opacity="1" fill-rule="nonzero"/></g></g></g></g></g></g><g clip-path="url(#98348715a8)"><g clip-path="url(#e85f7d5246)"><g transform="matrix(1, 0, 0, 1, 488, 389)"><g clip-path="url(#b530357090)"><g clip-path="url(#bee01c431e)"><g clip-path="url(#93327c1e39)"><path fill="#ffffff" d="M 0.421875 0.890625 L 149.285156 0.890625 L 149.285156 98.605469 L 0.421875 98.605469 Z M 0.421875 0.890625 " fill-opacity="1" fill-rule="nonzero"/></g></g></g></g></g></g><g fill="#000000" fill-opacity="1"><g transform="translate(171.158344, 448.167391)"><g><path d="M 31.578125 0.8125 C 26.191406 0.8125 20.992188 -0.0195312 15.984375 -1.6875 C 10.984375 -3.351562 7.050781 -5.515625 4.1875 -8.171875 L 7.96875 -16.140625 C 10.695312 -13.691406 14.1875 -11.703125 18.4375 -10.171875 C 22.695312 -8.640625 27.078125 -7.875 31.578125 -7.875 C 37.492188 -7.875 41.914062 -8.875 44.84375 -10.875 C 47.78125 -12.882812 49.25 -15.5625 49.25 -18.90625 C 49.25 -21.351562 48.445312 -23.34375 46.84375 -24.875 C 45.238281 -26.40625 43.257812 -27.578125 40.90625 -28.390625 C 38.5625 -29.210938 35.242188 -30.132812 30.953125 -31.15625 C 25.578125 -32.457031 21.234375 -33.753906 17.921875 -35.046875 C 14.617188 -36.335938 11.789062 -38.328125 9.4375 -41.015625 C 7.09375 -43.710938 5.921875 -47.34375 5.921875 -51.90625 C 5.921875 -55.71875 6.925781 -59.15625 8.9375 -62.21875 C 10.945312 -65.289062 13.992188 -67.742188 18.078125 -69.578125 C 22.171875 -71.421875 27.25 -72.34375 33.3125 -72.34375 C 37.53125 -72.34375 41.679688 -71.796875 45.765625 -70.703125 C 49.859375 -69.609375 53.367188 -68.039062 56.296875 -66 L 52.921875 -57.828125 C 49.921875 -59.734375 46.71875 -61.179688 43.3125 -62.171875 C 39.914062 -63.160156 36.582031 -63.65625 33.3125 -63.65625 C 27.519531 -63.65625 23.175781 -62.597656 20.28125 -60.484375 C 17.382812 -58.367188 15.9375 -55.644531 15.9375 -52.3125 C 15.9375 -49.863281 16.753906 -47.867188 18.390625 -46.328125 C 20.023438 -44.796875 22.050781 -43.601562 24.46875 -42.75 C 26.882812 -41.90625 30.171875 -41.003906 34.328125 -40.046875 C 39.710938 -38.753906 44.035156 -37.460938 47.296875 -36.171875 C 50.566406 -34.878906 53.378906 -32.90625 55.734375 -30.25 C 58.085938 -27.59375 59.265625 -24.015625 59.265625 -19.515625 C 59.265625 -15.765625 58.238281 -12.335938 56.1875 -9.234375 C 54.144531 -6.140625 51.046875 -3.691406 46.890625 -1.890625 C 42.742188 -0.0859375 37.640625 0.8125 31.578125 0.8125 Z M 31.578125 0.8125 "/></g></g></g><g fill="#000000" fill-opacity="1"><g transform="translate(234.602245, 448.167391)"><g><path d="M 29.015625 -54.65625 C 36.503906 -54.65625 42.238281 -52.816406 46.21875 -49.140625 C 50.207031 -45.460938 52.203125 -39.976562 52.203125 -32.6875 L 52.203125 0 L 42.90625 0 L 42.90625 -7.15625 C 41.269531 -4.632812 38.9375 -2.707031 35.90625 -1.375 C 32.875 -0.0507812 29.285156 0.609375 25.140625 0.609375 C 19.078125 0.609375 14.222656 -0.851562 10.578125 -3.78125 C 6.929688 -6.707031 5.109375 -10.554688 5.109375 -15.328125 C 5.109375 -20.097656 6.84375 -23.925781 10.3125 -26.8125 C 13.789062 -29.707031 19.3125 -31.15625 26.875 -31.15625 L 42.40625 -31.15625 L 42.40625 -33.109375 C 42.40625 -37.328125 41.175781 -40.5625 38.71875 -42.8125 C 36.269531 -45.0625 32.660156 -46.1875 27.890625 -46.1875 C 24.691406 -46.1875 21.554688 -45.65625 18.484375 -44.59375 C 15.421875 -43.539062 12.835938 -42.128906 10.734375 -40.359375 L 6.640625 -47.71875 C 9.429688 -49.96875 12.769531 -51.6875 16.65625 -52.875 C 20.539062 -54.0625 24.660156 -54.65625 29.015625 -54.65625 Z M 26.765625 -6.953125 C 30.515625 -6.953125 33.75 -7.785156 36.46875 -9.453125 C 39.195312 -11.117188 41.175781 -13.484375 42.40625 -16.546875 L 42.40625 -24.109375 L 27.28125 -24.109375 C 18.96875 -24.109375 14.8125 -21.316406 14.8125 -15.734375 C 14.8125 -13.003906 15.867188 -10.859375 17.984375 -9.296875 C 20.097656 -7.734375 23.023438 -6.953125 26.765625 -6.953125 Z M 26.765625 -6.953125 "/></g></g></g><g fill="#000000" fill-opacity="1"><g transform="translate(295.696366, 448.167391)"><g><path d="M 39.75 -3.171875 C 38.3125 -1.941406 36.535156 -1.003906 34.421875 -0.359375 C 32.316406 0.285156 30.140625 0.609375 27.890625 0.609375 C 22.441406 0.609375 18.21875 -0.851562 15.21875 -3.78125 C 12.226562 -6.707031 10.734375 -10.894531 10.734375 -16.34375 L 10.734375 -46.078125 L 1.53125 -46.078125 L 1.53125 -54.15625 L 10.734375 -54.15625 L 10.734375 -66 L 20.53125 -66 L 20.53125 -54.15625 L 36.0625 -54.15625 L 36.0625 -46.078125 L 20.53125 -46.078125 L 20.53125 -16.75 C 20.53125 -13.820312 21.265625 -11.570312 22.734375 -10 C 24.203125 -8.4375 26.296875 -7.65625 29.015625 -7.65625 C 32.015625 -7.65625 34.570312 -8.507812 36.6875 -10.21875 Z M 39.75 -3.171875 "/></g></g></g><g fill="#000000" fill-opacity="1"><g transform="translate(337.992297, 448.167391)"><g><path d="M 59.765625 -54.15625 L 59.765625 0 L 50.46875 0 L 50.46875 -8.171875 C 48.5 -5.378906 45.894531 -3.21875 42.65625 -1.6875 C 39.414062 -0.15625 35.890625 0.609375 32.078125 0.609375 C 24.859375 0.609375 19.171875 -1.378906 15.015625 -5.359375 C 10.859375 -9.347656 8.78125 -15.222656 8.78125 -22.984375 L 8.78125 -54.15625 L 18.59375 -54.15625 L 18.59375 -24.109375 C 18.59375 -18.867188 19.851562 -14.898438 22.375 -12.203125 C 24.894531 -9.515625 28.503906 -8.171875 33.203125 -8.171875 C 38.378906 -8.171875 42.46875 -9.738281 45.46875 -12.875 C 48.46875 -16.007812 49.96875 -20.4375 49.96875 -26.15625 L 49.96875 -54.15625 Z M 59.765625 -54.15625 "/></g></g></g><g fill="#000000" fill-opacity="1"><g transform="translate(407.157385, 448.167391)"><g><path d="M 18.703125 -45.0625 C 20.398438 -48.1875 22.914062 -50.566406 26.25 -52.203125 C 29.59375 -53.835938 33.648438 -54.65625 38.421875 -54.65625 L 38.421875 -45.15625 C 37.867188 -45.226562 37.117188 -45.265625 36.171875 -45.265625 C 30.859375 -45.265625 26.6875 -43.679688 23.65625 -40.515625 C 20.625 -37.347656 19.109375 -32.832031 19.109375 -26.96875 L 19.109375 0 L 9.296875 0 L 9.296875 -54.15625 L 18.703125 -54.15625 Z M 18.703125 -45.0625 "/></g></g></g><g fill="#000000" fill-opacity="1"><g transform="translate(447.818585, 448.167391)"><g><path d="M 60.390625 -75.8125 L 60.390625 0 L 50.984375 0 L 50.984375 -8.578125 C 48.804688 -5.585938 46.046875 -3.304688 42.703125 -1.734375 C 39.367188 -0.171875 35.691406 0.609375 31.671875 0.609375 C 26.429688 0.609375 21.734375 -0.546875 17.578125 -2.859375 C 13.421875 -5.171875 10.164062 -8.421875 7.8125 -12.609375 C 5.46875 -16.804688 4.296875 -21.628906 4.296875 -27.078125 C 4.296875 -32.523438 5.46875 -37.328125 7.8125 -41.484375 C 10.164062 -45.640625 13.421875 -48.875 17.578125 -51.1875 C 21.734375 -53.5 26.429688 -54.65625 31.671875 -54.65625 C 35.554688 -54.65625 39.132812 -53.921875 42.40625 -52.453125 C 45.675781 -50.992188 48.398438 -48.835938 50.578125 -45.984375 L 50.578125 -75.8125 Z M 32.484375 -7.96875 C 35.890625 -7.96875 38.988281 -8.765625 41.78125 -10.359375 C 44.582031 -11.960938 46.765625 -14.210938 48.328125 -17.109375 C 49.890625 -20.003906 50.671875 -23.328125 50.671875 -27.078125 C 50.671875 -30.816406 49.890625 -34.132812 48.328125 -37.03125 C 46.765625 -39.925781 44.582031 -42.15625 41.78125 -43.71875 C 38.988281 -45.289062 35.890625 -46.078125 32.484375 -46.078125 C 29.015625 -46.078125 25.898438 -45.289062 23.140625 -43.71875 C 20.378906 -42.15625 18.195312 -39.925781 16.59375 -37.03125 C 15 -34.132812 14.203125 -30.816406 14.203125 -27.078125 C 14.203125 -23.328125 15 -20.003906 16.59375 -17.109375 C 18.195312 -14.210938 20.378906 -11.960938 23.140625 -10.359375 C 25.898438 -8.765625 29.015625 -7.96875 32.484375 -7.96875 Z M 32.484375 -7.96875 "/></g></g></g><g fill="#000000" fill-opacity="1"><g transform="translate(517.494492, 448.167391)"><g><path d="M 29.015625 -54.65625 C 36.503906 -54.65625 42.238281 -52.816406 46.21875 -49.140625 C 50.207031 -45.460938 52.203125 -39.976562 52.203125 -32.6875 L 52.203125 0 L 42.90625 0 L 42.90625 -7.15625 C 41.269531 -4.632812 38.9375 -2.707031 35.90625 -1.375 C 32.875 -0.0507812 29.285156 0.609375 25.140625 0.609375 C 19.078125 0.609375 14.222656 -0.851562 10.578125 -3.78125 C 6.929688 -6.707031 5.109375 -10.554688 5.109375 -15.328125 C 5.109375 -20.097656 6.84375 -23.925781 10.3125 -26.8125 C 13.789062 -29.707031 19.3125 -31.15625 26.875 -31.15625 L 42.40625 -31.15625 L 42.40625 -33.109375 C 42.40625 -37.328125 41.175781 -40.5625 38.71875 -42.8125 C 36.269531 -45.0625 32.660156 -46.1875 27.890625 -46.1875 C 24.691406 -46.1875 21.554688 -45.65625 18.484375 -44.59375 C 15.421875 -43.539062 12.835938 -42.128906 10.734375 -40.359375 L 6.640625 -47.71875 C 9.429688 -49.96875 12.769531 -51.6875 16.65625 -52.875 C 20.539062 -54.0625 24.660156 -54.65625 29.015625 -54.65625 Z M 26.765625 -6.953125 C 30.515625 -6.953125 33.75 -7.785156 36.46875 -9.453125 C 39.195312 -11.117188 41.175781 -13.484375 42.40625 -16.546875 L 42.40625 -24.109375 L 27.28125 -24.109375 C 18.96875 -24.109375 14.8125 -21.316406 14.8125 -15.734375 C 14.8125 -13.003906 15.867188 -10.859375 17.984375 -9.296875 C 20.097656 -7.734375 23.023438 -6.953125 26.765625 -6.953125 Z M 26.765625 -6.953125 "/></g></g></g><g fill="#000000" fill-opacity="1"><g transform="translate(577.566862, 448.167391)"><g><path d="M 57.21875 -54.15625 L 30.953125 5.421875 C 28.640625 10.929688 25.929688 14.8125 22.828125 17.0625 C 19.734375 19.3125 16.003906 20.4375 11.640625 20.4375 C 8.984375 20.4375 6.410156 20.007812 3.921875 19.15625 C 1.441406 18.300781 -0.613281 17.054688 -2.25 15.421875 L 1.9375 8.078125 C 4.726562 10.734375 7.960938 12.0625 11.640625 12.0625 C 14.023438 12.0625 16.019531 11.429688 17.625 10.171875 C 19.226562 8.910156 20.675781 6.742188 21.96875 3.671875 L 23.703125 -0.109375 L -0.203125 -54.15625 L 10.015625 -54.15625 L 28.921875 -10.828125 L 47.609375 -54.15625 Z M 57.21875 -54.15625 "/></g></g></g><g fill="#000000" fill-opacity="1"><g transform="translate(163.052251, 244.957244)"><g><path d="M 47.171875 0 L 47.109375 -29.703125 L 32.390625 -5.125 L 28.671875 -5.125 L 13.953125 -29.3125 L 13.953125 0 L 6.015625 0 L 6.015625 -44.796875 L 12.859375 -44.796875 L 30.65625 -15.109375 L 48.125 -44.796875 L 54.96875 -44.796875 L 55.046875 0 Z M 47.171875 0 "/></g></g></g><g fill="#000000" fill-opacity="1"><g transform="translate(366.313607, 245.612849)"><g><path d="M 71.484375 -44.796875 L 56.640625 0 L 47.8125 0 L 36.734375 -33.15625 L 25.46875 0 L 16.578125 0 L 1.734375 -44.796875 L 10.375 -44.796875 L 21.5 -10.75 L 33.09375 -44.796875 L 40.765625 -44.796875 L 52.09375 -10.5625 L 63.546875 -44.796875 Z M 71.484375 -44.796875 "/></g></g></g><g fill="#000000" fill-opacity="1"><g transform="translate(251.623203, 245.612849)"><g><path d="M 15.109375 -37.765625 L 0.25 -37.765625 L 0.25 -44.796875 L 38.265625 -44.796875 L 38.265625 -37.765625 L 23.421875 -37.765625 L 23.421875 0 L 15.109375 0 Z M 15.109375 -37.765625 "/></g></g></g><g fill="#000000" fill-opacity="1"><g transform="translate(289.316881, 245.612849)"><g><path d="M 38.328125 -34.171875 L 38.328125 0 L 30.71875 0 L 30.71875 -4.359375 C 29.4375 -2.816406 27.835938 -1.628906 25.921875 -0.796875 C 24.003906 0.0351562 21.9375 0.453125 19.71875 0.453125 C 15.144531 0.453125 11.546875 -0.816406 8.921875 -3.359375 C 6.296875 -5.898438 4.984375 -9.664062 4.984375 -14.65625 L 4.984375 -34.171875 L 12.984375 -34.171875 L 12.984375 -15.75 C 12.984375 -12.675781 13.675781 -10.378906 15.0625 -8.859375 C 16.457031 -7.347656 18.429688 -6.59375 20.984375 -6.59375 C 23.847656 -6.59375 26.125 -7.476562 27.8125 -9.25 C 29.5 -11.019531 30.34375 -13.566406 30.34375 -16.890625 L 30.34375 -34.171875 Z M 38.328125 -34.171875 "/></g></g></g><g clip-path="url(#804430e6a0)"><g clip-path="url(#dd434fbc4a)"><g transform="matrix(1, 0, 0, 1, 452, 162)"><g clip-path="url(#58ccef8e35)"><g clip-path="url(#7ff485a4db)"><g clip-path="url(#acfbb44b18)"><path fill="#d9d9d9" d="M 0.28125 0.191406 L 122.878906 0.191406 L 122.878906 122.785156 L 0.28125 122.785156 Z M 0.28125 0.191406 " fill-opacity="1" fill-rule="nonzero"/></g></g></g></g></g></g><g clip-path="url(#0e95986a1f)"><g clip-path="url(#3365a680cd)"><path stroke-linecap="butt" transform="matrix(0.75, 0, 0, 0.75, 452.282357, 162.189578)" fill="none" stroke-linejoin="miter" d="M 49.998524 0.00243735 L 113.456856 0.00243735 C 141.066231 0.00243735 163.451647 22.382645 163.451647 49.997228 L 163.451647 113.455561 C 163.451647 141.070144 141.066231 163.45556 113.456856 163.45556 L 49.998524 163.45556 C 22.383941 163.45556 -0.00147566 141.070144 -0.00147566 113.455561 L -0.00147566 49.997228 C -0.00147566 22.382645 22.383941 0.00243735 49.998524 0.00243735 Z M 49.998524 0.00243735 " stroke="#000000" stroke-width="20" stroke-opacity="1" stroke-miterlimit="4"/></g></g><g clip-path="url(#3bf7e2f9a4)"><g clip-path="url(#c83b598870)"><g transform="matrix(1, 0, 0, 1, 343, 562)"><g clip-path="url(#4029a28200)"><g clip-path="url(#1799810396)"><g clip-path="url(#bf8670dd15)"><path fill="#67c7ff" d="M 0.996094 0.621094 L 123.589844 0.621094 L 123.589844 123.21875 L 0.996094 123.21875 Z M 0.996094 0.621094 " fill-opacity="1" fill-rule="nonzero"/></g></g></g></g></g></g><g clip-path="url(#66dfff06db)"><g clip-path="url(#48f8f84021)"><path stroke-linecap="butt" transform="matrix(0.75, 0, 0, 0.75, 343.994254, 562.621816)" fill="none" stroke-linejoin="miter" d="M 49.997244 -0.000962594 L 113.455576 -0.000962594 C 141.070159 -0.000962594 163.455576 22.384454 163.455576 49.999037 L 163.455576 113.457369 C 163.455576 141.066744 141.070159 163.45216 113.455576 163.45216 L 49.997244 163.45216 C 22.382661 163.45216 0.00245274 141.066744 0.00245274 113.457369 L 0.00245274 49.999037 C 0.00245274 22.384454 22.382661 -0.000962594 49.997244 -0.000962594 Z M 49.997244 -0.000962594 " stroke="#000000" stroke-width="20" stroke-opacity="1" stroke-miterlimit="4"/></g></g><g clip-path="url(#a03ba640f5)"><g clip-path="url(#3692b9b1d2)"><g transform="matrix(1, 0, 0, 1, 559, 161)"><g clip-path="url(#518742c18e)"><g clip-path="url(#0d02743ee7)"><g clip-path="url(#13a668450d)"><path fill="#d9d9d9" d="M 0.988281 0.535156 L 123.585938 0.535156 L 123.585938 123.128906 L 0.988281 123.128906 Z M 0.988281 0.535156 " fill-opacity="1" fill-rule="nonzero"/></g></g></g></g></g></g><g clip-path="url(#9177ef0cb5)"><g clip-path="url(#5ca358cd7d)"><path stroke-linecap="butt" transform="matrix(0.75, 0, 0, 0.75, 559.988999, 161.533973)" fill="none" stroke-linejoin="miter" d="M 49.999042 0.0015781 L 113.457374 0.0015781 C 141.066749 0.0015781 163.452165 22.386994 163.452165 49.996369 L 163.452165 113.454702 C 163.452165 141.069285 141.066749 163.454701 113.457374 163.454701 L 49.999042 163.454701 C 22.384459 163.454701 -0.000957437 141.069285 -0.000957437 113.454702 L -0.000957437 49.996369 C -0.000957437 22.386994 22.384459 0.0015781 49.999042 0.0015781 Z M 49.999042 0.0015781 " stroke="#000000" stroke-width="20" stroke-opacity="1" stroke-miterlimit="4"/></g></g><g fill="#000000" fill-opacity="1"><g transform="translate(472.737148, 245.612849)"><g><path d="M 15.109375 -37.765625 L 0.25 -37.765625 L 0.25 -44.796875 L 38.265625 -44.796875 L 38.265625 -37.765625 L 23.421875 -37.765625 L 23.421875 0 L 15.109375 0 Z M 15.109375 -37.765625 "/></g></g></g><g fill="#000000" fill-opacity="1"><g transform="translate(511.262788, 245.612849)"><g><path d="M 24.640625 -34.5625 C 28.953125 -34.5625 32.40625 -33.300781 35 -30.78125 C 37.601562 -28.269531 38.90625 -24.535156 38.90625 -19.578125 L 38.90625 0 L 30.90625 0 L 30.90625 -18.5625 C 30.90625 -21.550781 30.203125 -23.800781 28.796875 -25.3125 C 27.390625 -26.820312 25.382812 -27.578125 22.78125 -27.578125 C 19.84375 -27.578125 17.519531 -26.691406 15.8125 -24.921875 C 14.101562 -23.148438 13.25 -20.601562 13.25 -17.28125 L 13.25 0 L 5.25 0 L 5.25 -47.484375 L 13.25 -47.484375 L 13.25 -30.203125 C 14.570312 -31.609375 16.203125 -32.6875 18.140625 -33.4375 C 20.085938 -34.1875 22.253906 -34.5625 24.640625 -34.5625 Z M 24.640625 -34.5625 "/></g></g></g><g fill="#000000" fill-opacity="1"><g transform="translate(363.371644, 646.045067)"><g><path d="M 19.90625 0.640625 C 16.445312 0.640625 13.109375 0.148438 9.890625 -0.828125 C 6.671875 -1.804688 4.117188 -3.109375 2.234375 -4.734375 L 5.125 -11.203125 C 6.957031 -9.753906 9.207031 -8.566406 11.875 -7.640625 C 14.539062 -6.722656 17.21875 -6.265625 19.90625 -6.265625 C 23.226562 -6.265625 25.710938 -6.796875 27.359375 -7.859375 C 29.003906 -8.929688 29.828125 -10.34375 29.828125 -12.09375 C 29.828125 -13.375 29.367188 -14.429688 28.453125 -15.265625 C 27.535156 -16.097656 26.367188 -16.75 24.953125 -17.21875 C 23.546875 -17.6875 21.628906 -18.21875 19.203125 -18.8125 C 15.785156 -19.625 13.019531 -20.4375 10.90625 -21.25 C 8.800781 -22.0625 6.988281 -23.328125 5.46875 -25.046875 C 3.957031 -26.773438 3.203125 -29.113281 3.203125 -32.0625 C 3.203125 -34.539062 3.875 -36.789062 5.21875 -38.8125 C 6.5625 -40.84375 8.585938 -42.453125 11.296875 -43.640625 C 14.003906 -44.835938 17.320312 -45.4375 21.25 -45.4375 C 23.976562 -45.4375 26.664062 -45.09375 29.3125 -44.40625 C 31.957031 -43.726562 34.238281 -42.75 36.15625 -41.46875 L 33.53125 -35.015625 C 31.570312 -36.160156 29.523438 -37.03125 27.390625 -37.625 C 25.253906 -38.226562 23.1875 -38.53125 21.1875 -38.53125 C 17.894531 -38.53125 15.445312 -37.972656 13.84375 -36.859375 C 12.25 -35.753906 11.453125 -34.285156 11.453125 -32.453125 C 11.453125 -31.171875 11.910156 -30.125 12.828125 -29.3125 C 13.742188 -28.5 14.90625 -27.859375 16.3125 -27.390625 C 17.726562 -26.921875 19.648438 -26.390625 22.078125 -25.796875 C 25.410156 -25.023438 28.140625 -24.222656 30.265625 -23.390625 C 32.398438 -22.554688 34.222656 -21.285156 35.734375 -19.578125 C 37.253906 -17.878906 38.015625 -15.578125 38.015625 -12.671875 C 38.015625 -10.191406 37.34375 -7.945312 36 -5.9375 C 34.65625 -3.9375 32.617188 -2.335938 29.890625 -1.140625 C 27.160156 0.046875 23.832031 0.640625 19.90625 0.640625 Z M 19.90625 0.640625 "/></g></g></g><g fill="#000000" fill-opacity="1"><g transform="translate(403.625171, 646.045067)"><g><path d="M 38.328125 -34.171875 L 38.328125 0 L 30.71875 0 L 30.71875 -4.359375 C 29.4375 -2.816406 27.835938 -1.628906 25.921875 -0.796875 C 24.003906 0.0351562 21.9375 0.453125 19.71875 0.453125 C 15.144531 0.453125 11.546875 -0.816406 8.921875 -3.359375 C 6.296875 -5.898438 4.984375 -9.664062 4.984375 -14.65625 L 4.984375 -34.171875 L 12.984375 -34.171875 L 12.984375 -15.75 C 12.984375 -12.675781 13.675781 -10.378906 15.0625 -8.859375 C 16.457031 -7.347656 18.429688 -6.59375 20.984375 -6.59375 C 23.847656 -6.59375 26.125 -7.476562 27.8125 -9.25 C 29.5 -11.019531 30.34375 -13.566406 30.34375 -16.890625 L 30.34375 -34.171875 Z M 38.328125 -34.171875 "/></g></g></g><g fill="#000000" fill-opacity="1"><g transform="translate(601.195101, 244.957244)"><g><path d="M 14.34375 -37.828125 L 14.34375 -24.1875 L 35.96875 -24.1875 L 35.96875 -17.15625 L 14.34375 -17.15625 L 14.34375 0 L 6.015625 0 L 6.015625 -44.796875 L 38.71875 -44.796875 L 38.71875 -37.828125 Z M 14.34375 -37.828125 "/></g></g></g></svg>