<svg xmlns="http://www.w3.org/2000/svg" xmlns:xlink="http://www.w3.org/1999/xlink" width="1080" zoomAndPan="magnify" viewBox="0 0 810 809.999993" height="1080" preserveAspectRatio="xMidYMid meet" version="1.0"><defs><g/><clipPath id="0bac0fb024"><path d="M 51.394531 62.722656 L 758.605469 62.722656 L 758.605469 769.9375 L 51.394531 769.9375 Z M 51.394531 62.722656 " clip-rule="nonzero"/></clipPath><clipPath id="34882569ad"><path d="M 126.394531 62.722656 L 683.605469 62.722656 C 725.027344 62.722656 758.605469 96.300781 758.605469 137.722656 L 758.605469 694.9375 C 758.605469 736.359375 725.027344 769.9375 683.605469 769.9375 L 126.394531 769.9375 C 84.972656 769.9375 51.394531 736.359375 51.394531 694.9375 L 51.394531 137.722656 C 51.394531 96.300781 84.972656 62.722656 126.394531 62.722656 Z M 126.394531 62.722656 " clip-rule="nonzero"/></clipPath><clipPath id="1fd6a71a09"><path d="M 0.394531 0.722656 L 707.605469 0.722656 L 707.605469 707.9375 L 0.394531 707.9375 Z M 0.394531 0.722656 " clip-rule="nonzero"/></clipPath><clipPath id="9915933a94"><path d="M 75.394531 0.722656 L 632.605469 0.722656 C 674.027344 0.722656 707.605469 34.300781 707.605469 75.722656 L 707.605469 632.9375 C 707.605469 674.359375 674.027344 707.9375 632.605469 707.9375 L 75.394531 707.9375 C 33.972656 707.9375 0.394531 674.359375 0.394531 632.9375 L 0.394531 75.722656 C 0.394531 34.300781 33.972656 0.722656 75.394531 0.722656 Z M 75.394531 0.722656 " clip-rule="nonzero"/></clipPath><clipPath id="e393508cba"><rect x="0" width="708" y="0" height="708"/></clipPath><clipPath id="6fda0c2fea"><path d="M 51.394531 62.722656 L 758.640625 62.722656 L 758.640625 769.972656 L 51.394531 769.972656 Z M 51.394531 62.722656 " clip-rule="nonzero"/></clipPath><clipPath id="d1d478d0a0"><path d="M 126.390625 62.722656 L 683.597656 62.722656 C 725.019531 62.722656 758.59375 96.300781 758.59375 137.722656 L 758.59375 694.929688 C 758.59375 736.347656 725.019531 769.925781 683.597656 769.925781 L 126.390625 769.925781 C 84.96875 769.925781 51.394531 736.347656 51.394531 694.929688 L 51.394531 137.722656 C 51.394531 96.300781 84.96875 62.722656 126.390625 62.722656 Z M 126.390625 62.722656 " clip-rule="nonzero"/></clipPath><clipPath id="01738bf8ad"><path d="M 47.328125 60.808594 L 763.578125 60.808594 L 763.578125 775.558594 L 47.328125 775.558594 Z M 47.328125 60.808594 " clip-rule="nonzero"/></clipPath><clipPath id="a9ca1c4c96"><path d="M 122.328125 60.808594 L 688.25 60.808594 C 729.671875 60.808594 763.25 94.386719 763.25 135.804688 L 763.25 700.558594 C 763.25 741.980469 729.671875 775.558594 688.25 775.558594 L 122.328125 775.558594 C 80.90625 775.558594 47.328125 741.980469 47.328125 700.558594 L 47.328125 135.804688 C 47.328125 94.386719 80.90625 60.808594 122.328125 60.808594 Z M 122.328125 60.808594 " clip-rule="nonzero"/></clipPath><clipPath id="02bb06d14b"><path d="M 88.839844 103.125 L 722 103.125 L 722 729.539062 L 88.839844 729.539062 Z M 88.839844 103.125 " clip-rule="nonzero"/></clipPath><clipPath id="c48c4c457c"><path d="M 127.089844 103.125 L 682.910156 103.125 C 693.054688 103.125 702.785156 107.152344 709.957031 114.328125 C 717.132812 121.5 721.160156 131.230469 721.160156 141.375 L 721.160156 691.289062 C 721.160156 701.433594 717.132812 711.160156 709.957031 718.335938 C 702.785156 725.507812 693.054688 729.539062 682.910156 729.539062 L 127.089844 729.539062 C 116.945312 729.539062 107.214844 725.507812 100.042969 718.335938 C 92.867188 711.160156 88.839844 701.433594 88.839844 691.289062 L 88.839844 141.375 C 88.839844 131.230469 92.867188 121.5 100.042969 114.328125 C 107.214844 107.152344 116.945312 103.125 127.089844 103.125 Z M 127.089844 103.125 " clip-rule="nonzero"/></clipPath><clipPath id="0d978c2069"><path d="M 0.839844 0.125 L 633 0.125 L 633 626.539062 L 0.839844 626.539062 Z M 0.839844 0.125 " clip-rule="nonzero"/></clipPath><clipPath id="1dd14c88ca"><path d="M 39.089844 0.125 L 594.910156 0.125 C 605.054688 0.125 614.785156 4.152344 621.957031 11.328125 C 629.132812 18.5 633.160156 28.230469 633.160156 38.375 L 633.160156 588.289062 C 633.160156 598.433594 629.132812 608.160156 621.957031 615.335938 C 614.785156 622.507812 605.054688 626.539062 594.910156 626.539062 L 39.089844 626.539062 C 28.945312 626.539062 19.214844 622.507812 12.042969 615.335938 C 4.867188 608.160156 0.839844 598.433594 0.839844 588.289062 L 0.839844 38.375 C 0.839844 28.230469 4.867188 18.5 12.042969 11.328125 C 19.214844 4.152344 28.945312 0.125 39.089844 0.125 Z M 39.089844 0.125 " clip-rule="nonzero"/></clipPath><clipPath id="0d5bfc5a5d"><rect x="0" width="634" y="0" height="627"/></clipPath><clipPath id="d33799c13c"><path d="M 88.839844 103.125 L 721.089844 103.125 L 721.089844 729.375 L 88.839844 729.375 Z M 88.839844 103.125 " clip-rule="nonzero"/></clipPath><clipPath id="7303b517e8"><path d="M 127.089844 103.125 L 682.910156 103.125 C 693.054688 103.125 702.78125 107.15625 709.957031 114.328125 C 717.128906 121.5 721.160156 131.230469 721.160156 141.375 L 721.160156 691.285156 C 721.160156 701.429688 717.128906 711.160156 709.957031 718.332031 C 702.78125 725.507812 693.054688 729.535156 682.910156 729.535156 L 127.089844 729.535156 C 116.945312 729.535156 107.214844 725.507812 100.042969 718.332031 C 92.867188 711.160156 88.839844 701.429688 88.839844 691.285156 L 88.839844 141.375 C 88.839844 131.230469 92.867188 121.5 100.042969 114.328125 C 107.214844 107.15625 116.945312 103.125 127.089844 103.125 Z M 127.089844 103.125 " clip-rule="nonzero"/></clipPath><clipPath id="a72f4700c5"><path d="M 198.414062 162.191406 L 321.011719 162.191406 L 321.011719 284.785156 L 198.414062 284.785156 Z M 198.414062 162.191406 " clip-rule="nonzero"/></clipPath><clipPath id="2b42096369"><path d="M 235.914062 162.191406 L 283.511719 162.191406 C 304.222656 162.191406 321.011719 178.980469 321.011719 199.691406 L 321.011719 247.285156 C 321.011719 267.996094 304.222656 284.785156 283.511719 284.785156 L 235.914062 284.785156 C 215.207031 284.785156 198.414062 267.996094 198.414062 247.285156 L 198.414062 199.691406 C 198.414062 178.980469 215.207031 162.191406 235.914062 162.191406 Z M 235.914062 162.191406 " clip-rule="nonzero"/></clipPath><clipPath id="d30d81f23d"><path d="M 0.414062 0.191406 L 123.011719 0.191406 L 123.011719 122.785156 L 0.414062 122.785156 Z M 0.414062 0.191406 " clip-rule="nonzero"/></clipPath><clipPath id="2f2c766bd4"><path d="M 37.914062 0.191406 L 85.511719 0.191406 C 106.222656 0.191406 123.011719 16.980469 123.011719 37.691406 L 123.011719 85.285156 C 123.011719 105.996094 106.222656 122.785156 85.511719 122.785156 L 37.914062 122.785156 C 17.207031 122.785156 0.414062 105.996094 0.414062 85.285156 L 0.414062 37.691406 C 0.414062 16.980469 17.207031 0.191406 37.914062 0.191406 Z M 37.914062 0.191406 " clip-rule="nonzero"/></clipPath><clipPath id="b0e44c6cb4"><rect x="0" width="124" y="0" height="123"/></clipPath><clipPath id="f646587358"><path d="M 198.414062 162.191406 L 320.664062 162.191406 L 320.664062 284.441406 L 198.414062 284.441406 Z M 198.414062 162.191406 " clip-rule="nonzero"/></clipPath><clipPath id="93a123fd01"><path d="M 235.914062 162.191406 L 283.507812 162.191406 C 304.21875 162.191406 321.003906 178.976562 321.003906 199.6875 L 321.003906 247.28125 C 321.003906 267.992188 304.21875 284.78125 283.507812 284.78125 L 235.914062 284.78125 C 215.203125 284.78125 198.414062 267.992188 198.414062 247.28125 L 198.414062 199.6875 C 198.414062 178.976562 215.203125 162.191406 235.914062 162.191406 Z M 235.914062 162.191406 " clip-rule="nonzero"/></clipPath><clipPath id="29df1ba506"><path d="M 341.261719 161.515625 L 463.859375 161.515625 L 463.859375 284.113281 L 341.261719 284.113281 Z M 341.261719 161.515625 " clip-rule="nonzero"/></clipPath><clipPath id="c9478f7991"><path d="M 378.761719 161.515625 L 426.359375 161.515625 C 447.070312 161.515625 463.859375 178.304688 463.859375 199.015625 L 463.859375 246.613281 C 463.859375 267.324219 447.070312 284.113281 426.359375 284.113281 L 378.761719 284.113281 C 358.050781 284.113281 341.261719 267.324219 341.261719 246.613281 L 341.261719 199.015625 C 341.261719 178.304688 358.050781 161.515625 378.761719 161.515625 Z M 378.761719 161.515625 " clip-rule="nonzero"/></clipPath><clipPath id="8389fa4955"><path d="M 0.261719 0.515625 L 122.859375 0.515625 L 122.859375 123.113281 L 0.261719 123.113281 Z M 0.261719 0.515625 " clip-rule="nonzero"/></clipPath><clipPath id="6a05bf74cb"><path d="M 37.761719 0.515625 L 85.359375 0.515625 C 106.070312 0.515625 122.859375 17.304688 122.859375 38.015625 L 122.859375 85.613281 C 122.859375 106.324219 106.070312 123.113281 85.359375 123.113281 L 37.761719 123.113281 C 17.050781 123.113281 0.261719 106.324219 0.261719 85.613281 L 0.261719 38.015625 C 0.261719 17.304688 17.050781 0.515625 37.761719 0.515625 Z M 37.761719 0.515625 " clip-rule="nonzero"/></clipPath><clipPath id="2f7cf129e8"><rect x="0" width="123" y="0" height="124"/></clipPath><clipPath id="2baacfb0dd"><path d="M 341.261719 161.515625 L 463.511719 161.515625 L 463.511719 283.765625 L 341.261719 283.765625 Z M 341.261719 161.515625 " clip-rule="nonzero"/></clipPath><clipPath id="bdb29bdb91"><path d="M 378.761719 161.515625 L 426.355469 161.515625 C 447.0625 161.515625 463.851562 178.304688 463.851562 199.011719 L 463.851562 246.605469 C 463.851562 267.316406 447.0625 284.105469 426.355469 284.105469 L 378.761719 284.105469 C 358.050781 284.105469 341.261719 267.316406 341.261719 246.605469 L 341.261719 199.011719 C 341.261719 178.304688 358.050781 161.515625 378.761719 161.515625 Z M 378.761719 161.515625 " clip-rule="nonzero"/></clipPath><clipPath id="00a9dc3da0"><path d="M 484.214844 162.191406 L 606.8125 162.191406 L 606.8125 284.785156 L 484.214844 284.785156 Z M 484.214844 162.191406 " clip-rule="nonzero"/></clipPath><clipPath id="172532af9c"><path d="M 521.714844 162.191406 L 569.3125 162.191406 C 590.019531 162.191406 606.8125 178.980469 606.8125 199.691406 L 606.8125 247.285156 C 606.8125 267.996094 590.019531 284.785156 569.3125 284.785156 L 521.714844 284.785156 C 501.003906 284.785156 484.214844 267.996094 484.214844 247.285156 L 484.214844 199.691406 C 484.214844 178.980469 501.003906 162.191406 521.714844 162.191406 Z M 521.714844 162.191406 " clip-rule="nonzero"/></clipPath><clipPath id="739c635cff"><path d="M 0.214844 0.191406 L 122.8125 0.191406 L 122.8125 122.785156 L 0.214844 122.785156 Z M 0.214844 0.191406 " clip-rule="nonzero"/></clipPath><clipPath id="45349d953d"><path d="M 37.714844 0.191406 L 85.3125 0.191406 C 106.019531 0.191406 122.8125 16.980469 122.8125 37.691406 L 122.8125 85.285156 C 122.8125 105.996094 106.019531 122.785156 85.3125 122.785156 L 37.714844 122.785156 C 17.003906 122.785156 0.214844 105.996094 0.214844 85.285156 L 0.214844 37.691406 C 0.214844 16.980469 17.003906 0.191406 37.714844 0.191406 Z M 37.714844 0.191406 " clip-rule="nonzero"/></clipPath><clipPath id="b15e47ad8a"><rect x="0" width="123" y="0" height="123"/></clipPath><clipPath id="6ed26bb5aa"><path d="M 484.214844 162.191406 L 606.464844 162.191406 L 606.464844 284.441406 L 484.214844 284.441406 Z M 484.214844 162.191406 " clip-rule="nonzero"/></clipPath><clipPath id="e1b14ea7a0"><path d="M 521.710938 162.191406 L 569.304688 162.191406 C 590.015625 162.191406 606.804688 178.976562 606.804688 199.6875 L 606.804688 247.28125 C 606.804688 267.992188 590.015625 284.78125 569.304688 284.78125 L 521.710938 284.78125 C 501.003906 284.78125 484.214844 267.992188 484.214844 247.28125 L 484.214844 199.6875 C 484.214844 178.976562 501.003906 162.191406 521.710938 162.191406 Z M 521.710938 162.191406 " clip-rule="nonzero"/></clipPath><clipPath id="0a9390f83b"><path d="M 133.722656 471.207031 L 689 471.207031 L 689 672.480469 L 133.722656 672.480469 Z M 133.722656 471.207031 " clip-rule="nonzero"/></clipPath><clipPath id="8e0291fc50"><path d="M 189.972656 471.207031 L 632.644531 471.207031 C 663.710938 471.207031 688.894531 496.390625 688.894531 527.457031 L 688.894531 616.230469 C 688.894531 647.296875 663.710938 672.480469 632.644531 672.480469 L 189.972656 672.480469 C 158.90625 672.480469 133.722656 647.296875 133.722656 616.230469 L 133.722656 527.457031 C 133.722656 496.390625 158.90625 471.207031 189.972656 471.207031 Z M 189.972656 471.207031 " clip-rule="nonzero"/></clipPath><clipPath id="2f959bd870"><path d="M 0.722656 0.207031 L 556 0.207031 L 556 201.480469 L 0.722656 201.480469 Z M 0.722656 0.207031 " clip-rule="nonzero"/></clipPath><clipPath id="582fbad551"><path d="M 56.972656 0.207031 L 499.644531 0.207031 C 530.710938 0.207031 555.894531 25.390625 555.894531 56.457031 L 555.894531 145.230469 C 555.894531 176.296875 530.710938 201.480469 499.644531 201.480469 L 56.972656 201.480469 C 25.90625 201.480469 0.722656 176.296875 0.722656 145.230469 L 0.722656 56.457031 C 0.722656 25.390625 25.90625 0.207031 56.972656 0.207031 Z M 56.972656 0.207031 " clip-rule="nonzero"/></clipPath><clipPath id="ad95412311"><rect x="0" width="556" y="0" height="202"/></clipPath><clipPath id="5075e56673"><path d="M 133.722656 471.207031 L 688.722656 471.207031 L 688.722656 672.207031 L 133.722656 672.207031 Z M 133.722656 471.207031 " clip-rule="nonzero"/></clipPath><clipPath id="acf4fe39f6"><path d="M 189.972656 471.207031 L 632.636719 471.207031 C 663.703125 471.207031 688.886719 496.390625 688.886719 527.457031 L 688.886719 616.226562 C 688.886719 647.292969 663.703125 672.476562 632.636719 672.476562 L 189.972656 672.476562 C 158.90625 672.476562 133.722656 647.292969 133.722656 616.226562 L 133.722656 527.457031 C 133.722656 496.390625 158.90625 471.207031 189.972656 471.207031 Z M 189.972656 471.207031 " clip-rule="nonzero"/></clipPath><clipPath id="f522a04c39"><path d="M 316.699219 485.984375 L 488.421875 485.984375 L 488.421875 657.703125 L 316.699219 657.703125 Z M 316.699219 485.984375 " clip-rule="nonzero"/></clipPath><clipPath id="f12a26e509"><path d="M 402.5625 485.984375 C 355.140625 485.984375 316.699219 524.425781 316.699219 571.84375 C 316.699219 619.265625 355.140625 657.703125 402.5625 657.703125 C 449.980469 657.703125 488.421875 619.265625 488.421875 571.84375 C 488.421875 524.425781 449.980469 485.984375 402.5625 485.984375 Z M 402.5625 485.984375 " clip-rule="nonzero"/></clipPath><clipPath id="2aef99ed33"><path d="M 0.699219 0.984375 L 172.421875 0.984375 L 172.421875 172.703125 L 0.699219 172.703125 Z M 0.699219 0.984375 " clip-rule="nonzero"/></clipPath><clipPath id="5ab8302ea2"><path d="M 86.5625 0.984375 C 39.140625 0.984375 0.699219 39.425781 0.699219 86.84375 C 0.699219 134.265625 39.140625 172.703125 86.5625 172.703125 C 133.980469 172.703125 172.421875 134.265625 172.421875 86.84375 C 172.421875 39.425781 133.980469 0.984375 86.5625 0.984375 Z M 86.5625 0.984375 " clip-rule="nonzero"/></clipPath><clipPath id="6a3707d840"><rect x="0" width="173" y="0" height="173"/></clipPath><clipPath id="99cdeb06f2"><path d="M 217.816406 499.273438 L 367 499.273438 L 367 596.988281 L 217.816406 596.988281 Z M 217.816406 499.273438 " clip-rule="nonzero"/></clipPath><clipPath id="602c401c4b"><path d="M 302.355469 499.273438 C 303.988281 499.273438 305.632812 499.273438 307.261719 499.273438 C 320.257812 500.90625 328.378906 506.339844 332.078125 515.230469 C 353.742188 514.042969 369.496094 530.851562 359.894531 547.347656 C 363.089844 550.816406 365.75 554.695312 366.714844 559.898438 C 366.714844 561.390625 366.714844 562.875 366.714844 564.367188 C 363.847656 577.613281 351.511719 586.5625 331.265625 584.152344 C 326.054688 590.957031 316.785156 597.765625 302.359375 596.917969 C 294.902344 596.472656 289.714844 593.886719 285.171875 590.742188 C 280.390625 593.355469 275.210938 595.40625 267.722656 595.425781 C 250.40625 595.464844 238.820312 585.402344 238.539062 571.601562 C 227.40625 568.375 219.867188 562.347656 217.816406 552.035156 C 217.816406 550.542969 217.816406 549.050781 217.816406 547.566406 C 220.082031 537.34375 227.210938 530.925781 239.082031 528.207031 C 238.371094 510.964844 262.117188 500.195312 281.625 507.789062 C 286.269531 504.035156 292.84375 499.9375 302.355469 499.273438 Z M 302.355469 499.273438 " clip-rule="nonzero"/></clipPath><clipPath id="aa6221ad6d"><path d="M 0.816406 0.273438 L 150 0.273438 L 150 97.988281 L 0.816406 97.988281 Z M 0.816406 0.273438 " clip-rule="nonzero"/></clipPath><clipPath id="c84b3f7f6a"><path d="M 85.355469 0.273438 C 86.988281 0.273438 88.632812 0.273438 90.261719 0.273438 C 103.257812 1.90625 111.378906 7.339844 115.078125 16.230469 C 136.742188 15.042969 152.496094 31.851562 142.894531 48.347656 C 146.089844 51.816406 148.75 55.695312 149.714844 60.898438 C 149.714844 62.390625 149.714844 63.875 149.714844 65.367188 C 146.847656 78.613281 134.511719 87.5625 114.265625 85.152344 C 109.054688 91.957031 99.785156 98.765625 85.359375 97.917969 C 77.902344 97.472656 72.714844 94.886719 68.171875 91.742188 C 63.390625 94.355469 58.210938 96.40625 50.722656 96.425781 C 33.40625 96.464844 21.820312 86.402344 21.539062 72.601562 C 10.40625 69.375 2.867188 63.347656 0.816406 53.035156 C 0.816406 51.542969 0.816406 50.050781 0.816406 48.566406 C 3.082031 38.34375 10.210938 31.925781 22.082031 29.207031 C 21.371094 11.964844 45.117188 1.195312 64.625 8.789062 C 69.269531 5.035156 75.84375 0.9375 85.355469 0.273438 Z M 85.355469 0.273438 " clip-rule="nonzero"/></clipPath><clipPath id="4a8ec929db"><rect x="0" width="150" y="0" height="98"/></clipPath><clipPath id="65dbb50411"><path d="M 402.921875 499.273438 L 552 499.273438 L 552 596.988281 L 402.921875 596.988281 Z M 402.921875 499.273438 " clip-rule="nonzero"/></clipPath><clipPath id="a6dcb24c6f"><path d="M 487.464844 499.273438 C 489.097656 499.273438 490.742188 499.273438 492.371094 499.273438 C 505.367188 500.90625 513.488281 506.339844 517.1875 515.230469 C 538.851562 514.042969 554.605469 530.851562 545.003906 547.347656 C 548.195312 550.816406 550.859375 554.695312 551.820312 559.898438 C 551.820312 561.390625 551.820312 562.875 551.820312 564.367188 C 548.953125 577.613281 536.621094 586.5625 516.371094 584.152344 C 511.164062 590.957031 501.894531 597.765625 487.46875 596.917969 C 480.011719 596.472656 474.824219 593.886719 470.28125 590.742188 C 465.5 593.355469 460.316406 595.40625 452.832031 595.425781 C 435.515625 595.464844 423.929688 585.402344 423.648438 571.601562 C 412.515625 568.375 404.976562 562.347656 402.921875 552.035156 C 402.921875 550.542969 402.921875 549.050781 402.921875 547.566406 C 405.1875 537.34375 412.320312 530.925781 424.191406 528.207031 C 423.476562 510.964844 447.226562 500.195312 466.734375 507.789062 C 471.378906 504.035156 477.953125 499.9375 487.464844 499.273438 Z M 487.464844 499.273438 " clip-rule="nonzero"/></clipPath><clipPath id="b85fea717b"><path d="M 0.921875 0.273438 L 150 0.273438 L 150 97.988281 L 0.921875 97.988281 Z M 0.921875 0.273438 " clip-rule="nonzero"/></clipPath><clipPath id="5290b0381c"><path d="M 85.464844 0.273438 C 87.097656 0.273438 88.742188 0.273438 90.371094 0.273438 C 103.367188 1.90625 111.488281 7.339844 115.1875 16.230469 C 136.851562 15.042969 152.605469 31.851562 143.003906 48.347656 C 146.195312 51.816406 148.859375 55.695312 149.820312 60.898438 C 149.820312 62.390625 149.820312 63.875 149.820312 65.367188 C 146.953125 78.613281 134.621094 87.5625 114.371094 85.152344 C 109.164062 91.957031 99.894531 98.765625 85.46875 97.917969 C 78.011719 97.472656 72.824219 94.886719 68.28125 91.742188 C 63.5 94.355469 58.316406 96.40625 50.832031 96.425781 C 33.515625 96.464844 21.929688 86.402344 21.648438 72.601562 C 10.515625 69.375 2.976562 63.347656 0.921875 53.035156 C 0.921875 51.542969 0.921875 50.050781 0.921875 48.566406 C 3.1875 38.34375 10.320312 31.925781 22.191406 29.207031 C 21.476562 11.964844 45.226562 1.195312 64.734375 8.789062 C 69.378906 5.035156 75.953125 0.9375 85.464844 0.273438 Z M 85.464844 0.273438 " clip-rule="nonzero"/></clipPath><clipPath id="dbf336ac70"><rect x="0" width="150" y="0" height="98"/></clipPath><clipPath id="14351ecf2b"><path d="M 488.421875 540.324219 L 637.664062 540.324219 L 637.664062 638.039062 L 488.421875 638.039062 Z M 488.421875 540.324219 " clip-rule="nonzero"/></clipPath><clipPath id="e664abd93a"><path d="M 572.964844 540.324219 C 574.597656 540.324219 576.238281 540.324219 577.871094 540.324219 C 590.863281 541.957031 598.984375 547.390625 602.683594 556.28125 C 624.351562 555.09375 640.101562 571.902344 630.503906 588.398438 C 633.695312 591.867188 636.359375 595.742188 637.320312 600.949219 C 637.320312 602.4375 637.320312 603.925781 637.320312 605.417969 C 634.453125 618.664062 622.121094 627.613281 601.871094 625.203125 C 596.660156 632.003906 587.390625 638.816406 572.964844 637.96875 C 565.507812 637.523438 560.324219 634.933594 555.78125 631.792969 C 550.996094 634.40625 545.816406 636.453125 538.332031 636.476562 C 521.011719 636.515625 509.429688 626.453125 509.148438 612.652344 C 498.015625 609.421875 490.476562 603.398438 488.421875 593.082031 C 488.421875 591.59375 488.421875 590.097656 488.421875 588.613281 C 490.6875 578.394531 497.816406 571.976562 509.691406 569.253906 C 508.976562 552.015625 532.722656 541.246094 552.234375 548.839844 C 556.878906 545.082031 563.449219 540.988281 572.964844 540.324219 Z M 572.964844 540.324219 " clip-rule="nonzero"/></clipPath><clipPath id="72ffde0241"><path d="M 0.421875 0.324219 L 149.664062 0.324219 L 149.664062 98.039062 L 0.421875 98.039062 Z M 0.421875 0.324219 " clip-rule="nonzero"/></clipPath><clipPath id="cfb59e1a9c"><path d="M 84.964844 0.324219 C 86.597656 0.324219 88.238281 0.324219 89.871094 0.324219 C 102.863281 1.957031 110.984375 7.390625 114.683594 16.28125 C 136.351562 15.09375 152.101562 31.902344 142.503906 48.398438 C 145.695312 51.867188 148.359375 55.742188 149.320312 60.949219 C 149.320312 62.4375 149.320312 63.925781 149.320312 65.417969 C 146.453125 78.664062 134.121094 87.613281 113.871094 85.203125 C 108.660156 92.003906 99.390625 98.816406 84.964844 97.96875 C 77.507812 97.523438 72.324219 94.933594 67.78125 91.792969 C 62.996094 94.40625 57.816406 96.453125 50.332031 96.476562 C 33.011719 96.515625 21.429688 86.453125 21.148438 72.652344 C 10.015625 69.421875 2.476562 63.398438 0.421875 53.082031 C 0.421875 51.59375 0.421875 50.097656 0.421875 48.613281 C 2.6875 38.394531 9.816406 31.976562 21.691406 29.253906 C 20.976562 12.015625 44.722656 1.246094 64.234375 8.839844 C 68.878906 5.082031 75.449219 0.988281 84.964844 0.324219 Z M 84.964844 0.324219 " clip-rule="nonzero"/></clipPath><clipPath id="a60666d8c6"><rect x="0" width="150" y="0" height="99"/></clipPath><clipPath id="c7c91b5417"><path d="M 341.261719 316.363281 L 463.859375 316.363281 L 463.859375 438.957031 L 341.261719 438.957031 Z M 341.261719 316.363281 " clip-rule="nonzero"/></clipPath><clipPath id="baee6c0249"><path d="M 378.761719 316.363281 L 426.359375 316.363281 C 447.070312 316.363281 463.859375 333.152344 463.859375 353.863281 L 463.859375 401.457031 C 463.859375 422.167969 447.070312 438.957031 426.359375 438.957031 L 378.761719 438.957031 C 358.050781 438.957031 341.261719 422.167969 341.261719 401.457031 L 341.261719 353.863281 C 341.261719 333.152344 358.050781 316.363281 378.761719 316.363281 Z M 378.761719 316.363281 " clip-rule="nonzero"/></clipPath><clipPath id="a31a96ec78"><path d="M 0.261719 0.363281 L 122.859375 0.363281 L 122.859375 122.957031 L 0.261719 122.957031 Z M 0.261719 0.363281 " clip-rule="nonzero"/></clipPath><clipPath id="d8433a26f1"><path d="M 37.761719 0.363281 L 85.359375 0.363281 C 106.070312 0.363281 122.859375 17.152344 122.859375 37.863281 L 122.859375 85.457031 C 122.859375 106.167969 106.070312 122.957031 85.359375 122.957031 L 37.761719 122.957031 C 17.050781 122.957031 0.261719 106.167969 0.261719 85.457031 L 0.261719 37.863281 C 0.261719 17.152344 17.050781 0.363281 37.761719 0.363281 Z M 37.761719 0.363281 " clip-rule="nonzero"/></clipPath><clipPath id="ade543380e"><rect x="0" width="123" y="0" height="123"/></clipPath><clipPath id="dbe1a02a6c"><path d="M 341.261719 316.363281 L 463.511719 316.363281 L 463.511719 438.613281 L 341.261719 438.613281 Z M 341.261719 316.363281 " clip-rule="nonzero"/></clipPath><clipPath id="cec3ab7914"><path d="M 378.761719 316.363281 L 426.355469 316.363281 C 447.0625 316.363281 463.851562 333.148438 463.851562 353.859375 L 463.851562 401.453125 C 463.851562 422.164062 447.0625 438.953125 426.355469 438.953125 L 378.761719 438.953125 C 358.050781 438.953125 341.261719 422.164062 341.261719 401.453125 L 341.261719 353.859375 C 341.261719 333.148438 358.050781 316.363281 378.761719 316.363281 Z M 378.761719 316.363281 " clip-rule="nonzero"/></clipPath><clipPath id="546da7ea69"><path d="M 198.3125 316.363281 L 320.90625 316.363281 L 320.90625 438.957031 L 198.3125 438.957031 Z M 198.3125 316.363281 " clip-rule="nonzero"/></clipPath><clipPath id="b5dd1dca2e"><path d="M 235.8125 316.363281 L 283.40625 316.363281 C 304.117188 316.363281 320.90625 333.152344 320.90625 353.863281 L 320.90625 401.457031 C 320.90625 422.167969 304.117188 438.957031 283.40625 438.957031 L 235.8125 438.957031 C 215.101562 438.957031 198.3125 422.167969 198.3125 401.457031 L 198.3125 353.863281 C 198.3125 333.152344 215.101562 316.363281 235.8125 316.363281 Z M 235.8125 316.363281 " clip-rule="nonzero"/></clipPath><clipPath id="ae3ca5438f"><path d="M 0.3125 0.363281 L 122.90625 0.363281 L 122.90625 122.957031 L 0.3125 122.957031 Z M 0.3125 0.363281 " clip-rule="nonzero"/></clipPath><clipPath id="452d0c756e"><path d="M 37.8125 0.363281 L 85.40625 0.363281 C 106.117188 0.363281 122.90625 17.152344 122.90625 37.863281 L 122.90625 85.457031 C 122.90625 106.167969 106.117188 122.957031 85.40625 122.957031 L 37.8125 122.957031 C 17.101562 122.957031 0.3125 106.167969 0.3125 85.457031 L 0.3125 37.863281 C 0.3125 17.152344 17.101562 0.363281 37.8125 0.363281 Z M 37.8125 0.363281 " clip-rule="nonzero"/></clipPath><clipPath id="c827d75d03"><rect x="0" width="123" y="0" height="123"/></clipPath><clipPath id="b3039a7f06"><path d="M 198.3125 316.363281 L 320.5625 316.363281 L 320.5625 438.613281 L 198.3125 438.613281 Z M 198.3125 316.363281 " clip-rule="nonzero"/></clipPath><clipPath id="3c3b42980d"><path d="M 235.808594 316.363281 L 283.402344 316.363281 C 304.113281 316.363281 320.902344 333.148438 320.902344 353.859375 L 320.902344 401.453125 C 320.902344 422.164062 304.113281 438.953125 283.402344 438.953125 L 235.808594 438.953125 C 215.097656 438.953125 198.3125 422.164062 198.3125 401.453125 L 198.3125 353.859375 C 198.3125 333.148438 215.097656 316.363281 235.808594 316.363281 Z M 235.808594 316.363281 " clip-rule="nonzero"/></clipPath><clipPath id="873b8e6f8f"><path d="M 484.214844 316.363281 L 606.8125 316.363281 L 606.8125 438.957031 L 484.214844 438.957031 Z M 484.214844 316.363281 " clip-rule="nonzero"/></clipPath><clipPath id="b7841ef986"><path d="M 521.714844 316.363281 L 569.3125 316.363281 C 590.019531 316.363281 606.8125 333.152344 606.8125 353.863281 L 606.8125 401.457031 C 606.8125 422.167969 590.019531 438.957031 569.3125 438.957031 L 521.714844 438.957031 C 501.003906 438.957031 484.214844 422.167969 484.214844 401.457031 L 484.214844 353.863281 C 484.214844 333.152344 501.003906 316.363281 521.714844 316.363281 Z M 521.714844 316.363281 " clip-rule="nonzero"/></clipPath><clipPath id="63bb2f404a"><path d="M 0.214844 0.363281 L 122.8125 0.363281 L 122.8125 122.957031 L 0.214844 122.957031 Z M 0.214844 0.363281 " clip-rule="nonzero"/></clipPath><clipPath id="381c74e178"><path d="M 37.714844 0.363281 L 85.3125 0.363281 C 106.019531 0.363281 122.8125 17.152344 122.8125 37.863281 L 122.8125 85.457031 C 122.8125 106.167969 106.019531 122.957031 85.3125 122.957031 L 37.714844 122.957031 C 17.003906 122.957031 0.214844 106.167969 0.214844 85.457031 L 0.214844 37.863281 C 0.214844 17.152344 17.003906 0.363281 37.714844 0.363281 Z M 37.714844 0.363281 " clip-rule="nonzero"/></clipPath><clipPath id="19dbb431db"><rect x="0" width="123" y="0" height="123"/></clipPath><clipPath id="9017295338"><path d="M 484.214844 316.363281 L 606.464844 316.363281 L 606.464844 438.613281 L 484.214844 438.613281 Z M 484.214844 316.363281 " clip-rule="nonzero"/></clipPath><clipPath id="0b831e9dc6"><path d="M 521.710938 316.363281 L 569.304688 316.363281 C 590.015625 316.363281 606.804688 333.148438 606.804688 353.859375 L 606.804688 401.453125 C 606.804688 422.164062 590.015625 438.953125 569.304688 438.953125 L 521.710938 438.953125 C 501.003906 438.953125 484.214844 422.164062 484.214844 401.453125 L 484.214844 353.859375 C 484.214844 333.148438 501.003906 316.363281 521.710938 316.363281 Z M 521.710938 316.363281 " clip-rule="nonzero"/></clipPath></defs><g clip-path="url(#0bac0fb024)"><g clip-path="url(#34882569ad)"><g transform="matrix(1, 0, 0, 1, 51, 62)"><g clip-path="url(#e393508cba)"><g clip-path="url(#1fd6a71a09)"><g clip-path="url(#9915933a94)"><path fill="#ffffff" d="M 0.394531 0.722656 L 707.605469 0.722656 L 707.605469 707.9375 L 0.394531 707.9375 Z M 0.394531 0.722656 " fill-opacity="1" fill-rule="nonzero"/></g></g></g></g></g></g><g clip-path="url(#6fda0c2fea)"><g clip-path="url(#d1d478d0a0)"><path stroke-linecap="butt" transform="matrix(0.75, 0, 0, 0.75, 51.3926, 62.723842)" fill="none" stroke-linejoin="miter" d="M 99.997372 -0.00158053 L 842.940117 -0.00158053 C 898.169287 -0.00158053 942.934914 44.769255 942.934914 99.998425 L 942.934914 842.94117 C 942.934914 898.165131 898.169287 942.935967 842.940117 942.935967 L 99.997372 942.935967 C 44.768202 942.935967 0.00257485 898.165131 0.00257485 842.94117 L 0.00257485 99.998425 C 0.00257485 44.769255 44.768202 -0.00158053 99.997372 -0.00158053 Z M 99.997372 -0.00158053 " stroke="#67c7ff" stroke-width="120" stroke-opacity="1" stroke-miterlimit="4"/></g></g><g clip-path="url(#01738bf8ad)"><g clip-path="url(#a9ca1c4c96)"><path stroke-linecap="butt" transform="matrix(0.75, 0, 0, 0.75, 47.329535, 60.807387)" fill="none" stroke-linejoin="miter" d="M 99.998119 0.00160961 L 854.560609 0.00160961 C 909.789775 0.00160961 954.560607 44.772442 954.560607 99.9964 L 954.560607 853.001598 C 954.560607 908.230764 909.789775 953.001597 854.560609 953.001597 L 99.998119 953.001597 C 44.768953 953.001597 -0.00187963 908.230764 -0.00187963 853.001598 L -0.00187963 99.9964 C -0.00187963 44.772442 44.768953 0.00160961 99.998119 0.00160961 Z M 99.998119 0.00160961 " stroke="#000000" stroke-width="20" stroke-opacity="1" stroke-miterlimit="4"/></g></g><g clip-path="url(#02bb06d14b)"><g clip-path="url(#c48c4c457c)"><g transform="matrix(1, 0, 0, 1, 88, 103)"><g clip-path="url(#0d5bfc5a5d)"><g clip-path="url(#0d978c2069)"><g clip-path="url(#1dd14c88ca)"><path fill="#ffffff" d="M 0.839844 0.125 L 632.148438 0.125 L 632.148438 626.539062 L 0.839844 626.539062 Z M 0.839844 0.125 " fill-opacity="1" fill-rule="nonzero"/></g></g></g></g></g></g><g clip-path="url(#d33799c13c)"><g clip-path="url(#7303b517e8)"><path stroke-linecap="butt" transform="matrix(0.75, 0, 0, 0.75, 88.838181, 103.125483)" fill="none" stroke-linejoin="miter" d="M 51.00222 -0.000643749 L 792.096007 -0.000643749 C 805.62205 -0.000643749 818.5908 5.374357 828.158509 14.936857 C 837.72101 24.499357 843.09601 37.473316 843.09601 50.999359 L 843.09601 784.212937 C 843.09601 797.73898 837.72101 810.712939 828.158509 820.275439 C 818.5908 829.843148 805.62205 835.21294 792.096007 835.21294 L 51.00222 835.21294 C 37.476178 835.21294 24.502219 829.843148 14.939718 820.275439 C 5.372009 810.712939 0.00221749 797.73898 0.00221749 784.212937 L 0.00221749 50.999359 C 0.00221749 37.473316 5.372009 24.499357 14.939718 14.936857 C 24.502219 5.374357 37.476178 -0.000643749 51.00222 -0.000643749 Z M 51.00222 -0.000643749 " stroke="#000000" stroke-width="20" stroke-opacity="1" stroke-miterlimit="4"/></g></g><g clip-path="url(#a72f4700c5)"><g clip-path="url(#2b42096369)"><g transform="matrix(1, 0, 0, 1, 198, 162)"><g clip-path="url(#b0e44c6cb4)"><g clip-path="url(#d30d81f23d)"><g clip-path="url(#2f2c766bd4)"><path fill="#d9d9d9" d="M 0.414062 0.191406 L 123.011719 0.191406 L 123.011719 122.785156 L 0.414062 122.785156 Z M 0.414062 0.191406 " fill-opacity="1" fill-rule="nonzero"/></g></g></g></g></g></g><g clip-path="url(#f646587358)"><g clip-path="url(#93a123fd01)"><path stroke-linecap="butt" transform="matrix(0.75, 0, 0, 0.75, 198.415878, 162.189578)" fill="none" stroke-linejoin="miter" d="M 49.997579 0.00243735 L 113.455912 0.00243735 C 141.070495 0.00243735 163.450703 22.382645 163.450703 49.997228 L 163.450703 113.455561 C 163.450703 141.070144 141.070495 163.45556 113.455912 163.45556 L 49.997579 163.45556 C 22.382996 163.45556 -0.00242002 141.070144 -0.00242002 113.455561 L -0.00242002 49.997228 C -0.00242002 22.382645 22.382996 0.00243735 49.997579 0.00243735 Z M 49.997579 0.00243735 " stroke="#000000" stroke-width="20" stroke-opacity="1" stroke-miterlimit="4"/></g></g><g clip-path="url(#29df1ba506)"><g clip-path="url(#c9478f7991)"><g transform="matrix(1, 0, 0, 1, 341, 161)"><g clip-path="url(#2f7cf129e8)"><g clip-path="url(#8389fa4955)"><g clip-path="url(#6a05bf74cb)"><path fill="#d9d9d9" d="M 0.261719 0.515625 L 122.859375 0.515625 L 122.859375 123.113281 L 0.261719 123.113281 Z M 0.261719 0.515625 " fill-opacity="1" fill-rule="nonzero"/></g></g></g></g></g></g><g clip-path="url(#2baacfb0dd)"><g clip-path="url(#bdb29bdb91)"><path stroke-linecap="butt" transform="matrix(0.75, 0, 0, 0.75, 341.262438, 161.515017)" fill="none" stroke-linejoin="miter" d="M 49.999041 0.000810034 L 113.457373 0.000810034 C 141.066748 0.000810034 163.452164 22.386226 163.452164 49.995601 L 163.452164 113.453933 C 163.452164 141.068516 141.066748 163.453933 113.457373 163.453933 L 49.999041 163.453933 C 22.384458 163.453933 -0.000958375 141.068516 -0.000958375 113.453933 L -0.000958375 49.995601 C -0.000958375 22.386226 22.384458 0.000810034 49.999041 0.000810034 Z M 49.999041 0.000810034 " stroke="#000000" stroke-width="20" stroke-opacity="1" stroke-miterlimit="4"/></g></g><g clip-path="url(#00a9dc3da0)"><g clip-path="url(#172532af9c)"><g transform="matrix(1, 0, 0, 1, 484, 162)"><g clip-path="url(#b15e47ad8a)"><g clip-path="url(#739c635cff)"><g clip-path="url(#45349d953d)"><path fill="#d9d9d9" d="M 0.214844 0.191406 L 122.8125 0.191406 L 122.8125 122.785156 L 0.214844 122.785156 Z M 0.214844 0.191406 " fill-opacity="1" fill-rule="nonzero"/></g></g></g></g></g></g><g clip-path="url(#6ed26bb5aa)"><g clip-path="url(#e1b14ea7a0)"><path stroke-linecap="butt" transform="matrix(0.75, 0, 0, 0.75, 484.214187, 162.189578)" fill="none" stroke-linejoin="miter" d="M 49.995666 0.00243735 L 113.453999 0.00243735 C 141.068582 0.00243735 163.453998 22.382645 163.453998 49.997228 L 163.453998 113.455561 C 163.453998 141.070144 141.068582 163.45556 113.453999 163.45556 L 49.995666 163.45556 C 22.386292 163.45556 0.00087548 141.070144 0.00087548 113.455561 L 0.00087548 49.997228 C 0.00087548 22.382645 22.386292 0.00243735 49.995666 0.00243735 Z M 49.995666 0.00243735 " stroke="#000000" stroke-width="20" stroke-opacity="1" stroke-miterlimit="4"/></g></g><g clip-path="url(#0a9390f83b)"><g clip-path="url(#8e0291fc50)"><g transform="matrix(1, 0, 0, 1, 133, 471)"><g clip-path="url(#ad95412311)"><g clip-path="url(#2f959bd870)"><g clip-path="url(#582fbad551)"><path fill="#d7f0ff" d="M 0.722656 0.207031 L 555.792969 0.207031 L 555.792969 201.480469 L 0.722656 201.480469 Z M 0.722656 0.207031 " fill-opacity="1" fill-rule="nonzero"/></g></g></g></g></g></g><g clip-path="url(#5075e56673)"><g clip-path="url(#acf4fe39f6)"><path stroke-linecap="butt" transform="matrix(0.75, 0, 0, 0.75, 133.723077, 471.208436)" fill="none" stroke-linejoin="miter" d="M 74.999443 -0.00187339 L 665.218223 -0.00187339 C 706.6401 -0.00187339 740.218227 33.576253 740.218227 74.99813 L 740.218227 193.357511 C 740.218227 234.779388 706.6401 268.357515 665.218223 268.357515 L 74.999443 268.357515 C 33.577566 268.357515 -0.000560697 234.779388 -0.000560697 193.357511 L -0.000560697 74.99813 C -0.000560697 33.576253 33.577566 -0.00187339 74.999443 -0.00187339 Z M 74.999443 -0.00187339 " stroke="#000000" stroke-width="20" stroke-opacity="1" stroke-miterlimit="4"/></g></g><g clip-path="url(#f522a04c39)"><g clip-path="url(#f12a26e509)"><g transform="matrix(1, 0, 0, 1, 316, 485)"><g clip-path="url(#6a3707d840)"><g clip-path="url(#2aef99ed33)"><g clip-path="url(#5ab8302ea2)"><path fill="#ffe372" d="M 0.699219 0.984375 L 172.421875 0.984375 L 172.421875 172.703125 L 0.699219 172.703125 Z M 0.699219 0.984375 " fill-opacity="1" fill-rule="nonzero"/></g></g></g></g></g></g><g clip-path="url(#99cdeb06f2)"><g clip-path="url(#602c401c4b)"><g transform="matrix(1, 0, 0, 1, 217, 499)"><g clip-path="url(#4a8ec929db)"><g clip-path="url(#aa6221ad6d)"><g clip-path="url(#c84b3f7f6a)"><path fill="#ffffff" d="M 0.816406 0.273438 L 149.675781 0.273438 L 149.675781 97.988281 L 0.816406 97.988281 Z M 0.816406 0.273438 " fill-opacity="1" fill-rule="nonzero"/></g></g></g></g></g></g><g clip-path="url(#65dbb50411)"><g clip-path="url(#a6dcb24c6f)"><g transform="matrix(1, 0, 0, 1, 402, 499)"><g clip-path="url(#dbf336ac70)"><g clip-path="url(#b85fea717b)"><g clip-path="url(#5290b0381c)"><path fill="#ffffff" d="M 0.921875 0.273438 L 149.785156 0.273438 L 149.785156 97.988281 L 0.921875 97.988281 Z M 0.921875 0.273438 " fill-opacity="1" fill-rule="nonzero"/></g></g></g></g></g></g><g clip-path="url(#14351ecf2b)"><g clip-path="url(#e664abd93a)"><g transform="matrix(1, 0, 0, 1, 488, 540)"><g clip-path="url(#a60666d8c6)"><g clip-path="url(#72ffde0241)"><g clip-path="url(#cfb59e1a9c)"><path fill="#ffffff" d="M 0.421875 0.324219 L 149.285156 0.324219 L 149.285156 98.039062 L 0.421875 98.039062 Z M 0.421875 0.324219 " fill-opacity="1" fill-rule="nonzero"/></g></g></g></g></g></g><g fill="#000000" fill-opacity="1"><g transform="translate(181.561664, 609.907645)"><g><path d="M 35.890625 0.921875 C 29.773438 0.921875 23.867188 -0.0234375 18.171875 -1.921875 C 12.484375 -3.816406 8.015625 -6.273438 4.765625 -9.296875 L 9.0625 -18.359375 C 12.15625 -15.566406 16.125 -13.296875 20.96875 -11.546875 C 25.8125 -9.804688 30.785156 -8.9375 35.890625 -8.9375 C 42.628906 -8.9375 47.664062 -10.078125 51 -12.359375 C 54.332031 -14.648438 56 -17.691406 56 -21.484375 C 56 -24.273438 55.085938 -26.539062 53.265625 -28.28125 C 51.441406 -30.03125 49.191406 -31.367188 46.515625 -32.296875 C 43.847656 -33.222656 40.078125 -34.269531 35.203125 -35.4375 C 29.078125 -36.90625 24.132812 -38.375 20.375 -39.84375 C 16.625 -41.3125 13.410156 -43.578125 10.734375 -46.640625 C 8.066406 -49.703125 6.734375 -53.828125 6.734375 -59.015625 C 6.734375 -63.347656 7.875 -67.253906 10.15625 -70.734375 C 12.445312 -74.222656 15.914062 -77.015625 20.5625 -79.109375 C 25.207031 -81.203125 30.976562 -82.25 37.875 -82.25 C 42.675781 -82.25 47.398438 -81.628906 52.046875 -80.390625 C 56.691406 -79.148438 60.679688 -77.367188 64.015625 -75.046875 L 60.171875 -65.75 C 56.765625 -67.914062 53.125 -69.5625 49.25 -70.6875 C 45.382812 -71.8125 41.59375 -72.375 37.875 -72.375 C 31.289062 -72.375 26.351562 -71.171875 23.0625 -68.765625 C 19.769531 -66.367188 18.125 -63.273438 18.125 -59.484375 C 18.125 -56.691406 19.050781 -54.421875 20.90625 -52.671875 C 22.769531 -50.929688 25.078125 -49.578125 27.828125 -48.609375 C 30.578125 -47.648438 34.3125 -46.628906 39.03125 -45.546875 C 45.15625 -44.066406 50.070312 -42.59375 53.78125 -41.125 C 57.5 -39.65625 60.691406 -37.410156 63.359375 -34.390625 C 66.035156 -31.367188 67.375 -27.300781 67.375 -22.1875 C 67.375 -17.925781 66.210938 -14.035156 63.890625 -10.515625 C 61.566406 -6.992188 58.039062 -4.207031 53.3125 -2.15625 C 48.59375 -0.101562 42.785156 0.921875 35.890625 0.921875 Z M 35.890625 0.921875 "/></g></g></g><g fill="#000000" fill-opacity="1"><g transform="translate(253.701931, 609.907645)"><g><path d="M 67.953125 -61.578125 L 67.953125 0 L 57.390625 0 L 57.390625 -9.296875 C 55.140625 -6.117188 52.175781 -3.65625 48.5 -1.90625 C 44.820312 -0.164062 40.816406 0.703125 36.484375 0.703125 C 28.265625 0.703125 21.789062 -1.5625 17.0625 -6.09375 C 12.34375 -10.625 9.984375 -17.304688 9.984375 -26.140625 L 9.984375 -61.578125 L 21.140625 -61.578125 L 21.140625 -27.421875 C 21.140625 -21.453125 22.570312 -16.9375 25.4375 -13.875 C 28.300781 -10.820312 32.40625 -9.296875 37.75 -9.296875 C 43.632812 -9.296875 48.28125 -11.078125 51.6875 -14.640625 C 55.101562 -18.203125 56.8125 -23.234375 56.8125 -29.734375 L 56.8125 -61.578125 Z M 67.953125 -61.578125 "/></g></g></g><g fill="#000000" fill-opacity="1"><g transform="translate(332.347603, 609.907645)"><g><path d="M 43.453125 -62.15625 C 51.273438 -62.15625 57.488281 -59.890625 62.09375 -55.359375 C 66.695312 -50.828125 69 -44.1875 69 -35.4375 L 69 0 L 57.859375 0 L 57.859375 -34.15625 C 57.859375 -40.113281 56.421875 -44.601562 53.546875 -47.625 C 50.679688 -50.644531 46.578125 -52.15625 41.234375 -52.15625 C 35.191406 -52.15625 30.425781 -50.394531 26.9375 -46.875 C 23.457031 -43.351562 21.71875 -38.300781 21.71875 -31.71875 L 21.71875 0 L 10.578125 0 L 10.578125 -61.578125 L 21.265625 -61.578125 L 21.265625 -52.28125 C 23.503906 -55.457031 26.539062 -57.894531 30.375 -59.59375 C 34.207031 -61.300781 38.566406 -62.15625 43.453125 -62.15625 Z M 43.453125 -62.15625 "/></g></g></g><g fill="#000000" fill-opacity="1"><g transform="translate(411.80648, 609.907645)"><g><path d="M 68.65625 -86.203125 L 68.65625 0 L 57.96875 0 L 57.96875 -9.765625 C 55.488281 -6.347656 52.351562 -3.75 48.5625 -1.96875 C 44.769531 -0.1875 40.585938 0.703125 36.015625 0.703125 C 30.046875 0.703125 24.695312 -0.613281 19.96875 -3.25 C 15.25 -5.882812 11.550781 -9.582031 8.875 -14.34375 C 6.207031 -19.101562 4.875 -24.582031 4.875 -30.78125 C 4.875 -36.976562 6.207031 -42.4375 8.875 -47.15625 C 11.550781 -51.882812 15.25 -55.566406 19.96875 -58.203125 C 24.695312 -60.835938 30.046875 -62.15625 36.015625 -62.15625 C 40.429688 -62.15625 44.492188 -61.320312 48.203125 -59.65625 C 51.921875 -57.988281 55.019531 -55.53125 57.5 -52.28125 L 57.5 -86.203125 Z M 36.9375 -9.0625 C 40.8125 -9.0625 44.335938 -9.96875 47.515625 -11.78125 C 50.691406 -13.601562 53.171875 -16.160156 54.953125 -19.453125 C 56.734375 -22.742188 57.625 -26.519531 57.625 -30.78125 C 57.625 -35.039062 56.734375 -38.816406 54.953125 -42.109375 C 53.171875 -45.398438 50.691406 -47.9375 47.515625 -49.71875 C 44.335938 -51.5 40.8125 -52.390625 36.9375 -52.390625 C 32.988281 -52.390625 29.445312 -51.5 26.3125 -49.71875 C 23.175781 -47.9375 20.695312 -45.398438 18.875 -42.109375 C 17.050781 -38.816406 16.140625 -35.039062 16.140625 -30.78125 C 16.140625 -26.519531 17.050781 -22.742188 18.875 -19.453125 C 20.695312 -16.160156 23.175781 -13.601562 26.3125 -11.78125 C 29.445312 -9.96875 32.988281 -9.0625 36.9375 -9.0625 Z M 36.9375 -9.0625 "/></g></g></g><g fill="#000000" fill-opacity="1"><g transform="translate(491.032962, 609.907645)"><g><path d="M 33 -62.15625 C 41.507812 -62.15625 48.03125 -60.0625 52.5625 -55.875 C 57.09375 -51.695312 59.359375 -45.460938 59.359375 -37.171875 L 59.359375 0 L 48.796875 0 L 48.796875 -8.125 C 46.929688 -5.257812 44.273438 -3.070312 40.828125 -1.5625 C 37.390625 -0.0507812 33.304688 0.703125 28.578125 0.703125 C 21.679688 0.703125 16.160156 -0.960938 12.015625 -4.296875 C 7.878906 -7.628906 5.8125 -12.003906 5.8125 -17.421875 C 5.8125 -22.847656 7.785156 -27.207031 11.734375 -30.5 C 15.679688 -33.789062 21.953125 -35.4375 30.546875 -35.4375 L 48.21875 -35.4375 L 48.21875 -37.640625 C 48.21875 -42.441406 46.820312 -46.117188 44.03125 -48.671875 C 41.238281 -51.234375 37.132812 -52.515625 31.71875 -52.515625 C 28.070312 -52.515625 24.503906 -51.910156 21.015625 -50.703125 C 17.535156 -49.503906 14.597656 -47.898438 12.203125 -45.890625 L 7.546875 -54.25 C 10.722656 -56.800781 14.519531 -58.753906 18.9375 -60.109375 C 23.351562 -61.472656 28.039062 -62.15625 33 -62.15625 Z M 30.4375 -7.90625 C 34.695312 -7.90625 38.375 -8.851562 41.46875 -10.75 C 44.570312 -12.644531 46.820312 -15.332031 48.21875 -18.8125 L 48.21875 -27.421875 L 31.015625 -27.421875 C 21.566406 -27.421875 16.84375 -24.242188 16.84375 -17.890625 C 16.84375 -14.796875 18.039062 -12.359375 20.4375 -10.578125 C 22.84375 -8.796875 26.175781 -7.90625 30.4375 -7.90625 Z M 30.4375 -7.90625 "/></g></g></g><g fill="#000000" fill-opacity="1"><g transform="translate(559.33963, 609.907645)"><g><path d="M 65.0625 -61.578125 L 35.203125 6.15625 C 32.566406 12.425781 29.484375 16.835938 25.953125 19.390625 C 22.429688 21.953125 18.195312 23.234375 13.25 23.234375 C 10.226562 23.234375 7.300781 22.75 4.46875 21.78125 C 1.644531 20.8125 -0.695312 19.398438 -2.5625 17.546875 L 2.203125 9.171875 C 5.378906 12.191406 9.0625 13.703125 13.25 13.703125 C 15.957031 13.703125 18.21875 12.984375 20.03125 11.546875 C 21.851562 10.117188 23.503906 7.664062 24.984375 4.1875 L 26.953125 -0.109375 L -0.234375 -61.578125 L 11.390625 -61.578125 L 32.875 -12.3125 L 54.140625 -61.578125 Z M 65.0625 -61.578125 "/></g></g></g><g fill="#000000" fill-opacity="1"><g transform="translate(229.493692, 245.612849)"><g><path d="M 47.171875 0 L 47.109375 -29.703125 L 32.390625 -5.125 L 28.671875 -5.125 L 13.953125 -29.3125 L 13.953125 0 L 6.015625 0 L 6.015625 -44.796875 L 12.859375 -44.796875 L 30.65625 -15.109375 L 48.125 -44.796875 L 54.96875 -44.796875 L 55.046875 0 Z M 47.171875 0 "/></g></g></g><g fill="#000000" fill-opacity="1"><g transform="translate(508.903106, 245.612849)"><g><path d="M 71.484375 -44.796875 L 56.640625 0 L 47.8125 0 L 36.734375 -33.15625 L 25.46875 0 L 16.578125 0 L 1.734375 -44.796875 L 10.375 -44.796875 L 21.5 -10.75 L 33.09375 -44.796875 L 40.765625 -44.796875 L 52.09375 -10.5625 L 63.546875 -44.796875 Z M 71.484375 -44.796875 "/></g></g></g><g fill="#000000" fill-opacity="1"><g transform="translate(362.212689, 244.938288)"><g><path d="M 15.109375 -37.765625 L 0.25 -37.765625 L 0.25 -44.796875 L 38.265625 -44.796875 L 38.265625 -37.765625 L 23.421875 -37.765625 L 23.421875 0 L 15.109375 0 Z M 15.109375 -37.765625 "/></g></g></g><g fill="#000000" fill-opacity="1"><g transform="translate(399.906367, 244.938288)"><g><path d="M 38.328125 -34.171875 L 38.328125 0 L 30.71875 0 L 30.71875 -4.359375 C 29.4375 -2.816406 27.835938 -1.628906 25.921875 -0.796875 C 24.003906 0.0351562 21.9375 0.453125 19.71875 0.453125 C 15.144531 0.453125 11.546875 -0.816406 8.921875 -3.359375 C 6.296875 -5.898438 4.984375 -9.664062 4.984375 -14.65625 L 4.984375 -34.171875 L 12.984375 -34.171875 L 12.984375 -15.75 C 12.984375 -12.675781 13.675781 -10.378906 15.0625 -8.859375 C 16.457031 -7.347656 18.429688 -6.59375 20.984375 -6.59375 C 23.847656 -6.59375 26.125 -7.476562 27.8125 -9.25 C 29.5 -11.019531 30.34375 -13.566406 30.34375 -16.890625 L 30.34375 -34.171875 Z M 38.328125 -34.171875 "/></g></g></g><g clip-path="url(#c7c91b5417)"><g clip-path="url(#baee6c0249)"><g transform="matrix(1, 0, 0, 1, 341, 316)"><g clip-path="url(#ade543380e)"><g clip-path="url(#a31a96ec78)"><g clip-path="url(#d8433a26f1)"><path fill="#d9d9d9" d="M 0.261719 0.363281 L 122.859375 0.363281 L 122.859375 122.957031 L 0.261719 122.957031 Z M 0.261719 0.363281 " fill-opacity="1" fill-rule="nonzero"/></g></g></g></g></g></g><g clip-path="url(#dbe1a02a6c)"><g clip-path="url(#cec3ab7914)"><path stroke-linecap="butt" transform="matrix(0.75, 0, 0, 0.75, 341.262438, 316.361577)" fill="none" stroke-linejoin="miter" d="M 49.999041 0.00227249 L 113.457373 0.00227249 C 141.066748 0.00227249 163.452164 22.382481 163.452164 49.997063 L 163.452164 113.455396 C 163.452164 141.069979 141.066748 163.455395 113.457373 163.455395 L 49.999041 163.455395 C 22.384458 163.455395 -0.000958375 141.069979 -0.000958375 113.455396 L -0.000958375 49.997063 C -0.000958375 22.382481 22.384458 0.00227249 49.999041 0.00227249 Z M 49.999041 0.00227249 " stroke="#000000" stroke-width="20" stroke-opacity="1" stroke-miterlimit="4"/></g></g><g clip-path="url(#546da7ea69)"><g clip-path="url(#b5dd1dca2e)"><g transform="matrix(1, 0, 0, 1, 198, 316)"><g clip-path="url(#c827d75d03)"><g clip-path="url(#ae3ca5438f)"><g clip-path="url(#452d0c756e)"><path fill="#d9d9d9" d="M 0.3125 0.363281 L 122.90625 0.363281 L 122.90625 122.957031 L 0.3125 122.957031 Z M 0.3125 0.363281 " fill-opacity="1" fill-rule="nonzero"/></g></g></g></g></g></g><g clip-path="url(#b3039a7f06)"><g clip-path="url(#3c3b42980d)"><path stroke-linecap="butt" transform="matrix(0.75, 0, 0, 0.75, 198.310671, 316.361577)" fill="none" stroke-linejoin="miter" d="M 49.997229 0.00227249 L 113.455562 0.00227249 C 141.070145 0.00227249 163.455561 22.382481 163.455561 49.997063 L 163.455561 113.455396 C 163.455561 141.069979 141.070145 163.455395 113.455562 163.455395 L 49.997229 163.455395 C 22.382647 163.455395 0.0024385 141.069979 0.0024385 113.455396 L 0.0024385 49.997063 C 0.0024385 22.382481 22.382647 0.00227249 49.997229 0.00227249 Z M 49.997229 0.00227249 " stroke="#000000" stroke-width="20" stroke-opacity="1" stroke-miterlimit="4"/></g></g><g clip-path="url(#873b8e6f8f)"><g clip-path="url(#b7841ef986)"><g transform="matrix(1, 0, 0, 1, 484, 316)"><g clip-path="url(#19dbb431db)"><g clip-path="url(#63bb2f404a)"><g clip-path="url(#381c74e178)"><path fill="#d9d9d9" d="M 0.214844 0.363281 L 122.8125 0.363281 L 122.8125 122.957031 L 0.214844 122.957031 Z M 0.214844 0.363281 " fill-opacity="1" fill-rule="nonzero"/></g></g></g></g></g></g><g clip-path="url(#9017295338)"><g clip-path="url(#0b831e9dc6)"><path stroke-linecap="butt" transform="matrix(0.75, 0, 0, 0.75, 484.214187, 316.361577)" fill="none" stroke-linejoin="miter" d="M 49.995666 0.00227249 L 113.453999 0.00227249 C 141.068582 0.00227249 163.453998 22.382481 163.453998 49.997063 L 163.453998 113.455396 C 163.453998 141.069979 141.068582 163.455395 113.453999 163.455395 L 49.995666 163.455395 C 22.386292 163.455395 0.00087548 141.069979 0.00087548 113.455396 L 0.00087548 49.997063 C 0.00087548 22.382481 22.386292 0.00227249 49.995666 0.00227249 Z M 49.995666 0.00227249 " stroke="#000000" stroke-width="20" stroke-opacity="1" stroke-miterlimit="4"/></g></g><g fill="#000000" fill-opacity="1"><g transform="translate(382.515073, 399.784862)"><g><path d="M 14.34375 -37.828125 L 14.34375 -24.1875 L 35.96875 -24.1875 L 35.96875 -17.15625 L 14.34375 -17.15625 L 14.34375 0 L 6.015625 0 L 6.015625 -44.796875 L 38.71875 -44.796875 L 38.71875 -37.828125 Z M 14.34375 -37.828125 "/></g></g></g><g fill="#000000" fill-opacity="1"><g transform="translate(218.426345, 399.784862)"><g><path d="M 15.109375 -37.765625 L 0.25 -37.765625 L 0.25 -44.796875 L 38.265625 -44.796875 L 38.265625 -37.765625 L 23.421875 -37.765625 L 23.421875 0 L 15.109375 0 Z M 15.109375 -37.765625 "/></g></g></g><g fill="#000000" fill-opacity="1"><g transform="translate(256.951985, 399.784862)"><g><path d="M 24.640625 -34.5625 C 28.953125 -34.5625 32.40625 -33.300781 35 -30.78125 C 37.601562 -28.269531 38.90625 -24.535156 38.90625 -19.578125 L 38.90625 0 L 30.90625 0 L 30.90625 -18.5625 C 30.90625 -21.550781 30.203125 -23.800781 28.796875 -25.3125 C 27.390625 -26.820312 25.382812 -27.578125 22.78125 -27.578125 C 19.84375 -27.578125 17.519531 -26.691406 15.8125 -24.921875 C 14.101562 -23.148438 13.25 -20.601562 13.25 -17.28125 L 13.25 0 L 5.25 0 L 5.25 -47.484375 L 13.25 -47.484375 L 13.25 -30.203125 C 14.570312 -31.609375 16.203125 -32.6875 18.140625 -33.4375 C 20.085938 -34.1875 22.253906 -34.5625 24.640625 -34.5625 Z M 24.640625 -34.5625 "/></g></g></g><g fill="#000000" fill-opacity="1"><g transform="translate(506.25425, 399.784862)"><g><path d="M 19.90625 0.640625 C 16.445312 0.640625 13.109375 0.148438 9.890625 -0.828125 C 6.671875 -1.804688 4.117188 -3.109375 2.234375 -4.734375 L 5.125 -11.203125 C 6.957031 -9.753906 9.207031 -8.566406 11.875 -7.640625 C 14.539062 -6.722656 17.21875 -6.265625 19.90625 -6.265625 C 23.226562 -6.265625 25.710938 -6.796875 27.359375 -7.859375 C 29.003906 -8.929688 29.828125 -10.34375 29.828125 -12.09375 C 29.828125 -13.375 29.367188 -14.429688 28.453125 -15.265625 C 27.535156 -16.097656 26.367188 -16.75 24.953125 -17.21875 C 23.546875 -17.6875 21.628906 -18.21875 19.203125 -18.8125 C 15.785156 -19.625 13.019531 -20.4375 10.90625 -21.25 C 8.800781 -22.0625 6.988281 -23.328125 5.46875 -25.046875 C 3.957031 -26.773438 3.203125 -29.113281 3.203125 -32.0625 C 3.203125 -34.539062 3.875 -36.789062 5.21875 -38.8125 C 6.5625 -40.84375 8.585938 -42.453125 11.296875 -43.640625 C 14.003906 -44.835938 17.320312 -45.4375 21.25 -45.4375 C 23.976562 -45.4375 26.664062 -45.09375 29.3125 -44.40625 C 31.957031 -43.726562 34.238281 -42.75 36.15625 -41.46875 L 33.53125 -35.015625 C 31.570312 -36.160156 29.523438 -37.03125 27.390625 -37.625 C 25.253906 -38.226562 23.1875 -38.53125 21.1875 -38.53125 C 17.894531 -38.53125 15.445312 -37.972656 13.84375 -36.859375 C 12.25 -35.753906 11.453125 -34.285156 11.453125 -32.453125 C 11.453125 -31.171875 11.910156 -30.125 12.828125 -29.3125 C 13.742188 -28.5 14.90625 -27.859375 16.3125 -27.390625 C 17.726562 -26.921875 19.648438 -26.390625 22.078125 -25.796875 C 25.410156 -25.023438 28.140625 -24.222656 30.265625 -23.390625 C 32.398438 -22.554688 34.222656 -21.285156 35.734375 -19.578125 C 37.253906 -17.878906 38.015625 -15.578125 38.015625 -12.671875 C 38.015625 -10.191406 37.34375 -7.945312 36 -5.9375 C 34.65625 -3.9375 32.617188 -2.335938 29.890625 -1.140625 C 27.160156 0.046875 23.832031 0.640625 19.90625 0.640625 Z M 19.90625 0.640625 "/></g></g></g><g fill="#000000" fill-opacity="1"><g transform="translate(546.507776, 399.784862)"><g><path d="M 18.296875 -34.5625 C 23.335938 -34.5625 27.191406 -33.351562 29.859375 -30.9375 C 32.523438 -28.53125 33.859375 -24.894531 33.859375 -20.03125 L 33.859375 0 L 26.296875 0 L 26.296875 -4.15625 C 25.316406 -2.664062 23.921875 -1.523438 22.109375 -0.734375 C 20.296875 0.0546875 18.109375 0.453125 15.546875 0.453125 C 12.992188 0.453125 10.753906 0.015625 8.828125 -0.859375 C 6.910156 -1.734375 5.425781 -2.945312 4.375 -4.5 C 3.332031 -6.0625 2.8125 -7.828125 2.8125 -9.796875 C 2.8125 -12.867188 3.953125 -15.332031 6.234375 -17.1875 C 8.515625 -19.039062 12.113281 -19.96875 17.03125 -19.96875 L 25.859375 -19.96875 L 25.859375 -20.484375 C 25.859375 -22.867188 25.140625 -24.703125 23.703125 -25.984375 C 22.273438 -27.265625 20.15625 -27.90625 17.34375 -27.90625 C 15.425781 -27.90625 13.535156 -27.601562 11.671875 -27 C 9.816406 -26.40625 8.25 -25.578125 6.96875 -24.515625 L 3.84375 -30.34375 C 5.632812 -31.707031 7.785156 -32.75 10.296875 -33.46875 C 12.816406 -34.195312 15.484375 -34.5625 18.296875 -34.5625 Z M 17.21875 -5.375 C 19.21875 -5.375 20.992188 -5.832031 22.546875 -6.75 C 24.109375 -7.664062 25.210938 -8.976562 25.859375 -10.6875 L 25.859375 -14.65625 L 17.59375 -14.65625 C 12.988281 -14.65625 10.6875 -13.140625 10.6875 -10.109375 C 10.6875 -8.660156 11.257812 -7.507812 12.40625 -6.65625 C 13.5625 -5.800781 15.164062 -5.375 17.21875 -5.375 Z M 17.21875 -5.375 "/></g></g></g></svg>