<svg xmlns="http://www.w3.org/2000/svg" xmlns:xlink="http://www.w3.org/1999/xlink" width="500" zoomAndPan="magnify" viewBox="0 0 375 374.999991" height="500" preserveAspectRatio="xMidYMid meet" version="1.0"><defs><clipPath id="baaa1f02f8"><path d="M 2.496094 1.289062 L 372.472656 1.289062 L 372.472656 371.265625 L 2.496094 371.265625 Z M 2.496094 1.289062 " clip-rule="nonzero"/></clipPath><clipPath id="a02bddbfcd"><path d="M 41.730469 1.289062 L 333.234375 1.289062 C 354.90625 1.289062 372.472656 18.855469 372.472656 40.523438 L 372.472656 332.03125 C 372.472656 353.699219 354.90625 371.265625 333.234375 371.265625 L 41.730469 371.265625 C 20.0625 371.265625 2.496094 353.699219 2.496094 332.03125 L 2.496094 40.523438 C 2.496094 18.855469 20.0625 1.289062 41.730469 1.289062 Z M 41.730469 1.289062 " clip-rule="nonzero"/></clipPath><clipPath id="34498f37b0"><path d="M 41.730469 1.289062 L 333.234375 1.289062 C 354.90625 1.289062 372.472656 18.855469 372.472656 40.523438 L 372.472656 332.03125 C 372.472656 353.699219 354.90625 371.265625 333.234375 371.265625 L 41.730469 371.265625 C 20.0625 371.265625 2.496094 353.699219 2.496094 332.03125 L 2.496094 40.523438 C 2.496094 18.855469 20.0625 1.289062 41.730469 1.289062 Z M 41.730469 1.289062 " clip-rule="nonzero"/></clipPath><clipPath id="aba98f0e64"><path d="M 2.496094 1.289062 L 372.488281 1.289062 L 372.488281 371.285156 L 2.496094 371.285156 Z M 2.496094 1.289062 " clip-rule="nonzero"/></clipPath><clipPath id="20579fdfb3"><path d="M 41.730469 1.289062 L 333.230469 1.289062 C 354.902344 1.289062 372.464844 18.855469 372.464844 40.523438 L 372.464844 332.027344 C 372.464844 353.695312 354.902344 371.261719 333.230469 371.261719 L 41.730469 371.261719 C 20.058594 371.261719 2.496094 353.695312 2.496094 332.027344 L 2.496094 40.523438 C 2.496094 18.855469 20.058594 1.289062 41.730469 1.289062 Z M 41.730469 1.289062 " clip-rule="nonzero"/></clipPath><clipPath id="4be9703835"><path d="M 0.367188 0.289062 L 375 0.289062 L 375 374.207031 L 0.367188 374.207031 Z M 0.367188 0.289062 " clip-rule="nonzero"/></clipPath><clipPath id="39c521b99e"><path d="M 39.605469 0.289062 L 335.664062 0.289062 C 357.335938 0.289062 374.902344 17.855469 374.902344 39.523438 L 374.902344 334.972656 C 374.902344 356.640625 357.335938 374.207031 335.664062 374.207031 L 39.605469 374.207031 C 17.933594 374.207031 0.367188 356.640625 0.367188 334.972656 L 0.367188 39.523438 C 0.367188 17.855469 17.933594 0.289062 39.605469 0.289062 Z M 39.605469 0.289062 " clip-rule="nonzero"/></clipPath><clipPath id="9b910fa67d"><path d="M 22.085938 22.425781 L 352.796875 22.425781 L 352.796875 350.132812 L 22.085938 350.132812 Z M 22.085938 22.425781 " clip-rule="nonzero"/></clipPath><clipPath id="ad349c3550"><path d="M 42.09375 22.425781 L 332.871094 22.425781 C 338.179688 22.425781 343.269531 24.53125 347.019531 28.285156 C 350.773438 32.039062 352.882812 37.128906 352.882812 42.4375 L 352.882812 330.121094 C 352.882812 335.429688 350.773438 340.519531 347.019531 344.273438 C 343.269531 348.023438 338.179688 350.132812 332.871094 350.132812 L 42.09375 350.132812 C 36.789062 350.132812 31.699219 348.023438 27.945312 344.273438 C 24.191406 340.519531 22.085938 335.429688 22.085938 330.121094 L 22.085938 42.4375 C 22.085938 37.128906 24.191406 32.039062 27.945312 28.285156 C 31.699219 24.53125 36.789062 22.425781 42.09375 22.425781 Z M 42.09375 22.425781 " clip-rule="nonzero"/></clipPath><clipPath id="83a3231e14"><path d="M 42.09375 22.425781 L 332.871094 22.425781 C 338.179688 22.425781 343.269531 24.53125 347.019531 28.285156 C 350.773438 32.039062 352.882812 37.128906 352.882812 42.4375 L 352.882812 330.121094 C 352.882812 335.429688 350.773438 340.519531 347.019531 344.273438 C 343.269531 348.023438 338.179688 350.132812 332.871094 350.132812 L 42.09375 350.132812 C 36.789062 350.132812 31.699219 348.023438 27.945312 344.273438 C 24.191406 340.519531 22.085938 335.429688 22.085938 330.121094 L 22.085938 42.4375 C 22.085938 37.128906 24.191406 32.039062 27.945312 28.285156 C 31.699219 24.53125 36.789062 22.425781 42.09375 22.425781 Z M 42.09375 22.425781 " clip-rule="nonzero"/></clipPath><clipPath id="1f20818165"><path d="M 22.085938 22.425781 L 352.84375 22.425781 L 352.84375 350.046875 L 22.085938 350.046875 Z M 22.085938 22.425781 " clip-rule="nonzero"/></clipPath><clipPath id="149d1860bf"><path d="M 42.09375 22.425781 L 332.871094 22.425781 C 338.179688 22.425781 343.265625 24.535156 347.019531 28.285156 C 350.773438 32.039062 352.882812 37.128906 352.882812 42.4375 L 352.882812 330.121094 C 352.882812 335.425781 350.773438 340.519531 347.019531 344.269531 C 343.265625 348.023438 338.179688 350.128906 332.871094 350.128906 L 42.09375 350.128906 C 36.789062 350.128906 31.699219 348.023438 27.945312 344.269531 C 24.191406 340.519531 22.085938 335.425781 22.085938 330.121094 L 22.085938 42.4375 C 22.085938 37.128906 24.191406 32.039062 27.945312 28.285156 C 31.699219 24.535156 36.789062 22.425781 42.09375 22.425781 Z M 42.09375 22.425781 " clip-rule="nonzero"/></clipPath><clipPath id="1dbc87ecc1"><path d="M 79.410156 53.324219 L 143.546875 53.324219 L 143.546875 117.460938 L 79.410156 117.460938 Z M 79.410156 53.324219 " clip-rule="nonzero"/></clipPath><clipPath id="3ceb1406df"><path d="M 99.027344 53.324219 L 123.925781 53.324219 C 134.761719 53.324219 143.546875 62.109375 143.546875 72.945312 L 143.546875 97.84375 C 143.546875 108.675781 134.761719 117.460938 123.925781 117.460938 L 99.027344 117.460938 C 88.195312 117.460938 79.410156 108.675781 79.410156 97.84375 L 79.410156 72.945312 C 79.410156 62.109375 88.195312 53.324219 99.027344 53.324219 Z M 99.027344 53.324219 " clip-rule="nonzero"/></clipPath><clipPath id="7722376822"><path d="M 99.027344 53.324219 L 123.925781 53.324219 C 134.761719 53.324219 143.546875 62.109375 143.546875 72.945312 L 143.546875 97.84375 C 143.546875 108.675781 134.761719 117.460938 123.925781 117.460938 L 99.027344 117.460938 C 88.195312 117.460938 79.410156 108.675781 79.410156 97.84375 L 79.410156 72.945312 C 79.410156 62.109375 88.195312 53.324219 99.027344 53.324219 Z M 99.027344 53.324219 " clip-rule="nonzero"/></clipPath><clipPath id="812263979e"><path d="M 79.410156 53.324219 L 143.363281 53.324219 L 143.363281 117.28125 L 79.410156 117.28125 Z M 79.410156 53.324219 " clip-rule="nonzero"/></clipPath><clipPath id="743e93efa5"><path d="M 99.027344 53.324219 L 123.925781 53.324219 C 134.761719 53.324219 143.542969 62.105469 143.542969 72.941406 L 143.542969 97.839844 C 143.542969 108.675781 134.761719 117.457031 123.925781 117.457031 L 99.027344 117.457031 C 88.191406 117.457031 79.410156 108.675781 79.410156 97.839844 L 79.410156 72.941406 C 79.410156 62.105469 88.191406 53.324219 99.027344 53.324219 Z M 99.027344 53.324219 " clip-rule="nonzero"/></clipPath><clipPath id="db7243701e"><path d="M 154.140625 52.972656 L 218.277344 52.972656 L 218.277344 117.109375 L 154.140625 117.109375 Z M 154.140625 52.972656 " clip-rule="nonzero"/></clipPath><clipPath id="839dfb1c9d"><path d="M 173.757812 52.972656 L 198.65625 52.972656 C 209.492188 52.972656 218.277344 61.753906 218.277344 72.589844 L 218.277344 97.492188 C 218.277344 108.324219 209.492188 117.109375 198.65625 117.109375 L 173.757812 117.109375 C 162.921875 117.109375 154.140625 108.324219 154.140625 97.492188 L 154.140625 72.589844 C 154.140625 61.753906 162.921875 52.972656 173.757812 52.972656 Z M 173.757812 52.972656 " clip-rule="nonzero"/></clipPath><clipPath id="e4e503061f"><path d="M 173.757812 52.972656 L 198.65625 52.972656 C 209.492188 52.972656 218.277344 61.753906 218.277344 72.589844 L 218.277344 97.492188 C 218.277344 108.324219 209.492188 117.109375 198.65625 117.109375 L 173.757812 117.109375 C 162.921875 117.109375 154.140625 108.324219 154.140625 97.492188 L 154.140625 72.589844 C 154.140625 61.753906 162.921875 52.972656 173.757812 52.972656 Z M 173.757812 52.972656 " clip-rule="nonzero"/></clipPath><clipPath id="3ebfbe77a8"><path d="M 154.140625 52.972656 L 218.09375 52.972656 L 218.09375 116.925781 L 154.140625 116.925781 Z M 154.140625 52.972656 " clip-rule="nonzero"/></clipPath><clipPath id="0e4d5e0d7c"><path d="M 173.757812 52.972656 L 198.65625 52.972656 C 209.488281 52.972656 218.273438 61.753906 218.273438 72.589844 L 218.273438 97.488281 C 218.273438 108.320312 209.488281 117.105469 198.65625 117.105469 L 173.757812 117.105469 C 162.921875 117.105469 154.140625 108.320312 154.140625 97.488281 L 154.140625 72.589844 C 154.140625 61.753906 162.921875 52.972656 173.757812 52.972656 Z M 173.757812 52.972656 " clip-rule="nonzero"/></clipPath><clipPath id="703a95d360"><path d="M 228.925781 53.324219 L 293.0625 53.324219 L 293.0625 117.460938 L 228.925781 117.460938 Z M 228.925781 53.324219 " clip-rule="nonzero"/></clipPath><clipPath id="b3697748f8"><path d="M 248.542969 53.324219 L 273.441406 53.324219 C 284.277344 53.324219 293.0625 62.109375 293.0625 72.945312 L 293.0625 97.84375 C 293.0625 108.675781 284.277344 117.460938 273.441406 117.460938 L 248.542969 117.460938 C 237.707031 117.460938 228.925781 108.675781 228.925781 97.84375 L 228.925781 72.945312 C 228.925781 62.109375 237.707031 53.324219 248.542969 53.324219 Z M 248.542969 53.324219 " clip-rule="nonzero"/></clipPath><clipPath id="1713bba89e"><path d="M 248.542969 53.324219 L 273.441406 53.324219 C 284.277344 53.324219 293.0625 62.109375 293.0625 72.945312 L 293.0625 97.84375 C 293.0625 108.675781 284.277344 117.460938 273.441406 117.460938 L 248.542969 117.460938 C 237.707031 117.460938 228.925781 108.675781 228.925781 97.84375 L 228.925781 72.945312 C 228.925781 62.109375 237.707031 53.324219 248.542969 53.324219 Z M 248.542969 53.324219 " clip-rule="nonzero"/></clipPath><clipPath id="51eeb2ee8b"><path d="M 228.925781 53.324219 L 292.878906 53.324219 L 292.878906 117.28125 L 228.925781 117.28125 Z M 228.925781 53.324219 " clip-rule="nonzero"/></clipPath><clipPath id="883c568fc1"><path d="M 248.539062 53.324219 L 273.4375 53.324219 C 284.273438 53.324219 293.058594 62.105469 293.058594 72.941406 L 293.058594 97.839844 C 293.058594 108.675781 284.273438 117.457031 273.4375 117.457031 L 248.539062 117.457031 C 237.707031 117.457031 228.925781 108.675781 228.925781 97.839844 L 228.925781 72.941406 C 228.925781 62.105469 237.707031 53.324219 248.539062 53.324219 Z M 248.539062 53.324219 " clip-rule="nonzero"/></clipPath><clipPath id="6ff63e4b87"><path d="M 45.566406 214.988281 L 336 214.988281 L 336 320.28125 L 45.566406 320.28125 Z M 45.566406 214.988281 " clip-rule="nonzero"/></clipPath><clipPath id="2e2b0d3cd3"><path d="M 74.992188 214.988281 L 306.574219 214.988281 C 322.828125 214.988281 336.003906 228.160156 336.003906 244.414062 L 336.003906 290.855469 C 336.003906 307.109375 322.828125 320.28125 306.574219 320.28125 L 74.992188 320.28125 C 58.738281 320.28125 45.566406 307.109375 45.566406 290.855469 L 45.566406 244.414062 C 45.566406 228.160156 58.738281 214.988281 74.992188 214.988281 Z M 74.992188 214.988281 " clip-rule="nonzero"/></clipPath><clipPath id="905a2d6480"><path d="M 74.992188 214.988281 L 306.574219 214.988281 C 322.828125 214.988281 336.003906 228.160156 336.003906 244.414062 L 336.003906 290.855469 C 336.003906 307.109375 322.828125 320.28125 306.574219 320.28125 L 74.992188 320.28125 C 58.738281 320.28125 45.566406 307.109375 45.566406 290.855469 L 45.566406 244.414062 C 45.566406 228.160156 58.738281 214.988281 74.992188 214.988281 Z M 74.992188 214.988281 " clip-rule="nonzero"/></clipPath><clipPath id="c586a7213b"><path d="M 45.566406 214.988281 L 335.914062 214.988281 L 335.914062 320.140625 L 45.566406 320.140625 Z M 45.566406 214.988281 " clip-rule="nonzero"/></clipPath><clipPath id="7ca52cbd29"><path d="M 74.992188 214.988281 L 306.570312 214.988281 C 322.824219 214.988281 336 228.160156 336 244.414062 L 336 290.855469 C 336 307.105469 322.824219 320.28125 306.570312 320.28125 L 74.992188 320.28125 C 58.738281 320.28125 45.566406 307.105469 45.566406 290.855469 L 45.566406 244.414062 C 45.566406 228.160156 58.738281 214.988281 74.992188 214.988281 Z M 74.992188 214.988281 " clip-rule="nonzero"/></clipPath><clipPath id="0130a98a7d"><path d="M 141.289062 222.71875 L 231.125 222.71875 L 231.125 312.550781 L 141.289062 312.550781 Z M 141.289062 222.71875 " clip-rule="nonzero"/></clipPath><clipPath id="911a671c85"><path d="M 186.207031 222.71875 C 161.398438 222.71875 141.289062 242.828125 141.289062 267.632812 C 141.289062 292.445312 161.398438 312.550781 186.207031 312.550781 C 211.015625 312.550781 231.125 292.445312 231.125 267.632812 C 231.125 242.828125 211.015625 222.71875 186.207031 222.71875 Z M 186.207031 222.71875 " clip-rule="nonzero"/></clipPath><clipPath id="250797f6dd"><path d="M 186.207031 222.71875 C 161.398438 222.71875 141.289062 242.828125 141.289062 267.632812 C 141.289062 292.445312 161.398438 312.550781 186.207031 312.550781 C 211.015625 312.550781 231.125 292.445312 231.125 267.632812 C 231.125 242.828125 211.015625 222.71875 186.207031 222.71875 Z M 186.207031 222.71875 " clip-rule="nonzero"/></clipPath><clipPath id="b2bd054382"><path d="M 89.558594 229.667969 L 167.605469 229.667969 L 167.605469 280.789062 L 89.558594 280.789062 Z M 89.558594 229.667969 " clip-rule="nonzero"/></clipPath><clipPath id="cbde19c3b4"><path d="M 133.785156 229.667969 C 134.640625 229.667969 135.5 229.667969 136.351562 229.667969 C 143.152344 230.523438 147.398438 233.367188 149.335938 238.019531 C 160.667969 237.394531 168.910156 246.191406 163.886719 254.820312 C 165.558594 256.632812 166.949219 258.664062 167.453125 261.386719 C 167.453125 262.167969 167.453125 262.941406 167.453125 263.722656 C 165.953125 270.652344 159.5 275.335938 148.910156 274.074219 C 146.183594 277.632812 141.335938 281.195312 133.789062 280.753906 C 129.886719 280.519531 127.171875 279.167969 124.796875 277.519531 C 122.292969 278.886719 119.585938 279.960938 115.667969 279.972656 C 106.609375 279.992188 100.546875 274.726562 100.398438 267.507812 C 94.574219 265.820312 90.632812 262.667969 89.558594 257.273438 C 89.558594 256.492188 89.558594 255.710938 89.558594 254.933594 C 90.742188 249.585938 94.472656 246.230469 100.683594 244.804688 C 100.3125 235.785156 112.734375 230.152344 122.941406 234.125 C 125.371094 232.160156 128.808594 230.015625 133.785156 229.667969 Z M 133.785156 229.667969 " clip-rule="nonzero"/></clipPath><clipPath id="4ca79145d5"><path d="M 133.785156 229.667969 C 134.640625 229.667969 135.5 229.667969 136.351562 229.667969 C 143.152344 230.523438 147.398438 233.367188 149.335938 238.019531 C 160.667969 237.394531 168.910156 246.191406 163.886719 254.820312 C 165.558594 256.632812 166.949219 258.664062 167.453125 261.386719 C 167.453125 262.167969 167.453125 262.941406 167.453125 263.722656 C 165.953125 270.652344 159.5 275.335938 148.910156 274.074219 C 146.183594 277.632812 141.335938 281.195312 133.789062 280.753906 C 129.886719 280.519531 127.171875 279.167969 124.796875 277.519531 C 122.292969 278.886719 119.585938 279.960938 115.667969 279.972656 C 106.609375 279.992188 100.546875 274.726562 100.398438 267.507812 C 94.574219 265.820312 90.632812 262.667969 89.558594 257.273438 C 89.558594 256.492188 89.558594 255.710938 89.558594 254.933594 C 90.742188 249.585938 94.472656 246.230469 100.683594 244.804688 C 100.3125 235.785156 112.734375 230.152344 122.941406 234.125 C 125.371094 232.160156 128.808594 230.015625 133.785156 229.667969 Z M 133.785156 229.667969 " clip-rule="nonzero"/></clipPath><clipPath id="75502cb88b"><path d="M 186.394531 229.667969 L 264.386719 229.667969 L 264.386719 280.789062 L 186.394531 280.789062 Z M 186.394531 229.667969 " clip-rule="nonzero"/></clipPath><clipPath id="e7ef9f7c2a"><path d="M 230.625 229.667969 C 231.480469 229.667969 232.339844 229.667969 233.191406 229.667969 C 239.992188 230.523438 244.238281 233.367188 246.175781 238.019531 C 257.507812 237.394531 265.75 246.191406 260.726562 254.820312 C 262.394531 256.632812 263.789062 258.664062 264.292969 261.386719 C 264.292969 262.167969 264.292969 262.941406 264.292969 263.722656 C 262.792969 270.652344 256.339844 275.335938 245.746094 274.074219 C 243.023438 277.632812 238.171875 281.195312 230.625 280.753906 C 226.726562 280.519531 224.011719 279.167969 221.636719 277.519531 C 219.132812 278.886719 216.421875 279.960938 212.507812 279.972656 C 203.449219 279.992188 197.386719 274.726562 197.238281 267.507812 C 191.414062 265.820312 187.472656 262.667969 186.394531 257.273438 C 186.394531 256.492188 186.394531 255.710938 186.394531 254.933594 C 187.582031 249.585938 191.3125 246.230469 197.523438 244.804688 C 197.148438 235.785156 209.574219 230.152344 219.78125 234.125 C 222.210938 232.160156 225.648438 230.015625 230.625 229.667969 Z M 230.625 229.667969 " clip-rule="nonzero"/></clipPath><clipPath id="ba63eb8235"><path d="M 230.625 229.667969 C 231.480469 229.667969 232.339844 229.667969 233.191406 229.667969 C 239.992188 230.523438 244.238281 233.367188 246.175781 238.019531 C 257.507812 237.394531 265.75 246.191406 260.726562 254.820312 C 262.394531 256.632812 263.789062 258.664062 264.292969 261.386719 C 264.292969 262.167969 264.292969 262.941406 264.292969 263.722656 C 262.792969 270.652344 256.339844 275.335938 245.746094 274.074219 C 243.023438 277.632812 238.171875 281.195312 230.625 280.753906 C 226.726562 280.519531 224.011719 279.167969 221.636719 277.519531 C 219.132812 278.886719 216.421875 279.960938 212.507812 279.972656 C 203.449219 279.992188 197.386719 274.726562 197.238281 267.507812 C 191.414062 265.820312 187.472656 262.667969 186.394531 257.273438 C 186.394531 256.492188 186.394531 255.710938 186.394531 254.933594 C 187.582031 249.585938 191.3125 246.230469 197.523438 244.804688 C 197.148438 235.785156 209.574219 230.152344 219.78125 234.125 C 222.210938 232.160156 225.648438 230.015625 230.625 229.667969 Z M 230.625 229.667969 " clip-rule="nonzero"/></clipPath><clipPath id="fc9766150e"><path d="M 231.125 251.144531 L 309.203125 251.144531 L 309.203125 302.265625 L 231.125 302.265625 Z M 231.125 251.144531 " clip-rule="nonzero"/></clipPath><clipPath id="6b912dc41f"><path d="M 275.355469 251.144531 C 276.207031 251.144531 277.066406 251.144531 277.921875 251.144531 C 284.71875 252 288.964844 254.84375 290.902344 259.492188 C 302.238281 258.871094 310.476562 267.664062 305.457031 276.296875 C 307.125 278.109375 308.519531 280.136719 309.019531 282.859375 C 309.019531 283.640625 309.019531 284.417969 309.019531 285.199219 C 307.519531 292.128906 301.070312 296.808594 290.476562 295.550781 C 287.75 299.109375 282.902344 302.671875 275.355469 302.226562 C 271.453125 301.996094 268.742188 300.640625 266.363281 298.996094 C 263.859375 300.363281 261.152344 301.433594 257.234375 301.449219 C 248.175781 301.46875 242.117188 296.203125 241.96875 288.984375 C 236.144531 287.292969 232.199219 284.140625 231.125 278.746094 C 231.125 277.96875 231.125 277.183594 231.125 276.40625 C 232.3125 271.0625 236.039062 267.703125 242.253906 266.28125 C 241.878906 257.261719 254.300781 251.628906 264.507812 255.601562 C 266.9375 253.632812 270.375 251.492188 275.355469 251.144531 Z M 275.355469 251.144531 " clip-rule="nonzero"/></clipPath><clipPath id="6898d01d7e"><path d="M 275.355469 251.144531 C 276.207031 251.144531 277.066406 251.144531 277.921875 251.144531 C 284.71875 252 288.964844 254.84375 290.902344 259.492188 C 302.238281 258.871094 310.476562 267.664062 305.457031 276.296875 C 307.125 278.109375 308.519531 280.136719 309.019531 282.859375 C 309.019531 283.640625 309.019531 284.417969 309.019531 285.199219 C 307.519531 292.128906 301.070312 296.808594 290.476562 295.550781 C 287.75 299.109375 282.902344 302.671875 275.355469 302.226562 C 271.453125 301.996094 268.742188 300.640625 266.363281 298.996094 C 263.859375 300.363281 261.152344 301.433594 257.234375 301.449219 C 248.175781 301.46875 242.117188 296.203125 241.96875 288.984375 C 236.144531 287.292969 232.199219 284.140625 231.125 278.746094 C 231.125 277.96875 231.125 277.183594 231.125 276.40625 C 232.3125 271.0625 236.039062 267.703125 242.253906 266.28125 C 241.878906 257.261719 254.300781 251.628906 264.507812 255.601562 C 266.9375 253.632812 270.375 251.492188 275.355469 251.144531 Z M 275.355469 251.144531 " clip-rule="nonzero"/></clipPath><clipPath id="b5bdf92776"><path d="M 154.140625 133.980469 L 218.277344 133.980469 L 218.277344 198.117188 L 154.140625 198.117188 Z M 154.140625 133.980469 " clip-rule="nonzero"/></clipPath><clipPath id="b19edb81f4"><path d="M 173.757812 133.980469 L 198.65625 133.980469 C 209.492188 133.980469 218.277344 142.765625 218.277344 153.597656 L 218.277344 178.496094 C 218.277344 189.332031 209.492188 198.117188 198.65625 198.117188 L 173.757812 198.117188 C 162.921875 198.117188 154.140625 189.332031 154.140625 178.496094 L 154.140625 153.597656 C 154.140625 142.765625 162.921875 133.980469 173.757812 133.980469 Z M 173.757812 133.980469 " clip-rule="nonzero"/></clipPath><clipPath id="bfbe3fe420"><path d="M 173.757812 133.980469 L 198.65625 133.980469 C 209.492188 133.980469 218.277344 142.765625 218.277344 153.597656 L 218.277344 178.496094 C 218.277344 189.332031 209.492188 198.117188 198.65625 198.117188 L 173.757812 198.117188 C 162.921875 198.117188 154.140625 189.332031 154.140625 178.496094 L 154.140625 153.597656 C 154.140625 142.765625 162.921875 133.980469 173.757812 133.980469 Z M 173.757812 133.980469 " clip-rule="nonzero"/></clipPath><clipPath id="127361682c"><path d="M 154.140625 133.980469 L 218.09375 133.980469 L 218.09375 197.933594 L 154.140625 197.933594 Z M 154.140625 133.980469 " clip-rule="nonzero"/></clipPath><clipPath id="411ded9508"><path d="M 173.757812 133.980469 L 198.65625 133.980469 C 209.488281 133.980469 218.273438 142.761719 218.273438 153.597656 L 218.273438 178.496094 C 218.273438 189.332031 209.488281 198.113281 198.65625 198.113281 L 173.757812 198.113281 C 162.921875 198.113281 154.140625 189.332031 154.140625 178.496094 L 154.140625 153.597656 C 154.140625 142.761719 162.921875 133.980469 173.757812 133.980469 Z M 173.757812 133.980469 " clip-rule="nonzero"/></clipPath><clipPath id="0e9a0f1ce8"><path d="M 79.355469 133.980469 L 143.488281 133.980469 L 143.488281 198.117188 L 79.355469 198.117188 Z M 79.355469 133.980469 " clip-rule="nonzero"/></clipPath><clipPath id="effe35665f"><path d="M 98.972656 133.980469 L 123.871094 133.980469 C 134.707031 133.980469 143.488281 142.765625 143.488281 153.597656 L 143.488281 178.496094 C 143.488281 189.332031 134.707031 198.117188 123.871094 198.117188 L 98.972656 198.117188 C 88.136719 198.117188 79.355469 189.332031 79.355469 178.496094 L 79.355469 153.597656 C 79.355469 142.765625 88.136719 133.980469 98.972656 133.980469 Z M 98.972656 133.980469 " clip-rule="nonzero"/></clipPath><clipPath id="3eea1926ea"><path d="M 98.972656 133.980469 L 123.871094 133.980469 C 134.707031 133.980469 143.488281 142.765625 143.488281 153.597656 L 143.488281 178.496094 C 143.488281 189.332031 134.707031 198.117188 123.871094 198.117188 L 98.972656 198.117188 C 88.136719 198.117188 79.355469 189.332031 79.355469 178.496094 L 79.355469 153.597656 C 79.355469 142.765625 88.136719 133.980469 98.972656 133.980469 Z M 98.972656 133.980469 " clip-rule="nonzero"/></clipPath><clipPath id="727ee78dbc"><path d="M 79.355469 133.980469 L 143.308594 133.980469 L 143.308594 197.933594 L 79.355469 197.933594 Z M 79.355469 133.980469 " clip-rule="nonzero"/></clipPath><clipPath id="c62a16060f"><path d="M 98.972656 133.980469 L 123.871094 133.980469 C 134.703125 133.980469 143.488281 142.761719 143.488281 153.597656 L 143.488281 178.496094 C 143.488281 189.332031 134.703125 198.113281 123.871094 198.113281 L 98.972656 198.113281 C 88.136719 198.113281 79.355469 189.332031 79.355469 178.496094 L 79.355469 153.597656 C 79.355469 142.761719 88.136719 133.980469 98.972656 133.980469 Z M 98.972656 133.980469 " clip-rule="nonzero"/></clipPath><clipPath id="6d71590d32"><path d="M 228.925781 133.980469 L 293.0625 133.980469 L 293.0625 198.117188 L 228.925781 198.117188 Z M 228.925781 133.980469 " clip-rule="nonzero"/></clipPath><clipPath id="349c08185a"><path d="M 248.542969 133.980469 L 273.441406 133.980469 C 284.277344 133.980469 293.0625 142.765625 293.0625 153.597656 L 293.0625 178.496094 C 293.0625 189.332031 284.277344 198.117188 273.441406 198.117188 L 248.542969 198.117188 C 237.707031 198.117188 228.925781 189.332031 228.925781 178.496094 L 228.925781 153.597656 C 228.925781 142.765625 237.707031 133.980469 248.542969 133.980469 Z M 248.542969 133.980469 " clip-rule="nonzero"/></clipPath><clipPath id="2d2e47b416"><path d="M 248.542969 133.980469 L 273.441406 133.980469 C 284.277344 133.980469 293.0625 142.765625 293.0625 153.597656 L 293.0625 178.496094 C 293.0625 189.332031 284.277344 198.117188 273.441406 198.117188 L 248.542969 198.117188 C 237.707031 198.117188 228.925781 189.332031 228.925781 178.496094 L 228.925781 153.597656 C 228.925781 142.765625 237.707031 133.980469 248.542969 133.980469 Z M 248.542969 133.980469 " clip-rule="nonzero"/></clipPath><clipPath id="5f297fda57"><path d="M 228.925781 133.980469 L 292.878906 133.980469 L 292.878906 197.933594 L 228.925781 197.933594 Z M 228.925781 133.980469 " clip-rule="nonzero"/></clipPath><clipPath id="4dbda23857"><path d="M 248.539062 133.980469 L 273.4375 133.980469 C 284.273438 133.980469 293.058594 142.761719 293.058594 153.597656 L 293.058594 178.496094 C 293.058594 189.332031 284.273438 198.113281 273.4375 198.113281 L 248.539062 198.113281 C 237.707031 198.113281 228.925781 189.332031 228.925781 178.496094 L 228.925781 153.597656 C 228.925781 142.761719 237.707031 133.980469 248.539062 133.980469 Z M 248.539062 133.980469 " clip-rule="nonzero"/></clipPath></defs><g clip-path="url(#baaa1f02f8)"><g clip-path="url(#a02bddbfcd)"><g clip-path="url(#34498f37b0)"><path fill="#ffffff" d="M 2.496094 1.289062 L 372.472656 1.289062 L 372.472656 371.265625 L 2.496094 371.265625 Z M 2.496094 1.289062 " fill-opacity="1" fill-rule="nonzero"/></g></g></g><g clip-path="url(#aba98f0e64)"><g clip-path="url(#20579fdfb3)"><path stroke-linecap="butt" transform="matrix(0.392361, 0, 0, 0.392361, 2.494377, 1.289586)" fill="none" stroke-linejoin="miter" d="M 99.999949 -0.0013345 L 842.937989 -0.0013345 C 898.172501 -0.0013345 942.933562 44.769679 942.933562 99.994232 L 942.933562 842.942172 C 942.933562 898.166725 898.172501 942.937738 842.937989 942.937738 L 99.999949 942.937738 C 44.765437 942.937738 0.0043757 898.166725 0.0043757 842.942172 L 0.0043757 99.994232 C 0.0043757 44.769679 44.765437 -0.0013345 99.999949 -0.0013345 Z M 99.999949 -0.0013345 " stroke="#67c7ff" stroke-width="120" stroke-opacity="1" stroke-miterlimit="4"/></g></g><g clip-path="url(#4be9703835)"><g clip-path="url(#39c521b99e)"><path stroke-linecap="butt" transform="matrix(0.392361, 0, 0, 0.392361, 0.368792, 0.286999)" fill="none" stroke-linejoin="miter" d="M 100.001441 0.00525793 L 854.557843 0.00525793 C 909.792355 0.00525793 954.563372 44.776272 954.563372 100.000824 L 954.563372 853.004074 C 954.563372 908.228626 909.792355 952.99964 854.557843 952.99964 L 100.001441 952.99964 C 44.766928 952.99964 -0.0040886 908.228626 -0.0040886 853.004074 L -0.0040886 100.000824 C -0.0040886 44.776272 44.766928 0.00525793 100.001441 0.00525793 Z M 100.001441 0.00525793 " stroke="#000000" stroke-width="20" stroke-opacity="1" stroke-miterlimit="4"/></g></g><g clip-path="url(#9b910fa67d)"><g clip-path="url(#ad349c3550)"><g clip-path="url(#83a3231e14)"><path fill="#ffffff" d="M 22.085938 22.425781 L 352.351562 22.425781 L 352.351562 350.132812 L 22.085938 350.132812 Z M 22.085938 22.425781 " fill-opacity="1" fill-rule="nonzero"/></g></g></g><g clip-path="url(#1f20818165)"><g clip-path="url(#149d1860bf)"><path stroke-linecap="butt" transform="matrix(0.392361, 0, 0, 0.392361, 22.083964, 22.425632)" fill="none" stroke-linejoin="miter" d="M 50.998393 0.000380065 L 792.094618 0.000380065 C 805.624485 0.000380065 818.586875 5.376486 828.154352 14.934007 C 837.72183 24.501484 843.097936 37.473828 843.097936 51.003694 L 843.097936 784.21491 C 843.097936 797.73482 837.72183 810.71712 828.154352 820.274641 C 818.586875 829.842118 805.624485 835.208268 792.094618 835.208268 L 50.998393 835.208268 C 37.478482 835.208268 24.506137 829.842118 14.938659 820.274641 C 5.371181 810.71712 0.005031 797.73482 0.005031 784.21491 L 0.005031 51.003694 C 0.005031 37.473828 5.371181 24.501484 14.938659 14.934007 C 24.506137 5.376486 37.478482 0.000380065 50.998393 0.000380065 Z M 50.998393 0.000380065 " stroke="#000000" stroke-width="20" stroke-opacity="1" stroke-miterlimit="4"/></g></g><g clip-path="url(#1dbc87ecc1)"><g clip-path="url(#3ceb1406df)"><g clip-path="url(#7722376822)"><path fill="#d9d9d9" d="M 79.410156 53.324219 L 143.546875 53.324219 L 143.546875 117.460938 L 79.410156 117.460938 Z M 79.410156 53.324219 " fill-opacity="1" fill-rule="nonzero"/></g></g></g><g clip-path="url(#812263979e)"><g clip-path="url(#743e93efa5)"><path stroke-linecap="butt" transform="matrix(0.392361, 0, 0, 0.392361, 79.409325, 53.324908)" fill="none" stroke-linejoin="miter" d="M 49.999906 -0.0017559 L 113.457869 -0.0017559 C 141.075125 -0.0017559 163.455656 22.378773 163.455656 49.996027 L 163.455656 113.453986 C 163.455656 141.07124 141.075125 163.451769 113.457869 163.451769 L 49.999906 163.451769 C 22.382649 163.451769 0.00211888 141.07124 0.00211888 113.453986 L 0.00211888 49.996027 C 0.00211888 22.378773 22.382649 -0.0017559 49.999906 -0.0017559 Z M 49.999906 -0.0017559 " stroke="#000000" stroke-width="20" stroke-opacity="1" stroke-miterlimit="4"/></g></g><g clip-path="url(#db7243701e)"><g clip-path="url(#839dfb1c9d)"><g clip-path="url(#e4e503061f)"><path fill="#d9d9d9" d="M 154.140625 52.972656 L 218.277344 52.972656 L 218.277344 117.109375 L 154.140625 117.109375 Z M 154.140625 52.972656 " fill-opacity="1" fill-rule="nonzero"/></g></g></g><g clip-path="url(#3ebfbe77a8)"><g clip-path="url(#0e4d5e0d7c)"><path stroke-linecap="butt" transform="matrix(0.392361, 0, 0, 0.392361, 154.139262, 52.972014)" fill="none" stroke-linejoin="miter" d="M 50.00126 0.00163658 L 113.459223 0.00163658 C 141.066523 0.00163658 163.45701 22.382165 163.45701 49.99942 L 163.45701 113.457378 C 163.45701 141.064677 141.066523 163.455161 113.459223 163.455161 L 50.00126 163.455161 C 22.384003 163.455161 0.00347288 141.064677 0.00347288 113.457378 L 0.00347288 49.99942 C 0.00347288 22.382165 22.384003 0.00163658 50.00126 0.00163658 Z M 50.00126 0.00163658 " stroke="#000000" stroke-width="20" stroke-opacity="1" stroke-miterlimit="4"/></g></g><g clip-path="url(#703a95d360)"><g clip-path="url(#b3697748f8)"><g clip-path="url(#1713bba89e)"><path fill="#d9d9d9" d="M 228.925781 53.324219 L 293.0625 53.324219 L 293.0625 117.460938 L 228.925781 117.460938 Z M 228.925781 53.324219 " fill-opacity="1" fill-rule="nonzero"/></g></g></g><g clip-path="url(#51eeb2ee8b)"><g clip-path="url(#883c568fc1)"><path stroke-linecap="butt" transform="matrix(0.392361, 0, 0, 0.392361, 228.924174, 53.324908)" fill="none" stroke-linejoin="miter" d="M 49.991927 -0.0017559 L 113.44989 -0.0017559 C 141.067146 -0.0017559 163.457633 22.378773 163.457633 49.996027 L 163.457633 113.453986 C 163.457633 141.07124 141.067146 163.451769 113.44989 163.451769 L 49.991927 163.451769 C 22.384626 163.451769 0.00409567 141.07124 0.00409567 113.453986 L 0.00409567 49.996027 C 0.00409567 22.378773 22.384626 -0.0017559 49.991927 -0.0017559 Z M 49.991927 -0.0017559 " stroke="#000000" stroke-width="20" stroke-opacity="1" stroke-miterlimit="4"/></g></g><g clip-path="url(#6ff63e4b87)"><g clip-path="url(#2e2b0d3cd3)"><g clip-path="url(#905a2d6480)"><path fill="#d7f0ff" d="M 45.566406 214.988281 L 335.949219 214.988281 L 335.949219 320.28125 L 45.566406 320.28125 Z M 45.566406 214.988281 " fill-opacity="1" fill-rule="nonzero"/></g></g></g><g clip-path="url(#c586a7213b)"><g clip-path="url(#7ca52cbd29)"><path stroke-linecap="butt" transform="matrix(0.392361, 0, 0, 0.392361, 45.565418, 214.987543)" fill="none" stroke-linejoin="miter" d="M 74.9992 0.00188033 L 665.216003 0.00188033 C 706.641888 0.00188033 740.222639 33.572674 740.222639 74.998555 L 740.222639 193.362482 C 740.222639 234.778408 706.641888 268.359157 665.216003 268.359157 L 74.9992 268.359157 C 33.573316 268.359157 0.00251998 234.778408 0.00251998 193.362482 L 0.00251998 74.998555 C 0.00251998 33.572674 33.573316 0.00188033 74.9992 0.00188033 Z M 74.9992 0.00188033 " stroke="#000000" stroke-width="20" stroke-opacity="1" stroke-miterlimit="4"/></g></g><g clip-path="url(#0130a98a7d)"><g clip-path="url(#911a671c85)"><g clip-path="url(#250797f6dd)"><path fill="#ffe372" d="M 141.289062 222.71875 L 231.125 222.71875 L 231.125 312.550781 L 141.289062 312.550781 Z M 141.289062 222.71875 " fill-opacity="1" fill-rule="nonzero"/></g></g></g><g clip-path="url(#b2bd054382)"><g clip-path="url(#cbde19c3b4)"><g clip-path="url(#4ca79145d5)"><path fill="#ffffff" d="M 89.558594 229.667969 L 167.433594 229.667969 L 167.433594 280.789062 L 89.558594 280.789062 Z M 89.558594 229.667969 " fill-opacity="1" fill-rule="nonzero"/></g></g></g><g clip-path="url(#75502cb88b)"><g clip-path="url(#e7ef9f7c2a)"><g clip-path="url(#ba63eb8235)"><path fill="#ffffff" d="M 186.394531 229.667969 L 264.273438 229.667969 L 264.273438 280.789062 L 186.394531 280.789062 Z M 186.394531 229.667969 " fill-opacity="1" fill-rule="nonzero"/></g></g></g><g clip-path="url(#fc9766150e)"><g clip-path="url(#6b912dc41f)"><g clip-path="url(#6898d01d7e)"><path fill="#ffffff" d="M 231.125 251.144531 L 309.003906 251.144531 L 309.003906 302.265625 L 231.125 302.265625 Z M 231.125 251.144531 " fill-opacity="1" fill-rule="nonzero"/></g></g></g><path fill="#000000" d="M 89.367188 288.03125 C 86.167969 288.03125 83.078125 287.535156 80.097656 286.542969 C 77.125 285.550781 74.785156 284.265625 73.085938 282.683594 L 75.332031 277.941406 C 76.953125 279.402344 79.027344 280.589844 81.5625 281.507812 C 84.097656 282.417969 86.699219 282.871094 89.367188 282.871094 C 92.894531 282.871094 95.527344 282.277344 97.273438 281.082031 C 99.015625 279.882812 99.886719 278.292969 99.886719 276.308594 C 99.886719 274.847656 99.410156 273.664062 98.457031 272.753906 C 97.503906 271.835938 96.328125 271.136719 94.925781 270.652344 C 93.53125 270.167969 91.558594 269.621094 89.007812 269.007812 C 85.804688 268.242188 83.21875 267.472656 81.25 266.703125 C 79.289062 265.933594 77.609375 264.75 76.207031 263.148438 C 74.8125 261.546875 74.113281 259.386719 74.113281 256.675781 C 74.113281 254.40625 74.710938 252.363281 75.90625 250.542969 C 77.101562 248.71875 78.917969 247.257812 81.347656 246.160156 C 83.777344 245.066406 86.796875 244.519531 90.40625 244.519531 C 92.917969 244.519531 95.386719 244.84375 97.820312 245.492188 C 100.25 246.140625 102.335938 247.074219 104.082031 248.289062 L 102.070312 253.152344 C 100.289062 252.019531 98.382812 251.15625 96.355469 250.566406 C 94.335938 249.980469 92.351562 249.683594 90.40625 249.683594 C 86.960938 249.683594 84.378906 250.3125 82.65625 251.574219 C 80.933594 252.828125 80.074219 254.445312 80.074219 256.429688 C 80.074219 257.890625 80.558594 259.078125 81.527344 259.992188 C 82.503906 260.902344 83.710938 261.609375 85.148438 262.117188 C 86.589844 262.621094 88.542969 263.152344 91.011719 263.71875 C 94.214844 264.496094 96.785156 265.265625 98.726562 266.035156 C 100.671875 266.800781 102.34375 267.976562 103.738281 269.554688 C 105.136719 271.136719 105.839844 273.265625 105.839844 275.941406 C 105.839844 278.171875 105.230469 280.207031 104.015625 282.046875 C 102.800781 283.890625 100.957031 285.347656 98.480469 286.417969 C 96.015625 287.496094 92.976562 288.03125 89.367188 288.03125 Z M 89.367188 288.03125 " fill-opacity="1" fill-rule="nonzero"/><path fill="#000000" d="M 143.882812 255.332031 L 143.882812 287.546875 L 138.355469 287.546875 L 138.355469 282.683594 C 137.179688 284.347656 135.628906 285.636719 133.703125 286.550781 C 131.78125 287.460938 129.683594 287.914062 127.417969 287.914062 C 123.121094 287.914062 119.730469 286.730469 117.257812 284.359375 C 114.789062 281.988281 113.554688 278.496094 113.554688 273.871094 L 113.554688 255.332031 L 119.390625 255.332031 L 119.390625 273.203125 C 119.390625 276.324219 120.140625 278.6875 121.640625 280.289062 C 123.136719 281.886719 125.285156 282.683594 128.082031 282.683594 C 131.160156 282.683594 133.589844 281.753906 135.371094 279.886719 C 137.160156 278.023438 138.054688 275.394531 138.054688 271.992188 L 138.054688 255.332031 Z M 143.882812 255.332031 " fill-opacity="1" fill-rule="nonzero"/><path fill="#000000" d="M 172.207031 255.03125 C 176.300781 255.03125 179.550781 256.214844 181.960938 258.585938 C 184.367188 260.957031 185.574219 264.429688 185.574219 269.007812 L 185.574219 287.546875 L 179.746094 287.546875 L 179.746094 269.679688 C 179.746094 266.5625 178.992188 264.214844 177.488281 262.632812 C 175.988281 261.054688 173.84375 260.261719 171.046875 260.261719 C 167.886719 260.261719 165.394531 261.183594 163.566406 263.023438 C 161.746094 264.867188 160.835938 267.511719 160.835938 270.953125 L 160.835938 287.546875 L 155.007812 287.546875 L 155.007812 255.332031 L 160.601562 255.332031 L 160.601562 260.195312 C 161.773438 258.535156 163.359375 257.261719 165.367188 256.371094 C 167.371094 255.476562 169.652344 255.03125 172.207031 255.03125 Z M 172.207031 255.03125 " fill-opacity="1" fill-rule="nonzero"/><path fill="#000000" d="M 226.960938 242.449219 L 226.960938 287.546875 L 221.371094 287.546875 L 221.371094 282.4375 C 220.074219 284.226562 218.433594 285.585938 216.449219 286.519531 C 214.464844 287.449219 212.277344 287.914062 209.886719 287.914062 C 206.761719 287.914062 203.964844 287.226562 201.492188 285.847656 C 199.023438 284.46875 197.085938 282.535156 195.6875 280.042969 C 194.292969 277.554688 193.59375 274.6875 193.59375 271.445312 C 193.59375 268.203125 194.292969 265.347656 195.6875 262.878906 C 197.085938 260.40625 199.023438 258.476562 201.492188 257.097656 C 203.964844 255.722656 206.761719 255.03125 209.886719 255.03125 C 212.195312 255.03125 214.320312 255.46875 216.261719 256.339844 C 218.207031 257.210938 219.828125 258.496094 221.125 260.195312 L 221.125 242.449219 Z M 210.367188 282.808594 C 212.394531 282.808594 214.238281 282.332031 215.902344 281.382812 C 217.5625 280.433594 218.859375 279.09375 219.792969 277.371094 C 220.726562 275.648438 221.191406 273.675781 221.191406 271.445312 C 221.191406 269.21875 220.726562 267.242188 219.792969 265.519531 C 218.859375 263.796875 217.5625 262.46875 215.902344 261.539062 C 214.238281 260.605469 212.394531 260.140625 210.367188 260.140625 C 208.300781 260.140625 206.449219 260.605469 204.808594 261.539062 C 203.167969 262.46875 201.871094 263.796875 200.917969 265.519531 C 199.964844 267.242188 199.488281 269.21875 199.488281 271.445312 C 199.488281 273.675781 199.964844 275.648438 200.917969 277.371094 C 201.871094 279.09375 203.167969 280.433594 204.808594 281.382812 C 206.449219 282.332031 208.300781 282.808594 210.367188 282.808594 Z M 210.367188 282.808594 " fill-opacity="1" fill-rule="nonzero"/><path fill="#000000" d="M 249.753906 255.03125 C 254.207031 255.03125 257.617188 256.125 259.988281 258.316406 C 262.359375 260.503906 263.546875 263.765625 263.546875 268.101562 L 263.546875 287.546875 L 258.019531 287.546875 L 258.019531 283.296875 C 257.042969 284.796875 255.652344 285.941406 253.851562 286.730469 C 252.050781 287.519531 249.914062 287.914062 247.441406 287.914062 C 243.832031 287.914062 240.945312 287.046875 238.777344 285.300781 C 236.613281 283.558594 235.53125 281.269531 235.53125 278.433594 C 235.53125 275.59375 236.5625 273.316406 238.628906 271.589844 C 240.695312 269.871094 243.976562 269.007812 248.472656 269.007812 L 257.71875 269.007812 L 257.71875 267.855469 C 257.71875 265.34375 256.984375 263.421875 255.527344 262.085938 C 254.066406 260.746094 251.917969 260.074219 249.085938 260.074219 C 247.175781 260.074219 245.3125 260.390625 243.484375 261.023438 C 241.664062 261.648438 240.128906 262.488281 238.875 263.539062 L 236.441406 259.167969 C 238.101562 257.832031 240.085938 256.8125 242.398438 256.101562 C 244.707031 255.386719 247.160156 255.03125 249.753906 255.03125 Z M 248.414062 283.410156 C 250.640625 283.410156 252.566406 282.917969 254.1875 281.925781 C 255.808594 280.933594 256.984375 279.527344 257.71875 277.707031 L 257.71875 273.203125 L 248.71875 273.203125 C 243.773438 273.203125 241.304688 274.867188 241.304688 278.1875 C 241.304688 279.808594 241.929688 281.082031 243.183594 282.015625 C 244.441406 282.945312 246.183594 283.410156 248.414062 283.410156 Z M 248.414062 283.410156 " fill-opacity="1" fill-rule="nonzero"/><path fill="#000000" d="M 302.261719 255.332031 L 286.640625 290.769531 C 285.261719 294.046875 283.652344 296.355469 281.804688 297.691406 C 279.960938 299.03125 277.746094 299.703125 275.15625 299.703125 C 273.574219 299.703125 272.046875 299.449219 270.5625 298.941406 C 269.085938 298.4375 267.863281 297.695312 266.886719 296.726562 L 269.378906 292.347656 C 271.039062 293.925781 272.96875 294.714844 275.15625 294.714844 C 276.574219 294.714844 277.757812 294.339844 278.707031 293.589844 C 279.65625 292.839844 280.523438 291.558594 281.296875 289.738281 L 282.328125 287.492188 L 268.101562 255.332031 L 274.183594 255.332031 L 285.425781 281.105469 L 296.550781 255.332031 Z M 302.261719 255.332031 " fill-opacity="1" fill-rule="nonzero"/><path fill="#000000" d="M 120.34375 96.96875 L 120.3125 81.429688 L 112.613281 94.285156 L 110.667969 94.285156 L 102.96875 81.632812 L 102.96875 96.96875 L 98.816406 96.96875 L 98.816406 73.53125 L 102.394531 73.53125 L 111.707031 89.0625 L 120.84375 73.53125 L 124.425781 73.53125 L 124.464844 96.96875 Z M 120.34375 96.96875 " fill-opacity="1" fill-rule="nonzero"/><path fill="#000000" d="M 279.238281 73.53125 L 271.472656 96.96875 L 266.851562 96.96875 L 261.058594 79.621094 L 255.164062 96.96875 L 250.511719 96.96875 L 242.746094 73.53125 L 247.269531 73.53125 L 253.085938 91.34375 L 259.152344 73.53125 L 263.167969 73.53125 L 269.09375 91.441406 L 275.085938 73.53125 Z M 279.238281 73.53125 " fill-opacity="1" fill-rule="nonzero"/><path fill="#000000" d="M 173.003906 76.859375 L 165.230469 76.859375 L 165.230469 73.179688 L 185.117188 73.179688 L 185.117188 76.859375 L 177.351562 76.859375 L 177.351562 96.613281 L 173.003906 96.613281 Z M 173.003906 76.859375 " fill-opacity="1" fill-rule="nonzero"/><path fill="#000000" d="M 204.871094 78.738281 L 204.871094 96.613281 L 200.890625 96.613281 L 200.890625 94.335938 C 200.21875 95.140625 199.382812 95.761719 198.378906 96.199219 C 197.375 96.632812 196.296875 96.851562 195.132812 96.851562 C 192.742188 96.851562 190.859375 96.1875 189.484375 94.855469 C 188.113281 93.527344 187.425781 91.558594 187.425781 88.949219 L 187.425781 78.738281 L 191.613281 78.738281 L 191.613281 88.375 C 191.613281 89.984375 191.972656 91.183594 192.699219 91.980469 C 193.429688 92.769531 194.460938 93.164062 195.796875 93.164062 C 197.292969 93.164062 198.484375 92.703125 199.367188 91.777344 C 200.25 90.851562 200.691406 89.515625 200.691406 87.777344 L 200.691406 78.738281 Z M 204.871094 78.738281 " fill-opacity="1" fill-rule="nonzero"/><g clip-path="url(#b5bdf92776)"><g clip-path="url(#b19edb81f4)"><g clip-path="url(#bfbe3fe420)"><path fill="#d9d9d9" d="M 154.140625 133.980469 L 218.277344 133.980469 L 218.277344 198.117188 L 154.140625 198.117188 Z M 154.140625 133.980469 " fill-opacity="1" fill-rule="nonzero"/></g></g></g><g clip-path="url(#127361682c)"><g clip-path="url(#411ded9508)"><path stroke-linecap="butt" transform="matrix(0.392361, 0, 0, 0.392361, 154.139262, 133.979698)" fill="none" stroke-linejoin="miter" d="M 50.00126 0.00196336 L 113.459223 0.00196336 C 141.066523 0.00196336 163.45701 22.382492 163.45701 49.999746 L 163.45701 113.457705 C 163.45701 141.065004 141.066523 163.455488 113.459223 163.455488 L 50.00126 163.455488 C 22.384003 163.455488 0.00347288 141.065004 0.00347288 113.457705 L 0.00347288 49.999746 C 0.00347288 22.382492 22.384003 0.00196336 50.00126 0.00196336 Z M 50.00126 0.00196336 " stroke="#000000" stroke-width="20" stroke-opacity="1" stroke-miterlimit="4"/></g></g><g clip-path="url(#0e9a0f1ce8)"><g clip-path="url(#effe35665f)"><g clip-path="url(#3eea1926ea)"><path fill="#d9d9d9" d="M 79.355469 133.980469 L 143.488281 133.980469 L 143.488281 198.117188 L 79.355469 198.117188 Z M 79.355469 133.980469 " fill-opacity="1" fill-rule="nonzero"/></g></g></g><g clip-path="url(#727ee78dbc)"><g clip-path="url(#c62a16060f)"><path stroke-linecap="butt" transform="matrix(0.392361, 0, 0, 0.392361, 79.35429, 133.979698)" fill="none" stroke-linejoin="miter" d="M 50.00079 0.00196336 L 113.458753 0.00196336 C 141.066054 0.00196336 163.45654 22.382492 163.45654 49.999746 L 163.45654 113.457705 C 163.45654 141.065004 141.066054 163.455488 113.458753 163.455488 L 50.00079 163.455488 C 22.383534 163.455488 0.003003 141.065004 0.003003 113.457705 L 0.003003 49.999746 C 0.003003 22.382492 22.383534 0.00196336 50.00079 0.00196336 Z M 50.00079 0.00196336 " stroke="#000000" stroke-width="20" stroke-opacity="1" stroke-miterlimit="4"/></g></g><g clip-path="url(#6d71590d32)"><g clip-path="url(#349c08185a)"><g clip-path="url(#2d2e47b416)"><path fill="#d9d9d9" d="M 228.925781 133.980469 L 293.0625 133.980469 L 293.0625 198.117188 L 228.925781 198.117188 Z M 228.925781 133.980469 " fill-opacity="1" fill-rule="nonzero"/></g></g></g><g clip-path="url(#5f297fda57)"><g clip-path="url(#4dbda23857)"><path stroke-linecap="butt" transform="matrix(0.392361, 0, 0, 0.392361, 228.924174, 133.979698)" fill="none" stroke-linejoin="miter" d="M 49.991927 0.00196336 L 113.44989 0.00196336 C 141.067146 0.00196336 163.457633 22.382492 163.457633 49.999746 L 163.457633 113.457705 C 163.457633 141.065004 141.067146 163.455488 113.44989 163.455488 L 49.991927 163.455488 C 22.384626 163.455488 0.00409567 141.065004 0.00409567 113.457705 L 0.00409567 49.999746 C 0.00409567 22.382492 22.384626 0.00196336 49.991927 0.00196336 Z M 49.991927 0.00196336 " stroke="#000000" stroke-width="20" stroke-opacity="1" stroke-miterlimit="4"/></g></g><path fill="#000000" d="M 183.222656 157.832031 L 183.222656 164.96875 L 194.539062 164.96875 L 194.539062 168.648438 L 183.222656 168.648438 L 183.222656 177.621094 L 178.867188 177.621094 L 178.867188 154.1875 L 195.976562 154.1875 L 195.976562 157.832031 Z M 183.222656 157.832031 " fill-opacity="1" fill-rule="nonzero"/><path fill="#000000" d="M 97.78125 157.867188 L 90.007812 157.867188 L 90.007812 154.1875 L 109.894531 154.1875 L 109.894531 157.867188 L 102.132812 157.867188 L 102.132812 177.621094 L 97.78125 177.621094 Z M 97.78125 157.867188 " fill-opacity="1" fill-rule="nonzero"/><path fill="#000000" d="M 122.921875 159.542969 C 125.179688 159.542969 126.984375 160.203125 128.34375 161.519531 C 129.703125 162.832031 130.386719 164.785156 130.386719 167.378906 L 130.386719 177.621094 L 126.199219 177.621094 L 126.199219 167.910156 C 126.199219 166.347656 125.832031 165.171875 125.097656 164.378906 C 124.363281 163.589844 123.3125 163.195312 121.949219 163.195312 C 120.414062 163.195312 119.199219 163.660156 118.304688 164.585938 C 117.410156 165.511719 116.964844 166.84375 116.964844 168.582031 L 116.964844 177.621094 L 112.777344 177.621094 L 112.777344 152.78125 L 116.964844 152.78125 L 116.964844 161.820312 C 117.65625 161.085938 118.507812 160.523438 119.523438 160.128906 C 120.539062 159.738281 121.675781 159.542969 122.921875 159.542969 Z M 122.921875 159.542969 " fill-opacity="1" fill-rule="nonzero"/><path fill="#000000" d="M 250.867188 177.957031 C 249.058594 177.957031 247.3125 177.699219 245.628906 177.1875 C 243.945312 176.679688 242.609375 175.996094 241.625 175.144531 L 243.136719 171.761719 C 244.09375 172.519531 245.269531 173.140625 246.667969 173.625 C 248.058594 174.105469 249.460938 174.34375 250.867188 174.34375 C 252.605469 174.34375 253.90625 174.066406 254.765625 173.511719 C 255.628906 172.949219 256.058594 172.210938 256.058594 171.296875 C 256.058594 170.625 255.816406 170.074219 255.339844 169.636719 C 254.859375 169.199219 254.25 168.859375 253.507812 168.613281 C 252.773438 168.371094 251.769531 168.089844 250.5 167.78125 C 248.710938 167.355469 247.265625 166.929688 246.160156 166.503906 C 245.058594 166.082031 244.109375 165.417969 243.316406 164.519531 C 242.523438 163.617188 242.128906 162.390625 242.128906 160.847656 C 242.128906 159.554688 242.480469 158.375 243.183594 157.316406 C 243.886719 156.253906 244.945312 155.414062 246.363281 154.792969 C 247.78125 154.167969 249.515625 153.851562 251.570312 153.851562 C 252.996094 153.851562 254.402344 154.03125 255.789062 154.390625 C 257.171875 154.746094 258.367188 155.257812 259.371094 155.929688 L 257.996094 159.304688 C 256.96875 158.707031 255.898438 158.25 254.785156 157.9375 C 253.664062 157.625 252.585938 157.464844 251.539062 157.464844 C 249.816406 157.464844 248.535156 157.757812 247.695312 158.339844 C 246.863281 158.917969 246.445312 159.6875 246.445312 160.644531 C 246.445312 161.316406 246.683594 161.863281 247.164062 162.289062 C 247.644531 162.710938 248.253906 163.046875 248.988281 163.292969 C 249.726562 163.539062 250.734375 163.816406 252.003906 164.125 C 253.746094 164.53125 255.175781 164.949219 256.289062 165.386719 C 257.402344 165.824219 258.359375 166.488281 259.148438 167.378906 C 259.945312 168.269531 260.34375 169.472656 260.34375 170.992188 C 260.34375 172.289062 259.992188 173.464844 259.289062 174.515625 C 258.585938 175.5625 257.519531 176.402344 256.089844 177.027344 C 254.664062 177.648438 252.921875 177.957031 250.867188 177.957031 Z M 250.867188 177.957031 " fill-opacity="1" fill-rule="nonzero"/><path fill="#000000" d="M 271.085938 159.542969 C 273.722656 159.542969 275.738281 160.175781 277.132812 161.4375 C 278.527344 162.695312 279.226562 164.597656 279.226562 167.144531 L 279.226562 177.621094 L 275.269531 177.621094 L 275.269531 175.449219 C 274.757812 176.230469 274.027344 176.824219 273.078125 177.238281 C 272.132812 177.652344 270.988281 177.859375 269.644531 177.859375 C 268.308594 177.859375 267.140625 177.628906 266.132812 177.171875 C 265.128906 176.714844 264.351562 176.082031 263.800781 175.269531 C 263.257812 174.449219 262.984375 173.527344 262.984375 172.496094 C 262.984375 170.890625 263.582031 169.601562 264.773438 168.628906 C 265.96875 167.664062 267.851562 167.175781 270.421875 167.175781 L 275.042969 167.175781 L 275.042969 166.90625 C 275.042969 165.660156 274.664062 164.699219 273.914062 164.027344 C 273.164062 163.359375 272.058594 163.023438 270.585938 163.023438 C 269.582031 163.023438 268.59375 163.183594 267.617188 163.496094 C 266.648438 163.808594 265.828125 164.242188 265.160156 164.796875 L 263.523438 161.75 C 264.460938 161.035156 265.585938 160.488281 266.898438 160.113281 C 268.21875 159.734375 269.613281 159.542969 271.085938 159.542969 Z M 270.519531 174.808594 C 271.566406 174.808594 272.496094 174.570312 273.308594 174.089844 C 274.125 173.613281 274.703125 172.925781 275.042969 172.03125 L 275.042969 169.953125 L 270.71875 169.953125 C 268.308594 169.953125 267.105469 170.746094 267.105469 172.332031 C 267.105469 173.09375 267.402344 173.695312 268.003906 174.140625 C 268.609375 174.585938 269.445312 174.808594 270.519531 174.808594 Z M 270.519531 174.808594 " fill-opacity="1" fill-rule="nonzero"/></svg>