<svg xmlns="http://www.w3.org/2000/svg" xmlns:xlink="http://www.w3.org/1999/xlink" width="500" zoomAndPan="magnify" viewBox="0 0 375 374.999991" height="500" preserveAspectRatio="xMidYMid meet" version="1.0"><defs><g/><clipPath id="e1db899cea"><path d="M 157.011719 132.167969 L 219.84375 132.167969 L 219.84375 195 L 157.011719 195 Z M 157.011719 132.167969 " clip-rule="nonzero"/></clipPath><clipPath id="b0a3fd6fbc"><path d="M 174.261719 132.167969 L 202.59375 132.167969 C 207.167969 132.167969 211.554688 133.988281 214.789062 137.222656 C 218.023438 140.457031 219.84375 144.84375 219.84375 149.417969 L 219.84375 177.75 C 219.84375 182.324219 218.023438 186.710938 214.789062 189.949219 C 211.554688 193.183594 207.167969 195 202.59375 195 L 174.261719 195 C 169.6875 195 165.300781 193.183594 162.0625 189.949219 C 158.828125 186.710938 157.011719 182.324219 157.011719 177.75 L 157.011719 149.417969 C 157.011719 144.84375 158.828125 140.457031 162.0625 137.222656 C 165.300781 133.988281 169.6875 132.167969 174.261719 132.167969 Z M 174.261719 132.167969 " clip-rule="nonzero"/></clipPath><clipPath id="7bfae0fff8"><path d="M 0.0117188 0.167969 L 62.84375 0.167969 L 62.84375 63 L 0.0117188 63 Z M 0.0117188 0.167969 " clip-rule="nonzero"/></clipPath><clipPath id="b441277ad7"><path d="M 17.261719 0.167969 L 45.59375 0.167969 C 50.167969 0.167969 54.554688 1.988281 57.789062 5.222656 C 61.023438 8.457031 62.84375 12.84375 62.84375 17.417969 L 62.84375 45.75 C 62.84375 50.324219 61.023438 54.710938 57.789062 57.949219 C 54.554688 61.183594 50.167969 63 45.59375 63 L 17.261719 63 C 12.6875 63 8.300781 61.183594 5.0625 57.949219 C 1.828125 54.710938 0.0117188 50.324219 0.0117188 45.75 L 0.0117188 17.417969 C 0.0117188 12.84375 1.828125 8.457031 5.0625 5.222656 C 8.300781 1.988281 12.6875 0.167969 17.261719 0.167969 Z M 17.261719 0.167969 " clip-rule="nonzero"/></clipPath><clipPath id="cb71cc5d14"><rect x="0" width="63" y="0" height="63"/></clipPath><clipPath id="e4853e9343"><path d="M 157.011719 132.167969 L 220 132.167969 L 220 195 L 157.011719 195 Z M 157.011719 132.167969 " clip-rule="nonzero"/></clipPath><clipPath id="43572e1699"><path d="M 174.257812 132.167969 L 202.585938 132.167969 C 207.164062 132.167969 211.550781 133.984375 214.785156 137.222656 C 218.019531 140.457031 219.835938 144.84375 219.835938 149.417969 L 219.835938 177.746094 C 219.835938 182.320312 218.019531 186.707031 214.785156 189.941406 C 211.550781 193.175781 207.164062 194.992188 202.585938 194.992188 L 174.257812 194.992188 C 169.683594 194.992188 165.296875 193.175781 162.0625 189.941406 C 158.828125 186.707031 157.011719 182.320312 157.011719 177.746094 L 157.011719 149.417969 C 157.011719 144.84375 158.828125 140.457031 162.0625 137.222656 C 165.296875 133.984375 169.683594 132.167969 174.257812 132.167969 Z M 174.257812 132.167969 " clip-rule="nonzero"/></clipPath><clipPath id="e6e7d8e2e7"><path d="M 234.78125 132.167969 L 297.613281 132.167969 L 297.613281 195 L 234.78125 195 Z M 234.78125 132.167969 " clip-rule="nonzero"/></clipPath><clipPath id="184c4ec771"><path d="M 252.03125 132.167969 L 280.363281 132.167969 C 284.9375 132.167969 289.324219 133.988281 292.558594 137.222656 C 295.792969 140.457031 297.613281 144.84375 297.613281 149.417969 L 297.613281 177.75 C 297.613281 182.324219 295.792969 186.710938 292.558594 189.949219 C 289.324219 193.183594 284.9375 195 280.363281 195 L 252.03125 195 C 247.457031 195 243.066406 193.183594 239.832031 189.949219 C 236.597656 186.710938 234.78125 182.324219 234.78125 177.75 L 234.78125 149.417969 C 234.78125 144.84375 236.597656 140.457031 239.832031 137.222656 C 243.066406 133.988281 247.457031 132.167969 252.03125 132.167969 Z M 252.03125 132.167969 " clip-rule="nonzero"/></clipPath><clipPath id="2968b7529d"><path d="M 0.78125 0.167969 L 63.613281 0.167969 L 63.613281 63 L 0.78125 63 Z M 0.78125 0.167969 " clip-rule="nonzero"/></clipPath><clipPath id="a5a9fba415"><path d="M 18.03125 0.167969 L 46.363281 0.167969 C 50.9375 0.167969 55.324219 1.988281 58.558594 5.222656 C 61.792969 8.457031 63.613281 12.84375 63.613281 17.417969 L 63.613281 45.75 C 63.613281 50.324219 61.792969 54.710938 58.558594 57.949219 C 55.324219 61.183594 50.9375 63 46.363281 63 L 18.03125 63 C 13.457031 63 9.066406 61.183594 5.832031 57.949219 C 2.597656 54.710938 0.78125 50.324219 0.78125 45.75 L 0.78125 17.417969 C 0.78125 12.84375 2.597656 8.457031 5.832031 5.222656 C 9.066406 1.988281 13.457031 0.167969 18.03125 0.167969 Z M 18.03125 0.167969 " clip-rule="nonzero"/></clipPath><clipPath id="21ea794ea9"><rect x="0" width="64" y="0" height="63"/></clipPath><clipPath id="906b10622e"><path d="M 234.78125 132.167969 L 297.78125 132.167969 L 297.78125 195 L 234.78125 195 Z M 234.78125 132.167969 " clip-rule="nonzero"/></clipPath><clipPath id="9222d6d3d4"><path d="M 252.027344 132.167969 L 280.355469 132.167969 C 284.929688 132.167969 289.316406 133.984375 292.550781 137.222656 C 295.789062 140.457031 297.605469 144.84375 297.605469 149.417969 L 297.605469 177.746094 C 297.605469 182.320312 295.789062 186.707031 292.550781 189.941406 C 289.316406 193.175781 284.929688 194.992188 280.355469 194.992188 L 252.027344 194.992188 C 247.453125 194.992188 243.066406 193.175781 239.832031 189.941406 C 236.597656 186.707031 234.78125 182.320312 234.78125 177.746094 L 234.78125 149.417969 C 234.78125 144.84375 236.597656 140.457031 239.832031 137.222656 C 243.066406 133.984375 247.453125 132.167969 252.027344 132.167969 Z M 252.027344 132.167969 " clip-rule="nonzero"/></clipPath><clipPath id="8ecdb7e05d"><path d="M 154.707031 56.886719 L 217.539062 56.886719 L 217.539062 119.71875 L 154.707031 119.71875 Z M 154.707031 56.886719 " clip-rule="nonzero"/></clipPath><clipPath id="b1dbb053cf"><path d="M 171.957031 56.886719 L 200.289062 56.886719 C 204.863281 56.886719 209.253906 58.703125 212.488281 61.9375 C 215.722656 65.171875 217.539062 69.5625 217.539062 74.136719 L 217.539062 102.46875 C 217.539062 107.042969 215.722656 111.429688 212.488281 114.664062 C 209.253906 117.898438 204.863281 119.71875 200.289062 119.71875 L 171.957031 119.71875 C 167.382812 119.71875 162.996094 117.898438 159.761719 114.664062 C 156.527344 111.429688 154.707031 107.042969 154.707031 102.46875 L 154.707031 74.136719 C 154.707031 69.5625 156.527344 65.171875 159.761719 61.9375 C 162.996094 58.703125 167.382812 56.886719 171.957031 56.886719 Z M 171.957031 56.886719 " clip-rule="nonzero"/></clipPath><clipPath id="100445cb8b"><path d="M 0.707031 0.886719 L 63.539062 0.886719 L 63.539062 63.71875 L 0.707031 63.71875 Z M 0.707031 0.886719 " clip-rule="nonzero"/></clipPath><clipPath id="56241637c8"><path d="M 17.957031 0.886719 L 46.289062 0.886719 C 50.863281 0.886719 55.253906 2.703125 58.488281 5.9375 C 61.722656 9.171875 63.539062 13.5625 63.539062 18.136719 L 63.539062 46.46875 C 63.539062 51.042969 61.722656 55.429688 58.488281 58.664062 C 55.253906 61.898438 50.863281 63.71875 46.289062 63.71875 L 17.957031 63.71875 C 13.382812 63.71875 8.996094 61.898438 5.761719 58.664062 C 2.527344 55.429688 0.707031 51.042969 0.707031 46.46875 L 0.707031 18.136719 C 0.707031 13.5625 2.527344 9.171875 5.761719 5.9375 C 8.996094 2.703125 13.382812 0.886719 17.957031 0.886719 Z M 17.957031 0.886719 " clip-rule="nonzero"/></clipPath><clipPath id="2e619c5bfe"><rect x="0" width="64" y="0" height="64"/></clipPath><clipPath id="eb8db7c643"><path d="M 154.707031 56.886719 L 217.707031 56.886719 L 217.707031 119.886719 L 154.707031 119.886719 Z M 154.707031 56.886719 " clip-rule="nonzero"/></clipPath><clipPath id="db328f0443"><path d="M 171.957031 56.886719 L 200.285156 56.886719 C 204.859375 56.886719 209.246094 58.703125 212.480469 61.9375 C 215.714844 65.171875 217.53125 69.558594 217.53125 74.132812 L 217.53125 102.460938 C 217.53125 107.035156 215.714844 111.421875 212.480469 114.660156 C 209.246094 117.894531 204.859375 119.710938 200.285156 119.710938 L 171.957031 119.710938 C 167.382812 119.710938 162.996094 117.894531 159.761719 114.660156 C 156.527344 111.421875 154.707031 107.035156 154.707031 102.460938 L 154.707031 74.132812 C 154.707031 69.558594 156.527344 65.171875 159.761719 61.9375 C 162.996094 58.703125 167.382812 56.886719 171.957031 56.886719 Z M 171.957031 56.886719 " clip-rule="nonzero"/></clipPath><clipPath id="94fa472146"><path d="M 77.597656 57.636719 L 140.429688 57.636719 L 140.429688 120.46875 L 77.597656 120.46875 Z M 77.597656 57.636719 " clip-rule="nonzero"/></clipPath><clipPath id="afbadf3769"><path d="M 94.847656 57.636719 L 123.179688 57.636719 C 127.753906 57.636719 132.140625 59.453125 135.378906 62.6875 C 138.613281 65.921875 140.429688 70.3125 140.429688 74.886719 L 140.429688 103.21875 C 140.429688 107.792969 138.613281 112.179688 135.378906 115.414062 C 132.140625 118.648438 127.753906 120.46875 123.179688 120.46875 L 94.847656 120.46875 C 90.273438 120.46875 85.886719 118.648438 82.652344 115.414062 C 79.414062 112.179688 77.597656 107.792969 77.597656 103.21875 L 77.597656 74.886719 C 77.597656 70.3125 79.414062 65.921875 82.652344 62.6875 C 85.886719 59.453125 90.273438 57.636719 94.847656 57.636719 Z M 94.847656 57.636719 " clip-rule="nonzero"/></clipPath><clipPath id="3e961637fe"><path d="M 0.597656 0.636719 L 63.429688 0.636719 L 63.429688 63.46875 L 0.597656 63.46875 Z M 0.597656 0.636719 " clip-rule="nonzero"/></clipPath><clipPath id="30ee1742bd"><path d="M 17.847656 0.636719 L 46.179688 0.636719 C 50.753906 0.636719 55.140625 2.453125 58.378906 5.6875 C 61.613281 8.921875 63.429688 13.3125 63.429688 17.886719 L 63.429688 46.21875 C 63.429688 50.792969 61.613281 55.179688 58.378906 58.414062 C 55.140625 61.648438 50.753906 63.46875 46.179688 63.46875 L 17.847656 63.46875 C 13.273438 63.46875 8.886719 61.648438 5.652344 58.414062 C 2.414062 55.179688 0.597656 50.792969 0.597656 46.21875 L 0.597656 17.886719 C 0.597656 13.3125 2.414062 8.921875 5.652344 5.6875 C 8.886719 2.453125 13.273438 0.636719 17.847656 0.636719 Z M 17.847656 0.636719 " clip-rule="nonzero"/></clipPath><clipPath id="2976a0f488"><rect x="0" width="64" y="0" height="64"/></clipPath><clipPath id="ee04fffc2c"><path d="M 77.597656 57.636719 L 140.597656 57.636719 L 140.597656 120.636719 L 77.597656 120.636719 Z M 77.597656 57.636719 " clip-rule="nonzero"/></clipPath><clipPath id="5a0cdf07af"><path d="M 94.847656 57.636719 L 123.175781 57.636719 C 127.75 57.636719 132.136719 59.453125 135.371094 62.6875 C 138.605469 65.921875 140.421875 70.308594 140.421875 74.882812 L 140.421875 103.210938 C 140.421875 107.785156 138.605469 112.171875 135.371094 115.410156 C 132.136719 118.644531 127.75 120.460938 123.175781 120.460938 L 94.847656 120.460938 C 90.273438 120.460938 85.886719 118.644531 82.652344 115.410156 C 79.414062 112.171875 77.597656 107.785156 77.597656 103.210938 L 77.597656 74.882812 C 77.597656 70.308594 79.414062 65.921875 82.652344 62.6875 C 85.886719 59.453125 90.273438 57.636719 94.847656 57.636719 Z M 94.847656 57.636719 " clip-rule="nonzero"/></clipPath><clipPath id="3832c203d1"><path d="M 234.585938 57.636719 L 297.417969 57.636719 L 297.417969 120.46875 L 234.585938 120.46875 Z M 234.585938 57.636719 " clip-rule="nonzero"/></clipPath><clipPath id="563a179026"><path d="M 251.835938 57.636719 L 280.167969 57.636719 C 284.742188 57.636719 289.128906 59.453125 292.363281 62.6875 C 295.601562 65.921875 297.417969 70.3125 297.417969 74.886719 L 297.417969 103.21875 C 297.417969 107.792969 295.601562 112.179688 292.363281 115.414062 C 289.128906 118.648438 284.742188 120.46875 280.167969 120.46875 L 251.835938 120.46875 C 247.261719 120.46875 242.875 118.648438 239.636719 115.414062 C 236.402344 112.179688 234.585938 107.792969 234.585938 103.21875 L 234.585938 74.886719 C 234.585938 70.3125 236.402344 65.921875 239.636719 62.6875 C 242.875 59.453125 247.261719 57.636719 251.835938 57.636719 Z M 251.835938 57.636719 " clip-rule="nonzero"/></clipPath><clipPath id="073823fadb"><path d="M 0.585938 0.636719 L 63.417969 0.636719 L 63.417969 63.46875 L 0.585938 63.46875 Z M 0.585938 0.636719 " clip-rule="nonzero"/></clipPath><clipPath id="05332d9a23"><path d="M 17.835938 0.636719 L 46.167969 0.636719 C 50.742188 0.636719 55.128906 2.453125 58.363281 5.6875 C 61.601562 8.921875 63.417969 13.3125 63.417969 17.886719 L 63.417969 46.21875 C 63.417969 50.792969 61.601562 55.179688 58.363281 58.414062 C 55.128906 61.648438 50.742188 63.46875 46.167969 63.46875 L 17.835938 63.46875 C 13.261719 63.46875 8.875 61.648438 5.636719 58.414062 C 2.402344 55.179688 0.585938 50.792969 0.585938 46.21875 L 0.585938 17.886719 C 0.585938 13.3125 2.402344 8.921875 5.636719 5.6875 C 8.875 2.453125 13.261719 0.636719 17.835938 0.636719 Z M 17.835938 0.636719 " clip-rule="nonzero"/></clipPath><clipPath id="7e2d60de93"><rect x="0" width="64" y="0" height="64"/></clipPath><clipPath id="b5b81ee592"><path d="M 234.585938 57.636719 L 297.585938 57.636719 L 297.585938 120.636719 L 234.585938 120.636719 Z M 234.585938 57.636719 " clip-rule="nonzero"/></clipPath><clipPath id="f249cf7945"><path d="M 251.835938 57.636719 L 280.164062 57.636719 C 284.738281 57.636719 289.125 59.453125 292.359375 62.6875 C 295.59375 65.921875 297.410156 70.308594 297.410156 74.882812 L 297.410156 103.210938 C 297.410156 107.785156 295.59375 112.171875 292.359375 115.410156 C 289.125 118.644531 284.738281 120.460938 280.164062 120.460938 L 251.835938 120.460938 C 247.257812 120.460938 242.871094 118.644531 239.636719 115.410156 C 236.402344 112.171875 234.585938 107.785156 234.585938 103.210938 L 234.585938 74.882812 C 234.585938 70.308594 236.402344 65.921875 239.636719 62.6875 C 242.871094 59.453125 247.257812 57.636719 251.835938 57.636719 Z M 251.835938 57.636719 " clip-rule="nonzero"/></clipPath><clipPath id="430b29c3f9"><path d="M 77.195312 131.207031 L 140.023438 131.207031 L 140.023438 194.039062 L 77.195312 194.039062 Z M 77.195312 131.207031 " clip-rule="nonzero"/></clipPath><clipPath id="0905cea6c7"><path d="M 94.445312 131.207031 L 122.773438 131.207031 C 127.351562 131.207031 131.738281 133.027344 134.972656 136.261719 C 138.207031 139.496094 140.023438 143.882812 140.023438 148.457031 L 140.023438 176.789062 C 140.023438 181.363281 138.207031 185.753906 134.972656 188.988281 C 131.738281 192.222656 127.351562 194.039062 122.773438 194.039062 L 94.445312 194.039062 C 89.871094 194.039062 85.480469 192.222656 82.246094 188.988281 C 79.011719 185.753906 77.195312 181.363281 77.195312 176.789062 L 77.195312 148.457031 C 77.195312 143.882812 79.011719 139.496094 82.246094 136.261719 C 85.480469 133.027344 89.871094 131.207031 94.445312 131.207031 Z M 94.445312 131.207031 " clip-rule="nonzero"/></clipPath><clipPath id="3f22a8ba47"><path d="M 0.195312 0.207031 L 63.023438 0.207031 L 63.023438 63.039062 L 0.195312 63.039062 Z M 0.195312 0.207031 " clip-rule="nonzero"/></clipPath><clipPath id="d28fef88f7"><path d="M 17.445312 0.207031 L 45.773438 0.207031 C 50.351562 0.207031 54.738281 2.027344 57.972656 5.261719 C 61.207031 8.496094 63.023438 12.882812 63.023438 17.457031 L 63.023438 45.789062 C 63.023438 50.363281 61.207031 54.753906 57.972656 57.988281 C 54.738281 61.222656 50.351562 63.039062 45.773438 63.039062 L 17.445312 63.039062 C 12.871094 63.039062 8.480469 61.222656 5.246094 57.988281 C 2.011719 54.753906 0.195312 50.363281 0.195312 45.789062 L 0.195312 17.457031 C 0.195312 12.882812 2.011719 8.496094 5.246094 5.261719 C 8.480469 2.027344 12.871094 0.207031 17.445312 0.207031 Z M 17.445312 0.207031 " clip-rule="nonzero"/></clipPath><clipPath id="f7b76849bb"><rect x="0" width="64" y="0" height="64"/></clipPath><clipPath id="b55d396698"><path d="M 77.195312 131.207031 L 140.195312 131.207031 L 140.195312 194.207031 L 77.195312 194.207031 Z M 77.195312 131.207031 " clip-rule="nonzero"/></clipPath><clipPath id="2d5ef85785"><path d="M 94.441406 131.207031 L 122.769531 131.207031 C 127.34375 131.207031 131.730469 133.027344 134.964844 136.261719 C 138.203125 139.496094 140.019531 143.882812 140.019531 148.457031 L 140.019531 176.785156 C 140.019531 181.359375 138.203125 185.746094 134.964844 188.980469 C 131.730469 192.214844 127.34375 194.03125 122.769531 194.03125 L 94.441406 194.03125 C 89.867188 194.03125 85.480469 192.214844 82.246094 188.980469 C 79.011719 185.746094 77.195312 181.359375 77.195312 176.785156 L 77.195312 148.457031 C 77.195312 143.882812 79.011719 139.496094 82.246094 136.261719 C 85.480469 133.027344 89.867188 131.207031 94.441406 131.207031 Z M 94.441406 131.207031 " clip-rule="nonzero"/></clipPath><clipPath id="54a9547cac"><path d="M 38.425781 222 L 338.445312 222 L 338.445312 322.925781 L 38.425781 322.925781 Z M 38.425781 222 " clip-rule="nonzero"/></clipPath><clipPath id="d4cc8ecda3"><path d="M 55.675781 222 L 321.175781 222 C 325.753906 222 330.140625 223.816406 333.375 227.050781 C 336.609375 230.289062 338.425781 234.675781 338.425781 239.25 L 338.425781 305.675781 C 338.425781 310.25 336.609375 314.640625 333.375 317.875 C 330.140625 321.109375 325.753906 322.925781 321.175781 322.925781 L 55.675781 322.925781 C 51.101562 322.925781 46.714844 321.109375 43.480469 317.875 C 40.246094 314.640625 38.425781 310.25 38.425781 305.675781 L 38.425781 239.25 C 38.425781 234.675781 40.246094 230.289062 43.480469 227.050781 C 46.714844 223.816406 51.101562 222 55.675781 222 Z M 55.675781 222 " clip-rule="nonzero"/></clipPath><clipPath id="606edc4cc3"><path d="M 0.425781 0 L 300.445312 0 L 300.445312 100.925781 L 0.425781 100.925781 Z M 0.425781 0 " clip-rule="nonzero"/></clipPath><clipPath id="8225a6da76"><path d="M 17.675781 0 L 283.175781 0 C 287.753906 0 292.140625 1.816406 295.375 5.050781 C 298.609375 8.289062 300.425781 12.675781 300.425781 17.25 L 300.425781 83.675781 C 300.425781 88.25 298.609375 92.640625 295.375 95.875 C 292.140625 99.109375 287.753906 100.925781 283.175781 100.925781 L 17.675781 100.925781 C 13.101562 100.925781 8.714844 99.109375 5.480469 95.875 C 2.246094 92.640625 0.425781 88.25 0.425781 83.675781 L 0.425781 17.25 C 0.425781 12.675781 2.246094 8.289062 5.480469 5.050781 C 8.714844 1.816406 13.101562 0 17.675781 0 Z M 17.675781 0 " clip-rule="nonzero"/></clipPath><clipPath id="2861c19217"><rect x="0" width="301" y="0" height="101"/></clipPath><clipPath id="ee0ee2d256"><path d="M 38.433594 222 L 338.425781 222 L 338.425781 323 L 38.433594 323 Z M 38.433594 222 " clip-rule="nonzero"/></clipPath><clipPath id="ba7be75541"><path d="M 55.683594 222 L 321.171875 222 C 325.746094 222 330.132812 223.816406 333.367188 227.050781 C 336.605469 230.289062 338.421875 234.675781 338.421875 239.25 L 338.421875 305.671875 C 338.421875 310.246094 336.605469 314.636719 333.367188 317.871094 C 330.132812 321.105469 325.746094 322.921875 321.171875 322.921875 L 55.683594 322.921875 C 51.109375 322.921875 46.71875 321.105469 43.484375 317.871094 C 40.25 314.636719 38.433594 310.246094 38.433594 305.671875 L 38.433594 239.25 C 38.433594 234.675781 40.25 230.289062 43.484375 227.050781 C 46.71875 223.816406 51.109375 222 55.683594 222 Z M 55.683594 222 " clip-rule="nonzero"/></clipPath><clipPath id="55717394c7"><path d="M 139.957031 223.445312 L 237.992188 223.445312 L 237.992188 321.480469 L 139.957031 321.480469 Z M 139.957031 223.445312 " clip-rule="nonzero"/></clipPath><clipPath id="23f36a1c6b"><path d="M 188.972656 223.445312 C 161.902344 223.445312 139.957031 245.390625 139.957031 272.464844 C 139.957031 299.535156 161.902344 321.480469 188.972656 321.480469 C 216.046875 321.480469 237.992188 299.535156 237.992188 272.464844 C 237.992188 245.390625 216.046875 223.445312 188.972656 223.445312 Z M 188.972656 223.445312 " clip-rule="nonzero"/></clipPath><clipPath id="9b7ef1e428"><path d="M 0.957031 0.445312 L 98.992188 0.445312 L 98.992188 98.480469 L 0.957031 98.480469 Z M 0.957031 0.445312 " clip-rule="nonzero"/></clipPath><clipPath id="d6a393d444"><path d="M 49.972656 0.445312 C 22.902344 0.445312 0.957031 22.390625 0.957031 49.464844 C 0.957031 76.535156 22.902344 98.480469 49.972656 98.480469 C 77.046875 98.480469 98.992188 76.535156 98.992188 49.464844 C 98.992188 22.390625 77.046875 0.445312 49.972656 0.445312 Z M 49.972656 0.445312 " clip-rule="nonzero"/></clipPath><clipPath id="84753412bf"><rect x="0" width="99" y="0" height="99"/></clipPath><clipPath id="0606ba049e"><path d="M 256.589844 229.363281 L 333.40625 229.363281 L 333.40625 279.65625 L 256.589844 279.65625 Z M 256.589844 229.363281 " clip-rule="nonzero"/></clipPath><clipPath id="a4e782aada"><path d="M 300.101562 229.363281 C 300.941406 229.363281 301.789062 229.363281 302.628906 229.363281 C 309.316406 230.203125 313.496094 233 315.398438 237.574219 C 326.550781 236.964844 334.660156 245.617188 329.71875 254.105469 C 331.359375 255.890625 332.730469 257.886719 333.226562 260.566406 C 333.226562 261.332031 333.226562 262.097656 333.226562 262.867188 C 331.75 269.683594 325.402344 274.289062 314.980469 273.050781 C 312.300781 276.550781 307.527344 280.054688 300.105469 279.621094 C 296.265625 279.390625 293.597656 278.058594 291.257812 276.441406 C 288.796875 277.785156 286.128906 278.839844 282.277344 278.851562 C 273.363281 278.871094 267.402344 273.691406 267.257812 266.589844 C 261.527344 264.925781 257.644531 261.824219 256.589844 256.519531 C 256.589844 255.75 256.589844 254.980469 256.589844 254.21875 C 257.757812 248.957031 261.425781 245.652344 267.535156 244.253906 C 267.167969 235.378906 279.390625 229.835938 289.433594 233.746094 C 291.824219 231.8125 295.207031 229.703125 300.101562 229.363281 Z M 300.101562 229.363281 " clip-rule="nonzero"/></clipPath><clipPath id="1f70ebd8dc"><path d="M 0.589844 0.363281 L 77.40625 0.363281 L 77.40625 50.65625 L 0.589844 50.65625 Z M 0.589844 0.363281 " clip-rule="nonzero"/></clipPath><clipPath id="8796ab2edf"><path d="M 44.101562 0.363281 C 44.941406 0.363281 45.789062 0.363281 46.628906 0.363281 C 53.316406 1.203125 57.496094 4 59.398438 8.574219 C 70.550781 7.964844 78.660156 16.617188 73.71875 25.105469 C 75.359375 26.890625 76.730469 28.886719 77.226562 31.566406 C 77.226562 32.332031 77.226562 33.097656 77.226562 33.867188 C 75.75 40.683594 69.402344 45.289062 58.980469 44.050781 C 56.300781 47.550781 51.527344 51.054688 44.105469 50.621094 C 40.265625 50.390625 37.597656 49.058594 35.257812 47.441406 C 32.796875 48.785156 30.128906 49.839844 26.277344 49.851562 C 17.363281 49.871094 11.402344 44.691406 11.257812 37.589844 C 5.527344 35.925781 1.644531 32.824219 0.589844 27.519531 C 0.589844 26.75 0.589844 25.980469 0.589844 25.21875 C 1.757812 19.957031 5.425781 16.652344 11.535156 15.253906 C 11.167969 6.378906 23.390625 0.835938 33.433594 4.746094 C 35.824219 2.8125 39.207031 0.703125 44.101562 0.363281 Z M 44.101562 0.363281 " clip-rule="nonzero"/></clipPath><clipPath id="ab887f1def"><rect x="0" width="78" y="0" height="51"/></clipPath><clipPath id="7da4fd2e63"><path d="M 97.84375 260.148438 L 183.332031 260.148438 L 183.332031 316.121094 L 97.84375 316.121094 Z M 97.84375 260.148438 " clip-rule="nonzero"/></clipPath><clipPath id="a726020993"><path d="M 146.269531 260.148438 C 147.207031 260.148438 148.148438 260.148438 149.082031 260.148438 C 156.523438 261.085938 161.175781 264.195312 163.296875 269.289062 C 175.707031 268.609375 184.726562 278.238281 179.230469 287.6875 C 181.058594 289.671875 182.582031 291.894531 183.132812 294.875 C 183.132812 295.730469 183.132812 296.582031 183.132812 297.433594 C 181.492188 305.023438 174.425781 310.148438 162.828125 308.769531 C 159.84375 312.664062 154.535156 316.566406 146.273438 316.082031 C 142 315.824219 139.027344 314.34375 136.425781 312.542969 C 133.6875 314.039062 130.71875 315.214844 126.433594 315.226562 C 116.511719 315.25 109.875 309.484375 109.714844 301.578125 C 103.339844 299.730469 99.019531 296.277344 97.84375 290.371094 C 97.84375 289.515625 97.84375 288.660156 97.84375 287.808594 C 99.140625 281.957031 103.226562 278.28125 110.027344 276.722656 C 109.617188 266.847656 123.21875 260.675781 134.394531 265.027344 C 137.054688 262.875 140.820312 260.527344 146.269531 260.148438 Z M 146.269531 260.148438 " clip-rule="nonzero"/></clipPath><clipPath id="8381282f2f"><path d="M 0.84375 0.148438 L 86.332031 0.148438 L 86.332031 56.121094 L 0.84375 56.121094 Z M 0.84375 0.148438 " clip-rule="nonzero"/></clipPath><clipPath id="e4d0c5a7a5"><path d="M 49.269531 0.148438 C 50.207031 0.148438 51.148438 0.148438 52.082031 0.148438 C 59.523438 1.085938 64.175781 4.195312 66.296875 9.289062 C 78.707031 8.609375 87.726562 18.238281 82.230469 27.6875 C 84.058594 29.671875 85.582031 31.894531 86.132812 34.875 C 86.132812 35.730469 86.132812 36.582031 86.132812 37.433594 C 84.492188 45.023438 77.425781 50.148438 65.828125 48.769531 C 62.84375 52.664062 57.535156 56.566406 49.273438 56.082031 C 45 55.824219 42.027344 54.34375 39.425781 52.542969 C 36.6875 54.039062 33.71875 55.214844 29.433594 55.226562 C 19.511719 55.25 12.875 49.484375 12.714844 41.578125 C 6.339844 39.730469 2.019531 36.277344 0.84375 30.371094 C 0.84375 29.515625 0.84375 28.660156 0.84375 27.808594 C 2.140625 21.957031 6.226562 18.28125 13.027344 16.722656 C 12.617188 6.847656 26.21875 0.675781 37.394531 5.027344 C 40.054688 2.875 43.820312 0.527344 49.269531 0.148438 Z M 49.269531 0.148438 " clip-rule="nonzero"/></clipPath><clipPath id="47b920ca29"><rect x="0" width="87" y="0" height="57"/></clipPath><clipPath id="e76adcab4b"><path d="M 214.207031 260.148438 L 299.695312 260.148438 L 299.695312 316.121094 L 214.207031 316.121094 Z M 214.207031 260.148438 " clip-rule="nonzero"/></clipPath><clipPath id="cac5443eea"><path d="M 262.632812 260.148438 C 263.570312 260.148438 264.511719 260.148438 265.445312 260.148438 C 272.886719 261.085938 277.539062 264.195312 279.660156 269.289062 C 292.070312 268.609375 301.09375 278.238281 295.59375 287.6875 C 297.421875 289.671875 298.949219 291.894531 299.5 294.875 C 299.5 295.730469 299.5 296.582031 299.5 297.433594 C 297.855469 305.023438 290.792969 310.148438 279.191406 308.769531 C 276.207031 312.664062 270.898438 316.566406 262.636719 316.082031 C 258.363281 315.824219 255.394531 314.34375 252.792969 312.542969 C 250.050781 314.039062 247.085938 315.214844 242.796875 315.226562 C 232.875 315.25 226.242188 309.484375 226.078125 301.578125 C 219.703125 299.730469 215.382812 296.277344 214.207031 290.371094 C 214.207031 289.515625 214.207031 288.660156 214.207031 287.808594 C 215.503906 281.957031 219.589844 278.28125 226.390625 276.722656 C 225.980469 266.847656 239.585938 260.675781 250.761719 265.027344 C 253.421875 262.875 257.183594 260.527344 262.632812 260.148438 Z M 262.632812 260.148438 " clip-rule="nonzero"/></clipPath><clipPath id="8435e79908"><path d="M 0.207031 0.148438 L 85.695312 0.148438 L 85.695312 56.121094 L 0.207031 56.121094 Z M 0.207031 0.148438 " clip-rule="nonzero"/></clipPath><clipPath id="8311087345"><path d="M 48.632812 0.148438 C 49.570312 0.148438 50.511719 0.148438 51.445312 0.148438 C 58.886719 1.085938 63.539062 4.195312 65.660156 9.289062 C 78.070312 8.609375 87.09375 18.238281 81.59375 27.6875 C 83.421875 29.671875 84.949219 31.894531 85.5 34.875 C 85.5 35.730469 85.5 36.582031 85.5 37.433594 C 83.855469 45.023438 76.792969 50.148438 65.191406 48.769531 C 62.207031 52.664062 56.898438 56.566406 48.636719 56.082031 C 44.363281 55.824219 41.394531 54.34375 38.792969 52.542969 C 36.050781 54.039062 33.085938 55.214844 28.796875 55.226562 C 18.875 55.25 12.242188 49.484375 12.078125 41.578125 C 5.703125 39.730469 1.382812 36.277344 0.207031 30.371094 C 0.207031 29.515625 0.207031 28.660156 0.207031 27.808594 C 1.503906 21.957031 5.589844 18.28125 12.390625 16.722656 C 11.980469 6.847656 25.585938 0.675781 36.761719 5.027344 C 39.421875 2.875 43.183594 0.527344 48.632812 0.148438 Z M 48.632812 0.148438 " clip-rule="nonzero"/></clipPath><clipPath id="eaee2ea6b2"><rect x="0" width="86" y="0" height="57"/></clipPath></defs><g clip-path="url(#e1db899cea)"><g clip-path="url(#b0a3fd6fbc)"><g transform="matrix(1, 0, 0, 1, 157, 132)"><g clip-path="url(#cb71cc5d14)"><g clip-path="url(#7bfae0fff8)"><g clip-path="url(#b441277ad7)"><path fill="#d9d9d9" d="M 0.0117188 0.167969 L 62.84375 0.167969 L 62.84375 63 L 0.0117188 63 Z M 0.0117188 0.167969 " fill-opacity="1" fill-rule="nonzero"/></g></g></g></g></g></g><g clip-path="url(#e4853e9343)"><g clip-path="url(#43572e1699)"><path stroke-linecap="butt" transform="matrix(0.75, 0, 0, 0.75, 157.011587, 132.16905)" fill="none" stroke-linejoin="miter" d="M 22.994969 -0.00144129 L 60.765805 -0.00144129 C 66.869972 -0.00144129 72.71893 2.420434 77.031431 6.738142 C 81.343931 11.050643 83.765806 16.899601 83.765806 22.99856 L 83.765806 60.769396 C 83.765806 66.868355 81.343931 72.717313 77.031431 77.029814 C 72.71893 81.342314 66.869972 83.764189 60.765805 83.764189 L 22.994969 83.764189 C 16.89601 83.764189 11.047051 81.342314 6.734551 77.029814 C 2.422051 72.717313 0.000175681 66.868355 0.000175681 60.769396 L 0.000175681 22.99856 C 0.000175681 16.899601 2.422051 11.050643 6.734551 6.738142 C 11.047051 2.420434 16.89601 -0.00144129 22.994969 -0.00144129 Z M 22.994969 -0.00144129 " stroke="#000000" stroke-width="4" stroke-opacity="1" stroke-miterlimit="4"/></g></g><g clip-path="url(#e6e7d8e2e7)"><g clip-path="url(#184c4ec771)"><g transform="matrix(1, 0, 0, 1, 234, 132)"><g clip-path="url(#21ea794ea9)"><g clip-path="url(#2968b7529d)"><g clip-path="url(#a5a9fba415)"><path fill="#d9d9d9" d="M 0.78125 0.167969 L 63.613281 0.167969 L 63.613281 63 L 0.78125 63 Z M 0.78125 0.167969 " fill-opacity="1" fill-rule="nonzero"/></g></g></g></g></g></g><g clip-path="url(#906b10622e)"><g clip-path="url(#9222d6d3d4)"><path stroke-linecap="butt" transform="matrix(0.75, 0, 0, 0.75, 234.780356, 132.16905)" fill="none" stroke-linejoin="miter" d="M 22.995985 -0.00144129 L 60.766821 -0.00144129 C 66.865779 -0.00144129 72.714738 2.420434 77.027238 6.738142 C 81.344947 11.050643 83.766822 16.899601 83.766822 22.99856 L 83.766822 60.769396 C 83.766822 66.868355 81.344947 72.717313 77.027238 77.029814 C 72.714738 81.342314 66.865779 83.764189 60.766821 83.764189 L 22.995985 83.764189 C 16.897026 83.764189 11.048067 81.342314 6.735567 77.029814 C 2.423067 72.717313 0.00119162 66.868355 0.00119162 60.769396 L 0.00119162 22.99856 C 0.00119162 16.899601 2.423067 11.050643 6.735567 6.738142 C 11.048067 2.420434 16.897026 -0.00144129 22.995985 -0.00144129 Z M 22.995985 -0.00144129 " stroke="#000000" stroke-width="4" stroke-opacity="1" stroke-miterlimit="4"/></g></g><g clip-path="url(#8ecdb7e05d)"><g clip-path="url(#b1dbb053cf)"><g transform="matrix(1, 0, 0, 1, 154, 56)"><g clip-path="url(#2e619c5bfe)"><g clip-path="url(#100445cb8b)"><g clip-path="url(#56241637c8)"><path fill="#d9d9d9" d="M 0.707031 0.886719 L 63.539062 0.886719 L 63.539062 63.71875 L 0.707031 63.71875 Z M 0.707031 0.886719 " fill-opacity="1" fill-rule="nonzero"/></g></g></g></g></g></g><g clip-path="url(#eb8db7c643)"><g clip-path="url(#db328f0443)"><path stroke-linecap="butt" transform="matrix(0.75, 0, 0, 0.75, 154.708646, 56.885893)" fill="none" stroke-linejoin="miter" d="M 22.997849 0.00110091 L 60.768685 0.00110091 C 66.867644 0.00110091 72.716602 2.422976 77.029103 6.735476 C 81.341603 11.047977 83.763478 16.896935 83.763478 22.995894 L 83.763478 60.76673 C 83.763478 66.865689 81.341603 72.714647 77.029103 77.032356 C 72.716602 81.344856 66.867644 83.766731 60.768685 83.766731 L 22.997849 83.766731 C 16.89889 83.766731 11.049932 81.344856 6.737431 77.032356 C 2.424931 72.714647 -0.00215239 66.865689 -0.00215239 60.76673 L -0.00215239 22.995894 C -0.00215239 16.896935 2.424931 11.047977 6.737431 6.735476 C 11.049932 2.422976 16.89889 0.00110091 22.997849 0.00110091 Z M 22.997849 0.00110091 " stroke="#000000" stroke-width="4" stroke-opacity="1" stroke-miterlimit="4"/></g></g><g clip-path="url(#94fa472146)"><g clip-path="url(#afbadf3769)"><g transform="matrix(1, 0, 0, 1, 77, 57)"><g clip-path="url(#2976a0f488)"><g clip-path="url(#3e961637fe)"><g clip-path="url(#30ee1742bd)"><path fill="#d9d9d9" d="M 0.597656 0.636719 L 63.429688 0.636719 L 63.429688 63.46875 L 0.597656 63.46875 Z M 0.597656 0.636719 " fill-opacity="1" fill-rule="nonzero"/></g></g></g></g></g></g><g clip-path="url(#ee04fffc2c)"><g clip-path="url(#5a0cdf07af)"><path stroke-linecap="butt" transform="matrix(0.75, 0, 0, 0.75, 77.598551, 57.635893)" fill="none" stroke-linejoin="miter" d="M 22.998808 0.00110098 L 60.769644 0.00110098 C 66.868603 0.00110098 72.717561 2.422976 77.030062 6.735476 C 81.342562 11.047977 83.764437 16.896935 83.764437 22.995894 L 83.764437 60.76673 C 83.764437 66.865689 81.342562 72.714647 77.030062 77.032356 C 72.717561 81.344856 66.868603 83.766731 60.769644 83.766731 L 22.998808 83.766731 C 16.899849 83.766731 11.050891 81.344856 6.73839 77.032356 C 2.420682 72.714647 -0.00119354 66.865689 -0.00119354 60.76673 L -0.00119354 22.995894 C -0.00119354 16.896935 2.420682 11.047977 6.73839 6.735476 C 11.050891 2.422976 16.899849 0.00110098 22.998808 0.00110098 Z M 22.998808 0.00110098 " stroke="#000000" stroke-width="4" stroke-opacity="1" stroke-miterlimit="4"/></g></g><g clip-path="url(#3832c203d1)"><g clip-path="url(#563a179026)"><g transform="matrix(1, 0, 0, 1, 234, 57)"><g clip-path="url(#7e2d60de93)"><g clip-path="url(#073823fadb)"><g clip-path="url(#05332d9a23)"><path fill="#d9d9d9" d="M 0.585938 0.636719 L 63.417969 0.636719 L 63.417969 63.46875 L 0.585938 63.46875 Z M 0.585938 0.636719 " fill-opacity="1" fill-rule="nonzero"/></g></g></g></g></g></g><g clip-path="url(#b5b81ee592)"><g clip-path="url(#f249cf7945)"><path stroke-linecap="butt" transform="matrix(0.75, 0, 0, 0.75, 234.586043, 57.635893)" fill="none" stroke-linejoin="miter" d="M 22.999861 0.00110098 L 60.770697 0.00110098 C 66.869656 0.00110098 72.718615 2.422976 77.031115 6.735476 C 81.343615 11.047977 83.76549 16.896935 83.76549 22.995894 L 83.76549 60.76673 C 83.76549 66.865689 81.343615 72.714647 77.031115 77.032356 C 72.718615 81.344856 66.869656 83.766731 60.770697 83.766731 L 22.999861 83.766731 C 16.895694 83.766731 11.046735 81.344856 6.734235 77.032356 C 2.421735 72.714647 -0.000140261 66.865689 -0.000140261 60.76673 L -0.000140261 22.995894 C -0.000140261 16.896935 2.421735 11.047977 6.734235 6.735476 C 11.046735 2.422976 16.895694 0.00110098 22.999861 0.00110098 Z M 22.999861 0.00110098 " stroke="#000000" stroke-width="4" stroke-opacity="1" stroke-miterlimit="4"/></g></g><g clip-path="url(#430b29c3f9)"><g clip-path="url(#0905cea6c7)"><g transform="matrix(1, 0, 0, 1, 77, 131)"><g clip-path="url(#f7b76849bb)"><g clip-path="url(#3f22a8ba47)"><g clip-path="url(#d28fef88f7)"><path fill="#d9d9d9" d="M 0.195312 0.207031 L 63.023438 0.207031 L 63.023438 63.039062 L 0.195312 63.039062 Z M 0.195312 0.207031 " fill-opacity="1" fill-rule="nonzero"/></g></g></g></g></g></g><g clip-path="url(#b55d396698)"><g clip-path="url(#2d5ef85785)"><path stroke-linecap="butt" transform="matrix(0.75, 0, 0, 0.75, 77.194166, 131.208711)" fill="none" stroke-linejoin="miter" d="M 22.996322 -0.00224018 L 60.767158 -0.00224018 C 66.866117 -0.00224018 72.715075 2.424843 77.027576 6.737344 C 81.340076 11.049844 83.767159 16.898803 83.767159 22.997761 L 83.767159 60.768597 C 83.767159 66.867556 81.340076 72.716515 77.027576 77.029015 C 72.715075 81.341515 66.866117 83.76339 60.767158 83.76339 L 22.996322 83.76339 C 16.897363 83.76339 11.048405 81.341515 6.735904 77.029015 C 2.423404 72.716515 0.00152889 66.867556 0.00152889 60.768597 L 0.00152889 22.997761 C 0.00152889 16.898803 2.423404 11.049844 6.735904 6.737344 C 11.048405 2.424843 16.897363 -0.00224018 22.996322 -0.00224018 Z M 22.996322 -0.00224018 " stroke="#000000" stroke-width="4" stroke-opacity="1" stroke-miterlimit="4"/></g></g><g clip-path="url(#54a9547cac)"><g clip-path="url(#d4cc8ecda3)"><g transform="matrix(1, 0, 0, 1, 38, 222)"><g clip-path="url(#2861c19217)"><g clip-path="url(#606edc4cc3)"><g clip-path="url(#8225a6da76)"><path fill="#a5deff" d="M 0.425781 0 L 300.445312 0 L 300.445312 100.925781 L 0.425781 100.925781 Z M 0.425781 0 " fill-opacity="1" fill-rule="nonzero"/></g></g></g></g></g></g><g clip-path="url(#ee0ee2d256)"><g clip-path="url(#ba7be75541)"><path stroke-linecap="butt" transform="matrix(0.75, 0, 0, 0.75, 38.433375, 222.000161)" fill="none" stroke-linejoin="miter" d="M 23.000294 -0.000214163 L 376.984692 -0.000214163 C 383.083651 -0.000214163 388.932609 2.421661 393.24511 6.734161 C 397.562818 11.05187 399.984693 16.900829 399.984693 22.999787 L 399.984693 111.562293 C 399.984693 117.661252 397.562818 123.515419 393.24511 127.827919 C 388.932609 132.14042 383.083651 134.562295 376.984692 134.562295 L 23.000294 134.562295 C 16.901335 134.562295 11.047168 132.14042 6.734668 127.827919 C 2.422167 123.515419 0.000292072 117.661252 0.000292072 111.562293 L 0.000292072 22.999787 C 0.000292072 16.900829 2.422167 11.05187 6.734668 6.734161 C 11.047168 2.421661 16.901335 -0.000214163 23.000294 -0.000214163 Z M 23.000294 -0.000214163 " stroke="#000000" stroke-width="4" stroke-opacity="1" stroke-miterlimit="4"/></g></g><g clip-path="url(#55717394c7)"><g clip-path="url(#23f36a1c6b)"><g transform="matrix(1, 0, 0, 1, 139, 223)"><g clip-path="url(#84753412bf)"><g clip-path="url(#9b7ef1e428)"><g clip-path="url(#d6a393d444)"><path fill="#ffde59" d="M 0.957031 0.445312 L 98.992188 0.445312 L 98.992188 98.480469 L 0.957031 98.480469 Z M 0.957031 0.445312 " fill-opacity="1" fill-rule="nonzero"/></g></g></g></g></g></g><g clip-path="url(#0606ba049e)"><g clip-path="url(#a4e782aada)"><g transform="matrix(1, 0, 0, 1, 256, 229)"><g clip-path="url(#ab887f1def)"><g clip-path="url(#1f70ebd8dc)"><g clip-path="url(#8796ab2edf)"><path fill="#ffffff" d="M 0.589844 0.363281 L 77.207031 0.363281 L 77.207031 50.65625 L 0.589844 50.65625 Z M 0.589844 0.363281 " fill-opacity="1" fill-rule="nonzero"/></g></g></g></g></g></g><g clip-path="url(#7da4fd2e63)"><g clip-path="url(#a726020993)"><g transform="matrix(1, 0, 0, 1, 97, 260)"><g clip-path="url(#47b920ca29)"><g clip-path="url(#8381282f2f)"><g clip-path="url(#e4d0c5a7a5)"><path fill="#ffffff" d="M 0.84375 0.148438 L 86.113281 0.148438 L 86.113281 56.121094 L 0.84375 56.121094 Z M 0.84375 0.148438 " fill-opacity="1" fill-rule="nonzero"/></g></g></g></g></g></g><g clip-path="url(#e76adcab4b)"><g clip-path="url(#cac5443eea)"><g transform="matrix(1, 0, 0, 1, 214, 260)"><g clip-path="url(#eaee2ea6b2)"><g clip-path="url(#8435e79908)"><g clip-path="url(#8311087345)"><path fill="#ffffff" d="M 0.207031 0.148438 L 85.476562 0.148438 L 85.476562 56.121094 L 0.207031 56.121094 Z M 0.207031 0.148438 " fill-opacity="1" fill-rule="nonzero"/></g></g></g></g></g></g><g fill="#000000" fill-opacity="1"><g transform="translate(77.783837, 287.156304)"><g><path d="M 21.375 -45.40625 C 24.9375 -45.40625 28.191406 -44.519531 31.140625 -42.75 C 34.085938 -40.976562 36.1875 -38.664062 37.4375 -35.8125 C 37.625 -35.394531 37.71875 -34.96875 37.71875 -34.53125 C 37.71875 -33.675781 37.410156 -32.941406 36.796875 -32.328125 C 36.179688 -31.710938 35.445312 -31.40625 34.59375 -31.40625 C 34.03125 -31.40625 33.460938 -31.585938 32.890625 -31.953125 C 32.316406 -32.316406 31.925781 -32.757812 31.71875 -33.28125 C 30.925781 -35.09375 29.609375 -36.523438 27.765625 -37.578125 C 25.921875 -38.628906 23.789062 -39.15625 21.375 -39.15625 C 20.144531 -39.15625 18.878906 -39.003906 17.578125 -38.703125 C 16.273438 -38.398438 15.046875 -37.960938 13.890625 -37.390625 C 12.734375 -36.816406 11.785156 -36.0625 11.046875 -35.125 C 10.304688 -34.1875 9.9375 -33.15625 9.9375 -32.03125 C 9.9375 -31.132812 10.226562 -30.332031 10.8125 -29.625 C 11.394531 -28.914062 12.113281 -28.34375 12.96875 -27.90625 C 14.488281 -27.132812 16.410156 -26.539062 18.734375 -26.125 C 21.054688 -25.707031 23.4375 -25.296875 25.875 -24.890625 C 28.3125 -24.484375 30.332031 -23.9375 31.9375 -23.25 C 34.039062 -22.332031 35.789062 -21.023438 37.1875 -19.328125 C 38.582031 -17.628906 39.28125 -15.5625 39.28125 -13.125 C 39.28125 -11.351562 38.910156 -9.703125 38.171875 -8.171875 C 37.429688 -6.640625 36.457031 -5.34375 35.25 -4.28125 C 34.039062 -3.21875 32.648438 -2.304688 31.078125 -1.546875 C 29.503906 -0.785156 27.890625 -0.226562 26.234375 0.125 C 24.578125 0.476562 22.9375 0.65625 21.3125 0.65625 C 17.226562 0.65625 13.570312 -0.300781 10.34375 -2.21875 C 7.113281 -4.132812 4.800781 -6.707031 3.40625 -9.9375 C 3.21875 -10.351562 3.125 -10.769531 3.125 -11.1875 C 3.125 -12.039062 3.429688 -12.773438 4.046875 -13.390625 C 4.660156 -14.003906 5.394531 -14.3125 6.25 -14.3125 C 6.832031 -14.3125 7.40625 -14.125 7.96875 -13.75 C 8.53125 -13.375 8.914062 -12.925781 9.125 -12.40625 C 10.019531 -10.300781 11.566406 -8.640625 13.765625 -7.421875 C 15.960938 -6.203125 18.476562 -5.59375 21.3125 -5.59375 C 23.1875 -5.59375 24.984375 -5.847656 26.703125 -6.359375 C 28.421875 -6.867188 29.898438 -7.71875 31.140625 -8.90625 C 32.378906 -10.09375 33 -11.5 33 -13.125 C 33 -14.125 32.660156 -14.992188 31.984375 -15.734375 C 31.304688 -16.472656 30.46875 -17.0625 29.46875 -17.5 C 27.84375 -18.1875 25.8125 -18.734375 23.375 -19.140625 C 20.9375 -19.546875 18.535156 -19.96875 16.171875 -20.40625 C 13.804688 -20.84375 11.800781 -21.476562 10.15625 -22.3125 C 8.28125 -23.25 6.726562 -24.53125 5.5 -26.15625 C 4.269531 -27.78125 3.65625 -29.738281 3.65625 -32.03125 C 3.65625 -33.695312 4.003906 -35.265625 4.703125 -36.734375 C 5.398438 -38.203125 6.335938 -39.457031 7.515625 -40.5 C 8.691406 -41.539062 10.046875 -42.4375 11.578125 -43.1875 C 13.109375 -43.9375 14.707031 -44.492188 16.375 -44.859375 C 18.039062 -45.222656 19.707031 -45.40625 21.375 -45.40625 Z M 21.375 -45.40625 "/></g></g></g><g fill="#000000" fill-opacity="1"><g transform="translate(120.187501, 287.156304)"><g><path d="M 24.75 -4.21875 C 23.789062 -3.28125 22.929688 -2.507812 22.171875 -1.90625 C 21.410156 -1.300781 20.382812 -0.71875 19.09375 -0.15625 C 17.800781 0.40625 16.507812 0.6875 15.21875 0.6875 C 12.65625 0.6875 10.445312 0.0078125 8.59375 -1.34375 C 6.738281 -2.695312 5.34375 -4.425781 4.40625 -6.53125 C 3.46875 -8.65625 3 -11.5625 3 -15.25 L 3 -31.03125 C 3 -31.882812 3.304688 -32.617188 3.921875 -33.234375 C 4.535156 -33.847656 5.269531 -34.15625 6.125 -34.15625 C 6.976562 -34.15625 7.710938 -33.847656 8.328125 -33.234375 C 8.941406 -32.617188 9.25 -31.882812 9.25 -31.03125 L 9.25 -15.25 C 9.25 -12.4375 9.539062 -10.382812 10.125 -9.09375 C 10.582031 -8.070312 11.238281 -7.226562 12.09375 -6.5625 C 12.945312 -5.894531 13.96875 -5.5625 15.15625 -5.5625 C 18.195312 -5.5625 20.554688 -6.726562 22.234375 -9.0625 C 23.910156 -11.394531 24.738281 -14.582031 24.71875 -18.625 L 24.6875 -31.09375 C 24.6875 -31.945312 24.992188 -32.679688 25.609375 -33.296875 C 26.222656 -33.910156 26.957031 -34.21875 27.8125 -34.21875 C 28.6875 -34.21875 29.425781 -33.910156 30.03125 -33.296875 C 30.632812 -32.679688 30.9375 -31.9375 30.9375 -31.0625 L 31 -2.34375 C 31 -1.445312 30.757812 -0.703125 30.28125 -0.109375 C 29.800781 0.484375 29.144531 0.78125 28.3125 0.78125 C 26.875 0.78125 25.863281 -0.257812 25.28125 -2.34375 Z M 24.75 -4.21875 "/></g></g></g><g fill="#000000" fill-opacity="1"><g transform="translate(154.122928, 287.156304)"><g><path d="M 9.21875 -29.28125 C 10.175781 -30.21875 11.035156 -30.988281 11.796875 -31.59375 C 12.554688 -32.195312 13.582031 -32.78125 14.875 -33.34375 C 16.164062 -33.90625 17.457031 -34.1875 18.75 -34.1875 C 21.3125 -34.1875 23.519531 -33.507812 25.375 -32.15625 C 27.226562 -30.800781 28.625 -29.070312 29.5625 -26.96875 C 30.5 -24.84375 30.96875 -21.9375 30.96875 -18.25 L 30.96875 -2.46875 C 30.96875 -1.613281 30.660156 -0.878906 30.046875 -0.265625 C 29.429688 0.347656 28.695312 0.65625 27.84375 0.65625 C 26.988281 0.65625 26.253906 0.347656 25.640625 -0.265625 C 25.023438 -0.878906 24.71875 -1.613281 24.71875 -2.46875 L 24.71875 -18.25 C 24.71875 -21.0625 24.425781 -23.113281 23.84375 -24.40625 C 23.382812 -25.425781 22.726562 -26.269531 21.875 -26.9375 C 21.019531 -27.601562 20 -27.9375 18.8125 -27.9375 C 15.769531 -27.9375 13.410156 -26.769531 11.734375 -24.4375 C 10.054688 -22.101562 9.226562 -18.914062 9.25 -14.875 L 9.28125 -2.40625 C 9.28125 -1.550781 8.972656 -0.816406 8.359375 -0.203125 C 7.742188 0.410156 7.007812 0.71875 6.15625 0.71875 C 5.28125 0.71875 4.539062 0.410156 3.9375 -0.203125 C 3.332031 -0.816406 3.03125 -1.5625 3.03125 -2.4375 L 2.96875 -31.15625 C 2.96875 -32.050781 3.207031 -32.796875 3.6875 -33.390625 C 4.164062 -33.984375 4.820312 -34.28125 5.65625 -34.28125 C 7.09375 -34.28125 8.101562 -33.238281 8.6875 -31.15625 Z M 9.21875 -29.28125 "/></g></g></g><g fill="#000000" fill-opacity="1"><g transform="translate(188.058354, 287.156304)"><g><path d="M 1.5625 -16.8125 C 1.5625 -19.207031 2.003906 -21.519531 2.890625 -23.75 C 3.773438 -25.976562 5.0625 -27.925781 6.75 -29.59375 C 8.269531 -31.070312 10.019531 -32.21875 12 -33.03125 C 13.976562 -33.84375 16.03125 -34.25 18.15625 -34.25 C 22.113281 -34.25 25.550781 -32.550781 28.46875 -29.15625 L 28.46875 -42.3125 C 28.46875 -43.164062 28.773438 -43.898438 29.390625 -44.515625 C 30.003906 -45.128906 30.738281 -45.4375 31.59375 -45.4375 C 32.445312 -45.4375 33.179688 -45.128906 33.796875 -44.515625 C 34.410156 -43.898438 34.71875 -43.164062 34.71875 -42.3125 L 34.71875 -2.40625 C 34.71875 -1.550781 34.410156 -0.816406 33.796875 -0.203125 C 33.179688 0.410156 32.445312 0.71875 31.59375 0.71875 C 30.070312 0.71875 29.15625 -0.320312 28.84375 -2.40625 L 28.46875 -4.9375 C 27.300781 -3.269531 25.75 -1.9375 23.8125 -0.9375 C 21.875 0.0625 19.914062 0.5625 17.9375 0.5625 C 14.875 0.5625 12.082031 -0.242188 9.5625 -1.859375 C 7.039062 -3.472656 5.078125 -5.601562 3.671875 -8.25 C 2.265625 -10.894531 1.5625 -13.75 1.5625 -16.8125 Z M 17.875 -5.6875 C 19.226562 -5.6875 20.570312 -5.984375 21.90625 -6.578125 C 23.238281 -7.171875 24.375 -7.988281 25.3125 -9.03125 C 26.25 -10.050781 26.972656 -11.265625 27.484375 -12.671875 C 27.992188 -14.078125 28.25 -15.507812 28.25 -16.96875 C 28.25 -20.03125 27.28125 -22.648438 25.34375 -24.828125 C 23.40625 -27.003906 20.96875 -28.09375 18.03125 -28.09375 C 15.15625 -28.09375 12.726562 -26.957031 10.75 -24.6875 C 8.769531 -22.414062 7.78125 -19.789062 7.78125 -16.8125 C 7.78125 -13.832031 8.753906 -11.234375 10.703125 -9.015625 C 12.648438 -6.796875 15.039062 -5.6875 17.875 -5.6875 Z M 17.875 -5.6875 "/></g></g></g><g fill="#000000" fill-opacity="1"><g transform="translate(225.899797, 287.156304)"><g><path d="M 19.46875 -34.375 C 21.65625 -34.375 23.816406 -33.75 25.953125 -32.5 C 28.085938 -31.25 29.601562 -29.84375 30.5 -28.28125 L 30.84375 -31.28125 C 30.84375 -32.15625 31.097656 -32.894531 31.609375 -33.5 C 32.117188 -34.101562 32.789062 -34.40625 33.625 -34.40625 C 34.476562 -34.40625 35.210938 -34.097656 35.828125 -33.484375 C 36.441406 -32.867188 36.75 -32.132812 36.75 -31.28125 L 36.75 -31.21875 L 36.6875 -2.28125 C 36.6875 -1.425781 36.378906 -0.691406 35.765625 -0.078125 C 35.148438 0.535156 34.414062 0.84375 33.5625 0.84375 C 32.726562 0.84375 32.054688 0.539062 31.546875 -0.0625 C 31.035156 -0.664062 30.78125 -1.40625 30.78125 -2.28125 L 30.4375 -4.78125 C 29.394531 -3.007812 27.851562 -1.648438 25.8125 -0.703125 C 23.769531 0.242188 21.632812 0.71875 19.40625 0.71875 C 16.320312 0.71875 13.46875 -0.0820312 10.84375 -1.6875 C 8.21875 -3.289062 6.144531 -5.429688 4.625 -8.109375 C 3.101562 -10.785156 2.34375 -13.664062 2.34375 -16.75 C 2.34375 -19.8125 3.082031 -22.691406 4.5625 -25.390625 C 6.039062 -28.085938 8.109375 -30.257812 10.765625 -31.90625 C 13.421875 -33.550781 16.320312 -34.375 19.46875 -34.375 Z M 30.25 -16.8125 C 30.25 -19.894531 29.207031 -22.550781 27.125 -24.78125 C 25.039062 -27.007812 22.46875 -28.125 19.40625 -28.125 C 16.382812 -28.125 13.816406 -27.003906 11.703125 -24.765625 C 9.585938 -22.523438 8.53125 -19.882812 8.53125 -16.84375 C 8.53125 -13.78125 9.597656 -11.128906 11.734375 -8.890625 C 13.867188 -6.648438 16.4375 -5.53125 19.4375 -5.53125 C 22.414062 -5.53125 24.960938 -6.648438 27.078125 -8.890625 C 29.191406 -11.128906 30.25 -13.769531 30.25 -16.8125 Z M 30.25 -16.8125 "/></g></g></g><g fill="#000000" fill-opacity="1"><g transform="translate(265.772361, 287.156304)"><g><path d="M 3.90625 -34.40625 C 4.507812 -34.40625 5.078125 -34.226562 5.609375 -33.875 C 6.140625 -33.519531 6.519531 -33.082031 6.75 -32.5625 L 17.375 -8.40625 L 26.46875 -32.34375 C 26.695312 -32.90625 27.082031 -33.375 27.625 -33.75 C 28.164062 -34.125 28.75 -34.3125 29.375 -34.3125 C 30.226562 -34.3125 30.960938 -34.003906 31.578125 -33.390625 C 32.191406 -32.773438 32.5 -32.039062 32.5 -31.1875 C 32.5 -30.75 32.414062 -30.34375 32.25 -29.96875 L 20.75 0.03125 C 20.6875 0.40625 20.507812 0.832031 20.21875 1.3125 L 18.46875 5.6875 C 18.09375 6.644531 17.765625 7.425781 17.484375 8.03125 C 17.203125 8.632812 16.785156 9.378906 16.234375 10.265625 C 15.679688 11.148438 15.070312 11.925781 14.40625 12.59375 C 13.34375 13.71875 12.070312 14.628906 10.59375 15.328125 C 9.113281 16.023438 7.601562 16.375 6.0625 16.375 C 5.1875 16.375 4.445312 16.0625 3.84375 15.4375 C 3.238281 14.8125 2.9375 14.0625 2.9375 13.1875 C 2.9375 12.351562 3.222656 11.628906 3.796875 11.015625 C 4.367188 10.398438 5.0625 10.082031 5.875 10.0625 C 7.539062 9.957031 8.878906 9.328125 9.890625 8.171875 C 10.898438 7.015625 11.832031 5.394531 12.6875 3.3125 L 14.1875 -0.5 L 1.0625 -29.9375 C 0.875 -30.375 0.78125 -30.820312 0.78125 -31.28125 C 0.78125 -32.132812 1.085938 -32.867188 1.703125 -33.484375 C 2.316406 -34.097656 3.050781 -34.40625 3.90625 -34.40625 Z M 3.90625 -34.40625 "/></g></g></g><g fill="#000000" fill-opacity="1"><g transform="translate(162.495668, 100.667014)"><g><path d="M 1.109375 -25.84375 C 0.710938 -26.25 0.515625 -26.734375 0.515625 -27.296875 C 0.515625 -27.859375 0.710938 -28.335938 1.109375 -28.734375 C 1.515625 -29.140625 2 -29.34375 2.5625 -29.34375 L 2.578125 -29.34375 L 23.078125 -29.46875 L 23.109375 -29.46875 C 23.671875 -29.46875 24.148438 -29.265625 24.546875 -28.859375 C 24.953125 -28.460938 25.15625 -27.984375 25.15625 -27.421875 C 25.15625 -26.859375 24.953125 -26.375 24.546875 -25.96875 C 24.148438 -25.570312 23.671875 -25.375 23.109375 -25.375 L 23.09375 -25.375 L 14.9375 -25.328125 L 14.828125 -1.78125 L 14.828125 -1.765625 C 14.828125 -1.210938 14.625 -0.738281 14.21875 -0.34375 C 13.820312 0.0507812 13.34375 0.25 12.78125 0.25 C 12.21875 0.25 11.734375 0.0507812 11.328125 -0.34375 C 10.921875 -0.738281 10.71875 -1.210938 10.71875 -1.765625 L 10.71875 -1.8125 L 10.828125 -25.3125 L 2.578125 -25.25 L 2.5625 -25.25 C 2 -25.25 1.515625 -25.445312 1.109375 -25.84375 Z M 1.109375 -25.84375 "/></g></g><g transform="translate(188.15094, 100.667014)"><g><path d="M 16.25 -2.765625 C 15.613281 -2.148438 15.046875 -1.644531 14.546875 -1.25 C 14.054688 -0.851562 13.382812 -0.46875 12.53125 -0.09375 C 11.6875 0.269531 10.835938 0.453125 9.984375 0.453125 C 8.304688 0.453125 6.859375 0.0078125 5.640625 -0.875 C 4.421875 -1.769531 3.503906 -2.90625 2.890625 -4.28125 C 2.273438 -5.675781 1.96875 -7.582031 1.96875 -10 L 1.96875 -20.359375 C 1.96875 -20.921875 2.171875 -21.40625 2.578125 -21.8125 C 2.984375 -22.21875 3.460938 -22.421875 4.015625 -22.421875 C 4.578125 -22.421875 5.0625 -22.21875 5.46875 -21.8125 C 5.875 -21.40625 6.078125 -20.921875 6.078125 -20.359375 L 6.078125 -10 C 6.078125 -8.15625 6.269531 -6.8125 6.65625 -5.96875 C 6.945312 -5.300781 7.375 -4.75 7.9375 -4.3125 C 8.5 -3.875 9.171875 -3.65625 9.953125 -3.65625 C 11.941406 -3.65625 13.488281 -4.421875 14.59375 -5.953125 C 15.695312 -7.484375 16.238281 -9.570312 16.21875 -12.21875 L 16.203125 -20.40625 C 16.203125 -20.96875 16.40625 -21.445312 16.8125 -21.84375 C 17.21875 -22.25 17.695312 -22.453125 18.25 -22.453125 C 18.832031 -22.453125 19.320312 -22.25 19.71875 -21.84375 C 20.113281 -21.445312 20.3125 -20.960938 20.3125 -20.390625 L 20.34375 -1.53125 C 20.34375 -0.945312 20.1875 -0.457031 19.875 -0.0625 C 19.5625 0.320312 19.128906 0.515625 18.578125 0.515625 C 17.640625 0.515625 16.976562 -0.164062 16.59375 -1.53125 Z M 16.25 -2.765625 "/></g></g></g><g fill="#000000" fill-opacity="1"><g transform="translate(92.627759, 101.417014)"><g><path d="M 5.109375 -0.59375 C 4.710938 -0.195312 4.234375 0 3.671875 0 C 3.109375 0 2.625 -0.195312 2.21875 -0.59375 C 1.820312 -1 1.625 -1.484375 1.625 -2.046875 L 1.5625 -27.5 C 1.539062 -27.625 1.53125 -27.75 1.53125 -27.875 C 1.53125 -28.132812 1.679688 -28.503906 1.984375 -28.984375 C 2.316406 -29.515625 2.789062 -29.78125 3.40625 -29.78125 C 4.382812 -29.78125 5.0625 -29.394531 5.4375 -28.625 L 16.40625 -10.71875 L 26.5625 -28.65625 C 26.96875 -29.332031 27.519531 -29.671875 28.21875 -29.671875 C 28.820312 -29.671875 29.335938 -29.472656 29.765625 -29.078125 C 30.191406 -28.691406 30.40625 -28.207031 30.40625 -27.625 L 30.40625 -1.96875 C 30.40625 -1.40625 30.203125 -0.921875 29.796875 -0.515625 C 29.398438 -0.117188 28.921875 0.078125 28.359375 0.078125 C 27.796875 0.078125 27.3125 -0.117188 26.90625 -0.515625 C 26.507812 -0.921875 26.3125 -1.40625 26.3125 -1.96875 L 26.3125 -20.296875 L 18.25 -5.65625 C 18.070312 -5.382812 17.828125 -5.140625 17.515625 -4.921875 C 17.203125 -4.710938 16.875 -4.609375 16.53125 -4.609375 C 15.738281 -4.609375 15.128906 -4.9375 14.703125 -5.59375 L 5.65625 -20.390625 L 5.71875 -2.078125 L 5.71875 -2.046875 C 5.71875 -1.484375 5.515625 -1 5.109375 -0.59375 Z M 5.109375 -0.59375 "/></g></g></g><g fill="#000000" fill-opacity="1"><g transform="translate(247.682699, 101.417014)"><g><path d="M 16.671875 -28.296875 C 16.796875 -28.679688 17.046875 -29.003906 17.421875 -29.265625 C 17.796875 -29.523438 18.195312 -29.65625 18.625 -29.65625 C 19.070312 -29.65625 19.476562 -29.515625 19.84375 -29.234375 C 20.207031 -28.953125 20.445312 -28.613281 20.5625 -28.21875 L 26.859375 -8.15625 L 32.46875 -27.453125 C 32.570312 -28.046875 32.8125 -28.546875 33.1875 -28.953125 C 33.5625 -29.367188 33.984375 -29.578125 34.453125 -29.578125 C 35.023438 -29.578125 35.507812 -29.328125 35.90625 -28.828125 C 36.300781 -28.335938 36.5 -27.757812 36.5 -27.09375 C 36.5 -26.820312 36.46875 -26.582031 36.40625 -26.375 L 28.953125 -1.09375 C 28.828125 -0.675781 28.582031 -0.332031 28.21875 -0.0625 C 27.851562 0.195312 27.453125 0.328125 27.015625 0.328125 C 26.585938 0.328125 26.179688 0.203125 25.796875 -0.046875 C 25.410156 -0.304688 25.160156 -0.632812 25.046875 -1.03125 L 18.5625 -19.625 L 11.703125 -0.40625 C 11.210938 0.0820312 10.566406 0.328125 9.765625 0.328125 C 9.328125 0.328125 8.914062 0.195312 8.53125 -0.0625 C 8.144531 -0.332031 7.890625 -0.675781 7.765625 -1.09375 L 0.59375 -26.109375 C 0.539062 -26.328125 0.515625 -26.566406 0.515625 -26.828125 C 0.515625 -27.492188 0.710938 -28.070312 1.109375 -28.5625 C 1.503906 -29.0625 1.988281 -29.3125 2.5625 -29.3125 C 3.03125 -29.3125 3.453125 -29.097656 3.828125 -28.671875 C 4.203125 -28.242188 4.441406 -27.738281 4.546875 -27.15625 L 9.953125 -8.046875 Z M 16.671875 -28.296875 "/></g></g></g><g fill="#000000" fill-opacity="1"><g transform="translate(84.507186, 175.950164)"><g><path d="M 1.109375 -25.84375 C 0.710938 -26.25 0.515625 -26.734375 0.515625 -27.296875 C 0.515625 -27.859375 0.710938 -28.335938 1.109375 -28.734375 C 1.515625 -29.140625 2 -29.34375 2.5625 -29.34375 L 2.578125 -29.34375 L 23.078125 -29.46875 L 23.109375 -29.46875 C 23.671875 -29.46875 24.148438 -29.265625 24.546875 -28.859375 C 24.953125 -28.460938 25.15625 -27.984375 25.15625 -27.421875 C 25.15625 -26.859375 24.953125 -26.375 24.546875 -25.96875 C 24.148438 -25.570312 23.671875 -25.375 23.109375 -25.375 L 23.09375 -25.375 L 14.9375 -25.328125 L 14.828125 -1.78125 L 14.828125 -1.765625 C 14.828125 -1.210938 14.625 -0.738281 14.21875 -0.34375 C 13.820312 0.0507812 13.34375 0.25 12.78125 0.25 C 12.21875 0.25 11.734375 0.0507812 11.328125 -0.34375 C 10.921875 -0.738281 10.71875 -1.210938 10.71875 -1.765625 L 10.71875 -1.8125 L 10.828125 -25.3125 L 2.578125 -25.25 L 2.5625 -25.25 C 2 -25.25 1.515625 -25.445312 1.109375 -25.84375 Z M 1.109375 -25.84375 "/></g></g><g transform="translate(110.162457, 175.950164)"><g><path d="M 1.953125 -27.9375 C 1.953125 -28.476562 2.148438 -28.941406 2.546875 -29.328125 C 2.941406 -29.722656 3.425781 -29.921875 4 -29.921875 C 4.5625 -29.921875 5.039062 -29.722656 5.4375 -29.328125 C 5.84375 -28.941406 6.046875 -28.476562 6.046875 -27.9375 L 6.046875 -18.984375 C 6.554688 -20.054688 7.296875 -20.898438 8.265625 -21.515625 C 9.242188 -22.128906 10.226562 -22.4375 11.21875 -22.4375 C 14.320312 -22.4375 16.632812 -21.507812 18.15625 -19.65625 C 19.6875 -17.800781 20.453125 -15.273438 20.453125 -12.078125 L 20.453125 -11.890625 L 20.421875 -1.53125 L 20.421875 -1.515625 C 20.421875 -0.972656 20.21875 -0.503906 19.8125 -0.109375 C 19.414062 0.273438 18.9375 0.46875 18.375 0.46875 C 17.8125 0.46875 17.328125 0.273438 16.921875 -0.109375 C 16.523438 -0.503906 16.328125 -0.972656 16.328125 -1.515625 L 16.328125 -1.53125 L 16.34375 -11.796875 L 16.34375 -11.828125 C 16.34375 -14.054688 15.96875 -15.691406 15.21875 -16.734375 C 14.476562 -17.785156 13.144531 -18.3125 11.21875 -18.3125 C 9.550781 -18.3125 8.28125 -17.726562 7.40625 -16.5625 C 6.53125 -15.40625 6.09375 -13.863281 6.09375 -11.9375 L 6.09375 -1.5 C 6.09375 -0.945312 5.890625 -0.472656 5.484375 -0.078125 C 5.078125 0.304688 4.597656 0.5 4.046875 0.5 C 3.453125 0.5 2.953125 0.300781 2.546875 -0.09375 C 2.148438 -0.5 1.953125 -0.96875 1.953125 -1.5 Z M 1.953125 -27.9375 "/></g></g></g><g fill="#000000" fill-opacity="1"><g transform="translate(176.464711, 175.950164)"><g><path d="M 1.53125 -27.40625 C 1.53125 -27.945312 1.734375 -28.414062 2.140625 -28.8125 C 2.546875 -29.207031 3.03125 -29.40625 3.59375 -29.40625 L 20.296875 -29.421875 L 20.328125 -29.421875 C 20.890625 -29.421875 21.367188 -29.21875 21.765625 -28.8125 C 22.171875 -28.414062 22.375 -27.9375 22.375 -27.375 C 22.375 -26.8125 22.171875 -26.328125 21.765625 -25.921875 C 21.367188 -25.523438 20.890625 -25.328125 20.328125 -25.328125 L 20.296875 -25.328125 L 5.640625 -25.3125 L 5.65625 -17.84375 L 16.34375 -17.9375 L 16.578125 -17.9375 C 17.078125 -17.9375 17.507812 -17.726562 17.875 -17.3125 C 18.238281 -16.894531 18.421875 -16.460938 18.421875 -16.015625 C 18.421875 -15.410156 18.226562 -14.894531 17.84375 -14.46875 C 17.457031 -14.050781 16.960938 -13.84375 16.359375 -13.84375 L 5.6875 -13.734375 L 5.703125 -1.8125 L 5.703125 -1.765625 C 5.703125 -1.210938 5.5 -0.738281 5.09375 -0.34375 C 4.6875 0.0507812 4.203125 0.25 3.640625 0.25 C 3.085938 0.25 2.609375 0.0507812 2.203125 -0.34375 C 1.796875 -0.738281 1.59375 -1.210938 1.59375 -1.765625 L 1.59375 -1.78125 Z M 1.53125 -27.40625 "/></g></g></g><g fill="#000000" fill-opacity="1"><g transform="translate(239.38096, 175.950164)"><g><path d="M 14.03125 -29.796875 C 16.363281 -29.796875 18.5 -29.210938 20.4375 -28.046875 C 22.375 -26.890625 23.75 -25.375 24.5625 -23.5 C 24.6875 -23.226562 24.75 -22.945312 24.75 -22.65625 C 24.75 -22.101562 24.546875 -21.625 24.140625 -21.21875 C 23.742188 -20.8125 23.265625 -20.609375 22.703125 -20.609375 C 22.335938 -20.609375 21.960938 -20.726562 21.578125 -20.96875 C 21.203125 -21.207031 20.945312 -21.5 20.8125 -21.84375 C 20.289062 -23.03125 19.425781 -23.96875 18.21875 -24.65625 C 17.007812 -25.351562 15.613281 -25.703125 14.03125 -25.703125 C 13.21875 -25.703125 12.382812 -25.601562 11.53125 -25.40625 C 10.675781 -25.207031 9.867188 -24.914062 9.109375 -24.53125 C 8.359375 -24.15625 7.738281 -23.660156 7.25 -23.046875 C 6.757812 -22.429688 6.515625 -21.753906 6.515625 -21.015625 C 6.515625 -20.429688 6.707031 -19.90625 7.09375 -19.4375 C 7.476562 -18.976562 7.953125 -18.601562 8.515625 -18.3125 C 9.515625 -17.8125 10.773438 -17.421875 12.296875 -17.140625 C 13.816406 -16.867188 15.375 -16.597656 16.96875 -16.328125 C 18.570312 -16.066406 19.898438 -15.710938 20.953125 -15.265625 C 22.335938 -14.660156 23.488281 -13.800781 24.40625 -12.6875 C 25.320312 -11.570312 25.78125 -10.210938 25.78125 -8.609375 C 25.78125 -7.453125 25.535156 -6.367188 25.046875 -5.359375 C 24.566406 -4.359375 23.925781 -3.507812 23.125 -2.8125 C 22.332031 -2.113281 21.421875 -1.515625 20.390625 -1.015625 C 19.359375 -0.515625 18.300781 -0.148438 17.21875 0.078125 C 16.132812 0.316406 15.054688 0.4375 13.984375 0.4375 C 11.304688 0.4375 8.90625 -0.191406 6.78125 -1.453125 C 4.664062 -2.710938 3.148438 -4.398438 2.234375 -6.515625 C 2.109375 -6.796875 2.046875 -7.070312 2.046875 -7.34375 C 2.046875 -7.90625 2.25 -8.382812 2.65625 -8.78125 C 3.0625 -9.1875 3.546875 -9.390625 4.109375 -9.390625 C 4.484375 -9.390625 4.851562 -9.265625 5.21875 -9.015625 C 5.59375 -8.773438 5.847656 -8.484375 5.984375 -8.140625 C 6.578125 -6.765625 7.59375 -5.675781 9.03125 -4.875 C 10.476562 -4.070312 12.128906 -3.671875 13.984375 -3.671875 C 15.210938 -3.671875 16.390625 -3.835938 17.515625 -4.171875 C 18.648438 -4.503906 19.625 -5.0625 20.4375 -5.84375 C 21.25 -6.625 21.65625 -7.546875 21.65625 -8.609375 C 21.65625 -9.265625 21.429688 -9.832031 20.984375 -10.3125 C 20.546875 -10.800781 20 -11.191406 19.34375 -11.484375 C 18.269531 -11.929688 16.929688 -12.289062 15.328125 -12.5625 C 13.734375 -12.832031 12.160156 -13.109375 10.609375 -13.390625 C 9.054688 -13.679688 7.742188 -14.097656 6.671875 -14.640625 C 5.429688 -15.253906 4.410156 -16.09375 3.609375 -17.15625 C 2.804688 -18.226562 2.40625 -19.515625 2.40625 -21.015625 C 2.40625 -22.109375 2.632812 -23.132812 3.09375 -24.09375 C 3.550781 -25.0625 4.164062 -25.890625 4.9375 -26.578125 C 5.707031 -27.265625 6.59375 -27.851562 7.59375 -28.34375 C 8.601562 -28.832031 9.65625 -29.195312 10.75 -29.4375 C 11.84375 -29.675781 12.9375 -29.796875 14.03125 -29.796875 Z M 14.03125 -29.796875 "/></g></g><g transform="translate(267.21006, 175.950164)"><g><path d="M 12.78125 -22.5625 C 14.21875 -22.5625 15.632812 -22.148438 17.03125 -21.328125 C 18.4375 -20.503906 19.429688 -19.582031 20.015625 -18.5625 L 20.234375 -20.53125 C 20.234375 -21.101562 20.398438 -21.585938 20.734375 -21.984375 C 21.078125 -22.378906 21.519531 -22.578125 22.0625 -22.578125 C 22.625 -22.578125 23.109375 -22.375 23.515625 -21.96875 C 23.921875 -21.570312 24.125 -21.09375 24.125 -20.53125 L 24.125 -20.484375 L 24.078125 -1.5 C 24.078125 -0.9375 23.875 -0.453125 23.46875 -0.046875 C 23.0625 0.347656 22.582031 0.546875 22.03125 0.546875 C 21.476562 0.546875 21.035156 0.347656 20.703125 -0.046875 C 20.367188 -0.441406 20.203125 -0.925781 20.203125 -1.5 L 19.96875 -3.140625 C 19.289062 -1.972656 18.28125 -1.078125 16.9375 -0.453125 C 15.601562 0.160156 14.203125 0.46875 12.734375 0.46875 C 10.710938 0.46875 8.835938 -0.0546875 7.109375 -1.109375 C 5.390625 -2.160156 4.03125 -3.5625 3.03125 -5.3125 C 2.03125 -7.070312 1.53125 -8.96875 1.53125 -11 C 1.53125 -13 2.015625 -14.882812 2.984375 -16.65625 C 3.960938 -18.425781 5.320312 -19.851562 7.0625 -20.9375 C 8.8125 -22.019531 10.71875 -22.5625 12.78125 -22.5625 Z M 19.859375 -11.03125 C 19.859375 -13.050781 19.171875 -14.789062 17.796875 -16.25 C 16.429688 -17.71875 14.742188 -18.453125 12.734375 -18.453125 C 10.753906 -18.453125 9.066406 -17.71875 7.671875 -16.25 C 6.285156 -14.78125 5.59375 -13.046875 5.59375 -11.046875 C 5.59375 -9.046875 6.289062 -7.304688 7.6875 -5.828125 C 9.09375 -4.359375 10.78125 -3.625 12.75 -3.625 C 14.707031 -3.625 16.378906 -4.359375 17.765625 -5.828125 C 19.160156 -7.304688 19.859375 -9.039062 19.859375 -11.03125 Z M 19.859375 -11.03125 "/></g></g></g></svg>