<svg xmlns="http://www.w3.org/2000/svg" xmlns:xlink="http://www.w3.org/1999/xlink" width="1080" zoomAndPan="magnify" viewBox="0 0 810 809.999993" height="1080" preserveAspectRatio="xMidYMid meet" version="1.0"><defs><g/><clipPath id="5f64267e23"><path d="M 51.394531 62.722656 L 758.605469 62.722656 L 758.605469 769.9375 L 51.394531 769.9375 Z M 51.394531 62.722656 " clip-rule="nonzero"/></clipPath><clipPath id="02b166bfa8"><path d="M 126.394531 62.722656 L 683.605469 62.722656 C 725.027344 62.722656 758.605469 96.300781 758.605469 137.722656 L 758.605469 694.9375 C 758.605469 736.359375 725.027344 769.9375 683.605469 769.9375 L 126.394531 769.9375 C 84.972656 769.9375 51.394531 736.359375 51.394531 694.9375 L 51.394531 137.722656 C 51.394531 96.300781 84.972656 62.722656 126.394531 62.722656 Z M 126.394531 62.722656 " clip-rule="nonzero"/></clipPath><clipPath id="4280312043"><path d="M 0.394531 0.722656 L 707.605469 0.722656 L 707.605469 707.9375 L 0.394531 707.9375 Z M 0.394531 0.722656 " clip-rule="nonzero"/></clipPath><clipPath id="afe583764f"><path d="M 75.394531 0.722656 L 632.605469 0.722656 C 674.027344 0.722656 707.605469 34.300781 707.605469 75.722656 L 707.605469 632.9375 C 707.605469 674.359375 674.027344 707.9375 632.605469 707.9375 L 75.394531 707.9375 C 33.972656 707.9375 0.394531 674.359375 0.394531 632.9375 L 0.394531 75.722656 C 0.394531 34.300781 33.972656 0.722656 75.394531 0.722656 Z M 75.394531 0.722656 " clip-rule="nonzero"/></clipPath><clipPath id="8f9a50da5a"><rect x="0" width="708" y="0" height="708"/></clipPath><clipPath id="f072c32ba0"><path d="M 51.394531 62.722656 L 758.640625 62.722656 L 758.640625 769.972656 L 51.394531 769.972656 Z M 51.394531 62.722656 " clip-rule="nonzero"/></clipPath><clipPath id="30207e3da8"><path d="M 126.390625 62.722656 L 683.597656 62.722656 C 725.019531 62.722656 758.59375 96.300781 758.59375 137.722656 L 758.59375 694.929688 C 758.59375 736.347656 725.019531 769.925781 683.597656 769.925781 L 126.390625 769.925781 C 84.96875 769.925781 51.394531 736.347656 51.394531 694.929688 L 51.394531 137.722656 C 51.394531 96.300781 84.96875 62.722656 126.390625 62.722656 Z M 126.390625 62.722656 " clip-rule="nonzero"/></clipPath><clipPath id="c7c921ca28"><path d="M 47.328125 60.808594 L 763.578125 60.808594 L 763.578125 775.558594 L 47.328125 775.558594 Z M 47.328125 60.808594 " clip-rule="nonzero"/></clipPath><clipPath id="8a1522251a"><path d="M 122.328125 60.808594 L 688.25 60.808594 C 729.671875 60.808594 763.25 94.386719 763.25 135.804688 L 763.25 700.558594 C 763.25 741.980469 729.671875 775.558594 688.25 775.558594 L 122.328125 775.558594 C 80.90625 775.558594 47.328125 741.980469 47.328125 700.558594 L 47.328125 135.804688 C 47.328125 94.386719 80.90625 60.808594 122.328125 60.808594 Z M 122.328125 60.808594 " clip-rule="nonzero"/></clipPath><clipPath id="40e85d14af"><path d="M 88.839844 103.125 L 722 103.125 L 722 729.539062 L 88.839844 729.539062 Z M 88.839844 103.125 " clip-rule="nonzero"/></clipPath><clipPath id="6cecdf16cb"><path d="M 127.089844 103.125 L 682.910156 103.125 C 693.054688 103.125 702.785156 107.152344 709.957031 114.328125 C 717.132812 121.5 721.160156 131.230469 721.160156 141.375 L 721.160156 691.289062 C 721.160156 701.433594 717.132812 711.160156 709.957031 718.335938 C 702.785156 725.507812 693.054688 729.539062 682.910156 729.539062 L 127.089844 729.539062 C 116.945312 729.539062 107.214844 725.507812 100.042969 718.335938 C 92.867188 711.160156 88.839844 701.433594 88.839844 691.289062 L 88.839844 141.375 C 88.839844 131.230469 92.867188 121.5 100.042969 114.328125 C 107.214844 107.152344 116.945312 103.125 127.089844 103.125 Z M 127.089844 103.125 " clip-rule="nonzero"/></clipPath><clipPath id="bba093908e"><path d="M 0.839844 0.125 L 633 0.125 L 633 626.539062 L 0.839844 626.539062 Z M 0.839844 0.125 " clip-rule="nonzero"/></clipPath><clipPath id="a757a190aa"><path d="M 39.089844 0.125 L 594.910156 0.125 C 605.054688 0.125 614.785156 4.152344 621.957031 11.328125 C 629.132812 18.5 633.160156 28.230469 633.160156 38.375 L 633.160156 588.289062 C 633.160156 598.433594 629.132812 608.160156 621.957031 615.335938 C 614.785156 622.507812 605.054688 626.539062 594.910156 626.539062 L 39.089844 626.539062 C 28.945312 626.539062 19.214844 622.507812 12.042969 615.335938 C 4.867188 608.160156 0.839844 598.433594 0.839844 588.289062 L 0.839844 38.375 C 0.839844 28.230469 4.867188 18.5 12.042969 11.328125 C 19.214844 4.152344 28.945312 0.125 39.089844 0.125 Z M 39.089844 0.125 " clip-rule="nonzero"/></clipPath><clipPath id="5e640f47bb"><rect x="0" width="634" y="0" height="627"/></clipPath><clipPath id="70b7116225"><path d="M 88.839844 103.125 L 721.089844 103.125 L 721.089844 729.375 L 88.839844 729.375 Z M 88.839844 103.125 " clip-rule="nonzero"/></clipPath><clipPath id="0dd215371c"><path d="M 127.089844 103.125 L 682.910156 103.125 C 693.054688 103.125 702.78125 107.15625 709.957031 114.328125 C 717.128906 121.5 721.160156 131.230469 721.160156 141.375 L 721.160156 691.285156 C 721.160156 701.429688 717.128906 711.160156 709.957031 718.332031 C 702.78125 725.507812 693.054688 729.535156 682.910156 729.535156 L 127.089844 729.535156 C 116.945312 729.535156 107.214844 725.507812 100.042969 718.332031 C 92.867188 711.160156 88.839844 701.429688 88.839844 691.285156 L 88.839844 141.375 C 88.839844 131.230469 92.867188 121.5 100.042969 114.328125 C 107.214844 107.15625 116.945312 103.125 127.089844 103.125 Z M 127.089844 103.125 " clip-rule="nonzero"/></clipPath><clipPath id="2ae4ffe06e"><path d="M 199.289062 161.535156 L 321.886719 161.535156 L 321.886719 284.128906 L 199.289062 284.128906 Z M 199.289062 161.535156 " clip-rule="nonzero"/></clipPath><clipPath id="5dd8f44462"><path d="M 236.789062 161.535156 L 284.386719 161.535156 C 305.097656 161.535156 321.886719 178.324219 321.886719 199.035156 L 321.886719 246.628906 C 321.886719 267.339844 305.097656 284.128906 284.386719 284.128906 L 236.789062 284.128906 C 216.078125 284.128906 199.289062 267.339844 199.289062 246.628906 L 199.289062 199.035156 C 199.289062 178.324219 216.078125 161.535156 236.789062 161.535156 Z M 236.789062 161.535156 " clip-rule="nonzero"/></clipPath><clipPath id="d93ee5396e"><path d="M 0.289062 0.535156 L 122.886719 0.535156 L 122.886719 123.128906 L 0.289062 123.128906 Z M 0.289062 0.535156 " clip-rule="nonzero"/></clipPath><clipPath id="f971720368"><path d="M 37.789062 0.535156 L 85.386719 0.535156 C 106.097656 0.535156 122.886719 17.324219 122.886719 38.035156 L 122.886719 85.628906 C 122.886719 106.339844 106.097656 123.128906 85.386719 123.128906 L 37.789062 123.128906 C 17.078125 123.128906 0.289062 106.339844 0.289062 85.628906 L 0.289062 38.035156 C 0.289062 17.324219 17.078125 0.535156 37.789062 0.535156 Z M 37.789062 0.535156 " clip-rule="nonzero"/></clipPath><clipPath id="cbefac963b"><rect x="0" width="123" y="0" height="124"/></clipPath><clipPath id="735f27fdd1"><path d="M 199.289062 161.535156 L 321.539062 161.535156 L 321.539062 283.785156 L 199.289062 283.785156 Z M 199.289062 161.535156 " clip-rule="nonzero"/></clipPath><clipPath id="19946cfdb8"><path d="M 236.785156 161.535156 L 284.378906 161.535156 C 305.089844 161.535156 321.878906 178.324219 321.878906 199.03125 L 321.878906 246.625 C 321.878906 267.335938 305.089844 284.125 284.378906 284.125 L 236.785156 284.125 C 216.078125 284.125 199.289062 267.335938 199.289062 246.625 L 199.289062 199.03125 C 199.289062 178.324219 216.078125 161.535156 236.785156 161.535156 Z M 236.785156 161.535156 " clip-rule="nonzero"/></clipPath><clipPath id="e6ddaa12f9"><path d="M 481.980469 161.535156 L 604.578125 161.535156 L 604.578125 284.128906 L 481.980469 284.128906 Z M 481.980469 161.535156 " clip-rule="nonzero"/></clipPath><clipPath id="0de5615f56"><path d="M 519.480469 161.535156 L 567.078125 161.535156 C 587.789062 161.535156 604.578125 178.324219 604.578125 199.035156 L 604.578125 246.628906 C 604.578125 267.339844 587.789062 284.128906 567.078125 284.128906 L 519.480469 284.128906 C 498.769531 284.128906 481.980469 267.339844 481.980469 246.628906 L 481.980469 199.035156 C 481.980469 178.324219 498.769531 161.535156 519.480469 161.535156 Z M 519.480469 161.535156 " clip-rule="nonzero"/></clipPath><clipPath id="de5ec09335"><path d="M 0.980469 0.535156 L 123.578125 0.535156 L 123.578125 123.128906 L 0.980469 123.128906 Z M 0.980469 0.535156 " clip-rule="nonzero"/></clipPath><clipPath id="5af55dbd55"><path d="M 38.480469 0.535156 L 86.078125 0.535156 C 106.789062 0.535156 123.578125 17.324219 123.578125 38.035156 L 123.578125 85.628906 C 123.578125 106.339844 106.789062 123.128906 86.078125 123.128906 L 38.480469 123.128906 C 17.769531 123.128906 0.980469 106.339844 0.980469 85.628906 L 0.980469 38.035156 C 0.980469 17.324219 17.769531 0.535156 38.480469 0.535156 Z M 38.480469 0.535156 " clip-rule="nonzero"/></clipPath><clipPath id="d6bf110ab5"><rect x="0" width="124" y="0" height="124"/></clipPath><clipPath id="9881a035ea"><path d="M 481.980469 161.535156 L 604.230469 161.535156 L 604.230469 283.785156 L 481.980469 283.785156 Z M 481.980469 161.535156 " clip-rule="nonzero"/></clipPath><clipPath id="df2fa6144f"><path d="M 519.480469 161.535156 L 567.074219 161.535156 C 587.785156 161.535156 604.570312 178.324219 604.570312 199.03125 L 604.570312 246.625 C 604.570312 267.335938 587.785156 284.125 567.074219 284.125 L 519.480469 284.125 C 498.769531 284.125 481.980469 267.335938 481.980469 246.625 L 481.980469 199.03125 C 481.980469 178.324219 498.769531 161.535156 519.480469 161.535156 Z M 519.480469 161.535156 " clip-rule="nonzero"/></clipPath><clipPath id="2ef13bd619"><path d="M 340.636719 161.535156 L 463.230469 161.535156 L 463.230469 284.128906 L 340.636719 284.128906 Z M 340.636719 161.535156 " clip-rule="nonzero"/></clipPath><clipPath id="2373a526d3"><path d="M 378.136719 161.535156 L 425.730469 161.535156 C 446.441406 161.535156 463.230469 178.324219 463.230469 199.035156 L 463.230469 246.628906 C 463.230469 267.339844 446.441406 284.128906 425.730469 284.128906 L 378.136719 284.128906 C 357.425781 284.128906 340.636719 267.339844 340.636719 246.628906 L 340.636719 199.035156 C 340.636719 178.324219 357.425781 161.535156 378.136719 161.535156 Z M 378.136719 161.535156 " clip-rule="nonzero"/></clipPath><clipPath id="2f8714d8db"><path d="M 0.636719 0.535156 L 123.230469 0.535156 L 123.230469 123.128906 L 0.636719 123.128906 Z M 0.636719 0.535156 " clip-rule="nonzero"/></clipPath><clipPath id="a58a2a87dd"><path d="M 38.136719 0.535156 L 85.730469 0.535156 C 106.441406 0.535156 123.230469 17.324219 123.230469 38.035156 L 123.230469 85.628906 C 123.230469 106.339844 106.441406 123.128906 85.730469 123.128906 L 38.136719 123.128906 C 17.425781 123.128906 0.636719 106.339844 0.636719 85.628906 L 0.636719 38.035156 C 0.636719 17.324219 17.425781 0.535156 38.136719 0.535156 Z M 38.136719 0.535156 " clip-rule="nonzero"/></clipPath><clipPath id="8ac3d9025c"><rect x="0" width="124" y="0" height="124"/></clipPath><clipPath id="83cb0dca78"><path d="M 340.636719 161.535156 L 462.886719 161.535156 L 462.886719 283.785156 L 340.636719 283.785156 Z M 340.636719 161.535156 " clip-rule="nonzero"/></clipPath><clipPath id="7a0369d194"><path d="M 378.132812 161.535156 L 425.726562 161.535156 C 446.4375 161.535156 463.226562 178.324219 463.226562 199.03125 L 463.226562 246.625 C 463.226562 267.335938 446.4375 284.125 425.726562 284.125 L 378.132812 284.125 C 357.421875 284.125 340.636719 267.335938 340.636719 246.625 L 340.636719 199.03125 C 340.636719 178.324219 357.421875 161.535156 378.132812 161.535156 Z M 378.132812 161.535156 " clip-rule="nonzero"/></clipPath><clipPath id="64ebd0c20a"><path d="M 123.441406 315.628906 L 684.785156 315.628906 L 684.785156 517.179688 L 123.441406 517.179688 Z M 123.441406 315.628906 " clip-rule="nonzero"/></clipPath><clipPath id="7df4e853eb"><path d="M 179.691406 315.628906 L 628.375 315.628906 C 643.296875 315.628906 657.601562 321.558594 668.152344 332.105469 C 678.699219 342.65625 684.625 356.960938 684.625 371.878906 L 684.625 460.929688 C 684.625 475.847656 678.699219 490.15625 668.152344 500.703125 C 657.601562 511.253906 643.296875 517.179688 628.375 517.179688 L 179.691406 517.179688 C 164.769531 517.179688 150.464844 511.253906 139.914062 500.703125 C 129.367188 490.15625 123.441406 475.847656 123.441406 460.929688 L 123.441406 371.878906 C 123.441406 356.960938 129.367188 342.65625 139.914062 332.105469 C 150.464844 321.558594 164.769531 315.628906 179.691406 315.628906 Z M 179.691406 315.628906 " clip-rule="nonzero"/></clipPath><clipPath id="bc238d137b"><path d="M 0.441406 0.628906 L 561.71875 0.628906 L 561.71875 202.179688 L 0.441406 202.179688 Z M 0.441406 0.628906 " clip-rule="nonzero"/></clipPath><clipPath id="8b9b1b8908"><path d="M 56.691406 0.628906 L 505.375 0.628906 C 520.296875 0.628906 534.601562 6.558594 545.152344 17.105469 C 555.699219 27.65625 561.625 41.960938 561.625 56.878906 L 561.625 145.929688 C 561.625 160.847656 555.699219 175.15625 545.152344 185.703125 C 534.601562 196.253906 520.296875 202.179688 505.375 202.179688 L 56.691406 202.179688 C 41.769531 202.179688 27.464844 196.253906 16.914062 185.703125 C 6.367188 175.15625 0.441406 160.847656 0.441406 145.929688 L 0.441406 56.878906 C 0.441406 41.960938 6.367188 27.65625 16.914062 17.105469 C 27.464844 6.558594 41.769531 0.628906 56.691406 0.628906 Z M 56.691406 0.628906 " clip-rule="nonzero"/></clipPath><clipPath id="b737f03b30"><rect x="0" width="562" y="0" height="203"/></clipPath><clipPath id="6e5fe5fd76"><path d="M 123.449219 315.628906 L 684.441406 315.628906 L 684.441406 517.378906 L 123.449219 517.378906 Z M 123.449219 315.628906 " clip-rule="nonzero"/></clipPath><clipPath id="03d2edf802"><path d="M 179.695312 315.628906 L 628.359375 315.628906 C 643.277344 315.628906 657.582031 321.554688 668.132812 332.105469 C 678.679688 342.652344 684.605469 356.960938 684.605469 371.878906 L 684.605469 460.921875 C 684.605469 475.839844 678.679688 490.148438 668.132812 500.695312 C 657.582031 511.242188 643.277344 517.167969 628.359375 517.167969 L 179.695312 517.167969 C 164.777344 517.167969 150.472656 511.242188 139.921875 500.695312 C 129.375 490.148438 123.449219 475.839844 123.449219 460.921875 L 123.449219 371.878906 C 123.449219 356.960938 129.375 342.652344 139.921875 332.105469 C 150.472656 321.554688 164.777344 315.628906 179.695312 315.628906 Z M 179.695312 315.628906 " clip-rule="nonzero"/></clipPath><clipPath id="f671abcb38"><path d="M 308.398438 332.273438 L 481.980469 332.273438 L 481.980469 505.855469 L 308.398438 505.855469 Z M 308.398438 332.273438 " clip-rule="nonzero"/></clipPath><clipPath id="bcb0852320"><path d="M 395.191406 332.273438 C 347.257812 332.273438 308.398438 371.128906 308.398438 419.0625 C 308.398438 466.996094 347.257812 505.855469 395.191406 505.855469 C 443.125 505.855469 481.980469 466.996094 481.980469 419.0625 C 481.980469 371.128906 443.125 332.273438 395.191406 332.273438 Z M 395.191406 332.273438 " clip-rule="nonzero"/></clipPath><clipPath id="39d8901466"><path d="M 0.398438 0.273438 L 173.980469 0.273438 L 173.980469 173.855469 L 0.398438 173.855469 Z M 0.398438 0.273438 " clip-rule="nonzero"/></clipPath><clipPath id="b064a9febc"><path d="M 87.191406 0.273438 C 39.257812 0.273438 0.398438 39.128906 0.398438 87.0625 C 0.398438 134.996094 39.257812 173.855469 87.191406 173.855469 C 135.125 173.855469 173.980469 134.996094 173.980469 87.0625 C 173.980469 39.128906 135.125 0.273438 87.191406 0.273438 Z M 87.191406 0.273438 " clip-rule="nonzero"/></clipPath><clipPath id="7f526426f9"><rect x="0" width="174" y="0" height="174"/></clipPath><clipPath id="eb94aab138"><path d="M 175.921875 378.480469 L 326.785156 378.480469 L 326.785156 477.253906 L 175.921875 477.253906 Z M 175.921875 378.480469 " clip-rule="nonzero"/></clipPath><clipPath id="5cc017c17a"><path d="M 261.382812 378.480469 C 263.03125 378.480469 264.691406 378.480469 266.339844 378.480469 C 279.476562 380.128906 287.6875 385.621094 291.425781 394.609375 C 313.324219 393.410156 329.25 410.402344 319.542969 427.078125 C 322.769531 430.582031 325.464844 434.5 326.433594 439.761719 C 326.433594 441.269531 326.433594 442.773438 326.433594 444.277344 C 323.539062 457.667969 311.070312 466.714844 290.601562 464.28125 C 285.335938 471.15625 275.964844 478.039062 261.382812 477.183594 C 253.847656 476.730469 248.601562 474.117188 244.011719 470.941406 C 239.175781 473.582031 233.941406 475.652344 226.375 475.675781 C 208.867188 475.714844 197.160156 465.542969 196.875 451.589844 C 185.621094 448.328125 178 442.234375 175.921875 431.8125 C 175.921875 430.304688 175.921875 428.792969 175.921875 427.292969 C 178.214844 416.964844 185.421875 410.476562 197.421875 407.722656 C 196.703125 390.296875 220.707031 379.410156 240.425781 387.085938 C 245.121094 383.289062 251.765625 379.148438 261.382812 378.480469 Z M 261.382812 378.480469 " clip-rule="nonzero"/></clipPath><clipPath id="5a1b67f429"><path d="M 0.921875 0.480469 L 151.785156 0.480469 L 151.785156 99.253906 L 0.921875 99.253906 Z M 0.921875 0.480469 " clip-rule="nonzero"/></clipPath><clipPath id="fba791b5fa"><path d="M 86.382812 0.480469 C 88.03125 0.480469 89.691406 0.480469 91.339844 0.480469 C 104.476562 2.128906 112.6875 7.621094 116.425781 16.609375 C 138.324219 15.410156 154.25 32.402344 144.542969 49.078125 C 147.769531 52.582031 150.464844 56.5 151.433594 61.761719 C 151.433594 63.269531 151.433594 64.773438 151.433594 66.277344 C 148.539062 79.667969 136.070312 88.714844 115.601562 86.28125 C 110.335938 93.15625 100.964844 100.039062 86.382812 99.183594 C 78.847656 98.730469 73.601562 96.117188 69.011719 92.941406 C 64.175781 95.582031 58.941406 97.652344 51.375 97.675781 C 33.867188 97.714844 22.160156 87.542969 21.875 73.589844 C 10.621094 70.328125 3 64.234375 0.921875 53.8125 C 0.921875 52.304688 0.921875 50.792969 0.921875 49.292969 C 3.214844 38.964844 10.421875 32.476562 22.421875 29.722656 C 21.703125 12.296875 45.707031 1.410156 65.425781 9.085938 C 70.121094 5.289062 76.765625 1.148438 86.382812 0.480469 Z M 86.382812 0.480469 " clip-rule="nonzero"/></clipPath><clipPath id="e5a7c7edb4"><rect x="0" width="152" y="0" height="100"/></clipPath><clipPath id="94a6dd3e37"><path d="M 395.191406 329.09375 L 546 329.09375 L 546 427.867188 L 395.191406 427.867188 Z M 395.191406 329.09375 " clip-rule="nonzero"/></clipPath><clipPath id="397b042f87"><path d="M 480.648438 329.09375 C 482.296875 329.09375 483.960938 329.09375 485.605469 329.09375 C 498.742188 330.746094 506.953125 336.234375 510.691406 345.222656 C 532.59375 344.023438 548.515625 361.015625 538.8125 377.691406 C 542.039062 381.195312 544.730469 385.113281 545.703125 390.375 C 545.703125 391.882812 545.703125 393.386719 545.703125 394.890625 C 542.804688 408.28125 530.335938 417.328125 509.871094 414.894531 C 504.601562 421.769531 495.234375 428.652344 480.652344 427.796875 C 473.113281 427.34375 467.871094 424.730469 463.28125 421.554688 C 458.445312 424.195312 453.207031 426.265625 445.640625 426.289062 C 428.136719 426.328125 416.425781 416.15625 416.140625 402.203125 C 404.886719 398.941406 397.265625 392.847656 395.191406 382.425781 C 395.191406 380.917969 395.191406 379.40625 395.191406 377.90625 C 397.480469 367.578125 404.6875 361.089844 416.6875 358.339844 C 415.96875 340.910156 439.972656 330.023438 459.695312 337.699219 C 464.390625 333.902344 471.03125 329.761719 480.648438 329.09375 Z M 480.648438 329.09375 " clip-rule="nonzero"/></clipPath><clipPath id="c458cd9d8e"><path d="M 0.191406 0.09375 L 151 0.09375 L 151 98.867188 L 0.191406 98.867188 Z M 0.191406 0.09375 " clip-rule="nonzero"/></clipPath><clipPath id="2121d62955"><path d="M 85.648438 0.09375 C 87.296875 0.09375 88.960938 0.09375 90.605469 0.09375 C 103.742188 1.746094 111.953125 7.234375 115.691406 16.222656 C 137.59375 15.023438 153.515625 32.015625 143.8125 48.691406 C 147.039062 52.195312 149.730469 56.113281 150.703125 61.375 C 150.703125 62.882812 150.703125 64.386719 150.703125 65.890625 C 147.804688 79.28125 135.335938 88.328125 114.871094 85.894531 C 109.601562 92.769531 100.234375 99.652344 85.652344 98.796875 C 78.113281 98.34375 72.871094 95.730469 68.28125 92.554688 C 63.445312 95.195312 58.207031 97.265625 50.640625 97.289062 C 33.136719 97.328125 21.425781 87.15625 21.140625 73.203125 C 9.886719 69.941406 2.265625 63.847656 0.191406 53.425781 C 0.191406 51.917969 0.191406 50.40625 0.191406 48.90625 C 2.480469 38.578125 9.6875 32.089844 21.6875 29.339844 C 20.96875 11.910156 44.972656 1.023438 64.695312 8.699219 C 69.390625 4.902344 76.03125 0.761719 85.648438 0.09375 Z M 85.648438 0.09375 " clip-rule="nonzero"/></clipPath><clipPath id="08adbc46ce"><rect x="0" width="151" y="0" height="99"/></clipPath><clipPath id="6e0b640a7f"><path d="M 458.363281 392.90625 L 609 392.90625 L 609 491.679688 L 458.363281 491.679688 Z M 458.363281 392.90625 " clip-rule="nonzero"/></clipPath><clipPath id="c6394e5118"><path d="M 543.820312 392.90625 C 545.472656 392.90625 547.132812 392.90625 548.78125 392.90625 C 561.917969 394.554688 570.125 400.046875 573.867188 409.035156 C 595.765625 407.835938 611.6875 424.828125 601.984375 441.503906 C 605.210938 445.007812 607.902344 448.925781 608.875 454.1875 C 608.875 455.695312 608.875 457.195312 608.875 458.703125 C 605.976562 472.09375 593.511719 481.140625 573.042969 478.707031 C 567.777344 485.582031 558.40625 492.464844 543.824219 491.609375 C 536.285156 491.15625 531.042969 488.542969 526.453125 485.367188 C 521.617188 488.007812 516.378906 490.078125 508.8125 490.101562 C 491.308594 490.140625 479.597656 479.96875 479.3125 466.015625 C 468.0625 462.753906 460.4375 456.660156 458.363281 446.238281 C 458.363281 444.730469 458.363281 443.21875 458.363281 441.71875 C 460.652344 431.390625 467.863281 424.902344 479.863281 422.148438 C 479.140625 404.722656 503.144531 393.835938 522.867188 401.511719 C 527.5625 397.714844 534.207031 393.574219 543.820312 392.90625 Z M 543.820312 392.90625 " clip-rule="nonzero"/></clipPath><clipPath id="e499399bfa"><path d="M 0.363281 0.90625 L 151 0.90625 L 151 99.679688 L 0.363281 99.679688 Z M 0.363281 0.90625 " clip-rule="nonzero"/></clipPath><clipPath id="02b0f5f4e9"><path d="M 85.820312 0.90625 C 87.472656 0.90625 89.132812 0.90625 90.78125 0.90625 C 103.917969 2.554688 112.125 8.046875 115.867188 17.035156 C 137.765625 15.835938 153.6875 32.828125 143.984375 49.503906 C 147.210938 53.007812 149.902344 56.925781 150.875 62.1875 C 150.875 63.695312 150.875 65.195312 150.875 66.703125 C 147.976562 80.09375 135.511719 89.140625 115.042969 86.707031 C 109.777344 93.582031 100.40625 100.464844 85.824219 99.609375 C 78.285156 99.15625 73.042969 96.542969 68.453125 93.367188 C 63.617188 96.007812 58.378906 98.078125 50.8125 98.101562 C 33.308594 98.140625 21.597656 87.96875 21.3125 74.015625 C 10.0625 70.753906 2.4375 64.660156 0.363281 54.238281 C 0.363281 52.730469 0.363281 51.21875 0.363281 49.71875 C 2.652344 39.390625 9.863281 32.902344 21.863281 30.148438 C 21.140625 12.722656 45.144531 1.835938 64.867188 9.511719 C 69.5625 5.714844 76.207031 1.574219 85.820312 0.90625 Z M 85.820312 0.90625 " clip-rule="nonzero"/></clipPath><clipPath id="379dc57645"><rect x="0" width="151" y="0" height="100"/></clipPath><clipPath id="737af45fc4"><path d="M 199.289062 548.679688 L 321.886719 548.679688 L 321.886719 671.277344 L 199.289062 671.277344 Z M 199.289062 548.679688 " clip-rule="nonzero"/></clipPath><clipPath id="99e7055652"><path d="M 236.789062 548.679688 L 284.386719 548.679688 C 305.097656 548.679688 321.886719 565.46875 321.886719 586.179688 L 321.886719 633.777344 C 321.886719 654.488281 305.097656 671.277344 284.386719 671.277344 L 236.789062 671.277344 C 216.078125 671.277344 199.289062 654.488281 199.289062 633.777344 L 199.289062 586.179688 C 199.289062 565.46875 216.078125 548.679688 236.789062 548.679688 Z M 236.789062 548.679688 " clip-rule="nonzero"/></clipPath><clipPath id="4e2567974b"><path d="M 0.289062 0.679688 L 122.886719 0.679688 L 122.886719 123.277344 L 0.289062 123.277344 Z M 0.289062 0.679688 " clip-rule="nonzero"/></clipPath><clipPath id="c618794f49"><path d="M 37.789062 0.679688 L 85.386719 0.679688 C 106.097656 0.679688 122.886719 17.46875 122.886719 38.179688 L 122.886719 85.777344 C 122.886719 106.488281 106.097656 123.277344 85.386719 123.277344 L 37.789062 123.277344 C 17.078125 123.277344 0.289062 106.488281 0.289062 85.777344 L 0.289062 38.179688 C 0.289062 17.46875 17.078125 0.679688 37.789062 0.679688 Z M 37.789062 0.679688 " clip-rule="nonzero"/></clipPath><clipPath id="ef469378ee"><rect x="0" width="123" y="0" height="124"/></clipPath><clipPath id="2562e8f9ce"><path d="M 199.289062 548.679688 L 321.539062 548.679688 L 321.539062 670.929688 L 199.289062 670.929688 Z M 199.289062 548.679688 " clip-rule="nonzero"/></clipPath><clipPath id="ceb854f374"><path d="M 236.785156 548.679688 L 284.378906 548.679688 C 305.089844 548.679688 321.878906 565.46875 321.878906 586.179688 L 321.878906 633.773438 C 321.878906 654.480469 305.089844 671.269531 284.378906 671.269531 L 236.785156 671.269531 C 216.078125 671.269531 199.289062 654.480469 199.289062 633.773438 L 199.289062 586.179688 C 199.289062 565.46875 216.078125 548.679688 236.785156 548.679688 Z M 236.785156 548.679688 " clip-rule="nonzero"/></clipPath><clipPath id="4426644dee"><path d="M 481.980469 548.679688 L 604.578125 548.679688 L 604.578125 671.277344 L 481.980469 671.277344 Z M 481.980469 548.679688 " clip-rule="nonzero"/></clipPath><clipPath id="a997c2f207"><path d="M 519.480469 548.679688 L 567.078125 548.679688 C 587.789062 548.679688 604.578125 565.46875 604.578125 586.179688 L 604.578125 633.777344 C 604.578125 654.488281 587.789062 671.277344 567.078125 671.277344 L 519.480469 671.277344 C 498.769531 671.277344 481.980469 654.488281 481.980469 633.777344 L 481.980469 586.179688 C 481.980469 565.46875 498.769531 548.679688 519.480469 548.679688 Z M 519.480469 548.679688 " clip-rule="nonzero"/></clipPath><clipPath id="12648f5bdf"><path d="M 0.980469 0.679688 L 123.578125 0.679688 L 123.578125 123.277344 L 0.980469 123.277344 Z M 0.980469 0.679688 " clip-rule="nonzero"/></clipPath><clipPath id="d1ea6a23be"><path d="M 38.480469 0.679688 L 86.078125 0.679688 C 106.789062 0.679688 123.578125 17.46875 123.578125 38.179688 L 123.578125 85.777344 C 123.578125 106.488281 106.789062 123.277344 86.078125 123.277344 L 38.480469 123.277344 C 17.769531 123.277344 0.980469 106.488281 0.980469 85.777344 L 0.980469 38.179688 C 0.980469 17.46875 17.769531 0.679688 38.480469 0.679688 Z M 38.480469 0.679688 " clip-rule="nonzero"/></clipPath><clipPath id="5a94a381a6"><rect x="0" width="124" y="0" height="124"/></clipPath><clipPath id="b9801ed61b"><path d="M 481.980469 548.679688 L 604.230469 548.679688 L 604.230469 670.929688 L 481.980469 670.929688 Z M 481.980469 548.679688 " clip-rule="nonzero"/></clipPath><clipPath id="9120dc8b56"><path d="M 519.480469 548.679688 L 567.074219 548.679688 C 587.785156 548.679688 604.570312 565.46875 604.570312 586.179688 L 604.570312 633.773438 C 604.570312 654.480469 587.785156 671.269531 567.074219 671.269531 L 519.480469 671.269531 C 498.769531 671.269531 481.980469 654.480469 481.980469 633.773438 L 481.980469 586.179688 C 481.980469 565.46875 498.769531 548.679688 519.480469 548.679688 Z M 519.480469 548.679688 " clip-rule="nonzero"/></clipPath><clipPath id="176273faad"><path d="M 340.636719 548.679688 L 463.230469 548.679688 L 463.230469 671.277344 L 340.636719 671.277344 Z M 340.636719 548.679688 " clip-rule="nonzero"/></clipPath><clipPath id="68040002d7"><path d="M 378.136719 548.679688 L 425.730469 548.679688 C 446.441406 548.679688 463.230469 565.46875 463.230469 586.179688 L 463.230469 633.777344 C 463.230469 654.488281 446.441406 671.277344 425.730469 671.277344 L 378.136719 671.277344 C 357.425781 671.277344 340.636719 654.488281 340.636719 633.777344 L 340.636719 586.179688 C 340.636719 565.46875 357.425781 548.679688 378.136719 548.679688 Z M 378.136719 548.679688 " clip-rule="nonzero"/></clipPath><clipPath id="9424939433"><path d="M 0.636719 0.679688 L 123.230469 0.679688 L 123.230469 123.277344 L 0.636719 123.277344 Z M 0.636719 0.679688 " clip-rule="nonzero"/></clipPath><clipPath id="19f163a907"><path d="M 38.136719 0.679688 L 85.730469 0.679688 C 106.441406 0.679688 123.230469 17.46875 123.230469 38.179688 L 123.230469 85.777344 C 123.230469 106.488281 106.441406 123.277344 85.730469 123.277344 L 38.136719 123.277344 C 17.425781 123.277344 0.636719 106.488281 0.636719 85.777344 L 0.636719 38.179688 C 0.636719 17.46875 17.425781 0.679688 38.136719 0.679688 Z M 38.136719 0.679688 " clip-rule="nonzero"/></clipPath><clipPath id="7e7ecd4981"><rect x="0" width="124" y="0" height="124"/></clipPath><clipPath id="8299ac4498"><path d="M 340.636719 548.679688 L 462.886719 548.679688 L 462.886719 670.929688 L 340.636719 670.929688 Z M 340.636719 548.679688 " clip-rule="nonzero"/></clipPath><clipPath id="71a2b6c710"><path d="M 378.132812 548.679688 L 425.726562 548.679688 C 446.4375 548.679688 463.226562 565.46875 463.226562 586.179688 L 463.226562 633.773438 C 463.226562 654.480469 446.4375 671.269531 425.726562 671.269531 L 378.132812 671.269531 C 357.421875 671.269531 340.636719 654.480469 340.636719 633.773438 L 340.636719 586.179688 C 340.636719 565.46875 357.421875 548.679688 378.132812 548.679688 Z M 378.132812 548.679688 " clip-rule="nonzero"/></clipPath></defs><g clip-path="url(#5f64267e23)"><g clip-path="url(#02b166bfa8)"><g transform="matrix(1, 0, 0, 1, 51, 62)"><g clip-path="url(#8f9a50da5a)"><g clip-path="url(#4280312043)"><g clip-path="url(#afe583764f)"><path fill="#ffffff" d="M 0.394531 0.722656 L 707.605469 0.722656 L 707.605469 707.9375 L 0.394531 707.9375 Z M 0.394531 0.722656 " fill-opacity="1" fill-rule="nonzero"/></g></g></g></g></g></g><g clip-path="url(#f072c32ba0)"><g clip-path="url(#30207e3da8)"><path stroke-linecap="butt" transform="matrix(0.75, 0, 0, 0.75, 51.3926, 62.723842)" fill="none" stroke-linejoin="miter" d="M 99.997372 -0.00158053 L 842.940117 -0.00158053 C 898.169287 -0.00158053 942.934914 44.769255 942.934914 99.998425 L 942.934914 842.94117 C 942.934914 898.165131 898.169287 942.935967 842.940117 942.935967 L 99.997372 942.935967 C 44.768202 942.935967 0.00257485 898.165131 0.00257485 842.94117 L 0.00257485 99.998425 C 0.00257485 44.769255 44.768202 -0.00158053 99.997372 -0.00158053 Z M 99.997372 -0.00158053 " stroke="#67c7ff" stroke-width="120" stroke-opacity="1" stroke-miterlimit="4"/></g></g><g clip-path="url(#c7c921ca28)"><g clip-path="url(#8a1522251a)"><path stroke-linecap="butt" transform="matrix(0.75, 0, 0, 0.75, 47.329535, 60.807387)" fill="none" stroke-linejoin="miter" d="M 99.998119 0.00160961 L 854.560609 0.00160961 C 909.789775 0.00160961 954.560607 44.772442 954.560607 99.9964 L 954.560607 853.001598 C 954.560607 908.230764 909.789775 953.001597 854.560609 953.001597 L 99.998119 953.001597 C 44.768953 953.001597 -0.00187963 908.230764 -0.00187963 853.001598 L -0.00187963 99.9964 C -0.00187963 44.772442 44.768953 0.00160961 99.998119 0.00160961 Z M 99.998119 0.00160961 " stroke="#000000" stroke-width="20" stroke-opacity="1" stroke-miterlimit="4"/></g></g><g clip-path="url(#40e85d14af)"><g clip-path="url(#6cecdf16cb)"><g transform="matrix(1, 0, 0, 1, 88, 103)"><g clip-path="url(#5e640f47bb)"><g clip-path="url(#bba093908e)"><g clip-path="url(#a757a190aa)"><path fill="#ffffff" d="M 0.839844 0.125 L 632.148438 0.125 L 632.148438 626.539062 L 0.839844 626.539062 Z M 0.839844 0.125 " fill-opacity="1" fill-rule="nonzero"/></g></g></g></g></g></g><g clip-path="url(#70b7116225)"><g clip-path="url(#0dd215371c)"><path stroke-linecap="butt" transform="matrix(0.75, 0, 0, 0.75, 88.838181, 103.125483)" fill="none" stroke-linejoin="miter" d="M 51.00222 -0.000643749 L 792.096007 -0.000643749 C 805.62205 -0.000643749 818.5908 5.374357 828.158509 14.936857 C 837.72101 24.499357 843.09601 37.473316 843.09601 50.999359 L 843.09601 784.212937 C 843.09601 797.73898 837.72101 810.712939 828.158509 820.275439 C 818.5908 829.843148 805.62205 835.21294 792.096007 835.21294 L 51.00222 835.21294 C 37.476178 835.21294 24.502219 829.843148 14.939718 820.275439 C 5.372009 810.712939 0.00221749 797.73898 0.00221749 784.212937 L 0.00221749 50.999359 C 0.00221749 37.473316 5.372009 24.499357 14.939718 14.936857 C 24.502219 5.374357 37.476178 -0.000643749 51.00222 -0.000643749 Z M 51.00222 -0.000643749 " stroke="#000000" stroke-width="20" stroke-opacity="1" stroke-miterlimit="4"/></g></g><g clip-path="url(#2ae4ffe06e)"><g clip-path="url(#5dd8f44462)"><g transform="matrix(1, 0, 0, 1, 199, 161)"><g clip-path="url(#cbefac963b)"><g clip-path="url(#d93ee5396e)"><g clip-path="url(#f971720368)"><path fill="#d9d9d9" d="M 0.289062 0.535156 L 122.886719 0.535156 L 122.886719 123.128906 L 0.289062 123.128906 Z M 0.289062 0.535156 " fill-opacity="1" fill-rule="nonzero"/></g></g></g></g></g></g><g clip-path="url(#735f27fdd1)"><g clip-path="url(#19946cfdb8)"><path stroke-linecap="butt" transform="matrix(0.75, 0, 0, 0.75, 199.288808, 161.533973)" fill="none" stroke-linejoin="miter" d="M 49.99513 0.0015781 L 113.453463 0.0015781 C 141.068046 0.0015781 163.453462 22.386994 163.453462 49.996369 L 163.453462 113.454702 C 163.453462 141.069285 141.068046 163.454701 113.453463 163.454701 L 49.99513 163.454701 C 22.385756 163.454701 0.000339501 141.069285 0.000339501 113.454702 L 0.000339501 49.996369 C 0.000339501 22.386994 22.385756 0.0015781 49.99513 0.0015781 Z M 49.99513 0.0015781 " stroke="#000000" stroke-width="20" stroke-opacity="1" stroke-miterlimit="4"/></g></g><g clip-path="url(#e6ddaa12f9)"><g clip-path="url(#0de5615f56)"><g transform="matrix(1, 0, 0, 1, 481, 161)"><g clip-path="url(#d6bf110ab5)"><g clip-path="url(#de5ec09335)"><g clip-path="url(#5af55dbd55)"><path fill="#d9d9d9" d="M 0.980469 0.535156 L 123.578125 0.535156 L 123.578125 123.128906 L 0.980469 123.128906 Z M 0.980469 0.535156 " fill-opacity="1" fill-rule="nonzero"/></g></g></g></g></g></g><g clip-path="url(#9881a035ea)"><g clip-path="url(#df2fa6144f)"><path stroke-linecap="butt" transform="matrix(0.75, 0, 0, 0.75, 481.981923, 161.533973)" fill="none" stroke-linejoin="miter" d="M 49.99806 0.0015781 L 113.456392 0.0015781 C 141.070975 0.0015781 163.451183 22.386994 163.451183 49.996369 L 163.451183 113.454702 C 163.451183 141.069285 141.070975 163.454701 113.456392 163.454701 L 49.99806 163.454701 C 22.383477 163.454701 -0.00193934 141.069285 -0.00193934 113.454702 L -0.00193934 49.996369 C -0.00193934 22.386994 22.383477 0.0015781 49.99806 0.0015781 Z M 49.99806 0.0015781 " stroke="#000000" stroke-width="20" stroke-opacity="1" stroke-miterlimit="4"/></g></g><g clip-path="url(#2ef13bd619)"><g clip-path="url(#2373a526d3)"><g transform="matrix(1, 0, 0, 1, 340, 161)"><g clip-path="url(#8ac3d9025c)"><g clip-path="url(#2f8714d8db)"><g clip-path="url(#a58a2a87dd)"><path fill="#d9d9d9" d="M 0.636719 0.535156 L 123.230469 0.535156 L 123.230469 123.128906 L 0.636719 123.128906 Z M 0.636719 0.535156 " fill-opacity="1" fill-rule="nonzero"/></g></g></g></g></g></g><g clip-path="url(#83cb0dca78)"><g clip-path="url(#7a0369d194)"><path stroke-linecap="butt" transform="matrix(0.75, 0, 0, 0.75, 340.635368, 161.533973)" fill="none" stroke-linejoin="miter" d="M 49.996592 0.0015781 L 113.454924 0.0015781 C 141.069507 0.0015781 163.454924 22.386994 163.454924 49.996369 L 163.454924 113.454702 C 163.454924 141.069285 141.069507 163.454701 113.454924 163.454701 L 49.996592 163.454701 C 22.382009 163.454701 0.00180105 141.069285 0.00180105 113.454702 L 0.00180105 49.996369 C 0.00180105 22.386994 22.382009 0.0015781 49.996592 0.0015781 Z M 49.996592 0.0015781 " stroke="#000000" stroke-width="20" stroke-opacity="1" stroke-miterlimit="4"/></g></g><g clip-path="url(#64ebd0c20a)"><g clip-path="url(#7df4e853eb)"><g transform="matrix(1, 0, 0, 1, 123, 315)"><g clip-path="url(#b737f03b30)"><g clip-path="url(#bc238d137b)"><g clip-path="url(#8b9b1b8908)"><path fill="#d7f0ff" d="M 0.441406 0.628906 L 561.785156 0.628906 L 561.785156 202.179688 L 0.441406 202.179688 Z M 0.441406 0.628906 " fill-opacity="1" fill-rule="nonzero"/></g></g></g></g></g></g><g clip-path="url(#6e5fe5fd76)"><g clip-path="url(#03d2edf802)"><path stroke-linecap="butt" transform="matrix(0.75, 0, 0, 0.75, 123.448488, 315.630532)" fill="none" stroke-linejoin="miter" d="M 74.99577 -0.00216783 L 673.21455 -0.00216783 C 693.105176 -0.00216783 712.178094 7.898874 726.245803 21.966583 C 740.308304 36.029084 748.209346 55.10721 748.209346 74.997836 L 748.209346 193.7218 C 748.209346 213.612426 740.308304 232.690552 726.245803 246.753053 C 712.178094 260.815554 693.105176 268.716596 673.21455 268.716596 L 74.99577 268.716596 C 55.105144 268.716596 36.032227 260.815554 21.964518 246.753053 C 7.902017 232.690552 0.000974747 213.612426 0.000974747 193.7218 L 0.000974747 74.997836 C 0.000974747 55.10721 7.902017 36.029084 21.964518 21.966583 C 36.032227 7.898874 55.105144 -0.00216783 74.99577 -0.00216783 Z M 74.99577 -0.00216783 " stroke="#000000" stroke-width="20" stroke-opacity="1" stroke-miterlimit="4"/></g></g><g clip-path="url(#f671abcb38)"><g clip-path="url(#bcb0852320)"><g transform="matrix(1, 0, 0, 1, 308, 332)"><g clip-path="url(#7f526426f9)"><g clip-path="url(#39d8901466)"><g clip-path="url(#b064a9febc)"><path fill="#ffe372" d="M 0.398438 0.273438 L 173.980469 0.273438 L 173.980469 173.855469 L 0.398438 173.855469 Z M 0.398438 0.273438 " fill-opacity="1" fill-rule="nonzero"/></g></g></g></g></g></g><g clip-path="url(#eb94aab138)"><g clip-path="url(#5cc017c17a)"><g transform="matrix(1, 0, 0, 1, 175, 378)"><g clip-path="url(#e5a7c7edb4)"><g clip-path="url(#5a1b67f429)"><g clip-path="url(#fba791b5fa)"><path fill="#ffffff" d="M 0.921875 0.480469 L 151.398438 0.480469 L 151.398438 99.253906 L 0.921875 99.253906 Z M 0.921875 0.480469 " fill-opacity="1" fill-rule="nonzero"/></g></g></g></g></g></g><g clip-path="url(#94a6dd3e37)"><g clip-path="url(#397b042f87)"><g transform="matrix(1, 0, 0, 1, 395, 329)"><g clip-path="url(#08adbc46ce)"><g clip-path="url(#c458cd9d8e)"><g clip-path="url(#2121d62955)"><path fill="#ffffff" d="M 0.191406 0.09375 L 150.664062 0.09375 L 150.664062 98.867188 L 0.191406 98.867188 Z M 0.191406 0.09375 " fill-opacity="1" fill-rule="nonzero"/></g></g></g></g></g></g><g clip-path="url(#6e0b640a7f)"><g clip-path="url(#c6394e5118)"><g transform="matrix(1, 0, 0, 1, 458, 392)"><g clip-path="url(#379dc57645)"><g clip-path="url(#e499399bfa)"><g clip-path="url(#02b0f5f4e9)"><path fill="#ffffff" d="M 0.363281 0.90625 L 150.839844 0.90625 L 150.839844 99.679688 L 0.363281 99.679688 Z M 0.363281 0.90625 " fill-opacity="1" fill-rule="nonzero"/></g></g></g></g></g></g><g fill="#000000" fill-opacity="1"><g transform="translate(144.185607, 447.355896)"><g><path d="M 26.859375 -67.5 L 0.4375 -67.5 L 0.4375 -77.078125 L 64.1875 -77.078125 L 64.1875 -67.5 L 37.765625 -67.5 L 37.765625 0 L 26.859375 0 Z M 26.859375 -67.5 "/></g></g></g><g fill="#000000" fill-opacity="1"><g transform="translate(208.812953, 447.355896)"><g><path d="M 41.1875 -58.90625 C 48.59375 -58.90625 54.476562 -56.757812 58.84375 -52.46875 C 63.21875 -48.175781 65.40625 -41.878906 65.40625 -33.578125 L 65.40625 0 L 54.828125 0 L 54.828125 -32.375 C 54.828125 -38.019531 53.46875 -42.273438 50.75 -45.140625 C 48.039062 -48.003906 44.15625 -49.4375 39.09375 -49.4375 C 33.363281 -49.4375 28.847656 -47.765625 25.546875 -44.421875 C 22.242188 -41.085938 20.59375 -36.300781 20.59375 -30.0625 L 20.59375 0 L 10.015625 0 L 10.015625 -81.703125 L 20.59375 -81.703125 L 20.59375 -50.09375 C 22.789062 -52.882812 25.671875 -55.050781 29.234375 -56.59375 C 32.796875 -58.132812 36.78125 -58.90625 41.1875 -58.90625 Z M 41.1875 -58.90625 "/></g></g></g><g fill="#000000" fill-opacity="1"><g transform="translate(283.789489, 447.355896)"><g><path d="M 64.40625 -58.359375 L 64.40625 0 L 54.390625 0 L 54.390625 -8.8125 C 52.265625 -5.800781 49.457031 -3.46875 45.96875 -1.8125 C 42.476562 -0.164062 38.679688 0.65625 34.578125 0.65625 C 26.796875 0.65625 20.664062 -1.488281 16.1875 -5.78125 C 11.707031 -10.070312 9.46875 -16.40625 9.46875 -24.78125 L 9.46875 -58.359375 L 20.046875 -58.359375 L 20.046875 -25.984375 C 20.046875 -20.328125 21.398438 -16.050781 24.109375 -13.15625 C 26.828125 -10.257812 30.71875 -8.8125 35.78125 -8.8125 C 41.363281 -8.8125 45.769531 -10.5 49 -13.875 C 52.226562 -17.25 53.84375 -22.019531 53.84375 -28.1875 L 53.84375 -58.359375 Z M 64.40625 -58.359375 "/></g></g></g><g fill="#000000" fill-opacity="1"><g transform="translate(358.325633, 447.355896)"><g><path d="M 20.15625 -48.5625 C 21.988281 -51.9375 24.703125 -54.503906 28.296875 -56.265625 C 31.890625 -58.023438 36.257812 -58.90625 41.40625 -58.90625 L 41.40625 -48.671875 C 40.8125 -48.742188 40.003906 -48.78125 38.984375 -48.78125 C 33.253906 -48.78125 28.753906 -47.070312 25.484375 -43.65625 C 22.222656 -40.238281 20.59375 -35.375 20.59375 -29.0625 L 20.59375 0 L 10.015625 0 L 10.015625 -58.359375 L 20.15625 -58.359375 Z M 20.15625 -48.5625 "/></g></g></g><g fill="#000000" fill-opacity="1"><g transform="translate(403.135361, 447.355896)"><g><path d="M 26.75 0.65625 C 21.976562 0.65625 17.390625 0.015625 12.984375 -1.265625 C 8.585938 -2.546875 5.140625 -4.179688 2.640625 -6.171875 L 7.046875 -14.53125 C 9.617188 -12.695312 12.738281 -11.226562 16.40625 -10.125 C 20.070312 -9.03125 23.78125 -8.484375 27.53125 -8.484375 C 36.78125 -8.484375 41.40625 -11.125 41.40625 -16.40625 C 41.40625 -18.164062 40.78125 -19.554688 39.53125 -20.578125 C 38.28125 -21.609375 36.71875 -22.363281 34.84375 -22.84375 C 32.976562 -23.320312 30.316406 -23.851562 26.859375 -24.4375 C 22.160156 -25.175781 18.328125 -26.019531 15.359375 -26.96875 C 12.390625 -27.925781 9.835938 -29.539062 7.703125 -31.8125 C 5.578125 -34.09375 4.515625 -37.289062 4.515625 -41.40625 C 4.515625 -46.6875 6.71875 -50.921875 11.125 -54.109375 C 15.53125 -57.304688 21.4375 -58.90625 28.84375 -58.90625 C 32.738281 -58.90625 36.628906 -58.425781 40.515625 -57.46875 C 44.410156 -56.519531 47.601562 -55.238281 50.09375 -53.625 L 45.578125 -45.25 C 40.804688 -48.332031 35.191406 -49.875 28.734375 -49.875 C 24.253906 -49.875 20.835938 -49.140625 18.484375 -47.671875 C 16.140625 -46.203125 14.96875 -44.257812 14.96875 -41.84375 C 14.96875 -39.9375 15.628906 -38.429688 16.953125 -37.328125 C 18.273438 -36.222656 19.910156 -35.414062 21.859375 -34.90625 C 23.804688 -34.394531 26.539062 -33.804688 30.0625 -33.140625 C 34.757812 -32.335938 38.554688 -31.472656 41.453125 -30.546875 C 44.359375 -29.628906 46.835938 -28.070312 48.890625 -25.875 C 50.941406 -23.675781 51.96875 -20.59375 51.96875 -16.625 C 51.96875 -11.34375 49.707031 -7.140625 45.1875 -4.015625 C 40.675781 -0.898438 34.53125 0.65625 26.75 0.65625 Z M 26.75 0.65625 "/></g></g></g><g fill="#000000" fill-opacity="1"><g transform="translate(458.294324, 447.355896)"><g><path d="M 65.078125 -81.703125 L 65.078125 0 L 54.9375 0 L 54.9375 -9.25 C 52.59375 -6.019531 49.617188 -3.5625 46.015625 -1.875 C 42.421875 -0.1875 38.460938 0.65625 34.140625 0.65625 C 28.484375 0.65625 23.414062 -0.585938 18.9375 -3.078125 C 14.457031 -5.578125 10.953125 -9.082031 8.421875 -13.59375 C 5.890625 -18.113281 4.625 -23.304688 4.625 -29.171875 C 4.625 -35.046875 5.890625 -40.222656 8.421875 -44.703125 C 10.953125 -49.179688 14.457031 -52.664062 18.9375 -55.15625 C 23.414062 -57.65625 28.484375 -58.90625 34.140625 -58.90625 C 38.316406 -58.90625 42.164062 -58.113281 45.6875 -56.53125 C 49.21875 -54.957031 52.15625 -52.628906 54.5 -49.546875 L 54.5 -81.703125 Z M 35.015625 -8.59375 C 38.679688 -8.59375 42.019531 -9.453125 45.03125 -11.171875 C 48.039062 -12.898438 50.390625 -15.320312 52.078125 -18.4375 C 53.765625 -21.5625 54.609375 -25.140625 54.609375 -29.171875 C 54.609375 -33.210938 53.765625 -36.789062 52.078125 -39.90625 C 50.390625 -43.03125 48.039062 -45.4375 45.03125 -47.125 C 42.019531 -48.8125 38.679688 -49.65625 35.015625 -49.65625 C 31.273438 -49.65625 27.914062 -48.8125 24.9375 -47.125 C 21.96875 -45.4375 19.617188 -43.03125 17.890625 -39.90625 C 16.171875 -36.789062 15.3125 -33.210938 15.3125 -29.171875 C 15.3125 -25.140625 16.171875 -21.5625 17.890625 -18.4375 C 19.617188 -15.320312 21.96875 -12.898438 24.9375 -11.171875 C 27.914062 -9.453125 31.273438 -8.59375 35.015625 -8.59375 Z M 35.015625 -8.59375 "/></g></g></g><g fill="#000000" fill-opacity="1"><g transform="translate(533.38093, 447.355896)"><g><path d="M 31.265625 -58.90625 C 39.347656 -58.90625 45.535156 -56.921875 49.828125 -52.953125 C 54.117188 -48.992188 56.265625 -43.085938 56.265625 -35.234375 L 56.265625 0 L 46.25 0 L 46.25 -7.703125 C 44.488281 -4.992188 41.972656 -2.921875 38.703125 -1.484375 C 35.429688 -0.0546875 31.5625 0.65625 27.09375 0.65625 C 20.550781 0.65625 15.316406 -0.921875 11.390625 -4.078125 C 7.460938 -7.234375 5.5 -11.378906 5.5 -16.515625 C 5.5 -21.648438 7.367188 -25.773438 11.109375 -28.890625 C 14.859375 -32.015625 20.804688 -33.578125 28.953125 -33.578125 L 45.703125 -33.578125 L 45.703125 -35.671875 C 45.703125 -40.222656 44.378906 -43.707031 41.734375 -46.125 C 39.085938 -48.550781 35.195312 -49.765625 30.0625 -49.765625 C 26.613281 -49.765625 23.234375 -49.195312 19.921875 -48.0625 C 16.617188 -46.925781 13.832031 -45.40625 11.5625 -43.5 L 7.15625 -51.421875 C 10.164062 -53.835938 13.757812 -55.6875 17.9375 -56.96875 C 22.125 -58.257812 26.566406 -58.90625 31.265625 -58.90625 Z M 28.84375 -7.484375 C 32.882812 -7.484375 36.375 -8.378906 39.3125 -10.171875 C 42.25 -11.972656 44.378906 -14.53125 45.703125 -17.84375 L 45.703125 -25.984375 L 29.40625 -25.984375 C 20.445312 -25.984375 15.96875 -22.972656 15.96875 -16.953125 C 15.96875 -14.015625 17.101562 -11.703125 19.375 -10.015625 C 21.65625 -8.328125 24.8125 -7.484375 28.84375 -7.484375 Z M 28.84375 -7.484375 "/></g></g></g><g fill="#000000" fill-opacity="1"><g transform="translate(598.118323, 447.355896)"><g><path d="M 61.65625 -58.359375 L 33.359375 5.828125 C 30.867188 11.773438 27.953125 15.957031 24.609375 18.375 C 21.265625 20.800781 17.242188 22.015625 12.546875 22.015625 C 9.691406 22.015625 6.921875 21.554688 4.234375 20.640625 C 1.554688 19.722656 -0.660156 18.382812 -2.421875 16.625 L 2.09375 8.703125 C 5.101562 11.566406 8.585938 13 12.546875 13 C 15.117188 13 17.265625 12.316406 18.984375 10.953125 C 20.710938 9.597656 22.273438 7.269531 23.671875 3.96875 L 25.546875 -0.109375 L -0.21875 -58.359375 L 10.796875 -58.359375 L 31.15625 -11.671875 L 51.3125 -58.359375 Z M 61.65625 -58.359375 "/></g></g></g><g fill="#000000" fill-opacity="1"><g transform="translate(230.366622, 244.957244)"><g><path d="M 47.171875 0 L 47.109375 -29.703125 L 32.390625 -5.125 L 28.671875 -5.125 L 13.953125 -29.3125 L 13.953125 0 L 6.015625 0 L 6.015625 -44.796875 L 12.859375 -44.796875 L 30.65625 -15.109375 L 48.125 -44.796875 L 54.96875 -44.796875 L 55.046875 0 Z M 47.171875 0 "/></g></g></g><g fill="#000000" fill-opacity="1"><g transform="translate(506.670866, 244.957244)"><g><path d="M 71.484375 -44.796875 L 56.640625 0 L 47.8125 0 L 36.734375 -33.15625 L 25.46875 0 L 16.578125 0 L 1.734375 -44.796875 L 10.375 -44.796875 L 21.5 -10.75 L 33.09375 -44.796875 L 40.765625 -44.796875 L 52.09375 -10.5625 L 63.546875 -44.796875 Z M 71.484375 -44.796875 "/></g></g></g><g fill="#000000" fill-opacity="1"><g transform="translate(361.58562, 244.957244)"><g><path d="M 15.109375 -37.765625 L 0.25 -37.765625 L 0.25 -44.796875 L 38.265625 -44.796875 L 38.265625 -37.765625 L 23.421875 -37.765625 L 23.421875 0 L 15.109375 0 Z M 15.109375 -37.765625 "/></g></g></g><g fill="#000000" fill-opacity="1"><g transform="translate(399.279298, 244.957244)"><g><path d="M 38.328125 -34.171875 L 38.328125 0 L 30.71875 0 L 30.71875 -4.359375 C 29.4375 -2.816406 27.835938 -1.628906 25.921875 -0.796875 C 24.003906 0.0351562 21.9375 0.453125 19.71875 0.453125 C 15.144531 0.453125 11.546875 -0.816406 8.921875 -3.359375 C 6.296875 -5.898438 4.984375 -9.664062 4.984375 -14.65625 L 4.984375 -34.171875 L 12.984375 -34.171875 L 12.984375 -15.75 C 12.984375 -12.675781 13.675781 -10.378906 15.0625 -8.859375 C 16.457031 -7.347656 18.429688 -6.59375 20.984375 -6.59375 C 23.847656 -6.59375 26.125 -7.476562 27.8125 -9.25 C 29.5 -11.019531 30.34375 -13.566406 30.34375 -16.890625 L 30.34375 -34.171875 Z M 38.328125 -34.171875 "/></g></g></g><g clip-path="url(#737af45fc4)"><g clip-path="url(#99e7055652)"><g transform="matrix(1, 0, 0, 1, 199, 548)"><g clip-path="url(#ef469378ee)"><g clip-path="url(#4e2567974b)"><g clip-path="url(#c618794f49)"><path fill="#67c7ff" d="M 0.289062 0.679688 L 122.886719 0.679688 L 122.886719 123.277344 L 0.289062 123.277344 Z M 0.289062 0.679688 " fill-opacity="1" fill-rule="nonzero"/></g></g></g></g></g></g><g clip-path="url(#2562e8f9ce)"><g clip-path="url(#ceb854f374)"><path stroke-linecap="butt" transform="matrix(0.75, 0, 0, 0.75, 199.288808, 548.68012)" fill="none" stroke-linejoin="miter" d="M 49.99513 -0.000577196 L 113.453463 -0.000577196 C 141.068046 -0.000577196 163.453462 22.384839 163.453462 49.999422 L 163.453462 113.457755 C 163.453462 141.067129 141.068046 163.452546 113.453463 163.452546 L 49.99513 163.452546 C 22.385756 163.452546 0.000339501 141.067129 0.000339501 113.457755 L 0.000339501 49.999422 C 0.000339501 22.384839 22.385756 -0.000577196 49.99513 -0.000577196 Z M 49.99513 -0.000577196 " stroke="#000000" stroke-width="20" stroke-opacity="1" stroke-miterlimit="4"/></g></g><g clip-path="url(#4426644dee)"><g clip-path="url(#a997c2f207)"><g transform="matrix(1, 0, 0, 1, 481, 548)"><g clip-path="url(#5a94a381a6)"><g clip-path="url(#12648f5bdf)"><g clip-path="url(#d1ea6a23be)"><path fill="#67c7ff" d="M 0.980469 0.679688 L 123.578125 0.679688 L 123.578125 123.277344 L 0.980469 123.277344 Z M 0.980469 0.679688 " fill-opacity="1" fill-rule="nonzero"/></g></g></g></g></g></g><g clip-path="url(#b9801ed61b)"><g clip-path="url(#9120dc8b56)"><path stroke-linecap="butt" transform="matrix(0.75, 0, 0, 0.75, 481.981923, 548.68012)" fill="none" stroke-linejoin="miter" d="M 49.99806 -0.000577196 L 113.456392 -0.000577196 C 141.070975 -0.000577196 163.451183 22.384839 163.451183 49.999422 L 163.451183 113.457755 C 163.451183 141.067129 141.070975 163.452546 113.456392 163.452546 L 49.99806 163.452546 C 22.383477 163.452546 -0.00193934 141.067129 -0.00193934 113.457755 L -0.00193934 49.999422 C -0.00193934 22.384839 22.383477 -0.000577196 49.99806 -0.000577196 Z M 49.99806 -0.000577196 " stroke="#000000" stroke-width="20" stroke-opacity="1" stroke-miterlimit="4"/></g></g><g clip-path="url(#176273faad)"><g clip-path="url(#68040002d7)"><g transform="matrix(1, 0, 0, 1, 340, 548)"><g clip-path="url(#7e7ecd4981)"><g clip-path="url(#9424939433)"><g clip-path="url(#19f163a907)"><path fill="#67c7ff" d="M 0.636719 0.679688 L 123.230469 0.679688 L 123.230469 123.277344 L 0.636719 123.277344 Z M 0.636719 0.679688 " fill-opacity="1" fill-rule="nonzero"/></g></g></g></g></g></g><g clip-path="url(#8299ac4498)"><g clip-path="url(#71a2b6c710)"><path stroke-linecap="butt" transform="matrix(0.75, 0, 0, 0.75, 340.635368, 548.68012)" fill="none" stroke-linejoin="miter" d="M 49.996592 -0.000577196 L 113.454924 -0.000577196 C 141.069507 -0.000577196 163.454924 22.384839 163.454924 49.999422 L 163.454924 113.457755 C 163.454924 141.067129 141.069507 163.452546 113.454924 163.452546 L 49.996592 163.452546 C 22.382009 163.452546 0.00180105 141.067129 0.00180105 113.457755 L 0.00180105 49.999422 C 0.00180105 22.384839 22.382009 -0.000577196 49.996592 -0.000577196 Z M 49.996592 -0.000577196 " stroke="#000000" stroke-width="20" stroke-opacity="1" stroke-miterlimit="4"/></g></g><g fill="#000000" fill-opacity="1"><g transform="translate(240.541427, 632.103396)"><g><path d="M 14.34375 -37.828125 L 14.34375 -24.1875 L 35.96875 -24.1875 L 35.96875 -17.15625 L 14.34375 -17.15625 L 14.34375 0 L 6.015625 0 L 6.015625 -44.796875 L 38.71875 -44.796875 L 38.71875 -37.828125 Z M 14.34375 -37.828125 "/></g></g></g><g fill="#000000" fill-opacity="1"><g transform="translate(501.35933, 632.103396)"><g><path d="M 19.90625 0.640625 C 16.445312 0.640625 13.109375 0.148438 9.890625 -0.828125 C 6.671875 -1.804688 4.117188 -3.109375 2.234375 -4.734375 L 5.125 -11.203125 C 6.957031 -9.753906 9.207031 -8.566406 11.875 -7.640625 C 14.539062 -6.722656 17.21875 -6.265625 19.90625 -6.265625 C 23.226562 -6.265625 25.710938 -6.796875 27.359375 -7.859375 C 29.003906 -8.929688 29.828125 -10.34375 29.828125 -12.09375 C 29.828125 -13.375 29.367188 -14.429688 28.453125 -15.265625 C 27.535156 -16.097656 26.367188 -16.75 24.953125 -17.21875 C 23.546875 -17.6875 21.628906 -18.21875 19.203125 -18.8125 C 15.785156 -19.625 13.019531 -20.4375 10.90625 -21.25 C 8.800781 -22.0625 6.988281 -23.328125 5.46875 -25.046875 C 3.957031 -26.773438 3.203125 -29.113281 3.203125 -32.0625 C 3.203125 -34.539062 3.875 -36.789062 5.21875 -38.8125 C 6.5625 -40.84375 8.585938 -42.453125 11.296875 -43.640625 C 14.003906 -44.835938 17.320312 -45.4375 21.25 -45.4375 C 23.976562 -45.4375 26.664062 -45.09375 29.3125 -44.40625 C 31.957031 -43.726562 34.238281 -42.75 36.15625 -41.46875 L 33.53125 -35.015625 C 31.570312 -36.160156 29.523438 -37.03125 27.390625 -37.625 C 25.253906 -38.226562 23.1875 -38.53125 21.1875 -38.53125 C 17.894531 -38.53125 15.445312 -37.972656 13.84375 -36.859375 C 12.25 -35.753906 11.453125 -34.285156 11.453125 -32.453125 C 11.453125 -31.171875 11.910156 -30.125 12.828125 -29.3125 C 13.742188 -28.5 14.90625 -27.859375 16.3125 -27.390625 C 17.726562 -26.921875 19.648438 -26.390625 22.078125 -25.796875 C 25.410156 -25.023438 28.140625 -24.222656 30.265625 -23.390625 C 32.398438 -22.554688 34.222656 -21.285156 35.734375 -19.578125 C 37.253906 -17.878906 38.015625 -15.578125 38.015625 -12.671875 C 38.015625 -10.191406 37.34375 -7.945312 36 -5.9375 C 34.65625 -3.9375 32.617188 -2.335938 29.890625 -1.140625 C 27.160156 0.046875 23.832031 0.640625 19.90625 0.640625 Z M 19.90625 0.640625 "/></g></g></g><g fill="#000000" fill-opacity="1"><g transform="translate(541.612857, 632.103396)"><g><path d="M 38.328125 -34.171875 L 38.328125 0 L 30.71875 0 L 30.71875 -4.359375 C 29.4375 -2.816406 27.835938 -1.628906 25.921875 -0.796875 C 24.003906 0.0351562 21.9375 0.453125 19.71875 0.453125 C 15.144531 0.453125 11.546875 -0.816406 8.921875 -3.359375 C 6.296875 -5.898438 4.984375 -9.664062 4.984375 -14.65625 L 4.984375 -34.171875 L 12.984375 -34.171875 L 12.984375 -15.75 C 12.984375 -12.675781 13.675781 -10.378906 15.0625 -8.859375 C 16.457031 -7.347656 18.429688 -6.59375 20.984375 -6.59375 C 23.847656 -6.59375 26.125 -7.476562 27.8125 -9.25 C 29.5 -11.019531 30.34375 -13.566406 30.34375 -16.890625 L 30.34375 -34.171875 Z M 38.328125 -34.171875 "/></g></g></g><g fill="#000000" fill-opacity="1"><g transform="translate(362.675464, 632.103396)"><g><path d="M 19.90625 0.640625 C 16.445312 0.640625 13.109375 0.148438 9.890625 -0.828125 C 6.671875 -1.804688 4.117188 -3.109375 2.234375 -4.734375 L 5.125 -11.203125 C 6.957031 -9.753906 9.207031 -8.566406 11.875 -7.640625 C 14.539062 -6.722656 17.21875 -6.265625 19.90625 -6.265625 C 23.226562 -6.265625 25.710938 -6.796875 27.359375 -7.859375 C 29.003906 -8.929688 29.828125 -10.34375 29.828125 -12.09375 C 29.828125 -13.375 29.367188 -14.429688 28.453125 -15.265625 C 27.535156 -16.097656 26.367188 -16.75 24.953125 -17.21875 C 23.546875 -17.6875 21.628906 -18.21875 19.203125 -18.8125 C 15.785156 -19.625 13.019531 -20.4375 10.90625 -21.25 C 8.800781 -22.0625 6.988281 -23.328125 5.46875 -25.046875 C 3.957031 -26.773438 3.203125 -29.113281 3.203125 -32.0625 C 3.203125 -34.539062 3.875 -36.789062 5.21875 -38.8125 C 6.5625 -40.84375 8.585938 -42.453125 11.296875 -43.640625 C 14.003906 -44.835938 17.320312 -45.4375 21.25 -45.4375 C 23.976562 -45.4375 26.664062 -45.09375 29.3125 -44.40625 C 31.957031 -43.726562 34.238281 -42.75 36.15625 -41.46875 L 33.53125 -35.015625 C 31.570312 -36.160156 29.523438 -37.03125 27.390625 -37.625 C 25.253906 -38.226562 23.1875 -38.53125 21.1875 -38.53125 C 17.894531 -38.53125 15.445312 -37.972656 13.84375 -36.859375 C 12.25 -35.753906 11.453125 -34.285156 11.453125 -32.453125 C 11.453125 -31.171875 11.910156 -30.125 12.828125 -29.3125 C 13.742188 -28.5 14.90625 -27.859375 16.3125 -27.390625 C 17.726562 -26.921875 19.648438 -26.390625 22.078125 -25.796875 C 25.410156 -25.023438 28.140625 -24.222656 30.265625 -23.390625 C 32.398438 -22.554688 34.222656 -21.285156 35.734375 -19.578125 C 37.253906 -17.878906 38.015625 -15.578125 38.015625 -12.671875 C 38.015625 -10.191406 37.34375 -7.945312 36 -5.9375 C 34.65625 -3.9375 32.617188 -2.335938 29.890625 -1.140625 C 27.160156 0.046875 23.832031 0.640625 19.90625 0.640625 Z M 19.90625 0.640625 "/></g></g></g><g fill="#000000" fill-opacity="1"><g transform="translate(402.928991, 632.103396)"><g><path d="M 18.296875 -34.5625 C 23.335938 -34.5625 27.191406 -33.351562 29.859375 -30.9375 C 32.523438 -28.53125 33.859375 -24.894531 33.859375 -20.03125 L 33.859375 0 L 26.296875 0 L 26.296875 -4.15625 C 25.316406 -2.664062 23.921875 -1.523438 22.109375 -0.734375 C 20.296875 0.0546875 18.109375 0.453125 15.546875 0.453125 C 12.992188 0.453125 10.753906 0.015625 8.828125 -0.859375 C 6.910156 -1.734375 5.425781 -2.945312 4.375 -4.5 C 3.332031 -6.0625 2.8125 -7.828125 2.8125 -9.796875 C 2.8125 -12.867188 3.953125 -15.332031 6.234375 -17.1875 C 8.515625 -19.039062 12.113281 -19.96875 17.03125 -19.96875 L 25.859375 -19.96875 L 25.859375 -20.484375 C 25.859375 -22.867188 25.140625 -24.703125 23.703125 -25.984375 C 22.273438 -27.265625 20.15625 -27.90625 17.34375 -27.90625 C 15.425781 -27.90625 13.535156 -27.601562 11.671875 -27 C 9.816406 -26.40625 8.25 -25.578125 6.96875 -24.515625 L 3.84375 -30.34375 C 5.632812 -31.707031 7.785156 -32.75 10.296875 -33.46875 C 12.816406 -34.195312 15.484375 -34.5625 18.296875 -34.5625 Z M 17.21875 -5.375 C 19.21875 -5.375 20.992188 -5.832031 22.546875 -6.75 C 24.109375 -7.664062 25.210938 -8.976562 25.859375 -10.6875 L 25.859375 -14.65625 L 17.59375 -14.65625 C 12.988281 -14.65625 10.6875 -13.140625 10.6875 -10.109375 C 10.6875 -8.660156 11.257812 -7.507812 12.40625 -6.65625 C 13.5625 -5.800781 15.164062 -5.375 17.21875 -5.375 Z M 17.21875 -5.375 "/></g></g></g></svg>