<svg xmlns="http://www.w3.org/2000/svg" xmlns:xlink="http://www.w3.org/1999/xlink" width="500" zoomAndPan="magnify" viewBox="0 0 375 374.999991" height="500" preserveAspectRatio="xMidYMid meet" version="1.0"><defs><g/><clipPath id="1e0a6138a5"><path d="M 155.792969 269.546875 L 218.625 269.546875 L 218.625 332.378906 L 155.792969 332.378906 Z M 155.792969 269.546875 " clip-rule="nonzero"/></clipPath><clipPath id="3f9313717a"><path d="M 173.042969 269.546875 L 201.375 269.546875 C 205.949219 269.546875 210.335938 271.363281 213.570312 274.597656 C 216.808594 277.832031 218.625 282.222656 218.625 286.796875 L 218.625 315.128906 C 218.625 319.703125 216.808594 324.089844 213.570312 327.324219 C 210.335938 330.558594 205.949219 332.378906 201.375 332.378906 L 173.042969 332.378906 C 168.46875 332.378906 164.082031 330.558594 160.84375 327.324219 C 157.609375 324.089844 155.792969 319.703125 155.792969 315.128906 L 155.792969 286.796875 C 155.792969 282.222656 157.609375 277.832031 160.84375 274.597656 C 164.082031 271.363281 168.46875 269.546875 173.042969 269.546875 Z M 173.042969 269.546875 " clip-rule="nonzero"/></clipPath><clipPath id="8a1062fffc"><path d="M 0.792969 0.546875 L 63.625 0.546875 L 63.625 63.378906 L 0.792969 63.378906 Z M 0.792969 0.546875 " clip-rule="nonzero"/></clipPath><clipPath id="a7bcd7de1c"><path d="M 18.042969 0.546875 L 46.375 0.546875 C 50.949219 0.546875 55.335938 2.363281 58.570312 5.597656 C 61.808594 8.832031 63.625 13.222656 63.625 17.796875 L 63.625 46.128906 C 63.625 50.703125 61.808594 55.089844 58.570312 58.324219 C 55.335938 61.558594 50.949219 63.378906 46.375 63.378906 L 18.042969 63.378906 C 13.46875 63.378906 9.082031 61.558594 5.84375 58.324219 C 2.609375 55.089844 0.792969 50.703125 0.792969 46.128906 L 0.792969 17.796875 C 0.792969 13.222656 2.609375 8.832031 5.84375 5.597656 C 9.082031 2.363281 13.46875 0.546875 18.042969 0.546875 Z M 18.042969 0.546875 " clip-rule="nonzero"/></clipPath><clipPath id="b138ed0a25"><rect x="0" width="64" y="0" height="64"/></clipPath><clipPath id="cc9febdba5"><path d="M 155.792969 269.546875 L 218.792969 269.546875 L 218.792969 332.546875 L 155.792969 332.546875 Z M 155.792969 269.546875 " clip-rule="nonzero"/></clipPath><clipPath id="499d6208db"><path d="M 173.042969 269.546875 L 201.367188 269.546875 C 205.945312 269.546875 210.332031 271.363281 213.566406 274.597656 C 216.800781 277.832031 218.617188 282.21875 218.617188 286.792969 L 218.617188 315.121094 C 218.617188 319.695312 216.800781 324.085938 213.566406 327.320312 C 210.332031 330.554688 205.945312 332.371094 201.367188 332.371094 L 173.042969 332.371094 C 168.464844 332.371094 164.078125 330.554688 160.84375 327.320312 C 157.609375 324.085938 155.792969 319.695312 155.792969 315.121094 L 155.792969 286.792969 C 155.792969 282.21875 157.609375 277.832031 160.84375 274.597656 C 164.078125 271.363281 168.464844 269.546875 173.042969 269.546875 Z M 173.042969 269.546875 " clip-rule="nonzero"/></clipPath><clipPath id="501ae9032e"><path d="M 234.71875 269.546875 L 297.550781 269.546875 L 297.550781 332.378906 L 234.71875 332.378906 Z M 234.71875 269.546875 " clip-rule="nonzero"/></clipPath><clipPath id="edf8752b01"><path d="M 251.96875 269.546875 L 280.300781 269.546875 C 284.875 269.546875 289.261719 271.363281 292.5 274.597656 C 295.734375 277.832031 297.550781 282.222656 297.550781 286.796875 L 297.550781 315.128906 C 297.550781 319.703125 295.734375 324.089844 292.5 327.324219 C 289.261719 330.558594 284.875 332.378906 280.300781 332.378906 L 251.96875 332.378906 C 247.394531 332.378906 243.007812 330.558594 239.773438 327.324219 C 236.535156 324.089844 234.71875 319.703125 234.71875 315.128906 L 234.71875 286.796875 C 234.71875 282.222656 236.535156 277.832031 239.773438 274.597656 C 243.007812 271.363281 247.394531 269.546875 251.96875 269.546875 Z M 251.96875 269.546875 " clip-rule="nonzero"/></clipPath><clipPath id="d8009d5e44"><path d="M 0.71875 0.546875 L 63.550781 0.546875 L 63.550781 63.378906 L 0.71875 63.378906 Z M 0.71875 0.546875 " clip-rule="nonzero"/></clipPath><clipPath id="5d47b3bb99"><path d="M 17.96875 0.546875 L 46.300781 0.546875 C 50.875 0.546875 55.261719 2.363281 58.5 5.597656 C 61.734375 8.832031 63.550781 13.222656 63.550781 17.796875 L 63.550781 46.128906 C 63.550781 50.703125 61.734375 55.089844 58.5 58.324219 C 55.261719 61.558594 50.875 63.378906 46.300781 63.378906 L 17.96875 63.378906 C 13.394531 63.378906 9.007812 61.558594 5.773438 58.324219 C 2.535156 55.089844 0.71875 50.703125 0.71875 46.128906 L 0.71875 17.796875 C 0.71875 13.222656 2.535156 8.832031 5.773438 5.597656 C 9.007812 2.363281 13.394531 0.546875 17.96875 0.546875 Z M 17.96875 0.546875 " clip-rule="nonzero"/></clipPath><clipPath id="b7405a33e7"><rect x="0" width="64" y="0" height="64"/></clipPath><clipPath id="30177494fd"><path d="M 234.71875 269.546875 L 297.71875 269.546875 L 297.71875 332.546875 L 234.71875 332.546875 Z M 234.71875 269.546875 " clip-rule="nonzero"/></clipPath><clipPath id="0c625557cf"><path d="M 251.96875 269.546875 L 280.296875 269.546875 C 284.871094 269.546875 289.257812 271.363281 292.492188 274.597656 C 295.726562 277.832031 297.542969 282.21875 297.542969 286.792969 L 297.542969 315.121094 C 297.542969 319.695312 295.726562 324.085938 292.492188 327.320312 C 289.257812 330.554688 284.871094 332.371094 280.296875 332.371094 L 251.96875 332.371094 C 247.394531 332.371094 243.007812 330.554688 239.773438 327.320312 C 236.535156 324.085938 234.71875 319.695312 234.71875 315.121094 L 234.71875 286.792969 C 234.71875 282.21875 236.535156 277.832031 239.773438 274.597656 C 243.007812 271.363281 247.394531 269.546875 251.96875 269.546875 Z M 251.96875 269.546875 " clip-rule="nonzero"/></clipPath><clipPath id="ea1eed6f03"><path d="M 77.058594 46.878906 L 139.890625 46.878906 L 139.890625 109.710938 L 77.058594 109.710938 Z M 77.058594 46.878906 " clip-rule="nonzero"/></clipPath><clipPath id="34437d3cdc"><path d="M 94.308594 46.878906 L 122.640625 46.878906 C 127.214844 46.878906 131.605469 48.695312 134.839844 51.929688 C 138.074219 55.167969 139.890625 59.554688 139.890625 64.128906 L 139.890625 92.460938 C 139.890625 97.035156 138.074219 101.421875 134.839844 104.65625 C 131.605469 107.890625 127.214844 109.710938 122.640625 109.710938 L 94.308594 109.710938 C 89.734375 109.710938 85.347656 107.890625 82.113281 104.65625 C 78.878906 101.421875 77.058594 97.035156 77.058594 92.460938 L 77.058594 64.128906 C 77.058594 59.554688 78.878906 55.167969 82.113281 51.929688 C 85.347656 48.695312 89.734375 46.878906 94.308594 46.878906 Z M 94.308594 46.878906 " clip-rule="nonzero"/></clipPath><clipPath id="8c5492d9fe"><path d="M 0.0585938 0.878906 L 62.890625 0.878906 L 62.890625 63.710938 L 0.0585938 63.710938 Z M 0.0585938 0.878906 " clip-rule="nonzero"/></clipPath><clipPath id="2c77c6f5ce"><path d="M 17.308594 0.878906 L 45.640625 0.878906 C 50.214844 0.878906 54.605469 2.695312 57.839844 5.929688 C 61.074219 9.167969 62.890625 13.554688 62.890625 18.128906 L 62.890625 46.460938 C 62.890625 51.035156 61.074219 55.421875 57.839844 58.65625 C 54.605469 61.890625 50.214844 63.710938 45.640625 63.710938 L 17.308594 63.710938 C 12.734375 63.710938 8.347656 61.890625 5.113281 58.65625 C 1.878906 55.421875 0.0585938 51.035156 0.0585938 46.460938 L 0.0585938 18.128906 C 0.0585938 13.554688 1.878906 9.167969 5.113281 5.929688 C 8.347656 2.695312 12.734375 0.878906 17.308594 0.878906 Z M 17.308594 0.878906 " clip-rule="nonzero"/></clipPath><clipPath id="232643196d"><rect x="0" width="63" y="0" height="64"/></clipPath><clipPath id="c0b57a3241"><path d="M 77.058594 46.878906 L 140 46.878906 L 140 109.878906 L 77.058594 109.878906 Z M 77.058594 46.878906 " clip-rule="nonzero"/></clipPath><clipPath id="82e7bdb647"><path d="M 94.308594 46.878906 L 122.636719 46.878906 C 127.210938 46.878906 131.597656 48.695312 134.832031 51.929688 C 138.066406 55.164062 139.882812 59.550781 139.882812 64.125 L 139.882812 92.453125 C 139.882812 97.03125 138.066406 101.417969 134.832031 104.652344 C 131.597656 107.886719 127.210938 109.703125 122.636719 109.703125 L 94.308594 109.703125 C 89.734375 109.703125 85.347656 107.886719 82.113281 104.652344 C 78.878906 101.417969 77.058594 97.03125 77.058594 92.453125 L 77.058594 64.125 C 77.058594 59.550781 78.878906 55.164062 82.113281 51.929688 C 85.347656 48.695312 89.734375 46.878906 94.308594 46.878906 Z M 94.308594 46.878906 " clip-rule="nonzero"/></clipPath><clipPath id="767bfeaae2"><path d="M 155.988281 46.878906 L 218.820312 46.878906 L 218.820312 109.710938 L 155.988281 109.710938 Z M 155.988281 46.878906 " clip-rule="nonzero"/></clipPath><clipPath id="c889af8b5d"><path d="M 173.238281 46.878906 L 201.570312 46.878906 C 206.144531 46.878906 210.53125 48.695312 213.765625 51.929688 C 217 55.167969 218.820312 59.554688 218.820312 64.128906 L 218.820312 92.460938 C 218.820312 97.035156 217 101.421875 213.765625 104.65625 C 210.53125 107.890625 206.144531 109.710938 201.570312 109.710938 L 173.238281 109.710938 C 168.664062 109.710938 164.273438 107.890625 161.039062 104.65625 C 157.804688 101.421875 155.988281 97.035156 155.988281 92.460938 L 155.988281 64.128906 C 155.988281 59.554688 157.804688 55.167969 161.039062 51.929688 C 164.273438 48.695312 168.664062 46.878906 173.238281 46.878906 Z M 173.238281 46.878906 " clip-rule="nonzero"/></clipPath><clipPath id="c78b81a20e"><path d="M 0.988281 0.878906 L 63.820312 0.878906 L 63.820312 63.710938 L 0.988281 63.710938 Z M 0.988281 0.878906 " clip-rule="nonzero"/></clipPath><clipPath id="f8eec4e651"><path d="M 18.238281 0.878906 L 46.570312 0.878906 C 51.144531 0.878906 55.53125 2.695312 58.765625 5.929688 C 62 9.167969 63.820312 13.554688 63.820312 18.128906 L 63.820312 46.460938 C 63.820312 51.035156 62 55.421875 58.765625 58.65625 C 55.53125 61.890625 51.144531 63.710938 46.570312 63.710938 L 18.238281 63.710938 C 13.664062 63.710938 9.273438 61.890625 6.039062 58.65625 C 2.804688 55.421875 0.988281 51.035156 0.988281 46.460938 L 0.988281 18.128906 C 0.988281 13.554688 2.804688 9.167969 6.039062 5.929688 C 9.273438 2.695312 13.664062 0.878906 18.238281 0.878906 Z M 18.238281 0.878906 " clip-rule="nonzero"/></clipPath><clipPath id="d77ab7c30b"><rect x="0" width="64" y="0" height="64"/></clipPath><clipPath id="364ef5ff43"><path d="M 155.988281 46.878906 L 218.988281 46.878906 L 218.988281 109.878906 L 155.988281 109.878906 Z M 155.988281 46.878906 " clip-rule="nonzero"/></clipPath><clipPath id="d8e03fbede"><path d="M 173.234375 46.878906 L 201.5625 46.878906 C 206.136719 46.878906 210.523438 48.695312 213.757812 51.929688 C 216.996094 55.164062 218.8125 59.550781 218.8125 64.125 L 218.8125 92.453125 C 218.8125 97.03125 216.996094 101.417969 213.757812 104.652344 C 210.523438 107.886719 206.136719 109.703125 201.5625 109.703125 L 173.234375 109.703125 C 168.660156 109.703125 164.273438 107.886719 161.039062 104.652344 C 157.804688 101.417969 155.988281 97.03125 155.988281 92.453125 L 155.988281 64.125 C 155.988281 59.550781 157.804688 55.164062 161.039062 51.929688 C 164.273438 48.695312 168.660156 46.878906 173.234375 46.878906 Z M 173.234375 46.878906 " clip-rule="nonzero"/></clipPath><clipPath id="0772f06adb"><path d="M 234.914062 46.878906 L 297.746094 46.878906 L 297.746094 109.710938 L 234.914062 109.710938 Z M 234.914062 46.878906 " clip-rule="nonzero"/></clipPath><clipPath id="c7c328fd0b"><path d="M 252.164062 46.878906 L 280.496094 46.878906 C 285.070312 46.878906 289.457031 48.695312 292.691406 51.929688 C 295.925781 55.167969 297.746094 59.554688 297.746094 64.128906 L 297.746094 92.460938 C 297.746094 97.035156 295.925781 101.421875 292.691406 104.65625 C 289.457031 107.890625 285.070312 109.710938 280.496094 109.710938 L 252.164062 109.710938 C 247.589844 109.710938 243.203125 107.890625 239.964844 104.65625 C 236.730469 101.421875 234.914062 97.035156 234.914062 92.460938 L 234.914062 64.128906 C 234.914062 59.554688 236.730469 55.167969 239.964844 51.929688 C 243.203125 48.695312 247.589844 46.878906 252.164062 46.878906 Z M 252.164062 46.878906 " clip-rule="nonzero"/></clipPath><clipPath id="0cac7164cb"><path d="M 0.914062 0.878906 L 63.746094 0.878906 L 63.746094 63.710938 L 0.914062 63.710938 Z M 0.914062 0.878906 " clip-rule="nonzero"/></clipPath><clipPath id="34ec004739"><path d="M 18.164062 0.878906 L 46.496094 0.878906 C 51.070312 0.878906 55.457031 2.695312 58.691406 5.929688 C 61.925781 9.167969 63.746094 13.554688 63.746094 18.128906 L 63.746094 46.460938 C 63.746094 51.035156 61.925781 55.421875 58.691406 58.65625 C 55.457031 61.890625 51.070312 63.710938 46.496094 63.710938 L 18.164062 63.710938 C 13.589844 63.710938 9.203125 61.890625 5.964844 58.65625 C 2.730469 55.421875 0.914062 51.035156 0.914062 46.460938 L 0.914062 18.128906 C 0.914062 13.554688 2.730469 9.167969 5.964844 5.929688 C 9.203125 2.695312 13.589844 0.878906 18.164062 0.878906 Z M 18.164062 0.878906 " clip-rule="nonzero"/></clipPath><clipPath id="addd85e129"><rect x="0" width="64" y="0" height="64"/></clipPath><clipPath id="b55429dc1c"><path d="M 234.914062 46.878906 L 297.914062 46.878906 L 297.914062 109.878906 L 234.914062 109.878906 Z M 234.914062 46.878906 " clip-rule="nonzero"/></clipPath><clipPath id="1c4d136fe8"><path d="M 252.164062 46.878906 L 280.488281 46.878906 C 285.066406 46.878906 289.453125 48.695312 292.6875 51.929688 C 295.921875 55.164062 297.738281 59.550781 297.738281 64.125 L 297.738281 92.453125 C 297.738281 97.03125 295.921875 101.417969 292.6875 104.652344 C 289.453125 107.886719 285.066406 109.703125 280.488281 109.703125 L 252.164062 109.703125 C 247.585938 109.703125 243.199219 107.886719 239.964844 104.652344 C 236.730469 101.417969 234.914062 97.03125 234.914062 92.453125 L 234.914062 64.125 C 234.914062 59.550781 236.730469 55.164062 239.964844 51.929688 C 243.199219 48.695312 247.585938 46.878906 252.164062 46.878906 Z M 252.164062 46.878906 " clip-rule="nonzero"/></clipPath><clipPath id="625b5e3a6c"><path d="M 76.058594 269.546875 L 138.886719 269.546875 L 138.886719 332.378906 L 76.058594 332.378906 Z M 76.058594 269.546875 " clip-rule="nonzero"/></clipPath><clipPath id="9462615575"><path d="M 93.308594 269.546875 L 121.636719 269.546875 C 126.214844 269.546875 130.601562 271.363281 133.835938 274.597656 C 137.070312 277.832031 138.886719 282.222656 138.886719 286.796875 L 138.886719 315.128906 C 138.886719 319.703125 137.070312 324.089844 133.835938 327.324219 C 130.601562 330.558594 126.214844 332.378906 121.636719 332.378906 L 93.308594 332.378906 C 88.734375 332.378906 84.34375 330.558594 81.109375 327.324219 C 77.875 324.089844 76.058594 319.703125 76.058594 315.128906 L 76.058594 286.796875 C 76.058594 282.222656 77.875 277.832031 81.109375 274.597656 C 84.34375 271.363281 88.734375 269.546875 93.308594 269.546875 Z M 93.308594 269.546875 " clip-rule="nonzero"/></clipPath><clipPath id="3b07937b68"><path d="M 0.0585938 0.546875 L 62.886719 0.546875 L 62.886719 63.378906 L 0.0585938 63.378906 Z M 0.0585938 0.546875 " clip-rule="nonzero"/></clipPath><clipPath id="6367fd13df"><path d="M 17.308594 0.546875 L 45.636719 0.546875 C 50.214844 0.546875 54.601562 2.363281 57.835938 5.597656 C 61.070312 8.832031 62.886719 13.222656 62.886719 17.796875 L 62.886719 46.128906 C 62.886719 50.703125 61.070312 55.089844 57.835938 58.324219 C 54.601562 61.558594 50.214844 63.378906 45.636719 63.378906 L 17.308594 63.378906 C 12.734375 63.378906 8.34375 61.558594 5.109375 58.324219 C 1.875 55.089844 0.0585938 50.703125 0.0585938 46.128906 L 0.0585938 17.796875 C 0.0585938 13.222656 1.875 8.832031 5.109375 5.597656 C 8.34375 2.363281 12.734375 0.546875 17.308594 0.546875 Z M 17.308594 0.546875 " clip-rule="nonzero"/></clipPath><clipPath id="40e307d1ca"><rect x="0" width="63" y="0" height="64"/></clipPath><clipPath id="b0c3d42b16"><path d="M 76.058594 269.546875 L 139 269.546875 L 139 332.546875 L 76.058594 332.546875 Z M 76.058594 269.546875 " clip-rule="nonzero"/></clipPath><clipPath id="394ec20b72"><path d="M 93.304688 269.546875 L 121.632812 269.546875 C 126.207031 269.546875 130.59375 271.363281 133.828125 274.597656 C 137.0625 277.832031 138.882812 282.21875 138.882812 286.792969 L 138.882812 315.121094 C 138.882812 319.695312 137.0625 324.085938 133.828125 327.320312 C 130.59375 330.554688 126.207031 332.371094 121.632812 332.371094 L 93.304688 332.371094 C 88.730469 332.371094 84.34375 330.554688 81.109375 327.320312 C 77.875 324.085938 76.058594 319.695312 76.058594 315.121094 L 76.058594 286.792969 C 76.058594 282.21875 77.875 277.832031 81.109375 274.597656 C 84.34375 271.363281 88.730469 269.546875 93.304688 269.546875 Z M 93.304688 269.546875 " clip-rule="nonzero"/></clipPath><clipPath id="9fe4bc6c75"><path d="M 37.5 136.5625 L 337.519531 136.5625 L 337.519531 237.488281 L 37.5 237.488281 Z M 37.5 136.5625 " clip-rule="nonzero"/></clipPath><clipPath id="132f6c3ebc"><path d="M 54.75 136.5625 L 320.25 136.5625 C 324.824219 136.5625 329.210938 138.378906 332.449219 141.613281 C 335.683594 144.847656 337.5 149.238281 337.5 153.8125 L 337.5 220.238281 C 337.5 224.8125 335.683594 229.199219 332.449219 232.433594 C 329.210938 235.671875 324.824219 237.488281 320.25 237.488281 L 54.75 237.488281 C 50.175781 237.488281 45.789062 235.671875 42.550781 232.433594 C 39.316406 229.199219 37.5 224.8125 37.5 220.238281 L 37.5 153.8125 C 37.5 149.238281 39.316406 144.847656 42.550781 141.613281 C 45.789062 138.378906 50.175781 136.5625 54.75 136.5625 Z M 54.75 136.5625 " clip-rule="nonzero"/></clipPath><clipPath id="952e92d1e2"><path d="M 0.5 0.5625 L 300.519531 0.5625 L 300.519531 101.488281 L 0.5 101.488281 Z M 0.5 0.5625 " clip-rule="nonzero"/></clipPath><clipPath id="896d9a5d91"><path d="M 17.75 0.5625 L 283.25 0.5625 C 287.824219 0.5625 292.210938 2.378906 295.449219 5.613281 C 298.683594 8.847656 300.5 13.238281 300.5 17.8125 L 300.5 84.238281 C 300.5 88.8125 298.683594 93.199219 295.449219 96.433594 C 292.210938 99.671875 287.824219 101.488281 283.25 101.488281 L 17.75 101.488281 C 13.175781 101.488281 8.789062 99.671875 5.550781 96.433594 C 2.316406 93.199219 0.5 88.8125 0.5 84.238281 L 0.5 17.8125 C 0.5 13.238281 2.316406 8.847656 5.550781 5.613281 C 8.789062 2.378906 13.175781 0.5625 17.75 0.5625 Z M 17.75 0.5625 " clip-rule="nonzero"/></clipPath><clipPath id="4b0b8c4063"><rect x="0" width="301" y="0" height="102"/></clipPath><clipPath id="e5340ce7f9"><path d="M 37.507812 136.5625 L 337.5 136.5625 L 337.5 237.8125 L 37.507812 237.8125 Z M 37.507812 136.5625 " clip-rule="nonzero"/></clipPath><clipPath id="4602b7796b"><path d="M 54.753906 136.5625 L 320.246094 136.5625 C 324.820312 136.5625 329.207031 138.378906 332.441406 141.613281 C 335.675781 144.847656 337.492188 149.234375 337.492188 153.8125 L 337.492188 220.234375 C 337.492188 224.808594 335.675781 229.195312 332.441406 232.429688 C 329.207031 235.667969 324.820312 237.484375 320.246094 237.484375 L 54.753906 237.484375 C 50.179688 237.484375 45.792969 235.667969 42.558594 232.429688 C 39.324219 229.195312 37.507812 224.808594 37.507812 220.234375 L 37.507812 153.8125 C 37.507812 149.234375 39.324219 144.847656 42.558594 141.613281 C 45.792969 138.378906 50.179688 136.5625 54.753906 136.5625 Z M 54.753906 136.5625 " clip-rule="nonzero"/></clipPath><clipPath id="201fa16624"><path d="M 138.929688 137.554688 L 236.96875 137.554688 L 236.96875 235.59375 L 138.929688 235.59375 Z M 138.929688 137.554688 " clip-rule="nonzero"/></clipPath><clipPath id="beaad38b49"><path d="M 187.949219 137.554688 C 160.878906 137.554688 138.929688 159.503906 138.929688 186.574219 C 138.929688 213.648438 160.878906 235.59375 187.949219 235.59375 C 215.023438 235.59375 236.96875 213.648438 236.96875 186.574219 C 236.96875 159.503906 215.023438 137.554688 187.949219 137.554688 Z M 187.949219 137.554688 " clip-rule="nonzero"/></clipPath><clipPath id="32f97578bd"><path d="M 0.929688 0.554688 L 98.96875 0.554688 L 98.96875 98.59375 L 0.929688 98.59375 Z M 0.929688 0.554688 " clip-rule="nonzero"/></clipPath><clipPath id="3ea2bcdc25"><path d="M 49.949219 0.554688 C 22.878906 0.554688 0.929688 22.503906 0.929688 49.574219 C 0.929688 76.648438 22.878906 98.59375 49.949219 98.59375 C 77.023438 98.59375 98.96875 76.648438 98.96875 49.574219 C 98.96875 22.503906 77.023438 0.554688 49.949219 0.554688 Z M 49.949219 0.554688 " clip-rule="nonzero"/></clipPath><clipPath id="83cd1c6d09"><rect x="0" width="99" y="0" height="99"/></clipPath><clipPath id="6ce5961624"><path d="M 221.664062 180.296875 L 334.199219 180.296875 L 334.199219 235.59375 L 221.664062 235.59375 Z M 221.664062 180.296875 " clip-rule="nonzero"/></clipPath><clipPath id="8aeaf15242"><path d="M 267.09375 180.296875 C 277.933594 180.296875 287.441406 185.097656 292.792969 192.308594 C 297.496094 189.664062 303.320312 189.003906 308.820312 190.980469 C 314.957031 193.1875 319.242188 198.164062 320.746094 203.933594 C 328.367188 205.242188 334.160156 211.773438 334.164062 219.640625 C 334.164062 228.453125 326.898438 235.59375 317.9375 235.59375 L 237.886719 235.59375 C 228.398438 235.59375 221.664062 229.332031 221.664062 219.640625 C 221.664062 211.15625 228.402344 204.21875 236.910156 203.722656 C 238.175781 190.609375 251.203125 180.296875 267.09375 180.296875 Z M 267.09375 180.296875 " clip-rule="nonzero"/></clipPath><clipPath id="14c2b43b3c"><path d="M 0.664062 0.296875 L 113.199219 0.296875 L 113.199219 55.59375 L 0.664062 55.59375 Z M 0.664062 0.296875 " clip-rule="nonzero"/></clipPath><clipPath id="ceddaa82ae"><path d="M 46.09375 0.296875 C 56.933594 0.296875 66.441406 5.097656 71.792969 12.308594 C 76.496094 9.664062 82.320312 9.003906 87.820312 10.980469 C 93.957031 13.1875 98.242188 18.164062 99.746094 23.933594 C 107.367188 25.242188 113.160156 31.773438 113.164062 39.640625 C 113.164062 48.453125 105.898438 55.59375 96.9375 55.59375 L 16.886719 55.59375 C 7.398438 55.59375 0.664062 49.332031 0.664062 39.640625 C 0.664062 31.15625 7.402344 24.21875 15.910156 23.722656 C 17.175781 10.609375 30.203125 0.296875 46.09375 0.296875 Z M 46.09375 0.296875 " clip-rule="nonzero"/></clipPath><clipPath id="50537132f2"><rect x="0" width="114" y="0" height="56"/></clipPath><clipPath id="9696c448bd"><path d="M 109.460938 159.078125 L 222 159.078125 L 222 232.90625 L 109.460938 232.90625 Z M 109.460938 159.078125 " clip-rule="nonzero"/></clipPath><clipPath id="8261bfbf8c"><path d="M 173.335938 159.078125 C 174.566406 159.078125 175.808594 159.078125 177.042969 159.078125 C 186.859375 160.3125 192.996094 164.417969 195.789062 171.132812 C 212.160156 170.238281 224.0625 182.9375 216.808594 195.402344 C 219.21875 198.019531 221.234375 200.949219 221.960938 204.882812 C 221.960938 206.007812 221.960938 207.132812 221.960938 208.257812 C 219.792969 218.269531 210.476562 225.03125 195.175781 223.210938 C 191.238281 228.347656 184.234375 233.496094 173.335938 232.851562 C 167.703125 232.515625 163.785156 230.5625 160.351562 228.1875 C 156.738281 230.160156 152.824219 231.710938 147.167969 231.726562 C 134.082031 231.757812 125.332031 224.152344 125.117188 213.726562 C 116.707031 211.285156 111.011719 206.734375 109.460938 198.941406 C 109.460938 197.816406 109.460938 196.6875 109.460938 195.566406 C 111.171875 187.84375 116.558594 182.992188 125.527344 180.9375 C 124.988281 167.914062 142.933594 159.773438 157.671875 165.511719 C 161.183594 162.675781 166.148438 159.578125 173.335938 159.078125 Z M 173.335938 159.078125 " clip-rule="nonzero"/></clipPath><clipPath id="73fe78c1aa"><path d="M 0.460938 0.078125 L 113 0.078125 L 113 73.90625 L 0.460938 73.90625 Z M 0.460938 0.078125 " clip-rule="nonzero"/></clipPath><clipPath id="2df87a0f0e"><path d="M 64.335938 0.078125 C 65.566406 0.078125 66.808594 0.078125 68.042969 0.078125 C 77.859375 1.3125 83.996094 5.417969 86.789062 12.132812 C 103.160156 11.238281 115.0625 23.9375 107.808594 36.402344 C 110.21875 39.019531 112.234375 41.949219 112.960938 45.882812 C 112.960938 47.007812 112.960938 48.132812 112.960938 49.257812 C 110.792969 59.269531 101.476562 66.03125 86.175781 64.210938 C 82.238281 69.347656 75.234375 74.496094 64.335938 73.851562 C 58.703125 73.515625 54.785156 71.5625 51.351562 69.1875 C 47.738281 71.160156 43.824219 72.710938 38.167969 72.726562 C 25.082031 72.757812 16.332031 65.152344 16.117188 54.726562 C 7.707031 52.285156 2.011719 47.734375 0.460938 39.941406 C 0.460938 38.816406 0.460938 37.6875 0.460938 36.566406 C 2.171875 28.84375 7.558594 23.992188 16.527344 21.9375 C 15.988281 8.914062 33.933594 0.773438 48.671875 6.511719 C 52.183594 3.675781 57.148438 0.578125 64.335938 0.078125 Z M 64.335938 0.078125 " clip-rule="nonzero"/></clipPath><clipPath id="c3f7d6d30c"><rect x="0" width="113" y="0" height="74"/></clipPath></defs><g clip-path="url(#1e0a6138a5)"><g clip-path="url(#3f9313717a)"><g transform="matrix(1, 0, 0, 1, 155, 269)"><g clip-path="url(#b138ed0a25)"><g clip-path="url(#8a1062fffc)"><g clip-path="url(#a7bcd7de1c)"><path fill="#38b6ff" d="M 0.792969 0.546875 L 63.625 0.546875 L 63.625 63.378906 L 0.792969 63.378906 Z M 0.792969 0.546875 " fill-opacity="1" fill-rule="nonzero"/></g></g></g></g></g></g><g clip-path="url(#cc9febdba5)"><g clip-path="url(#499d6208db)"><path stroke-linecap="butt" transform="matrix(0.75, 0, 0, 0.75, 155.792939, 269.546349)" fill="none" stroke-linejoin="miter" d="M 23.000041 0.000701734 L 60.765669 0.000701734 C 66.869836 0.000701734 72.718794 2.422577 77.031295 6.735077 C 81.343795 11.047577 83.76567 16.896536 83.76567 22.995495 L 83.76567 60.766331 C 83.76567 66.865289 81.343795 72.719457 77.031295 77.031957 C 72.718794 81.344457 66.869836 83.766332 60.765669 83.766332 L 23.000041 83.766332 C 16.895874 83.766332 11.046915 81.344457 6.734415 77.031957 C 2.421915 72.719457 0.0000395739 66.865289 0.0000395739 60.766331 L 0.0000395739 22.995495 C 0.0000395739 16.896536 2.421915 11.047577 6.734415 6.735077 C 11.046915 2.422577 16.895874 0.000701734 23.000041 0.000701734 Z M 23.000041 0.000701734 " stroke="#000000" stroke-width="4" stroke-opacity="1" stroke-miterlimit="4"/></g></g><g clip-path="url(#501ae9032e)"><g clip-path="url(#edf8752b01)"><g transform="matrix(1, 0, 0, 1, 234, 269)"><g clip-path="url(#b7405a33e7)"><g clip-path="url(#d8009d5e44)"><g clip-path="url(#5d47b3bb99)"><path fill="#38b6ff" d="M 0.71875 0.546875 L 63.550781 0.546875 L 63.550781 63.378906 L 0.71875 63.378906 Z M 0.71875 0.546875 " fill-opacity="1" fill-rule="nonzero"/></g></g></g></g></g></g><g clip-path="url(#30177494fd)"><g clip-path="url(#0c625557cf)"><path stroke-linecap="butt" transform="matrix(0.75, 0, 0, 0.75, 234.719667, 269.546349)" fill="none" stroke-linejoin="miter" d="M 22.998778 0.000701734 L 60.769614 0.000701734 C 66.868573 0.000701734 72.717531 2.422577 77.030032 6.735077 C 81.342532 11.047577 83.764407 16.896536 83.764407 22.995495 L 83.764407 60.766331 C 83.764407 66.865289 81.342532 72.719457 77.030032 77.031957 C 72.717531 81.344457 66.868573 83.766332 60.769614 83.766332 L 22.998778 83.766332 C 16.899819 83.766332 11.050861 81.344457 6.73836 77.031957 C 2.420652 72.719457 -0.00122332 66.865289 -0.00122332 60.766331 L -0.00122332 22.995495 C -0.00122332 16.896536 2.420652 11.047577 6.73836 6.735077 C 11.050861 2.422577 16.899819 0.000701734 22.998778 0.000701734 Z M 22.998778 0.000701734 " stroke="#000000" stroke-width="4" stroke-opacity="1" stroke-miterlimit="4"/></g></g><g clip-path="url(#ea1eed6f03)"><g clip-path="url(#34437d3cdc)"><g transform="matrix(1, 0, 0, 1, 77, 46)"><g clip-path="url(#232643196d)"><g clip-path="url(#8c5492d9fe)"><g clip-path="url(#2c77c6f5ce)"><path fill="#d9d9d9" d="M 0.0585938 0.878906 L 62.890625 0.878906 L 62.890625 63.710938 L 0.0585938 63.710938 Z M 0.0585938 0.878906 " fill-opacity="1" fill-rule="nonzero"/></g></g></g></g></g></g><g clip-path="url(#c0b57a3241)"><g clip-path="url(#82e7bdb647)"><path stroke-linecap="butt" transform="matrix(0.75, 0, 0, 0.75, 77.060529, 46.878806)" fill="none" stroke-linejoin="miter" d="M 22.997421 0.000134038 L 60.768257 0.000134038 C 66.867216 0.000134038 72.716174 2.422009 77.028675 6.734509 C 81.341175 11.04701 83.76305 16.895968 83.76305 22.994927 L 83.76305 60.765763 C 83.76305 66.86993 81.341175 72.718889 77.028675 77.031389 C 72.716174 81.343889 66.867216 83.765765 60.768257 83.765765 L 22.997421 83.765765 C 16.898462 83.765765 11.049504 81.343889 6.737003 77.031389 C 2.424503 72.718889 -0.00258039 66.86993 -0.00258039 60.765763 L -0.00258039 22.994927 C -0.00258039 16.895968 2.424503 11.04701 6.737003 6.734509 C 11.049504 2.422009 16.898462 0.000134038 22.997421 0.000134038 Z M 22.997421 0.000134038 " stroke="#000000" stroke-width="4" stroke-opacity="1" stroke-miterlimit="4"/></g></g><g clip-path="url(#767bfeaae2)"><g clip-path="url(#c889af8b5d)"><g transform="matrix(1, 0, 0, 1, 155, 46)"><g clip-path="url(#d77ab7c30b)"><g clip-path="url(#c78b81a20e)"><g clip-path="url(#f8eec4e651)"><path fill="#d9d9d9" d="M 0.988281 0.878906 L 63.820312 0.878906 L 63.820312 63.710938 L 0.988281 63.710938 Z M 0.988281 0.878906 " fill-opacity="1" fill-rule="nonzero"/></g></g></g></g></g></g><g clip-path="url(#364ef5ff43)"><g clip-path="url(#d8e03fbede)"><path stroke-linecap="butt" transform="matrix(0.75, 0, 0, 0.75, 155.987265, 46.878806)" fill="none" stroke-linejoin="miter" d="M 22.996149 0.000134038 L 60.766984 0.000134038 C 66.865943 0.000134038 72.714902 2.422009 77.027402 6.734509 C 81.345111 11.04701 83.766986 16.895968 83.766986 22.994927 L 83.766986 60.765763 C 83.766986 66.86993 81.345111 72.718889 77.027402 77.031389 C 72.714902 81.343889 66.865943 83.765765 60.766984 83.765765 L 22.996149 83.765765 C 16.89719 83.765765 11.048231 81.343889 6.735731 77.031389 C 2.423231 72.718889 0.00135546 66.86993 0.00135546 60.765763 L 0.00135546 22.994927 C 0.00135546 16.895968 2.423231 11.04701 6.735731 6.734509 C 11.048231 2.422009 16.89719 0.000134038 22.996149 0.000134038 Z M 22.996149 0.000134038 " stroke="#000000" stroke-width="4" stroke-opacity="1" stroke-miterlimit="4"/></g></g><g clip-path="url(#0772f06adb)"><g clip-path="url(#c7c328fd0b)"><g transform="matrix(1, 0, 0, 1, 234, 46)"><g clip-path="url(#addd85e129)"><g clip-path="url(#0cac7164cb)"><g clip-path="url(#34ec004739)"><path fill="#d9d9d9" d="M 0.914062 0.878906 L 63.746094 0.878906 L 63.746094 63.710938 L 0.914062 63.710938 Z M 0.914062 0.878906 " fill-opacity="1" fill-rule="nonzero"/></g></g></g></g></g></g><g clip-path="url(#b55429dc1c)"><g clip-path="url(#1c4d136fe8)"><path stroke-linecap="butt" transform="matrix(0.75, 0, 0, 0.75, 234.914007, 46.878806)" fill="none" stroke-linejoin="miter" d="M 23.000075 0.000134038 L 60.765702 0.000134038 C 66.869869 0.000134038 72.718828 2.422009 77.031328 6.734509 C 81.343829 11.04701 83.765704 16.895968 83.765704 22.994927 L 83.765704 60.765763 C 83.765704 66.86993 81.343829 72.718889 77.031328 77.031389 C 72.718828 81.343889 66.869869 83.765765 60.765702 83.765765 L 23.000075 83.765765 C 16.895908 83.765765 11.046949 81.343889 6.734449 77.031389 C 2.421949 72.718889 0.000073368 66.86993 0.000073368 60.765763 L 0.000073368 22.994927 C 0.000073368 16.895968 2.421949 11.04701 6.734449 6.734509 C 11.046949 2.422009 16.895908 0.000134038 23.000075 0.000134038 Z M 23.000075 0.000134038 " stroke="#000000" stroke-width="4" stroke-opacity="1" stroke-miterlimit="4"/></g></g><g clip-path="url(#625b5e3a6c)"><g clip-path="url(#9462615575)"><g transform="matrix(1, 0, 0, 1, 76, 269)"><g clip-path="url(#40e307d1ca)"><g clip-path="url(#3b07937b68)"><g clip-path="url(#6367fd13df)"><path fill="#38b6ff" d="M 0.0585938 0.546875 L 62.886719 0.546875 L 62.886719 63.378906 L 0.0585938 63.378906 Z M 0.0585938 0.546875 " fill-opacity="1" fill-rule="nonzero"/></g></g></g></g></g></g><g clip-path="url(#b0c3d42b16)"><g clip-path="url(#394ec20b72)"><path stroke-linecap="butt" transform="matrix(0.75, 0, 0, 0.75, 76.057425, 269.546349)" fill="none" stroke-linejoin="miter" d="M 22.996351 0.000701734 L 60.767187 0.000701734 C 66.866146 0.000701734 72.715105 2.422577 77.027605 6.735077 C 81.340105 11.047577 83.767189 16.896536 83.767189 22.995495 L 83.767189 60.766331 C 83.767189 66.865289 81.340105 72.719457 77.027605 77.031957 C 72.715105 81.344457 66.866146 83.766332 60.767187 83.766332 L 22.996351 83.766332 C 16.897393 83.766332 11.048434 81.344457 6.735934 77.031957 C 2.423433 72.719457 0.00155819 66.865289 0.00155819 60.766331 L 0.00155819 22.995495 C 0.00155819 16.896536 2.423433 11.047577 6.735934 6.735077 C 11.048434 2.422577 16.897393 0.000701734 22.996351 0.000701734 Z M 22.996351 0.000701734 " stroke="#000000" stroke-width="4" stroke-opacity="1" stroke-miterlimit="4"/></g></g><g clip-path="url(#9fe4bc6c75)"><g clip-path="url(#132f6c3ebc)"><g transform="matrix(1, 0, 0, 1, 37, 136)"><g clip-path="url(#4b0b8c4063)"><g clip-path="url(#952e92d1e2)"><g clip-path="url(#896d9a5d91)"><path fill="#a5deff" d="M 0.5 0.5625 L 300.519531 0.5625 L 300.519531 101.488281 L 0.5 101.488281 Z M 0.5 0.5625 " fill-opacity="1" fill-rule="nonzero"/></g></g></g></g></g></g><g clip-path="url(#e5340ce7f9)"><g clip-path="url(#4602b7796b)"><path stroke-linecap="butt" transform="matrix(0.75, 0, 0, 0.75, 37.506228, 136.561748)" fill="none" stroke-linejoin="miter" d="M 22.996906 0.00100289 L 376.986513 0.00100289 C 383.085472 0.00100289 388.93443 2.422878 393.246931 6.735378 C 397.559431 11.047879 399.981306 16.896837 399.981306 23.001004 L 399.981306 111.56351 C 399.981306 117.662469 397.559431 123.511428 393.246931 127.823928 C 388.93443 132.141637 383.085472 134.563512 376.986513 134.563512 L 22.996906 134.563512 C 16.897948 134.563512 11.048989 132.141637 6.736489 127.823928 C 2.423988 123.511428 0.00211315 117.662469 0.00211315 111.56351 L 0.00211315 23.001004 C 0.00211315 16.896837 2.423988 11.047879 6.736489 6.735378 C 11.048989 2.422878 16.897948 0.00100289 22.996906 0.00100289 Z M 22.996906 0.00100289 " stroke="#000000" stroke-width="4" stroke-opacity="1" stroke-miterlimit="4"/></g></g><g clip-path="url(#201fa16624)"><g clip-path="url(#beaad38b49)"><g transform="matrix(1, 0, 0, 1, 138, 137)"><g clip-path="url(#83cd1c6d09)"><g clip-path="url(#32f97578bd)"><g clip-path="url(#3ea2bcdc25)"><path fill="#ffde59" d="M 0.929688 0.554688 L 98.96875 0.554688 L 98.96875 98.59375 L 0.929688 98.59375 Z M 0.929688 0.554688 " fill-opacity="1" fill-rule="nonzero"/></g></g></g></g></g></g><g clip-path="url(#6ce5961624)"><g clip-path="url(#8aeaf15242)"><g transform="matrix(1, 0, 0, 1, 221, 180)"><g clip-path="url(#50537132f2)"><g clip-path="url(#14c2b43b3c)"><g clip-path="url(#ceddaa82ae)"><path fill="#ffffff" d="M 0.664062 0.296875 L 113.199219 0.296875 L 113.199219 55.59375 L 0.664062 55.59375 Z M 0.664062 0.296875 " fill-opacity="1" fill-rule="nonzero"/></g></g></g></g></g></g><g clip-path="url(#9696c448bd)"><g clip-path="url(#8261bfbf8c)"><g transform="matrix(1, 0, 0, 1, 109, 159)"><g clip-path="url(#c3f7d6d30c)"><g clip-path="url(#73fe78c1aa)"><g clip-path="url(#2df87a0f0e)"><path fill="#ffffff" d="M 0.460938 0.078125 L 112.933594 0.078125 L 112.933594 73.90625 L 0.460938 73.90625 Z M 0.460938 0.078125 " fill-opacity="1" fill-rule="nonzero"/></g></g></g></g></g></g><g fill="#000000" fill-opacity="1"><g transform="translate(48.076625, 201.057702)"><g><path d="M 1.703125 -39.390625 C 1.085938 -40.003906 0.78125 -40.738281 0.78125 -41.59375 C 0.78125 -42.445312 1.085938 -43.179688 1.703125 -43.796875 C 2.316406 -44.410156 3.050781 -44.71875 3.90625 -44.71875 L 3.9375 -44.71875 L 35.15625 -44.90625 L 35.21875 -44.90625 C 36.070312 -44.90625 36.804688 -44.597656 37.421875 -43.984375 C 38.035156 -43.367188 38.34375 -42.632812 38.34375 -41.78125 C 38.34375 -40.925781 38.035156 -40.191406 37.421875 -39.578125 C 36.804688 -38.960938 36.070312 -38.65625 35.21875 -38.65625 L 35.1875 -38.65625 L 22.75 -38.59375 L 22.59375 -2.71875 L 22.59375 -2.6875 C 22.59375 -1.851562 22.285156 -1.132812 21.671875 -0.53125 C 21.054688 0.0703125 20.320312 0.375 19.46875 0.375 C 18.613281 0.375 17.878906 0.0703125 17.265625 -0.53125 C 16.648438 -1.132812 16.34375 -1.851562 16.34375 -2.6875 L 16.34375 -2.75 L 16.5 -38.5625 L 3.9375 -38.46875 L 3.90625 -38.46875 C 3.050781 -38.46875 2.316406 -38.773438 1.703125 -39.390625 Z M 1.703125 -39.390625 "/></g></g></g><g fill="#000000" fill-opacity="1"><g transform="translate(87.167992, 201.057702)"><g><path d="M 2.96875 -42.5625 C 2.96875 -43.394531 3.269531 -44.109375 3.875 -44.703125 C 4.476562 -45.296875 5.21875 -45.59375 6.09375 -45.59375 C 6.945312 -45.59375 7.679688 -45.296875 8.296875 -44.703125 C 8.910156 -44.109375 9.21875 -43.394531 9.21875 -42.5625 L 9.21875 -28.9375 C 9.988281 -30.5625 11.117188 -31.84375 12.609375 -32.78125 C 14.097656 -33.71875 15.59375 -34.1875 17.09375 -34.1875 C 21.820312 -34.1875 25.347656 -32.773438 27.671875 -29.953125 C 29.992188 -27.128906 31.15625 -23.28125 31.15625 -18.40625 L 31.15625 -18.125 L 31.125 -2.34375 L 31.125 -2.3125 C 31.125 -1.476562 30.816406 -0.765625 30.203125 -0.171875 C 29.585938 0.421875 28.851562 0.71875 28 0.71875 C 27.144531 0.71875 26.410156 0.421875 25.796875 -0.171875 C 25.179688 -0.765625 24.875 -1.476562 24.875 -2.3125 L 24.875 -2.34375 L 24.90625 -17.96875 L 24.90625 -18.03125 C 24.90625 -21.425781 24.335938 -23.921875 23.203125 -25.515625 C 22.066406 -27.109375 20.03125 -27.90625 17.09375 -27.90625 C 14.550781 -27.90625 12.613281 -27.019531 11.28125 -25.25 C 9.945312 -23.476562 9.28125 -21.125 9.28125 -18.1875 L 9.28125 -2.28125 C 9.28125 -1.445312 8.972656 -0.734375 8.359375 -0.140625 C 7.742188 0.453125 7.007812 0.75 6.15625 0.75 C 5.257812 0.75 4.503906 0.445312 3.890625 -0.15625 C 3.273438 -0.757812 2.96875 -1.46875 2.96875 -2.28125 Z M 2.96875 -42.5625 "/></g></g></g><g fill="#000000" fill-opacity="1"><g transform="translate(121.290907, 201.057702)"><g><path d="M 24.75 -4.21875 C 23.789062 -3.28125 22.929688 -2.507812 22.171875 -1.90625 C 21.410156 -1.300781 20.382812 -0.71875 19.09375 -0.15625 C 17.800781 0.40625 16.507812 0.6875 15.21875 0.6875 C 12.65625 0.6875 10.445312 0.0078125 8.59375 -1.34375 C 6.738281 -2.695312 5.34375 -4.425781 4.40625 -6.53125 C 3.46875 -8.65625 3 -11.5625 3 -15.25 L 3 -31.03125 C 3 -31.882812 3.304688 -32.617188 3.921875 -33.234375 C 4.535156 -33.847656 5.269531 -34.15625 6.125 -34.15625 C 6.976562 -34.15625 7.710938 -33.847656 8.328125 -33.234375 C 8.941406 -32.617188 9.25 -31.882812 9.25 -31.03125 L 9.25 -15.25 C 9.25 -12.4375 9.539062 -10.382812 10.125 -9.09375 C 10.582031 -8.070312 11.238281 -7.226562 12.09375 -6.5625 C 12.945312 -5.894531 13.96875 -5.5625 15.15625 -5.5625 C 18.195312 -5.5625 20.554688 -6.726562 22.234375 -9.0625 C 23.910156 -11.394531 24.738281 -14.582031 24.71875 -18.625 L 24.6875 -31.09375 C 24.6875 -31.945312 24.992188 -32.679688 25.609375 -33.296875 C 26.222656 -33.910156 26.957031 -34.21875 27.8125 -34.21875 C 28.6875 -34.21875 29.425781 -33.910156 30.03125 -33.296875 C 30.632812 -32.679688 30.9375 -31.9375 30.9375 -31.0625 L 31 -2.34375 C 31 -1.445312 30.757812 -0.703125 30.28125 -0.109375 C 29.800781 0.484375 29.144531 0.78125 28.3125 0.78125 C 26.875 0.78125 25.863281 -0.257812 25.28125 -2.34375 Z M 24.75 -4.21875 "/></g></g></g><g fill="#000000" fill-opacity="1"><g transform="translate(155.226333, 201.057702)"><g><path d="M 23.84375 -30.28125 C 23.84375 -28.632812 23.039062 -27.707031 21.4375 -27.5 C 21.0625 -27.457031 20.300781 -27.65625 19.15625 -28.09375 C 18.007812 -28.53125 17.125 -28.75 16.5 -28.75 C 13.9375 -28.75 12.082031 -27.8125 10.9375 -25.9375 C 9.789062 -24.0625 9.21875 -21.539062 9.21875 -18.375 L 9.21875 -2.25 C 9.21875 -1.332031 8.9375 -0.601562 8.375 -0.0625 C 7.8125 0.476562 7.050781 0.75 6.09375 0.75 C 5.132812 0.75 4.375 0.476562 3.8125 -0.0625 C 3.25 -0.601562 2.96875 -1.34375 2.96875 -2.28125 L 2.96875 -31.0625 C 2.96875 -32.019531 3.207031 -32.796875 3.6875 -33.390625 C 4.164062 -33.984375 4.800781 -34.28125 5.59375 -34.28125 C 6.175781 -34.28125 6.757812 -34.054688 7.34375 -33.609375 C 7.925781 -33.160156 8.34375 -32.488281 8.59375 -31.59375 L 8.90625 -29.34375 C 9.382812 -30.382812 10.378906 -31.460938 11.890625 -32.578125 C 13.398438 -33.691406 14.945312 -34.25 16.53125 -34.25 C 18.925781 -34.25 20.742188 -33.972656 21.984375 -33.421875 C 23.222656 -32.867188 23.84375 -31.820312 23.84375 -30.28125 Z M 23.84375 -30.28125 "/></g></g></g><g fill="#000000" fill-opacity="1"><g transform="translate(179.849828, 201.057702)"><g><path d="M 18.8125 -34.28125 C 21.769531 -34.28125 24.46875 -33.628906 26.90625 -32.328125 C 29.34375 -31.023438 31.144531 -29.269531 32.3125 -27.0625 C 32.5625 -26.625 32.6875 -26.125 32.6875 -25.5625 C 32.6875 -24.707031 32.378906 -23.972656 31.765625 -23.359375 C 31.148438 -22.742188 30.414062 -22.4375 29.5625 -22.4375 C 29.039062 -22.4375 28.503906 -22.601562 27.953125 -22.9375 C 27.398438 -23.269531 27.007812 -23.675781 26.78125 -24.15625 C 25.382812 -26.738281 22.71875 -28.03125 18.78125 -28.03125 C 17.882812 -28.03125 16.945312 -27.945312 15.96875 -27.78125 C 14.988281 -27.613281 14.03125 -27.363281 13.09375 -27.03125 C 12.15625 -26.695312 11.382812 -26.226562 10.78125 -25.625 C 10.175781 -25.019531 9.875 -24.332031 9.875 -23.5625 C 9.875 -23.125 10.015625 -22.722656 10.296875 -22.359375 C 10.578125 -21.992188 11 -21.6875 11.5625 -21.4375 C 12.125 -21.1875 12.6875 -20.972656 13.25 -20.796875 C 13.8125 -20.617188 14.515625 -20.46875 15.359375 -20.34375 C 16.203125 -20.21875 16.890625 -20.125 17.421875 -20.0625 C 17.953125 -20 18.632812 -19.929688 19.46875 -19.859375 C 20.300781 -19.785156 20.832031 -19.738281 21.0625 -19.71875 C 22.457031 -19.570312 23.695312 -19.390625 24.78125 -19.171875 C 25.863281 -18.953125 27 -18.613281 28.1875 -18.15625 C 29.375 -17.695312 30.359375 -17.144531 31.140625 -16.5 C 31.921875 -15.851562 32.566406 -15.003906 33.078125 -13.953125 C 33.585938 -12.898438 33.84375 -11.695312 33.84375 -10.34375 C 33.84375 -8.882812 33.5625 -7.539062 33 -6.3125 C 32.4375 -5.082031 31.679688 -4.050781 30.734375 -3.21875 C 29.785156 -2.382812 28.671875 -1.679688 27.390625 -1.109375 C 26.109375 -0.535156 24.757812 -0.113281 23.34375 0.15625 C 21.925781 0.425781 20.457031 0.5625 18.9375 0.5625 C 15.476562 0.5625 12.363281 -0.125 9.59375 -1.5 C 6.820312 -2.875 4.789062 -4.820312 3.5 -7.34375 C 3.25 -7.84375 3.125 -8.332031 3.125 -8.8125 C 3.125 -9.664062 3.429688 -10.398438 4.046875 -11.015625 C 4.660156 -11.628906 5.394531 -11.9375 6.25 -11.9375 C 6.789062 -11.9375 7.335938 -11.765625 7.890625 -11.421875 C 8.441406 -11.078125 8.832031 -10.664062 9.0625 -10.1875 C 10.601562 -7.1875 13.882812 -5.6875 18.90625 -5.6875 C 19.90625 -5.6875 20.882812 -5.769531 21.84375 -5.9375 C 22.800781 -6.101562 23.726562 -6.351562 24.625 -6.6875 C 25.519531 -7.019531 26.238281 -7.503906 26.78125 -8.140625 C 27.320312 -8.773438 27.59375 -9.519531 27.59375 -10.375 C 27.59375 -10.75 27.519531 -11.085938 27.375 -11.390625 C 27.226562 -11.691406 26.984375 -11.941406 26.640625 -12.140625 C 26.296875 -12.335938 25.984375 -12.507812 25.703125 -12.65625 C 25.421875 -12.800781 24.988281 -12.921875 24.40625 -13.015625 C 23.820312 -13.109375 23.394531 -13.175781 23.125 -13.21875 C 22.851562 -13.257812 22.375 -13.3125 21.6875 -13.375 C 21 -13.4375 20.570312 -13.476562 20.40625 -13.5 C 16.070312 -13.957031 12.957031 -14.476562 11.0625 -15.0625 C 6.664062 -16.375 4.21875 -18.726562 3.71875 -22.125 C 3.65625 -22.582031 3.625 -23.0625 3.625 -23.5625 C 3.625 -25.351562 4.082031 -26.960938 5 -28.390625 C 5.914062 -29.816406 7.117188 -30.941406 8.609375 -31.765625 C 10.097656 -32.585938 11.710938 -33.210938 13.453125 -33.640625 C 15.191406 -34.066406 16.976562 -34.28125 18.8125 -34.28125 Z M 18.8125 -34.28125 "/></g></g></g><g fill="#000000" fill-opacity="1"><g transform="translate(216.816325, 201.057702)"><g><path d="M 1.5625 -16.8125 C 1.5625 -19.207031 2.003906 -21.519531 2.890625 -23.75 C 3.773438 -25.976562 5.0625 -27.925781 6.75 -29.59375 C 8.269531 -31.070312 10.019531 -32.21875 12 -33.03125 C 13.976562 -33.84375 16.03125 -34.25 18.15625 -34.25 C 22.113281 -34.25 25.550781 -32.550781 28.46875 -29.15625 L 28.46875 -42.3125 C 28.46875 -43.164062 28.773438 -43.898438 29.390625 -44.515625 C 30.003906 -45.128906 30.738281 -45.4375 31.59375 -45.4375 C 32.445312 -45.4375 33.179688 -45.128906 33.796875 -44.515625 C 34.410156 -43.898438 34.71875 -43.164062 34.71875 -42.3125 L 34.71875 -2.40625 C 34.71875 -1.550781 34.410156 -0.816406 33.796875 -0.203125 C 33.179688 0.410156 32.445312 0.71875 31.59375 0.71875 C 30.070312 0.71875 29.15625 -0.320312 28.84375 -2.40625 L 28.46875 -4.9375 C 27.300781 -3.269531 25.75 -1.9375 23.8125 -0.9375 C 21.875 0.0625 19.914062 0.5625 17.9375 0.5625 C 14.875 0.5625 12.082031 -0.242188 9.5625 -1.859375 C 7.039062 -3.472656 5.078125 -5.601562 3.671875 -8.25 C 2.265625 -10.894531 1.5625 -13.75 1.5625 -16.8125 Z M 17.875 -5.6875 C 19.226562 -5.6875 20.570312 -5.984375 21.90625 -6.578125 C 23.238281 -7.171875 24.375 -7.988281 25.3125 -9.03125 C 26.25 -10.050781 26.972656 -11.265625 27.484375 -12.671875 C 27.992188 -14.078125 28.25 -15.507812 28.25 -16.96875 C 28.25 -20.03125 27.28125 -22.648438 25.34375 -24.828125 C 23.40625 -27.003906 20.96875 -28.09375 18.03125 -28.09375 C 15.15625 -28.09375 12.726562 -26.957031 10.75 -24.6875 C 8.769531 -22.414062 7.78125 -19.789062 7.78125 -16.8125 C 7.78125 -13.832031 8.753906 -11.234375 10.703125 -9.015625 C 12.648438 -6.796875 15.039062 -5.6875 17.875 -5.6875 Z M 17.875 -5.6875 "/></g></g></g><g fill="#000000" fill-opacity="1"><g transform="translate(254.657757, 201.057702)"><g><path d="M 19.46875 -34.375 C 21.65625 -34.375 23.816406 -33.75 25.953125 -32.5 C 28.085938 -31.25 29.601562 -29.84375 30.5 -28.28125 L 30.84375 -31.28125 C 30.84375 -32.15625 31.097656 -32.894531 31.609375 -33.5 C 32.117188 -34.101562 32.789062 -34.40625 33.625 -34.40625 C 34.476562 -34.40625 35.210938 -34.097656 35.828125 -33.484375 C 36.441406 -32.867188 36.75 -32.132812 36.75 -31.28125 L 36.75 -31.21875 L 36.6875 -2.28125 C 36.6875 -1.425781 36.378906 -0.691406 35.765625 -0.078125 C 35.148438 0.535156 34.414062 0.84375 33.5625 0.84375 C 32.726562 0.84375 32.054688 0.539062 31.546875 -0.0625 C 31.035156 -0.664062 30.78125 -1.40625 30.78125 -2.28125 L 30.4375 -4.78125 C 29.394531 -3.007812 27.851562 -1.648438 25.8125 -0.703125 C 23.769531 0.242188 21.632812 0.71875 19.40625 0.71875 C 16.320312 0.71875 13.46875 -0.0820312 10.84375 -1.6875 C 8.21875 -3.289062 6.144531 -5.429688 4.625 -8.109375 C 3.101562 -10.785156 2.34375 -13.664062 2.34375 -16.75 C 2.34375 -19.8125 3.082031 -22.691406 4.5625 -25.390625 C 6.039062 -28.085938 8.109375 -30.257812 10.765625 -31.90625 C 13.421875 -33.550781 16.320312 -34.375 19.46875 -34.375 Z M 30.25 -16.8125 C 30.25 -19.894531 29.207031 -22.550781 27.125 -24.78125 C 25.039062 -27.007812 22.46875 -28.125 19.40625 -28.125 C 16.382812 -28.125 13.816406 -27.003906 11.703125 -24.765625 C 9.585938 -22.523438 8.53125 -19.882812 8.53125 -16.84375 C 8.53125 -13.78125 9.597656 -11.128906 11.734375 -8.890625 C 13.867188 -6.648438 16.4375 -5.53125 19.4375 -5.53125 C 22.414062 -5.53125 24.960938 -6.648438 27.078125 -8.890625 C 29.191406 -11.128906 30.25 -13.769531 30.25 -16.8125 Z M 30.25 -16.8125 "/></g></g></g><g fill="#000000" fill-opacity="1"><g transform="translate(294.530343, 201.057702)"><g><path d="M 3.90625 -34.40625 C 4.507812 -34.40625 5.078125 -34.226562 5.609375 -33.875 C 6.140625 -33.519531 6.519531 -33.082031 6.75 -32.5625 L 17.375 -8.40625 L 26.46875 -32.34375 C 26.695312 -32.90625 27.082031 -33.375 27.625 -33.75 C 28.164062 -34.125 28.75 -34.3125 29.375 -34.3125 C 30.226562 -34.3125 30.960938 -34.003906 31.578125 -33.390625 C 32.191406 -32.773438 32.5 -32.039062 32.5 -31.1875 C 32.5 -30.75 32.414062 -30.34375 32.25 -29.96875 L 20.75 0.03125 C 20.6875 0.40625 20.507812 0.832031 20.21875 1.3125 L 18.46875 5.6875 C 18.09375 6.644531 17.765625 7.425781 17.484375 8.03125 C 17.203125 8.632812 16.785156 9.378906 16.234375 10.265625 C 15.679688 11.148438 15.070312 11.925781 14.40625 12.59375 C 13.34375 13.71875 12.070312 14.628906 10.59375 15.328125 C 9.113281 16.023438 7.601562 16.375 6.0625 16.375 C 5.1875 16.375 4.445312 16.0625 3.84375 15.4375 C 3.238281 14.8125 2.9375 14.0625 2.9375 13.1875 C 2.9375 12.351562 3.222656 11.628906 3.796875 11.015625 C 4.367188 10.398438 5.0625 10.082031 5.875 10.0625 C 7.539062 9.957031 8.878906 9.328125 9.890625 8.171875 C 10.898438 7.015625 11.832031 5.394531 12.6875 3.3125 L 14.1875 -0.5 L 1.0625 -29.9375 C 0.875 -30.375 0.78125 -30.820312 0.78125 -31.28125 C 0.78125 -32.132812 1.085938 -32.867188 1.703125 -33.484375 C 2.316406 -34.097656 3.050781 -34.40625 3.90625 -34.40625 Z M 3.90625 -34.40625 "/></g></g></g><g fill="#000000" fill-opacity="1"><g transform="translate(92.839743, 90.659905)"><g><path d="M 5.109375 -0.59375 C 4.710938 -0.195312 4.234375 0 3.671875 0 C 3.109375 0 2.625 -0.195312 2.21875 -0.59375 C 1.820312 -1 1.625 -1.484375 1.625 -2.046875 L 1.5625 -27.5 C 1.539062 -27.625 1.53125 -27.75 1.53125 -27.875 C 1.53125 -28.132812 1.679688 -28.503906 1.984375 -28.984375 C 2.316406 -29.515625 2.789062 -29.78125 3.40625 -29.78125 C 4.382812 -29.78125 5.0625 -29.394531 5.4375 -28.625 L 16.40625 -10.71875 L 26.5625 -28.65625 C 26.96875 -29.332031 27.519531 -29.671875 28.21875 -29.671875 C 28.820312 -29.671875 29.335938 -29.472656 29.765625 -29.078125 C 30.191406 -28.691406 30.40625 -28.207031 30.40625 -27.625 L 30.40625 -1.96875 C 30.40625 -1.40625 30.203125 -0.921875 29.796875 -0.515625 C 29.398438 -0.117188 28.921875 0.078125 28.359375 0.078125 C 27.796875 0.078125 27.3125 -0.117188 26.90625 -0.515625 C 26.507812 -0.921875 26.3125 -1.40625 26.3125 -1.96875 L 26.3125 -20.296875 L 18.25 -5.65625 C 18.070312 -5.382812 17.828125 -5.140625 17.515625 -4.921875 C 17.203125 -4.710938 16.875 -4.609375 16.53125 -4.609375 C 15.738281 -4.609375 15.128906 -4.9375 14.703125 -5.59375 L 5.65625 -20.390625 L 5.71875 -2.078125 L 5.71875 -2.046875 C 5.71875 -1.484375 5.515625 -1 5.109375 -0.59375 Z M 5.109375 -0.59375 "/></g></g></g><g fill="#000000" fill-opacity="1"><g transform="translate(163.024285, 90.659905)"><g><path d="M 1.109375 -25.84375 C 0.710938 -26.25 0.515625 -26.734375 0.515625 -27.296875 C 0.515625 -27.859375 0.710938 -28.335938 1.109375 -28.734375 C 1.515625 -29.140625 2 -29.34375 2.5625 -29.34375 L 2.578125 -29.34375 L 23.078125 -29.46875 L 23.109375 -29.46875 C 23.671875 -29.46875 24.148438 -29.265625 24.546875 -28.859375 C 24.953125 -28.460938 25.15625 -27.984375 25.15625 -27.421875 C 25.15625 -26.859375 24.953125 -26.375 24.546875 -25.96875 C 24.148438 -25.570312 23.671875 -25.375 23.109375 -25.375 L 23.09375 -25.375 L 14.9375 -25.328125 L 14.828125 -1.78125 L 14.828125 -1.765625 C 14.828125 -1.210938 14.625 -0.738281 14.21875 -0.34375 C 13.820312 0.0507812 13.34375 0.25 12.78125 0.25 C 12.21875 0.25 11.734375 0.0507812 11.328125 -0.34375 C 10.921875 -0.738281 10.71875 -1.210938 10.71875 -1.765625 L 10.71875 -1.8125 L 10.828125 -25.3125 L 2.578125 -25.25 L 2.5625 -25.25 C 2 -25.25 1.515625 -25.445312 1.109375 -25.84375 Z M 1.109375 -25.84375 "/></g></g><g transform="translate(188.679556, 90.659905)"><g><path d="M 16.25 -2.765625 C 15.613281 -2.148438 15.046875 -1.644531 14.546875 -1.25 C 14.054688 -0.851562 13.382812 -0.46875 12.53125 -0.09375 C 11.6875 0.269531 10.835938 0.453125 9.984375 0.453125 C 8.304688 0.453125 6.859375 0.0078125 5.640625 -0.875 C 4.421875 -1.769531 3.503906 -2.90625 2.890625 -4.28125 C 2.273438 -5.675781 1.96875 -7.582031 1.96875 -10 L 1.96875 -20.359375 C 1.96875 -20.921875 2.171875 -21.40625 2.578125 -21.8125 C 2.984375 -22.21875 3.460938 -22.421875 4.015625 -22.421875 C 4.578125 -22.421875 5.0625 -22.21875 5.46875 -21.8125 C 5.875 -21.40625 6.078125 -20.921875 6.078125 -20.359375 L 6.078125 -10 C 6.078125 -8.15625 6.269531 -6.8125 6.65625 -5.96875 C 6.945312 -5.300781 7.375 -4.75 7.9375 -4.3125 C 8.5 -3.875 9.171875 -3.65625 9.953125 -3.65625 C 11.941406 -3.65625 13.488281 -4.421875 14.59375 -5.953125 C 15.695312 -7.484375 16.238281 -9.570312 16.21875 -12.21875 L 16.203125 -20.40625 C 16.203125 -20.96875 16.40625 -21.445312 16.8125 -21.84375 C 17.21875 -22.25 17.695312 -22.453125 18.25 -22.453125 C 18.832031 -22.453125 19.320312 -22.25 19.71875 -21.84375 C 20.113281 -21.445312 20.3125 -20.960938 20.3125 -20.390625 L 20.34375 -1.53125 C 20.34375 -0.945312 20.1875 -0.457031 19.875 -0.0625 C 19.5625 0.320312 19.128906 0.515625 18.578125 0.515625 C 17.640625 0.515625 16.976562 -0.164062 16.59375 -1.53125 Z M 16.25 -2.765625 "/></g></g></g><g fill="#000000" fill-opacity="1"><g transform="translate(248.010662, 90.659905)"><g><path d="M 16.671875 -28.296875 C 16.796875 -28.679688 17.046875 -29.003906 17.421875 -29.265625 C 17.796875 -29.523438 18.195312 -29.65625 18.625 -29.65625 C 19.070312 -29.65625 19.476562 -29.515625 19.84375 -29.234375 C 20.207031 -28.953125 20.445312 -28.613281 20.5625 -28.21875 L 26.859375 -8.15625 L 32.46875 -27.453125 C 32.570312 -28.046875 32.8125 -28.546875 33.1875 -28.953125 C 33.5625 -29.367188 33.984375 -29.578125 34.453125 -29.578125 C 35.023438 -29.578125 35.507812 -29.328125 35.90625 -28.828125 C 36.300781 -28.335938 36.5 -27.757812 36.5 -27.09375 C 36.5 -26.820312 36.46875 -26.582031 36.40625 -26.375 L 28.953125 -1.09375 C 28.828125 -0.675781 28.582031 -0.332031 28.21875 -0.0625 C 27.851562 0.195312 27.453125 0.328125 27.015625 0.328125 C 26.585938 0.328125 26.179688 0.203125 25.796875 -0.046875 C 25.410156 -0.304688 25.160156 -0.632812 25.046875 -1.03125 L 18.5625 -19.625 L 11.703125 -0.40625 C 11.210938 0.0820312 10.566406 0.328125 9.765625 0.328125 C 9.328125 0.328125 8.914062 0.195312 8.53125 -0.0625 C 8.144531 -0.332031 7.890625 -0.675781 7.765625 -1.09375 L 0.59375 -26.109375 C 0.539062 -26.328125 0.515625 -26.566406 0.515625 -26.828125 C 0.515625 -27.492188 0.710938 -28.070312 1.109375 -28.5625 C 1.503906 -29.0625 1.988281 -29.3125 2.5625 -29.3125 C 3.03125 -29.3125 3.453125 -29.097656 3.828125 -28.671875 C 4.203125 -28.242188 4.441406 -27.738281 4.546875 -27.15625 L 9.953125 -8.046875 Z M 16.671875 -28.296875 "/></g></g></g><g fill="#000000" fill-opacity="1"><g transform="translate(97.496849, 314.287772)"><g><path d="M 1.53125 -27.40625 C 1.53125 -27.945312 1.734375 -28.414062 2.140625 -28.8125 C 2.546875 -29.207031 3.03125 -29.40625 3.59375 -29.40625 L 20.296875 -29.421875 L 20.328125 -29.421875 C 20.890625 -29.421875 21.367188 -29.21875 21.765625 -28.8125 C 22.171875 -28.414062 22.375 -27.9375 22.375 -27.375 C 22.375 -26.8125 22.171875 -26.328125 21.765625 -25.921875 C 21.367188 -25.523438 20.890625 -25.328125 20.328125 -25.328125 L 20.296875 -25.328125 L 5.640625 -25.3125 L 5.65625 -17.84375 L 16.34375 -17.9375 L 16.578125 -17.9375 C 17.078125 -17.9375 17.507812 -17.726562 17.875 -17.3125 C 18.238281 -16.894531 18.421875 -16.460938 18.421875 -16.015625 C 18.421875 -15.410156 18.226562 -14.894531 17.84375 -14.46875 C 17.457031 -14.050781 16.960938 -13.84375 16.359375 -13.84375 L 5.6875 -13.734375 L 5.703125 -1.8125 L 5.703125 -1.765625 C 5.703125 -1.210938 5.5 -0.738281 5.09375 -0.34375 C 4.6875 0.0507812 4.203125 0.25 3.640625 0.25 C 3.085938 0.25 2.609375 0.0507812 2.203125 -0.34375 C 1.796875 -0.738281 1.59375 -1.210938 1.59375 -1.765625 L 1.59375 -1.78125 Z M 1.53125 -27.40625 "/></g></g></g><g fill="#000000" fill-opacity="1"><g transform="translate(159.794803, 313.327422)"><g><path d="M 14.03125 -29.796875 C 16.363281 -29.796875 18.5 -29.210938 20.4375 -28.046875 C 22.375 -26.890625 23.75 -25.375 24.5625 -23.5 C 24.6875 -23.226562 24.75 -22.945312 24.75 -22.65625 C 24.75 -22.101562 24.546875 -21.625 24.140625 -21.21875 C 23.742188 -20.8125 23.265625 -20.609375 22.703125 -20.609375 C 22.335938 -20.609375 21.960938 -20.726562 21.578125 -20.96875 C 21.203125 -21.207031 20.945312 -21.5 20.8125 -21.84375 C 20.289062 -23.03125 19.425781 -23.96875 18.21875 -24.65625 C 17.007812 -25.351562 15.613281 -25.703125 14.03125 -25.703125 C 13.21875 -25.703125 12.382812 -25.601562 11.53125 -25.40625 C 10.675781 -25.207031 9.867188 -24.914062 9.109375 -24.53125 C 8.359375 -24.15625 7.738281 -23.660156 7.25 -23.046875 C 6.757812 -22.429688 6.515625 -21.753906 6.515625 -21.015625 C 6.515625 -20.429688 6.707031 -19.90625 7.09375 -19.4375 C 7.476562 -18.976562 7.953125 -18.601562 8.515625 -18.3125 C 9.515625 -17.8125 10.773438 -17.421875 12.296875 -17.140625 C 13.816406 -16.867188 15.375 -16.597656 16.96875 -16.328125 C 18.570312 -16.066406 19.898438 -15.710938 20.953125 -15.265625 C 22.335938 -14.660156 23.488281 -13.800781 24.40625 -12.6875 C 25.320312 -11.570312 25.78125 -10.210938 25.78125 -8.609375 C 25.78125 -7.453125 25.535156 -6.367188 25.046875 -5.359375 C 24.566406 -4.359375 23.925781 -3.507812 23.125 -2.8125 C 22.332031 -2.113281 21.421875 -1.515625 20.390625 -1.015625 C 19.359375 -0.515625 18.300781 -0.148438 17.21875 0.078125 C 16.132812 0.316406 15.054688 0.4375 13.984375 0.4375 C 11.304688 0.4375 8.90625 -0.191406 6.78125 -1.453125 C 4.664062 -2.710938 3.148438 -4.398438 2.234375 -6.515625 C 2.109375 -6.796875 2.046875 -7.070312 2.046875 -7.34375 C 2.046875 -7.90625 2.25 -8.382812 2.65625 -8.78125 C 3.0625 -9.1875 3.546875 -9.390625 4.109375 -9.390625 C 4.484375 -9.390625 4.851562 -9.265625 5.21875 -9.015625 C 5.59375 -8.773438 5.847656 -8.484375 5.984375 -8.140625 C 6.578125 -6.765625 7.59375 -5.675781 9.03125 -4.875 C 10.476562 -4.070312 12.128906 -3.671875 13.984375 -3.671875 C 15.210938 -3.671875 16.390625 -3.835938 17.515625 -4.171875 C 18.648438 -4.503906 19.625 -5.0625 20.4375 -5.84375 C 21.25 -6.625 21.65625 -7.546875 21.65625 -8.609375 C 21.65625 -9.265625 21.429688 -9.832031 20.984375 -10.3125 C 20.546875 -10.800781 20 -11.191406 19.34375 -11.484375 C 18.269531 -11.929688 16.929688 -12.289062 15.328125 -12.5625 C 13.734375 -12.832031 12.160156 -13.109375 10.609375 -13.390625 C 9.054688 -13.679688 7.742188 -14.097656 6.671875 -14.640625 C 5.429688 -15.253906 4.410156 -16.09375 3.609375 -17.15625 C 2.804688 -18.226562 2.40625 -19.515625 2.40625 -21.015625 C 2.40625 -22.109375 2.632812 -23.132812 3.09375 -24.09375 C 3.550781 -25.0625 4.164062 -25.890625 4.9375 -26.578125 C 5.707031 -27.265625 6.59375 -27.851562 7.59375 -28.34375 C 8.601562 -28.832031 9.65625 -29.195312 10.75 -29.4375 C 11.84375 -29.675781 12.9375 -29.796875 14.03125 -29.796875 Z M 14.03125 -29.796875 "/></g></g><g transform="translate(187.623903, 313.327422)"><g><path d="M 12.78125 -22.5625 C 14.21875 -22.5625 15.632812 -22.148438 17.03125 -21.328125 C 18.4375 -20.503906 19.429688 -19.582031 20.015625 -18.5625 L 20.234375 -20.53125 C 20.234375 -21.101562 20.398438 -21.585938 20.734375 -21.984375 C 21.078125 -22.378906 21.519531 -22.578125 22.0625 -22.578125 C 22.625 -22.578125 23.109375 -22.375 23.515625 -21.96875 C 23.921875 -21.570312 24.125 -21.09375 24.125 -20.53125 L 24.125 -20.484375 L 24.078125 -1.5 C 24.078125 -0.9375 23.875 -0.453125 23.46875 -0.046875 C 23.0625 0.347656 22.582031 0.546875 22.03125 0.546875 C 21.476562 0.546875 21.035156 0.347656 20.703125 -0.046875 C 20.367188 -0.441406 20.203125 -0.925781 20.203125 -1.5 L 19.96875 -3.140625 C 19.289062 -1.972656 18.28125 -1.078125 16.9375 -0.453125 C 15.601562 0.160156 14.203125 0.46875 12.734375 0.46875 C 10.710938 0.46875 8.835938 -0.0546875 7.109375 -1.109375 C 5.390625 -2.160156 4.03125 -3.5625 3.03125 -5.3125 C 2.03125 -7.070312 1.53125 -8.96875 1.53125 -11 C 1.53125 -13 2.015625 -14.882812 2.984375 -16.65625 C 3.960938 -18.425781 5.320312 -19.851562 7.0625 -20.9375 C 8.8125 -22.019531 10.71875 -22.5625 12.78125 -22.5625 Z M 19.859375 -11.03125 C 19.859375 -13.050781 19.171875 -14.789062 17.796875 -16.25 C 16.429688 -17.71875 14.742188 -18.453125 12.734375 -18.453125 C 10.753906 -18.453125 9.066406 -17.71875 7.671875 -16.25 C 6.285156 -14.78125 5.59375 -13.046875 5.59375 -11.046875 C 5.59375 -9.046875 6.289062 -7.304688 7.6875 -5.828125 C 9.09375 -4.359375 10.78125 -3.625 12.75 -3.625 C 14.707031 -3.625 16.378906 -4.359375 17.765625 -5.828125 C 19.160156 -7.304688 19.859375 -9.039062 19.859375 -11.03125 Z M 19.859375 -11.03125 "/></g></g></g><g fill="#000000" fill-opacity="1"><g transform="translate(241.26557, 313.327422)"><g><path d="M 14.03125 -29.796875 C 16.363281 -29.796875 18.5 -29.210938 20.4375 -28.046875 C 22.375 -26.890625 23.75 -25.375 24.5625 -23.5 C 24.6875 -23.226562 24.75 -22.945312 24.75 -22.65625 C 24.75 -22.101562 24.546875 -21.625 24.140625 -21.21875 C 23.742188 -20.8125 23.265625 -20.609375 22.703125 -20.609375 C 22.335938 -20.609375 21.960938 -20.726562 21.578125 -20.96875 C 21.203125 -21.207031 20.945312 -21.5 20.8125 -21.84375 C 20.289062 -23.03125 19.425781 -23.96875 18.21875 -24.65625 C 17.007812 -25.351562 15.613281 -25.703125 14.03125 -25.703125 C 13.21875 -25.703125 12.382812 -25.601562 11.53125 -25.40625 C 10.675781 -25.207031 9.867188 -24.914062 9.109375 -24.53125 C 8.359375 -24.15625 7.738281 -23.660156 7.25 -23.046875 C 6.757812 -22.429688 6.515625 -21.753906 6.515625 -21.015625 C 6.515625 -20.429688 6.707031 -19.90625 7.09375 -19.4375 C 7.476562 -18.976562 7.953125 -18.601562 8.515625 -18.3125 C 9.515625 -17.8125 10.773438 -17.421875 12.296875 -17.140625 C 13.816406 -16.867188 15.375 -16.597656 16.96875 -16.328125 C 18.570312 -16.066406 19.898438 -15.710938 20.953125 -15.265625 C 22.335938 -14.660156 23.488281 -13.800781 24.40625 -12.6875 C 25.320312 -11.570312 25.78125 -10.210938 25.78125 -8.609375 C 25.78125 -7.453125 25.535156 -6.367188 25.046875 -5.359375 C 24.566406 -4.359375 23.925781 -3.507812 23.125 -2.8125 C 22.332031 -2.113281 21.421875 -1.515625 20.390625 -1.015625 C 19.359375 -0.515625 18.300781 -0.148438 17.21875 0.078125 C 16.132812 0.316406 15.054688 0.4375 13.984375 0.4375 C 11.304688 0.4375 8.90625 -0.191406 6.78125 -1.453125 C 4.664062 -2.710938 3.148438 -4.398438 2.234375 -6.515625 C 2.109375 -6.796875 2.046875 -7.070312 2.046875 -7.34375 C 2.046875 -7.90625 2.25 -8.382812 2.65625 -8.78125 C 3.0625 -9.1875 3.546875 -9.390625 4.109375 -9.390625 C 4.484375 -9.390625 4.851562 -9.265625 5.21875 -9.015625 C 5.59375 -8.773438 5.847656 -8.484375 5.984375 -8.140625 C 6.578125 -6.765625 7.59375 -5.675781 9.03125 -4.875 C 10.476562 -4.070312 12.128906 -3.671875 13.984375 -3.671875 C 15.210938 -3.671875 16.390625 -3.835938 17.515625 -4.171875 C 18.648438 -4.503906 19.625 -5.0625 20.4375 -5.84375 C 21.25 -6.625 21.65625 -7.546875 21.65625 -8.609375 C 21.65625 -9.265625 21.429688 -9.832031 20.984375 -10.3125 C 20.546875 -10.800781 20 -11.191406 19.34375 -11.484375 C 18.269531 -11.929688 16.929688 -12.289062 15.328125 -12.5625 C 13.734375 -12.832031 12.160156 -13.109375 10.609375 -13.390625 C 9.054688 -13.679688 7.742188 -14.097656 6.671875 -14.640625 C 5.429688 -15.253906 4.410156 -16.09375 3.609375 -17.15625 C 2.804688 -18.226562 2.40625 -19.515625 2.40625 -21.015625 C 2.40625 -22.109375 2.632812 -23.132812 3.09375 -24.09375 C 3.550781 -25.0625 4.164062 -25.890625 4.9375 -26.578125 C 5.707031 -27.265625 6.59375 -27.851562 7.59375 -28.34375 C 8.601562 -28.832031 9.65625 -29.195312 10.75 -29.4375 C 11.84375 -29.675781 12.9375 -29.796875 14.03125 -29.796875 Z M 14.03125 -29.796875 "/></g></g><g transform="translate(269.094669, 313.327422)"><g><path d="M 16.25 -2.765625 C 15.613281 -2.148438 15.046875 -1.644531 14.546875 -1.25 C 14.054688 -0.851562 13.382812 -0.46875 12.53125 -0.09375 C 11.6875 0.269531 10.835938 0.453125 9.984375 0.453125 C 8.304688 0.453125 6.859375 0.0078125 5.640625 -0.875 C 4.421875 -1.769531 3.503906 -2.90625 2.890625 -4.28125 C 2.273438 -5.675781 1.96875 -7.582031 1.96875 -10 L 1.96875 -20.359375 C 1.96875 -20.921875 2.171875 -21.40625 2.578125 -21.8125 C 2.984375 -22.21875 3.460938 -22.421875 4.015625 -22.421875 C 4.578125 -22.421875 5.0625 -22.21875 5.46875 -21.8125 C 5.875 -21.40625 6.078125 -20.921875 6.078125 -20.359375 L 6.078125 -10 C 6.078125 -8.15625 6.269531 -6.8125 6.65625 -5.96875 C 6.945312 -5.300781 7.375 -4.75 7.9375 -4.3125 C 8.5 -3.875 9.171875 -3.65625 9.953125 -3.65625 C 11.941406 -3.65625 13.488281 -4.421875 14.59375 -5.953125 C 15.695312 -7.484375 16.238281 -9.570312 16.21875 -12.21875 L 16.203125 -20.40625 C 16.203125 -20.96875 16.40625 -21.445312 16.8125 -21.84375 C 17.21875 -22.25 17.695312 -22.453125 18.25 -22.453125 C 18.832031 -22.453125 19.320312 -22.25 19.71875 -21.84375 C 20.113281 -21.445312 20.3125 -20.960938 20.3125 -20.390625 L 20.34375 -1.53125 C 20.34375 -0.945312 20.1875 -0.457031 19.875 -0.0625 C 19.5625 0.320312 19.128906 0.515625 18.578125 0.515625 C 17.640625 0.515625 16.976562 -0.164062 16.59375 -1.53125 Z M 16.25 -2.765625 "/></g></g></g></svg>