<svg xmlns="http://www.w3.org/2000/svg" xmlns:xlink="http://www.w3.org/1999/xlink" width="500" zoomAndPan="magnify" viewBox="0 0 375 374.999991" height="500" preserveAspectRatio="xMidYMid meet" version="1.0"><defs><g/><clipPath id="8d9781b018"><path d="M 118.511719 296.652344 L 181.34375 296.652344 L 181.34375 359.484375 L 118.511719 359.484375 Z M 118.511719 296.652344 " clip-rule="nonzero"/></clipPath><clipPath id="df75e28d0d"><path d="M 135.761719 296.652344 L 164.09375 296.652344 C 168.667969 296.652344 173.054688 298.472656 176.292969 301.707031 C 179.527344 304.941406 181.34375 309.328125 181.34375 313.902344 L 181.34375 342.234375 C 181.34375 346.808594 179.527344 351.195312 176.292969 354.433594 C 173.054688 357.667969 168.667969 359.484375 164.09375 359.484375 L 135.761719 359.484375 C 131.1875 359.484375 126.800781 357.667969 123.566406 354.433594 C 120.328125 351.195312 118.511719 346.808594 118.511719 342.234375 L 118.511719 313.902344 C 118.511719 309.328125 120.328125 304.941406 123.566406 301.707031 C 126.800781 298.472656 131.1875 296.652344 135.761719 296.652344 Z M 135.761719 296.652344 " clip-rule="nonzero"/></clipPath><clipPath id="d5e5784b80"><path d="M 0.511719 0.652344 L 63.34375 0.652344 L 63.34375 63.484375 L 0.511719 63.484375 Z M 0.511719 0.652344 " clip-rule="nonzero"/></clipPath><clipPath id="c598dcbf71"><path d="M 17.761719 0.652344 L 46.09375 0.652344 C 50.667969 0.652344 55.054688 2.472656 58.292969 5.707031 C 61.527344 8.941406 63.34375 13.328125 63.34375 17.902344 L 63.34375 46.234375 C 63.34375 50.808594 61.527344 55.195312 58.292969 58.433594 C 55.054688 61.667969 50.667969 63.484375 46.09375 63.484375 L 17.761719 63.484375 C 13.1875 63.484375 8.800781 61.667969 5.566406 58.433594 C 2.328125 55.195312 0.511719 50.808594 0.511719 46.234375 L 0.511719 17.902344 C 0.511719 13.328125 2.328125 8.941406 5.566406 5.707031 C 8.800781 2.472656 13.1875 0.652344 17.761719 0.652344 Z M 17.761719 0.652344 " clip-rule="nonzero"/></clipPath><clipPath id="b0780ef815"><rect x="0" width="64" y="0" height="64"/></clipPath><clipPath id="ade4f96e69"><path d="M 118.511719 296.652344 L 181.511719 296.652344 L 181.511719 359.652344 L 118.511719 359.652344 Z M 118.511719 296.652344 " clip-rule="nonzero"/></clipPath><clipPath id="f78ea452af"><path d="M 135.761719 296.652344 L 164.089844 296.652344 C 168.664062 296.652344 173.050781 298.46875 176.285156 301.707031 C 179.519531 304.941406 181.335938 309.328125 181.335938 313.902344 L 181.335938 342.230469 C 181.335938 346.804688 179.519531 351.191406 176.285156 354.425781 C 173.050781 357.660156 168.664062 359.476562 164.089844 359.476562 L 135.761719 359.476562 C 131.1875 359.476562 126.796875 357.660156 123.5625 354.425781 C 120.328125 351.191406 118.511719 346.804688 118.511719 342.230469 L 118.511719 313.902344 C 118.511719 309.328125 120.328125 304.941406 123.5625 301.707031 C 126.796875 298.46875 131.1875 296.652344 135.761719 296.652344 Z M 135.761719 296.652344 " clip-rule="nonzero"/></clipPath><clipPath id="682e4727f7"><path d="M 199.023438 296.652344 L 261.855469 296.652344 L 261.855469 359.484375 L 199.023438 359.484375 Z M 199.023438 296.652344 " clip-rule="nonzero"/></clipPath><clipPath id="cef49f86d2"><path d="M 216.273438 296.652344 L 244.605469 296.652344 C 249.179688 296.652344 253.566406 298.472656 256.800781 301.707031 C 260.035156 304.941406 261.855469 309.328125 261.855469 313.902344 L 261.855469 342.234375 C 261.855469 346.808594 260.035156 351.195312 256.800781 354.433594 C 253.566406 357.667969 249.179688 359.484375 244.605469 359.484375 L 216.273438 359.484375 C 211.699219 359.484375 207.308594 357.667969 204.074219 354.433594 C 200.839844 351.195312 199.023438 346.808594 199.023438 342.234375 L 199.023438 313.902344 C 199.023438 309.328125 200.839844 304.941406 204.074219 301.707031 C 207.308594 298.472656 211.699219 296.652344 216.273438 296.652344 Z M 216.273438 296.652344 " clip-rule="nonzero"/></clipPath><clipPath id="5b2094bd90"><path d="M 0.0234375 0.652344 L 62.855469 0.652344 L 62.855469 63.484375 L 0.0234375 63.484375 Z M 0.0234375 0.652344 " clip-rule="nonzero"/></clipPath><clipPath id="a137e23ae3"><path d="M 17.273438 0.652344 L 45.605469 0.652344 C 50.179688 0.652344 54.566406 2.472656 57.800781 5.707031 C 61.035156 8.941406 62.855469 13.328125 62.855469 17.902344 L 62.855469 46.234375 C 62.855469 50.808594 61.035156 55.195312 57.800781 58.433594 C 54.566406 61.667969 50.179688 63.484375 45.605469 63.484375 L 17.273438 63.484375 C 12.699219 63.484375 8.308594 61.667969 5.074219 58.433594 C 1.839844 55.195312 0.0234375 50.808594 0.0234375 46.234375 L 0.0234375 17.902344 C 0.0234375 13.328125 1.839844 8.941406 5.074219 5.707031 C 8.308594 2.472656 12.699219 0.652344 17.273438 0.652344 Z M 17.273438 0.652344 " clip-rule="nonzero"/></clipPath><clipPath id="75525b4150"><rect x="0" width="63" y="0" height="64"/></clipPath><clipPath id="ed2db7d6c8"><path d="M 199.023438 296.652344 L 262 296.652344 L 262 359.652344 L 199.023438 359.652344 Z M 199.023438 296.652344 " clip-rule="nonzero"/></clipPath><clipPath id="09b3080809"><path d="M 216.269531 296.652344 L 244.597656 296.652344 C 249.171875 296.652344 253.558594 298.46875 256.796875 301.707031 C 260.03125 304.941406 261.847656 309.328125 261.847656 313.902344 L 261.847656 342.230469 C 261.847656 346.804688 260.03125 351.191406 256.796875 354.425781 C 253.558594 357.660156 249.171875 359.476562 244.597656 359.476562 L 216.269531 359.476562 C 211.695312 359.476562 207.308594 357.660156 204.074219 354.425781 C 200.839844 351.191406 199.023438 346.804688 199.023438 342.230469 L 199.023438 313.902344 C 199.023438 309.328125 200.839844 304.941406 204.074219 301.707031 C 207.308594 298.46875 211.695312 296.652344 216.269531 296.652344 Z M 216.269531 296.652344 " clip-rule="nonzero"/></clipPath><clipPath id="c225b45045"><path d="M 155.195312 18.230469 L 218.027344 18.230469 L 218.027344 81.0625 L 155.195312 81.0625 Z M 155.195312 18.230469 " clip-rule="nonzero"/></clipPath><clipPath id="111e0ceb9a"><path d="M 172.445312 18.230469 L 200.777344 18.230469 C 205.351562 18.230469 209.738281 20.046875 212.972656 23.28125 C 216.210938 26.519531 218.027344 30.90625 218.027344 35.480469 L 218.027344 63.8125 C 218.027344 68.386719 216.210938 72.773438 212.972656 76.007812 C 209.738281 79.246094 205.351562 81.0625 200.777344 81.0625 L 172.445312 81.0625 C 167.871094 81.0625 163.484375 79.246094 160.25 76.007812 C 157.011719 72.773438 155.195312 68.386719 155.195312 63.8125 L 155.195312 35.480469 C 155.195312 30.90625 157.011719 26.519531 160.25 23.28125 C 163.484375 20.046875 167.871094 18.230469 172.445312 18.230469 Z M 172.445312 18.230469 " clip-rule="nonzero"/></clipPath><clipPath id="b371b86ace"><path d="M 0.195312 0.230469 L 63.027344 0.230469 L 63.027344 63.0625 L 0.195312 63.0625 Z M 0.195312 0.230469 " clip-rule="nonzero"/></clipPath><clipPath id="0943a57c1d"><path d="M 17.445312 0.230469 L 45.777344 0.230469 C 50.351562 0.230469 54.738281 2.046875 57.972656 5.28125 C 61.210938 8.519531 63.027344 12.90625 63.027344 17.480469 L 63.027344 45.8125 C 63.027344 50.386719 61.210938 54.773438 57.972656 58.007812 C 54.738281 61.246094 50.351562 63.0625 45.777344 63.0625 L 17.445312 63.0625 C 12.871094 63.0625 8.484375 61.246094 5.25 58.007812 C 2.011719 54.773438 0.195312 50.386719 0.195312 45.8125 L 0.195312 17.480469 C 0.195312 12.90625 2.011719 8.519531 5.25 5.28125 C 8.484375 2.046875 12.871094 0.230469 17.445312 0.230469 Z M 17.445312 0.230469 " clip-rule="nonzero"/></clipPath><clipPath id="ef275e3c62"><rect x="0" width="64" y="0" height="64"/></clipPath><clipPath id="1e9cac2ae2"><path d="M 155.195312 18.230469 L 218.195312 18.230469 L 218.195312 81.230469 L 155.195312 81.230469 Z M 155.195312 18.230469 " clip-rule="nonzero"/></clipPath><clipPath id="ef3810c182"><path d="M 172.445312 18.230469 L 200.773438 18.230469 C 205.347656 18.230469 209.734375 20.046875 212.96875 23.28125 C 216.203125 26.515625 218.019531 30.902344 218.019531 35.480469 L 218.019531 63.808594 C 218.019531 68.382812 216.203125 72.769531 212.96875 76.003906 C 209.734375 79.238281 205.347656 81.054688 200.773438 81.054688 L 172.445312 81.054688 C 167.871094 81.054688 163.480469 79.238281 160.246094 76.003906 C 157.011719 72.769531 155.195312 68.382812 155.195312 63.808594 L 155.195312 35.480469 C 155.195312 30.902344 157.011719 26.515625 160.246094 23.28125 C 163.480469 20.046875 167.871094 18.230469 172.445312 18.230469 Z M 172.445312 18.230469 " clip-rule="nonzero"/></clipPath><clipPath id="bf63f5fc66"><path d="M 78.132812 223.398438 L 140.964844 223.398438 L 140.964844 286.226562 L 78.132812 286.226562 Z M 78.132812 223.398438 " clip-rule="nonzero"/></clipPath><clipPath id="7a5abba2ac"><path d="M 95.382812 223.398438 L 123.714844 223.398438 C 128.289062 223.398438 132.675781 225.214844 135.914062 228.449219 C 139.148438 231.683594 140.964844 236.074219 140.964844 240.648438 L 140.964844 268.976562 C 140.964844 273.554688 139.148438 277.941406 135.914062 281.175781 C 132.675781 284.410156 128.289062 286.226562 123.714844 286.226562 L 95.382812 286.226562 C 90.808594 286.226562 86.421875 284.410156 83.1875 281.175781 C 79.949219 277.941406 78.132812 273.554688 78.132812 268.976562 L 78.132812 240.648438 C 78.132812 236.074219 79.949219 231.683594 83.1875 228.449219 C 86.421875 225.214844 90.808594 223.398438 95.382812 223.398438 Z M 95.382812 223.398438 " clip-rule="nonzero"/></clipPath><clipPath id="c807fce9c1"><path d="M 0.132812 0.398438 L 62.964844 0.398438 L 62.964844 63.226562 L 0.132812 63.226562 Z M 0.132812 0.398438 " clip-rule="nonzero"/></clipPath><clipPath id="c6d42c8e1d"><path d="M 17.382812 0.398438 L 45.714844 0.398438 C 50.289062 0.398438 54.675781 2.214844 57.914062 5.449219 C 61.148438 8.683594 62.964844 13.074219 62.964844 17.648438 L 62.964844 45.976562 C 62.964844 50.554688 61.148438 54.941406 57.914062 58.175781 C 54.675781 61.410156 50.289062 63.226562 45.714844 63.226562 L 17.382812 63.226562 C 12.808594 63.226562 8.421875 61.410156 5.1875 58.175781 C 1.949219 54.941406 0.132812 50.554688 0.132812 45.976562 L 0.132812 17.648438 C 0.132812 13.074219 1.949219 8.683594 5.1875 5.449219 C 8.421875 2.214844 12.808594 0.398438 17.382812 0.398438 Z M 17.382812 0.398438 " clip-rule="nonzero"/></clipPath><clipPath id="efa4be0848"><rect x="0" width="63" y="0" height="64"/></clipPath><clipPath id="d4da55dce4"><path d="M 78.132812 223.398438 L 141 223.398438 L 141 286.398438 L 78.132812 286.398438 Z M 78.132812 223.398438 " clip-rule="nonzero"/></clipPath><clipPath id="ecc7f06b90"><path d="M 95.382812 223.398438 L 123.710938 223.398438 C 128.285156 223.398438 132.671875 225.214844 135.90625 228.449219 C 139.140625 231.683594 140.957031 236.070312 140.957031 240.644531 L 140.957031 268.972656 C 140.957031 273.546875 139.140625 277.933594 135.90625 281.167969 C 132.671875 284.40625 128.285156 286.222656 123.710938 286.222656 L 95.382812 286.222656 C 90.808594 286.222656 86.421875 284.40625 83.183594 281.167969 C 79.949219 277.933594 78.132812 273.546875 78.132812 268.972656 L 78.132812 240.644531 C 78.132812 236.070312 79.949219 231.683594 83.183594 228.449219 C 86.421875 225.214844 90.808594 223.398438 95.382812 223.398438 Z M 95.382812 223.398438 " clip-rule="nonzero"/></clipPath><clipPath id="8b99c843c9"><path d="M 158.214844 224.148438 L 221.046875 224.148438 L 221.046875 286.976562 L 158.214844 286.976562 Z M 158.214844 224.148438 " clip-rule="nonzero"/></clipPath><clipPath id="703c55f783"><path d="M 175.464844 224.148438 L 203.796875 224.148438 C 208.371094 224.148438 212.757812 225.964844 215.992188 229.199219 C 219.226562 232.433594 221.046875 236.824219 221.046875 241.398438 L 221.046875 269.726562 C 221.046875 274.304688 219.226562 278.691406 215.992188 281.925781 C 212.757812 285.160156 208.371094 286.976562 203.796875 286.976562 L 175.464844 286.976562 C 170.890625 286.976562 166.503906 285.160156 163.265625 281.925781 C 160.03125 278.691406 158.214844 274.304688 158.214844 269.726562 L 158.214844 241.398438 C 158.214844 236.824219 160.03125 232.433594 163.265625 229.199219 C 166.503906 225.964844 170.890625 224.148438 175.464844 224.148438 Z M 175.464844 224.148438 " clip-rule="nonzero"/></clipPath><clipPath id="817157be54"><path d="M 0.214844 0.148438 L 63.046875 0.148438 L 63.046875 62.976562 L 0.214844 62.976562 Z M 0.214844 0.148438 " clip-rule="nonzero"/></clipPath><clipPath id="efa85d51e2"><path d="M 17.464844 0.148438 L 45.796875 0.148438 C 50.371094 0.148438 54.757812 1.964844 57.992188 5.199219 C 61.226562 8.433594 63.046875 12.824219 63.046875 17.398438 L 63.046875 45.726562 C 63.046875 50.304688 61.226562 54.691406 57.992188 57.925781 C 54.757812 61.160156 50.371094 62.976562 45.796875 62.976562 L 17.464844 62.976562 C 12.890625 62.976562 8.503906 61.160156 5.265625 57.925781 C 2.03125 54.691406 0.214844 50.304688 0.214844 45.726562 L 0.214844 17.398438 C 0.214844 12.824219 2.03125 8.433594 5.265625 5.199219 C 8.503906 1.964844 12.890625 0.148438 17.464844 0.148438 Z M 17.464844 0.148438 " clip-rule="nonzero"/></clipPath><clipPath id="7f05f5455e"><rect x="0" width="64" y="0" height="63"/></clipPath><clipPath id="539530c0ea"><path d="M 158.214844 224.148438 L 221.214844 224.148438 L 221.214844 287 L 158.214844 287 Z M 158.214844 224.148438 " clip-rule="nonzero"/></clipPath><clipPath id="c72201165e"><path d="M 175.460938 224.148438 L 203.789062 224.148438 C 208.363281 224.148438 212.753906 225.964844 215.988281 229.199219 C 219.222656 232.433594 221.039062 236.820312 221.039062 241.394531 L 221.039062 269.722656 C 221.039062 274.296875 219.222656 278.683594 215.988281 281.917969 C 212.753906 285.15625 208.363281 286.972656 203.789062 286.972656 L 175.460938 286.972656 C 170.886719 286.972656 166.5 285.15625 163.265625 281.917969 C 160.03125 278.683594 158.214844 274.296875 158.214844 269.722656 L 158.214844 241.394531 C 158.214844 236.820312 160.03125 232.433594 163.265625 229.199219 C 166.5 225.964844 170.886719 224.148438 175.460938 224.148438 Z M 175.460938 224.148438 " clip-rule="nonzero"/></clipPath><clipPath id="0d4781bfb6"><path d="M 236.175781 223.1875 L 299.007812 223.1875 L 299.007812 286.019531 L 236.175781 286.019531 Z M 236.175781 223.1875 " clip-rule="nonzero"/></clipPath><clipPath id="2a9619dc5d"><path d="M 253.425781 223.1875 L 281.757812 223.1875 C 286.332031 223.1875 290.722656 225.003906 293.957031 228.238281 C 297.191406 231.472656 299.007812 235.863281 299.007812 240.4375 L 299.007812 268.769531 C 299.007812 273.34375 297.191406 277.730469 293.957031 280.964844 C 290.722656 284.199219 286.332031 286.019531 281.757812 286.019531 L 253.425781 286.019531 C 248.851562 286.019531 244.464844 284.199219 241.230469 280.964844 C 237.996094 277.730469 236.175781 273.34375 236.175781 268.769531 L 236.175781 240.4375 C 236.175781 235.863281 237.996094 231.472656 241.230469 228.238281 C 244.464844 225.003906 248.851562 223.1875 253.425781 223.1875 Z M 253.425781 223.1875 " clip-rule="nonzero"/></clipPath><clipPath id="59c116f9be"><path d="M 0.175781 0.1875 L 63.007812 0.1875 L 63.007812 63.019531 L 0.175781 63.019531 Z M 0.175781 0.1875 " clip-rule="nonzero"/></clipPath><clipPath id="9ce20484c9"><path d="M 17.425781 0.1875 L 45.757812 0.1875 C 50.332031 0.1875 54.722656 2.003906 57.957031 5.238281 C 61.191406 8.472656 63.007812 12.863281 63.007812 17.4375 L 63.007812 45.769531 C 63.007812 50.34375 61.191406 54.730469 57.957031 57.964844 C 54.722656 61.199219 50.332031 63.019531 45.757812 63.019531 L 17.425781 63.019531 C 12.851562 63.019531 8.464844 61.199219 5.230469 57.964844 C 1.996094 54.730469 0.175781 50.34375 0.175781 45.769531 L 0.175781 17.4375 C 0.175781 12.863281 1.996094 8.472656 5.230469 5.238281 C 8.464844 2.003906 12.851562 0.1875 17.425781 0.1875 Z M 17.425781 0.1875 " clip-rule="nonzero"/></clipPath><clipPath id="07dddf4b6b"><rect x="0" width="64" y="0" height="64"/></clipPath><clipPath id="94addf2533"><path d="M 236.175781 223.1875 L 299 223.1875 L 299 286.1875 L 236.175781 286.1875 Z M 236.175781 223.1875 " clip-rule="nonzero"/></clipPath><clipPath id="c0eac54848"><path d="M 253.425781 223.1875 L 281.753906 223.1875 C 286.328125 223.1875 290.714844 225.003906 293.949219 228.238281 C 297.183594 231.472656 299 235.859375 299 240.433594 L 299 268.761719 C 299 273.335938 297.183594 277.726562 293.949219 280.960938 C 290.714844 284.195312 286.328125 286.011719 281.753906 286.011719 L 253.425781 286.011719 C 248.851562 286.011719 244.464844 284.195312 241.230469 280.960938 C 237.996094 277.726562 236.175781 273.335938 236.175781 268.761719 L 236.175781 240.433594 C 236.175781 235.859375 237.996094 231.472656 241.230469 228.238281 C 244.464844 225.003906 248.851562 223.1875 253.425781 223.1875 Z M 253.425781 223.1875 " clip-rule="nonzero"/></clipPath><clipPath id="f4c9880755"><path d="M 36.613281 98.261719 L 336.628906 98.261719 L 336.628906 199.1875 L 36.613281 199.1875 Z M 36.613281 98.261719 " clip-rule="nonzero"/></clipPath><clipPath id="2646a300e1"><path d="M 53.863281 98.261719 L 319.363281 98.261719 C 323.9375 98.261719 328.324219 100.078125 331.558594 103.3125 C 334.792969 106.546875 336.613281 110.9375 336.613281 115.511719 L 336.613281 181.9375 C 336.613281 186.511719 334.792969 190.898438 331.558594 194.132812 C 328.324219 197.371094 323.9375 199.1875 319.363281 199.1875 L 53.863281 199.1875 C 49.285156 199.1875 44.898438 197.371094 41.664062 194.132812 C 38.429688 190.898438 36.613281 186.511719 36.613281 181.9375 L 36.613281 115.511719 C 36.613281 110.9375 38.429688 106.546875 41.664062 103.3125 C 44.898438 100.078125 49.285156 98.261719 53.863281 98.261719 Z M 53.863281 98.261719 " clip-rule="nonzero"/></clipPath><clipPath id="d519bfb346"><path d="M 0.613281 0.261719 L 300.628906 0.261719 L 300.628906 101.1875 L 0.613281 101.1875 Z M 0.613281 0.261719 " clip-rule="nonzero"/></clipPath><clipPath id="47f37c6ef8"><path d="M 17.863281 0.261719 L 283.363281 0.261719 C 287.9375 0.261719 292.324219 2.078125 295.558594 5.3125 C 298.792969 8.546875 300.613281 12.9375 300.613281 17.511719 L 300.613281 83.9375 C 300.613281 88.511719 298.792969 92.898438 295.558594 96.132812 C 292.324219 99.371094 287.9375 101.1875 283.363281 101.1875 L 17.863281 101.1875 C 13.285156 101.1875 8.898438 99.371094 5.664062 96.132812 C 2.429688 92.898438 0.613281 88.511719 0.613281 83.9375 L 0.613281 17.511719 C 0.613281 12.9375 2.429688 8.546875 5.664062 5.3125 C 8.898438 2.078125 13.285156 0.261719 17.863281 0.261719 Z M 17.863281 0.261719 " clip-rule="nonzero"/></clipPath><clipPath id="35d9bf1016"><rect x="0" width="301" y="0" height="102"/></clipPath><clipPath id="9ef35203b6"><path d="M 36.617188 98.261719 L 336.613281 98.261719 L 336.613281 199.511719 L 36.617188 199.511719 Z M 36.617188 98.261719 " clip-rule="nonzero"/></clipPath><clipPath id="6fad14d0d4"><path d="M 53.867188 98.261719 L 319.355469 98.261719 C 323.929688 98.261719 328.316406 100.078125 331.554688 103.3125 C 334.789062 106.546875 336.605469 110.933594 336.605469 115.511719 L 336.605469 181.933594 C 336.605469 186.507812 334.789062 190.894531 331.554688 194.128906 C 328.316406 197.367188 323.929688 199.183594 319.355469 199.183594 L 53.867188 199.183594 C 49.292969 199.183594 44.90625 197.367188 41.667969 194.128906 C 38.433594 190.894531 36.617188 186.507812 36.617188 181.933594 L 36.617188 115.511719 C 36.617188 110.933594 38.433594 106.546875 41.667969 103.3125 C 44.90625 100.078125 49.292969 98.261719 53.867188 98.261719 Z M 53.867188 98.261719 " clip-rule="nonzero"/></clipPath><clipPath id="7c8ace661b"><path d="M 138.140625 99.703125 L 236.175781 99.703125 L 236.175781 197.742188 L 138.140625 197.742188 Z M 138.140625 99.703125 " clip-rule="nonzero"/></clipPath><clipPath id="7a97a3763b"><path d="M 187.160156 99.703125 C 160.085938 99.703125 138.140625 121.652344 138.140625 148.722656 C 138.140625 175.796875 160.085938 197.742188 187.160156 197.742188 C 214.230469 197.742188 236.175781 175.796875 236.175781 148.722656 C 236.175781 121.652344 214.230469 99.703125 187.160156 99.703125 Z M 187.160156 99.703125 " clip-rule="nonzero"/></clipPath><clipPath id="3006a90b0a"><path d="M 0.140625 0.703125 L 98.175781 0.703125 L 98.175781 98.742188 L 0.140625 98.742188 Z M 0.140625 0.703125 " clip-rule="nonzero"/></clipPath><clipPath id="198baaad53"><path d="M 49.160156 0.703125 C 22.085938 0.703125 0.140625 22.652344 0.140625 49.722656 C 0.140625 76.796875 22.085938 98.742188 49.160156 98.742188 C 76.230469 98.742188 98.175781 76.796875 98.175781 49.722656 C 98.175781 22.652344 76.230469 0.703125 49.160156 0.703125 Z M 49.160156 0.703125 " clip-rule="nonzero"/></clipPath><clipPath id="58d9a0bb78"><rect x="0" width="99" y="0" height="99"/></clipPath><clipPath id="2e6149d519"><path d="M 192.683594 105.625 L 331.734375 105.625 L 331.734375 196.664062 L 192.683594 196.664062 Z M 192.683594 105.625 " clip-rule="nonzero"/></clipPath><clipPath id="63fa2a51b4"><path d="M 271.449219 105.625 C 272.972656 105.625 274.503906 105.625 276.023438 105.625 C 288.128906 107.144531 295.695312 112.207031 299.140625 120.488281 C 319.328125 119.382812 334.003906 135.042969 325.058594 150.414062 C 328.035156 153.644531 330.515625 157.257812 331.410156 162.105469 C 331.410156 163.496094 331.410156 164.878906 331.410156 166.269531 C 328.742188 178.609375 317.25 186.949219 298.382812 184.703125 C 293.53125 191.039062 284.894531 197.386719 271.453125 196.597656 C 264.507812 196.179688 259.671875 193.769531 255.441406 190.84375 C 250.984375 193.277344 246.160156 195.1875 239.183594 195.207031 C 223.050781 195.242188 212.257812 185.867188 211.996094 173.011719 C 201.621094 170 194.597656 164.386719 192.683594 154.777344 C 192.683594 153.390625 192.683594 151.996094 192.683594 150.613281 C 194.796875 141.09375 201.441406 135.113281 212.5 132.578125 C 211.835938 116.515625 233.960938 106.480469 252.136719 113.554688 C 256.464844 110.058594 262.585938 106.242188 271.449219 105.625 Z M 271.449219 105.625 " clip-rule="nonzero"/></clipPath><clipPath id="eadd0e4207"><path d="M 0.683594 0.625 L 139.734375 0.625 L 139.734375 91.664062 L 0.683594 91.664062 Z M 0.683594 0.625 " clip-rule="nonzero"/></clipPath><clipPath id="3c14dc76ae"><path d="M 79.449219 0.625 C 80.972656 0.625 82.503906 0.625 84.023438 0.625 C 96.128906 2.144531 103.695312 7.207031 107.140625 15.488281 C 127.328125 14.382812 142.003906 30.042969 133.058594 45.414062 C 136.035156 48.644531 138.515625 52.257812 139.410156 57.105469 C 139.410156 58.496094 139.410156 59.878906 139.410156 61.269531 C 136.742188 73.609375 125.25 81.949219 106.382812 79.703125 C 101.53125 86.039062 92.894531 92.386719 79.453125 91.597656 C 72.507812 91.179688 67.671875 88.769531 63.441406 85.84375 C 58.984375 88.277344 54.160156 90.1875 47.183594 90.207031 C 31.050781 90.242188 20.257812 80.867188 19.996094 68.011719 C 9.621094 65 2.597656 59.386719 0.683594 49.777344 C 0.683594 48.390625 0.683594 46.996094 0.683594 45.613281 C 2.796875 36.09375 9.441406 30.113281 20.5 27.578125 C 19.835938 11.515625 41.960938 1.480469 60.136719 8.554688 C 64.464844 5.058594 70.585938 1.242188 79.449219 0.625 Z M 79.449219 0.625 " clip-rule="nonzero"/></clipPath><clipPath id="8795e8c146"><rect x="0" width="140" y="0" height="92"/></clipPath><clipPath id="77918beee7"><path d="M 52.894531 119.003906 L 165.65625 119.003906 L 165.65625 192.832031 L 52.894531 192.832031 Z M 52.894531 119.003906 " clip-rule="nonzero"/></clipPath><clipPath id="9033250c70"><path d="M 116.769531 119.003906 C 118.003906 119.003906 119.246094 119.003906 120.476562 119.003906 C 130.296875 120.234375 136.429688 124.339844 139.226562 131.058594 C 155.59375 130.160156 167.496094 142.863281 160.242188 155.324219 C 162.65625 157.945312 164.667969 160.875 165.394531 164.808594 C 165.394531 165.933594 165.394531 167.058594 165.394531 168.183594 C 163.230469 178.191406 153.910156 184.953125 138.613281 183.132812 C 134.675781 188.273438 127.671875 193.417969 116.773438 192.777344 C 111.136719 192.441406 107.21875 190.484375 103.789062 188.113281 C 100.171875 190.085938 96.257812 191.632812 90.605469 191.652344 C 77.519531 191.679688 68.765625 184.078125 68.554688 173.648438 C 60.144531 171.210938 54.445312 166.65625 52.894531 158.863281 C 52.894531 157.738281 52.894531 156.609375 52.894531 155.488281 C 54.605469 147.765625 59.992188 142.917969 68.964844 140.859375 C 68.425781 127.835938 86.367188 119.699219 101.109375 125.433594 C 104.617188 122.597656 109.582031 119.503906 116.769531 119.003906 Z M 116.769531 119.003906 " clip-rule="nonzero"/></clipPath><clipPath id="325d4e905c"><path d="M 0.894531 0.00390625 L 113.65625 0.00390625 L 113.65625 73.832031 L 0.894531 73.832031 Z M 0.894531 0.00390625 " clip-rule="nonzero"/></clipPath><clipPath id="3170f8b552"><path d="M 64.769531 0.00390625 C 66.003906 0.00390625 67.246094 0.00390625 68.476562 0.00390625 C 78.296875 1.234375 84.429688 5.339844 87.226562 12.058594 C 103.59375 11.160156 115.496094 23.863281 108.242188 36.324219 C 110.65625 38.945312 112.667969 41.875 113.394531 45.808594 C 113.394531 46.933594 113.394531 48.058594 113.394531 49.183594 C 111.230469 59.191406 101.910156 65.953125 86.613281 64.132812 C 82.675781 69.273438 75.671875 74.417969 64.773438 73.777344 C 59.136719 73.441406 55.21875 71.484375 51.789062 69.113281 C 48.171875 71.085938 44.257812 72.632812 38.605469 72.652344 C 25.519531 72.679688 16.765625 65.078125 16.554688 54.648438 C 8.144531 52.210938 2.445312 47.65625 0.894531 39.863281 C 0.894531 38.738281 0.894531 37.609375 0.894531 36.488281 C 2.605469 28.765625 7.992188 23.917969 16.964844 21.859375 C 16.425781 8.835938 34.367188 0.699219 49.109375 6.433594 C 52.617188 3.597656 57.582031 0.503906 64.769531 0.00390625 Z M 64.769531 0.00390625 " clip-rule="nonzero"/></clipPath><clipPath id="3d24f79379"><rect x="0" width="114" y="0" height="74"/></clipPath></defs><g clip-path="url(#8d9781b018)"><g clip-path="url(#df75e28d0d)"><g transform="matrix(1, 0, 0, 1, 118, 296)"><g clip-path="url(#b0780ef815)"><g clip-path="url(#d5e5784b80)"><g clip-path="url(#c598dcbf71)"><path fill="#38b6ff" d="M 0.511719 0.652344 L 63.34375 0.652344 L 63.34375 63.484375 L 0.511719 63.484375 Z M 0.511719 0.652344 " fill-opacity="1" fill-rule="nonzero"/></g></g></g></g></g></g><g clip-path="url(#ade4f96e69)"><g clip-path="url(#f78ea452af)"><path stroke-linecap="butt" transform="matrix(0.75, 0, 0, 0.75, 118.512323, 296.653339)" fill="none" stroke-linejoin="miter" d="M 22.999196 -0.00132689 L 60.770032 -0.00132689 C 66.86899 -0.00132689 72.717949 2.420548 77.030449 6.738257 C 81.34295 11.050757 83.764825 16.899716 83.764825 22.998675 L 83.764825 60.76951 C 83.764825 66.868469 81.34295 72.717428 77.030449 77.029928 C 72.717949 81.342428 66.86899 83.764304 60.770032 83.764304 L 22.999196 83.764304 C 16.900237 83.764304 11.04607 81.342428 6.73357 77.029928 C 2.421069 72.717428 -0.000805824 66.868469 -0.000805824 60.76951 L -0.000805824 22.998675 C -0.000805824 16.899716 2.421069 11.050757 6.73357 6.738257 C 11.04607 2.420548 16.900237 -0.00132689 22.999196 -0.00132689 Z M 22.999196 -0.00132689 " stroke="#000000" stroke-width="4" stroke-opacity="1" stroke-miterlimit="4"/></g></g><g clip-path="url(#682e4727f7)"><g clip-path="url(#cef49f86d2)"><g transform="matrix(1, 0, 0, 1, 199, 296)"><g clip-path="url(#75525b4150)"><g clip-path="url(#5b2094bd90)"><g clip-path="url(#a137e23ae3)"><path fill="#38b6ff" d="M 0.0234375 0.652344 L 62.855469 0.652344 L 62.855469 63.484375 L 0.0234375 63.484375 Z M 0.0234375 0.652344 " fill-opacity="1" fill-rule="nonzero"/></g></g></g></g></g></g><g clip-path="url(#ed2db7d6c8)"><g clip-path="url(#09b3080809)"><path stroke-linecap="butt" transform="matrix(0.75, 0, 0, 0.75, 199.022615, 296.653339)" fill="none" stroke-linejoin="miter" d="M 22.99589 -0.00132689 L 60.766726 -0.00132689 C 66.865685 -0.00132689 72.714644 2.420548 77.032352 6.738257 C 81.344853 11.050757 83.766728 16.899716 83.766728 22.998675 L 83.766728 60.76951 C 83.766728 66.868469 81.344853 72.717428 77.032352 77.029928 C 72.714644 81.342428 66.865685 83.764304 60.766726 83.764304 L 22.99589 83.764304 C 16.896932 83.764304 11.047973 81.342428 6.735473 77.029928 C 2.422972 72.717428 0.00109716 66.868469 0.00109716 60.76951 L 0.00109716 22.998675 C 0.00109716 16.899716 2.422972 11.050757 6.735473 6.738257 C 11.047973 2.420548 16.896932 -0.00132689 22.99589 -0.00132689 Z M 22.99589 -0.00132689 " stroke="#000000" stroke-width="4" stroke-opacity="1" stroke-miterlimit="4"/></g></g><g clip-path="url(#c225b45045)"><g clip-path="url(#111e0ceb9a)"><g transform="matrix(1, 0, 0, 1, 155, 18)"><g clip-path="url(#ef275e3c62)"><g clip-path="url(#b371b86ace)"><g clip-path="url(#0943a57c1d)"><path fill="#d9d9d9" d="M 0.195312 0.230469 L 63.027344 0.230469 L 63.027344 63.0625 L 0.195312 63.0625 Z M 0.195312 0.230469 " fill-opacity="1" fill-rule="nonzero"/></g></g></g></g></g></g><g clip-path="url(#1e9cac2ae2)"><g clip-path="url(#ef3810c182)"><path stroke-linecap="butt" transform="matrix(0.75, 0, 0, 0.75, 155.195824, 18.230624)" fill="none" stroke-linejoin="miter" d="M 22.99932 -0.000206897 L 60.770155 -0.000206897 C 66.869114 -0.000206897 72.718073 2.421668 77.030573 6.734169 C 81.343073 11.046669 83.764949 16.895628 83.764949 22.999795 L 83.764949 60.77063 C 83.764949 66.869589 81.343073 72.718548 77.030573 77.031048 C 72.718073 81.343548 66.869114 83.765424 60.770155 83.765424 L 22.99932 83.765424 C 16.900361 83.765424 11.046194 81.343548 6.733694 77.031048 C 2.421193 72.718548 -0.000681878 66.869589 -0.000681878 60.77063 L -0.000681878 22.999795 C -0.000681878 16.895628 2.421193 11.046669 6.733694 6.734169 C 11.046194 2.421668 16.900361 -0.000206897 22.99932 -0.000206897 Z M 22.99932 -0.000206897 " stroke="#000000" stroke-width="4" stroke-opacity="1" stroke-miterlimit="4"/></g></g><g clip-path="url(#bf63f5fc66)"><g clip-path="url(#7a5abba2ac)"><g transform="matrix(1, 0, 0, 1, 78, 223)"><g clip-path="url(#efa4be0848)"><g clip-path="url(#c807fce9c1)"><g clip-path="url(#c6d42c8e1d)"><path fill="#38b6ff" d="M 0.132812 0.398438 L 62.964844 0.398438 L 62.964844 63.226562 L 0.132812 63.226562 Z M 0.132812 0.398438 " fill-opacity="1" fill-rule="nonzero"/></g></g></g></g></g></g><g clip-path="url(#d4da55dce4)"><g clip-path="url(#ecc7f06b90)"><path stroke-linecap="butt" transform="matrix(0.75, 0, 0, 0.75, 78.133439, 223.39733)" fill="none" stroke-linejoin="miter" d="M 22.999166 0.00147649 L 60.770001 0.00147649 C 66.86896 0.00147649 72.717919 2.423352 77.030419 6.735852 C 81.34292 11.048352 83.764795 16.897311 83.764795 22.99627 L 83.764795 60.767105 C 83.764795 66.866064 81.34292 72.715023 77.030419 77.027523 C 72.717919 81.345232 66.86896 83.767107 60.770001 83.767107 L 22.999166 83.767107 C 16.900207 83.767107 11.051248 81.345232 6.73354 77.027523 C 2.421039 72.715023 -0.000835826 66.866064 -0.000835826 60.767105 L -0.000835826 22.99627 C -0.000835826 16.897311 2.421039 11.048352 6.73354 6.735852 C 11.051248 2.423352 16.900207 0.00147649 22.999166 0.00147649 Z M 22.999166 0.00147649 " stroke="#000000" stroke-width="4" stroke-opacity="1" stroke-miterlimit="4"/></g></g><g clip-path="url(#8b99c843c9)"><g clip-path="url(#703c55f783)"><g transform="matrix(1, 0, 0, 1, 158, 224)"><g clip-path="url(#7f05f5455e)"><g clip-path="url(#817157be54)"><g clip-path="url(#efa85d51e2)"><path fill="#38b6ff" d="M 0.214844 0.148438 L 63.046875 0.148438 L 63.046875 62.976562 L 0.214844 62.976562 Z M 0.214844 0.148438 " fill-opacity="1" fill-rule="nonzero"/></g></g></g></g></g></g><g clip-path="url(#539530c0ea)"><g clip-path="url(#c72201165e)"><path stroke-linecap="butt" transform="matrix(0.75, 0, 0, 0.75, 158.214544, 224.14733)" fill="none" stroke-linejoin="miter" d="M 22.995193 0.00147656 L 60.766029 0.00147656 C 66.864988 0.00147656 72.719155 2.423352 77.031655 6.735852 C 81.344155 11.048352 83.766031 16.897311 83.766031 22.99627 L 83.766031 60.767106 C 83.766031 66.866064 81.344155 72.715023 77.031655 77.027523 C 72.719155 81.345232 66.864988 83.767107 60.766029 83.767107 L 22.995193 83.767107 C 16.896234 83.767107 11.047276 81.345232 6.734775 77.027523 C 2.422275 72.715023 0.000400053 66.866064 0.000400053 60.767106 L 0.000400053 22.99627 C 0.000400053 16.897311 2.422275 11.048352 6.734775 6.735852 C 11.047276 2.423352 16.896234 0.00147656 22.995193 0.00147656 Z M 22.995193 0.00147656 " stroke="#000000" stroke-width="4" stroke-opacity="1" stroke-miterlimit="4"/></g></g><g clip-path="url(#0d4781bfb6)"><g clip-path="url(#2a9619dc5d)"><g transform="matrix(1, 0, 0, 1, 236, 223)"><g clip-path="url(#07dddf4b6b)"><g clip-path="url(#59c116f9be)"><g clip-path="url(#9ce20484c9)"><path fill="#38b6ff" d="M 0.175781 0.1875 L 63.007812 0.1875 L 63.007812 63.019531 L 0.175781 63.019531 Z M 0.175781 0.1875 " fill-opacity="1" fill-rule="nonzero"/></g></g></g></g></g></g><g clip-path="url(#94addf2533)"><g clip-path="url(#c0eac54848)"><path stroke-linecap="butt" transform="matrix(0.75, 0, 0, 0.75, 236.177684, 223.187095)" fill="none" stroke-linejoin="miter" d="M 22.997464 0.000540075 L 60.7683 0.000540075 C 66.867259 0.000540075 72.716218 2.422415 77.028718 6.734916 C 81.341218 11.047416 83.763093 16.896375 83.763093 22.995333 L 83.763093 60.766169 C 83.763093 66.865128 81.341218 72.719295 77.028718 77.031795 C 72.716218 81.344295 66.867259 83.766171 60.7683 83.766171 L 22.997464 83.766171 C 16.898506 83.766171 11.049547 81.344295 6.737047 77.031795 C 2.424546 72.719295 -0.00253725 66.865128 -0.00253725 60.766169 L -0.00253725 22.995333 C -0.00253725 16.896375 2.424546 11.047416 6.737047 6.734916 C 11.049547 2.422415 16.898506 0.000540075 22.997464 0.000540075 Z M 22.997464 0.000540075 " stroke="#000000" stroke-width="4" stroke-opacity="1" stroke-miterlimit="4"/></g></g><g clip-path="url(#f4c9880755)"><g clip-path="url(#2646a300e1)"><g transform="matrix(1, 0, 0, 1, 36, 98)"><g clip-path="url(#35d9bf1016)"><g clip-path="url(#d519bfb346)"><g clip-path="url(#47f37c6ef8)"><path fill="#a5deff" d="M 0.613281 0.261719 L 300.628906 0.261719 L 300.628906 101.1875 L 0.613281 101.1875 Z M 0.613281 0.261719 " fill-opacity="1" fill-rule="nonzero"/></g></g></g></g></g></g><g clip-path="url(#9ef35203b6)"><g clip-path="url(#6fad14d0d4)"><path stroke-linecap="butt" transform="matrix(0.75, 0, 0, 0.75, 36.617624, 98.26101)" fill="none" stroke-linejoin="miter" d="M 22.999419 0.000945603 L 376.983818 0.000945603 C 383.082776 0.000945603 388.931735 2.422821 393.249444 6.735321 C 397.561944 11.047821 399.983819 16.89678 399.983819 23.000947 L 399.983819 111.563453 C 399.983819 117.662412 397.561944 123.51137 393.249444 127.823871 C 388.931735 132.141579 383.082776 134.563454 376.983818 134.563454 L 22.999419 134.563454 C 16.900461 134.563454 11.051502 132.141579 6.733793 127.823871 C 2.421293 123.51137 -0.000582127 117.662412 -0.000582127 111.563453 L -0.000582127 23.000947 C -0.000582127 16.89678 2.421293 11.047821 6.733793 6.735321 C 11.051502 2.422821 16.900461 0.000945603 22.999419 0.000945603 Z M 22.999419 0.000945603 " stroke="#000000" stroke-width="4" stroke-opacity="1" stroke-miterlimit="4"/></g></g><g clip-path="url(#7c8ace661b)"><g clip-path="url(#7a97a3763b)"><g transform="matrix(1, 0, 0, 1, 138, 99)"><g clip-path="url(#58d9a0bb78)"><g clip-path="url(#3006a90b0a)"><g clip-path="url(#198baaad53)"><path fill="#ffde59" d="M 0.140625 0.703125 L 98.175781 0.703125 L 98.175781 98.742188 L 0.140625 98.742188 Z M 0.140625 0.703125 " fill-opacity="1" fill-rule="nonzero"/></g></g></g></g></g></g><g clip-path="url(#2e6149d519)"><g clip-path="url(#63fa2a51b4)"><g transform="matrix(1, 0, 0, 1, 192, 105)"><g clip-path="url(#8795e8c146)"><g clip-path="url(#eadd0e4207)"><g clip-path="url(#3c14dc76ae)"><path fill="#ffffff" d="M 0.683594 0.625 L 139.378906 0.625 L 139.378906 91.664062 L 0.683594 91.664062 Z M 0.683594 0.625 " fill-opacity="1" fill-rule="nonzero"/></g></g></g></g></g></g><g clip-path="url(#77918beee7)"><g clip-path="url(#9033250c70)"><g transform="matrix(1, 0, 0, 1, 52, 119)"><g clip-path="url(#3d24f79379)"><g clip-path="url(#325d4e905c)"><g clip-path="url(#3170f8b552)"><path fill="#ffffff" d="M 0.894531 0.00390625 L 113.367188 0.00390625 L 113.367188 73.832031 L 0.894531 73.832031 Z M 0.894531 0.00390625 " fill-opacity="1" fill-rule="nonzero"/></g></g></g></g></g></g><g fill="#000000" fill-opacity="1"><g transform="translate(53.168892, 164.81284)"><g><path d="M 1.703125 -39.390625 C 1.085938 -40.003906 0.78125 -40.738281 0.78125 -41.59375 C 0.78125 -42.445312 1.085938 -43.179688 1.703125 -43.796875 C 2.316406 -44.410156 3.050781 -44.71875 3.90625 -44.71875 L 3.9375 -44.71875 L 35.15625 -44.90625 L 35.21875 -44.90625 C 36.070312 -44.90625 36.804688 -44.597656 37.421875 -43.984375 C 38.035156 -43.367188 38.34375 -42.632812 38.34375 -41.78125 C 38.34375 -40.925781 38.035156 -40.191406 37.421875 -39.578125 C 36.804688 -38.960938 36.070312 -38.65625 35.21875 -38.65625 L 35.1875 -38.65625 L 22.75 -38.59375 L 22.59375 -2.71875 L 22.59375 -2.6875 C 22.59375 -1.851562 22.285156 -1.132812 21.671875 -0.53125 C 21.054688 0.0703125 20.320312 0.375 19.46875 0.375 C 18.613281 0.375 17.878906 0.0703125 17.265625 -0.53125 C 16.648438 -1.132812 16.34375 -1.851562 16.34375 -2.6875 L 16.34375 -2.75 L 16.5 -38.5625 L 3.9375 -38.46875 L 3.90625 -38.46875 C 3.050781 -38.46875 2.316406 -38.773438 1.703125 -39.390625 Z M 1.703125 -39.390625 "/></g></g></g><g fill="#000000" fill-opacity="1"><g transform="translate(92.260259, 164.81284)"><g><path d="M 24.75 -4.21875 C 23.789062 -3.28125 22.929688 -2.507812 22.171875 -1.90625 C 21.410156 -1.300781 20.382812 -0.71875 19.09375 -0.15625 C 17.800781 0.40625 16.507812 0.6875 15.21875 0.6875 C 12.65625 0.6875 10.445312 0.0078125 8.59375 -1.34375 C 6.738281 -2.695312 5.34375 -4.425781 4.40625 -6.53125 C 3.46875 -8.65625 3 -11.5625 3 -15.25 L 3 -31.03125 C 3 -31.882812 3.304688 -32.617188 3.921875 -33.234375 C 4.535156 -33.847656 5.269531 -34.15625 6.125 -34.15625 C 6.976562 -34.15625 7.710938 -33.847656 8.328125 -33.234375 C 8.941406 -32.617188 9.25 -31.882812 9.25 -31.03125 L 9.25 -15.25 C 9.25 -12.4375 9.539062 -10.382812 10.125 -9.09375 C 10.582031 -8.070312 11.238281 -7.226562 12.09375 -6.5625 C 12.945312 -5.894531 13.96875 -5.5625 15.15625 -5.5625 C 18.195312 -5.5625 20.554688 -6.726562 22.234375 -9.0625 C 23.910156 -11.394531 24.738281 -14.582031 24.71875 -18.625 L 24.6875 -31.09375 C 24.6875 -31.945312 24.992188 -32.679688 25.609375 -33.296875 C 26.222656 -33.910156 26.957031 -34.21875 27.8125 -34.21875 C 28.6875 -34.21875 29.425781 -33.910156 30.03125 -33.296875 C 30.632812 -32.679688 30.9375 -31.9375 30.9375 -31.0625 L 31 -2.34375 C 31 -1.445312 30.757812 -0.703125 30.28125 -0.109375 C 29.800781 0.484375 29.144531 0.78125 28.3125 0.78125 C 26.875 0.78125 25.863281 -0.257812 25.28125 -2.34375 Z M 24.75 -4.21875 "/></g></g></g><g fill="#000000" fill-opacity="1"><g transform="translate(126.195686, 164.81284)"><g><path d="M 18.1875 -34.125 C 20.914062 -34.125 23.453125 -33.441406 25.796875 -32.078125 C 28.140625 -30.710938 30.007812 -28.847656 31.40625 -26.484375 C 32.800781 -24.117188 33.5 -21.550781 33.5 -18.78125 C 33.5 -18.175781 33.46875 -17.582031 33.40625 -17 C 33.320312 -16.226562 32.972656 -15.578125 32.359375 -15.046875 C 31.742188 -14.515625 31.050781 -14.25 30.28125 -14.25 L 8.4375 -14.21875 C 9 -11.863281 10.234375 -9.835938 12.140625 -8.140625 C 14.046875 -6.441406 16.207031 -5.59375 18.625 -5.59375 C 20.3125 -5.59375 21.875 -6.003906 23.3125 -6.828125 C 24.75 -7.648438 25.894531 -8.6875 26.75 -9.9375 C 27 -10.332031 27.375 -10.664062 27.875 -10.9375 C 28.375 -11.207031 28.863281 -11.34375 29.34375 -11.34375 C 30.195312 -11.34375 30.929688 -11.03125 31.546875 -10.40625 C 32.160156 -9.78125 32.46875 -9.039062 32.46875 -8.1875 C 32.46875 -7.519531 32.28125 -6.925781 31.90625 -6.40625 C 30.507812 -4.363281 28.664062 -2.6875 26.375 -1.375 C 24.082031 -0.0625 21.53125 0.59375 18.71875 0.59375 C 15.59375 0.59375 12.734375 -0.210938 10.140625 -1.828125 C 7.546875 -3.441406 5.519531 -5.59375 4.0625 -8.28125 C 2.601562 -10.96875 1.875 -13.863281 1.875 -16.96875 C 1.875 -19.96875 2.59375 -22.78125 4.03125 -25.40625 C 5.46875 -28.03125 7.445312 -30.140625 9.96875 -31.734375 C 12.488281 -33.328125 15.226562 -34.125 18.1875 -34.125 Z M 27.0625 -20.5 C 26.644531 -22.582031 25.609375 -24.332031 23.953125 -25.75 C 22.296875 -27.164062 20.375 -27.875 18.1875 -27.875 C 16 -27.875 14.019531 -27.15625 12.25 -25.71875 C 10.476562 -24.28125 9.28125 -22.53125 8.65625 -20.46875 Z M 27.0625 -20.5 "/></g></g></g><g fill="#000000" fill-opacity="1"><g transform="translate(161.537282, 164.81284)"><g><path d="M 18.8125 -34.28125 C 21.769531 -34.28125 24.46875 -33.628906 26.90625 -32.328125 C 29.34375 -31.023438 31.144531 -29.269531 32.3125 -27.0625 C 32.5625 -26.625 32.6875 -26.125 32.6875 -25.5625 C 32.6875 -24.707031 32.378906 -23.972656 31.765625 -23.359375 C 31.148438 -22.742188 30.414062 -22.4375 29.5625 -22.4375 C 29.039062 -22.4375 28.503906 -22.601562 27.953125 -22.9375 C 27.398438 -23.269531 27.007812 -23.675781 26.78125 -24.15625 C 25.382812 -26.738281 22.71875 -28.03125 18.78125 -28.03125 C 17.882812 -28.03125 16.945312 -27.945312 15.96875 -27.78125 C 14.988281 -27.613281 14.03125 -27.363281 13.09375 -27.03125 C 12.15625 -26.695312 11.382812 -26.226562 10.78125 -25.625 C 10.175781 -25.019531 9.875 -24.332031 9.875 -23.5625 C 9.875 -23.125 10.015625 -22.722656 10.296875 -22.359375 C 10.578125 -21.992188 11 -21.6875 11.5625 -21.4375 C 12.125 -21.1875 12.6875 -20.972656 13.25 -20.796875 C 13.8125 -20.617188 14.515625 -20.46875 15.359375 -20.34375 C 16.203125 -20.21875 16.890625 -20.125 17.421875 -20.0625 C 17.953125 -20 18.632812 -19.929688 19.46875 -19.859375 C 20.300781 -19.785156 20.832031 -19.738281 21.0625 -19.71875 C 22.457031 -19.570312 23.695312 -19.390625 24.78125 -19.171875 C 25.863281 -18.953125 27 -18.613281 28.1875 -18.15625 C 29.375 -17.695312 30.359375 -17.144531 31.140625 -16.5 C 31.921875 -15.851562 32.566406 -15.003906 33.078125 -13.953125 C 33.585938 -12.898438 33.84375 -11.695312 33.84375 -10.34375 C 33.84375 -8.882812 33.5625 -7.539062 33 -6.3125 C 32.4375 -5.082031 31.679688 -4.050781 30.734375 -3.21875 C 29.785156 -2.382812 28.671875 -1.679688 27.390625 -1.109375 C 26.109375 -0.535156 24.757812 -0.113281 23.34375 0.15625 C 21.925781 0.425781 20.457031 0.5625 18.9375 0.5625 C 15.476562 0.5625 12.363281 -0.125 9.59375 -1.5 C 6.820312 -2.875 4.789062 -4.820312 3.5 -7.34375 C 3.25 -7.84375 3.125 -8.332031 3.125 -8.8125 C 3.125 -9.664062 3.429688 -10.398438 4.046875 -11.015625 C 4.660156 -11.628906 5.394531 -11.9375 6.25 -11.9375 C 6.789062 -11.9375 7.335938 -11.765625 7.890625 -11.421875 C 8.441406 -11.078125 8.832031 -10.664062 9.0625 -10.1875 C 10.601562 -7.1875 13.882812 -5.6875 18.90625 -5.6875 C 19.90625 -5.6875 20.882812 -5.769531 21.84375 -5.9375 C 22.800781 -6.101562 23.726562 -6.351562 24.625 -6.6875 C 25.519531 -7.019531 26.238281 -7.503906 26.78125 -8.140625 C 27.320312 -8.773438 27.59375 -9.519531 27.59375 -10.375 C 27.59375 -10.75 27.519531 -11.085938 27.375 -11.390625 C 27.226562 -11.691406 26.984375 -11.941406 26.640625 -12.140625 C 26.296875 -12.335938 25.984375 -12.507812 25.703125 -12.65625 C 25.421875 -12.800781 24.988281 -12.921875 24.40625 -13.015625 C 23.820312 -13.109375 23.394531 -13.175781 23.125 -13.21875 C 22.851562 -13.257812 22.375 -13.3125 21.6875 -13.375 C 21 -13.4375 20.570312 -13.476562 20.40625 -13.5 C 16.070312 -13.957031 12.957031 -14.476562 11.0625 -15.0625 C 6.664062 -16.375 4.21875 -18.726562 3.71875 -22.125 C 3.65625 -22.582031 3.625 -23.0625 3.625 -23.5625 C 3.625 -25.351562 4.082031 -26.960938 5 -28.390625 C 5.914062 -29.816406 7.117188 -30.941406 8.609375 -31.765625 C 10.097656 -32.585938 11.710938 -33.210938 13.453125 -33.640625 C 15.191406 -34.066406 16.976562 -34.28125 18.8125 -34.28125 Z M 18.8125 -34.28125 "/></g></g></g><g fill="#000000" fill-opacity="1"><g transform="translate(198.503779, 164.81284)"><g><path d="M 1.5625 -16.8125 C 1.5625 -19.207031 2.003906 -21.519531 2.890625 -23.75 C 3.773438 -25.976562 5.0625 -27.925781 6.75 -29.59375 C 8.269531 -31.070312 10.019531 -32.21875 12 -33.03125 C 13.976562 -33.84375 16.03125 -34.25 18.15625 -34.25 C 22.113281 -34.25 25.550781 -32.550781 28.46875 -29.15625 L 28.46875 -42.3125 C 28.46875 -43.164062 28.773438 -43.898438 29.390625 -44.515625 C 30.003906 -45.128906 30.738281 -45.4375 31.59375 -45.4375 C 32.445312 -45.4375 33.179688 -45.128906 33.796875 -44.515625 C 34.410156 -43.898438 34.71875 -43.164062 34.71875 -42.3125 L 34.71875 -2.40625 C 34.71875 -1.550781 34.410156 -0.816406 33.796875 -0.203125 C 33.179688 0.410156 32.445312 0.71875 31.59375 0.71875 C 30.070312 0.71875 29.15625 -0.320312 28.84375 -2.40625 L 28.46875 -4.9375 C 27.300781 -3.269531 25.75 -1.9375 23.8125 -0.9375 C 21.875 0.0625 19.914062 0.5625 17.9375 0.5625 C 14.875 0.5625 12.082031 -0.242188 9.5625 -1.859375 C 7.039062 -3.472656 5.078125 -5.601562 3.671875 -8.25 C 2.265625 -10.894531 1.5625 -13.75 1.5625 -16.8125 Z M 17.875 -5.6875 C 19.226562 -5.6875 20.570312 -5.984375 21.90625 -6.578125 C 23.238281 -7.171875 24.375 -7.988281 25.3125 -9.03125 C 26.25 -10.050781 26.972656 -11.265625 27.484375 -12.671875 C 27.992188 -14.078125 28.25 -15.507812 28.25 -16.96875 C 28.25 -20.03125 27.28125 -22.648438 25.34375 -24.828125 C 23.40625 -27.003906 20.96875 -28.09375 18.03125 -28.09375 C 15.15625 -28.09375 12.726562 -26.957031 10.75 -24.6875 C 8.769531 -22.414062 7.78125 -19.789062 7.78125 -16.8125 C 7.78125 -13.832031 8.753906 -11.234375 10.703125 -9.015625 C 12.648438 -6.796875 15.039062 -5.6875 17.875 -5.6875 Z M 17.875 -5.6875 "/></g></g></g><g fill="#000000" fill-opacity="1"><g transform="translate(236.345222, 164.81284)"><g><path d="M 19.46875 -34.375 C 21.65625 -34.375 23.816406 -33.75 25.953125 -32.5 C 28.085938 -31.25 29.601562 -29.84375 30.5 -28.28125 L 30.84375 -31.28125 C 30.84375 -32.15625 31.097656 -32.894531 31.609375 -33.5 C 32.117188 -34.101562 32.789062 -34.40625 33.625 -34.40625 C 34.476562 -34.40625 35.210938 -34.097656 35.828125 -33.484375 C 36.441406 -32.867188 36.75 -32.132812 36.75 -31.28125 L 36.75 -31.21875 L 36.6875 -2.28125 C 36.6875 -1.425781 36.378906 -0.691406 35.765625 -0.078125 C 35.148438 0.535156 34.414062 0.84375 33.5625 0.84375 C 32.726562 0.84375 32.054688 0.539062 31.546875 -0.0625 C 31.035156 -0.664062 30.78125 -1.40625 30.78125 -2.28125 L 30.4375 -4.78125 C 29.394531 -3.007812 27.851562 -1.648438 25.8125 -0.703125 C 23.769531 0.242188 21.632812 0.71875 19.40625 0.71875 C 16.320312 0.71875 13.46875 -0.0820312 10.84375 -1.6875 C 8.21875 -3.289062 6.144531 -5.429688 4.625 -8.109375 C 3.101562 -10.785156 2.34375 -13.664062 2.34375 -16.75 C 2.34375 -19.8125 3.082031 -22.691406 4.5625 -25.390625 C 6.039062 -28.085938 8.109375 -30.257812 10.765625 -31.90625 C 13.421875 -33.550781 16.320312 -34.375 19.46875 -34.375 Z M 30.25 -16.8125 C 30.25 -19.894531 29.207031 -22.550781 27.125 -24.78125 C 25.039062 -27.007812 22.46875 -28.125 19.40625 -28.125 C 16.382812 -28.125 13.816406 -27.003906 11.703125 -24.765625 C 9.585938 -22.523438 8.53125 -19.882812 8.53125 -16.84375 C 8.53125 -13.78125 9.597656 -11.128906 11.734375 -8.890625 C 13.867188 -6.648438 16.4375 -5.53125 19.4375 -5.53125 C 22.414062 -5.53125 24.960938 -6.648438 27.078125 -8.890625 C 29.191406 -11.128906 30.25 -13.769531 30.25 -16.8125 Z M 30.25 -16.8125 "/></g></g></g><g fill="#000000" fill-opacity="1"><g transform="translate(276.217797, 164.81284)"><g><path d="M 3.90625 -34.40625 C 4.507812 -34.40625 5.078125 -34.226562 5.609375 -33.875 C 6.140625 -33.519531 6.519531 -33.082031 6.75 -32.5625 L 17.375 -8.40625 L 26.46875 -32.34375 C 26.695312 -32.90625 27.082031 -33.375 27.625 -33.75 C 28.164062 -34.125 28.75 -34.3125 29.375 -34.3125 C 30.226562 -34.3125 30.960938 -34.003906 31.578125 -33.390625 C 32.191406 -32.773438 32.5 -32.039062 32.5 -31.1875 C 32.5 -30.75 32.414062 -30.34375 32.25 -29.96875 L 20.75 0.03125 C 20.6875 0.40625 20.507812 0.832031 20.21875 1.3125 L 18.46875 5.6875 C 18.09375 6.644531 17.765625 7.425781 17.484375 8.03125 C 17.203125 8.632812 16.785156 9.378906 16.234375 10.265625 C 15.679688 11.148438 15.070312 11.925781 14.40625 12.59375 C 13.34375 13.71875 12.070312 14.628906 10.59375 15.328125 C 9.113281 16.023438 7.601562 16.375 6.0625 16.375 C 5.1875 16.375 4.445312 16.0625 3.84375 15.4375 C 3.238281 14.8125 2.9375 14.0625 2.9375 13.1875 C 2.9375 12.351562 3.222656 11.628906 3.796875 11.015625 C 4.367188 10.398438 5.0625 10.082031 5.875 10.0625 C 7.539062 9.957031 8.878906 9.328125 9.890625 8.171875 C 10.898438 7.015625 11.832031 5.394531 12.6875 3.3125 L 14.1875 -0.5 L 1.0625 -29.9375 C 0.875 -30.375 0.78125 -30.820312 0.78125 -31.28125 C 0.78125 -32.132812 1.085938 -32.867188 1.703125 -33.484375 C 2.316406 -34.097656 3.050781 -34.40625 3.90625 -34.40625 Z M 3.90625 -34.40625 "/></g></g></g><g fill="#000000" fill-opacity="1"><g transform="translate(170.975033, 62.011754)"><g><path d="M 5.109375 -0.59375 C 4.710938 -0.195312 4.234375 0 3.671875 0 C 3.109375 0 2.625 -0.195312 2.21875 -0.59375 C 1.820312 -1 1.625 -1.484375 1.625 -2.046875 L 1.5625 -27.5 C 1.539062 -27.625 1.53125 -27.75 1.53125 -27.875 C 1.53125 -28.132812 1.679688 -28.503906 1.984375 -28.984375 C 2.316406 -29.515625 2.789062 -29.78125 3.40625 -29.78125 C 4.382812 -29.78125 5.0625 -29.394531 5.4375 -28.625 L 16.40625 -10.71875 L 26.5625 -28.65625 C 26.96875 -29.332031 27.519531 -29.671875 28.21875 -29.671875 C 28.820312 -29.671875 29.335938 -29.472656 29.765625 -29.078125 C 30.191406 -28.691406 30.40625 -28.207031 30.40625 -27.625 L 30.40625 -1.96875 C 30.40625 -1.40625 30.203125 -0.921875 29.796875 -0.515625 C 29.398438 -0.117188 28.921875 0.078125 28.359375 0.078125 C 27.796875 0.078125 27.3125 -0.117188 26.90625 -0.515625 C 26.507812 -0.921875 26.3125 -1.40625 26.3125 -1.96875 L 26.3125 -20.296875 L 18.25 -5.65625 C 18.070312 -5.382812 17.828125 -5.140625 17.515625 -4.921875 C 17.203125 -4.710938 16.875 -4.609375 16.53125 -4.609375 C 15.738281 -4.609375 15.128906 -4.9375 14.703125 -5.59375 L 5.65625 -20.390625 L 5.71875 -2.078125 L 5.71875 -2.046875 C 5.71875 -1.484375 5.515625 -1 5.109375 -0.59375 Z M 5.109375 -0.59375 "/></g></g></g><g fill="#000000" fill-opacity="1"><g transform="translate(85.170452, 267.178458)"><g><path d="M 1.109375 -25.84375 C 0.710938 -26.25 0.515625 -26.734375 0.515625 -27.296875 C 0.515625 -27.859375 0.710938 -28.335938 1.109375 -28.734375 C 1.515625 -29.140625 2 -29.34375 2.5625 -29.34375 L 2.578125 -29.34375 L 23.078125 -29.46875 L 23.109375 -29.46875 C 23.671875 -29.46875 24.148438 -29.265625 24.546875 -28.859375 C 24.953125 -28.460938 25.15625 -27.984375 25.15625 -27.421875 C 25.15625 -26.859375 24.953125 -26.375 24.546875 -25.96875 C 24.148438 -25.570312 23.671875 -25.375 23.109375 -25.375 L 23.09375 -25.375 L 14.9375 -25.328125 L 14.828125 -1.78125 L 14.828125 -1.765625 C 14.828125 -1.210938 14.625 -0.738281 14.21875 -0.34375 C 13.820312 0.0507812 13.34375 0.25 12.78125 0.25 C 12.21875 0.25 11.734375 0.0507812 11.328125 -0.34375 C 10.921875 -0.738281 10.71875 -1.210938 10.71875 -1.765625 L 10.71875 -1.8125 L 10.828125 -25.3125 L 2.578125 -25.25 L 2.5625 -25.25 C 2 -25.25 1.515625 -25.445312 1.109375 -25.84375 Z M 1.109375 -25.84375 "/></g></g><g transform="translate(110.825724, 267.178458)"><g><path d="M 16.25 -2.765625 C 15.613281 -2.148438 15.046875 -1.644531 14.546875 -1.25 C 14.054688 -0.851562 13.382812 -0.46875 12.53125 -0.09375 C 11.6875 0.269531 10.835938 0.453125 9.984375 0.453125 C 8.304688 0.453125 6.859375 0.0078125 5.640625 -0.875 C 4.421875 -1.769531 3.503906 -2.90625 2.890625 -4.28125 C 2.273438 -5.675781 1.96875 -7.582031 1.96875 -10 L 1.96875 -20.359375 C 1.96875 -20.921875 2.171875 -21.40625 2.578125 -21.8125 C 2.984375 -22.21875 3.460938 -22.421875 4.015625 -22.421875 C 4.578125 -22.421875 5.0625 -22.21875 5.46875 -21.8125 C 5.875 -21.40625 6.078125 -20.921875 6.078125 -20.359375 L 6.078125 -10 C 6.078125 -8.15625 6.269531 -6.8125 6.65625 -5.96875 C 6.945312 -5.300781 7.375 -4.75 7.9375 -4.3125 C 8.5 -3.875 9.171875 -3.65625 9.953125 -3.65625 C 11.941406 -3.65625 13.488281 -4.421875 14.59375 -5.953125 C 15.695312 -7.484375 16.238281 -9.570312 16.21875 -12.21875 L 16.203125 -20.40625 C 16.203125 -20.96875 16.40625 -21.445312 16.8125 -21.84375 C 17.21875 -22.25 17.695312 -22.453125 18.25 -22.453125 C 18.832031 -22.453125 19.320312 -22.25 19.71875 -21.84375 C 20.113281 -21.445312 20.3125 -20.960938 20.3125 -20.390625 L 20.34375 -1.53125 C 20.34375 -0.945312 20.1875 -0.457031 19.875 -0.0625 C 19.5625 0.320312 19.128906 0.515625 18.578125 0.515625 C 17.640625 0.515625 16.976562 -0.164062 16.59375 -1.53125 Z M 16.25 -2.765625 "/></g></g></g><g fill="#000000" fill-opacity="1"><g transform="translate(165.791698, 267.928458)"><g><path d="M 1.109375 -25.84375 C 0.710938 -26.25 0.515625 -26.734375 0.515625 -27.296875 C 0.515625 -27.859375 0.710938 -28.335938 1.109375 -28.734375 C 1.515625 -29.140625 2 -29.34375 2.5625 -29.34375 L 2.578125 -29.34375 L 23.078125 -29.46875 L 23.109375 -29.46875 C 23.671875 -29.46875 24.148438 -29.265625 24.546875 -28.859375 C 24.953125 -28.460938 25.15625 -27.984375 25.15625 -27.421875 C 25.15625 -26.859375 24.953125 -26.375 24.546875 -25.96875 C 24.148438 -25.570312 23.671875 -25.375 23.109375 -25.375 L 23.09375 -25.375 L 14.9375 -25.328125 L 14.828125 -1.78125 L 14.828125 -1.765625 C 14.828125 -1.210938 14.625 -0.738281 14.21875 -0.34375 C 13.820312 0.0507812 13.34375 0.25 12.78125 0.25 C 12.21875 0.25 11.734375 0.0507812 11.328125 -0.34375 C 10.921875 -0.738281 10.71875 -1.210938 10.71875 -1.765625 L 10.71875 -1.8125 L 10.828125 -25.3125 L 2.578125 -25.25 L 2.5625 -25.25 C 2 -25.25 1.515625 -25.445312 1.109375 -25.84375 Z M 1.109375 -25.84375 "/></g></g><g transform="translate(191.44697, 267.928458)"><g><path d="M 1.953125 -27.9375 C 1.953125 -28.476562 2.148438 -28.941406 2.546875 -29.328125 C 2.941406 -29.722656 3.425781 -29.921875 4 -29.921875 C 4.5625 -29.921875 5.039062 -29.722656 5.4375 -29.328125 C 5.84375 -28.941406 6.046875 -28.476562 6.046875 -27.9375 L 6.046875 -18.984375 C 6.554688 -20.054688 7.296875 -20.898438 8.265625 -21.515625 C 9.242188 -22.128906 10.226562 -22.4375 11.21875 -22.4375 C 14.320312 -22.4375 16.632812 -21.507812 18.15625 -19.65625 C 19.6875 -17.800781 20.453125 -15.273438 20.453125 -12.078125 L 20.453125 -11.890625 L 20.421875 -1.53125 L 20.421875 -1.515625 C 20.421875 -0.972656 20.21875 -0.503906 19.8125 -0.109375 C 19.414062 0.273438 18.9375 0.46875 18.375 0.46875 C 17.8125 0.46875 17.328125 0.273438 16.921875 -0.109375 C 16.523438 -0.503906 16.328125 -0.972656 16.328125 -1.515625 L 16.328125 -1.53125 L 16.34375 -11.796875 L 16.34375 -11.828125 C 16.34375 -14.054688 15.96875 -15.691406 15.21875 -16.734375 C 14.476562 -17.785156 13.144531 -18.3125 11.21875 -18.3125 C 9.550781 -18.3125 8.28125 -17.726562 7.40625 -16.5625 C 6.53125 -15.40625 6.09375 -13.863281 6.09375 -11.9375 L 6.09375 -1.5 C 6.09375 -0.945312 5.890625 -0.472656 5.484375 -0.078125 C 5.078125 0.304688 4.597656 0.5 4.046875 0.5 C 3.453125 0.5 2.953125 0.300781 2.546875 -0.09375 C 2.148438 -0.5 1.953125 -0.96875 1.953125 -1.5 Z M 1.953125 -27.9375 "/></g></g></g><g fill="#000000" fill-opacity="1"><g transform="translate(257.617091, 267.928458)"><g><path d="M 1.53125 -27.40625 C 1.53125 -27.945312 1.734375 -28.414062 2.140625 -28.8125 C 2.546875 -29.207031 3.03125 -29.40625 3.59375 -29.40625 L 20.296875 -29.421875 L 20.328125 -29.421875 C 20.890625 -29.421875 21.367188 -29.21875 21.765625 -28.8125 C 22.171875 -28.414062 22.375 -27.9375 22.375 -27.375 C 22.375 -26.8125 22.171875 -26.328125 21.765625 -25.921875 C 21.367188 -25.523438 20.890625 -25.328125 20.328125 -25.328125 L 20.296875 -25.328125 L 5.640625 -25.3125 L 5.65625 -17.84375 L 16.34375 -17.9375 L 16.578125 -17.9375 C 17.078125 -17.9375 17.507812 -17.726562 17.875 -17.3125 C 18.238281 -16.894531 18.421875 -16.460938 18.421875 -16.015625 C 18.421875 -15.410156 18.226562 -14.894531 17.84375 -14.46875 C 17.457031 -14.050781 16.960938 -13.84375 16.359375 -13.84375 L 5.6875 -13.734375 L 5.703125 -1.8125 L 5.703125 -1.765625 C 5.703125 -1.210938 5.5 -0.738281 5.09375 -0.34375 C 4.6875 0.0507812 4.203125 0.25 3.640625 0.25 C 3.085938 0.25 2.609375 0.0507812 2.203125 -0.34375 C 1.796875 -0.738281 1.59375 -1.210938 1.59375 -1.765625 L 1.59375 -1.78125 Z M 1.53125 -27.40625 "/></g></g></g><g fill="#000000" fill-opacity="1"><g transform="translate(122.918573, 340.43447)"><g><path d="M 14.03125 -29.796875 C 16.363281 -29.796875 18.5 -29.210938 20.4375 -28.046875 C 22.375 -26.890625 23.75 -25.375 24.5625 -23.5 C 24.6875 -23.226562 24.75 -22.945312 24.75 -22.65625 C 24.75 -22.101562 24.546875 -21.625 24.140625 -21.21875 C 23.742188 -20.8125 23.265625 -20.609375 22.703125 -20.609375 C 22.335938 -20.609375 21.960938 -20.726562 21.578125 -20.96875 C 21.203125 -21.207031 20.945312 -21.5 20.8125 -21.84375 C 20.289062 -23.03125 19.425781 -23.96875 18.21875 -24.65625 C 17.007812 -25.351562 15.613281 -25.703125 14.03125 -25.703125 C 13.21875 -25.703125 12.382812 -25.601562 11.53125 -25.40625 C 10.675781 -25.207031 9.867188 -24.914062 9.109375 -24.53125 C 8.359375 -24.15625 7.738281 -23.660156 7.25 -23.046875 C 6.757812 -22.429688 6.515625 -21.753906 6.515625 -21.015625 C 6.515625 -20.429688 6.707031 -19.90625 7.09375 -19.4375 C 7.476562 -18.976562 7.953125 -18.601562 8.515625 -18.3125 C 9.515625 -17.8125 10.773438 -17.421875 12.296875 -17.140625 C 13.816406 -16.867188 15.375 -16.597656 16.96875 -16.328125 C 18.570312 -16.066406 19.898438 -15.710938 20.953125 -15.265625 C 22.335938 -14.660156 23.488281 -13.800781 24.40625 -12.6875 C 25.320312 -11.570312 25.78125 -10.210938 25.78125 -8.609375 C 25.78125 -7.453125 25.535156 -6.367188 25.046875 -5.359375 C 24.566406 -4.359375 23.925781 -3.507812 23.125 -2.8125 C 22.332031 -2.113281 21.421875 -1.515625 20.390625 -1.015625 C 19.359375 -0.515625 18.300781 -0.148438 17.21875 0.078125 C 16.132812 0.316406 15.054688 0.4375 13.984375 0.4375 C 11.304688 0.4375 8.90625 -0.191406 6.78125 -1.453125 C 4.664062 -2.710938 3.148438 -4.398438 2.234375 -6.515625 C 2.109375 -6.796875 2.046875 -7.070312 2.046875 -7.34375 C 2.046875 -7.90625 2.25 -8.382812 2.65625 -8.78125 C 3.0625 -9.1875 3.546875 -9.390625 4.109375 -9.390625 C 4.484375 -9.390625 4.851562 -9.265625 5.21875 -9.015625 C 5.59375 -8.773438 5.847656 -8.484375 5.984375 -8.140625 C 6.578125 -6.765625 7.59375 -5.675781 9.03125 -4.875 C 10.476562 -4.070312 12.128906 -3.671875 13.984375 -3.671875 C 15.210938 -3.671875 16.390625 -3.835938 17.515625 -4.171875 C 18.648438 -4.503906 19.625 -5.0625 20.4375 -5.84375 C 21.25 -6.625 21.65625 -7.546875 21.65625 -8.609375 C 21.65625 -9.265625 21.429688 -9.832031 20.984375 -10.3125 C 20.546875 -10.800781 20 -11.191406 19.34375 -11.484375 C 18.269531 -11.929688 16.929688 -12.289062 15.328125 -12.5625 C 13.734375 -12.832031 12.160156 -13.109375 10.609375 -13.390625 C 9.054688 -13.679688 7.742188 -14.097656 6.671875 -14.640625 C 5.429688 -15.253906 4.410156 -16.09375 3.609375 -17.15625 C 2.804688 -18.226562 2.40625 -19.515625 2.40625 -21.015625 C 2.40625 -22.109375 2.632812 -23.132812 3.09375 -24.09375 C 3.550781 -25.0625 4.164062 -25.890625 4.9375 -26.578125 C 5.707031 -27.265625 6.59375 -27.851562 7.59375 -28.34375 C 8.601562 -28.832031 9.65625 -29.195312 10.75 -29.4375 C 11.84375 -29.675781 12.9375 -29.796875 14.03125 -29.796875 Z M 14.03125 -29.796875 "/></g></g><g transform="translate(150.747673, 340.43447)"><g><path d="M 12.78125 -22.5625 C 14.21875 -22.5625 15.632812 -22.148438 17.03125 -21.328125 C 18.4375 -20.503906 19.429688 -19.582031 20.015625 -18.5625 L 20.234375 -20.53125 C 20.234375 -21.101562 20.398438 -21.585938 20.734375 -21.984375 C 21.078125 -22.378906 21.519531 -22.578125 22.0625 -22.578125 C 22.625 -22.578125 23.109375 -22.375 23.515625 -21.96875 C 23.921875 -21.570312 24.125 -21.09375 24.125 -20.53125 L 24.125 -20.484375 L 24.078125 -1.5 C 24.078125 -0.9375 23.875 -0.453125 23.46875 -0.046875 C 23.0625 0.347656 22.582031 0.546875 22.03125 0.546875 C 21.476562 0.546875 21.035156 0.347656 20.703125 -0.046875 C 20.367188 -0.441406 20.203125 -0.925781 20.203125 -1.5 L 19.96875 -3.140625 C 19.289062 -1.972656 18.28125 -1.078125 16.9375 -0.453125 C 15.601562 0.160156 14.203125 0.46875 12.734375 0.46875 C 10.710938 0.46875 8.835938 -0.0546875 7.109375 -1.109375 C 5.390625 -2.160156 4.03125 -3.5625 3.03125 -5.3125 C 2.03125 -7.070312 1.53125 -8.96875 1.53125 -11 C 1.53125 -13 2.015625 -14.882812 2.984375 -16.65625 C 3.960938 -18.425781 5.320312 -19.851562 7.0625 -20.9375 C 8.8125 -22.019531 10.71875 -22.5625 12.78125 -22.5625 Z M 19.859375 -11.03125 C 19.859375 -13.050781 19.171875 -14.789062 17.796875 -16.25 C 16.429688 -17.71875 14.742188 -18.453125 12.734375 -18.453125 C 10.753906 -18.453125 9.066406 -17.71875 7.671875 -16.25 C 6.285156 -14.78125 5.59375 -13.046875 5.59375 -11.046875 C 5.59375 -9.046875 6.289062 -7.304688 7.6875 -5.828125 C 9.09375 -4.359375 10.78125 -3.625 12.75 -3.625 C 14.707031 -3.625 16.378906 -4.359375 17.765625 -5.828125 C 19.160156 -7.304688 19.859375 -9.039062 19.859375 -11.03125 Z M 19.859375 -11.03125 "/></g></g></g><g fill="#000000" fill-opacity="1"><g transform="translate(205.568502, 340.43447)"><g><path d="M 14.03125 -29.796875 C 16.363281 -29.796875 18.5 -29.210938 20.4375 -28.046875 C 22.375 -26.890625 23.75 -25.375 24.5625 -23.5 C 24.6875 -23.226562 24.75 -22.945312 24.75 -22.65625 C 24.75 -22.101562 24.546875 -21.625 24.140625 -21.21875 C 23.742188 -20.8125 23.265625 -20.609375 22.703125 -20.609375 C 22.335938 -20.609375 21.960938 -20.726562 21.578125 -20.96875 C 21.203125 -21.207031 20.945312 -21.5 20.8125 -21.84375 C 20.289062 -23.03125 19.425781 -23.96875 18.21875 -24.65625 C 17.007812 -25.351562 15.613281 -25.703125 14.03125 -25.703125 C 13.21875 -25.703125 12.382812 -25.601562 11.53125 -25.40625 C 10.675781 -25.207031 9.867188 -24.914062 9.109375 -24.53125 C 8.359375 -24.15625 7.738281 -23.660156 7.25 -23.046875 C 6.757812 -22.429688 6.515625 -21.753906 6.515625 -21.015625 C 6.515625 -20.429688 6.707031 -19.90625 7.09375 -19.4375 C 7.476562 -18.976562 7.953125 -18.601562 8.515625 -18.3125 C 9.515625 -17.8125 10.773438 -17.421875 12.296875 -17.140625 C 13.816406 -16.867188 15.375 -16.597656 16.96875 -16.328125 C 18.570312 -16.066406 19.898438 -15.710938 20.953125 -15.265625 C 22.335938 -14.660156 23.488281 -13.800781 24.40625 -12.6875 C 25.320312 -11.570312 25.78125 -10.210938 25.78125 -8.609375 C 25.78125 -7.453125 25.535156 -6.367188 25.046875 -5.359375 C 24.566406 -4.359375 23.925781 -3.507812 23.125 -2.8125 C 22.332031 -2.113281 21.421875 -1.515625 20.390625 -1.015625 C 19.359375 -0.515625 18.300781 -0.148438 17.21875 0.078125 C 16.132812 0.316406 15.054688 0.4375 13.984375 0.4375 C 11.304688 0.4375 8.90625 -0.191406 6.78125 -1.453125 C 4.664062 -2.710938 3.148438 -4.398438 2.234375 -6.515625 C 2.109375 -6.796875 2.046875 -7.070312 2.046875 -7.34375 C 2.046875 -7.90625 2.25 -8.382812 2.65625 -8.78125 C 3.0625 -9.1875 3.546875 -9.390625 4.109375 -9.390625 C 4.484375 -9.390625 4.851562 -9.265625 5.21875 -9.015625 C 5.59375 -8.773438 5.847656 -8.484375 5.984375 -8.140625 C 6.578125 -6.765625 7.59375 -5.675781 9.03125 -4.875 C 10.476562 -4.070312 12.128906 -3.671875 13.984375 -3.671875 C 15.210938 -3.671875 16.390625 -3.835938 17.515625 -4.171875 C 18.648438 -4.503906 19.625 -5.0625 20.4375 -5.84375 C 21.25 -6.625 21.65625 -7.546875 21.65625 -8.609375 C 21.65625 -9.265625 21.429688 -9.832031 20.984375 -10.3125 C 20.546875 -10.800781 20 -11.191406 19.34375 -11.484375 C 18.269531 -11.929688 16.929688 -12.289062 15.328125 -12.5625 C 13.734375 -12.832031 12.160156 -13.109375 10.609375 -13.390625 C 9.054688 -13.679688 7.742188 -14.097656 6.671875 -14.640625 C 5.429688 -15.253906 4.410156 -16.09375 3.609375 -17.15625 C 2.804688 -18.226562 2.40625 -19.515625 2.40625 -21.015625 C 2.40625 -22.109375 2.632812 -23.132812 3.09375 -24.09375 C 3.550781 -25.0625 4.164062 -25.890625 4.9375 -26.578125 C 5.707031 -27.265625 6.59375 -27.851562 7.59375 -28.34375 C 8.601562 -28.832031 9.65625 -29.195312 10.75 -29.4375 C 11.84375 -29.675781 12.9375 -29.796875 14.03125 -29.796875 Z M 14.03125 -29.796875 "/></g></g><g transform="translate(233.397602, 340.43447)"><g><path d="M 16.25 -2.765625 C 15.613281 -2.148438 15.046875 -1.644531 14.546875 -1.25 C 14.054688 -0.851562 13.382812 -0.46875 12.53125 -0.09375 C 11.6875 0.269531 10.835938 0.453125 9.984375 0.453125 C 8.304688 0.453125 6.859375 0.0078125 5.640625 -0.875 C 4.421875 -1.769531 3.503906 -2.90625 2.890625 -4.28125 C 2.273438 -5.675781 1.96875 -7.582031 1.96875 -10 L 1.96875 -20.359375 C 1.96875 -20.921875 2.171875 -21.40625 2.578125 -21.8125 C 2.984375 -22.21875 3.460938 -22.421875 4.015625 -22.421875 C 4.578125 -22.421875 5.0625 -22.21875 5.46875 -21.8125 C 5.875 -21.40625 6.078125 -20.921875 6.078125 -20.359375 L 6.078125 -10 C 6.078125 -8.15625 6.269531 -6.8125 6.65625 -5.96875 C 6.945312 -5.300781 7.375 -4.75 7.9375 -4.3125 C 8.5 -3.875 9.171875 -3.65625 9.953125 -3.65625 C 11.941406 -3.65625 13.488281 -4.421875 14.59375 -5.953125 C 15.695312 -7.484375 16.238281 -9.570312 16.21875 -12.21875 L 16.203125 -20.40625 C 16.203125 -20.96875 16.40625 -21.445312 16.8125 -21.84375 C 17.21875 -22.25 17.695312 -22.453125 18.25 -22.453125 C 18.832031 -22.453125 19.320312 -22.25 19.71875 -21.84375 C 20.113281 -21.445312 20.3125 -20.960938 20.3125 -20.390625 L 20.34375 -1.53125 C 20.34375 -0.945312 20.1875 -0.457031 19.875 -0.0625 C 19.5625 0.320312 19.128906 0.515625 18.578125 0.515625 C 17.640625 0.515625 16.976562 -0.164062 16.59375 -1.53125 Z M 16.25 -2.765625 "/></g></g></g></svg>