<svg xmlns="http://www.w3.org/2000/svg" xmlns:xlink="http://www.w3.org/1999/xlink" width="1080" zoomAndPan="magnify" viewBox="0 0 810 809.999993" height="1080" preserveAspectRatio="xMidYMid meet" version="1.0"><defs><g/><clipPath id="6fbf9d72f0"><path d="M 51.394531 62.722656 L 758.605469 62.722656 L 758.605469 769.9375 L 51.394531 769.9375 Z M 51.394531 62.722656 " clip-rule="nonzero"/></clipPath><clipPath id="4c6fa638c7"><path d="M 126.394531 62.722656 L 683.605469 62.722656 C 725.027344 62.722656 758.605469 96.300781 758.605469 137.722656 L 758.605469 694.9375 C 758.605469 736.359375 725.027344 769.9375 683.605469 769.9375 L 126.394531 769.9375 C 84.972656 769.9375 51.394531 736.359375 51.394531 694.9375 L 51.394531 137.722656 C 51.394531 96.300781 84.972656 62.722656 126.394531 62.722656 Z M 126.394531 62.722656 " clip-rule="nonzero"/></clipPath><clipPath id="e6945de264"><path d="M 0.394531 0.722656 L 707.605469 0.722656 L 707.605469 707.9375 L 0.394531 707.9375 Z M 0.394531 0.722656 " clip-rule="nonzero"/></clipPath><clipPath id="333a187114"><path d="M 75.394531 0.722656 L 632.605469 0.722656 C 674.027344 0.722656 707.605469 34.300781 707.605469 75.722656 L 707.605469 632.9375 C 707.605469 674.359375 674.027344 707.9375 632.605469 707.9375 L 75.394531 707.9375 C 33.972656 707.9375 0.394531 674.359375 0.394531 632.9375 L 0.394531 75.722656 C 0.394531 34.300781 33.972656 0.722656 75.394531 0.722656 Z M 75.394531 0.722656 " clip-rule="nonzero"/></clipPath><clipPath id="5aebe2dafc"><rect x="0" width="708" y="0" height="708"/></clipPath><clipPath id="5ec31a65eb"><path d="M 51.394531 62.722656 L 758.640625 62.722656 L 758.640625 769.972656 L 51.394531 769.972656 Z M 51.394531 62.722656 " clip-rule="nonzero"/></clipPath><clipPath id="08e1f09c55"><path d="M 126.390625 62.722656 L 683.597656 62.722656 C 725.019531 62.722656 758.59375 96.300781 758.59375 137.722656 L 758.59375 694.929688 C 758.59375 736.347656 725.019531 769.925781 683.597656 769.925781 L 126.390625 769.925781 C 84.96875 769.925781 51.394531 736.347656 51.394531 694.929688 L 51.394531 137.722656 C 51.394531 96.300781 84.96875 62.722656 126.390625 62.722656 Z M 126.390625 62.722656 " clip-rule="nonzero"/></clipPath><clipPath id="ffe5966742"><path d="M 47.328125 60.808594 L 763.578125 60.808594 L 763.578125 775.558594 L 47.328125 775.558594 Z M 47.328125 60.808594 " clip-rule="nonzero"/></clipPath><clipPath id="2073627835"><path d="M 122.328125 60.808594 L 688.25 60.808594 C 729.671875 60.808594 763.25 94.386719 763.25 135.804688 L 763.25 700.558594 C 763.25 741.980469 729.671875 775.558594 688.25 775.558594 L 122.328125 775.558594 C 80.90625 775.558594 47.328125 741.980469 47.328125 700.558594 L 47.328125 135.804688 C 47.328125 94.386719 80.90625 60.808594 122.328125 60.808594 Z M 122.328125 60.808594 " clip-rule="nonzero"/></clipPath><clipPath id="2385272081"><path d="M 88.839844 103.125 L 722 103.125 L 722 729.539062 L 88.839844 729.539062 Z M 88.839844 103.125 " clip-rule="nonzero"/></clipPath><clipPath id="aef4f14e38"><path d="M 127.089844 103.125 L 682.910156 103.125 C 693.054688 103.125 702.785156 107.152344 709.957031 114.328125 C 717.132812 121.5 721.160156 131.230469 721.160156 141.375 L 721.160156 691.289062 C 721.160156 701.433594 717.132812 711.160156 709.957031 718.335938 C 702.785156 725.507812 693.054688 729.539062 682.910156 729.539062 L 127.089844 729.539062 C 116.945312 729.539062 107.214844 725.507812 100.042969 718.335938 C 92.867188 711.160156 88.839844 701.433594 88.839844 691.289062 L 88.839844 141.375 C 88.839844 131.230469 92.867188 121.5 100.042969 114.328125 C 107.214844 107.152344 116.945312 103.125 127.089844 103.125 Z M 127.089844 103.125 " clip-rule="nonzero"/></clipPath><clipPath id="f27e16a3af"><path d="M 0.839844 0.125 L 633 0.125 L 633 626.539062 L 0.839844 626.539062 Z M 0.839844 0.125 " clip-rule="nonzero"/></clipPath><clipPath id="97d93ce8b8"><path d="M 39.089844 0.125 L 594.910156 0.125 C 605.054688 0.125 614.785156 4.152344 621.957031 11.328125 C 629.132812 18.5 633.160156 28.230469 633.160156 38.375 L 633.160156 588.289062 C 633.160156 598.433594 629.132812 608.160156 621.957031 615.335938 C 614.785156 622.507812 605.054688 626.539062 594.910156 626.539062 L 39.089844 626.539062 C 28.945312 626.539062 19.214844 622.507812 12.042969 615.335938 C 4.867188 608.160156 0.839844 598.433594 0.839844 588.289062 L 0.839844 38.375 C 0.839844 28.230469 4.867188 18.5 12.042969 11.328125 C 19.214844 4.152344 28.945312 0.125 39.089844 0.125 Z M 39.089844 0.125 " clip-rule="nonzero"/></clipPath><clipPath id="08fce831fb"><rect x="0" width="634" y="0" height="627"/></clipPath><clipPath id="66c48e2e9d"><path d="M 88.839844 103.125 L 721.089844 103.125 L 721.089844 729.375 L 88.839844 729.375 Z M 88.839844 103.125 " clip-rule="nonzero"/></clipPath><clipPath id="95873d174b"><path d="M 127.089844 103.125 L 682.910156 103.125 C 693.054688 103.125 702.78125 107.15625 709.957031 114.328125 C 717.128906 121.5 721.160156 131.230469 721.160156 141.375 L 721.160156 691.285156 C 721.160156 701.429688 717.128906 711.160156 709.957031 718.332031 C 702.78125 725.507812 693.054688 729.535156 682.910156 729.535156 L 127.089844 729.535156 C 116.945312 729.535156 107.214844 725.507812 100.042969 718.332031 C 92.867188 711.160156 88.839844 701.429688 88.839844 691.285156 L 88.839844 141.375 C 88.839844 131.230469 92.867188 121.5 100.042969 114.328125 C 107.214844 107.15625 116.945312 103.125 127.089844 103.125 Z M 127.089844 103.125 " clip-rule="nonzero"/></clipPath><clipPath id="c7d473bdbb"><path d="M 346.242188 143.519531 L 468.839844 143.519531 L 468.839844 266.113281 L 346.242188 266.113281 Z M 346.242188 143.519531 " clip-rule="nonzero"/></clipPath><clipPath id="41b09b2ad2"><path d="M 383.742188 143.519531 L 431.339844 143.519531 C 452.050781 143.519531 468.839844 160.308594 468.839844 181.019531 L 468.839844 228.613281 C 468.839844 249.324219 452.050781 266.113281 431.339844 266.113281 L 383.742188 266.113281 C 363.03125 266.113281 346.242188 249.324219 346.242188 228.613281 L 346.242188 181.019531 C 346.242188 160.308594 363.03125 143.519531 383.742188 143.519531 Z M 383.742188 143.519531 " clip-rule="nonzero"/></clipPath><clipPath id="b4349b718c"><path d="M 0.242188 0.519531 L 122.839844 0.519531 L 122.839844 123.113281 L 0.242188 123.113281 Z M 0.242188 0.519531 " clip-rule="nonzero"/></clipPath><clipPath id="c3a9a1fdaa"><path d="M 37.742188 0.519531 L 85.339844 0.519531 C 106.050781 0.519531 122.839844 17.308594 122.839844 38.019531 L 122.839844 85.613281 C 122.839844 106.324219 106.050781 123.113281 85.339844 123.113281 L 37.742188 123.113281 C 17.03125 123.113281 0.242188 106.324219 0.242188 85.613281 L 0.242188 38.019531 C 0.242188 17.308594 17.03125 0.519531 37.742188 0.519531 Z M 37.742188 0.519531 " clip-rule="nonzero"/></clipPath><clipPath id="45397a9cf2"><rect x="0" width="123" y="0" height="124"/></clipPath><clipPath id="f09ea1081e"><path d="M 346.242188 143.519531 L 468.492188 143.519531 L 468.492188 265.769531 L 346.242188 265.769531 Z M 346.242188 143.519531 " clip-rule="nonzero"/></clipPath><clipPath id="3ede6999ae"><path d="M 383.742188 143.519531 L 431.335938 143.519531 C 452.042969 143.519531 468.832031 160.304688 468.832031 181.015625 L 468.832031 228.609375 C 468.832031 249.320312 452.042969 266.109375 431.335938 266.109375 L 383.742188 266.109375 C 363.03125 266.109375 346.242188 249.320312 346.242188 228.609375 L 346.242188 181.015625 C 346.242188 160.304688 363.03125 143.519531 383.742188 143.519531 Z M 383.742188 143.519531 " clip-rule="nonzero"/></clipPath><clipPath id="918007c74e"><path d="M 127.707031 543.988281 L 250.304688 543.988281 L 250.304688 666.585938 L 127.707031 666.585938 Z M 127.707031 543.988281 " clip-rule="nonzero"/></clipPath><clipPath id="664f4f8c0d"><path d="M 165.207031 543.988281 L 212.804688 543.988281 C 233.515625 543.988281 250.304688 560.777344 250.304688 581.488281 L 250.304688 629.085938 C 250.304688 649.796875 233.515625 666.585938 212.804688 666.585938 L 165.207031 666.585938 C 144.496094 666.585938 127.707031 649.796875 127.707031 629.085938 L 127.707031 581.488281 C 127.707031 560.777344 144.496094 543.988281 165.207031 543.988281 Z M 165.207031 543.988281 " clip-rule="nonzero"/></clipPath><clipPath id="a05a1c67e0"><path d="M 0.707031 0.988281 L 123.304688 0.988281 L 123.304688 123.585938 L 0.707031 123.585938 Z M 0.707031 0.988281 " clip-rule="nonzero"/></clipPath><clipPath id="fcb88fc618"><path d="M 38.207031 0.988281 L 85.804688 0.988281 C 106.515625 0.988281 123.304688 17.777344 123.304688 38.488281 L 123.304688 86.085938 C 123.304688 106.796875 106.515625 123.585938 85.804688 123.585938 L 38.207031 123.585938 C 17.496094 123.585938 0.707031 106.796875 0.707031 86.085938 L 0.707031 38.488281 C 0.707031 17.777344 17.496094 0.988281 38.207031 0.988281 Z M 38.207031 0.988281 " clip-rule="nonzero"/></clipPath><clipPath id="90264744cc"><rect x="0" width="124" y="0" height="124"/></clipPath><clipPath id="cd0c576d1f"><path d="M 127.707031 543.988281 L 249.957031 543.988281 L 249.957031 666.238281 L 127.707031 666.238281 Z M 127.707031 543.988281 " clip-rule="nonzero"/></clipPath><clipPath id="b233f86828"><path d="M 165.203125 543.988281 L 212.800781 543.988281 C 233.507812 543.988281 250.296875 560.777344 250.296875 581.488281 L 250.296875 629.082031 C 250.296875 649.789062 233.507812 666.578125 212.800781 666.578125 L 165.203125 666.578125 C 144.496094 666.578125 127.707031 649.789062 127.707031 629.082031 L 127.707031 581.488281 C 127.707031 560.777344 144.496094 543.988281 165.203125 543.988281 Z M 165.203125 543.988281 " clip-rule="nonzero"/></clipPath><clipPath id="d5b7801b74"><path d="M 235.308594 543.988281 L 357.90625 543.988281 L 357.90625 666.585938 L 235.308594 666.585938 Z M 235.308594 543.988281 " clip-rule="nonzero"/></clipPath><clipPath id="4a81fc4f66"><path d="M 272.808594 543.988281 L 320.40625 543.988281 C 341.117188 543.988281 357.90625 560.777344 357.90625 581.488281 L 357.90625 629.085938 C 357.90625 649.796875 341.117188 666.585938 320.40625 666.585938 L 272.808594 666.585938 C 252.097656 666.585938 235.308594 649.796875 235.308594 629.085938 L 235.308594 581.488281 C 235.308594 560.777344 252.097656 543.988281 272.808594 543.988281 Z M 272.808594 543.988281 " clip-rule="nonzero"/></clipPath><clipPath id="c840aa21c6"><path d="M 0.308594 0.988281 L 122.90625 0.988281 L 122.90625 123.585938 L 0.308594 123.585938 Z M 0.308594 0.988281 " clip-rule="nonzero"/></clipPath><clipPath id="8050ceda5e"><path d="M 37.808594 0.988281 L 85.40625 0.988281 C 106.117188 0.988281 122.90625 17.777344 122.90625 38.488281 L 122.90625 86.085938 C 122.90625 106.796875 106.117188 123.585938 85.40625 123.585938 L 37.808594 123.585938 C 17.097656 123.585938 0.308594 106.796875 0.308594 86.085938 L 0.308594 38.488281 C 0.308594 17.777344 17.097656 0.988281 37.808594 0.988281 Z M 37.808594 0.988281 " clip-rule="nonzero"/></clipPath><clipPath id="8dbf2ba8d3"><rect x="0" width="123" y="0" height="124"/></clipPath><clipPath id="c2c954a043"><path d="M 235.308594 543.988281 L 357.558594 543.988281 L 357.558594 666.238281 L 235.308594 666.238281 Z M 235.308594 543.988281 " clip-rule="nonzero"/></clipPath><clipPath id="3bdb3f5968"><path d="M 272.808594 543.988281 L 320.402344 543.988281 C 341.109375 543.988281 357.898438 560.777344 357.898438 581.488281 L 357.898438 629.082031 C 357.898438 649.789062 341.109375 666.578125 320.402344 666.578125 L 272.808594 666.578125 C 252.097656 666.578125 235.308594 649.789062 235.308594 629.082031 L 235.308594 581.488281 C 235.308594 560.777344 252.097656 543.988281 272.808594 543.988281 Z M 272.808594 543.988281 " clip-rule="nonzero"/></clipPath><clipPath id="aa08d14fd1"><path d="M 127.707031 304.363281 L 683 304.363281 L 683 505.636719 L 127.707031 505.636719 Z M 127.707031 304.363281 " clip-rule="nonzero"/></clipPath><clipPath id="9d213a7cac"><path d="M 183.957031 304.363281 L 626.628906 304.363281 C 657.695312 304.363281 682.878906 329.546875 682.878906 360.613281 L 682.878906 449.386719 C 682.878906 480.453125 657.695312 505.636719 626.628906 505.636719 L 183.957031 505.636719 C 152.890625 505.636719 127.707031 480.453125 127.707031 449.386719 L 127.707031 360.613281 C 127.707031 329.546875 152.890625 304.363281 183.957031 304.363281 Z M 183.957031 304.363281 " clip-rule="nonzero"/></clipPath><clipPath id="3b43a5ba2b"><path d="M 0.707031 0.363281 L 556 0.363281 L 556 201.636719 L 0.707031 201.636719 Z M 0.707031 0.363281 " clip-rule="nonzero"/></clipPath><clipPath id="588732b525"><path d="M 56.957031 0.363281 L 499.628906 0.363281 C 530.695312 0.363281 555.878906 25.546875 555.878906 56.613281 L 555.878906 145.386719 C 555.878906 176.453125 530.695312 201.636719 499.628906 201.636719 L 56.957031 201.636719 C 25.890625 201.636719 0.707031 176.453125 0.707031 145.386719 L 0.707031 56.613281 C 0.707031 25.546875 25.890625 0.363281 56.957031 0.363281 Z M 56.957031 0.363281 " clip-rule="nonzero"/></clipPath><clipPath id="1a4e9750a7"><rect x="0" width="556" y="0" height="202"/></clipPath><clipPath id="2d043fe3cd"><path d="M 127.707031 304.363281 L 682.707031 304.363281 L 682.707031 505.363281 L 127.707031 505.363281 Z M 127.707031 304.363281 " clip-rule="nonzero"/></clipPath><clipPath id="532c2145a2"><path d="M 183.957031 304.363281 L 626.621094 304.363281 C 657.6875 304.363281 682.871094 329.546875 682.871094 360.613281 L 682.871094 449.382812 C 682.871094 480.449219 657.6875 505.632812 626.621094 505.632812 L 183.957031 505.632812 C 152.890625 505.632812 127.707031 480.449219 127.707031 449.382812 L 127.707031 360.613281 C 127.707031 329.546875 152.890625 304.363281 183.957031 304.363281 Z M 183.957031 304.363281 " clip-rule="nonzero"/></clipPath><clipPath id="63461fee8e"><path d="M 297.117188 319.140625 L 468.839844 319.140625 L 468.839844 490.859375 L 297.117188 490.859375 Z M 297.117188 319.140625 " clip-rule="nonzero"/></clipPath><clipPath id="c26d8db700"><path d="M 382.976562 319.140625 C 335.558594 319.140625 297.117188 357.582031 297.117188 405 C 297.117188 452.417969 335.558594 490.859375 382.976562 490.859375 C 430.398438 490.859375 468.839844 452.417969 468.839844 405 C 468.839844 357.582031 430.398438 319.140625 382.976562 319.140625 Z M 382.976562 319.140625 " clip-rule="nonzero"/></clipPath><clipPath id="940c8f4ab9"><path d="M 0.117188 0.140625 L 171.839844 0.140625 L 171.839844 171.859375 L 0.117188 171.859375 Z M 0.117188 0.140625 " clip-rule="nonzero"/></clipPath><clipPath id="d69d3d2ac9"><path d="M 85.976562 0.140625 C 38.558594 0.140625 0.117188 38.582031 0.117188 86 C 0.117188 133.417969 38.558594 171.859375 85.976562 171.859375 C 133.398438 171.859375 171.839844 133.417969 171.839844 86 C 171.839844 38.582031 133.398438 0.140625 85.976562 0.140625 Z M 85.976562 0.140625 " clip-rule="nonzero"/></clipPath><clipPath id="3bc39af2ac"><rect x="0" width="172" y="0" height="172"/></clipPath><clipPath id="c87a420904"><path d="M 166.875 369.328125 L 316 369.328125 L 316 467.042969 L 166.875 467.042969 Z M 166.875 369.328125 " clip-rule="nonzero"/></clipPath><clipPath id="00207d1711"><path d="M 251.417969 369.328125 C 253.050781 369.328125 254.695312 369.328125 256.324219 369.328125 C 269.320312 370.960938 277.441406 376.394531 281.140625 385.28125 C 302.804688 384.097656 318.558594 400.90625 308.957031 417.402344 C 312.148438 420.871094 314.8125 424.746094 315.773438 429.953125 C 315.773438 431.441406 315.773438 432.929688 315.773438 434.421875 C 312.910156 447.667969 300.574219 456.617188 280.328125 454.207031 C 275.117188 461.007812 265.847656 467.820312 251.421875 466.972656 C 243.964844 466.523438 238.777344 463.9375 234.234375 460.796875 C 229.453125 463.410156 224.269531 465.457031 216.785156 465.480469 C 199.46875 465.519531 187.882812 455.457031 187.601562 441.65625 C 176.46875 438.425781 168.929688 432.398438 166.875 422.085938 C 166.875 420.597656 166.875 419.101562 166.875 417.617188 C 169.140625 407.398438 176.273438 400.980469 188.144531 398.257812 C 187.433594 381.019531 211.179688 370.246094 230.6875 377.84375 C 235.332031 374.085938 241.90625 369.992188 251.417969 369.328125 Z M 251.417969 369.328125 " clip-rule="nonzero"/></clipPath><clipPath id="d7467ba4dc"><path d="M 0.875 0.328125 L 150 0.328125 L 150 98.042969 L 0.875 98.042969 Z M 0.875 0.328125 " clip-rule="nonzero"/></clipPath><clipPath id="25ae533459"><path d="M 85.417969 0.328125 C 87.050781 0.328125 88.695312 0.328125 90.324219 0.328125 C 103.320312 1.960938 111.441406 7.394531 115.140625 16.28125 C 136.804688 15.097656 152.558594 31.90625 142.957031 48.402344 C 146.148438 51.871094 148.8125 55.746094 149.773438 60.953125 C 149.773438 62.441406 149.773438 63.929688 149.773438 65.421875 C 146.910156 78.667969 134.574219 87.617188 114.328125 85.207031 C 109.117188 92.007812 99.847656 98.820312 85.421875 97.972656 C 77.964844 97.523438 72.777344 94.9375 68.234375 91.796875 C 63.453125 94.410156 58.269531 96.457031 50.785156 96.480469 C 33.46875 96.519531 21.882812 86.457031 21.601562 72.65625 C 10.46875 69.425781 2.929688 63.398438 0.875 53.085938 C 0.875 51.597656 0.875 50.101562 0.875 48.617188 C 3.140625 38.398438 10.273438 31.980469 22.144531 29.257812 C 21.433594 12.019531 45.179688 1.246094 64.6875 8.84375 C 69.332031 5.085938 75.90625 0.992188 85.417969 0.328125 Z M 85.417969 0.328125 " clip-rule="nonzero"/></clipPath><clipPath id="386959d69c"><rect x="0" width="150" y="0" height="99"/></clipPath><clipPath id="822804af0f"><path d="M 417.398438 322.46875 L 566.644531 322.46875 L 566.644531 420.183594 L 417.398438 420.183594 Z M 417.398438 322.46875 " clip-rule="nonzero"/></clipPath><clipPath id="c7c778336a"><path d="M 501.941406 322.46875 C 503.574219 322.46875 505.21875 322.46875 506.847656 322.46875 C 519.84375 324.101562 527.964844 329.53125 531.664062 338.421875 C 553.328125 337.238281 569.082031 354.046875 559.480469 370.542969 C 562.671875 374.007812 565.335938 377.886719 566.296875 383.089844 C 566.296875 384.582031 566.296875 386.070312 566.296875 387.558594 C 563.429688 400.804688 551.097656 409.757812 530.847656 407.347656 C 525.640625 414.148438 516.367188 420.960938 501.945312 420.109375 C 494.488281 419.664062 489.300781 417.078125 484.757812 413.9375 C 479.976562 416.546875 474.792969 418.597656 467.308594 418.621094 C 449.992188 418.660156 438.40625 408.597656 438.125 394.796875 C 426.992188 391.566406 419.453125 385.539062 417.398438 375.226562 C 417.398438 373.734375 417.398438 372.242188 417.398438 370.757812 C 419.664062 360.539062 426.796875 354.121094 438.667969 351.398438 C 437.953125 334.160156 461.703125 323.386719 481.210938 330.980469 C 485.855469 327.226562 492.429688 323.128906 501.941406 322.46875 Z M 501.941406 322.46875 " clip-rule="nonzero"/></clipPath><clipPath id="8ed5cf0d96"><path d="M 0.398438 0.46875 L 149.644531 0.46875 L 149.644531 98.183594 L 0.398438 98.183594 Z M 0.398438 0.46875 " clip-rule="nonzero"/></clipPath><clipPath id="c78ecaa541"><path d="M 84.941406 0.46875 C 86.574219 0.46875 88.21875 0.46875 89.847656 0.46875 C 102.84375 2.101562 110.964844 7.53125 114.664062 16.421875 C 136.328125 15.238281 152.082031 32.046875 142.480469 48.542969 C 145.671875 52.007812 148.335938 55.886719 149.296875 61.089844 C 149.296875 62.582031 149.296875 64.070312 149.296875 65.558594 C 146.429688 78.804688 134.097656 87.757812 113.847656 85.347656 C 108.640625 92.148438 99.367188 98.960938 84.945312 98.109375 C 77.488281 97.664062 72.300781 95.078125 67.757812 91.9375 C 62.976562 94.546875 57.792969 96.597656 50.308594 96.621094 C 32.992188 96.660156 21.40625 86.597656 21.125 72.796875 C 9.992188 69.566406 2.453125 63.539062 0.398438 53.226562 C 0.398438 51.734375 0.398438 50.242188 0.398438 48.757812 C 2.664062 38.539062 9.796875 32.121094 21.667969 29.398438 C 20.953125 12.160156 44.703125 1.386719 64.210938 8.980469 C 68.855469 5.226562 75.429688 1.128906 84.941406 0.46875 Z M 84.941406 0.46875 " clip-rule="nonzero"/></clipPath><clipPath id="efade6cda1"><rect x="0" width="150" y="0" height="99"/></clipPath><clipPath id="189c2e358d"><path d="M 463.371094 371.324219 L 612.613281 371.324219 L 612.613281 469.039062 L 463.371094 469.039062 Z M 463.371094 371.324219 " clip-rule="nonzero"/></clipPath><clipPath id="db41ef1b2a"><path d="M 547.914062 371.324219 C 549.546875 371.324219 551.1875 371.324219 552.820312 371.324219 C 565.8125 372.957031 573.933594 378.390625 577.632812 387.28125 C 599.300781 386.09375 615.050781 402.902344 605.453125 419.398438 C 608.644531 422.867188 611.308594 426.746094 612.269531 431.949219 C 612.269531 433.441406 612.269531 434.925781 612.269531 436.417969 C 609.402344 449.664062 597.070312 458.613281 576.820312 456.203125 C 571.609375 463.003906 562.339844 469.816406 547.914062 468.96875 C 540.460938 468.523438 535.273438 465.9375 530.730469 462.792969 C 525.945312 465.40625 520.765625 467.457031 513.28125 467.476562 C 495.960938 467.515625 484.378906 457.453125 484.097656 443.652344 C 472.964844 440.421875 465.425781 434.398438 463.371094 424.085938 C 463.371094 422.59375 463.371094 421.101562 463.371094 419.617188 C 465.636719 409.394531 472.765625 402.976562 484.640625 400.253906 C 483.925781 383.015625 507.671875 372.246094 527.183594 379.839844 C 531.828125 376.082031 538.398438 371.988281 547.914062 371.324219 Z M 547.914062 371.324219 " clip-rule="nonzero"/></clipPath><clipPath id="2c35b12027"><path d="M 0.371094 0.324219 L 149.613281 0.324219 L 149.613281 98.039062 L 0.371094 98.039062 Z M 0.371094 0.324219 " clip-rule="nonzero"/></clipPath><clipPath id="c0b753d5b8"><path d="M 84.914062 0.324219 C 86.546875 0.324219 88.1875 0.324219 89.820312 0.324219 C 102.8125 1.957031 110.933594 7.390625 114.632812 16.28125 C 136.300781 15.09375 152.050781 31.902344 142.453125 48.398438 C 145.644531 51.867188 148.308594 55.746094 149.269531 60.949219 C 149.269531 62.441406 149.269531 63.925781 149.269531 65.417969 C 146.402344 78.664062 134.070312 87.613281 113.820312 85.203125 C 108.609375 92.003906 99.339844 98.816406 84.914062 97.96875 C 77.460938 97.523438 72.273438 94.9375 67.730469 91.792969 C 62.945312 94.40625 57.765625 96.457031 50.28125 96.476562 C 32.960938 96.515625 21.378906 86.453125 21.097656 72.652344 C 9.964844 69.421875 2.425781 63.398438 0.371094 53.085938 C 0.371094 51.59375 0.371094 50.101562 0.371094 48.617188 C 2.636719 38.394531 9.765625 31.976562 21.640625 29.253906 C 20.925781 12.015625 44.671875 1.246094 64.183594 8.839844 C 68.828125 5.082031 75.398438 0.988281 84.914062 0.324219 Z M 84.914062 0.324219 " clip-rule="nonzero"/></clipPath><clipPath id="b2b1ce76b9"><rect x="0" width="150" y="0" height="99"/></clipPath><clipPath id="af3d559a86"><path d="M 346.242188 543.988281 L 468.839844 543.988281 L 468.839844 666.585938 L 346.242188 666.585938 Z M 346.242188 543.988281 " clip-rule="nonzero"/></clipPath><clipPath id="19a3642a59"><path d="M 383.742188 543.988281 L 431.339844 543.988281 C 452.050781 543.988281 468.839844 560.777344 468.839844 581.488281 L 468.839844 629.085938 C 468.839844 649.796875 452.050781 666.585938 431.339844 666.585938 L 383.742188 666.585938 C 363.03125 666.585938 346.242188 649.796875 346.242188 629.085938 L 346.242188 581.488281 C 346.242188 560.777344 363.03125 543.988281 383.742188 543.988281 Z M 383.742188 543.988281 " clip-rule="nonzero"/></clipPath><clipPath id="cefd4bf8b5"><path d="M 0.242188 0.988281 L 122.839844 0.988281 L 122.839844 123.585938 L 0.242188 123.585938 Z M 0.242188 0.988281 " clip-rule="nonzero"/></clipPath><clipPath id="63288aedab"><path d="M 37.742188 0.988281 L 85.339844 0.988281 C 106.050781 0.988281 122.839844 17.777344 122.839844 38.488281 L 122.839844 86.085938 C 122.839844 106.796875 106.050781 123.585938 85.339844 123.585938 L 37.742188 123.585938 C 17.03125 123.585938 0.242188 106.796875 0.242188 86.085938 L 0.242188 38.488281 C 0.242188 17.777344 17.03125 0.988281 37.742188 0.988281 Z M 37.742188 0.988281 " clip-rule="nonzero"/></clipPath><clipPath id="83abfe7389"><rect x="0" width="123" y="0" height="124"/></clipPath><clipPath id="af940ede78"><path d="M 346.242188 543.988281 L 468.492188 543.988281 L 468.492188 666.238281 L 346.242188 666.238281 Z M 346.242188 543.988281 " clip-rule="nonzero"/></clipPath><clipPath id="f50a5ac63d"><path d="M 383.742188 543.988281 L 431.335938 543.988281 C 452.042969 543.988281 468.832031 560.777344 468.832031 581.488281 L 468.832031 629.082031 C 468.832031 649.789062 452.042969 666.578125 431.335938 666.578125 L 383.742188 666.578125 C 363.03125 666.578125 346.242188 649.789062 346.242188 629.082031 L 346.242188 581.488281 C 346.242188 560.777344 363.03125 543.988281 383.742188 543.988281 Z M 383.742188 543.988281 " clip-rule="nonzero"/></clipPath><clipPath id="8be9beeaf5"><path d="M 457.355469 543.988281 L 579.953125 543.988281 L 579.953125 666.585938 L 457.355469 666.585938 Z M 457.355469 543.988281 " clip-rule="nonzero"/></clipPath><clipPath id="1eb532dd24"><path d="M 494.855469 543.988281 L 542.453125 543.988281 C 563.164062 543.988281 579.953125 560.777344 579.953125 581.488281 L 579.953125 629.085938 C 579.953125 649.796875 563.164062 666.585938 542.453125 666.585938 L 494.855469 666.585938 C 474.144531 666.585938 457.355469 649.796875 457.355469 629.085938 L 457.355469 581.488281 C 457.355469 560.777344 474.144531 543.988281 494.855469 543.988281 Z M 494.855469 543.988281 " clip-rule="nonzero"/></clipPath><clipPath id="5965b498f4"><path d="M 0.355469 0.988281 L 122.953125 0.988281 L 122.953125 123.585938 L 0.355469 123.585938 Z M 0.355469 0.988281 " clip-rule="nonzero"/></clipPath><clipPath id="49a3eb0e2a"><path d="M 37.855469 0.988281 L 85.453125 0.988281 C 106.164062 0.988281 122.953125 17.777344 122.953125 38.488281 L 122.953125 86.085938 C 122.953125 106.796875 106.164062 123.585938 85.453125 123.585938 L 37.855469 123.585938 C 17.144531 123.585938 0.355469 106.796875 0.355469 86.085938 L 0.355469 38.488281 C 0.355469 17.777344 17.144531 0.988281 37.855469 0.988281 Z M 37.855469 0.988281 " clip-rule="nonzero"/></clipPath><clipPath id="0e2bf5c3a5"><rect x="0" width="123" y="0" height="124"/></clipPath><clipPath id="5263d255c9"><path d="M 457.355469 543.988281 L 579.605469 543.988281 L 579.605469 666.238281 L 457.355469 666.238281 Z M 457.355469 543.988281 " clip-rule="nonzero"/></clipPath><clipPath id="09f11030c6"><path d="M 494.851562 543.988281 L 542.445312 543.988281 C 563.15625 543.988281 579.945312 560.777344 579.945312 581.488281 L 579.945312 629.082031 C 579.945312 649.789062 563.15625 666.578125 542.445312 666.578125 L 494.851562 666.578125 C 474.144531 666.578125 457.355469 649.789062 457.355469 629.082031 L 457.355469 581.488281 C 457.355469 560.777344 474.144531 543.988281 494.851562 543.988281 Z M 494.851562 543.988281 " clip-rule="nonzero"/></clipPath><clipPath id="aaf14ca2bc"><path d="M 560.28125 543.988281 L 682.878906 543.988281 L 682.878906 666.585938 L 560.28125 666.585938 Z M 560.28125 543.988281 " clip-rule="nonzero"/></clipPath><clipPath id="70c8534253"><path d="M 597.78125 543.988281 L 645.378906 543.988281 C 666.089844 543.988281 682.878906 560.777344 682.878906 581.488281 L 682.878906 629.085938 C 682.878906 649.796875 666.089844 666.585938 645.378906 666.585938 L 597.78125 666.585938 C 577.070312 666.585938 560.28125 649.796875 560.28125 629.085938 L 560.28125 581.488281 C 560.28125 560.777344 577.070312 543.988281 597.78125 543.988281 Z M 597.78125 543.988281 " clip-rule="nonzero"/></clipPath><clipPath id="5b83b62b21"><path d="M 0.28125 0.988281 L 122.878906 0.988281 L 122.878906 123.585938 L 0.28125 123.585938 Z M 0.28125 0.988281 " clip-rule="nonzero"/></clipPath><clipPath id="a78f7cd91e"><path d="M 37.78125 0.988281 L 85.378906 0.988281 C 106.089844 0.988281 122.878906 17.777344 122.878906 38.488281 L 122.878906 86.085938 C 122.878906 106.796875 106.089844 123.585938 85.378906 123.585938 L 37.78125 123.585938 C 17.070312 123.585938 0.28125 106.796875 0.28125 86.085938 L 0.28125 38.488281 C 0.28125 17.777344 17.070312 0.988281 37.78125 0.988281 Z M 37.78125 0.988281 " clip-rule="nonzero"/></clipPath><clipPath id="d3f4e59ccb"><rect x="0" width="123" y="0" height="124"/></clipPath><clipPath id="f5e81d18ec"><path d="M 560.28125 543.988281 L 682.53125 543.988281 L 682.53125 666.238281 L 560.28125 666.238281 Z M 560.28125 543.988281 " clip-rule="nonzero"/></clipPath><clipPath id="f7701e0d2e"><path d="M 597.78125 543.988281 L 645.375 543.988281 C 666.082031 543.988281 682.871094 560.777344 682.871094 581.488281 L 682.871094 629.082031 C 682.871094 649.789062 666.082031 666.578125 645.375 666.578125 L 597.78125 666.578125 C 577.070312 666.578125 560.28125 649.789062 560.28125 629.082031 L 560.28125 581.488281 C 560.28125 560.777344 577.070312 543.988281 597.78125 543.988281 Z M 597.78125 543.988281 " clip-rule="nonzero"/></clipPath></defs><g clip-path="url(#6fbf9d72f0)"><g clip-path="url(#4c6fa638c7)"><g transform="matrix(1, 0, 0, 1, 51, 62)"><g clip-path="url(#5aebe2dafc)"><g clip-path="url(#e6945de264)"><g clip-path="url(#333a187114)"><path fill="#ffffff" d="M 0.394531 0.722656 L 707.605469 0.722656 L 707.605469 707.9375 L 0.394531 707.9375 Z M 0.394531 0.722656 " fill-opacity="1" fill-rule="nonzero"/></g></g></g></g></g></g><g clip-path="url(#5ec31a65eb)"><g clip-path="url(#08e1f09c55)"><path stroke-linecap="butt" transform="matrix(0.75, 0, 0, 0.75, 51.3926, 62.723842)" fill="none" stroke-linejoin="miter" d="M 99.997372 -0.00158053 L 842.940117 -0.00158053 C 898.169287 -0.00158053 942.934914 44.769255 942.934914 99.998425 L 942.934914 842.94117 C 942.934914 898.165131 898.169287 942.935967 842.940117 942.935967 L 99.997372 942.935967 C 44.768202 942.935967 0.00257485 898.165131 0.00257485 842.94117 L 0.00257485 99.998425 C 0.00257485 44.769255 44.768202 -0.00158053 99.997372 -0.00158053 Z M 99.997372 -0.00158053 " stroke="#67c7ff" stroke-width="120" stroke-opacity="1" stroke-miterlimit="4"/></g></g><g clip-path="url(#ffe5966742)"><g clip-path="url(#2073627835)"><path stroke-linecap="butt" transform="matrix(0.75, 0, 0, 0.75, 47.329535, 60.807387)" fill="none" stroke-linejoin="miter" d="M 99.998119 0.00160961 L 854.560609 0.00160961 C 909.789775 0.00160961 954.560607 44.772442 954.560607 99.9964 L 954.560607 853.001598 C 954.560607 908.230764 909.789775 953.001597 854.560609 953.001597 L 99.998119 953.001597 C 44.768953 953.001597 -0.00187963 908.230764 -0.00187963 853.001598 L -0.00187963 99.9964 C -0.00187963 44.772442 44.768953 0.00160961 99.998119 0.00160961 Z M 99.998119 0.00160961 " stroke="#000000" stroke-width="20" stroke-opacity="1" stroke-miterlimit="4"/></g></g><g clip-path="url(#2385272081)"><g clip-path="url(#aef4f14e38)"><g transform="matrix(1, 0, 0, 1, 88, 103)"><g clip-path="url(#08fce831fb)"><g clip-path="url(#f27e16a3af)"><g clip-path="url(#97d93ce8b8)"><path fill="#ffffff" d="M 0.839844 0.125 L 632.148438 0.125 L 632.148438 626.539062 L 0.839844 626.539062 Z M 0.839844 0.125 " fill-opacity="1" fill-rule="nonzero"/></g></g></g></g></g></g><g clip-path="url(#66c48e2e9d)"><g clip-path="url(#95873d174b)"><path stroke-linecap="butt" transform="matrix(0.75, 0, 0, 0.75, 88.838181, 103.125483)" fill="none" stroke-linejoin="miter" d="M 51.00222 -0.000643749 L 792.096007 -0.000643749 C 805.62205 -0.000643749 818.5908 5.374357 828.158509 14.936857 C 837.72101 24.499357 843.09601 37.473316 843.09601 50.999359 L 843.09601 784.212937 C 843.09601 797.73898 837.72101 810.712939 828.158509 820.275439 C 818.5908 829.843148 805.62205 835.21294 792.096007 835.21294 L 51.00222 835.21294 C 37.476178 835.21294 24.502219 829.843148 14.939718 820.275439 C 5.372009 810.712939 0.00221749 797.73898 0.00221749 784.212937 L 0.00221749 50.999359 C 0.00221749 37.473316 5.372009 24.499357 14.939718 14.936857 C 24.502219 5.374357 37.476178 -0.000643749 51.00222 -0.000643749 Z M 51.00222 -0.000643749 " stroke="#000000" stroke-width="20" stroke-opacity="1" stroke-miterlimit="4"/></g></g><g clip-path="url(#c7d473bdbb)"><g clip-path="url(#41b09b2ad2)"><g transform="matrix(1, 0, 0, 1, 346, 143)"><g clip-path="url(#45397a9cf2)"><g clip-path="url(#b4349b718c)"><g clip-path="url(#c3a9a1fdaa)"><path fill="#d9d9d9" d="M 0.242188 0.519531 L 122.839844 0.519531 L 122.839844 123.113281 L 0.242188 123.113281 Z M 0.242188 0.519531 " fill-opacity="1" fill-rule="nonzero"/></g></g></g></g></g></g><g clip-path="url(#f09ea1081e)"><g clip-path="url(#3ede6999ae)"><path stroke-linecap="butt" transform="matrix(0.75, 0, 0, 0.75, 346.242641, 143.517685)" fill="none" stroke-linejoin="miter" d="M 49.999394 0.00246196 L 113.457727 0.00246196 C 141.067101 0.00246196 163.452518 22.38267 163.452518 49.997253 L 163.452518 113.455585 C 163.452518 141.070168 141.067101 163.455585 113.457727 163.455585 L 49.999394 163.455585 C 22.384811 163.455585 -0.000605041 141.070168 -0.000605041 113.455585 L -0.000605041 49.997253 C -0.000605041 22.38267 22.384811 0.00246196 49.999394 0.00246196 Z M 49.999394 0.00246196 " stroke="#000000" stroke-width="20" stroke-opacity="1" stroke-miterlimit="4"/></g></g><g clip-path="url(#918007c74e)"><g clip-path="url(#664f4f8c0d)"><g transform="matrix(1, 0, 0, 1, 127, 543)"><g clip-path="url(#90264744cc)"><g clip-path="url(#a05a1c67e0)"><g clip-path="url(#fcb88fc618)"><path fill="#67c7ff" d="M 0.707031 0.988281 L 123.304688 0.988281 L 123.304688 123.585938 L 0.707031 123.585938 Z M 0.707031 0.988281 " fill-opacity="1" fill-rule="nonzero"/></g></g></g></g></g></g><g clip-path="url(#cd0c576d1f)"><g clip-path="url(#b233f86828)"><path stroke-linecap="butt" transform="matrix(0.75, 0, 0, 0.75, 127.70698, 543.989297)" fill="none" stroke-linejoin="miter" d="M 49.994859 -0.00135384 L 113.4584 -0.00135384 C 141.067774 -0.00135384 163.453191 22.384063 163.453191 49.998645 L 163.453191 113.456978 C 163.453191 141.066353 141.067774 163.451769 113.4584 163.451769 L 49.994859 163.451769 C 22.385484 163.451769 0.0000679664 141.066353 0.0000679664 113.456978 L 0.0000679664 49.998645 C 0.0000679664 22.384063 22.385484 -0.00135384 49.994859 -0.00135384 Z M 49.994859 -0.00135384 " stroke="#000000" stroke-width="20" stroke-opacity="1" stroke-miterlimit="4"/></g></g><g clip-path="url(#d5b7801b74)"><g clip-path="url(#4a81fc4f66)"><g transform="matrix(1, 0, 0, 1, 235, 543)"><g clip-path="url(#8dbf2ba8d3)"><g clip-path="url(#c840aa21c6)"><g clip-path="url(#8050ceda5e)"><path fill="#67c7ff" d="M 0.308594 0.988281 L 122.90625 0.988281 L 122.90625 123.585938 L 0.308594 123.585938 Z M 0.308594 0.988281 " fill-opacity="1" fill-rule="nonzero"/></g></g></g></g></g></g><g clip-path="url(#c2c954a043)"><g clip-path="url(#3bdb3f5968)"><path stroke-linecap="butt" transform="matrix(0.75, 0, 0, 0.75, 235.309607, 543.989297)" fill="none" stroke-linejoin="miter" d="M 49.998648 -0.00135384 L 113.456981 -0.00135384 C 141.066356 -0.00135384 163.451772 22.384063 163.451772 49.998645 L 163.451772 113.456978 C 163.451772 141.066353 141.066356 163.451769 113.456981 163.451769 L 49.998648 163.451769 C 22.384066 163.451769 -0.00135082 141.066353 -0.00135082 113.456978 L -0.00135082 49.998645 C -0.00135082 22.384063 22.384066 -0.00135384 49.998648 -0.00135384 Z M 49.998648 -0.00135384 " stroke="#000000" stroke-width="20" stroke-opacity="1" stroke-miterlimit="4"/></g></g><g clip-path="url(#aa08d14fd1)"><g clip-path="url(#9d213a7cac)"><g transform="matrix(1, 0, 0, 1, 127, 304)"><g clip-path="url(#1a4e9750a7)"><g clip-path="url(#3b43a5ba2b)"><g clip-path="url(#588732b525)"><path fill="#d7f0ff" d="M 0.707031 0.363281 L 555.777344 0.363281 L 555.777344 201.636719 L 0.707031 201.636719 Z M 0.707031 0.363281 " fill-opacity="1" fill-rule="nonzero"/></g></g></g></g></g></g><g clip-path="url(#2d043fe3cd)"><g clip-path="url(#532c2145a2)"><path stroke-linecap="butt" transform="matrix(0.75, 0, 0, 0.75, 127.70698, 304.364537)" fill="none" stroke-linejoin="miter" d="M 75.000072 -0.00167392 L 665.218851 -0.00167392 C 706.640729 -0.00167392 740.218855 33.576453 740.218855 74.99833 L 740.218855 193.357711 C 740.218855 234.779588 706.640729 268.357715 665.218851 268.357715 L 75.000072 268.357715 C 33.578195 268.357715 0.0000679664 234.779588 0.0000679664 193.357711 L 0.0000679664 74.99833 C 0.0000679664 33.576453 33.578195 -0.00167392 75.000072 -0.00167392 Z M 75.000072 -0.00167392 " stroke="#000000" stroke-width="20" stroke-opacity="1" stroke-miterlimit="4"/></g></g><g clip-path="url(#63461fee8e)"><g clip-path="url(#c26d8db700)"><g transform="matrix(1, 0, 0, 1, 297, 319)"><g clip-path="url(#3bc39af2ac)"><g clip-path="url(#940c8f4ab9)"><g clip-path="url(#d69d3d2ac9)"><path fill="#ffe372" d="M 0.117188 0.140625 L 171.839844 0.140625 L 171.839844 171.859375 L 0.117188 171.859375 Z M 0.117188 0.140625 " fill-opacity="1" fill-rule="nonzero"/></g></g></g></g></g></g><g clip-path="url(#c87a420904)"><g clip-path="url(#00207d1711)"><g transform="matrix(1, 0, 0, 1, 166, 369)"><g clip-path="url(#386959d69c)"><g clip-path="url(#d7467ba4dc)"><g clip-path="url(#25ae533459)"><path fill="#ffffff" d="M 0.875 0.328125 L 149.738281 0.328125 L 149.738281 98.042969 L 0.875 98.042969 Z M 0.875 0.328125 " fill-opacity="1" fill-rule="nonzero"/></g></g></g></g></g></g><g clip-path="url(#822804af0f)"><g clip-path="url(#c7c778336a)"><g transform="matrix(1, 0, 0, 1, 417, 322)"><g clip-path="url(#efade6cda1)"><g clip-path="url(#8ed5cf0d96)"><g clip-path="url(#c78ecaa541)"><path fill="#ffffff" d="M 0.398438 0.46875 L 149.261719 0.46875 L 149.261719 98.183594 L 0.398438 98.183594 Z M 0.398438 0.46875 " fill-opacity="1" fill-rule="nonzero"/></g></g></g></g></g></g><g clip-path="url(#189c2e358d)"><g clip-path="url(#db41ef1b2a)"><g transform="matrix(1, 0, 0, 1, 463, 371)"><g clip-path="url(#b2b1ce76b9)"><g clip-path="url(#2c35b12027)"><g clip-path="url(#c0b753d5b8)"><path fill="#ffffff" d="M 0.371094 0.324219 L 149.234375 0.324219 L 149.234375 98.039062 L 0.371094 98.039062 Z M 0.371094 0.324219 " fill-opacity="1" fill-rule="nonzero"/></g></g></g></g></g></g><g fill="#000000" fill-opacity="1"><g transform="translate(161.741772, 446.249998)"><g><path d="M 28.34375 -71.21875 L 0.46875 -71.21875 L 0.46875 -81.3125 L 67.734375 -81.3125 L 67.734375 -71.21875 L 39.84375 -71.21875 L 39.84375 0 L 28.34375 0 Z M 28.34375 -71.21875 "/></g></g></g><g fill="#000000" fill-opacity="1"><g transform="translate(228.422051, 446.249998)"><g><path d="M 67.953125 -61.578125 L 67.953125 0 L 57.390625 0 L 57.390625 -9.296875 C 55.140625 -6.117188 52.175781 -3.65625 48.5 -1.90625 C 44.820312 -0.164062 40.816406 0.703125 36.484375 0.703125 C 28.265625 0.703125 21.789062 -1.5625 17.0625 -6.09375 C 12.34375 -10.625 9.984375 -17.304688 9.984375 -26.140625 L 9.984375 -61.578125 L 21.140625 -61.578125 L 21.140625 -27.421875 C 21.140625 -21.453125 22.570312 -16.9375 25.4375 -13.875 C 28.300781 -10.820312 32.40625 -9.296875 37.75 -9.296875 C 43.632812 -9.296875 48.28125 -11.078125 51.6875 -14.640625 C 55.101562 -18.203125 56.8125 -23.234375 56.8125 -29.734375 L 56.8125 -61.578125 Z M 67.953125 -61.578125 "/></g></g></g><g fill="#000000" fill-opacity="1"><g transform="translate(307.067722, 446.249998)"><g><path d="M 66.21875 -30.4375 C 66.21875 -29.582031 66.140625 -28.457031 65.984375 -27.0625 L 16.03125 -27.0625 C 16.726562 -21.644531 19.109375 -17.289062 23.171875 -14 C 27.242188 -10.707031 32.300781 -9.0625 38.34375 -9.0625 C 45.695312 -9.0625 51.617188 -11.539062 56.109375 -16.5 L 62.265625 -9.296875 C 59.472656 -6.046875 56.003906 -3.566406 51.859375 -1.859375 C 47.722656 -0.148438 43.097656 0.703125 37.984375 0.703125 C 31.484375 0.703125 25.710938 -0.628906 20.671875 -3.296875 C 15.640625 -5.972656 11.75 -9.710938 9 -14.515625 C 6.25 -19.316406 4.875 -24.738281 4.875 -30.78125 C 4.875 -36.75 6.207031 -42.132812 8.875 -46.9375 C 11.550781 -51.738281 15.234375 -55.472656 19.921875 -58.140625 C 24.609375 -60.816406 29.894531 -62.15625 35.78125 -62.15625 C 41.664062 -62.15625 46.910156 -60.816406 51.515625 -58.140625 C 56.128906 -55.472656 59.734375 -51.738281 62.328125 -46.9375 C 64.921875 -42.132812 66.21875 -36.632812 66.21875 -30.4375 Z M 35.78125 -52.734375 C 30.4375 -52.734375 25.960938 -51.109375 22.359375 -47.859375 C 18.765625 -44.609375 16.65625 -40.347656 16.03125 -35.078125 L 55.53125 -35.078125 C 54.90625 -40.273438 52.789062 -44.515625 49.1875 -47.796875 C 45.59375 -51.085938 41.125 -52.734375 35.78125 -52.734375 Z M 35.78125 -52.734375 "/></g></g></g><g fill="#000000" fill-opacity="1"><g transform="translate(378.162491, 446.249998)"><g><path d="M 28.234375 0.703125 C 23.191406 0.703125 18.347656 0.0234375 13.703125 -1.328125 C 9.054688 -2.691406 5.414062 -4.414062 2.78125 -6.5 L 7.4375 -15.328125 C 10.144531 -13.398438 13.4375 -11.851562 17.3125 -10.6875 C 21.1875 -9.519531 25.097656 -8.9375 29.046875 -8.9375 C 38.804688 -8.9375 43.6875 -11.726562 43.6875 -17.3125 C 43.6875 -19.164062 43.023438 -20.632812 41.703125 -21.71875 C 40.390625 -22.800781 38.742188 -23.59375 36.765625 -24.09375 C 34.796875 -24.601562 31.988281 -25.171875 28.34375 -25.796875 C 23.382812 -26.566406 19.335938 -27.453125 16.203125 -28.453125 C 13.066406 -29.460938 10.375 -31.164062 8.125 -33.5625 C 5.882812 -35.96875 4.765625 -39.34375 4.765625 -43.6875 C 4.765625 -49.257812 7.085938 -53.726562 11.734375 -57.09375 C 16.378906 -60.46875 22.613281 -62.15625 30.4375 -62.15625 C 34.539062 -62.15625 38.644531 -61.648438 42.75 -60.640625 C 46.851562 -59.628906 50.222656 -58.273438 52.859375 -56.578125 L 48.09375 -47.75 C 43.0625 -51 37.140625 -52.625 30.328125 -52.625 C 25.597656 -52.625 21.992188 -51.847656 19.515625 -50.296875 C 17.035156 -48.753906 15.796875 -46.703125 15.796875 -44.140625 C 15.796875 -42.128906 16.492188 -40.539062 17.890625 -39.375 C 19.285156 -38.21875 21.007812 -37.367188 23.0625 -36.828125 C 25.113281 -36.285156 28 -35.664062 31.71875 -34.96875 C 36.675781 -34.113281 40.679688 -33.203125 43.734375 -32.234375 C 46.796875 -31.265625 49.410156 -29.617188 51.578125 -27.296875 C 53.742188 -24.972656 54.828125 -21.722656 54.828125 -17.546875 C 54.828125 -11.960938 52.445312 -7.523438 47.6875 -4.234375 C 42.925781 -0.941406 36.441406 0.703125 28.234375 0.703125 Z M 28.234375 0.703125 "/></g></g></g><g fill="#000000" fill-opacity="1"><g transform="translate(436.362608, 446.249998)"><g><path d="M 68.65625 -86.203125 L 68.65625 0 L 57.96875 0 L 57.96875 -9.765625 C 55.488281 -6.347656 52.351562 -3.75 48.5625 -1.96875 C 44.769531 -0.1875 40.585938 0.703125 36.015625 0.703125 C 30.046875 0.703125 24.695312 -0.613281 19.96875 -3.25 C 15.25 -5.882812 11.550781 -9.582031 8.875 -14.34375 C 6.207031 -19.101562 4.875 -24.582031 4.875 -30.78125 C 4.875 -36.976562 6.207031 -42.4375 8.875 -47.15625 C 11.550781 -51.882812 15.25 -55.566406 19.96875 -58.203125 C 24.695312 -60.835938 30.046875 -62.15625 36.015625 -62.15625 C 40.429688 -62.15625 44.492188 -61.320312 48.203125 -59.65625 C 51.921875 -57.988281 55.019531 -55.53125 57.5 -52.28125 L 57.5 -86.203125 Z M 36.9375 -9.0625 C 40.8125 -9.0625 44.335938 -9.96875 47.515625 -11.78125 C 50.691406 -13.601562 53.171875 -16.160156 54.953125 -19.453125 C 56.734375 -22.742188 57.625 -26.519531 57.625 -30.78125 C 57.625 -35.039062 56.734375 -38.816406 54.953125 -42.109375 C 53.171875 -45.398438 50.691406 -47.9375 47.515625 -49.71875 C 44.335938 -51.5 40.8125 -52.390625 36.9375 -52.390625 C 32.988281 -52.390625 29.445312 -51.5 26.3125 -49.71875 C 23.175781 -47.9375 20.695312 -45.398438 18.875 -42.109375 C 17.050781 -38.816406 16.140625 -35.039062 16.140625 -30.78125 C 16.140625 -26.519531 17.050781 -22.742188 18.875 -19.453125 C 20.695312 -16.160156 23.175781 -13.601562 26.3125 -11.78125 C 29.445312 -9.96875 32.988281 -9.0625 36.9375 -9.0625 Z M 36.9375 -9.0625 "/></g></g></g><g fill="#000000" fill-opacity="1"><g transform="translate(515.58909, 446.249998)"><g><path d="M 33 -62.15625 C 41.507812 -62.15625 48.03125 -60.0625 52.5625 -55.875 C 57.09375 -51.695312 59.359375 -45.460938 59.359375 -37.171875 L 59.359375 0 L 48.796875 0 L 48.796875 -8.125 C 46.929688 -5.257812 44.273438 -3.070312 40.828125 -1.5625 C 37.390625 -0.0507812 33.304688 0.703125 28.578125 0.703125 C 21.679688 0.703125 16.160156 -0.960938 12.015625 -4.296875 C 7.878906 -7.628906 5.8125 -12.003906 5.8125 -17.421875 C 5.8125 -22.847656 7.785156 -27.207031 11.734375 -30.5 C 15.679688 -33.789062 21.953125 -35.4375 30.546875 -35.4375 L 48.21875 -35.4375 L 48.21875 -37.640625 C 48.21875 -42.441406 46.820312 -46.117188 44.03125 -48.671875 C 41.238281 -51.234375 37.132812 -52.515625 31.71875 -52.515625 C 28.070312 -52.515625 24.503906 -51.910156 21.015625 -50.703125 C 17.535156 -49.503906 14.597656 -47.898438 12.203125 -45.890625 L 7.546875 -54.25 C 10.722656 -56.800781 14.519531 -58.753906 18.9375 -60.109375 C 23.351562 -61.472656 28.039062 -62.15625 33 -62.15625 Z M 30.4375 -7.90625 C 34.695312 -7.90625 38.375 -8.851562 41.46875 -10.75 C 44.570312 -12.644531 46.820312 -15.332031 48.21875 -18.8125 L 48.21875 -27.421875 L 31.015625 -27.421875 C 21.566406 -27.421875 16.84375 -24.242188 16.84375 -17.890625 C 16.84375 -14.796875 18.039062 -12.359375 20.4375 -10.578125 C 22.84375 -8.796875 26.175781 -7.90625 30.4375 -7.90625 Z M 30.4375 -7.90625 "/></g></g></g><g fill="#000000" fill-opacity="1"><g transform="translate(583.895758, 446.249998)"><g><path d="M 65.0625 -61.578125 L 35.203125 6.15625 C 32.566406 12.425781 29.484375 16.835938 25.953125 19.390625 C 22.429688 21.953125 18.195312 23.234375 13.25 23.234375 C 10.226562 23.234375 7.300781 22.75 4.46875 21.78125 C 1.644531 20.8125 -0.695312 19.398438 -2.5625 17.546875 L 2.203125 9.171875 C 5.378906 12.191406 9.0625 13.703125 13.25 13.703125 C 15.957031 13.703125 18.21875 12.984375 20.03125 11.546875 C 21.851562 10.117188 23.503906 7.664062 24.984375 4.1875 L 26.953125 -0.109375 L -0.234375 -61.578125 L 11.390625 -61.578125 L 32.875 -12.3125 L 54.140625 -61.578125 Z M 65.0625 -61.578125 "/></g></g></g><g fill="#000000" fill-opacity="1"><g transform="translate(377.320501, 226.94097)"><g><path d="M 47.171875 0 L 47.109375 -29.703125 L 32.390625 -5.125 L 28.671875 -5.125 L 13.953125 -29.3125 L 13.953125 0 L 6.015625 0 L 6.015625 -44.796875 L 12.859375 -44.796875 L 30.65625 -15.109375 L 48.125 -44.796875 L 54.96875 -44.796875 L 55.046875 0 Z M 47.171875 0 "/></g></g></g><g fill="#000000" fill-opacity="1"><g transform="translate(255.425263, 627.412548)"><g><path d="M 15.109375 -37.765625 L 0.25 -37.765625 L 0.25 -44.796875 L 38.265625 -44.796875 L 38.265625 -37.765625 L 23.421875 -37.765625 L 23.421875 0 L 15.109375 0 Z M 15.109375 -37.765625 "/></g></g></g><g fill="#000000" fill-opacity="1"><g transform="translate(293.950904, 627.412548)"><g><path d="M 24.640625 -34.5625 C 28.953125 -34.5625 32.40625 -33.300781 35 -30.78125 C 37.601562 -28.269531 38.90625 -24.535156 38.90625 -19.578125 L 38.90625 0 L 30.90625 0 L 30.90625 -18.5625 C 30.90625 -21.550781 30.203125 -23.800781 28.796875 -25.3125 C 27.390625 -26.820312 25.382812 -27.578125 22.78125 -27.578125 C 19.84375 -27.578125 17.519531 -26.691406 15.8125 -24.921875 C 14.101562 -23.148438 13.25 -20.601562 13.25 -17.28125 L 13.25 0 L 5.25 0 L 5.25 -47.484375 L 13.25 -47.484375 L 13.25 -30.203125 C 14.570312 -31.609375 16.203125 -32.6875 18.140625 -33.4375 C 20.085938 -34.1875 22.253906 -34.5625 24.640625 -34.5625 Z M 24.640625 -34.5625 "/></g></g></g><g fill="#000000" fill-opacity="1"><g transform="translate(152.688469, 627.412548)"><g><path d="M 71.484375 -44.796875 L 56.640625 0 L 47.8125 0 L 36.734375 -33.15625 L 25.46875 0 L 16.578125 0 L 1.734375 -44.796875 L 10.375 -44.796875 L 21.5 -10.75 L 33.09375 -44.796875 L 40.765625 -44.796875 L 52.09375 -10.5625 L 63.546875 -44.796875 Z M 71.484375 -44.796875 "/></g></g></g><g clip-path="url(#af3d559a86)"><g clip-path="url(#19a3642a59)"><g transform="matrix(1, 0, 0, 1, 346, 543)"><g clip-path="url(#83abfe7389)"><g clip-path="url(#cefd4bf8b5)"><g clip-path="url(#63288aedab)"><path fill="#67c7ff" d="M 0.242188 0.988281 L 122.839844 0.988281 L 122.839844 123.585938 L 0.242188 123.585938 Z M 0.242188 0.988281 " fill-opacity="1" fill-rule="nonzero"/></g></g></g></g></g></g><g clip-path="url(#af940ede78)"><g clip-path="url(#f50a5ac63d)"><path stroke-linecap="butt" transform="matrix(0.75, 0, 0, 0.75, 346.242641, 543.989297)" fill="none" stroke-linejoin="miter" d="M 49.999394 -0.00135384 L 113.457727 -0.00135384 C 141.067101 -0.00135384 163.452518 22.384063 163.452518 49.998645 L 163.452518 113.456978 C 163.452518 141.066353 141.067101 163.451769 113.457727 163.451769 L 49.999394 163.451769 C 22.384811 163.451769 -0.000605041 141.066353 -0.000605041 113.456978 L -0.000605041 49.998645 C -0.000605041 22.384063 22.384811 -0.00135384 49.999394 -0.00135384 Z M 49.999394 -0.00135384 " stroke="#000000" stroke-width="20" stroke-opacity="1" stroke-miterlimit="4"/></g></g><g fill="#000000" fill-opacity="1"><g transform="translate(387.156166, 627.412548)"><g><path d="M 14.34375 -37.828125 L 14.34375 -24.1875 L 35.96875 -24.1875 L 35.96875 -17.15625 L 14.34375 -17.15625 L 14.34375 0 L 6.015625 0 L 6.015625 -44.796875 L 38.71875 -44.796875 L 38.71875 -37.828125 Z M 14.34375 -37.828125 "/></g></g></g><g clip-path="url(#8be9beeaf5)"><g clip-path="url(#1eb532dd24)"><g transform="matrix(1, 0, 0, 1, 457, 543)"><g clip-path="url(#0e2bf5c3a5)"><g clip-path="url(#5965b498f4)"><g clip-path="url(#49a3eb0e2a)"><path fill="#67c7ff" d="M 0.355469 0.988281 L 122.953125 0.988281 L 122.953125 123.585938 L 0.355469 123.585938 Z M 0.355469 0.988281 " fill-opacity="1" fill-rule="nonzero"/></g></g></g></g></g></g><g clip-path="url(#5263d255c9)"><g clip-path="url(#09f11030c6)"><path stroke-linecap="butt" transform="matrix(0.75, 0, 0, 0.75, 457.354972, 543.989297)" fill="none" stroke-linejoin="miter" d="M 49.995453 -0.00135384 L 113.453785 -0.00135384 C 141.068368 -0.00135384 163.453784 22.384063 163.453784 49.998645 L 163.453784 113.456978 C 163.453784 141.066353 141.068368 163.451769 113.453785 163.451769 L 49.995453 163.451769 C 22.386078 163.451769 0.000661679 141.066353 0.000661679 113.456978 L 0.000661679 49.998645 C 0.000661679 22.384063 22.386078 -0.00135384 49.995453 -0.00135384 Z M 49.995453 -0.00135384 " stroke="#000000" stroke-width="20" stroke-opacity="1" stroke-miterlimit="4"/></g></g><g clip-path="url(#aaf14ca2bc)"><g clip-path="url(#70c8534253)"><g transform="matrix(1, 0, 0, 1, 560, 543)"><g clip-path="url(#d3f4e59ccb)"><g clip-path="url(#5b83b62b21)"><g clip-path="url(#a78f7cd91e)"><path fill="#67c7ff" d="M 0.28125 0.988281 L 122.878906 0.988281 L 122.878906 123.585938 L 0.28125 123.585938 Z M 0.28125 0.988281 " fill-opacity="1" fill-rule="nonzero"/></g></g></g></g></g></g><g clip-path="url(#f5e81d18ec)"><g clip-path="url(#f7701e0d2e)"><path stroke-linecap="butt" transform="matrix(0.75, 0, 0, 0.75, 560.281559, 543.989297)" fill="none" stroke-linejoin="miter" d="M 49.999587 -0.00135384 L 113.457919 -0.00135384 C 141.067294 -0.00135384 163.45271 22.384063 163.45271 49.998645 L 163.45271 113.456978 C 163.45271 141.066353 141.067294 163.451769 113.457919 163.451769 L 49.999587 163.451769 C 22.385004 163.451769 -0.000412417 141.066353 -0.000412417 113.456978 L -0.000412417 49.998645 C -0.000412417 22.384063 22.385004 -0.00135384 49.999587 -0.00135384 Z M 49.999587 -0.00135384 " stroke="#000000" stroke-width="20" stroke-opacity="1" stroke-miterlimit="4"/></g></g><g fill="#000000" fill-opacity="1"><g transform="translate(479.441619, 627.412548)"><g><path d="M 19.90625 0.640625 C 16.445312 0.640625 13.109375 0.148438 9.890625 -0.828125 C 6.671875 -1.804688 4.117188 -3.109375 2.234375 -4.734375 L 5.125 -11.203125 C 6.957031 -9.753906 9.207031 -8.566406 11.875 -7.640625 C 14.539062 -6.722656 17.21875 -6.265625 19.90625 -6.265625 C 23.226562 -6.265625 25.710938 -6.796875 27.359375 -7.859375 C 29.003906 -8.929688 29.828125 -10.34375 29.828125 -12.09375 C 29.828125 -13.375 29.367188 -14.429688 28.453125 -15.265625 C 27.535156 -16.097656 26.367188 -16.75 24.953125 -17.21875 C 23.546875 -17.6875 21.628906 -18.21875 19.203125 -18.8125 C 15.785156 -19.625 13.019531 -20.4375 10.90625 -21.25 C 8.800781 -22.0625 6.988281 -23.328125 5.46875 -25.046875 C 3.957031 -26.773438 3.203125 -29.113281 3.203125 -32.0625 C 3.203125 -34.539062 3.875 -36.789062 5.21875 -38.8125 C 6.5625 -40.84375 8.585938 -42.453125 11.296875 -43.640625 C 14.003906 -44.835938 17.320312 -45.4375 21.25 -45.4375 C 23.976562 -45.4375 26.664062 -45.09375 29.3125 -44.40625 C 31.957031 -43.726562 34.238281 -42.75 36.15625 -41.46875 L 33.53125 -35.015625 C 31.570312 -36.160156 29.523438 -37.03125 27.390625 -37.625 C 25.253906 -38.226562 23.1875 -38.53125 21.1875 -38.53125 C 17.894531 -38.53125 15.445312 -37.972656 13.84375 -36.859375 C 12.25 -35.753906 11.453125 -34.285156 11.453125 -32.453125 C 11.453125 -31.171875 11.910156 -30.125 12.828125 -29.3125 C 13.742188 -28.5 14.90625 -27.859375 16.3125 -27.390625 C 17.726562 -26.921875 19.648438 -26.390625 22.078125 -25.796875 C 25.410156 -25.023438 28.140625 -24.222656 30.265625 -23.390625 C 32.398438 -22.554688 34.222656 -21.285156 35.734375 -19.578125 C 37.253906 -17.878906 38.015625 -15.578125 38.015625 -12.671875 C 38.015625 -10.191406 37.34375 -7.945312 36 -5.9375 C 34.65625 -3.9375 32.617188 -2.335938 29.890625 -1.140625 C 27.160156 0.046875 23.832031 0.640625 19.90625 0.640625 Z M 19.90625 0.640625 "/></g></g></g><g fill="#000000" fill-opacity="1"><g transform="translate(519.695146, 627.412548)"><g><path d="M 18.296875 -34.5625 C 23.335938 -34.5625 27.191406 -33.351562 29.859375 -30.9375 C 32.523438 -28.53125 33.859375 -24.894531 33.859375 -20.03125 L 33.859375 0 L 26.296875 0 L 26.296875 -4.15625 C 25.316406 -2.664062 23.921875 -1.523438 22.109375 -0.734375 C 20.296875 0.0546875 18.109375 0.453125 15.546875 0.453125 C 12.992188 0.453125 10.753906 0.015625 8.828125 -0.859375 C 6.910156 -1.734375 5.425781 -2.945312 4.375 -4.5 C 3.332031 -6.0625 2.8125 -7.828125 2.8125 -9.796875 C 2.8125 -12.867188 3.953125 -15.332031 6.234375 -17.1875 C 8.515625 -19.039062 12.113281 -19.96875 17.03125 -19.96875 L 25.859375 -19.96875 L 25.859375 -20.484375 C 25.859375 -22.867188 25.140625 -24.703125 23.703125 -25.984375 C 22.273438 -27.265625 20.15625 -27.90625 17.34375 -27.90625 C 15.425781 -27.90625 13.535156 -27.601562 11.671875 -27 C 9.816406 -26.40625 8.25 -25.578125 6.96875 -24.515625 L 3.84375 -30.34375 C 5.632812 -31.707031 7.785156 -32.75 10.296875 -33.46875 C 12.816406 -34.195312 15.484375 -34.5625 18.296875 -34.5625 Z M 17.21875 -5.375 C 19.21875 -5.375 20.992188 -5.832031 22.546875 -6.75 C 24.109375 -7.664062 25.210938 -8.976562 25.859375 -10.6875 L 25.859375 -14.65625 L 17.59375 -14.65625 C 12.988281 -14.65625 10.6875 -13.140625 10.6875 -10.109375 C 10.6875 -8.660156 11.257812 -7.507812 12.40625 -6.65625 C 13.5625 -5.800781 15.164062 -5.375 17.21875 -5.375 Z M 17.21875 -5.375 "/></g></g></g><g fill="#000000" fill-opacity="1"><g transform="translate(579.951526, 627.412548)"><g><path d="M 19.90625 0.640625 C 16.445312 0.640625 13.109375 0.148438 9.890625 -0.828125 C 6.671875 -1.804688 4.117188 -3.109375 2.234375 -4.734375 L 5.125 -11.203125 C 6.957031 -9.753906 9.207031 -8.566406 11.875 -7.640625 C 14.539062 -6.722656 17.21875 -6.265625 19.90625 -6.265625 C 23.226562 -6.265625 25.710938 -6.796875 27.359375 -7.859375 C 29.003906 -8.929688 29.828125 -10.34375 29.828125 -12.09375 C 29.828125 -13.375 29.367188 -14.429688 28.453125 -15.265625 C 27.535156 -16.097656 26.367188 -16.75 24.953125 -17.21875 C 23.546875 -17.6875 21.628906 -18.21875 19.203125 -18.8125 C 15.785156 -19.625 13.019531 -20.4375 10.90625 -21.25 C 8.800781 -22.0625 6.988281 -23.328125 5.46875 -25.046875 C 3.957031 -26.773438 3.203125 -29.113281 3.203125 -32.0625 C 3.203125 -34.539062 3.875 -36.789062 5.21875 -38.8125 C 6.5625 -40.84375 8.585938 -42.453125 11.296875 -43.640625 C 14.003906 -44.835938 17.320312 -45.4375 21.25 -45.4375 C 23.976562 -45.4375 26.664062 -45.09375 29.3125 -44.40625 C 31.957031 -43.726562 34.238281 -42.75 36.15625 -41.46875 L 33.53125 -35.015625 C 31.570312 -36.160156 29.523438 -37.03125 27.390625 -37.625 C 25.253906 -38.226562 23.1875 -38.53125 21.1875 -38.53125 C 17.894531 -38.53125 15.445312 -37.972656 13.84375 -36.859375 C 12.25 -35.753906 11.453125 -34.285156 11.453125 -32.453125 C 11.453125 -31.171875 11.910156 -30.125 12.828125 -29.3125 C 13.742188 -28.5 14.90625 -27.859375 16.3125 -27.390625 C 17.726562 -26.921875 19.648438 -26.390625 22.078125 -25.796875 C 25.410156 -25.023438 28.140625 -24.222656 30.265625 -23.390625 C 32.398438 -22.554688 34.222656 -21.285156 35.734375 -19.578125 C 37.253906 -17.878906 38.015625 -15.578125 38.015625 -12.671875 C 38.015625 -10.191406 37.34375 -7.945312 36 -5.9375 C 34.65625 -3.9375 32.617188 -2.335938 29.890625 -1.140625 C 27.160156 0.046875 23.832031 0.640625 19.90625 0.640625 Z M 19.90625 0.640625 "/></g></g></g><g fill="#000000" fill-opacity="1"><g transform="translate(620.205053, 627.412548)"><g><path d="M 38.328125 -34.171875 L 38.328125 0 L 30.71875 0 L 30.71875 -4.359375 C 29.4375 -2.816406 27.835938 -1.628906 25.921875 -0.796875 C 24.003906 0.0351562 21.9375 0.453125 19.71875 0.453125 C 15.144531 0.453125 11.546875 -0.816406 8.921875 -3.359375 C 6.296875 -5.898438 4.984375 -9.664062 4.984375 -14.65625 L 4.984375 -34.171875 L 12.984375 -34.171875 L 12.984375 -15.75 C 12.984375 -12.675781 13.675781 -10.378906 15.0625 -8.859375 C 16.457031 -7.347656 18.429688 -6.59375 20.984375 -6.59375 C 23.847656 -6.59375 26.125 -7.476562 27.8125 -9.25 C 29.5 -11.019531 30.34375 -13.566406 30.34375 -16.890625 L 30.34375 -34.171875 Z M 38.328125 -34.171875 "/></g></g></g></svg>