<svg xmlns="http://www.w3.org/2000/svg" xmlns:xlink="http://www.w3.org/1999/xlink" width="500" zoomAndPan="magnify" viewBox="0 0 375 374.999991" height="500" preserveAspectRatio="xMidYMid meet" version="1.0"><defs><g/><clipPath id="7b6030a985"><path d="M 195.546875 268.988281 L 258.378906 268.988281 L 258.378906 331.820312 L 195.546875 331.820312 Z M 195.546875 268.988281 " clip-rule="nonzero"/></clipPath><clipPath id="c4a692581b"><path d="M 212.796875 268.988281 L 241.128906 268.988281 C 245.703125 268.988281 250.089844 270.804688 253.328125 274.039062 C 256.5625 277.273438 258.378906 281.664062 258.378906 286.238281 L 258.378906 314.570312 C 258.378906 319.144531 256.5625 323.53125 253.328125 326.765625 C 250.089844 330 245.703125 331.820312 241.128906 331.820312 L 212.796875 331.820312 C 208.222656 331.820312 203.835938 330 200.601562 326.765625 C 197.363281 323.53125 195.546875 319.144531 195.546875 314.570312 L 195.546875 286.238281 C 195.546875 281.664062 197.363281 277.273438 200.601562 274.039062 C 203.835938 270.804688 208.222656 268.988281 212.796875 268.988281 Z M 212.796875 268.988281 " clip-rule="nonzero"/></clipPath><clipPath id="c2b31699e2"><path d="M 0.546875 0.988281 L 63.378906 0.988281 L 63.378906 63.820312 L 0.546875 63.820312 Z M 0.546875 0.988281 " clip-rule="nonzero"/></clipPath><clipPath id="5e3d85dc92"><path d="M 17.796875 0.988281 L 46.128906 0.988281 C 50.703125 0.988281 55.089844 2.804688 58.328125 6.039062 C 61.5625 9.273438 63.378906 13.664062 63.378906 18.238281 L 63.378906 46.570312 C 63.378906 51.144531 61.5625 55.53125 58.328125 58.765625 C 55.089844 62 50.703125 63.820312 46.128906 63.820312 L 17.796875 63.820312 C 13.222656 63.820312 8.835938 62 5.601562 58.765625 C 2.363281 55.53125 0.546875 51.144531 0.546875 46.570312 L 0.546875 18.238281 C 0.546875 13.664062 2.363281 9.273438 5.601562 6.039062 C 8.835938 2.804688 13.222656 0.988281 17.796875 0.988281 Z M 17.796875 0.988281 " clip-rule="nonzero"/></clipPath><clipPath id="2763ef506e"><rect x="0" width="64" y="0" height="64"/></clipPath><clipPath id="342a18f6e6"><path d="M 195.546875 268.988281 L 258.546875 268.988281 L 258.546875 331.988281 L 195.546875 331.988281 Z M 195.546875 268.988281 " clip-rule="nonzero"/></clipPath><clipPath id="9275169ce7"><path d="M 212.796875 268.988281 L 241.125 268.988281 C 245.699219 268.988281 250.085938 270.804688 253.320312 274.039062 C 256.554688 277.273438 258.371094 281.660156 258.371094 286.234375 L 258.371094 314.5625 C 258.371094 319.136719 256.554688 323.527344 253.320312 326.761719 C 250.085938 329.996094 245.699219 331.8125 241.125 331.8125 L 212.796875 331.8125 C 208.222656 331.8125 203.835938 329.996094 200.601562 326.761719 C 197.363281 323.527344 195.546875 319.136719 195.546875 314.5625 L 195.546875 286.234375 C 195.546875 281.660156 197.363281 277.273438 200.601562 274.039062 C 203.835938 270.804688 208.222656 268.988281 212.796875 268.988281 Z M 212.796875 268.988281 " clip-rule="nonzero"/></clipPath><clipPath id="13fc9a9ab3"><path d="M 274.472656 268.988281 L 337.304688 268.988281 L 337.304688 331.820312 L 274.472656 331.820312 Z M 274.472656 268.988281 " clip-rule="nonzero"/></clipPath><clipPath id="384778fe5a"><path d="M 291.722656 268.988281 L 320.054688 268.988281 C 324.628906 268.988281 329.019531 270.804688 332.253906 274.039062 C 335.488281 277.273438 337.304688 281.664062 337.304688 286.238281 L 337.304688 314.570312 C 337.304688 319.144531 335.488281 323.53125 332.253906 326.765625 C 329.019531 330 324.628906 331.820312 320.054688 331.820312 L 291.722656 331.820312 C 287.148438 331.820312 282.761719 330 279.527344 326.765625 C 276.292969 323.53125 274.472656 319.144531 274.472656 314.570312 L 274.472656 286.238281 C 274.472656 281.664062 276.292969 277.273438 279.527344 274.039062 C 282.761719 270.804688 287.148438 268.988281 291.722656 268.988281 Z M 291.722656 268.988281 " clip-rule="nonzero"/></clipPath><clipPath id="f9ecff134d"><path d="M 0.472656 0.988281 L 63.304688 0.988281 L 63.304688 63.820312 L 0.472656 63.820312 Z M 0.472656 0.988281 " clip-rule="nonzero"/></clipPath><clipPath id="265fefaeaf"><path d="M 17.722656 0.988281 L 46.054688 0.988281 C 50.628906 0.988281 55.019531 2.804688 58.253906 6.039062 C 61.488281 9.273438 63.304688 13.664062 63.304688 18.238281 L 63.304688 46.570312 C 63.304688 51.144531 61.488281 55.53125 58.253906 58.765625 C 55.019531 62 50.628906 63.820312 46.054688 63.820312 L 17.722656 63.820312 C 13.148438 63.820312 8.761719 62 5.527344 58.765625 C 2.292969 55.53125 0.472656 51.144531 0.472656 46.570312 L 0.472656 18.238281 C 0.472656 13.664062 2.292969 9.273438 5.527344 6.039062 C 8.761719 2.804688 13.148438 0.988281 17.722656 0.988281 Z M 17.722656 0.988281 " clip-rule="nonzero"/></clipPath><clipPath id="8dc57ff1b6"><rect x="0" width="64" y="0" height="64"/></clipPath><clipPath id="2c770dbf30"><path d="M 274.472656 268.988281 L 337.472656 268.988281 L 337.472656 331.988281 L 274.472656 331.988281 Z M 274.472656 268.988281 " clip-rule="nonzero"/></clipPath><clipPath id="ae4a09f4a2"><path d="M 291.722656 268.988281 L 320.050781 268.988281 C 324.625 268.988281 329.011719 270.804688 332.246094 274.039062 C 335.480469 277.273438 337.296875 281.660156 337.296875 286.234375 L 337.296875 314.5625 C 337.296875 319.136719 335.480469 323.527344 332.246094 326.761719 C 329.011719 329.996094 324.625 331.8125 320.050781 331.8125 L 291.722656 331.8125 C 287.148438 331.8125 282.761719 329.996094 279.527344 326.761719 C 276.292969 323.527344 274.472656 319.136719 274.472656 314.5625 L 274.472656 286.234375 C 274.472656 281.660156 276.292969 277.273438 279.527344 274.039062 C 282.761719 270.804688 287.148438 268.988281 291.722656 268.988281 Z M 291.722656 268.988281 " clip-rule="nonzero"/></clipPath><clipPath id="c0d875d8a6"><path d="M 115.8125 40.730469 L 178.644531 40.730469 L 178.644531 103.5625 L 115.8125 103.5625 Z M 115.8125 40.730469 " clip-rule="nonzero"/></clipPath><clipPath id="38dc54c236"><path d="M 133.0625 40.730469 L 161.394531 40.730469 C 165.96875 40.730469 170.355469 42.546875 173.589844 45.78125 C 176.824219 49.019531 178.644531 53.40625 178.644531 57.980469 L 178.644531 86.3125 C 178.644531 90.886719 176.824219 95.273438 173.589844 98.507812 C 170.355469 101.746094 165.96875 103.5625 161.394531 103.5625 L 133.0625 103.5625 C 128.488281 103.5625 124.101562 101.746094 120.863281 98.507812 C 117.628906 95.273438 115.8125 90.886719 115.8125 86.3125 L 115.8125 57.980469 C 115.8125 53.40625 117.628906 49.019531 120.863281 45.78125 C 124.101562 42.546875 128.488281 40.730469 133.0625 40.730469 Z M 133.0625 40.730469 " clip-rule="nonzero"/></clipPath><clipPath id="506871bdb9"><path d="M 0.8125 0.730469 L 63.644531 0.730469 L 63.644531 63.5625 L 0.8125 63.5625 Z M 0.8125 0.730469 " clip-rule="nonzero"/></clipPath><clipPath id="521fe28181"><path d="M 18.0625 0.730469 L 46.394531 0.730469 C 50.96875 0.730469 55.355469 2.546875 58.589844 5.78125 C 61.824219 9.019531 63.644531 13.40625 63.644531 17.980469 L 63.644531 46.3125 C 63.644531 50.886719 61.824219 55.273438 58.589844 58.507812 C 55.355469 61.746094 50.96875 63.5625 46.394531 63.5625 L 18.0625 63.5625 C 13.488281 63.5625 9.101562 61.746094 5.863281 58.507812 C 2.628906 55.273438 0.8125 50.886719 0.8125 46.3125 L 0.8125 17.980469 C 0.8125 13.40625 2.628906 9.019531 5.863281 5.78125 C 9.101562 2.546875 13.488281 0.730469 18.0625 0.730469 Z M 18.0625 0.730469 " clip-rule="nonzero"/></clipPath><clipPath id="9a9012852a"><rect x="0" width="64" y="0" height="64"/></clipPath><clipPath id="ed47afb89e"><path d="M 115.8125 40.730469 L 178.8125 40.730469 L 178.8125 103.730469 L 115.8125 103.730469 Z M 115.8125 40.730469 " clip-rule="nonzero"/></clipPath><clipPath id="c1962c1ec6"><path d="M 133.058594 40.730469 L 161.386719 40.730469 C 165.964844 40.730469 170.351562 42.546875 173.585938 45.78125 C 176.820312 49.015625 178.636719 53.402344 178.636719 57.980469 L 178.636719 86.308594 C 178.636719 90.882812 176.820312 95.269531 173.585938 98.503906 C 170.351562 101.738281 165.964844 103.554688 161.386719 103.554688 L 133.058594 103.554688 C 128.484375 103.554688 124.097656 101.738281 120.863281 98.503906 C 117.628906 95.269531 115.8125 90.882812 115.8125 86.308594 L 115.8125 57.980469 C 115.8125 53.402344 117.628906 49.015625 120.863281 45.78125 C 124.097656 42.546875 128.484375 40.730469 133.058594 40.730469 Z M 133.058594 40.730469 " clip-rule="nonzero"/></clipPath><clipPath id="6ad5c8ae1a"><path d="M 194.738281 40.730469 L 257.570312 40.730469 L 257.570312 103.5625 L 194.738281 103.5625 Z M 194.738281 40.730469 " clip-rule="nonzero"/></clipPath><clipPath id="771d3b737e"><path d="M 211.988281 40.730469 L 240.320312 40.730469 C 244.894531 40.730469 249.28125 42.546875 252.519531 45.78125 C 255.753906 49.019531 257.570312 53.40625 257.570312 57.980469 L 257.570312 86.3125 C 257.570312 90.886719 255.753906 95.273438 252.519531 98.507812 C 249.28125 101.746094 244.894531 103.5625 240.320312 103.5625 L 211.988281 103.5625 C 207.414062 103.5625 203.027344 101.746094 199.792969 98.507812 C 196.554688 95.273438 194.738281 90.886719 194.738281 86.3125 L 194.738281 57.980469 C 194.738281 53.40625 196.554688 49.019531 199.792969 45.78125 C 203.027344 42.546875 207.414062 40.730469 211.988281 40.730469 Z M 211.988281 40.730469 " clip-rule="nonzero"/></clipPath><clipPath id="95c34a4657"><path d="M 0.738281 0.730469 L 63.570312 0.730469 L 63.570312 63.5625 L 0.738281 63.5625 Z M 0.738281 0.730469 " clip-rule="nonzero"/></clipPath><clipPath id="717cebe0b8"><path d="M 17.988281 0.730469 L 46.320312 0.730469 C 50.894531 0.730469 55.28125 2.546875 58.519531 5.78125 C 61.753906 9.019531 63.570312 13.40625 63.570312 17.980469 L 63.570312 46.3125 C 63.570312 50.886719 61.753906 55.273438 58.519531 58.507812 C 55.28125 61.746094 50.894531 63.5625 46.320312 63.5625 L 17.988281 63.5625 C 13.414062 63.5625 9.027344 61.746094 5.792969 58.507812 C 2.554688 55.273438 0.738281 50.886719 0.738281 46.3125 L 0.738281 17.980469 C 0.738281 13.40625 2.554688 9.019531 5.792969 5.78125 C 9.027344 2.546875 13.414062 0.730469 17.988281 0.730469 Z M 17.988281 0.730469 " clip-rule="nonzero"/></clipPath><clipPath id="4d2198978a"><rect x="0" width="64" y="0" height="64"/></clipPath><clipPath id="6dad5d4561"><path d="M 194.738281 40.730469 L 257.738281 40.730469 L 257.738281 103.730469 L 194.738281 103.730469 Z M 194.738281 40.730469 " clip-rule="nonzero"/></clipPath><clipPath id="24b716aa55"><path d="M 211.988281 40.730469 L 240.316406 40.730469 C 244.890625 40.730469 249.277344 42.546875 252.511719 45.78125 C 255.746094 49.015625 257.5625 53.402344 257.5625 57.980469 L 257.5625 86.308594 C 257.5625 90.882812 255.746094 95.269531 252.511719 98.503906 C 249.277344 101.738281 244.890625 103.554688 240.316406 103.554688 L 211.988281 103.554688 C 207.414062 103.554688 203.027344 101.738281 199.789062 98.503906 C 196.554688 95.269531 194.738281 90.882812 194.738281 86.308594 L 194.738281 57.980469 C 194.738281 53.402344 196.554688 49.015625 199.789062 45.78125 C 203.027344 42.546875 207.414062 40.730469 211.988281 40.730469 Z M 211.988281 40.730469 " clip-rule="nonzero"/></clipPath><clipPath id="99617a0998"><path d="M 36.285156 268.988281 L 99.117188 268.988281 L 99.117188 331.820312 L 36.285156 331.820312 Z M 36.285156 268.988281 " clip-rule="nonzero"/></clipPath><clipPath id="a147e2c169"><path d="M 53.535156 268.988281 L 81.867188 268.988281 C 86.441406 268.988281 90.832031 270.804688 94.066406 274.039062 C 97.300781 277.273438 99.117188 281.664062 99.117188 286.238281 L 99.117188 314.570312 C 99.117188 319.144531 97.300781 323.53125 94.066406 326.765625 C 90.832031 330 86.441406 331.820312 81.867188 331.820312 L 53.535156 331.820312 C 48.960938 331.820312 44.574219 330 41.339844 326.765625 C 38.105469 323.53125 36.285156 319.144531 36.285156 314.570312 L 36.285156 286.238281 C 36.285156 281.664062 38.105469 277.273438 41.339844 274.039062 C 44.574219 270.804688 48.960938 268.988281 53.535156 268.988281 Z M 53.535156 268.988281 " clip-rule="nonzero"/></clipPath><clipPath id="510de3920b"><path d="M 0.285156 0.988281 L 63.117188 0.988281 L 63.117188 63.820312 L 0.285156 63.820312 Z M 0.285156 0.988281 " clip-rule="nonzero"/></clipPath><clipPath id="93b2c4b26b"><path d="M 17.535156 0.988281 L 45.867188 0.988281 C 50.441406 0.988281 54.832031 2.804688 58.066406 6.039062 C 61.300781 9.273438 63.117188 13.664062 63.117188 18.238281 L 63.117188 46.570312 C 63.117188 51.144531 61.300781 55.53125 58.066406 58.765625 C 54.832031 62 50.441406 63.820312 45.867188 63.820312 L 17.535156 63.820312 C 12.960938 63.820312 8.574219 62 5.339844 58.765625 C 2.105469 55.53125 0.285156 51.144531 0.285156 46.570312 L 0.285156 18.238281 C 0.285156 13.664062 2.105469 9.273438 5.339844 6.039062 C 8.574219 2.804688 12.960938 0.988281 17.535156 0.988281 Z M 17.535156 0.988281 " clip-rule="nonzero"/></clipPath><clipPath id="e49180c5ca"><rect x="0" width="64" y="0" height="64"/></clipPath><clipPath id="da59267f1b"><path d="M 36.285156 268.988281 L 99.285156 268.988281 L 99.285156 331.988281 L 36.285156 331.988281 Z M 36.285156 268.988281 " clip-rule="nonzero"/></clipPath><clipPath id="d455f9b365"><path d="M 53.535156 268.988281 L 81.863281 268.988281 C 86.4375 268.988281 90.824219 270.804688 94.058594 274.039062 C 97.292969 277.273438 99.109375 281.660156 99.109375 286.234375 L 99.109375 314.5625 C 99.109375 319.136719 97.292969 323.527344 94.058594 326.761719 C 90.824219 329.996094 86.4375 331.8125 81.863281 331.8125 L 53.535156 331.8125 C 48.960938 331.8125 44.574219 329.996094 41.339844 326.761719 C 38.105469 323.527344 36.285156 319.136719 36.285156 314.5625 L 36.285156 286.234375 C 36.285156 281.660156 38.105469 277.273438 41.339844 274.039062 C 44.574219 270.804688 48.960938 268.988281 53.535156 268.988281 Z M 53.535156 268.988281 " clip-rule="nonzero"/></clipPath><clipPath id="2047b84562"><path d="M 115.8125 268.988281 L 178.644531 268.988281 L 178.644531 331.820312 L 115.8125 331.820312 Z M 115.8125 268.988281 " clip-rule="nonzero"/></clipPath><clipPath id="1649eee3fa"><path d="M 133.0625 268.988281 L 161.394531 268.988281 C 165.96875 268.988281 170.355469 270.804688 173.589844 274.039062 C 176.824219 277.273438 178.644531 281.664062 178.644531 286.238281 L 178.644531 314.570312 C 178.644531 319.144531 176.824219 323.53125 173.589844 326.765625 C 170.355469 330 165.96875 331.820312 161.394531 331.820312 L 133.0625 331.820312 C 128.488281 331.820312 124.101562 330 120.863281 326.765625 C 117.628906 323.53125 115.8125 319.144531 115.8125 314.570312 L 115.8125 286.238281 C 115.8125 281.664062 117.628906 277.273438 120.863281 274.039062 C 124.101562 270.804688 128.488281 268.988281 133.0625 268.988281 Z M 133.0625 268.988281 " clip-rule="nonzero"/></clipPath><clipPath id="4d408b70e0"><path d="M 0.8125 0.988281 L 63.644531 0.988281 L 63.644531 63.820312 L 0.8125 63.820312 Z M 0.8125 0.988281 " clip-rule="nonzero"/></clipPath><clipPath id="28120e9795"><path d="M 18.0625 0.988281 L 46.394531 0.988281 C 50.96875 0.988281 55.355469 2.804688 58.589844 6.039062 C 61.824219 9.273438 63.644531 13.664062 63.644531 18.238281 L 63.644531 46.570312 C 63.644531 51.144531 61.824219 55.53125 58.589844 58.765625 C 55.355469 62 50.96875 63.820312 46.394531 63.820312 L 18.0625 63.820312 C 13.488281 63.820312 9.101562 62 5.863281 58.765625 C 2.628906 55.53125 0.8125 51.144531 0.8125 46.570312 L 0.8125 18.238281 C 0.8125 13.664062 2.628906 9.273438 5.863281 6.039062 C 9.101562 2.804688 13.488281 0.988281 18.0625 0.988281 Z M 18.0625 0.988281 " clip-rule="nonzero"/></clipPath><clipPath id="778c888441"><rect x="0" width="64" y="0" height="64"/></clipPath><clipPath id="4a59b48324"><path d="M 115.8125 268.988281 L 178.8125 268.988281 L 178.8125 331.988281 L 115.8125 331.988281 Z M 115.8125 268.988281 " clip-rule="nonzero"/></clipPath><clipPath id="a6d00b347c"><path d="M 133.058594 268.988281 L 161.386719 268.988281 C 165.964844 268.988281 170.351562 270.804688 173.585938 274.039062 C 176.820312 277.273438 178.636719 281.660156 178.636719 286.234375 L 178.636719 314.5625 C 178.636719 319.136719 176.820312 323.527344 173.585938 326.761719 C 170.351562 329.996094 165.964844 331.8125 161.386719 331.8125 L 133.058594 331.8125 C 128.484375 331.8125 124.097656 329.996094 120.863281 326.761719 C 117.628906 323.527344 115.8125 319.136719 115.8125 314.5625 L 115.8125 286.234375 C 115.8125 281.660156 117.628906 277.273438 120.863281 274.039062 C 124.097656 270.804688 128.484375 268.988281 133.058594 268.988281 Z M 133.058594 268.988281 " clip-rule="nonzero"/></clipPath><clipPath id="a6ef95278e"><path d="M 37.5 136.5625 L 337.519531 136.5625 L 337.519531 237.488281 L 37.5 237.488281 Z M 37.5 136.5625 " clip-rule="nonzero"/></clipPath><clipPath id="69992a61f2"><path d="M 54.75 136.5625 L 320.25 136.5625 C 324.824219 136.5625 329.210938 138.378906 332.449219 141.613281 C 335.683594 144.847656 337.5 149.238281 337.5 153.8125 L 337.5 220.238281 C 337.5 224.8125 335.683594 229.199219 332.449219 232.433594 C 329.210938 235.671875 324.824219 237.488281 320.25 237.488281 L 54.75 237.488281 C 50.175781 237.488281 45.789062 235.671875 42.550781 232.433594 C 39.316406 229.199219 37.5 224.8125 37.5 220.238281 L 37.5 153.8125 C 37.5 149.238281 39.316406 144.847656 42.550781 141.613281 C 45.789062 138.378906 50.175781 136.5625 54.75 136.5625 Z M 54.75 136.5625 " clip-rule="nonzero"/></clipPath><clipPath id="80badc957d"><path d="M 0.5 0.5625 L 300.519531 0.5625 L 300.519531 101.488281 L 0.5 101.488281 Z M 0.5 0.5625 " clip-rule="nonzero"/></clipPath><clipPath id="16b577a535"><path d="M 17.75 0.5625 L 283.25 0.5625 C 287.824219 0.5625 292.210938 2.378906 295.449219 5.613281 C 298.683594 8.847656 300.5 13.238281 300.5 17.8125 L 300.5 84.238281 C 300.5 88.8125 298.683594 93.199219 295.449219 96.433594 C 292.210938 99.671875 287.824219 101.488281 283.25 101.488281 L 17.75 101.488281 C 13.175781 101.488281 8.789062 99.671875 5.550781 96.433594 C 2.316406 93.199219 0.5 88.8125 0.5 84.238281 L 0.5 17.8125 C 0.5 13.238281 2.316406 8.847656 5.550781 5.613281 C 8.789062 2.378906 13.175781 0.5625 17.75 0.5625 Z M 17.75 0.5625 " clip-rule="nonzero"/></clipPath><clipPath id="bf1a9005c7"><rect x="0" width="301" y="0" height="102"/></clipPath><clipPath id="ab5026ad02"><path d="M 37.507812 136.5625 L 337.5 136.5625 L 337.5 237.8125 L 37.507812 237.8125 Z M 37.507812 136.5625 " clip-rule="nonzero"/></clipPath><clipPath id="1e07619f7e"><path d="M 54.753906 136.5625 L 320.246094 136.5625 C 324.820312 136.5625 329.207031 138.378906 332.441406 141.613281 C 335.675781 144.847656 337.492188 149.234375 337.492188 153.8125 L 337.492188 220.234375 C 337.492188 224.808594 335.675781 229.195312 332.441406 232.429688 C 329.207031 235.667969 324.820312 237.484375 320.246094 237.484375 L 54.753906 237.484375 C 50.179688 237.484375 45.792969 235.667969 42.558594 232.429688 C 39.324219 229.195312 37.507812 224.808594 37.507812 220.234375 L 37.507812 153.8125 C 37.507812 149.234375 39.324219 144.847656 42.558594 141.613281 C 45.792969 138.378906 50.179688 136.5625 54.753906 136.5625 Z M 54.753906 136.5625 " clip-rule="nonzero"/></clipPath><clipPath id="482a1a2ceb"><path d="M 138.929688 137.554688 L 236.96875 137.554688 L 236.96875 235.59375 L 138.929688 235.59375 Z M 138.929688 137.554688 " clip-rule="nonzero"/></clipPath><clipPath id="7adf6487c1"><path d="M 187.949219 137.554688 C 160.878906 137.554688 138.929688 159.503906 138.929688 186.574219 C 138.929688 213.648438 160.878906 235.59375 187.949219 235.59375 C 215.023438 235.59375 236.96875 213.648438 236.96875 186.574219 C 236.96875 159.503906 215.023438 137.554688 187.949219 137.554688 Z M 187.949219 137.554688 " clip-rule="nonzero"/></clipPath><clipPath id="a6febf0809"><path d="M 0.929688 0.554688 L 98.96875 0.554688 L 98.96875 98.59375 L 0.929688 98.59375 Z M 0.929688 0.554688 " clip-rule="nonzero"/></clipPath><clipPath id="07c99fbc06"><path d="M 49.949219 0.554688 C 22.878906 0.554688 0.929688 22.503906 0.929688 49.574219 C 0.929688 76.648438 22.878906 98.59375 49.949219 98.59375 C 77.023438 98.59375 98.96875 76.648438 98.96875 49.574219 C 98.96875 22.503906 77.023438 0.554688 49.949219 0.554688 Z M 49.949219 0.554688 " clip-rule="nonzero"/></clipPath><clipPath id="c93dc6cf41"><rect x="0" width="99" y="0" height="99"/></clipPath><clipPath id="3ac84a7a46"><path d="M 51.027344 193.390625 L 163.625 193.390625 L 163.625 235.59375 L 51.027344 235.59375 Z M 51.027344 193.390625 " clip-rule="nonzero"/></clipPath><clipPath id="81219e08e9"><path d="M 96.460938 193.390625 C 107.300781 193.390625 116.808594 197.054688 122.160156 202.558594 C 126.863281 200.539062 132.6875 200.035156 138.183594 201.546875 C 144.324219 203.230469 148.609375 207.027344 150.109375 211.429688 C 157.734375 212.429688 163.527344 217.414062 163.527344 223.417969 C 163.527344 230.144531 156.265625 235.59375 147.304688 235.59375 L 67.253906 235.59375 C 57.765625 235.59375 51.027344 230.816406 51.027344 223.417969 C 51.03125 216.941406 57.769531 211.648438 66.273438 211.269531 C 67.542969 201.257812 80.570312 193.390625 96.460938 193.390625 Z M 96.460938 193.390625 " clip-rule="nonzero"/></clipPath><clipPath id="744a5f10af"><path d="M 0.0273438 0.390625 L 112.625 0.390625 L 112.625 42.59375 L 0.0273438 42.59375 Z M 0.0273438 0.390625 " clip-rule="nonzero"/></clipPath><clipPath id="eea7a27d66"><path d="M 45.460938 0.390625 C 56.300781 0.390625 65.808594 4.054688 71.160156 9.558594 C 75.863281 7.539062 81.6875 7.035156 87.183594 8.546875 C 93.324219 10.230469 97.609375 14.027344 99.109375 18.429688 C 106.734375 19.429688 112.527344 24.414062 112.527344 30.417969 C 112.527344 37.144531 105.265625 42.59375 96.304688 42.59375 L 16.253906 42.59375 C 6.765625 42.59375 0.0273438 37.816406 0.0273438 30.417969 C 0.03125 23.941406 6.769531 18.648438 15.273438 18.269531 C 16.542969 8.257812 29.570312 0.390625 45.460938 0.390625 Z M 45.460938 0.390625 " clip-rule="nonzero"/></clipPath><clipPath id="0ad2ce6dd6"><rect x="0" width="113" y="0" height="43"/></clipPath><clipPath id="d43c149771"><path d="M 201.554688 166.21875 L 330.445312 166.21875 L 330.445312 226.664062 L 201.554688 226.664062 Z M 201.554688 166.21875 " clip-rule="nonzero"/></clipPath><clipPath id="b93b001593"><path d="M 274.660156 166.21875 C 276.070312 166.21875 277.492188 166.21875 278.902344 166.21875 C 290.140625 167.222656 297.160156 170.570312 300.359375 176.046875 C 319.09375 175.316406 332.410156 185.675781 324.414062 195.839844 C 327.175781 197.976562 329.476562 200.367188 330.308594 203.574219 C 330.308594 204.492188 330.308594 205.40625 330.308594 206.324219 C 327.832031 214.488281 317.164062 220.003906 299.65625 218.519531 C 295.152344 222.710938 287.136719 227.015625 274.664062 226.382812 C 268.214844 226.109375 263.730469 224.515625 259.800781 222.578125 C 255.664062 224.1875 251.1875 225.449219 244.714844 225.464844 C 229.738281 225.488281 219.722656 219.289062 219.476562 210.785156 C 209.851562 208.792969 203.332031 205.082031 201.554688 198.726562 C 201.554688 197.808594 201.554688 196.886719 201.554688 195.972656 C 203.515625 189.675781 209.679688 185.71875 219.949219 184.042969 C 219.332031 173.421875 239.863281 166.78125 256.734375 171.464844 C 260.75 169.148438 266.433594 166.625 274.660156 166.21875 Z M 274.660156 166.21875 " clip-rule="nonzero"/></clipPath><clipPath id="5808bd0a46"><path d="M 0.554688 0.21875 L 129.445312 0.21875 L 129.445312 60.558594 L 0.554688 60.558594 Z M 0.554688 0.21875 " clip-rule="nonzero"/></clipPath><clipPath id="ce9ba6ee5f"><path d="M 73.660156 0.21875 C 75.070312 0.21875 76.492188 0.21875 77.902344 0.21875 C 89.140625 1.222656 96.160156 4.570312 99.359375 10.046875 C 118.09375 9.316406 131.410156 19.675781 123.414062 29.839844 C 126.175781 31.976562 128.476562 34.367188 129.308594 37.574219 C 129.308594 38.492188 129.308594 39.40625 129.308594 40.324219 C 126.832031 48.488281 116.164062 54.003906 98.65625 52.519531 C 94.152344 56.710938 86.136719 61.015625 73.664062 60.382812 C 67.214844 60.109375 62.730469 58.515625 58.800781 56.578125 C 54.664062 58.1875 50.1875 59.449219 43.714844 59.464844 C 28.738281 59.488281 18.722656 53.289062 18.476562 44.785156 C 8.851562 42.792969 2.332031 39.082031 0.554688 32.726562 C 0.554688 31.808594 0.554688 30.886719 0.554688 29.972656 C 2.515625 23.675781 8.679688 19.71875 18.949219 18.042969 C 18.332031 7.421875 38.863281 0.78125 55.734375 5.464844 C 59.75 3.148438 65.433594 0.625 73.660156 0.21875 Z M 73.660156 0.21875 " clip-rule="nonzero"/></clipPath><clipPath id="df236977f5"><rect x="0" width="130" y="0" height="61"/></clipPath></defs><g clip-path="url(#7b6030a985)"><g clip-path="url(#c4a692581b)"><g transform="matrix(1, 0, 0, 1, 195, 268)"><g clip-path="url(#2763ef506e)"><g clip-path="url(#c2b31699e2)"><g clip-path="url(#5e3d85dc92)"><path fill="#38b6ff" d="M 0.546875 0.988281 L 63.378906 0.988281 L 63.378906 63.820312 L 0.546875 63.820312 Z M 0.546875 0.988281 " fill-opacity="1" fill-rule="nonzero"/></g></g></g></g></g></g><g clip-path="url(#342a18f6e6)"><g clip-path="url(#9275169ce7)"><path stroke-linecap="butt" transform="matrix(0.75, 0, 0, 0.75, 195.547799, 268.987718)" fill="none" stroke-linejoin="miter" d="M 22.99877 0.000751618 L 60.769606 0.000751618 C 66.868564 0.000751618 72.717523 2.422627 77.030023 6.735127 C 81.342524 11.047627 83.764399 16.896586 83.764399 22.995545 L 83.764399 60.766381 C 83.764399 66.865339 81.342524 72.719506 77.030023 77.032007 C 72.717523 81.344507 66.868564 83.766382 60.769606 83.766382 L 22.99877 83.766382 C 16.899811 83.766382 11.050852 81.344507 6.738352 77.032007 C 2.420643 72.719506 -0.00123181 66.865339 -0.00123181 60.766381 L -0.00123181 22.995545 C -0.00123181 16.896586 2.420643 11.047627 6.738352 6.735127 C 11.050852 2.422627 16.899811 0.000751618 22.99877 0.000751618 Z M 22.99877 0.000751618 " stroke="#000000" stroke-width="4" stroke-opacity="1" stroke-miterlimit="4"/></g></g><g clip-path="url(#13fc9a9ab3)"><g clip-path="url(#384778fe5a)"><g transform="matrix(1, 0, 0, 1, 274, 268)"><g clip-path="url(#8dc57ff1b6)"><g clip-path="url(#f9ecff134d)"><g clip-path="url(#265fefaeaf)"><path fill="#38b6ff" d="M 0.472656 0.988281 L 63.304688 0.988281 L 63.304688 63.820312 L 0.472656 63.820312 Z M 0.472656 0.988281 " fill-opacity="1" fill-rule="nonzero"/></g></g></g></g></g></g><g clip-path="url(#2c770dbf30)"><g clip-path="url(#ae4a09f4a2)"><path stroke-linecap="butt" transform="matrix(0.75, 0, 0, 0.75, 274.474527, 268.987718)" fill="none" stroke-linejoin="miter" d="M 22.997507 0.000751618 L 60.768343 0.000751618 C 66.867301 0.000751618 72.71626 2.422627 77.02876 6.735127 C 81.341261 11.047627 83.763136 16.896586 83.763136 22.995545 L 83.763136 60.766381 C 83.763136 66.865339 81.341261 72.719506 77.02876 77.032007 C 72.71626 81.344507 66.867301 83.766382 60.768343 83.766382 L 22.997507 83.766382 C 16.898548 83.766382 11.049589 81.344507 6.737089 77.032007 C 2.424589 72.719506 -0.0024947 66.865339 -0.0024947 60.766381 L -0.0024947 22.995545 C -0.0024947 16.896586 2.424589 11.047627 6.737089 6.735127 C 11.049589 2.422627 16.898548 0.000751618 22.997507 0.000751618 Z M 22.997507 0.000751618 " stroke="#000000" stroke-width="4" stroke-opacity="1" stroke-miterlimit="4"/></g></g><g clip-path="url(#c0d875d8a6)"><g clip-path="url(#38dc54c236)"><g transform="matrix(1, 0, 0, 1, 115, 40)"><g clip-path="url(#9a9012852a)"><g clip-path="url(#506871bdb9)"><g clip-path="url(#521fe28181)"><path fill="#d9d9d9" d="M 0.8125 0.730469 L 63.644531 0.730469 L 63.644531 63.5625 L 0.8125 63.5625 Z M 0.8125 0.730469 " fill-opacity="1" fill-rule="nonzero"/></g></g></g></g></g></g><g clip-path="url(#ed47afb89e)"><g clip-path="url(#c1962c1ec6)"><path stroke-linecap="butt" transform="matrix(0.75, 0, 0, 0.75, 115.812294, 40.730623)" fill="none" stroke-linejoin="miter" d="M 22.995067 -0.000205567 L 60.765903 -0.000205567 C 66.864862 -0.000205567 72.719029 2.42167 77.031529 6.73417 C 81.344029 11.04667 83.765905 16.895629 83.765905 22.999796 L 83.765905 60.770632 C 83.765905 66.86959 81.344029 72.718549 77.031529 77.031049 C 72.719029 81.34355 66.864862 83.765425 60.765903 83.765425 L 22.995067 83.765425 C 16.896108 83.765425 11.04715 81.34355 6.734649 77.031049 C 2.422149 72.718549 0.000274007 66.86959 0.000274007 60.770632 L 0.000274007 22.999796 C 0.000274007 16.895629 2.422149 11.04667 6.734649 6.73417 C 11.04715 2.42167 16.896108 -0.000205567 22.995067 -0.000205567 Z M 22.995067 -0.000205567 " stroke="#000000" stroke-width="4" stroke-opacity="1" stroke-miterlimit="4"/></g></g><g clip-path="url(#6ad5c8ae1a)"><g clip-path="url(#771d3b737e)"><g transform="matrix(1, 0, 0, 1, 194, 40)"><g clip-path="url(#4d2198978a)"><g clip-path="url(#95c34a4657)"><g clip-path="url(#717cebe0b8)"><path fill="#d9d9d9" d="M 0.738281 0.730469 L 63.570312 0.730469 L 63.570312 63.5625 L 0.738281 63.5625 Z M 0.738281 0.730469 " fill-opacity="1" fill-rule="nonzero"/></g></g></g></g></g></g><g clip-path="url(#6dad5d4561)"><g clip-path="url(#24b716aa55)"><path stroke-linecap="butt" transform="matrix(0.75, 0, 0, 0.75, 194.739016, 40.730623)" fill="none" stroke-linejoin="miter" d="M 22.999022 -0.000205567 L 60.769858 -0.000205567 C 66.868817 -0.000205567 72.717775 2.42167 77.030276 6.73417 C 81.342776 11.04667 83.764651 16.895629 83.764651 22.999796 L 83.764651 60.770632 C 83.764651 66.86959 81.342776 72.718549 77.030276 77.031049 C 72.717775 81.34355 66.868817 83.765425 60.769858 83.765425 L 22.999022 83.765425 C 16.900063 83.765425 11.051105 81.34355 6.733396 77.031049 C 2.420896 72.718549 -0.000979283 66.86959 -0.000979283 60.770632 L -0.000979283 22.999796 C -0.000979283 16.895629 2.420896 11.04667 6.733396 6.73417 C 11.051105 2.42167 16.900063 -0.000205567 22.999022 -0.000205567 Z M 22.999022 -0.000205567 " stroke="#000000" stroke-width="4" stroke-opacity="1" stroke-miterlimit="4"/></g></g><g clip-path="url(#99617a0998)"><g clip-path="url(#a147e2c169)"><g transform="matrix(1, 0, 0, 1, 36, 268)"><g clip-path="url(#e49180c5ca)"><g clip-path="url(#510de3920b)"><g clip-path="url(#93b2c4b26b)"><path fill="#38b6ff" d="M 0.285156 0.988281 L 63.117188 0.988281 L 63.117188 63.820312 L 0.285156 63.820312 Z M 0.285156 0.988281 " fill-opacity="1" fill-rule="nonzero"/></g></g></g></g></g></g><g clip-path="url(#da59267f1b)"><g clip-path="url(#d455f9b365)"><path stroke-linecap="butt" transform="matrix(0.75, 0, 0, 0.75, 36.286841, 268.987718)" fill="none" stroke-linejoin="miter" d="M 22.997756 0.000751618 L 60.768592 0.000751618 C 66.86755 0.000751618 72.716509 2.422627 77.029009 6.735127 C 81.34151 11.047627 83.763385 16.896586 83.763385 22.995545 L 83.763385 60.766381 C 83.763385 66.865339 81.34151 72.719506 77.029009 77.032007 C 72.716509 81.344507 66.86755 83.766382 60.768592 83.766382 L 22.997756 83.766382 C 16.898797 83.766382 11.049838 81.344507 6.737338 77.032007 C 2.424838 72.719506 -0.00224569 66.865339 -0.00224569 60.766381 L -0.00224569 22.995545 C -0.00224569 16.896586 2.424838 11.047627 6.737338 6.735127 C 11.049838 2.422627 16.898797 0.000751618 22.997756 0.000751618 Z M 22.997756 0.000751618 " stroke="#000000" stroke-width="4" stroke-opacity="1" stroke-miterlimit="4"/></g></g><g clip-path="url(#2047b84562)"><g clip-path="url(#1649eee3fa)"><g transform="matrix(1, 0, 0, 1, 115, 268)"><g clip-path="url(#778c888441)"><g clip-path="url(#4d408b70e0)"><g clip-path="url(#28120e9795)"><path fill="#38b6ff" d="M 0.8125 0.988281 L 63.644531 0.988281 L 63.644531 63.820312 L 0.8125 63.820312 Z M 0.8125 0.988281 " fill-opacity="1" fill-rule="nonzero"/></g></g></g></g></g></g><g clip-path="url(#4a59b48324)"><g clip-path="url(#a6d00b347c)"><path stroke-linecap="butt" transform="matrix(0.75, 0, 0, 0.75, 115.812294, 268.987718)" fill="none" stroke-linejoin="miter" d="M 22.995067 0.000751618 L 60.765903 0.000751618 C 66.864862 0.000751618 72.719029 2.422627 77.031529 6.735127 C 81.344029 11.047627 83.765905 16.896586 83.765905 22.995545 L 83.765905 60.766381 C 83.765905 66.865339 81.344029 72.719506 77.031529 77.032007 C 72.719029 81.344507 66.864862 83.766382 60.765903 83.766382 L 22.995067 83.766382 C 16.896108 83.766382 11.04715 81.344507 6.734649 77.032007 C 2.422149 72.719506 0.000274007 66.865339 0.000274007 60.766381 L 0.000274007 22.995545 C 0.000274007 16.896586 2.422149 11.047627 6.734649 6.735127 C 11.04715 2.422627 16.896108 0.000751618 22.995067 0.000751618 Z M 22.995067 0.000751618 " stroke="#000000" stroke-width="4" stroke-opacity="1" stroke-miterlimit="4"/></g></g><g clip-path="url(#a6ef95278e)"><g clip-path="url(#69992a61f2)"><g transform="matrix(1, 0, 0, 1, 37, 136)"><g clip-path="url(#bf1a9005c7)"><g clip-path="url(#80badc957d)"><g clip-path="url(#16b577a535)"><path fill="#a5deff" d="M 0.5 0.5625 L 300.519531 0.5625 L 300.519531 101.488281 L 0.5 101.488281 Z M 0.5 0.5625 " fill-opacity="1" fill-rule="nonzero"/></g></g></g></g></g></g><g clip-path="url(#ab5026ad02)"><g clip-path="url(#1e07619f7e)"><path stroke-linecap="butt" transform="matrix(0.75, 0, 0, 0.75, 37.506228, 136.56169)" fill="none" stroke-linejoin="miter" d="M 22.996906 0.00107969 L 376.986513 0.00107969 C 383.085472 0.00107969 388.93443 2.422955 393.246931 6.735455 C 397.559431 11.047955 399.981306 16.896914 399.981306 23.001081 L 399.981306 111.563587 C 399.981306 117.662546 397.559431 123.511504 393.246931 127.824005 C 388.93443 132.141713 383.085472 134.563589 376.986513 134.563589 L 22.996906 134.563589 C 16.897948 134.563589 11.048989 132.141713 6.736489 127.824005 C 2.423988 123.511504 0.00211315 117.662546 0.00211315 111.563587 L 0.00211315 23.001081 C 0.00211315 16.896914 2.423988 11.047955 6.736489 6.735455 C 11.048989 2.422955 16.897948 0.00107969 22.996906 0.00107969 Z M 22.996906 0.00107969 " stroke="#000000" stroke-width="4" stroke-opacity="1" stroke-miterlimit="4"/></g></g><g clip-path="url(#482a1a2ceb)"><g clip-path="url(#7adf6487c1)"><g transform="matrix(1, 0, 0, 1, 138, 137)"><g clip-path="url(#c93dc6cf41)"><g clip-path="url(#a6febf0809)"><g clip-path="url(#07c99fbc06)"><path fill="#ffde59" d="M 0.929688 0.554688 L 98.96875 0.554688 L 98.96875 98.59375 L 0.929688 98.59375 Z M 0.929688 0.554688 " fill-opacity="1" fill-rule="nonzero"/></g></g></g></g></g></g><g clip-path="url(#3ac84a7a46)"><g clip-path="url(#81219e08e9)"><g transform="matrix(1, 0, 0, 1, 51, 193)"><g clip-path="url(#0ad2ce6dd6)"><g clip-path="url(#744a5f10af)"><g clip-path="url(#eea7a27d66)"><path fill="#ffffff" d="M 0.0273438 0.390625 L 112.460938 0.390625 L 112.460938 42.59375 L 0.0273438 42.59375 Z M 0.0273438 0.390625 " fill-opacity="1" fill-rule="nonzero"/></g></g></g></g></g></g><g clip-path="url(#d43c149771)"><g clip-path="url(#b93b001593)"><g transform="matrix(1, 0, 0, 1, 201, 166)"><g clip-path="url(#df236977f5)"><g clip-path="url(#5808bd0a46)"><g clip-path="url(#ce9ba6ee5f)"><path fill="#ffffff" d="M 0.554688 0.21875 L 129.210938 0.21875 L 129.210938 60.429688 L 0.554688 60.429688 Z M 0.554688 0.21875 " fill-opacity="1" fill-rule="nonzero"/></g></g></g></g></g></g><g fill="#000000" fill-opacity="1"><g transform="translate(41.864505, 199.9528)"><g><path d="M 21.4375 -36.390625 C 21.59375 -36.878906 21.910156 -37.289062 22.390625 -37.625 C 22.878906 -37.957031 23.394531 -38.125 23.9375 -38.125 C 24.519531 -38.125 25.039062 -37.941406 25.5 -37.578125 C 25.96875 -37.222656 26.285156 -36.789062 26.453125 -36.28125 L 34.546875 -10.5 L 41.734375 -35.3125 C 41.878906 -36.0625 42.191406 -36.695312 42.671875 -37.21875 C 43.160156 -37.75 43.703125 -38.015625 44.296875 -38.015625 C 45.035156 -38.015625 45.660156 -37.695312 46.171875 -37.0625 C 46.679688 -36.4375 46.9375 -35.691406 46.9375 -34.828125 C 46.9375 -34.472656 46.890625 -34.164062 46.796875 -33.90625 L 37.234375 -1.390625 C 37.078125 -0.867188 36.757812 -0.4375 36.28125 -0.09375 C 35.800781 0.25 35.28125 0.421875 34.71875 0.421875 C 34.175781 0.421875 33.660156 0.257812 33.171875 -0.0625 C 32.679688 -0.382812 32.351562 -0.800781 32.1875 -1.3125 L 23.859375 -25.234375 L 15.0625 -0.53125 C 14.425781 0.101562 13.585938 0.421875 12.546875 0.421875 C 11.984375 0.421875 11.457031 0.25 10.96875 -0.09375 C 10.476562 -0.4375 10.15625 -0.867188 10 -1.390625 L 0.765625 -33.5625 C 0.691406 -33.84375 0.65625 -34.148438 0.65625 -34.484375 C 0.65625 -35.347656 0.910156 -36.09375 1.421875 -36.71875 C 1.929688 -37.351562 2.554688 -37.671875 3.296875 -37.671875 C 3.890625 -37.671875 4.425781 -37.398438 4.90625 -36.859375 C 5.394531 -36.316406 5.710938 -35.664062 5.859375 -34.90625 L 12.78125 -10.34375 Z M 21.4375 -36.390625 "/></g></g></g><g fill="#000000" fill-opacity="1"><g transform="translate(88.128776, 199.9528)"><g><path d="M 15.34375 -28.796875 C 17.644531 -28.796875 19.785156 -28.21875 21.765625 -27.0625 C 23.742188 -25.914062 25.320312 -24.34375 26.5 -22.34375 C 27.675781 -20.351562 28.265625 -18.1875 28.265625 -15.84375 C 28.265625 -15.332031 28.238281 -14.832031 28.1875 -14.34375 C 28.113281 -13.695312 27.816406 -13.148438 27.296875 -12.703125 C 26.785156 -12.253906 26.203125 -12.03125 25.546875 -12.03125 L 7.125 -12 C 7.59375 -10.007812 8.628906 -8.296875 10.234375 -6.859375 C 11.847656 -5.429688 13.675781 -4.71875 15.71875 -4.71875 C 17.132812 -4.71875 18.445312 -5.0625 19.65625 -5.75 C 20.875 -6.445312 21.847656 -7.328125 22.578125 -8.390625 C 22.785156 -8.722656 23.097656 -9.003906 23.515625 -9.234375 C 23.941406 -9.460938 24.359375 -9.578125 24.765625 -9.578125 C 25.484375 -9.578125 26.097656 -9.3125 26.609375 -8.78125 C 27.128906 -8.25 27.390625 -7.625 27.390625 -6.90625 C 27.390625 -6.34375 27.234375 -5.84375 26.921875 -5.40625 C 25.742188 -3.6875 24.1875 -2.269531 22.25 -1.15625 C 20.320312 -0.0507812 18.171875 0.5 15.796875 0.5 C 13.160156 0.5 10.75 -0.179688 8.5625 -1.546875 C 6.375 -2.910156 4.660156 -4.722656 3.421875 -6.984375 C 2.191406 -9.253906 1.578125 -11.695312 1.578125 -14.3125 C 1.578125 -16.84375 2.179688 -19.21875 3.390625 -21.4375 C 4.609375 -23.65625 6.28125 -25.4375 8.40625 -26.78125 C 10.539062 -28.125 12.851562 -28.796875 15.34375 -28.796875 Z M 22.828125 -17.296875 C 22.484375 -19.054688 21.609375 -20.53125 20.203125 -21.71875 C 18.804688 -22.914062 17.1875 -23.515625 15.34375 -23.515625 C 13.5 -23.515625 11.828125 -22.90625 10.328125 -21.6875 C 8.835938 -20.476562 7.828125 -19.003906 7.296875 -17.265625 Z M 22.828125 -17.296875 "/></g></g></g><g fill="#000000" fill-opacity="1"><g transform="translate(117.943597, 199.9528)"><g><path d="M 1.3125 -14.1875 C 1.3125 -16.207031 1.6875 -18.15625 2.4375 -20.03125 C 3.1875 -21.914062 4.273438 -23.5625 5.703125 -24.96875 C 6.984375 -26.21875 8.457031 -27.1875 10.125 -27.875 C 11.789062 -28.5625 13.519531 -28.90625 15.3125 -28.90625 C 18.65625 -28.90625 21.554688 -27.46875 24.015625 -24.59375 L 24.015625 -35.703125 C 24.015625 -36.421875 24.273438 -37.039062 24.796875 -37.5625 C 25.316406 -38.082031 25.9375 -38.34375 26.65625 -38.34375 C 27.375 -38.34375 27.992188 -38.082031 28.515625 -37.5625 C 29.035156 -37.039062 29.296875 -36.421875 29.296875 -35.703125 L 29.296875 -2.03125 C 29.296875 -1.3125 29.035156 -0.691406 28.515625 -0.171875 C 27.992188 0.347656 27.375 0.609375 26.65625 0.609375 C 25.375 0.609375 24.601562 -0.269531 24.34375 -2.03125 L 24.015625 -4.171875 C 23.035156 -2.765625 21.726562 -1.640625 20.09375 -0.796875 C 18.457031 0.046875 16.804688 0.46875 15.140625 0.46875 C 12.554688 0.46875 10.195312 -0.207031 8.0625 -1.5625 C 5.9375 -2.925781 4.28125 -4.722656 3.09375 -6.953125 C 1.90625 -9.191406 1.3125 -11.601562 1.3125 -14.1875 Z M 15.078125 -4.796875 C 16.222656 -4.796875 17.359375 -5.046875 18.484375 -5.546875 C 19.609375 -6.046875 20.566406 -6.738281 21.359375 -7.625 C 22.148438 -8.476562 22.757812 -9.5 23.1875 -10.6875 C 23.625 -11.875 23.84375 -13.082031 23.84375 -14.3125 C 23.84375 -16.894531 23.023438 -19.101562 21.390625 -20.9375 C 19.753906 -22.78125 17.695312 -23.703125 15.21875 -23.703125 C 12.789062 -23.703125 10.738281 -22.742188 9.0625 -20.828125 C 7.394531 -18.910156 6.5625 -16.695312 6.5625 -14.1875 C 6.5625 -11.675781 7.382812 -9.484375 9.03125 -7.609375 C 10.675781 -5.734375 12.691406 -4.796875 15.078125 -4.796875 Z M 15.078125 -4.796875 "/></g></g></g><g fill="#000000" fill-opacity="1"><g transform="translate(149.867336, 199.9528)"><g><path d="M 7.78125 -24.703125 C 8.582031 -25.492188 9.304688 -26.144531 9.953125 -26.65625 C 10.597656 -27.164062 11.460938 -27.65625 12.546875 -28.125 C 13.640625 -28.601562 14.734375 -28.84375 15.828125 -28.84375 C 17.984375 -28.84375 19.84375 -28.269531 21.40625 -27.125 C 22.96875 -25.988281 24.144531 -24.53125 24.9375 -22.75 C 25.726562 -20.957031 26.125 -18.507812 26.125 -15.40625 L 26.125 -2.078125 C 26.125 -1.359375 25.863281 -0.738281 25.34375 -0.21875 C 24.832031 0.289062 24.210938 0.546875 23.484375 0.546875 C 22.765625 0.546875 22.144531 0.289062 21.625 -0.21875 C 21.113281 -0.738281 20.859375 -1.359375 20.859375 -2.078125 L 20.859375 -15.40625 C 20.859375 -17.769531 20.613281 -19.5 20.125 -20.59375 C 19.726562 -21.457031 19.171875 -22.171875 18.453125 -22.734375 C 17.734375 -23.296875 16.875 -23.578125 15.875 -23.578125 C 13.3125 -23.578125 11.320312 -22.59375 9.90625 -20.625 C 8.488281 -18.65625 7.789062 -15.960938 7.8125 -12.546875 L 7.828125 -2.03125 C 7.828125 -1.3125 7.566406 -0.691406 7.046875 -0.171875 C 6.535156 0.347656 5.914062 0.609375 5.1875 0.609375 C 4.457031 0.609375 3.835938 0.347656 3.328125 -0.171875 C 2.816406 -0.691406 2.5625 -1.320312 2.5625 -2.0625 L 2.5 -26.28125 C 2.5 -27.039062 2.703125 -27.671875 3.109375 -28.171875 C 3.515625 -28.671875 4.066406 -28.921875 4.765625 -28.921875 C 5.984375 -28.921875 6.835938 -28.039062 7.328125 -26.28125 Z M 7.78125 -24.703125 "/></g></g></g><g fill="#000000" fill-opacity="1"><g transform="translate(178.495885, 199.9528)"><g><path d="M 15.34375 -28.796875 C 17.644531 -28.796875 19.785156 -28.21875 21.765625 -27.0625 C 23.742188 -25.914062 25.320312 -24.34375 26.5 -22.34375 C 27.675781 -20.351562 28.265625 -18.1875 28.265625 -15.84375 C 28.265625 -15.332031 28.238281 -14.832031 28.1875 -14.34375 C 28.113281 -13.695312 27.816406 -13.148438 27.296875 -12.703125 C 26.785156 -12.253906 26.203125 -12.03125 25.546875 -12.03125 L 7.125 -12 C 7.59375 -10.007812 8.628906 -8.296875 10.234375 -6.859375 C 11.847656 -5.429688 13.675781 -4.71875 15.71875 -4.71875 C 17.132812 -4.71875 18.445312 -5.0625 19.65625 -5.75 C 20.875 -6.445312 21.847656 -7.328125 22.578125 -8.390625 C 22.785156 -8.722656 23.097656 -9.003906 23.515625 -9.234375 C 23.941406 -9.460938 24.359375 -9.578125 24.765625 -9.578125 C 25.484375 -9.578125 26.097656 -9.3125 26.609375 -8.78125 C 27.128906 -8.25 27.390625 -7.625 27.390625 -6.90625 C 27.390625 -6.34375 27.234375 -5.84375 26.921875 -5.40625 C 25.742188 -3.6875 24.1875 -2.269531 22.25 -1.15625 C 20.320312 -0.0507812 18.171875 0.5 15.796875 0.5 C 13.160156 0.5 10.75 -0.179688 8.5625 -1.546875 C 6.375 -2.910156 4.660156 -4.722656 3.421875 -6.984375 C 2.191406 -9.253906 1.578125 -11.695312 1.578125 -14.3125 C 1.578125 -16.84375 2.179688 -19.21875 3.390625 -21.4375 C 4.609375 -23.65625 6.28125 -25.4375 8.40625 -26.78125 C 10.539062 -28.125 12.851562 -28.796875 15.34375 -28.796875 Z M 22.828125 -17.296875 C 22.484375 -19.054688 21.609375 -20.53125 20.203125 -21.71875 C 18.804688 -22.914062 17.1875 -23.515625 15.34375 -23.515625 C 13.5 -23.515625 11.828125 -22.90625 10.328125 -21.6875 C 8.835938 -20.476562 7.828125 -19.003906 7.296875 -17.265625 Z M 22.828125 -17.296875 "/></g></g></g><g fill="#000000" fill-opacity="1"><g transform="translate(208.310707, 199.9528)"><g><path d="M 15.875 -28.921875 C 18.375 -28.921875 20.648438 -28.367188 22.703125 -27.265625 C 24.753906 -26.171875 26.273438 -24.691406 27.265625 -22.828125 C 27.472656 -22.460938 27.578125 -22.039062 27.578125 -21.5625 C 27.578125 -20.84375 27.316406 -20.222656 26.796875 -19.703125 C 26.285156 -19.191406 25.664062 -18.9375 24.9375 -18.9375 C 24.5 -18.9375 24.046875 -19.078125 23.578125 -19.359375 C 23.117188 -19.640625 22.789062 -19.976562 22.59375 -20.375 C 21.414062 -22.5625 19.164062 -23.65625 15.84375 -23.65625 C 15.09375 -23.65625 14.300781 -23.582031 13.46875 -23.4375 C 12.644531 -23.300781 11.835938 -23.09375 11.046875 -22.8125 C 10.253906 -22.53125 9.601562 -22.132812 9.09375 -21.625 C 8.582031 -21.113281 8.328125 -20.53125 8.328125 -19.875 C 8.328125 -19.507812 8.445312 -19.171875 8.6875 -18.859375 C 8.925781 -18.554688 9.28125 -18.296875 9.75 -18.078125 C 10.226562 -17.867188 10.703125 -17.691406 11.171875 -17.546875 C 11.648438 -17.398438 12.242188 -17.269531 12.953125 -17.15625 C 13.671875 -17.050781 14.253906 -16.972656 14.703125 -16.921875 C 15.148438 -16.867188 15.722656 -16.8125 16.421875 -16.75 C 17.128906 -16.695312 17.578125 -16.660156 17.765625 -16.640625 C 18.941406 -16.515625 19.988281 -16.359375 20.90625 -16.171875 C 21.820312 -15.992188 22.78125 -15.707031 23.78125 -15.3125 C 24.78125 -14.925781 25.609375 -14.460938 26.265625 -13.921875 C 26.929688 -13.378906 27.476562 -12.660156 27.90625 -11.765625 C 28.34375 -10.878906 28.5625 -9.867188 28.5625 -8.734375 C 28.5625 -7.492188 28.320312 -6.351562 27.84375 -5.3125 C 27.363281 -4.28125 26.722656 -3.410156 25.921875 -2.703125 C 25.128906 -2.003906 24.191406 -1.414062 23.109375 -0.9375 C 22.023438 -0.457031 20.882812 -0.101562 19.6875 0.125 C 18.5 0.351562 17.265625 0.46875 15.984375 0.46875 C 13.066406 0.46875 10.4375 -0.109375 8.09375 -1.265625 C 5.757812 -2.421875 4.046875 -4.066406 2.953125 -6.203125 C 2.742188 -6.617188 2.640625 -7.03125 2.640625 -7.4375 C 2.640625 -8.15625 2.894531 -8.773438 3.40625 -9.296875 C 3.925781 -9.816406 4.550781 -10.078125 5.28125 -10.078125 C 5.726562 -10.078125 6.1875 -9.929688 6.65625 -9.640625 C 7.125 -9.347656 7.453125 -9 7.640625 -8.59375 C 8.941406 -6.0625 11.710938 -4.796875 15.953125 -4.796875 C 16.796875 -4.796875 17.617188 -4.863281 18.421875 -5 C 19.234375 -5.144531 20.015625 -5.359375 20.765625 -5.640625 C 21.523438 -5.921875 22.132812 -6.328125 22.59375 -6.859375 C 23.050781 -7.398438 23.28125 -8.03125 23.28125 -8.75 C 23.28125 -9.070312 23.21875 -9.359375 23.09375 -9.609375 C 22.96875 -9.867188 22.757812 -10.082031 22.46875 -10.25 C 22.1875 -10.414062 21.925781 -10.554688 21.6875 -10.671875 C 21.445312 -10.796875 21.082031 -10.894531 20.59375 -10.96875 C 20.101562 -11.050781 19.742188 -11.109375 19.515625 -11.140625 C 19.285156 -11.179688 18.878906 -11.226562 18.296875 -11.28125 C 17.710938 -11.332031 17.351562 -11.367188 17.21875 -11.390625 C 13.5625 -11.773438 10.929688 -12.210938 9.328125 -12.703125 C 5.617188 -13.816406 3.554688 -15.804688 3.140625 -18.671875 C 3.085938 -19.054688 3.0625 -19.457031 3.0625 -19.875 C 3.0625 -21.394531 3.445312 -22.753906 4.21875 -23.953125 C 4.988281 -25.160156 6.003906 -26.109375 7.265625 -26.796875 C 8.523438 -27.492188 9.882812 -28.019531 11.34375 -28.375 C 12.8125 -28.738281 14.320312 -28.921875 15.875 -28.921875 Z M 15.875 -28.921875 "/></g></g></g><g fill="#000000" fill-opacity="1"><g transform="translate(239.496313, 199.9528)"><g><path d="M 1.3125 -14.1875 C 1.3125 -16.207031 1.6875 -18.15625 2.4375 -20.03125 C 3.1875 -21.914062 4.273438 -23.5625 5.703125 -24.96875 C 6.984375 -26.21875 8.457031 -27.1875 10.125 -27.875 C 11.789062 -28.5625 13.519531 -28.90625 15.3125 -28.90625 C 18.65625 -28.90625 21.554688 -27.46875 24.015625 -24.59375 L 24.015625 -35.703125 C 24.015625 -36.421875 24.273438 -37.039062 24.796875 -37.5625 C 25.316406 -38.082031 25.9375 -38.34375 26.65625 -38.34375 C 27.375 -38.34375 27.992188 -38.082031 28.515625 -37.5625 C 29.035156 -37.039062 29.296875 -36.421875 29.296875 -35.703125 L 29.296875 -2.03125 C 29.296875 -1.3125 29.035156 -0.691406 28.515625 -0.171875 C 27.992188 0.347656 27.375 0.609375 26.65625 0.609375 C 25.375 0.609375 24.601562 -0.269531 24.34375 -2.03125 L 24.015625 -4.171875 C 23.035156 -2.765625 21.726562 -1.640625 20.09375 -0.796875 C 18.457031 0.046875 16.804688 0.46875 15.140625 0.46875 C 12.554688 0.46875 10.195312 -0.207031 8.0625 -1.5625 C 5.9375 -2.925781 4.28125 -4.722656 3.09375 -6.953125 C 1.90625 -9.191406 1.3125 -11.601562 1.3125 -14.1875 Z M 15.078125 -4.796875 C 16.222656 -4.796875 17.359375 -5.046875 18.484375 -5.546875 C 19.609375 -6.046875 20.566406 -6.738281 21.359375 -7.625 C 22.148438 -8.476562 22.757812 -9.5 23.1875 -10.6875 C 23.625 -11.875 23.84375 -13.082031 23.84375 -14.3125 C 23.84375 -16.894531 23.023438 -19.101562 21.390625 -20.9375 C 19.753906 -22.78125 17.695312 -23.703125 15.21875 -23.703125 C 12.789062 -23.703125 10.738281 -22.742188 9.0625 -20.828125 C 7.394531 -18.910156 6.5625 -16.695312 6.5625 -14.1875 C 6.5625 -11.675781 7.382812 -9.484375 9.03125 -7.609375 C 10.675781 -5.734375 12.691406 -4.796875 15.078125 -4.796875 Z M 15.078125 -4.796875 "/></g></g></g><g fill="#000000" fill-opacity="1"><g transform="translate(271.420062, 199.9528)"><g><path d="M 16.421875 -29 C 18.273438 -29 20.097656 -28.472656 21.890625 -27.421875 C 23.691406 -26.367188 24.972656 -25.179688 25.734375 -23.859375 L 26.03125 -26.390625 C 26.03125 -27.128906 26.242188 -27.753906 26.671875 -28.265625 C 27.097656 -28.773438 27.664062 -29.03125 28.375 -29.03125 C 29.09375 -29.03125 29.710938 -28.769531 30.234375 -28.25 C 30.753906 -27.726562 31.015625 -27.109375 31.015625 -26.390625 L 31.015625 -26.34375 L 30.953125 -1.921875 C 30.953125 -1.203125 30.691406 -0.582031 30.171875 -0.0625 C 29.660156 0.457031 29.039062 0.71875 28.3125 0.71875 C 27.613281 0.71875 27.046875 0.460938 26.609375 -0.046875 C 26.179688 -0.554688 25.96875 -1.179688 25.96875 -1.921875 L 25.6875 -4.03125 C 24.800781 -2.539062 23.5 -1.394531 21.78125 -0.59375 C 20.0625 0.207031 18.257812 0.609375 16.375 0.609375 C 13.769531 0.609375 11.359375 -0.0664062 9.140625 -1.421875 C 6.929688 -2.773438 5.1875 -4.582031 3.90625 -6.84375 C 2.625 -9.101562 1.984375 -11.535156 1.984375 -14.140625 C 1.984375 -16.722656 2.601562 -19.148438 3.84375 -21.421875 C 5.09375 -23.703125 6.835938 -25.535156 9.078125 -26.921875 C 11.328125 -28.304688 13.773438 -29 16.421875 -29 Z M 25.53125 -14.1875 C 25.53125 -16.789062 24.648438 -19.03125 22.890625 -20.90625 C 21.128906 -22.789062 18.957031 -23.734375 16.375 -23.734375 C 13.820312 -23.734375 11.65625 -22.785156 9.875 -20.890625 C 8.09375 -19.003906 7.203125 -16.78125 7.203125 -14.21875 C 7.203125 -11.632812 8.101562 -9.394531 9.90625 -7.5 C 11.707031 -5.613281 13.875 -4.671875 16.40625 -4.671875 C 18.914062 -4.671875 21.0625 -5.613281 22.84375 -7.5 C 24.632812 -9.394531 25.53125 -11.625 25.53125 -14.1875 Z M 25.53125 -14.1875 "/></g></g></g><g fill="#000000" fill-opacity="1"><g transform="translate(305.05729, 199.9528)"><g><path d="M 3.296875 -29.03125 C 3.804688 -29.03125 4.285156 -28.878906 4.734375 -28.578125 C 5.179688 -28.285156 5.503906 -27.914062 5.703125 -27.46875 L 14.65625 -7.09375 L 22.328125 -27.296875 C 22.523438 -27.765625 22.851562 -28.15625 23.3125 -28.46875 C 23.769531 -28.789062 24.257812 -28.953125 24.78125 -28.953125 C 25.5 -28.953125 26.117188 -28.691406 26.640625 -28.171875 C 27.160156 -27.648438 27.421875 -27.03125 27.421875 -26.3125 C 27.421875 -25.945312 27.351562 -25.601562 27.21875 -25.28125 L 17.515625 0.03125 C 17.453125 0.34375 17.300781 0.703125 17.0625 1.109375 L 15.578125 4.796875 C 15.265625 5.609375 14.988281 6.269531 14.75 6.78125 C 14.507812 7.289062 14.15625 7.914062 13.6875 8.65625 C 13.226562 9.40625 12.71875 10.0625 12.15625 10.625 C 11.257812 11.570312 10.1875 12.335938 8.9375 12.921875 C 7.6875 13.515625 6.410156 13.8125 5.109375 13.8125 C 4.378906 13.8125 3.757812 13.546875 3.25 13.015625 C 2.738281 12.492188 2.484375 11.863281 2.484375 11.125 C 2.484375 10.425781 2.722656 9.816406 3.203125 9.296875 C 3.679688 8.773438 4.265625 8.503906 4.953125 8.484375 C 6.359375 8.398438 7.488281 7.867188 8.34375 6.890625 C 9.195312 5.921875 9.984375 4.554688 10.703125 2.796875 L 11.96875 -0.421875 L 0.890625 -25.265625 C 0.734375 -25.628906 0.65625 -26.003906 0.65625 -26.390625 C 0.65625 -27.109375 0.914062 -27.726562 1.4375 -28.25 C 1.957031 -28.769531 2.578125 -29.03125 3.296875 -29.03125 Z M 3.296875 -29.03125 "/></g></g></g><g fill="#000000" fill-opacity="1"><g transform="translate(131.591502, 84.511751)"><g><path d="M 5.109375 -0.59375 C 4.710938 -0.195312 4.234375 0 3.671875 0 C 3.109375 0 2.625 -0.195312 2.21875 -0.59375 C 1.820312 -1 1.625 -1.484375 1.625 -2.046875 L 1.5625 -27.5 C 1.539062 -27.625 1.53125 -27.75 1.53125 -27.875 C 1.53125 -28.132812 1.679688 -28.503906 1.984375 -28.984375 C 2.316406 -29.515625 2.789062 -29.78125 3.40625 -29.78125 C 4.382812 -29.78125 5.0625 -29.394531 5.4375 -28.625 L 16.40625 -10.71875 L 26.5625 -28.65625 C 26.96875 -29.332031 27.519531 -29.671875 28.21875 -29.671875 C 28.820312 -29.671875 29.335938 -29.472656 29.765625 -29.078125 C 30.191406 -28.691406 30.40625 -28.207031 30.40625 -27.625 L 30.40625 -1.96875 C 30.40625 -1.40625 30.203125 -0.921875 29.796875 -0.515625 C 29.398438 -0.117188 28.921875 0.078125 28.359375 0.078125 C 27.796875 0.078125 27.3125 -0.117188 26.90625 -0.515625 C 26.507812 -0.921875 26.3125 -1.40625 26.3125 -1.96875 L 26.3125 -20.296875 L 18.25 -5.65625 C 18.070312 -5.382812 17.828125 -5.140625 17.515625 -4.921875 C 17.203125 -4.710938 16.875 -4.609375 16.53125 -4.609375 C 15.738281 -4.609375 15.128906 -4.9375 14.703125 -5.59375 L 5.65625 -20.390625 L 5.71875 -2.078125 L 5.71875 -2.046875 C 5.71875 -1.484375 5.515625 -1 5.109375 -0.59375 Z M 5.109375 -0.59375 "/></g></g></g><g fill="#000000" fill-opacity="1"><g transform="translate(201.776036, 84.511751)"><g><path d="M 1.109375 -25.84375 C 0.710938 -26.25 0.515625 -26.734375 0.515625 -27.296875 C 0.515625 -27.859375 0.710938 -28.335938 1.109375 -28.734375 C 1.515625 -29.140625 2 -29.34375 2.5625 -29.34375 L 2.578125 -29.34375 L 23.078125 -29.46875 L 23.109375 -29.46875 C 23.671875 -29.46875 24.148438 -29.265625 24.546875 -28.859375 C 24.953125 -28.460938 25.15625 -27.984375 25.15625 -27.421875 C 25.15625 -26.859375 24.953125 -26.375 24.546875 -25.96875 C 24.148438 -25.570312 23.671875 -25.375 23.109375 -25.375 L 23.09375 -25.375 L 14.9375 -25.328125 L 14.828125 -1.78125 L 14.828125 -1.765625 C 14.828125 -1.210938 14.625 -0.738281 14.21875 -0.34375 C 13.820312 0.0507812 13.34375 0.25 12.78125 0.25 C 12.21875 0.25 11.734375 0.0507812 11.328125 -0.34375 C 10.921875 -0.738281 10.71875 -1.210938 10.71875 -1.765625 L 10.71875 -1.8125 L 10.828125 -25.3125 L 2.578125 -25.25 L 2.5625 -25.25 C 2 -25.25 1.515625 -25.445312 1.109375 -25.84375 Z M 1.109375 -25.84375 "/></g></g><g transform="translate(227.431307, 84.511751)"><g><path d="M 16.25 -2.765625 C 15.613281 -2.148438 15.046875 -1.644531 14.546875 -1.25 C 14.054688 -0.851562 13.382812 -0.46875 12.53125 -0.09375 C 11.6875 0.269531 10.835938 0.453125 9.984375 0.453125 C 8.304688 0.453125 6.859375 0.0078125 5.640625 -0.875 C 4.421875 -1.769531 3.503906 -2.90625 2.890625 -4.28125 C 2.273438 -5.675781 1.96875 -7.582031 1.96875 -10 L 1.96875 -20.359375 C 1.96875 -20.921875 2.171875 -21.40625 2.578125 -21.8125 C 2.984375 -22.21875 3.460938 -22.421875 4.015625 -22.421875 C 4.578125 -22.421875 5.0625 -22.21875 5.46875 -21.8125 C 5.875 -21.40625 6.078125 -20.921875 6.078125 -20.359375 L 6.078125 -10 C 6.078125 -8.15625 6.269531 -6.8125 6.65625 -5.96875 C 6.945312 -5.300781 7.375 -4.75 7.9375 -4.3125 C 8.5 -3.875 9.171875 -3.65625 9.953125 -3.65625 C 11.941406 -3.65625 13.488281 -4.421875 14.59375 -5.953125 C 15.695312 -7.484375 16.238281 -9.570312 16.21875 -12.21875 L 16.203125 -20.40625 C 16.203125 -20.96875 16.40625 -21.445312 16.8125 -21.84375 C 17.21875 -22.25 17.695312 -22.453125 18.25 -22.453125 C 18.832031 -22.453125 19.320312 -22.25 19.71875 -21.84375 C 20.113281 -21.445312 20.3125 -20.960938 20.3125 -20.390625 L 20.34375 -1.53125 C 20.34375 -0.945312 20.1875 -0.457031 19.875 -0.0625 C 19.5625 0.320312 19.128906 0.515625 18.578125 0.515625 C 17.640625 0.515625 16.976562 -0.164062 16.59375 -1.53125 Z M 16.25 -2.765625 "/></g></g></g><g fill="#000000" fill-opacity="1"><g transform="translate(43.863982, 312.768963)"><g><path d="M 1.109375 -25.84375 C 0.710938 -26.25 0.515625 -26.734375 0.515625 -27.296875 C 0.515625 -27.859375 0.710938 -28.335938 1.109375 -28.734375 C 1.515625 -29.140625 2 -29.34375 2.5625 -29.34375 L 2.578125 -29.34375 L 23.078125 -29.46875 L 23.109375 -29.46875 C 23.671875 -29.46875 24.148438 -29.265625 24.546875 -28.859375 C 24.953125 -28.460938 25.15625 -27.984375 25.15625 -27.421875 C 25.15625 -26.859375 24.953125 -26.375 24.546875 -25.96875 C 24.148438 -25.570312 23.671875 -25.375 23.109375 -25.375 L 23.09375 -25.375 L 14.9375 -25.328125 L 14.828125 -1.78125 L 14.828125 -1.765625 C 14.828125 -1.210938 14.625 -0.738281 14.21875 -0.34375 C 13.820312 0.0507812 13.34375 0.25 12.78125 0.25 C 12.21875 0.25 11.734375 0.0507812 11.328125 -0.34375 C 10.921875 -0.738281 10.71875 -1.210938 10.71875 -1.765625 L 10.71875 -1.8125 L 10.828125 -25.3125 L 2.578125 -25.25 L 2.5625 -25.25 C 2 -25.25 1.515625 -25.445312 1.109375 -25.84375 Z M 1.109375 -25.84375 "/></g></g><g transform="translate(69.519254, 312.768963)"><g><path d="M 1.953125 -27.9375 C 1.953125 -28.476562 2.148438 -28.941406 2.546875 -29.328125 C 2.941406 -29.722656 3.425781 -29.921875 4 -29.921875 C 4.5625 -29.921875 5.039062 -29.722656 5.4375 -29.328125 C 5.84375 -28.941406 6.046875 -28.476562 6.046875 -27.9375 L 6.046875 -18.984375 C 6.554688 -20.054688 7.296875 -20.898438 8.265625 -21.515625 C 9.242188 -22.128906 10.226562 -22.4375 11.21875 -22.4375 C 14.320312 -22.4375 16.632812 -21.507812 18.15625 -19.65625 C 19.6875 -17.800781 20.453125 -15.273438 20.453125 -12.078125 L 20.453125 -11.890625 L 20.421875 -1.53125 L 20.421875 -1.515625 C 20.421875 -0.972656 20.21875 -0.503906 19.8125 -0.109375 C 19.414062 0.273438 18.9375 0.46875 18.375 0.46875 C 17.8125 0.46875 17.328125 0.273438 16.921875 -0.109375 C 16.523438 -0.503906 16.328125 -0.972656 16.328125 -1.515625 L 16.328125 -1.53125 L 16.34375 -11.796875 L 16.34375 -11.828125 C 16.34375 -14.054688 15.96875 -15.691406 15.21875 -16.734375 C 14.476562 -17.785156 13.144531 -18.3125 11.21875 -18.3125 C 9.550781 -18.3125 8.28125 -17.726562 7.40625 -16.5625 C 6.53125 -15.40625 6.09375 -13.863281 6.09375 -11.9375 L 6.09375 -1.5 C 6.09375 -0.945312 5.890625 -0.472656 5.484375 -0.078125 C 5.078125 0.304688 4.597656 0.5 4.046875 0.5 C 3.453125 0.5 2.953125 0.300781 2.546875 -0.09375 C 2.148438 -0.5 1.953125 -0.96875 1.953125 -1.5 Z M 1.953125 -27.9375 "/></g></g></g><g fill="#000000" fill-opacity="1"><g transform="translate(137.251701, 313.729199)"><g><path d="M 1.53125 -27.40625 C 1.53125 -27.945312 1.734375 -28.414062 2.140625 -28.8125 C 2.546875 -29.207031 3.03125 -29.40625 3.59375 -29.40625 L 20.296875 -29.421875 L 20.328125 -29.421875 C 20.890625 -29.421875 21.367188 -29.21875 21.765625 -28.8125 C 22.171875 -28.414062 22.375 -27.9375 22.375 -27.375 C 22.375 -26.8125 22.171875 -26.328125 21.765625 -25.921875 C 21.367188 -25.523438 20.890625 -25.328125 20.328125 -25.328125 L 20.296875 -25.328125 L 5.640625 -25.3125 L 5.65625 -17.84375 L 16.34375 -17.9375 L 16.578125 -17.9375 C 17.078125 -17.9375 17.507812 -17.726562 17.875 -17.3125 C 18.238281 -16.894531 18.421875 -16.460938 18.421875 -16.015625 C 18.421875 -15.410156 18.226562 -14.894531 17.84375 -14.46875 C 17.457031 -14.050781 16.960938 -13.84375 16.359375 -13.84375 L 5.6875 -13.734375 L 5.703125 -1.8125 L 5.703125 -1.765625 C 5.703125 -1.210938 5.5 -0.738281 5.09375 -0.34375 C 4.6875 0.0507812 4.203125 0.25 3.640625 0.25 C 3.085938 0.25 2.609375 0.0507812 2.203125 -0.34375 C 1.796875 -0.738281 1.59375 -1.210938 1.59375 -1.765625 L 1.59375 -1.78125 Z M 1.53125 -27.40625 "/></g></g></g><g fill="#000000" fill-opacity="1"><g transform="translate(199.549665, 312.768963)"><g><path d="M 14.03125 -29.796875 C 16.363281 -29.796875 18.5 -29.210938 20.4375 -28.046875 C 22.375 -26.890625 23.75 -25.375 24.5625 -23.5 C 24.6875 -23.226562 24.75 -22.945312 24.75 -22.65625 C 24.75 -22.101562 24.546875 -21.625 24.140625 -21.21875 C 23.742188 -20.8125 23.265625 -20.609375 22.703125 -20.609375 C 22.335938 -20.609375 21.960938 -20.726562 21.578125 -20.96875 C 21.203125 -21.207031 20.945312 -21.5 20.8125 -21.84375 C 20.289062 -23.03125 19.425781 -23.96875 18.21875 -24.65625 C 17.007812 -25.351562 15.613281 -25.703125 14.03125 -25.703125 C 13.21875 -25.703125 12.382812 -25.601562 11.53125 -25.40625 C 10.675781 -25.207031 9.867188 -24.914062 9.109375 -24.53125 C 8.359375 -24.15625 7.738281 -23.660156 7.25 -23.046875 C 6.757812 -22.429688 6.515625 -21.753906 6.515625 -21.015625 C 6.515625 -20.429688 6.707031 -19.90625 7.09375 -19.4375 C 7.476562 -18.976562 7.953125 -18.601562 8.515625 -18.3125 C 9.515625 -17.8125 10.773438 -17.421875 12.296875 -17.140625 C 13.816406 -16.867188 15.375 -16.597656 16.96875 -16.328125 C 18.570312 -16.066406 19.898438 -15.710938 20.953125 -15.265625 C 22.335938 -14.660156 23.488281 -13.800781 24.40625 -12.6875 C 25.320312 -11.570312 25.78125 -10.210938 25.78125 -8.609375 C 25.78125 -7.453125 25.535156 -6.367188 25.046875 -5.359375 C 24.566406 -4.359375 23.925781 -3.507812 23.125 -2.8125 C 22.332031 -2.113281 21.421875 -1.515625 20.390625 -1.015625 C 19.359375 -0.515625 18.300781 -0.148438 17.21875 0.078125 C 16.132812 0.316406 15.054688 0.4375 13.984375 0.4375 C 11.304688 0.4375 8.90625 -0.191406 6.78125 -1.453125 C 4.664062 -2.710938 3.148438 -4.398438 2.234375 -6.515625 C 2.109375 -6.796875 2.046875 -7.070312 2.046875 -7.34375 C 2.046875 -7.90625 2.25 -8.382812 2.65625 -8.78125 C 3.0625 -9.1875 3.546875 -9.390625 4.109375 -9.390625 C 4.484375 -9.390625 4.851562 -9.265625 5.21875 -9.015625 C 5.59375 -8.773438 5.847656 -8.484375 5.984375 -8.140625 C 6.578125 -6.765625 7.59375 -5.675781 9.03125 -4.875 C 10.476562 -4.070312 12.128906 -3.671875 13.984375 -3.671875 C 15.210938 -3.671875 16.390625 -3.835938 17.515625 -4.171875 C 18.648438 -4.503906 19.625 -5.0625 20.4375 -5.84375 C 21.25 -6.625 21.65625 -7.546875 21.65625 -8.609375 C 21.65625 -9.265625 21.429688 -9.832031 20.984375 -10.3125 C 20.546875 -10.800781 20 -11.191406 19.34375 -11.484375 C 18.269531 -11.929688 16.929688 -12.289062 15.328125 -12.5625 C 13.734375 -12.832031 12.160156 -13.109375 10.609375 -13.390625 C 9.054688 -13.679688 7.742188 -14.097656 6.671875 -14.640625 C 5.429688 -15.253906 4.410156 -16.09375 3.609375 -17.15625 C 2.804688 -18.226562 2.40625 -19.515625 2.40625 -21.015625 C 2.40625 -22.109375 2.632812 -23.132812 3.09375 -24.09375 C 3.550781 -25.0625 4.164062 -25.890625 4.9375 -26.578125 C 5.707031 -27.265625 6.59375 -27.851562 7.59375 -28.34375 C 8.601562 -28.832031 9.65625 -29.195312 10.75 -29.4375 C 11.84375 -29.675781 12.9375 -29.796875 14.03125 -29.796875 Z M 14.03125 -29.796875 "/></g></g><g transform="translate(227.378765, 312.768963)"><g><path d="M 12.78125 -22.5625 C 14.21875 -22.5625 15.632812 -22.148438 17.03125 -21.328125 C 18.4375 -20.503906 19.429688 -19.582031 20.015625 -18.5625 L 20.234375 -20.53125 C 20.234375 -21.101562 20.398438 -21.585938 20.734375 -21.984375 C 21.078125 -22.378906 21.519531 -22.578125 22.0625 -22.578125 C 22.625 -22.578125 23.109375 -22.375 23.515625 -21.96875 C 23.921875 -21.570312 24.125 -21.09375 24.125 -20.53125 L 24.125 -20.484375 L 24.078125 -1.5 C 24.078125 -0.9375 23.875 -0.453125 23.46875 -0.046875 C 23.0625 0.347656 22.582031 0.546875 22.03125 0.546875 C 21.476562 0.546875 21.035156 0.347656 20.703125 -0.046875 C 20.367188 -0.441406 20.203125 -0.925781 20.203125 -1.5 L 19.96875 -3.140625 C 19.289062 -1.972656 18.28125 -1.078125 16.9375 -0.453125 C 15.601562 0.160156 14.203125 0.46875 12.734375 0.46875 C 10.710938 0.46875 8.835938 -0.0546875 7.109375 -1.109375 C 5.390625 -2.160156 4.03125 -3.5625 3.03125 -5.3125 C 2.03125 -7.070312 1.53125 -8.96875 1.53125 -11 C 1.53125 -13 2.015625 -14.882812 2.984375 -16.65625 C 3.960938 -18.425781 5.320312 -19.851562 7.0625 -20.9375 C 8.8125 -22.019531 10.71875 -22.5625 12.78125 -22.5625 Z M 19.859375 -11.03125 C 19.859375 -13.050781 19.171875 -14.789062 17.796875 -16.25 C 16.429688 -17.71875 14.742188 -18.453125 12.734375 -18.453125 C 10.753906 -18.453125 9.066406 -17.71875 7.671875 -16.25 C 6.285156 -14.78125 5.59375 -13.046875 5.59375 -11.046875 C 5.59375 -9.046875 6.289062 -7.304688 7.6875 -5.828125 C 9.09375 -4.359375 10.78125 -3.625 12.75 -3.625 C 14.707031 -3.625 16.378906 -4.359375 17.765625 -5.828125 C 19.160156 -7.304688 19.859375 -9.039062 19.859375 -11.03125 Z M 19.859375 -11.03125 "/></g></g></g><g fill="#000000" fill-opacity="1"><g transform="translate(281.020415, 312.768963)"><g><path d="M 14.03125 -29.796875 C 16.363281 -29.796875 18.5 -29.210938 20.4375 -28.046875 C 22.375 -26.890625 23.75 -25.375 24.5625 -23.5 C 24.6875 -23.226562 24.75 -22.945312 24.75 -22.65625 C 24.75 -22.101562 24.546875 -21.625 24.140625 -21.21875 C 23.742188 -20.8125 23.265625 -20.609375 22.703125 -20.609375 C 22.335938 -20.609375 21.960938 -20.726562 21.578125 -20.96875 C 21.203125 -21.207031 20.945312 -21.5 20.8125 -21.84375 C 20.289062 -23.03125 19.425781 -23.96875 18.21875 -24.65625 C 17.007812 -25.351562 15.613281 -25.703125 14.03125 -25.703125 C 13.21875 -25.703125 12.382812 -25.601562 11.53125 -25.40625 C 10.675781 -25.207031 9.867188 -24.914062 9.109375 -24.53125 C 8.359375 -24.15625 7.738281 -23.660156 7.25 -23.046875 C 6.757812 -22.429688 6.515625 -21.753906 6.515625 -21.015625 C 6.515625 -20.429688 6.707031 -19.90625 7.09375 -19.4375 C 7.476562 -18.976562 7.953125 -18.601562 8.515625 -18.3125 C 9.515625 -17.8125 10.773438 -17.421875 12.296875 -17.140625 C 13.816406 -16.867188 15.375 -16.597656 16.96875 -16.328125 C 18.570312 -16.066406 19.898438 -15.710938 20.953125 -15.265625 C 22.335938 -14.660156 23.488281 -13.800781 24.40625 -12.6875 C 25.320312 -11.570312 25.78125 -10.210938 25.78125 -8.609375 C 25.78125 -7.453125 25.535156 -6.367188 25.046875 -5.359375 C 24.566406 -4.359375 23.925781 -3.507812 23.125 -2.8125 C 22.332031 -2.113281 21.421875 -1.515625 20.390625 -1.015625 C 19.359375 -0.515625 18.300781 -0.148438 17.21875 0.078125 C 16.132812 0.316406 15.054688 0.4375 13.984375 0.4375 C 11.304688 0.4375 8.90625 -0.191406 6.78125 -1.453125 C 4.664062 -2.710938 3.148438 -4.398438 2.234375 -6.515625 C 2.109375 -6.796875 2.046875 -7.070312 2.046875 -7.34375 C 2.046875 -7.90625 2.25 -8.382812 2.65625 -8.78125 C 3.0625 -9.1875 3.546875 -9.390625 4.109375 -9.390625 C 4.484375 -9.390625 4.851562 -9.265625 5.21875 -9.015625 C 5.59375 -8.773438 5.847656 -8.484375 5.984375 -8.140625 C 6.578125 -6.765625 7.59375 -5.675781 9.03125 -4.875 C 10.476562 -4.070312 12.128906 -3.671875 13.984375 -3.671875 C 15.210938 -3.671875 16.390625 -3.835938 17.515625 -4.171875 C 18.648438 -4.503906 19.625 -5.0625 20.4375 -5.84375 C 21.25 -6.625 21.65625 -7.546875 21.65625 -8.609375 C 21.65625 -9.265625 21.429688 -9.832031 20.984375 -10.3125 C 20.546875 -10.800781 20 -11.191406 19.34375 -11.484375 C 18.269531 -11.929688 16.929688 -12.289062 15.328125 -12.5625 C 13.734375 -12.832031 12.160156 -13.109375 10.609375 -13.390625 C 9.054688 -13.679688 7.742188 -14.097656 6.671875 -14.640625 C 5.429688 -15.253906 4.410156 -16.09375 3.609375 -17.15625 C 2.804688 -18.226562 2.40625 -19.515625 2.40625 -21.015625 C 2.40625 -22.109375 2.632812 -23.132812 3.09375 -24.09375 C 3.550781 -25.0625 4.164062 -25.890625 4.9375 -26.578125 C 5.707031 -27.265625 6.59375 -27.851562 7.59375 -28.34375 C 8.601562 -28.832031 9.65625 -29.195312 10.75 -29.4375 C 11.84375 -29.675781 12.9375 -29.796875 14.03125 -29.796875 Z M 14.03125 -29.796875 "/></g></g><g transform="translate(308.849515, 312.768963)"><g><path d="M 16.25 -2.765625 C 15.613281 -2.148438 15.046875 -1.644531 14.546875 -1.25 C 14.054688 -0.851562 13.382812 -0.46875 12.53125 -0.09375 C 11.6875 0.269531 10.835938 0.453125 9.984375 0.453125 C 8.304688 0.453125 6.859375 0.0078125 5.640625 -0.875 C 4.421875 -1.769531 3.503906 -2.90625 2.890625 -4.28125 C 2.273438 -5.675781 1.96875 -7.582031 1.96875 -10 L 1.96875 -20.359375 C 1.96875 -20.921875 2.171875 -21.40625 2.578125 -21.8125 C 2.984375 -22.21875 3.460938 -22.421875 4.015625 -22.421875 C 4.578125 -22.421875 5.0625 -22.21875 5.46875 -21.8125 C 5.875 -21.40625 6.078125 -20.921875 6.078125 -20.359375 L 6.078125 -10 C 6.078125 -8.15625 6.269531 -6.8125 6.65625 -5.96875 C 6.945312 -5.300781 7.375 -4.75 7.9375 -4.3125 C 8.5 -3.875 9.171875 -3.65625 9.953125 -3.65625 C 11.941406 -3.65625 13.488281 -4.421875 14.59375 -5.953125 C 15.695312 -7.484375 16.238281 -9.570312 16.21875 -12.21875 L 16.203125 -20.40625 C 16.203125 -20.96875 16.40625 -21.445312 16.8125 -21.84375 C 17.21875 -22.25 17.695312 -22.453125 18.25 -22.453125 C 18.832031 -22.453125 19.320312 -22.25 19.71875 -21.84375 C 20.113281 -21.445312 20.3125 -20.960938 20.3125 -20.390625 L 20.34375 -1.53125 C 20.34375 -0.945312 20.1875 -0.457031 19.875 -0.0625 C 19.5625 0.320312 19.128906 0.515625 18.578125 0.515625 C 17.640625 0.515625 16.976562 -0.164062 16.59375 -1.53125 Z M 16.25 -2.765625 "/></g></g></g></svg>