<svg xmlns="http://www.w3.org/2000/svg" xmlns:xlink="http://www.w3.org/1999/xlink" width="1080" zoomAndPan="magnify" viewBox="0 0 810 809.999993" height="1080" preserveAspectRatio="xMidYMid meet" version="1.0"><defs><g/><clipPath id="cf46064194"><path d="M 51.394531 62.722656 L 758.605469 62.722656 L 758.605469 769.9375 L 51.394531 769.9375 Z M 51.394531 62.722656 " clip-rule="nonzero"/></clipPath><clipPath id="a6786264f2"><path d="M 126.394531 62.722656 L 683.605469 62.722656 C 725.027344 62.722656 758.605469 96.300781 758.605469 137.722656 L 758.605469 694.9375 C 758.605469 736.359375 725.027344 769.9375 683.605469 769.9375 L 126.394531 769.9375 C 84.972656 769.9375 51.394531 736.359375 51.394531 694.9375 L 51.394531 137.722656 C 51.394531 96.300781 84.972656 62.722656 126.394531 62.722656 Z M 126.394531 62.722656 " clip-rule="nonzero"/></clipPath><clipPath id="86e64efe9b"><path d="M 0.394531 0.722656 L 707.605469 0.722656 L 707.605469 707.9375 L 0.394531 707.9375 Z M 0.394531 0.722656 " clip-rule="nonzero"/></clipPath><clipPath id="e9fb12d5e3"><path d="M 75.394531 0.722656 L 632.605469 0.722656 C 674.027344 0.722656 707.605469 34.300781 707.605469 75.722656 L 707.605469 632.9375 C 707.605469 674.359375 674.027344 707.9375 632.605469 707.9375 L 75.394531 707.9375 C 33.972656 707.9375 0.394531 674.359375 0.394531 632.9375 L 0.394531 75.722656 C 0.394531 34.300781 33.972656 0.722656 75.394531 0.722656 Z M 75.394531 0.722656 " clip-rule="nonzero"/></clipPath><clipPath id="bdbdb213c2"><rect x="0" width="708" y="0" height="708"/></clipPath><clipPath id="ec74fba660"><path d="M 51.394531 62.722656 L 758.640625 62.722656 L 758.640625 769.972656 L 51.394531 769.972656 Z M 51.394531 62.722656 " clip-rule="nonzero"/></clipPath><clipPath id="f533d3eb31"><path d="M 126.390625 62.722656 L 683.597656 62.722656 C 725.019531 62.722656 758.59375 96.300781 758.59375 137.722656 L 758.59375 694.929688 C 758.59375 736.347656 725.019531 769.925781 683.597656 769.925781 L 126.390625 769.925781 C 84.96875 769.925781 51.394531 736.347656 51.394531 694.929688 L 51.394531 137.722656 C 51.394531 96.300781 84.96875 62.722656 126.390625 62.722656 Z M 126.390625 62.722656 " clip-rule="nonzero"/></clipPath><clipPath id="d4af730721"><path d="M 47.328125 60.808594 L 763.578125 60.808594 L 763.578125 775.558594 L 47.328125 775.558594 Z M 47.328125 60.808594 " clip-rule="nonzero"/></clipPath><clipPath id="9e43b69f2f"><path d="M 122.328125 60.808594 L 688.25 60.808594 C 729.671875 60.808594 763.25 94.386719 763.25 135.804688 L 763.25 700.558594 C 763.25 741.980469 729.671875 775.558594 688.25 775.558594 L 122.328125 775.558594 C 80.90625 775.558594 47.328125 741.980469 47.328125 700.558594 L 47.328125 135.804688 C 47.328125 94.386719 80.90625 60.808594 122.328125 60.808594 Z M 122.328125 60.808594 " clip-rule="nonzero"/></clipPath><clipPath id="5b213f7579"><path d="M 88.839844 103.125 L 722 103.125 L 722 729.539062 L 88.839844 729.539062 Z M 88.839844 103.125 " clip-rule="nonzero"/></clipPath><clipPath id="eeb5698caf"><path d="M 127.089844 103.125 L 682.910156 103.125 C 693.054688 103.125 702.785156 107.152344 709.957031 114.328125 C 717.132812 121.5 721.160156 131.230469 721.160156 141.375 L 721.160156 691.289062 C 721.160156 701.433594 717.132812 711.160156 709.957031 718.335938 C 702.785156 725.507812 693.054688 729.539062 682.910156 729.539062 L 127.089844 729.539062 C 116.945312 729.539062 107.214844 725.507812 100.042969 718.335938 C 92.867188 711.160156 88.839844 701.433594 88.839844 691.289062 L 88.839844 141.375 C 88.839844 131.230469 92.867188 121.5 100.042969 114.328125 C 107.214844 107.152344 116.945312 103.125 127.089844 103.125 Z M 127.089844 103.125 " clip-rule="nonzero"/></clipPath><clipPath id="5df50e2d13"><path d="M 0.839844 0.125 L 633 0.125 L 633 626.539062 L 0.839844 626.539062 Z M 0.839844 0.125 " clip-rule="nonzero"/></clipPath><clipPath id="7e29117251"><path d="M 39.089844 0.125 L 594.910156 0.125 C 605.054688 0.125 614.785156 4.152344 621.957031 11.328125 C 629.132812 18.5 633.160156 28.230469 633.160156 38.375 L 633.160156 588.289062 C 633.160156 598.433594 629.132812 608.160156 621.957031 615.335938 C 614.785156 622.507812 605.054688 626.539062 594.910156 626.539062 L 39.089844 626.539062 C 28.945312 626.539062 19.214844 622.507812 12.042969 615.335938 C 4.867188 608.160156 0.839844 598.433594 0.839844 588.289062 L 0.839844 38.375 C 0.839844 28.230469 4.867188 18.5 12.042969 11.328125 C 19.214844 4.152344 28.945312 0.125 39.089844 0.125 Z M 39.089844 0.125 " clip-rule="nonzero"/></clipPath><clipPath id="f3674b5956"><rect x="0" width="634" y="0" height="627"/></clipPath><clipPath id="1aaaf9f21f"><path d="M 88.839844 103.125 L 721.089844 103.125 L 721.089844 729.375 L 88.839844 729.375 Z M 88.839844 103.125 " clip-rule="nonzero"/></clipPath><clipPath id="c92f9746f3"><path d="M 127.089844 103.125 L 682.910156 103.125 C 693.054688 103.125 702.78125 107.15625 709.957031 114.328125 C 717.128906 121.5 721.160156 131.230469 721.160156 141.375 L 721.160156 691.285156 C 721.160156 701.429688 717.128906 711.160156 709.957031 718.332031 C 702.78125 725.507812 693.054688 729.535156 682.910156 729.535156 L 127.089844 729.535156 C 116.945312 729.535156 107.214844 725.507812 100.042969 718.332031 C 92.867188 711.160156 88.839844 701.429688 88.839844 691.285156 L 88.839844 141.375 C 88.839844 131.230469 92.867188 121.5 100.042969 114.328125 C 107.214844 107.15625 116.945312 103.125 127.089844 103.125 Z M 127.089844 103.125 " clip-rule="nonzero"/></clipPath><clipPath id="61f0762a3f"><path d="M 274.414062 143.519531 L 397.011719 143.519531 L 397.011719 266.113281 L 274.414062 266.113281 Z M 274.414062 143.519531 " clip-rule="nonzero"/></clipPath><clipPath id="5eb0548aaa"><path d="M 311.914062 143.519531 L 359.511719 143.519531 C 380.222656 143.519531 397.011719 160.308594 397.011719 181.019531 L 397.011719 228.613281 C 397.011719 249.324219 380.222656 266.113281 359.511719 266.113281 L 311.914062 266.113281 C 291.203125 266.113281 274.414062 249.324219 274.414062 228.613281 L 274.414062 181.019531 C 274.414062 160.308594 291.203125 143.519531 311.914062 143.519531 Z M 311.914062 143.519531 " clip-rule="nonzero"/></clipPath><clipPath id="3c23b7d4ac"><path d="M 0.414062 0.519531 L 123.011719 0.519531 L 123.011719 123.113281 L 0.414062 123.113281 Z M 0.414062 0.519531 " clip-rule="nonzero"/></clipPath><clipPath id="076d8f6527"><path d="M 37.914062 0.519531 L 85.511719 0.519531 C 106.222656 0.519531 123.011719 17.308594 123.011719 38.019531 L 123.011719 85.613281 C 123.011719 106.324219 106.222656 123.113281 85.511719 123.113281 L 37.914062 123.113281 C 17.203125 123.113281 0.414062 106.324219 0.414062 85.613281 L 0.414062 38.019531 C 0.414062 17.308594 17.203125 0.519531 37.914062 0.519531 Z M 37.914062 0.519531 " clip-rule="nonzero"/></clipPath><clipPath id="7c20440d13"><rect x="0" width="124" y="0" height="124"/></clipPath><clipPath id="1ca0e6aef5"><path d="M 274.414062 143.519531 L 396.664062 143.519531 L 396.664062 265.769531 L 274.414062 265.769531 Z M 274.414062 143.519531 " clip-rule="nonzero"/></clipPath><clipPath id="cf3a858028"><path d="M 311.914062 143.519531 L 359.507812 143.519531 C 380.214844 143.519531 397.003906 160.304688 397.003906 181.015625 L 397.003906 228.609375 C 397.003906 249.320312 380.214844 266.109375 359.507812 266.109375 L 311.914062 266.109375 C 291.203125 266.109375 274.414062 249.320312 274.414062 228.609375 L 274.414062 181.015625 C 274.414062 160.304688 291.203125 143.519531 311.914062 143.519531 Z M 311.914062 143.519531 " clip-rule="nonzero"/></clipPath><clipPath id="6f47064bba"><path d="M 411.308594 143.519531 L 533.90625 143.519531 L 533.90625 266.113281 L 411.308594 266.113281 Z M 411.308594 143.519531 " clip-rule="nonzero"/></clipPath><clipPath id="2c97d7f8b8"><path d="M 448.808594 143.519531 L 496.40625 143.519531 C 517.117188 143.519531 533.90625 160.308594 533.90625 181.019531 L 533.90625 228.613281 C 533.90625 249.324219 517.117188 266.113281 496.40625 266.113281 L 448.808594 266.113281 C 428.097656 266.113281 411.308594 249.324219 411.308594 228.613281 L 411.308594 181.019531 C 411.308594 160.308594 428.097656 143.519531 448.808594 143.519531 Z M 448.808594 143.519531 " clip-rule="nonzero"/></clipPath><clipPath id="fda2c08f02"><path d="M 0.308594 0.519531 L 122.90625 0.519531 L 122.90625 123.113281 L 0.308594 123.113281 Z M 0.308594 0.519531 " clip-rule="nonzero"/></clipPath><clipPath id="aed5151333"><path d="M 37.808594 0.519531 L 85.40625 0.519531 C 106.117188 0.519531 122.90625 17.308594 122.90625 38.019531 L 122.90625 85.613281 C 122.90625 106.324219 106.117188 123.113281 85.40625 123.113281 L 37.808594 123.113281 C 17.097656 123.113281 0.308594 106.324219 0.308594 85.613281 L 0.308594 38.019531 C 0.308594 17.308594 17.097656 0.519531 37.808594 0.519531 Z M 37.808594 0.519531 " clip-rule="nonzero"/></clipPath><clipPath id="9c3a3b65c3"><rect x="0" width="123" y="0" height="124"/></clipPath><clipPath id="4c94e9886d"><path d="M 411.308594 143.519531 L 533.558594 143.519531 L 533.558594 265.769531 L 411.308594 265.769531 Z M 411.308594 143.519531 " clip-rule="nonzero"/></clipPath><clipPath id="5518f9b19d"><path d="M 448.804688 143.519531 L 496.402344 143.519531 C 517.109375 143.519531 533.898438 160.304688 533.898438 181.015625 L 533.898438 228.609375 C 533.898438 249.320312 517.109375 266.109375 496.402344 266.109375 L 448.804688 266.109375 C 428.097656 266.109375 411.308594 249.320312 411.308594 228.609375 L 411.308594 181.015625 C 411.308594 160.304688 428.097656 143.519531 448.804688 143.519531 Z M 448.804688 143.519531 " clip-rule="nonzero"/></clipPath><clipPath id="c573d8f896"><path d="M 135.382812 543.886719 L 257.976562 543.886719 L 257.976562 666.480469 L 135.382812 666.480469 Z M 135.382812 543.886719 " clip-rule="nonzero"/></clipPath><clipPath id="372cd5614d"><path d="M 172.882812 543.886719 L 220.476562 543.886719 C 241.1875 543.886719 257.976562 560.675781 257.976562 581.386719 L 257.976562 628.980469 C 257.976562 649.691406 241.1875 666.480469 220.476562 666.480469 L 172.882812 666.480469 C 152.171875 666.480469 135.382812 649.691406 135.382812 628.980469 L 135.382812 581.386719 C 135.382812 560.675781 152.171875 543.886719 172.882812 543.886719 Z M 172.882812 543.886719 " clip-rule="nonzero"/></clipPath><clipPath id="78015e9ba0"><path d="M 0.382812 0.886719 L 122.976562 0.886719 L 122.976562 123.480469 L 0.382812 123.480469 Z M 0.382812 0.886719 " clip-rule="nonzero"/></clipPath><clipPath id="2ab3ddcf5d"><path d="M 37.882812 0.886719 L 85.476562 0.886719 C 106.1875 0.886719 122.976562 17.675781 122.976562 38.386719 L 122.976562 85.980469 C 122.976562 106.691406 106.1875 123.480469 85.476562 123.480469 L 37.882812 123.480469 C 17.171875 123.480469 0.382812 106.691406 0.382812 85.980469 L 0.382812 38.386719 C 0.382812 17.675781 17.171875 0.886719 37.882812 0.886719 Z M 37.882812 0.886719 " clip-rule="nonzero"/></clipPath><clipPath id="02920251f3"><rect x="0" width="123" y="0" height="124"/></clipPath><clipPath id="21bcbf923c"><path d="M 135.382812 543.886719 L 257.632812 543.886719 L 257.632812 666.136719 L 135.382812 666.136719 Z M 135.382812 543.886719 " clip-rule="nonzero"/></clipPath><clipPath id="fc43f15313"><path d="M 172.878906 543.886719 L 220.472656 543.886719 C 241.183594 543.886719 257.972656 560.675781 257.972656 581.382812 L 257.972656 628.976562 C 257.972656 649.6875 241.183594 666.476562 220.472656 666.476562 L 172.878906 666.476562 C 152.167969 666.476562 135.382812 649.6875 135.382812 628.976562 L 135.382812 581.382812 C 135.382812 560.675781 152.167969 543.886719 172.878906 543.886719 Z M 172.878906 543.886719 " clip-rule="nonzero"/></clipPath><clipPath id="4ab4d319a7"><path d="M 127.707031 304.363281 L 683 304.363281 L 683 505.636719 L 127.707031 505.636719 Z M 127.707031 304.363281 " clip-rule="nonzero"/></clipPath><clipPath id="129aadb17d"><path d="M 183.957031 304.363281 L 626.628906 304.363281 C 657.695312 304.363281 682.878906 329.546875 682.878906 360.613281 L 682.878906 449.386719 C 682.878906 480.453125 657.695312 505.636719 626.628906 505.636719 L 183.957031 505.636719 C 152.890625 505.636719 127.707031 480.453125 127.707031 449.386719 L 127.707031 360.613281 C 127.707031 329.546875 152.890625 304.363281 183.957031 304.363281 Z M 183.957031 304.363281 " clip-rule="nonzero"/></clipPath><clipPath id="2dc1e4095e"><path d="M 0.707031 0.363281 L 556 0.363281 L 556 201.636719 L 0.707031 201.636719 Z M 0.707031 0.363281 " clip-rule="nonzero"/></clipPath><clipPath id="c4ccdd5a6c"><path d="M 56.957031 0.363281 L 499.628906 0.363281 C 530.695312 0.363281 555.878906 25.546875 555.878906 56.613281 L 555.878906 145.386719 C 555.878906 176.453125 530.695312 201.636719 499.628906 201.636719 L 56.957031 201.636719 C 25.890625 201.636719 0.707031 176.453125 0.707031 145.386719 L 0.707031 56.613281 C 0.707031 25.546875 25.890625 0.363281 56.957031 0.363281 Z M 56.957031 0.363281 " clip-rule="nonzero"/></clipPath><clipPath id="c256d1c8f0"><rect x="0" width="556" y="0" height="202"/></clipPath><clipPath id="dbefea0e53"><path d="M 127.707031 304.363281 L 682.707031 304.363281 L 682.707031 505.363281 L 127.707031 505.363281 Z M 127.707031 304.363281 " clip-rule="nonzero"/></clipPath><clipPath id="6252d0585d"><path d="M 183.957031 304.363281 L 626.621094 304.363281 C 657.6875 304.363281 682.871094 329.546875 682.871094 360.613281 L 682.871094 449.382812 C 682.871094 480.449219 657.6875 505.632812 626.621094 505.632812 L 183.957031 505.632812 C 152.890625 505.632812 127.707031 480.449219 127.707031 449.382812 L 127.707031 360.613281 C 127.707031 329.546875 152.890625 304.363281 183.957031 304.363281 Z M 183.957031 304.363281 " clip-rule="nonzero"/></clipPath><clipPath id="ce47f49bab"><path d="M 297.117188 319.140625 L 468.839844 319.140625 L 468.839844 490.859375 L 297.117188 490.859375 Z M 297.117188 319.140625 " clip-rule="nonzero"/></clipPath><clipPath id="397b5fceb2"><path d="M 382.976562 319.140625 C 335.558594 319.140625 297.117188 357.582031 297.117188 405 C 297.117188 452.417969 335.558594 490.859375 382.976562 490.859375 C 430.398438 490.859375 468.839844 452.417969 468.839844 405 C 468.839844 357.582031 430.398438 319.140625 382.976562 319.140625 Z M 382.976562 319.140625 " clip-rule="nonzero"/></clipPath><clipPath id="7f35dd1a45"><path d="M 0.117188 0.140625 L 171.839844 0.140625 L 171.839844 171.859375 L 0.117188 171.859375 Z M 0.117188 0.140625 " clip-rule="nonzero"/></clipPath><clipPath id="69a22a6ff4"><path d="M 85.976562 0.140625 C 38.558594 0.140625 0.117188 38.582031 0.117188 86 C 0.117188 133.417969 38.558594 171.859375 85.976562 171.859375 C 133.398438 171.859375 171.839844 133.417969 171.839844 86 C 171.839844 38.582031 133.398438 0.140625 85.976562 0.140625 Z M 85.976562 0.140625 " clip-rule="nonzero"/></clipPath><clipPath id="369390695c"><rect x="0" width="172" y="0" height="172"/></clipPath><clipPath id="a4a8cb0f96"><path d="M 166.875 369.328125 L 316 369.328125 L 316 467.042969 L 166.875 467.042969 Z M 166.875 369.328125 " clip-rule="nonzero"/></clipPath><clipPath id="f892a32f71"><path d="M 251.417969 369.328125 C 253.050781 369.328125 254.695312 369.328125 256.324219 369.328125 C 269.320312 370.960938 277.441406 376.394531 281.140625 385.28125 C 302.804688 384.097656 318.558594 400.90625 308.957031 417.402344 C 312.148438 420.871094 314.8125 424.746094 315.773438 429.953125 C 315.773438 431.441406 315.773438 432.929688 315.773438 434.421875 C 312.910156 447.667969 300.574219 456.617188 280.328125 454.207031 C 275.117188 461.007812 265.847656 467.820312 251.421875 466.972656 C 243.964844 466.523438 238.777344 463.9375 234.234375 460.796875 C 229.453125 463.410156 224.269531 465.457031 216.785156 465.480469 C 199.46875 465.519531 187.882812 455.457031 187.601562 441.65625 C 176.46875 438.425781 168.929688 432.398438 166.875 422.085938 C 166.875 420.597656 166.875 419.101562 166.875 417.617188 C 169.140625 407.398438 176.273438 400.980469 188.144531 398.257812 C 187.433594 381.019531 211.179688 370.246094 230.6875 377.84375 C 235.332031 374.085938 241.90625 369.992188 251.417969 369.328125 Z M 251.417969 369.328125 " clip-rule="nonzero"/></clipPath><clipPath id="9089f29010"><path d="M 0.875 0.328125 L 150 0.328125 L 150 98.042969 L 0.875 98.042969 Z M 0.875 0.328125 " clip-rule="nonzero"/></clipPath><clipPath id="86733573b9"><path d="M 85.417969 0.328125 C 87.050781 0.328125 88.695312 0.328125 90.324219 0.328125 C 103.320312 1.960938 111.441406 7.394531 115.140625 16.28125 C 136.804688 15.097656 152.558594 31.90625 142.957031 48.402344 C 146.148438 51.871094 148.8125 55.746094 149.773438 60.953125 C 149.773438 62.441406 149.773438 63.929688 149.773438 65.421875 C 146.910156 78.667969 134.574219 87.617188 114.328125 85.207031 C 109.117188 92.007812 99.847656 98.820312 85.421875 97.972656 C 77.964844 97.523438 72.777344 94.9375 68.234375 91.796875 C 63.453125 94.410156 58.269531 96.457031 50.785156 96.480469 C 33.46875 96.519531 21.882812 86.457031 21.601562 72.65625 C 10.46875 69.425781 2.929688 63.398438 0.875 53.085938 C 0.875 51.597656 0.875 50.101562 0.875 48.617188 C 3.140625 38.398438 10.273438 31.980469 22.144531 29.257812 C 21.433594 12.019531 45.179688 1.246094 64.6875 8.84375 C 69.332031 5.085938 75.90625 0.992188 85.417969 0.328125 Z M 85.417969 0.328125 " clip-rule="nonzero"/></clipPath><clipPath id="5502a1f243"><rect x="0" width="150" y="0" height="99"/></clipPath><clipPath id="801450cc5d"><path d="M 417.398438 322.46875 L 566.644531 322.46875 L 566.644531 420.183594 L 417.398438 420.183594 Z M 417.398438 322.46875 " clip-rule="nonzero"/></clipPath><clipPath id="c30ccd7105"><path d="M 501.941406 322.46875 C 503.574219 322.46875 505.21875 322.46875 506.847656 322.46875 C 519.84375 324.101562 527.964844 329.53125 531.664062 338.421875 C 553.328125 337.238281 569.082031 354.046875 559.480469 370.542969 C 562.671875 374.007812 565.335938 377.886719 566.296875 383.089844 C 566.296875 384.582031 566.296875 386.070312 566.296875 387.558594 C 563.429688 400.804688 551.097656 409.757812 530.847656 407.347656 C 525.640625 414.148438 516.367188 420.960938 501.945312 420.109375 C 494.488281 419.664062 489.300781 417.078125 484.757812 413.9375 C 479.976562 416.546875 474.792969 418.597656 467.308594 418.621094 C 449.992188 418.660156 438.40625 408.597656 438.125 394.796875 C 426.992188 391.566406 419.453125 385.539062 417.398438 375.226562 C 417.398438 373.734375 417.398438 372.242188 417.398438 370.757812 C 419.664062 360.539062 426.796875 354.121094 438.667969 351.398438 C 437.953125 334.160156 461.703125 323.386719 481.210938 330.980469 C 485.855469 327.226562 492.429688 323.128906 501.941406 322.46875 Z M 501.941406 322.46875 " clip-rule="nonzero"/></clipPath><clipPath id="a271401df0"><path d="M 0.398438 0.46875 L 149.644531 0.46875 L 149.644531 98.183594 L 0.398438 98.183594 Z M 0.398438 0.46875 " clip-rule="nonzero"/></clipPath><clipPath id="8f1b9e4fd1"><path d="M 84.941406 0.46875 C 86.574219 0.46875 88.21875 0.46875 89.847656 0.46875 C 102.84375 2.101562 110.964844 7.53125 114.664062 16.421875 C 136.328125 15.238281 152.082031 32.046875 142.480469 48.542969 C 145.671875 52.007812 148.335938 55.886719 149.296875 61.089844 C 149.296875 62.582031 149.296875 64.070312 149.296875 65.558594 C 146.429688 78.804688 134.097656 87.757812 113.847656 85.347656 C 108.640625 92.148438 99.367188 98.960938 84.945312 98.109375 C 77.488281 97.664062 72.300781 95.078125 67.757812 91.9375 C 62.976562 94.546875 57.792969 96.597656 50.308594 96.621094 C 32.992188 96.660156 21.40625 86.597656 21.125 72.796875 C 9.992188 69.566406 2.453125 63.539062 0.398438 53.226562 C 0.398438 51.734375 0.398438 50.242188 0.398438 48.757812 C 2.664062 38.539062 9.796875 32.121094 21.667969 29.398438 C 20.953125 12.160156 44.703125 1.386719 64.210938 8.980469 C 68.855469 5.226562 75.429688 1.128906 84.941406 0.46875 Z M 84.941406 0.46875 " clip-rule="nonzero"/></clipPath><clipPath id="9831dbf0e1"><rect x="0" width="150" y="0" height="99"/></clipPath><clipPath id="d5d931dfe1"><path d="M 463.371094 371.324219 L 612.613281 371.324219 L 612.613281 469.039062 L 463.371094 469.039062 Z M 463.371094 371.324219 " clip-rule="nonzero"/></clipPath><clipPath id="333e35eb26"><path d="M 547.914062 371.324219 C 549.546875 371.324219 551.1875 371.324219 552.820312 371.324219 C 565.8125 372.957031 573.933594 378.390625 577.632812 387.28125 C 599.300781 386.09375 615.050781 402.902344 605.453125 419.398438 C 608.644531 422.867188 611.308594 426.746094 612.269531 431.949219 C 612.269531 433.441406 612.269531 434.925781 612.269531 436.417969 C 609.402344 449.664062 597.070312 458.613281 576.820312 456.203125 C 571.609375 463.003906 562.339844 469.816406 547.914062 468.96875 C 540.460938 468.523438 535.273438 465.9375 530.730469 462.792969 C 525.945312 465.40625 520.765625 467.457031 513.28125 467.476562 C 495.960938 467.515625 484.378906 457.453125 484.097656 443.652344 C 472.964844 440.421875 465.425781 434.398438 463.371094 424.085938 C 463.371094 422.59375 463.371094 421.101562 463.371094 419.617188 C 465.636719 409.394531 472.765625 402.976562 484.640625 400.253906 C 483.925781 383.015625 507.671875 372.246094 527.183594 379.839844 C 531.828125 376.082031 538.398438 371.988281 547.914062 371.324219 Z M 547.914062 371.324219 " clip-rule="nonzero"/></clipPath><clipPath id="11a2770c6f"><path d="M 0.371094 0.324219 L 149.613281 0.324219 L 149.613281 98.039062 L 0.371094 98.039062 Z M 0.371094 0.324219 " clip-rule="nonzero"/></clipPath><clipPath id="2d486cdb77"><path d="M 84.914062 0.324219 C 86.546875 0.324219 88.1875 0.324219 89.820312 0.324219 C 102.8125 1.957031 110.933594 7.390625 114.632812 16.28125 C 136.300781 15.09375 152.050781 31.902344 142.453125 48.398438 C 145.644531 51.867188 148.308594 55.746094 149.269531 60.949219 C 149.269531 62.441406 149.269531 63.925781 149.269531 65.417969 C 146.402344 78.664062 134.070312 87.613281 113.820312 85.203125 C 108.609375 92.003906 99.339844 98.816406 84.914062 97.96875 C 77.460938 97.523438 72.273438 94.9375 67.730469 91.792969 C 62.945312 94.40625 57.765625 96.457031 50.28125 96.476562 C 32.960938 96.515625 21.378906 86.453125 21.097656 72.652344 C 9.964844 69.421875 2.425781 63.398438 0.371094 53.085938 C 0.371094 51.59375 0.371094 50.101562 0.371094 48.617188 C 2.636719 38.394531 9.765625 31.976562 21.640625 29.253906 C 20.925781 12.015625 44.671875 1.246094 64.183594 8.839844 C 68.828125 5.082031 75.398438 0.988281 84.914062 0.324219 Z M 84.914062 0.324219 " clip-rule="nonzero"/></clipPath><clipPath id="25672c6c5c"><rect x="0" width="150" y="0" height="99"/></clipPath><clipPath id="c8e99dd24e"><path d="M 274.414062 543.886719 L 397.011719 543.886719 L 397.011719 666.480469 L 274.414062 666.480469 Z M 274.414062 543.886719 " clip-rule="nonzero"/></clipPath><clipPath id="24d9219ed1"><path d="M 311.914062 543.886719 L 359.511719 543.886719 C 380.222656 543.886719 397.011719 560.675781 397.011719 581.386719 L 397.011719 628.980469 C 397.011719 649.691406 380.222656 666.480469 359.511719 666.480469 L 311.914062 666.480469 C 291.203125 666.480469 274.414062 649.691406 274.414062 628.980469 L 274.414062 581.386719 C 274.414062 560.675781 291.203125 543.886719 311.914062 543.886719 Z M 311.914062 543.886719 " clip-rule="nonzero"/></clipPath><clipPath id="ccee54e6db"><path d="M 0.414062 0.886719 L 123.011719 0.886719 L 123.011719 123.480469 L 0.414062 123.480469 Z M 0.414062 0.886719 " clip-rule="nonzero"/></clipPath><clipPath id="387ec43631"><path d="M 37.914062 0.886719 L 85.511719 0.886719 C 106.222656 0.886719 123.011719 17.675781 123.011719 38.386719 L 123.011719 85.980469 C 123.011719 106.691406 106.222656 123.480469 85.511719 123.480469 L 37.914062 123.480469 C 17.203125 123.480469 0.414062 106.691406 0.414062 85.980469 L 0.414062 38.386719 C 0.414062 17.675781 17.203125 0.886719 37.914062 0.886719 Z M 37.914062 0.886719 " clip-rule="nonzero"/></clipPath><clipPath id="c23e0bbb19"><rect x="0" width="124" y="0" height="124"/></clipPath><clipPath id="d20af1468c"><path d="M 274.414062 543.886719 L 396.664062 543.886719 L 396.664062 666.136719 L 274.414062 666.136719 Z M 274.414062 543.886719 " clip-rule="nonzero"/></clipPath><clipPath id="98a8adde6a"><path d="M 311.914062 543.886719 L 359.507812 543.886719 C 380.214844 543.886719 397.003906 560.675781 397.003906 581.382812 L 397.003906 628.976562 C 397.003906 649.6875 380.214844 666.476562 359.507812 666.476562 L 311.914062 666.476562 C 291.203125 666.476562 274.414062 649.6875 274.414062 628.976562 L 274.414062 581.382812 C 274.414062 560.675781 291.203125 543.886719 311.914062 543.886719 Z M 311.914062 543.886719 " clip-rule="nonzero"/></clipPath><clipPath id="c70d435ad8"><path d="M 413.511719 543.886719 L 536.109375 543.886719 L 536.109375 666.480469 L 413.511719 666.480469 Z M 413.511719 543.886719 " clip-rule="nonzero"/></clipPath><clipPath id="d1e545e114"><path d="M 451.011719 543.886719 L 498.609375 543.886719 C 519.316406 543.886719 536.109375 560.675781 536.109375 581.386719 L 536.109375 628.980469 C 536.109375 649.691406 519.316406 666.480469 498.609375 666.480469 L 451.011719 666.480469 C 430.300781 666.480469 413.511719 649.691406 413.511719 628.980469 L 413.511719 581.386719 C 413.511719 560.675781 430.300781 543.886719 451.011719 543.886719 Z M 451.011719 543.886719 " clip-rule="nonzero"/></clipPath><clipPath id="b9ca31d97b"><path d="M 0.511719 0.886719 L 123.109375 0.886719 L 123.109375 123.480469 L 0.511719 123.480469 Z M 0.511719 0.886719 " clip-rule="nonzero"/></clipPath><clipPath id="a536199665"><path d="M 38.011719 0.886719 L 85.609375 0.886719 C 106.316406 0.886719 123.109375 17.675781 123.109375 38.386719 L 123.109375 85.980469 C 123.109375 106.691406 106.316406 123.480469 85.609375 123.480469 L 38.011719 123.480469 C 17.300781 123.480469 0.511719 106.691406 0.511719 85.980469 L 0.511719 38.386719 C 0.511719 17.675781 17.300781 0.886719 38.011719 0.886719 Z M 38.011719 0.886719 " clip-rule="nonzero"/></clipPath><clipPath id="caf271bfde"><rect x="0" width="124" y="0" height="124"/></clipPath><clipPath id="2ef5b594bc"><path d="M 413.511719 543.886719 L 535.761719 543.886719 L 535.761719 666.136719 L 413.511719 666.136719 Z M 413.511719 543.886719 " clip-rule="nonzero"/></clipPath><clipPath id="df4001d17a"><path d="M 451.007812 543.886719 L 498.601562 543.886719 C 519.3125 543.886719 536.101562 560.675781 536.101562 581.382812 L 536.101562 628.976562 C 536.101562 649.6875 519.3125 666.476562 498.601562 666.476562 L 451.007812 666.476562 C 430.300781 666.476562 413.511719 649.6875 413.511719 628.976562 L 413.511719 581.382812 C 413.511719 560.675781 430.300781 543.886719 451.007812 543.886719 Z M 451.007812 543.886719 " clip-rule="nonzero"/></clipPath><clipPath id="5906550933"><path d="M 552.609375 543.886719 L 675.203125 543.886719 L 675.203125 666.480469 L 552.609375 666.480469 Z M 552.609375 543.886719 " clip-rule="nonzero"/></clipPath><clipPath id="21f567d089"><path d="M 590.109375 543.886719 L 637.703125 543.886719 C 658.414062 543.886719 675.203125 560.675781 675.203125 581.386719 L 675.203125 628.980469 C 675.203125 649.691406 658.414062 666.480469 637.703125 666.480469 L 590.109375 666.480469 C 569.398438 666.480469 552.609375 649.691406 552.609375 628.980469 L 552.609375 581.386719 C 552.609375 560.675781 569.398438 543.886719 590.109375 543.886719 Z M 590.109375 543.886719 " clip-rule="nonzero"/></clipPath><clipPath id="c8de727dec"><path d="M 0.609375 0.886719 L 123.203125 0.886719 L 123.203125 123.480469 L 0.609375 123.480469 Z M 0.609375 0.886719 " clip-rule="nonzero"/></clipPath><clipPath id="8e21f6601d"><path d="M 38.109375 0.886719 L 85.703125 0.886719 C 106.414062 0.886719 123.203125 17.675781 123.203125 38.386719 L 123.203125 85.980469 C 123.203125 106.691406 106.414062 123.480469 85.703125 123.480469 L 38.109375 123.480469 C 17.398438 123.480469 0.609375 106.691406 0.609375 85.980469 L 0.609375 38.386719 C 0.609375 17.675781 17.398438 0.886719 38.109375 0.886719 Z M 38.109375 0.886719 " clip-rule="nonzero"/></clipPath><clipPath id="aa747426db"><rect x="0" width="124" y="0" height="124"/></clipPath><clipPath id="56c856c4a7"><path d="M 552.609375 543.886719 L 674.859375 543.886719 L 674.859375 666.136719 L 552.609375 666.136719 Z M 552.609375 543.886719 " clip-rule="nonzero"/></clipPath><clipPath id="6adc0fea5c"><path d="M 590.105469 543.886719 L 637.699219 543.886719 C 658.410156 543.886719 675.199219 560.675781 675.199219 581.382812 L 675.199219 628.976562 C 675.199219 649.6875 658.410156 666.476562 637.699219 666.476562 L 590.105469 666.476562 C 569.394531 666.476562 552.609375 649.6875 552.609375 628.976562 L 552.609375 581.382812 C 552.609375 560.675781 569.394531 543.886719 590.105469 543.886719 Z M 590.105469 543.886719 " clip-rule="nonzero"/></clipPath></defs><g clip-path="url(#cf46064194)"><g clip-path="url(#a6786264f2)"><g transform="matrix(1, 0, 0, 1, 51, 62)"><g clip-path="url(#bdbdb213c2)"><g clip-path="url(#86e64efe9b)"><g clip-path="url(#e9fb12d5e3)"><path fill="#ffffff" d="M 0.394531 0.722656 L 707.605469 0.722656 L 707.605469 707.9375 L 0.394531 707.9375 Z M 0.394531 0.722656 " fill-opacity="1" fill-rule="nonzero"/></g></g></g></g></g></g><g clip-path="url(#ec74fba660)"><g clip-path="url(#f533d3eb31)"><path stroke-linecap="butt" transform="matrix(0.75, 0, 0, 0.75, 51.3926, 62.723842)" fill="none" stroke-linejoin="miter" d="M 99.997372 -0.00158053 L 842.940117 -0.00158053 C 898.169287 -0.00158053 942.934914 44.769255 942.934914 99.998425 L 942.934914 842.94117 C 942.934914 898.165131 898.169287 942.935967 842.940117 942.935967 L 99.997372 942.935967 C 44.768202 942.935967 0.00257485 898.165131 0.00257485 842.94117 L 0.00257485 99.998425 C 0.00257485 44.769255 44.768202 -0.00158053 99.997372 -0.00158053 Z M 99.997372 -0.00158053 " stroke="#67c7ff" stroke-width="120" stroke-opacity="1" stroke-miterlimit="4"/></g></g><g clip-path="url(#d4af730721)"><g clip-path="url(#9e43b69f2f)"><path stroke-linecap="butt" transform="matrix(0.75, 0, 0, 0.75, 47.329535, 60.807387)" fill="none" stroke-linejoin="miter" d="M 99.998119 0.00160961 L 854.560609 0.00160961 C 909.789775 0.00160961 954.560607 44.772442 954.560607 99.9964 L 954.560607 853.001598 C 954.560607 908.230764 909.789775 953.001597 854.560609 953.001597 L 99.998119 953.001597 C 44.768953 953.001597 -0.00187963 908.230764 -0.00187963 853.001598 L -0.00187963 99.9964 C -0.00187963 44.772442 44.768953 0.00160961 99.998119 0.00160961 Z M 99.998119 0.00160961 " stroke="#000000" stroke-width="20" stroke-opacity="1" stroke-miterlimit="4"/></g></g><g clip-path="url(#5b213f7579)"><g clip-path="url(#eeb5698caf)"><g transform="matrix(1, 0, 0, 1, 88, 103)"><g clip-path="url(#f3674b5956)"><g clip-path="url(#5df50e2d13)"><g clip-path="url(#7e29117251)"><path fill="#ffffff" d="M 0.839844 0.125 L 632.148438 0.125 L 632.148438 626.539062 L 0.839844 626.539062 Z M 0.839844 0.125 " fill-opacity="1" fill-rule="nonzero"/></g></g></g></g></g></g><g clip-path="url(#1aaaf9f21f)"><g clip-path="url(#c92f9746f3)"><path stroke-linecap="butt" transform="matrix(0.75, 0, 0, 0.75, 88.838181, 103.125483)" fill="none" stroke-linejoin="miter" d="M 51.00222 -0.000643749 L 792.096007 -0.000643749 C 805.62205 -0.000643749 818.5908 5.374357 828.158509 14.936857 C 837.72101 24.499357 843.09601 37.473316 843.09601 50.999359 L 843.09601 784.212937 C 843.09601 797.73898 837.72101 810.712939 828.158509 820.275439 C 818.5908 829.843148 805.62205 835.21294 792.096007 835.21294 L 51.00222 835.21294 C 37.476178 835.21294 24.502219 829.843148 14.939718 820.275439 C 5.372009 810.712939 0.00221749 797.73898 0.00221749 784.212937 L 0.00221749 50.999359 C 0.00221749 37.473316 5.372009 24.499357 14.939718 14.936857 C 24.502219 5.374357 37.476178 -0.000643749 51.00222 -0.000643749 Z M 51.00222 -0.000643749 " stroke="#000000" stroke-width="20" stroke-opacity="1" stroke-miterlimit="4"/></g></g><g clip-path="url(#61f0762a3f)"><g clip-path="url(#5eb0548aaa)"><g transform="matrix(1, 0, 0, 1, 274, 143)"><g clip-path="url(#7c20440d13)"><g clip-path="url(#3c23b7d4ac)"><g clip-path="url(#076d8f6527)"><path fill="#d9d9d9" d="M 0.414062 0.519531 L 123.011719 0.519531 L 123.011719 123.113281 L 0.414062 123.113281 Z M 0.414062 0.519531 " fill-opacity="1" fill-rule="nonzero"/></g></g></g></g></g></g><g clip-path="url(#1ca0e6aef5)"><g clip-path="url(#cf3a858028)"><path stroke-linecap="butt" transform="matrix(0.75, 0, 0, 0.75, 274.414502, 143.517685)" fill="none" stroke-linejoin="miter" d="M 49.999414 0.00246196 L 113.457746 0.00246196 C 141.067121 0.00246196 163.452537 22.38267 163.452537 49.997253 L 163.452537 113.455585 C 163.452537 141.070168 141.067121 163.455585 113.457746 163.455585 L 49.999414 163.455585 C 22.384831 163.455585 -0.000585593 141.070168 -0.000585593 113.455585 L -0.000585593 49.997253 C -0.000585593 22.38267 22.384831 0.00246196 49.999414 0.00246196 Z M 49.999414 0.00246196 " stroke="#000000" stroke-width="20" stroke-opacity="1" stroke-miterlimit="4"/></g></g><g clip-path="url(#6f47064bba)"><g clip-path="url(#2c97d7f8b8)"><g transform="matrix(1, 0, 0, 1, 411, 143)"><g clip-path="url(#9c3a3b65c3)"><g clip-path="url(#fda2c08f02)"><g clip-path="url(#aed5151333)"><path fill="#d9d9d9" d="M 0.308594 0.519531 L 122.90625 0.519531 L 122.90625 123.113281 L 0.308594 123.113281 Z M 0.308594 0.519531 " fill-opacity="1" fill-rule="nonzero"/></g></g></g></g></g></g><g clip-path="url(#4c94e9886d)"><g clip-path="url(#5518f9b19d)"><path stroke-linecap="butt" transform="matrix(0.75, 0, 0, 0.75, 411.308647, 143.517685)" fill="none" stroke-linejoin="miter" d="M 49.99472 0.00246196 L 113.458261 0.00246196 C 141.067636 0.00246196 163.453052 22.38267 163.453052 49.997253 L 163.453052 113.455585 C 163.453052 141.070168 141.067636 163.455585 113.458261 163.455585 L 49.99472 163.455585 C 22.385346 163.455585 -0.0000707435 141.070168 -0.0000707435 113.455585 L -0.0000707435 49.997253 C -0.0000707435 22.38267 22.385346 0.00246196 49.99472 0.00246196 Z M 49.99472 0.00246196 " stroke="#000000" stroke-width="20" stroke-opacity="1" stroke-miterlimit="4"/></g></g><g clip-path="url(#c573d8f896)"><g clip-path="url(#372cd5614d)"><g transform="matrix(1, 0, 0, 1, 135, 543)"><g clip-path="url(#02920251f3)"><g clip-path="url(#78015e9ba0)"><g clip-path="url(#2ab3ddcf5d)"><path fill="#67c7ff" d="M 0.382812 0.886719 L 122.976562 0.886719 L 122.976562 123.480469 L 0.382812 123.480469 Z M 0.382812 0.886719 " fill-opacity="1" fill-rule="nonzero"/></g></g></g></g></g></g><g clip-path="url(#21bcbf923c)"><g clip-path="url(#fc43f15313)"><path stroke-linecap="butt" transform="matrix(0.75, 0, 0, 0.75, 135.380901, 543.885761)" fill="none" stroke-linejoin="miter" d="M 49.99734 0.00127748 L 113.455673 0.00127748 C 141.070255 0.00127748 163.455672 22.386694 163.455672 49.996068 L 163.455672 113.454401 C 163.455672 141.068984 141.070255 163.4544 113.455673 163.4544 L 49.99734 163.4544 C 22.382757 163.4544 0.00254908 141.068984 0.00254908 113.454401 L 0.00254908 49.996068 C 0.00254908 22.386694 22.382757 0.00127748 49.99734 0.00127748 Z M 49.99734 0.00127748 " stroke="#000000" stroke-width="20" stroke-opacity="1" stroke-miterlimit="4"/></g></g><g clip-path="url(#4ab4d319a7)"><g clip-path="url(#129aadb17d)"><g transform="matrix(1, 0, 0, 1, 127, 304)"><g clip-path="url(#c256d1c8f0)"><g clip-path="url(#2dc1e4095e)"><g clip-path="url(#c4ccdd5a6c)"><path fill="#d7f0ff" d="M 0.707031 0.363281 L 555.777344 0.363281 L 555.777344 201.636719 L 0.707031 201.636719 Z M 0.707031 0.363281 " fill-opacity="1" fill-rule="nonzero"/></g></g></g></g></g></g><g clip-path="url(#dbefea0e53)"><g clip-path="url(#6252d0585d)"><path stroke-linecap="butt" transform="matrix(0.75, 0, 0, 0.75, 127.70698, 304.364537)" fill="none" stroke-linejoin="miter" d="M 75.000072 -0.00167392 L 665.218851 -0.00167392 C 706.640729 -0.00167392 740.218855 33.576453 740.218855 74.99833 L 740.218855 193.357711 C 740.218855 234.779588 706.640729 268.357715 665.218851 268.357715 L 75.000072 268.357715 C 33.578195 268.357715 0.0000679664 234.779588 0.0000679664 193.357711 L 0.0000679664 74.99833 C 0.0000679664 33.576453 33.578195 -0.00167392 75.000072 -0.00167392 Z M 75.000072 -0.00167392 " stroke="#000000" stroke-width="20" stroke-opacity="1" stroke-miterlimit="4"/></g></g><g clip-path="url(#ce47f49bab)"><g clip-path="url(#397b5fceb2)"><g transform="matrix(1, 0, 0, 1, 297, 319)"><g clip-path="url(#369390695c)"><g clip-path="url(#7f35dd1a45)"><g clip-path="url(#69a22a6ff4)"><path fill="#ffe372" d="M 0.117188 0.140625 L 171.839844 0.140625 L 171.839844 171.859375 L 0.117188 171.859375 Z M 0.117188 0.140625 " fill-opacity="1" fill-rule="nonzero"/></g></g></g></g></g></g><g clip-path="url(#a4a8cb0f96)"><g clip-path="url(#f892a32f71)"><g transform="matrix(1, 0, 0, 1, 166, 369)"><g clip-path="url(#5502a1f243)"><g clip-path="url(#9089f29010)"><g clip-path="url(#86733573b9)"><path fill="#ffffff" d="M 0.875 0.328125 L 149.738281 0.328125 L 149.738281 98.042969 L 0.875 98.042969 Z M 0.875 0.328125 " fill-opacity="1" fill-rule="nonzero"/></g></g></g></g></g></g><g clip-path="url(#801450cc5d)"><g clip-path="url(#c30ccd7105)"><g transform="matrix(1, 0, 0, 1, 417, 322)"><g clip-path="url(#9831dbf0e1)"><g clip-path="url(#a271401df0)"><g clip-path="url(#8f1b9e4fd1)"><path fill="#ffffff" d="M 0.398438 0.46875 L 149.261719 0.46875 L 149.261719 98.183594 L 0.398438 98.183594 Z M 0.398438 0.46875 " fill-opacity="1" fill-rule="nonzero"/></g></g></g></g></g></g><g clip-path="url(#d5d931dfe1)"><g clip-path="url(#333e35eb26)"><g transform="matrix(1, 0, 0, 1, 463, 371)"><g clip-path="url(#25672c6c5c)"><g clip-path="url(#11a2770c6f)"><g clip-path="url(#2d486cdb77)"><path fill="#ffffff" d="M 0.371094 0.324219 L 149.234375 0.324219 L 149.234375 98.039062 L 0.371094 98.039062 Z M 0.371094 0.324219 " fill-opacity="1" fill-rule="nonzero"/></g></g></g></g></g></g><g fill="#000000" fill-opacity="1"><g transform="translate(147.131422, 435.801766)"><g><path d="M 94.296875 -60.328125 L 74.125 0 L 65.078125 0 L 48.609375 -48.171875 L 32.140625 0 L 22.921875 0 L 2.765625 -60.328125 L 11.640625 -60.328125 L 27.921875 -11.296875 L 44.90625 -60.328125 L 52.828125 -60.328125 L 69.46875 -11.03125 L 86.09375 -60.328125 Z M 94.296875 -60.328125 "/></g></g></g><g fill="#000000" fill-opacity="1"><g transform="translate(239.429758, 435.801766)"><g><path d="M 49.125 -22.578125 C 49.125 -21.953125 49.066406 -21.117188 48.953125 -20.078125 L 11.890625 -20.078125 C 12.410156 -16.054688 14.175781 -12.820312 17.1875 -10.375 C 20.207031 -7.9375 23.957031 -6.71875 28.4375 -6.71875 C 33.894531 -6.71875 38.289062 -8.554688 41.625 -12.234375 L 46.203125 -6.890625 C 44.128906 -4.484375 41.554688 -2.644531 38.484375 -1.375 C 35.410156 -0.113281 31.976562 0.515625 28.1875 0.515625 C 23.351562 0.515625 19.066406 -0.472656 15.328125 -2.453125 C 11.597656 -4.441406 8.710938 -7.210938 6.671875 -10.765625 C 4.640625 -14.328125 3.625 -18.351562 3.625 -22.84375 C 3.625 -27.257812 4.613281 -31.25 6.59375 -34.8125 C 8.570312 -38.375 11.300781 -41.144531 14.78125 -43.125 C 18.257812 -45.113281 22.179688 -46.109375 26.546875 -46.109375 C 30.910156 -46.109375 34.800781 -45.113281 38.21875 -43.125 C 41.644531 -41.144531 44.316406 -38.375 46.234375 -34.8125 C 48.160156 -31.25 49.125 -27.171875 49.125 -22.578125 Z M 26.546875 -39.125 C 22.578125 -39.125 19.253906 -37.914062 16.578125 -35.5 C 13.910156 -33.09375 12.347656 -29.9375 11.890625 -26.03125 L 41.203125 -26.03125 C 40.742188 -29.875 39.175781 -33.015625 36.5 -35.453125 C 33.832031 -37.898438 30.515625 -39.125 26.546875 -39.125 Z M 26.546875 -39.125 "/></g></g></g><g fill="#000000" fill-opacity="1"><g transform="translate(292.171751, 435.801766)"><g><path d="M 50.9375 -63.953125 L 50.9375 0 L 43 0 L 43 -7.234375 C 41.164062 -4.710938 38.835938 -2.789062 36.015625 -1.46875 C 33.203125 -0.144531 30.101562 0.515625 26.71875 0.515625 C 22.289062 0.515625 18.320312 -0.457031 14.8125 -2.40625 C 11.3125 -4.363281 8.570312 -7.109375 6.59375 -10.640625 C 4.613281 -14.171875 3.625 -18.238281 3.625 -22.84375 C 3.625 -27.4375 4.613281 -31.484375 6.59375 -34.984375 C 8.570312 -38.492188 11.3125 -41.222656 14.8125 -43.171875 C 18.320312 -45.128906 22.289062 -46.109375 26.71875 -46.109375 C 29.988281 -46.109375 33.003906 -45.488281 35.765625 -44.25 C 38.523438 -43.019531 40.820312 -41.195312 42.65625 -38.78125 L 42.65625 -63.953125 Z M 27.40625 -6.71875 C 30.28125 -6.71875 32.894531 -7.394531 35.25 -8.75 C 37.601562 -10.101562 39.441406 -12 40.765625 -14.4375 C 42.085938 -16.875 42.75 -19.675781 42.75 -22.84375 C 42.75 -26 42.085938 -28.796875 40.765625 -31.234375 C 39.441406 -33.679688 37.601562 -35.566406 35.25 -36.890625 C 32.894531 -38.210938 30.28125 -38.875 27.40625 -38.875 C 24.476562 -38.875 21.847656 -38.210938 19.515625 -36.890625 C 17.191406 -35.566406 15.351562 -33.679688 14 -31.234375 C 12.65625 -28.796875 11.984375 -26 11.984375 -22.84375 C 11.984375 -19.675781 12.65625 -16.875 14 -14.4375 C 15.351562 -12 17.191406 -10.101562 19.515625 -8.75 C 21.847656 -7.394531 24.476562 -6.71875 27.40625 -6.71875 Z M 27.40625 -6.71875 "/></g></g></g><g fill="#000000" fill-opacity="1"><g transform="translate(350.946338, 435.801766)"><g><path d="M 32.234375 -46.109375 C 38.035156 -46.109375 42.644531 -44.425781 46.0625 -41.0625 C 49.488281 -37.707031 51.203125 -32.78125 51.203125 -26.28125 L 51.203125 0 L 42.921875 0 L 42.921875 -25.34375 C 42.921875 -29.757812 41.859375 -33.085938 39.734375 -35.328125 C 37.609375 -37.578125 34.5625 -38.703125 30.59375 -38.703125 C 26.113281 -38.703125 22.578125 -37.394531 19.984375 -34.78125 C 17.398438 -32.164062 16.109375 -28.414062 16.109375 -23.53125 L 16.109375 0 L 7.84375 0 L 7.84375 -45.671875 L 15.765625 -45.671875 L 15.765625 -38.78125 C 17.429688 -41.132812 19.6875 -42.941406 22.53125 -44.203125 C 25.375 -45.472656 28.609375 -46.109375 32.234375 -46.109375 Z M 32.234375 -46.109375 "/></g></g></g><g fill="#000000" fill-opacity="1"><g transform="translate(409.893273, 435.801766)"><g><path d="M 49.125 -22.578125 C 49.125 -21.953125 49.066406 -21.117188 48.953125 -20.078125 L 11.890625 -20.078125 C 12.410156 -16.054688 14.175781 -12.820312 17.1875 -10.375 C 20.207031 -7.9375 23.957031 -6.71875 28.4375 -6.71875 C 33.894531 -6.71875 38.289062 -8.554688 41.625 -12.234375 L 46.203125 -6.890625 C 44.128906 -4.484375 41.554688 -2.644531 38.484375 -1.375 C 35.410156 -0.113281 31.976562 0.515625 28.1875 0.515625 C 23.351562 0.515625 19.066406 -0.472656 15.328125 -2.453125 C 11.597656 -4.441406 8.710938 -7.210938 6.671875 -10.765625 C 4.640625 -14.328125 3.625 -18.351562 3.625 -22.84375 C 3.625 -27.257812 4.613281 -31.25 6.59375 -34.8125 C 8.570312 -38.375 11.300781 -41.144531 14.78125 -43.125 C 18.257812 -45.113281 22.179688 -46.109375 26.546875 -46.109375 C 30.910156 -46.109375 34.800781 -45.113281 38.21875 -43.125 C 41.644531 -41.144531 44.316406 -38.375 46.234375 -34.8125 C 48.160156 -31.25 49.125 -27.171875 49.125 -22.578125 Z M 26.546875 -39.125 C 22.578125 -39.125 19.253906 -37.914062 16.578125 -35.5 C 13.910156 -33.09375 12.347656 -29.9375 11.890625 -26.03125 L 41.203125 -26.03125 C 40.742188 -29.875 39.175781 -33.015625 36.5 -35.453125 C 33.832031 -37.898438 30.515625 -39.125 26.546875 -39.125 Z M 26.546875 -39.125 "/></g></g></g><g fill="#000000" fill-opacity="1"><g transform="translate(462.635266, 435.801766)"><g><path d="M 20.9375 0.515625 C 17.207031 0.515625 13.617188 0.015625 10.171875 -0.984375 C 6.722656 -1.992188 4.019531 -3.273438 2.0625 -4.828125 L 5.515625 -11.375 C 7.523438 -9.9375 9.96875 -8.785156 12.84375 -7.921875 C 15.71875 -7.066406 18.617188 -6.640625 21.546875 -6.640625 C 28.785156 -6.640625 32.40625 -8.707031 32.40625 -12.84375 C 32.40625 -14.21875 31.914062 -15.304688 30.9375 -16.109375 C 29.957031 -16.921875 28.734375 -17.507812 27.265625 -17.875 C 25.804688 -18.25 23.726562 -18.671875 21.03125 -19.140625 C 17.351562 -19.710938 14.347656 -20.367188 12.015625 -21.109375 C 9.691406 -21.859375 7.695312 -23.125 6.03125 -24.90625 C 4.363281 -26.6875 3.53125 -29.1875 3.53125 -32.40625 C 3.53125 -36.539062 5.253906 -39.859375 8.703125 -42.359375 C 12.148438 -44.859375 16.773438 -46.109375 22.578125 -46.109375 C 25.628906 -46.109375 28.675781 -45.734375 31.71875 -44.984375 C 34.757812 -44.242188 37.257812 -43.238281 39.21875 -41.96875 L 35.6875 -35.421875 C 31.945312 -37.835938 27.550781 -39.046875 22.5 -39.046875 C 18.988281 -39.046875 16.3125 -38.46875 14.46875 -37.3125 C 12.632812 -36.164062 11.71875 -34.644531 11.71875 -32.75 C 11.71875 -31.257812 12.234375 -30.082031 13.265625 -29.21875 C 14.304688 -28.351562 15.585938 -27.71875 17.109375 -27.3125 C 18.628906 -26.914062 20.769531 -26.457031 23.53125 -25.9375 C 27.207031 -25.3125 30.179688 -24.640625 32.453125 -23.921875 C 34.722656 -23.203125 36.660156 -21.976562 38.265625 -20.25 C 39.878906 -18.53125 40.6875 -16.117188 40.6875 -13.015625 C 40.6875 -8.878906 38.914062 -5.585938 35.375 -3.140625 C 31.84375 -0.703125 27.03125 0.515625 20.9375 0.515625 Z M 20.9375 0.515625 "/></g></g></g><g fill="#000000" fill-opacity="1"><g transform="translate(505.811305, 435.801766)"><g><path d="M 50.9375 -63.953125 L 50.9375 0 L 43 0 L 43 -7.234375 C 41.164062 -4.710938 38.835938 -2.789062 36.015625 -1.46875 C 33.203125 -0.144531 30.101562 0.515625 26.71875 0.515625 C 22.289062 0.515625 18.320312 -0.457031 14.8125 -2.40625 C 11.3125 -4.363281 8.570312 -7.109375 6.59375 -10.640625 C 4.613281 -14.171875 3.625 -18.238281 3.625 -22.84375 C 3.625 -27.4375 4.613281 -31.484375 6.59375 -34.984375 C 8.570312 -38.492188 11.3125 -41.222656 14.8125 -43.171875 C 18.320312 -45.128906 22.289062 -46.109375 26.71875 -46.109375 C 29.988281 -46.109375 33.003906 -45.488281 35.765625 -44.25 C 38.523438 -43.019531 40.820312 -41.195312 42.65625 -38.78125 L 42.65625 -63.953125 Z M 27.40625 -6.71875 C 30.28125 -6.71875 32.894531 -7.394531 35.25 -8.75 C 37.601562 -10.101562 39.441406 -12 40.765625 -14.4375 C 42.085938 -16.875 42.75 -19.675781 42.75 -22.84375 C 42.75 -26 42.085938 -28.796875 40.765625 -31.234375 C 39.441406 -33.679688 37.601562 -35.566406 35.25 -36.890625 C 32.894531 -38.210938 30.28125 -38.875 27.40625 -38.875 C 24.476562 -38.875 21.847656 -38.210938 19.515625 -36.890625 C 17.191406 -35.566406 15.351562 -33.679688 14 -31.234375 C 12.65625 -28.796875 11.984375 -26 11.984375 -22.84375 C 11.984375 -19.675781 12.65625 -16.875 14 -14.4375 C 15.351562 -12 17.191406 -10.101562 19.515625 -8.75 C 21.847656 -7.394531 24.476562 -6.71875 27.40625 -6.71875 Z M 27.40625 -6.71875 "/></g></g></g><g fill="#000000" fill-opacity="1"><g transform="translate(564.585868, 435.801766)"><g><path d="M 24.484375 -46.109375 C 30.796875 -46.109375 35.632812 -44.554688 39 -41.453125 C 42.363281 -38.347656 44.046875 -33.722656 44.046875 -27.578125 L 44.046875 0 L 36.203125 0 L 36.203125 -6.03125 C 34.816406 -3.90625 32.84375 -2.28125 30.28125 -1.15625 C 27.726562 -0.0390625 24.703125 0.515625 21.203125 0.515625 C 16.085938 0.515625 11.992188 -0.71875 8.921875 -3.1875 C 5.847656 -5.65625 4.3125 -8.898438 4.3125 -12.921875 C 4.3125 -16.953125 5.773438 -20.1875 8.703125 -22.625 C 11.628906 -25.0625 16.285156 -26.28125 22.671875 -26.28125 L 35.765625 -26.28125 L 35.765625 -27.921875 C 35.765625 -31.484375 34.726562 -34.210938 32.65625 -36.109375 C 30.59375 -38.003906 27.550781 -38.953125 23.53125 -38.953125 C 20.832031 -38.953125 18.1875 -38.503906 15.59375 -37.609375 C 13.007812 -36.722656 10.828125 -35.535156 9.046875 -34.046875 L 5.609375 -40.25 C 7.960938 -42.144531 10.773438 -43.59375 14.046875 -44.59375 C 17.328125 -45.601562 20.804688 -46.109375 24.484375 -46.109375 Z M 22.578125 -5.859375 C 25.742188 -5.859375 28.472656 -6.5625 30.765625 -7.96875 C 33.066406 -9.375 34.734375 -11.375 35.765625 -13.96875 L 35.765625 -20.34375 L 23.015625 -20.34375 C 16.003906 -20.34375 12.5 -17.984375 12.5 -13.265625 C 12.5 -10.972656 13.390625 -9.164062 15.171875 -7.84375 C 16.953125 -6.519531 19.421875 -5.859375 22.578125 -5.859375 Z M 22.578125 -5.859375 "/></g></g></g><g fill="#000000" fill-opacity="1"><g transform="translate(615.259572, 435.801766)"><g><path d="M 48.265625 -45.671875 L 26.109375 4.5625 C 24.160156 9.21875 21.878906 12.492188 19.265625 14.390625 C 16.648438 16.285156 13.503906 17.234375 9.828125 17.234375 C 7.585938 17.234375 5.414062 16.875 3.3125 16.15625 C 1.21875 15.4375 -0.515625 14.390625 -1.890625 13.015625 L 1.640625 6.8125 C 3.992188 9.050781 6.722656 10.171875 9.828125 10.171875 C 11.835938 10.171875 13.515625 9.640625 14.859375 8.578125 C 16.210938 7.515625 17.4375 5.691406 18.53125 3.109375 L 20 -0.09375 L -0.171875 -45.671875 L 8.453125 -45.671875 L 24.390625 -9.140625 L 40.15625 -45.671875 Z M 48.265625 -45.671875 "/></g></g></g><g fill="#000000" fill-opacity="1"><g transform="translate(305.492333, 226.94097)"><g><path d="M 47.171875 0 L 47.109375 -29.703125 L 32.390625 -5.125 L 28.671875 -5.125 L 13.953125 -29.3125 L 13.953125 0 L 6.015625 0 L 6.015625 -44.796875 L 12.859375 -44.796875 L 30.65625 -15.109375 L 48.125 -44.796875 L 54.96875 -44.796875 L 55.046875 0 Z M 47.171875 0 "/></g></g></g><g fill="#000000" fill-opacity="1"><g transform="translate(155.496557, 627.309012)"><g><path d="M 15.109375 -37.765625 L 0.25 -37.765625 L 0.25 -44.796875 L 38.265625 -44.796875 L 38.265625 -37.765625 L 23.421875 -37.765625 L 23.421875 0 L 15.109375 0 Z M 15.109375 -37.765625 "/></g></g></g><g fill="#000000" fill-opacity="1"><g transform="translate(194.022198, 627.309012)"><g><path d="M 24.640625 -34.5625 C 28.953125 -34.5625 32.40625 -33.300781 35 -30.78125 C 37.601562 -28.269531 38.90625 -24.535156 38.90625 -19.578125 L 38.90625 0 L 30.90625 0 L 30.90625 -18.5625 C 30.90625 -21.550781 30.203125 -23.800781 28.796875 -25.3125 C 27.390625 -26.820312 25.382812 -27.578125 22.78125 -27.578125 C 19.84375 -27.578125 17.519531 -26.691406 15.8125 -24.921875 C 14.101562 -23.148438 13.25 -20.601562 13.25 -17.28125 L 13.25 0 L 5.25 0 L 5.25 -47.484375 L 13.25 -47.484375 L 13.25 -30.203125 C 14.570312 -31.609375 16.203125 -32.6875 18.140625 -33.4375 C 20.085938 -34.1875 22.253906 -34.5625 24.640625 -34.5625 Z M 24.640625 -34.5625 "/></g></g></g><g fill="#000000" fill-opacity="1"><g transform="translate(432.258918, 226.94097)"><g><path d="M 15.109375 -37.765625 L 0.25 -37.765625 L 0.25 -44.796875 L 38.265625 -44.796875 L 38.265625 -37.765625 L 23.421875 -37.765625 L 23.421875 0 L 15.109375 0 Z M 15.109375 -37.765625 "/></g></g></g><g fill="#000000" fill-opacity="1"><g transform="translate(469.952596, 226.94097)"><g><path d="M 38.328125 -34.171875 L 38.328125 0 L 30.71875 0 L 30.71875 -4.359375 C 29.4375 -2.816406 27.835938 -1.628906 25.921875 -0.796875 C 24.003906 0.0351562 21.9375 0.453125 19.71875 0.453125 C 15.144531 0.453125 11.546875 -0.816406 8.921875 -3.359375 C 6.296875 -5.898438 4.984375 -9.664062 4.984375 -14.65625 L 4.984375 -34.171875 L 12.984375 -34.171875 L 12.984375 -15.75 C 12.984375 -12.675781 13.675781 -10.378906 15.0625 -8.859375 C 16.457031 -7.347656 18.429688 -6.59375 20.984375 -6.59375 C 23.847656 -6.59375 26.125 -7.476562 27.8125 -9.25 C 29.5 -11.019531 30.34375 -13.566406 30.34375 -16.890625 L 30.34375 -34.171875 Z M 38.328125 -34.171875 "/></g></g></g><g clip-path="url(#c8e99dd24e)"><g clip-path="url(#24d9219ed1)"><g transform="matrix(1, 0, 0, 1, 274, 543)"><g clip-path="url(#c23e0bbb19)"><g clip-path="url(#ccee54e6db)"><g clip-path="url(#387ec43631)"><path fill="#67c7ff" d="M 0.414062 0.886719 L 123.011719 0.886719 L 123.011719 123.480469 L 0.414062 123.480469 Z M 0.414062 0.886719 " fill-opacity="1" fill-rule="nonzero"/></g></g></g></g></g></g><g clip-path="url(#d20af1468c)"><g clip-path="url(#98a8adde6a)"><path stroke-linecap="butt" transform="matrix(0.75, 0, 0, 0.75, 274.414502, 543.885761)" fill="none" stroke-linejoin="miter" d="M 49.999414 0.00127748 L 113.457746 0.00127748 C 141.067121 0.00127748 163.452537 22.386694 163.452537 49.996068 L 163.452537 113.454401 C 163.452537 141.068984 141.067121 163.4544 113.457746 163.4544 L 49.999414 163.4544 C 22.384831 163.4544 -0.000585593 141.068984 -0.000585593 113.454401 L -0.000585593 49.996068 C -0.000585593 22.386694 22.384831 0.00127748 49.999414 0.00127748 Z M 49.999414 0.00127748 " stroke="#000000" stroke-width="20" stroke-opacity="1" stroke-miterlimit="4"/></g></g><g fill="#000000" fill-opacity="1"><g transform="translate(315.328024, 627.309012)"><g><path d="M 14.34375 -37.828125 L 14.34375 -24.1875 L 35.96875 -24.1875 L 35.96875 -17.15625 L 14.34375 -17.15625 L 14.34375 0 L 6.015625 0 L 6.015625 -44.796875 L 38.71875 -44.796875 L 38.71875 -37.828125 Z M 14.34375 -37.828125 "/></g></g></g><g clip-path="url(#c70d435ad8)"><g clip-path="url(#d1e545e114)"><g transform="matrix(1, 0, 0, 1, 413, 543)"><g clip-path="url(#caf271bfde)"><g clip-path="url(#b9ca31d97b)"><g clip-path="url(#a536199665)"><path fill="#67c7ff" d="M 0.511719 0.886719 L 123.109375 0.886719 L 123.109375 123.480469 L 0.511719 123.480469 Z M 0.511719 0.886719 " fill-opacity="1" fill-rule="nonzero"/></g></g></g></g></g></g><g clip-path="url(#2ef5b594bc)"><g clip-path="url(#df4001d17a)"><path stroke-linecap="butt" transform="matrix(0.75, 0, 0, 0.75, 413.511055, 543.885761)" fill="none" stroke-linejoin="miter" d="M 49.995676 0.00127748 L 113.454009 0.00127748 C 141.068592 0.00127748 163.454008 22.386694 163.454008 49.996068 L 163.454008 113.454401 C 163.454008 141.068984 141.068592 163.4544 113.454009 163.4544 L 49.995676 163.4544 C 22.386302 163.4544 0.000885404 141.068984 0.000885404 113.454401 L 0.000885404 49.996068 C 0.000885404 22.386694 22.386302 0.00127748 49.995676 0.00127748 Z M 49.995676 0.00127748 " stroke="#000000" stroke-width="20" stroke-opacity="1" stroke-miterlimit="4"/></g></g><g clip-path="url(#5906550933)"><g clip-path="url(#21f567d089)"><g transform="matrix(1, 0, 0, 1, 552, 543)"><g clip-path="url(#aa747426db)"><g clip-path="url(#c8de727dec)"><g clip-path="url(#8e21f6601d)"><path fill="#67c7ff" d="M 0.609375 0.886719 L 123.203125 0.886719 L 123.203125 123.480469 L 0.609375 123.480469 Z M 0.609375 0.886719 " fill-opacity="1" fill-rule="nonzero"/></g></g></g></g></g></g><g clip-path="url(#56c856c4a7)"><g clip-path="url(#6adc0fea5c)"><path stroke-linecap="butt" transform="matrix(0.75, 0, 0, 0.75, 552.607584, 543.885761)" fill="none" stroke-linejoin="miter" d="M 49.997179 0.00127748 L 113.455512 0.00127748 C 141.070095 0.00127748 163.455511 22.386694 163.455511 49.996068 L 163.455511 113.454401 C 163.455511 141.068984 141.070095 163.4544 113.455512 163.4544 L 49.997179 163.4544 C 22.382596 163.4544 0.0023884 141.068984 0.0023884 113.454401 L 0.0023884 49.996068 C 0.0023884 22.386694 22.382596 0.00127748 49.997179 0.00127748 Z M 49.997179 0.00127748 " stroke="#000000" stroke-width="20" stroke-opacity="1" stroke-miterlimit="4"/></g></g><g fill="#000000" fill-opacity="1"><g transform="translate(435.597702, 627.309012)"><g><path d="M 19.90625 0.640625 C 16.445312 0.640625 13.109375 0.148438 9.890625 -0.828125 C 6.671875 -1.804688 4.117188 -3.109375 2.234375 -4.734375 L 5.125 -11.203125 C 6.957031 -9.753906 9.207031 -8.566406 11.875 -7.640625 C 14.539062 -6.722656 17.21875 -6.265625 19.90625 -6.265625 C 23.226562 -6.265625 25.710938 -6.796875 27.359375 -7.859375 C 29.003906 -8.929688 29.828125 -10.34375 29.828125 -12.09375 C 29.828125 -13.375 29.367188 -14.429688 28.453125 -15.265625 C 27.535156 -16.097656 26.367188 -16.75 24.953125 -17.21875 C 23.546875 -17.6875 21.628906 -18.21875 19.203125 -18.8125 C 15.785156 -19.625 13.019531 -20.4375 10.90625 -21.25 C 8.800781 -22.0625 6.988281 -23.328125 5.46875 -25.046875 C 3.957031 -26.773438 3.203125 -29.113281 3.203125 -32.0625 C 3.203125 -34.539062 3.875 -36.789062 5.21875 -38.8125 C 6.5625 -40.84375 8.585938 -42.453125 11.296875 -43.640625 C 14.003906 -44.835938 17.320312 -45.4375 21.25 -45.4375 C 23.976562 -45.4375 26.664062 -45.09375 29.3125 -44.40625 C 31.957031 -43.726562 34.238281 -42.75 36.15625 -41.46875 L 33.53125 -35.015625 C 31.570312 -36.160156 29.523438 -37.03125 27.390625 -37.625 C 25.253906 -38.226562 23.1875 -38.53125 21.1875 -38.53125 C 17.894531 -38.53125 15.445312 -37.972656 13.84375 -36.859375 C 12.25 -35.753906 11.453125 -34.285156 11.453125 -32.453125 C 11.453125 -31.171875 11.910156 -30.125 12.828125 -29.3125 C 13.742188 -28.5 14.90625 -27.859375 16.3125 -27.390625 C 17.726562 -26.921875 19.648438 -26.390625 22.078125 -25.796875 C 25.410156 -25.023438 28.140625 -24.222656 30.265625 -23.390625 C 32.398438 -22.554688 34.222656 -21.285156 35.734375 -19.578125 C 37.253906 -17.878906 38.015625 -15.578125 38.015625 -12.671875 C 38.015625 -10.191406 37.34375 -7.945312 36 -5.9375 C 34.65625 -3.9375 32.617188 -2.335938 29.890625 -1.140625 C 27.160156 0.046875 23.832031 0.640625 19.90625 0.640625 Z M 19.90625 0.640625 "/></g></g></g><g fill="#000000" fill-opacity="1"><g transform="translate(475.851228, 627.309012)"><g><path d="M 18.296875 -34.5625 C 23.335938 -34.5625 27.191406 -33.351562 29.859375 -30.9375 C 32.523438 -28.53125 33.859375 -24.894531 33.859375 -20.03125 L 33.859375 0 L 26.296875 0 L 26.296875 -4.15625 C 25.316406 -2.664062 23.921875 -1.523438 22.109375 -0.734375 C 20.296875 0.0546875 18.109375 0.453125 15.546875 0.453125 C 12.992188 0.453125 10.753906 0.015625 8.828125 -0.859375 C 6.910156 -1.734375 5.425781 -2.945312 4.375 -4.5 C 3.332031 -6.0625 2.8125 -7.828125 2.8125 -9.796875 C 2.8125 -12.867188 3.953125 -15.332031 6.234375 -17.1875 C 8.515625 -19.039062 12.113281 -19.96875 17.03125 -19.96875 L 25.859375 -19.96875 L 25.859375 -20.484375 C 25.859375 -22.867188 25.140625 -24.703125 23.703125 -25.984375 C 22.273438 -27.265625 20.15625 -27.90625 17.34375 -27.90625 C 15.425781 -27.90625 13.535156 -27.601562 11.671875 -27 C 9.816406 -26.40625 8.25 -25.578125 6.96875 -24.515625 L 3.84375 -30.34375 C 5.632812 -31.707031 7.785156 -32.75 10.296875 -33.46875 C 12.816406 -34.195312 15.484375 -34.5625 18.296875 -34.5625 Z M 17.21875 -5.375 C 19.21875 -5.375 20.992188 -5.832031 22.546875 -6.75 C 24.109375 -7.664062 25.210938 -8.976562 25.859375 -10.6875 L 25.859375 -14.65625 L 17.59375 -14.65625 C 12.988281 -14.65625 10.6875 -13.140625 10.6875 -10.109375 C 10.6875 -8.660156 11.257812 -7.507812 12.40625 -6.65625 C 13.5625 -5.800781 15.164062 -5.375 17.21875 -5.375 Z M 17.21875 -5.375 "/></g></g></g><g fill="#000000" fill-opacity="1"><g transform="translate(572.277575, 627.309012)"><g><path d="M 19.90625 0.640625 C 16.445312 0.640625 13.109375 0.148438 9.890625 -0.828125 C 6.671875 -1.804688 4.117188 -3.109375 2.234375 -4.734375 L 5.125 -11.203125 C 6.957031 -9.753906 9.207031 -8.566406 11.875 -7.640625 C 14.539062 -6.722656 17.21875 -6.265625 19.90625 -6.265625 C 23.226562 -6.265625 25.710938 -6.796875 27.359375 -7.859375 C 29.003906 -8.929688 29.828125 -10.34375 29.828125 -12.09375 C 29.828125 -13.375 29.367188 -14.429688 28.453125 -15.265625 C 27.535156 -16.097656 26.367188 -16.75 24.953125 -17.21875 C 23.546875 -17.6875 21.628906 -18.21875 19.203125 -18.8125 C 15.785156 -19.625 13.019531 -20.4375 10.90625 -21.25 C 8.800781 -22.0625 6.988281 -23.328125 5.46875 -25.046875 C 3.957031 -26.773438 3.203125 -29.113281 3.203125 -32.0625 C 3.203125 -34.539062 3.875 -36.789062 5.21875 -38.8125 C 6.5625 -40.84375 8.585938 -42.453125 11.296875 -43.640625 C 14.003906 -44.835938 17.320312 -45.4375 21.25 -45.4375 C 23.976562 -45.4375 26.664062 -45.09375 29.3125 -44.40625 C 31.957031 -43.726562 34.238281 -42.75 36.15625 -41.46875 L 33.53125 -35.015625 C 31.570312 -36.160156 29.523438 -37.03125 27.390625 -37.625 C 25.253906 -38.226562 23.1875 -38.53125 21.1875 -38.53125 C 17.894531 -38.53125 15.445312 -37.972656 13.84375 -36.859375 C 12.25 -35.753906 11.453125 -34.285156 11.453125 -32.453125 C 11.453125 -31.171875 11.910156 -30.125 12.828125 -29.3125 C 13.742188 -28.5 14.90625 -27.859375 16.3125 -27.390625 C 17.726562 -26.921875 19.648438 -26.390625 22.078125 -25.796875 C 25.410156 -25.023438 28.140625 -24.222656 30.265625 -23.390625 C 32.398438 -22.554688 34.222656 -21.285156 35.734375 -19.578125 C 37.253906 -17.878906 38.015625 -15.578125 38.015625 -12.671875 C 38.015625 -10.191406 37.34375 -7.945312 36 -5.9375 C 34.65625 -3.9375 32.617188 -2.335938 29.890625 -1.140625 C 27.160156 0.046875 23.832031 0.640625 19.90625 0.640625 Z M 19.90625 0.640625 "/></g></g></g><g fill="#000000" fill-opacity="1"><g transform="translate(612.531101, 627.309012)"><g><path d="M 38.328125 -34.171875 L 38.328125 0 L 30.71875 0 L 30.71875 -4.359375 C 29.4375 -2.816406 27.835938 -1.628906 25.921875 -0.796875 C 24.003906 0.0351562 21.9375 0.453125 19.71875 0.453125 C 15.144531 0.453125 11.546875 -0.816406 8.921875 -3.359375 C 6.296875 -5.898438 4.984375 -9.664062 4.984375 -14.65625 L 4.984375 -34.171875 L 12.984375 -34.171875 L 12.984375 -15.75 C 12.984375 -12.675781 13.675781 -10.378906 15.0625 -8.859375 C 16.457031 -7.347656 18.429688 -6.59375 20.984375 -6.59375 C 23.847656 -6.59375 26.125 -7.476562 27.8125 -9.25 C 29.5 -11.019531 30.34375 -13.566406 30.34375 -16.890625 L 30.34375 -34.171875 Z M 38.328125 -34.171875 "/></g></g></g></svg>