<svg xmlns="http://www.w3.org/2000/svg" xmlns:xlink="http://www.w3.org/1999/xlink" zoomAndPan="magnify" preserveAspectRatio="xMidYMid meet" version="1.0" viewBox="39.22 305.75 725.53 265.86"><defs><g/><clipPath id="8a48560a4a"><rect x="0" width="315" y="0" height="173"/></clipPath></defs><path fill="#ff6359" d="M 111.800781 339.519531 L 137.933594 339.519531 L 137.933594 435.988281 L 111.800781 435.988281 L 111.800781 425.164062 C 106.457031 432.132812 98.375 435.613281 87.550781 435.613281 C 74.363281 435.742188 63.042969 431.136719 53.589844 421.808594 C 44.136719 412.484375 39.347656 401.164062 39.222656 387.847656 C 39.09375 374.664062 43.695312 363.34375 53.023438 353.890625 C 62.351562 344.4375 73.671875 339.648438 86.984375 339.519531 C 97.933594 339.519531 106.203125 343.066406 111.800781 350.15625 Z M 103.972656 404.273438 C 108.570312 399.675781 110.875 394.074219 110.875 387.472656 C 110.875 380.757812 108.511719 375.160156 103.785156 370.671875 C 99.058594 365.945312 93.519531 363.710938 87.171875 363.957031 C 80.585938 363.957031 74.984375 366.261719 70.375 370.859375 C 65.769531 375.464844 63.472656 381.0625 63.472656 387.660156 C 63.472656 394.132812 65.835938 399.734375 70.5625 404.460938 C 75.171875 409.0625 80.773438 411.363281 87.363281 411.363281 C 94.074219 411.113281 99.609375 408.75 103.972656 404.273438 Z M 103.972656 404.273438 " fill-opacity="1" fill-rule="nonzero"/><path fill="#ff6359" d="M 195.019531 340.257812 C 208.707031 339.140625 220.027344 342.683594 228.980469 350.890625 C 238.558594 359.730469 243.347656 372.109375 243.347656 388.039062 L 243.347656 435.988281 L 219.097656 435.988281 L 219.097656 388.585938 L 218.910156 388.585938 L 218.910156 388.226562 C 218.910156 381.628906 216.605469 376.027344 212.007812 371.425781 C 207.40625 366.828125 201.804688 364.523438 195.207031 364.523438 C 188.496094 364.777344 182.898438 367.140625 178.425781 371.613281 C 173.6875 376.339844 171.441406 381.941406 171.695312 388.414062 L 171.695312 388.585938 L 171.507812 388.585938 L 171.507812 435.988281 L 145.390625 435.988281 L 145.390625 339.519531 L 171.507812 339.519531 L 171.507812 352.023438 C 177.351562 345.0625 185.191406 341.140625 195.019531 340.257812 Z M 195.019531 340.257812 " fill-opacity="1" fill-rule="nonzero"/><path fill="#ff6359" d="M 326.011719 435.988281 L 326.011719 424.976562 C 317.046875 432.320312 306.910156 435.988281 295.597656 435.988281 C 282.410156 436.113281 271.089844 431.515625 261.636719 422.1875 C 252.183594 412.847656 247.394531 401.527344 247.269531 388.226562 C 247.140625 375.039062 251.742188 363.71875 261.074219 354.265625 C 270.398438 344.804688 281.71875 340.011719 295.03125 339.898438 C 306.609375 339.898438 316.871094 343.5625 325.824219 350.890625 L 325.824219 305.75 L 351.957031 305.75 L 352.128906 435.988281 Z M 312.210938 404.632812 C 316.808594 400.035156 319.109375 394.4375 319.109375 387.847656 C 318.859375 381.128906 316.496094 375.527344 312.019531 371.050781 C 307.292969 366.574219 301.695312 364.335938 295.222656 364.335938 C 288.632812 364.335938 283.03125 366.640625 278.421875 371.238281 C 273.816406 376.339844 271.578125 381.941406 271.707031 388.039062 C 271.707031 394.625 274.007812 400.222656 278.609375 404.820312 C 283.21875 409.4375 288.820312 411.738281 295.410156 411.738281 C 302.121094 411.492188 307.722656 409.117188 312.210938 404.632812 Z M 312.210938 404.632812 " fill-opacity="1" fill-rule="nonzero"/><path fill="#ff6359" d="M 440.769531 314.707031 L 469.867188 314.707031 L 469.867188 435.988281 L 389.445312 376.835938 L 389.445312 435.988281 L 360.347656 435.988281 L 360.347656 314.707031 L 440.769531 376.648438 Z M 440.769531 314.707031 " fill-opacity="1" fill-rule="nonzero"/><path fill="#ff6359" d="M 570.628906 392.128906 C 570.75 394.746094 570.75 396.304688 570.628906 396.804688 L 500.464844 396.617188 C 501.464844 399.484375 503.273438 402.21875 505.875 404.820312 C 510.726562 409.4375 516.324219 411.738281 522.675781 411.738281 C 529.390625 411.492188 534.988281 409.117188 539.476562 404.632812 L 540.210938 403.894531 L 564.480469 411.550781 C 559.121094 419.886719 553.523438 425.859375 547.679688 429.464844 C 541.089844 433.691406 532.816406 435.863281 522.863281 435.988281 C 509.675781 436.113281 498.355469 431.515625 488.902344 422.1875 C 479.449219 412.847656 474.660156 401.527344 474.535156 388.226562 C 474.40625 375.039062 479.007812 363.71875 488.339844 354.265625 C 497.664062 344.804688 508.984375 340.011719 522.296875 339.898438 C 535.484375 339.773438 546.804688 344.375 556.257812 353.699219 C 565.710938 363.03125 570.5 374.351562 570.628906 387.660156 Z M 522.488281 364.335938 C 515.898438 364.335938 510.296875 366.640625 505.6875 371.238281 C 503.324219 373.851562 501.644531 376.46875 500.652344 379.082031 L 544.511719 379.082031 C 543.515625 376.46875 541.773438 373.789062 539.289062 371.050781 C 534.5625 366.574219 528.960938 364.335938 522.488281 364.335938 Z M 522.488281 364.335938 " fill-opacity="1" fill-rule="nonzero"/><path fill="#ff6359" d="M 647.128906 435.988281 L 617.089844 406.140625 L 587.242188 435.988281 L 568.761719 417.511719 L 598.613281 387.660156 L 568.761719 357.621094 L 587.242188 339.144531 L 617.089844 369.183594 L 647.128906 339.144531 L 665.609375 357.621094 L 635.570312 387.660156 L 665.609375 417.511719 Z M 647.128906 435.988281 " fill-opacity="1" fill-rule="nonzero"/><path fill="#ff6359" d="M 744.152344 339.898438 L 744.152344 366.015625 L 722.695312 366.015625 L 722.695312 435.988281 L 696.578125 435.988281 L 696.578125 366.015625 L 674.933594 366.015625 L 674.933594 339.898438 L 696.578125 339.898438 L 696.578125 306.296875 L 722.695312 306.296875 L 722.695312 339.898438 Z M 744.152344 339.898438 " fill-opacity="1" fill-rule="nonzero"/><g transform="matrix(1, 0, 0, 1, 456, 402)"><g clip-path="url(#8a48560a4a)"><g fill="#ff6359" fill-opacity="1"><g transform="translate(6.464076, 131.676641)"><g><path d="M 34.28125 4.6875 C 28.113281 4.6875 23.3125 3.882812 19.875 2.28125 C 16.445312 0.675781 13.882812 -1.601562 12.1875 -4.5625 C 10.488281 -7.519531 9.46875 -11.082031 9.125 -15.25 C 8.78125 -19.425781 8.609375 -24.078125 8.609375 -29.203125 C 8.609375 -33.285156 8.738281 -37.390625 9 -41.515625 C 9.257812 -45.640625 9.648438 -50.050781 10.171875 -54.75 C 8.953125 -54.75 7.992188 -54.726562 7.296875 -54.6875 C 6.597656 -54.644531 6.035156 -54.625 5.609375 -54.625 C 2.828125 -54.625 0.414062 -55.226562 -1.625 -56.4375 C -3.664062 -57.65625 -4.6875 -59.523438 -4.6875 -62.046875 C -4.6875 -63.609375 -4.097656 -65 -2.921875 -66.21875 C -1.753906 -67.4375 -0.257812 -68.476562 1.5625 -69.34375 C 3.382812 -70.21875 5.359375 -70.914062 7.484375 -71.4375 C 9.617188 -71.957031 11.644531 -72.304688 13.5625 -72.484375 C 13.5625 -74.910156 13.734375 -77.597656 14.078125 -80.546875 C 14.421875 -83.503906 15.050781 -86.265625 15.96875 -88.828125 C 16.882812 -91.398438 18.125 -93.550781 19.6875 -95.28125 C 21.25 -97.019531 23.25 -97.890625 25.6875 -97.890625 C 27.070312 -97.890625 28.304688 -97.476562 29.390625 -96.65625 C 30.484375 -95.832031 31.375 -94.789062 32.0625 -93.53125 C 32.757812 -92.269531 33.28125 -90.859375 33.625 -89.296875 C 33.976562 -87.734375 34.15625 -86.210938 34.15625 -84.734375 C 34.15625 -82.992188 34.023438 -81.210938 33.765625 -79.390625 C 33.503906 -77.566406 33.023438 -75.304688 32.328125 -72.609375 C 33.804688 -72.785156 34.804688 -72.894531 35.328125 -72.9375 C 35.847656 -72.976562 36.328125 -73 36.765625 -73 C 38.234375 -73 39.769531 -72.867188 41.375 -72.609375 C 42.988281 -72.347656 44.46875 -71.910156 45.8125 -71.296875 C 47.164062 -70.691406 48.273438 -69.890625 49.140625 -68.890625 C 50.015625 -67.890625 50.453125 -66.695312 50.453125 -65.3125 C 50.453125 -63.75 49.820312 -62.359375 48.5625 -61.140625 C 47.300781 -59.921875 45.710938 -58.875 43.796875 -58 C 41.890625 -57.132812 39.847656 -56.460938 37.671875 -55.984375 C 35.492188 -55.503906 33.453125 -55.179688 31.546875 -55.015625 C 31.023438 -51.453125 30.65625 -48.171875 30.4375 -45.171875 C 30.21875 -42.171875 29.976562 -39.148438 29.71875 -36.109375 C 29.539062 -34.628906 29.382812 -33.128906 29.25 -31.609375 C 29.125 -30.085938 29.0625 -28.546875 29.0625 -26.984375 C 29.0625 -25.847656 29.101562 -24.519531 29.1875 -23 C 29.28125 -21.488281 29.585938 -20.035156 30.109375 -18.640625 C 30.628906 -17.253906 31.453125 -16.0625 32.578125 -15.0625 C 33.710938 -14.0625 35.28125 -13.5625 37.28125 -13.5625 C 38.5 -13.5625 39.757812 -13.664062 41.0625 -13.875 C 42.363281 -14.09375 43.664062 -14.203125 44.96875 -14.203125 C 47.226562 -14.203125 48.859375 -13.421875 49.859375 -11.859375 C 50.859375 -10.296875 51.359375 -8.296875 51.359375 -5.859375 C 51.359375 -4.035156 50.8125 -2.453125 49.71875 -1.109375 C 48.632812 0.234375 47.265625 1.316406 45.609375 2.140625 C 43.960938 2.972656 42.117188 3.601562 40.078125 4.03125 C 38.035156 4.46875 36.101562 4.6875 34.28125 4.6875 Z M 34.28125 4.6875 "/></g></g><g transform="translate(56.518226, 131.676641)"><g><path d="M 28.671875 3.78125 C 24.242188 3.78125 20.378906 2.601562 17.078125 0.25 C 13.773438 -2.09375 10.992188 -5.085938 8.734375 -8.734375 C 6.472656 -12.378906 4.773438 -16.441406 3.640625 -20.921875 C 2.515625 -25.398438 1.953125 -29.8125 1.953125 -34.15625 C 1.953125 -38.757812 2.515625 -43.515625 3.640625 -48.421875 C 4.773438 -53.335938 6.515625 -57.816406 8.859375 -61.859375 C 11.210938 -65.898438 14.210938 -69.203125 17.859375 -71.765625 C 21.503906 -74.328125 25.847656 -75.609375 30.890625 -75.609375 C 35.753906 -75.609375 39.90625 -74.28125 43.34375 -71.625 C 46.78125 -68.976562 49.539062 -65.675781 51.625 -61.71875 C 53.707031 -57.769531 55.179688 -53.445312 56.046875 -48.75 C 56.921875 -44.0625 57.226562 -39.628906 56.96875 -35.453125 C 56.707031 -30.847656 55.988281 -26.195312 54.8125 -21.5 C 53.644531 -16.8125 51.929688 -12.597656 49.671875 -8.859375 C 47.410156 -5.128906 44.539062 -2.09375 41.0625 0.25 C 37.582031 2.601562 33.453125 3.78125 28.671875 3.78125 Z M 29.984375 -55.140625 C 28.679688 -55.140625 27.53125 -54.441406 26.53125 -53.046875 C 25.53125 -51.660156 24.703125 -49.96875 24.046875 -47.96875 C 23.398438 -45.96875 22.898438 -43.859375 22.546875 -41.640625 C 22.203125 -39.429688 22.03125 -37.5 22.03125 -35.84375 C 22.03125 -33.757812 22.222656 -31.5 22.609375 -29.0625 C 23.003906 -26.632812 23.546875 -24.398438 24.234375 -22.359375 C 24.929688 -20.316406 25.78125 -18.617188 26.78125 -17.265625 C 27.78125 -15.921875 28.9375 -15.25 30.25 -15.25 C 31.632812 -15.25 32.828125 -15.898438 33.828125 -17.203125 C 34.828125 -18.503906 35.628906 -20.15625 36.234375 -22.15625 C 36.847656 -24.15625 37.285156 -26.347656 37.546875 -28.734375 C 37.804688 -31.128906 37.9375 -33.367188 37.9375 -35.453125 C 37.9375 -37.367188 37.757812 -39.476562 37.40625 -41.78125 C 37.0625 -44.082031 36.5625 -46.234375 35.90625 -48.234375 C 35.257812 -50.234375 34.4375 -51.882812 33.4375 -53.1875 C 32.4375 -54.488281 31.285156 -55.140625 29.984375 -55.140625 Z M 29.984375 -55.140625 "/></g></g><g transform="translate(116.218228, 131.676641)"><g><path d="M 60.09375 -85.78125 C 60.09375 -79.4375 59.851562 -73.132812 59.375 -66.875 C 58.894531 -60.613281 58.65625 -54.3125 58.65625 -47.96875 C 58.65625 -42.84375 58.804688 -37.757812 59.109375 -32.71875 C 59.421875 -27.675781 59.578125 -22.59375 59.578125 -17.46875 C 59.578125 -16.070312 59.53125 -14.394531 59.4375 -12.4375 C 59.351562 -10.488281 59.070312 -8.601562 58.59375 -6.78125 C 58.113281 -4.957031 57.332031 -3.390625 56.25 -2.078125 C 55.164062 -0.773438 53.625 -0.125 51.625 -0.125 C 49.007812 -0.125 46.851562 -1.101562 45.15625 -3.0625 C 43.46875 -5.019531 42.40625 -7.210938 41.96875 -9.640625 C 40.320312 -6.515625 37.929688 -3.863281 34.796875 -1.6875 C 31.671875 0.476562 28.285156 1.5625 24.640625 1.5625 C 20.722656 1.5625 17.351562 0.21875 14.53125 -2.46875 C 11.707031 -5.164062 9.359375 -8.425781 7.484375 -12.25 C 5.617188 -16.070312 4.226562 -20.066406 3.3125 -24.234375 C 2.40625 -28.410156 1.953125 -32.019531 1.953125 -35.0625 C 1.953125 -37.238281 2.082031 -39.71875 2.34375 -42.5 C 2.601562 -45.28125 3.054688 -48.101562 3.703125 -50.96875 C 4.359375 -53.832031 5.207031 -56.632812 6.25 -59.375 C 7.300781 -62.113281 8.628906 -64.566406 10.234375 -66.734375 C 11.835938 -68.910156 13.75 -70.648438 15.96875 -71.953125 C 18.1875 -73.253906 20.726562 -73.90625 23.59375 -73.90625 C 26.71875 -73.90625 29.710938 -72.992188 32.578125 -71.171875 C 35.453125 -69.347656 37.628906 -67.085938 39.109375 -64.390625 L 40.28125 -85.125 C 40.363281 -86.769531 40.492188 -88.703125 40.671875 -90.921875 C 40.847656 -93.140625 41.21875 -95.25 41.78125 -97.25 C 42.34375 -99.25 43.234375 -100.941406 44.453125 -102.328125 C 45.671875 -103.722656 47.453125 -104.421875 49.796875 -104.421875 C 52.316406 -104.421875 54.269531 -103.8125 55.65625 -102.59375 C 57.050781 -101.375 58.070312 -99.828125 58.71875 -97.953125 C 59.375 -96.085938 59.765625 -94.066406 59.890625 -91.890625 C 60.023438 -89.722656 60.09375 -87.6875 60.09375 -85.78125 Z M 38.84375 -27.890625 C 38.84375 -29.890625 38.796875 -31.84375 38.703125 -33.75 C 38.617188 -35.664062 38.625 -37.625 38.71875 -39.625 C 38.195312 -40.757812 37.585938 -42 36.890625 -43.34375 C 36.191406 -44.6875 35.34375 -45.945312 34.34375 -47.125 C 33.34375 -48.300781 32.234375 -49.28125 31.015625 -50.0625 C 29.804688 -50.84375 28.503906 -51.234375 27.109375 -51.234375 C 25.546875 -51.234375 24.285156 -50.753906 23.328125 -49.796875 C 22.378906 -48.835938 21.6875 -47.6875 21.25 -46.34375 C 20.8125 -45 20.523438 -43.539062 20.390625 -41.96875 C 20.265625 -40.40625 20.203125 -39.0625 20.203125 -37.9375 C 20.203125 -36.894531 20.289062 -35.351562 20.46875 -33.3125 C 20.644531 -31.269531 20.96875 -29.203125 21.4375 -27.109375 C 21.914062 -25.023438 22.585938 -23.203125 23.453125 -21.640625 C 24.328125 -20.078125 25.503906 -19.296875 26.984375 -19.296875 C 28.109375 -19.296875 29.234375 -19.535156 30.359375 -20.015625 C 31.492188 -20.492188 32.5625 -21.097656 33.5625 -21.828125 C 34.5625 -22.566406 35.515625 -23.394531 36.421875 -24.3125 C 37.335938 -25.226562 38.144531 -26.078125 38.84375 -26.859375 Z M 38.84375 -27.890625 "/></g></g><g transform="translate(181.001853, 131.676641)"><g><path d="M 59.3125 -18.375 C 59.3125 -16.8125 59.242188 -14.769531 59.109375 -12.25 C 58.984375 -9.726562 58.613281 -7.269531 58 -4.875 C 57.394531 -2.488281 56.441406 -0.429688 55.140625 1.296875 C 53.835938 3.035156 52.015625 3.90625 49.671875 3.90625 C 46.453125 3.90625 43.972656 2.863281 42.234375 0.78125 C 40.492188 -1.300781 39.671875 -3.910156 39.765625 -7.046875 C 36.984375 -4.609375 33.832031 -2.691406 30.3125 -1.296875 C 26.789062 0.0859375 23.203125 0.78125 19.546875 0.78125 C 17.023438 0.78125 14.632812 0.171875 12.375 -1.046875 C 10.125 -2.265625 8.128906 -3.828125 6.390625 -5.734375 C 4.648438 -7.648438 3.257812 -9.800781 2.21875 -12.1875 C 1.175781 -14.570312 0.65625 -16.941406 0.65625 -19.296875 C 0.65625 -23.460938 1.9375 -27.109375 4.5 -30.234375 C 7.0625 -33.367188 10.207031 -36.039062 13.9375 -38.25 C 17.675781 -40.46875 21.65625 -42.226562 25.875 -43.53125 C 30.09375 -44.84375 33.851562 -45.710938 37.15625 -46.140625 C 37.15625 -46.578125 37.175781 -46.96875 37.21875 -47.3125 C 37.257812 -47.664062 37.28125 -48.0625 37.28125 -48.5 C 37.28125 -51.1875 36.539062 -53.351562 35.0625 -55 C 33.582031 -56.65625 31.5 -57.484375 28.8125 -57.484375 C 26.632812 -57.484375 24.765625 -57.113281 23.203125 -56.375 C 21.640625 -55.632812 20.160156 -54.804688 18.765625 -53.890625 C 17.378906 -52.984375 15.988281 -52.160156 14.59375 -51.421875 C 13.207031 -50.679688 11.644531 -50.3125 9.90625 -50.3125 C 8 -50.3125 6.367188 -50.921875 5.015625 -52.140625 C 3.671875 -53.359375 3 -54.921875 3 -56.828125 C 3 -59.703125 3.84375 -62.3125 5.53125 -64.65625 C 7.226562 -67 9.359375 -68.972656 11.921875 -70.578125 C 14.484375 -72.191406 17.265625 -73.453125 20.265625 -74.359375 C 23.265625 -75.273438 26.023438 -75.734375 28.546875 -75.734375 C 30.890625 -75.734375 33.234375 -75.453125 35.578125 -74.890625 C 37.929688 -74.328125 40.148438 -73.457031 42.234375 -72.28125 C 44.316406 -71.101562 46.207031 -69.664062 47.90625 -67.96875 C 49.601562 -66.28125 50.972656 -64.304688 52.015625 -62.046875 C 53.578125 -58.828125 54.832031 -55.414062 55.78125 -51.8125 C 56.738281 -48.207031 57.476562 -44.515625 58 -40.734375 C 58.53125 -36.953125 58.878906 -33.171875 59.046875 -29.390625 C 59.222656 -25.609375 59.3125 -21.9375 59.3125 -18.375 Z M 38.453125 -22.546875 L 38.0625 -31.421875 C 37.882812 -31.421875 37.707031 -31.441406 37.53125 -31.484375 C 37.363281 -31.523438 37.191406 -31.546875 37.015625 -31.546875 C 35.890625 -31.546875 34.476562 -31.257812 32.78125 -30.6875 C 31.09375 -30.125 29.460938 -29.34375 27.890625 -28.34375 C 26.328125 -27.351562 25.003906 -26.25 23.921875 -25.03125 C 22.835938 -23.8125 22.296875 -22.550781 22.296875 -21.25 C 22.296875 -20.03125 22.726562 -19.203125 23.59375 -18.765625 C 24.457031 -18.335938 25.457031 -18.125 26.59375 -18.125 C 28.5 -18.125 30.539062 -18.625 32.71875 -19.625 C 34.894531 -20.625 36.804688 -21.597656 38.453125 -22.546875 Z M 38.453125 -22.546875 "/></g></g><g transform="translate(244.221287, 131.676641)"><g><path d="M 32.203125 37.9375 C 30.109375 37.9375 27.738281 37.609375 25.09375 36.953125 C 22.445312 36.304688 19.945312 35.375 17.59375 34.15625 C 15.25 32.9375 13.269531 31.457031 11.65625 29.71875 C 10.050781 27.976562 9.25 25.976562 9.25 23.71875 C 9.25 22.851562 9.46875 21.984375 9.90625 21.109375 C 10.34375 20.242188 10.929688 19.484375 11.671875 18.828125 C 12.410156 18.179688 13.210938 17.660156 14.078125 17.265625 C 14.941406 16.878906 15.851562 16.6875 16.8125 16.6875 C 17.851562 16.6875 18.875 16.835938 19.875 17.140625 C 20.875 17.441406 21.894531 17.8125 22.9375 18.25 C 24.070312 18.6875 25.179688 19.078125 26.265625 19.421875 C 27.347656 19.765625 28.5 19.9375 29.71875 19.9375 C 31.894531 19.9375 33.785156 19.195312 35.390625 17.71875 C 36.992188 16.25 38.359375 14.316406 39.484375 11.921875 C 40.617188 9.535156 41.535156 6.882812 42.234375 3.96875 C 42.929688 1.0625 43.472656 -1.820312 43.859375 -4.6875 C 44.253906 -7.5625 44.535156 -10.257812 44.703125 -12.78125 C 44.878906 -15.300781 45.015625 -17.34375 45.109375 -18.90625 C 42.066406 -14.300781 39.046875 -10.757812 36.046875 -8.28125 C 33.046875 -5.800781 29.375 -4.5625 25.03125 -4.5625 C 21.726562 -4.5625 18.835938 -5.253906 16.359375 -6.640625 C 13.878906 -8.035156 11.769531 -9.863281 10.03125 -12.125 C 8.300781 -14.382812 6.867188 -16.96875 5.734375 -19.875 C 4.609375 -22.789062 3.757812 -25.8125 3.1875 -28.9375 C 2.625 -32.0625 2.253906 -35.125 2.078125 -38.125 C 1.910156 -41.125 1.910156 -43.882812 2.078125 -46.40625 C 2.171875 -48.320312 2.410156 -50.820312 2.796875 -53.90625 C 3.191406 -56.988281 3.820312 -60.003906 4.6875 -62.953125 C 5.5625 -65.910156 6.78125 -68.410156 8.34375 -70.453125 C 9.90625 -72.492188 11.945312 -73.429688 14.46875 -73.265625 C 16.125 -73.171875 17.472656 -72.453125 18.515625 -71.109375 C 19.554688 -69.765625 20.398438 -68.09375 21.046875 -66.09375 C 21.703125 -64.09375 22.179688 -61.894531 22.484375 -59.5 C 22.785156 -57.113281 22.976562 -54.75 23.0625 -52.40625 C 23.15625 -50.0625 23.179688 -47.910156 23.140625 -45.953125 C 23.097656 -43.992188 23.078125 -42.492188 23.078125 -41.453125 C 23.078125 -39.972656 23.117188 -38.492188 23.203125 -37.015625 C 23.285156 -35.546875 23.585938 -34.222656 24.109375 -33.046875 C 24.628906 -31.867188 25.429688 -30.929688 26.515625 -30.234375 C 27.609375 -29.546875 29.15625 -29.203125 31.15625 -29.203125 C 33.414062 -29.203125 35.21875 -29.765625 36.5625 -30.890625 C 37.90625 -32.023438 38.90625 -33.4375 39.5625 -35.125 C 40.21875 -36.820312 40.628906 -38.644531 40.796875 -40.59375 C 40.972656 -42.550781 41.0625 -44.398438 41.0625 -46.140625 C 41.0625 -47.359375 41.0625 -48.835938 41.0625 -50.578125 C 41.0625 -52.316406 41.082031 -54.140625 41.125 -56.046875 C 41.164062 -57.960938 41.335938 -59.851562 41.640625 -61.71875 C 41.953125 -63.59375 42.429688 -65.289062 43.078125 -66.8125 C 43.734375 -68.332031 44.601562 -69.566406 45.6875 -70.515625 C 46.769531 -71.472656 48.179688 -71.953125 49.921875 -71.953125 C 52.097656 -71.953125 53.96875 -71.101562 55.53125 -69.40625 C 57.09375 -67.71875 58.414062 -65.503906 59.5 -62.765625 C 60.59375 -60.023438 61.460938 -57.003906 62.109375 -53.703125 C 62.765625 -50.398438 63.265625 -47.117188 63.609375 -43.859375 C 63.960938 -40.597656 64.203125 -37.597656 64.328125 -34.859375 C 64.460938 -32.128906 64.53125 -29.984375 64.53125 -28.421875 C 64.53125 -24.765625 64.398438 -20.613281 64.140625 -15.96875 C 63.878906 -11.320312 63.378906 -6.539062 62.640625 -1.625 C 61.898438 3.28125 60.789062 8.097656 59.3125 12.828125 C 57.832031 17.566406 55.894531 21.804688 53.5 25.546875 C 51.113281 29.285156 48.179688 32.285156 44.703125 34.546875 C 41.234375 36.804688 37.066406 37.9375 32.203125 37.9375 Z M 32.203125 37.9375 "/></g></g></g></g></g></svg>