<svg xmlns="http://www.w3.org/2000/svg" xmlns:xlink="http://www.w3.org/1999/xlink" width="1080" zoomAndPan="magnify" viewBox="0 0 810 809.999993" height="1080" preserveAspectRatio="xMidYMid meet" version="1.0"><defs><clipPath id="4c86c0568e"><path d="M 621.414062 272.308594 L 792.3125 272.308594 L 792.3125 537.492188 L 621.414062 537.492188 Z M 621.414062 272.308594 " clip-rule="nonzero"/></clipPath><clipPath id="0c853861d9"><path d="M 780.804688 428.542969 L 650.941406 533.296875 C 645.566406 537.632812 638.179688 538.496094 631.949219 535.515625 C 625.71875 532.539062 621.753906 526.246094 621.753906 519.339844 L 621.753906 290.65625 C 621.753906 283.75 625.71875 277.457031 631.949219 274.476562 C 638.179688 271.5 645.566406 272.363281 650.941406 276.699219 L 780.804688 381.453125 C 787.921875 387.195312 792.0625 395.851562 792.0625 404.996094 C 792.0625 414.144531 787.921875 422.800781 780.804688 428.542969 Z M 780.804688 428.542969 " clip-rule="nonzero"/></clipPath><clipPath id="871ab94665"><path d="M 0.601562 0.308594 L 171.238281 0.308594 L 171.238281 265.492188 L 0.601562 265.492188 Z M 0.601562 0.308594 " clip-rule="nonzero"/></clipPath><clipPath id="0f09549f75"><path d="M 159.804688 156.542969 L 29.941406 261.296875 C 24.566406 265.632812 17.179688 266.496094 10.949219 263.515625 C 4.71875 260.539062 0.753906 254.246094 0.753906 247.339844 L 0.753906 18.65625 C 0.753906 11.75 4.71875 5.457031 10.949219 2.476562 C 17.179688 -0.5 24.566406 0.363281 29.941406 4.699219 L 159.804688 109.453125 C 166.921875 115.195312 171.0625 123.851562 171.0625 132.996094 C 171.0625 142.144531 166.921875 150.800781 159.804688 156.542969 Z M 159.804688 156.542969 " clip-rule="nonzero"/></clipPath><clipPath id="7c29dc6b9a"><rect x="0" width="172" y="0" height="266"/></clipPath><clipPath id="b2e3fe8626"><path d="M 65 52 L 656 52 L 656 763.4375 L 65 763.4375 Z M 65 52 " clip-rule="nonzero"/></clipPath></defs><g clip-path="url(#4c86c0568e)"><g clip-path="url(#0c853861d9)"><g transform="matrix(1, 0, 0, 1, 621, 272)"><g clip-path="url(#7c29dc6b9a)"><g clip-path="url(#871ab94665)"><g clip-path="url(#0f09549f75)"><path fill="#ff6359" d="M 188.992188 -18.84375 L 188.992188 284.644531 L 0.414062 284.644531 L 0.414062 -18.84375 Z M 188.992188 -18.84375 " fill-opacity="1" fill-rule="nonzero"/></g></g></g></g></g></g><g clip-path="url(#b2e3fe8626)"><path fill="#ff6359" d="M 93.128906 659.042969 C 116.476562 699.070312 152.054688 729.089844 197.640625 746.878906 C 225.988281 757.996094 256.007812 763.554688 287.695312 763.554688 C 300.480469 763.554688 313.824219 762.441406 327.164062 760.773438 C 378.308594 754.105469 424.449219 734.089844 465.027344 701.292969 C 465.585938 700.738281 466.695312 700.179688 467.253906 699.625 C 467.253906 699.625 492.269531 728.53125 501.71875 740.207031 C 505.609375 745.210938 510.613281 747.433594 516.726562 747.433594 C 542.855469 747.433594 626.796875 747.433594 626.796875 747.433594 C 641.25 747.433594 646.808594 739.652344 647.921875 736.316406 C 649.589844 732.980469 651.8125 723.53125 642.363281 712.410156 L 546.191406 602.34375 C 557.308594 582.328125 565.648438 560.648438 571.761719 535.078125 C 576.765625 515.066406 579.546875 493.941406 581.769531 467.257812 L 622.351562 467.257812 C 640.695312 467.257812 655.703125 452.246094 655.703125 433.902344 L 655.703125 387.207031 C 655.703125 368.863281 640.695312 353.851562 622.351562 353.851562 L 502.273438 353.851562 C 483.929688 353.851562 468.921875 368.863281 468.921875 387.207031 C 468.921875 401.660156 467.808594 420.003906 467.808594 431.125 C 467.808594 463.367188 458.914062 503.390625 458.359375 505.058594 L 368.859375 404.441406 C 389.425781 391.65625 413.886719 374.421875 434.453125 351.628906 C 474.480469 307.710938 490.042969 254.902344 480.039062 194.308594 C 471.699219 139.828125 441.125 99.25 389.425781 73.675781 C 344.398438 51.441406 294.367188 46.4375 242.109375 58.667969 C 201.53125 68.671875 168.730469 90.355469 144.828125 122.039062 C 126.484375 145.945312 115.921875 174.851562 112.03125 207.09375 C 108.695312 240.449219 112.585938 270.46875 124.257812 297.707031 C 132.597656 316.605469 144.273438 334.953125 162.617188 357.1875 C 166.507812 361.636719 169.84375 366.082031 173.734375 369.972656 C 167.621094 374.421875 160.949219 379.425781 154.277344 383.871094 C 124.257812 407.21875 102.023438 432.792969 87.570312 461.699219 C 70.890625 493.941406 63.664062 530.074219 66.445312 568.988281 C 68.667969 601.785156 77.5625 632.359375 93.128906 659.042969 Z M 225.433594 219.324219 C 228.214844 194.863281 239.332031 177.074219 261.011719 166.511719 C 284.359375 155.394531 308.265625 155.394531 331.054688 166.511719 C 355.515625 178.1875 366.632812 203.757812 366.632812 230.441406 C 366.632812 259.90625 353.847656 282.695312 331.054688 299.375 C 317.160156 309.378906 301.59375 317.71875 287.140625 327.167969 C 286.582031 327.726562 284.359375 327.167969 283.804688 326.613281 C 267.683594 309.9375 251.003906 293.816406 238.777344 273.246094 C 228.769531 257.125 223.210938 239.335938 225.433594 219.324219 Z M 213.761719 473.929688 C 227.101562 463.367188 241 453.914062 255.453125 443.910156 C 304.371094 500.054688 352.734375 555.089844 401.101562 610.679688 C 394.984375 617.90625 388.3125 624.023438 380.53125 629.027344 C 363.855469 640.144531 344.953125 646.257812 325.496094 649.59375 C 302.148438 652.929688 279.355469 652.929688 256.566406 646.816406 C 230.992188 639.585938 209.3125 625.691406 194.859375 602.34375 C 173.734375 568.433594 170.957031 508.394531 213.761719 473.929688 Z M 213.761719 473.929688 " fill-opacity="1" fill-rule="nonzero"/></g></svg>