<svg xmlns="http://www.w3.org/2000/svg" xmlns:xlink="http://www.w3.org/1999/xlink" width="1080" zoomAndPan="magnify" viewBox="0 0 810 809.999993" height="1080" preserveAspectRatio="xMidYMid meet" version="1.0"><defs><g/><clipPath id="4fa3ca6eef"><path d="M 530.207031 215 L 639.1875 215 L 639.1875 382.425781 L 530.207031 382.425781 Z M 530.207031 215 " clip-rule="nonzero"/></clipPath><clipPath id="91137ab3a3"><path d="M 629.917969 317.9375 L 554.308594 378.929688 C 549.902344 382.484375 543.847656 383.191406 538.738281 380.75 C 533.632812 378.308594 530.382812 373.152344 530.382812 367.492188 L 530.382812 229.789062 C 530.382812 224.128906 533.632812 218.972656 538.738281 216.527344 C 543.847656 214.085938 549.902344 214.796875 554.308594 218.347656 L 629.917969 279.34375 C 635.753906 284.046875 639.144531 291.144531 639.144531 298.640625 C 639.144531 306.136719 635.753906 313.230469 629.917969 317.9375 Z M 629.917969 317.9375 " clip-rule="nonzero"/></clipPath><clipPath id="f1ece65520"><path d="M 629.917969 317.9375 L 554.308594 378.929688 C 549.902344 382.484375 543.847656 383.191406 538.738281 380.75 C 533.632812 378.308594 530.382812 373.152344 530.382812 367.492188 L 530.382812 229.789062 C 530.382812 224.128906 533.632812 218.972656 538.738281 216.527344 C 543.847656 214.085938 549.902344 214.796875 554.308594 218.347656 L 629.917969 279.34375 C 635.753906 284.046875 639.144531 291.144531 639.144531 298.640625 C 639.144531 306.136719 635.753906 313.230469 629.917969 317.9375 Z M 629.917969 317.9375 " clip-rule="nonzero"/></clipPath><clipPath id="da6ecdcf82"><path d="M 160 67 L 547.617188 67 L 547.617188 533.753906 L 160 533.753906 Z M 160 67 " clip-rule="nonzero"/></clipPath></defs><g clip-path="url(#4fa3ca6eef)"><g clip-path="url(#91137ab3a3)"><g clip-path="url(#f1ece65520)"><path fill="#ff6359" d="M 530.164062 199.050781 L 653.839844 199.050781 L 653.839844 398.101562 L 530.164062 398.101562 Z M 530.164062 199.050781 " fill-opacity="1" fill-rule="nonzero"/></g></g></g><g clip-path="url(#da6ecdcf82)"><path fill="#ff6359" d="M 178.257812 465.265625 C 193.574219 491.515625 216.90625 511.203125 246.804688 522.871094 C 265.398438 530.164062 285.089844 533.8125 305.871094 533.8125 C 314.253906 533.8125 323.007812 533.082031 331.757812 531.988281 C 365.300781 527.613281 395.5625 514.484375 422.179688 492.976562 C 422.542969 492.609375 423.273438 492.246094 423.636719 491.882812 C 423.636719 491.882812 440.042969 510.839844 446.242188 518.496094 C 448.796875 521.78125 452.078125 523.234375 456.089844 523.234375 C 473.226562 523.234375 528.28125 523.234375 528.28125 523.234375 C 537.757812 523.234375 541.402344 518.132812 542.132812 515.945312 C 543.230469 513.753906 544.6875 507.558594 538.488281 500.265625 L 475.410156 428.074219 C 482.703125 414.949219 488.175781 400.730469 492.183594 383.957031 C 495.464844 370.832031 497.285156 356.976562 498.746094 339.476562 L 525.363281 339.476562 C 537.394531 339.476562 547.238281 329.632812 547.238281 317.601562 L 547.238281 286.976562 C 547.238281 274.941406 537.394531 265.097656 525.363281 265.097656 L 446.609375 265.097656 C 434.574219 265.097656 424.730469 274.941406 424.730469 286.976562 C 424.730469 296.453125 424.003906 308.484375 424.003906 315.777344 C 424.003906 336.921875 418.167969 363.175781 417.804688 364.269531 L 359.101562 298.277344 C 372.59375 289.890625 388.636719 278.585938 402.125 263.640625 C 428.378906 234.835938 438.585938 200.195312 432.023438 160.457031 C 426.554688 124.722656 406.503906 98.109375 372.59375 81.335938 C 343.0625 66.753906 310.246094 63.472656 275.976562 71.492188 C 249.359375 78.058594 227.84375 92.277344 212.167969 113.054688 C 200.136719 128.734375 193.207031 147.695312 190.65625 168.839844 C 188.46875 190.71875 191.019531 210.40625 198.675781 228.273438 C 204.144531 240.671875 211.804688 252.699219 223.835938 267.285156 C 226.386719 270.199219 228.574219 273.117188 231.128906 275.667969 C 227.117188 278.585938 222.742188 281.867188 218.367188 284.785156 C 198.675781 300.097656 184.09375 316.871094 174.613281 335.832031 C 163.675781 356.976562 158.9375 380.675781 160.757812 406.199219 C 162.21875 427.710938 168.050781 447.761719 178.257812 465.265625 Z M 265.035156 176.863281 C 266.859375 160.820312 274.148438 149.152344 288.367188 142.226562 C 303.683594 134.933594 319.363281 134.933594 334.3125 142.226562 C 350.351562 149.882812 357.644531 166.65625 357.644531 184.15625 C 357.644531 203.480469 349.257812 218.429688 334.3125 229.363281 C 325.195312 235.929688 314.984375 241.398438 305.507812 247.597656 C 305.144531 247.960938 303.683594 247.597656 303.316406 247.230469 C 292.746094 236.292969 281.808594 225.722656 273.785156 212.230469 C 267.222656 201.65625 263.578125 189.988281 265.035156 176.863281 Z M 257.378906 343.851562 C 266.128906 336.921875 275.246094 330.726562 284.726562 324.164062 C 316.808594 360.988281 348.53125 397.085938 380.25 433.542969 C 376.238281 438.28125 371.867188 442.292969 366.757812 445.578125 C 355.820312 452.867188 343.421875 456.878906 330.664062 459.066406 C 315.351562 461.253906 300.402344 461.253906 285.453125 457.242188 C 268.679688 452.503906 254.460938 443.390625 244.980469 428.074219 C 231.128906 405.835938 229.304688 366.457031 257.378906 343.851562 Z M 257.378906 343.851562 " fill-opacity="1" fill-rule="nonzero"/></g><path fill="#ff6359" d="M 195.238281 572.710938 L 214.78125 572.710938 L 214.78125 644.851562 L 195.238281 644.851562 L 195.238281 636.757812 C 191.242188 641.96875 185.195312 644.570312 177.101562 644.570312 C 167.242188 644.667969 158.777344 641.222656 151.707031 634.246094 C 144.636719 627.273438 141.054688 618.808594 140.960938 608.851562 C 140.863281 598.988281 144.308594 590.523438 151.285156 583.453125 C 158.257812 576.382812 166.722656 572.804688 176.679688 572.710938 C 184.867188 572.710938 191.054688 575.359375 195.238281 580.664062 Z M 189.386719 621.132812 C 192.824219 617.695312 194.546875 613.507812 194.546875 608.570312 C 194.546875 603.546875 192.777344 599.359375 189.246094 596.003906 C 185.710938 592.46875 181.566406 590.800781 176.820312 590.984375 C 171.894531 590.984375 167.707031 592.707031 164.257812 596.144531 C 160.816406 599.589844 159.097656 603.777344 159.097656 608.710938 C 159.097656 613.550781 160.863281 617.738281 164.398438 621.273438 C 167.847656 624.714844 172.035156 626.433594 176.960938 626.433594 C 181.984375 626.25 186.121094 624.480469 189.386719 621.132812 Z M 189.386719 621.132812 " fill-opacity="1" fill-rule="nonzero"/><path fill="#ff6359" d="M 257.472656 573.257812 C 267.710938 572.425781 276.175781 575.074219 282.871094 581.214844 C 290.03125 587.820312 293.617188 597.082031 293.617188 608.992188 L 293.617188 644.851562 L 275.480469 644.851562 L 275.480469 609.402344 L 275.339844 609.402344 L 275.339844 609.132812 C 275.339844 604.199219 273.617188 600.011719 270.179688 596.570312 C 266.738281 593.128906 262.546875 591.40625 257.613281 591.40625 C 252.59375 591.597656 248.410156 593.363281 245.0625 596.710938 C 241.519531 600.246094 239.839844 604.433594 240.03125 609.273438 L 240.03125 609.402344 L 239.890625 609.402344 L 239.890625 644.851562 L 220.359375 644.851562 L 220.359375 572.710938 L 239.890625 572.710938 L 239.890625 582.058594 C 244.257812 576.851562 250.121094 573.917969 257.472656 573.257812 Z M 257.472656 573.257812 " fill-opacity="1" fill-rule="nonzero"/><path fill="#ff6359" d="M 355.433594 644.851562 L 355.433594 636.617188 C 348.730469 642.109375 341.148438 644.851562 332.691406 644.851562 C 322.828125 644.945312 314.363281 641.507812 307.292969 634.53125 C 300.222656 627.546875 296.640625 619.082031 296.546875 609.132812 C 296.453125 599.269531 299.894531 590.804688 306.871094 583.734375 C 313.84375 576.660156 322.308594 573.078125 332.265625 572.992188 C 340.925781 572.992188 348.597656 575.730469 355.292969 581.214844 L 355.292969 547.453125 L 374.839844 547.453125 L 374.964844 644.851562 Z M 345.113281 621.402344 C 348.550781 617.964844 350.273438 613.777344 350.273438 608.851562 C 350.085938 603.824219 348.316406 599.636719 344.972656 596.285156 C 341.4375 592.941406 337.25 591.265625 332.40625 591.265625 C 327.480469 591.265625 323.292969 592.988281 319.84375 596.429688 C 316.402344 600.246094 314.726562 604.433594 314.824219 608.992188 C 314.824219 613.917969 316.542969 618.105469 319.984375 621.542969 C 323.433594 624.996094 327.621094 626.71875 332.546875 626.71875 C 337.570312 626.53125 341.757812 624.757812 345.113281 621.402344 Z M 345.113281 621.402344 " fill-opacity="1" fill-rule="nonzero"/><path fill="#ff6359" d="M 441.253906 554.152344 L 463.015625 554.152344 L 463.015625 644.851562 L 402.871094 600.617188 L 402.871094 644.851562 L 381.113281 644.851562 L 381.113281 554.152344 L 441.253906 600.476562 Z M 441.253906 554.152344 " fill-opacity="1" fill-rule="nonzero"/><path fill="#ff6359" d="M 538.367188 612.054688 C 538.460938 614.007812 538.460938 615.175781 538.367188 615.550781 L 485.898438 615.410156 C 486.644531 617.554688 487.996094 619.597656 489.945312 621.542969 C 493.570312 624.996094 497.757812 626.71875 502.507812 626.71875 C 507.527344 626.53125 511.714844 624.757812 515.070312 621.402344 L 515.621094 620.851562 L 533.769531 626.574219 C 529.765625 632.808594 525.578125 637.277344 521.207031 639.972656 C 516.277344 643.132812 510.09375 644.757812 502.648438 644.851562 C 492.785156 644.945312 484.320312 641.507812 477.25 634.53125 C 470.183594 627.546875 466.597656 619.082031 466.507812 609.132812 C 466.410156 599.269531 469.851562 590.804688 476.828125 583.734375 C 483.804688 576.660156 492.269531 573.078125 502.226562 572.992188 C 512.085938 572.898438 520.554688 576.339844 527.621094 583.3125 C 534.691406 590.289062 538.273438 598.753906 538.367188 608.710938 Z M 502.367188 591.265625 C 497.4375 591.265625 493.25 592.988281 489.804688 596.429688 C 488.035156 598.382812 486.78125 600.339844 486.039062 602.292969 L 518.835938 602.292969 C 518.09375 600.339844 516.789062 598.335938 514.929688 596.285156 C 511.394531 592.941406 507.207031 591.265625 502.367188 591.265625 Z M 502.367188 591.265625 " fill-opacity="1" fill-rule="nonzero"/><path fill="#ff6359" d="M 595.578125 644.851562 L 573.117188 622.527344 L 550.792969 644.851562 L 536.972656 631.03125 L 559.296875 608.710938 L 536.972656 586.246094 L 550.792969 572.425781 L 573.117188 594.890625 L 595.578125 572.425781 L 609.398438 586.246094 L 586.933594 608.710938 L 609.398438 631.03125 Z M 595.578125 644.851562 " fill-opacity="1" fill-rule="nonzero"/><path fill="#ff6359" d="M 668.136719 572.992188 L 668.136719 592.523438 L 652.089844 592.523438 L 652.089844 644.851562 L 632.558594 644.851562 L 632.558594 592.523438 L 616.371094 592.523438 L 616.371094 572.992188 L 632.558594 572.992188 L 632.558594 547.863281 L 652.089844 547.863281 L 652.089844 572.992188 Z M 668.136719 572.992188 " fill-opacity="1" fill-rule="nonzero"/><g fill="#ff6359" fill-opacity="1"><g transform="translate(458.233895, 719.262176)"><g><path d="M 26 3.5625 C 21.320312 3.5625 17.679688 2.953125 15.078125 1.734375 C 12.472656 0.515625 10.523438 -1.210938 9.234375 -3.453125 C 7.953125 -5.703125 7.179688 -8.40625 6.921875 -11.5625 C 6.660156 -14.726562 6.53125 -18.257812 6.53125 -22.15625 C 6.53125 -25.25 6.628906 -28.359375 6.828125 -31.484375 C 7.023438 -34.617188 7.320312 -37.96875 7.71875 -41.53125 C 6.789062 -41.53125 6.0625 -41.507812 5.53125 -41.46875 C 5.007812 -41.4375 4.582031 -41.421875 4.25 -41.421875 C 2.144531 -41.421875 0.316406 -41.882812 -1.234375 -42.8125 C -2.785156 -43.738281 -3.5625 -45.15625 -3.5625 -47.0625 C -3.5625 -48.25 -3.113281 -49.300781 -2.21875 -50.21875 C -1.332031 -51.144531 -0.195312 -51.9375 1.1875 -52.59375 C 2.570312 -53.257812 4.070312 -53.789062 5.6875 -54.1875 C 7.300781 -54.582031 8.832031 -54.84375 10.28125 -54.96875 C 10.28125 -56.820312 10.410156 -58.867188 10.671875 -61.109375 C 10.941406 -63.347656 11.421875 -65.4375 12.109375 -67.375 C 12.804688 -69.320312 13.742188 -70.953125 14.921875 -72.265625 C 16.109375 -73.585938 17.628906 -74.25 19.484375 -74.25 C 20.535156 -74.25 21.472656 -73.9375 22.296875 -73.3125 C 23.117188 -72.6875 23.789062 -71.894531 24.3125 -70.9375 C 24.84375 -69.988281 25.238281 -68.921875 25.5 -67.734375 C 25.769531 -66.546875 25.90625 -65.390625 25.90625 -64.265625 C 25.90625 -62.953125 25.804688 -61.601562 25.609375 -60.21875 C 25.410156 -58.832031 25.046875 -57.117188 24.515625 -55.078125 C 25.640625 -55.203125 26.398438 -55.28125 26.796875 -55.3125 C 27.191406 -55.351562 27.554688 -55.375 27.890625 -55.375 C 29.003906 -55.375 30.171875 -55.273438 31.390625 -55.078125 C 32.609375 -54.878906 33.726562 -54.546875 34.75 -54.078125 C 35.769531 -53.617188 36.609375 -53.007812 37.265625 -52.25 C 37.929688 -51.5 38.265625 -50.59375 38.265625 -49.53125 C 38.265625 -48.34375 37.785156 -47.285156 36.828125 -46.359375 C 35.867188 -45.441406 34.664062 -44.65625 33.21875 -44 C 31.769531 -43.34375 30.222656 -42.832031 28.578125 -42.46875 C 26.929688 -42.101562 25.378906 -41.851562 23.921875 -41.71875 C 23.523438 -39.019531 23.242188 -36.53125 23.078125 -34.25 C 22.921875 -31.976562 22.742188 -29.691406 22.546875 -27.390625 C 22.410156 -26.265625 22.289062 -25.125 22.1875 -23.96875 C 22.09375 -22.820312 22.046875 -21.65625 22.046875 -20.46875 C 22.046875 -19.613281 22.078125 -18.609375 22.140625 -17.453125 C 22.210938 -16.296875 22.445312 -15.191406 22.84375 -14.140625 C 23.238281 -13.085938 23.863281 -12.179688 24.71875 -11.421875 C 25.570312 -10.660156 26.757812 -10.28125 28.28125 -10.28125 C 29.195312 -10.28125 30.148438 -10.363281 31.140625 -10.53125 C 32.128906 -10.695312 33.117188 -10.78125 34.109375 -10.78125 C 35.828125 -10.78125 37.0625 -10.1875 37.8125 -9 C 38.570312 -7.8125 38.953125 -6.296875 38.953125 -4.453125 C 38.953125 -3.066406 38.539062 -1.863281 37.71875 -0.84375 C 36.894531 0.175781 35.859375 1 34.609375 1.625 C 33.359375 2.257812 31.957031 2.738281 30.40625 3.0625 C 28.851562 3.394531 27.382812 3.5625 26 3.5625 Z M 26 3.5625 "/></g></g><g transform="translate(496.202644, 719.262176)"><g><path d="M 21.75 2.875 C 18.382812 2.875 15.453125 1.984375 12.953125 0.203125 C 10.453125 -1.578125 8.34375 -3.851562 6.625 -6.625 C 4.90625 -9.394531 3.617188 -12.476562 2.765625 -15.875 C 1.910156 -19.269531 1.484375 -22.613281 1.484375 -25.90625 C 1.484375 -29.394531 1.910156 -33 2.765625 -36.71875 C 3.617188 -40.445312 4.9375 -43.84375 6.71875 -46.90625 C 8.5 -49.976562 10.773438 -52.484375 13.546875 -54.421875 C 16.316406 -56.367188 19.613281 -57.34375 23.4375 -57.34375 C 27.125 -57.34375 30.269531 -56.335938 32.875 -54.328125 C 35.476562 -52.316406 37.570312 -49.8125 39.15625 -46.8125 C 40.738281 -43.8125 41.859375 -40.53125 42.515625 -36.96875 C 43.171875 -33.414062 43.398438 -30.054688 43.203125 -26.890625 C 43.003906 -23.398438 42.460938 -19.875 41.578125 -16.3125 C 40.691406 -12.75 39.390625 -9.550781 37.671875 -6.71875 C 35.953125 -3.882812 33.773438 -1.578125 31.140625 0.203125 C 28.503906 1.984375 25.375 2.875 21.75 2.875 Z M 22.734375 -41.828125 C 21.753906 -41.828125 20.882812 -41.296875 20.125 -40.234375 C 19.363281 -39.179688 18.734375 -37.894531 18.234375 -36.375 C 17.742188 -34.863281 17.363281 -33.265625 17.09375 -31.578125 C 16.832031 -29.898438 16.703125 -28.4375 16.703125 -27.1875 C 16.703125 -25.601562 16.847656 -23.890625 17.140625 -22.046875 C 17.441406 -20.203125 17.859375 -18.503906 18.390625 -16.953125 C 18.921875 -15.410156 19.5625 -14.125 20.3125 -13.09375 C 21.070312 -12.070312 21.945312 -11.5625 22.9375 -11.5625 C 23.988281 -11.5625 24.894531 -12.054688 25.65625 -13.046875 C 26.414062 -14.035156 27.023438 -15.285156 27.484375 -16.796875 C 27.953125 -18.316406 28.28125 -19.984375 28.46875 -21.796875 C 28.664062 -23.609375 28.765625 -25.304688 28.765625 -26.890625 C 28.765625 -28.335938 28.632812 -29.9375 28.375 -31.6875 C 28.113281 -33.4375 27.734375 -35.066406 27.234375 -36.578125 C 26.742188 -38.097656 26.117188 -39.351562 25.359375 -40.34375 C 24.597656 -41.332031 23.722656 -41.828125 22.734375 -41.828125 Z M 22.734375 -41.828125 "/></g></g><g transform="translate(541.488286, 719.262176)"><g><path d="M 45.578125 -65.0625 C 45.578125 -60.25 45.394531 -55.46875 45.03125 -50.71875 C 44.675781 -45.976562 44.5 -41.203125 44.5 -36.390625 C 44.5 -32.492188 44.613281 -28.632812 44.84375 -24.8125 C 45.070312 -20.988281 45.1875 -17.132812 45.1875 -13.25 C 45.1875 -12.195312 45.148438 -10.925781 45.078125 -9.4375 C 45.015625 -7.957031 44.800781 -6.523438 44.4375 -5.140625 C 44.082031 -3.753906 43.488281 -2.566406 42.65625 -1.578125 C 41.832031 -0.585938 40.664062 -0.09375 39.15625 -0.09375 C 37.175781 -0.09375 35.539062 -0.832031 34.25 -2.3125 C 32.96875 -3.800781 32.164062 -5.46875 31.84375 -7.3125 C 30.582031 -4.9375 28.765625 -2.925781 26.390625 -1.28125 C 24.023438 0.363281 21.457031 1.1875 18.6875 1.1875 C 15.71875 1.1875 13.160156 0.164062 11.015625 -1.875 C 8.878906 -3.914062 7.101562 -6.382812 5.6875 -9.28125 C 4.269531 -12.1875 3.210938 -15.222656 2.515625 -18.390625 C 1.828125 -21.554688 1.484375 -24.289062 1.484375 -26.59375 C 1.484375 -28.238281 1.582031 -30.113281 1.78125 -32.21875 C 1.976562 -34.332031 2.320312 -36.476562 2.8125 -38.65625 C 3.3125 -40.832031 3.957031 -42.957031 4.75 -45.03125 C 5.539062 -47.113281 6.546875 -48.976562 7.765625 -50.625 C 8.984375 -52.269531 10.429688 -53.585938 12.109375 -54.578125 C 13.796875 -55.566406 15.722656 -56.0625 17.890625 -56.0625 C 20.265625 -56.0625 22.539062 -55.367188 24.71875 -53.984375 C 26.894531 -52.597656 28.539062 -50.882812 29.65625 -48.84375 L 30.546875 -64.5625 C 30.617188 -65.820312 30.71875 -67.289062 30.84375 -68.96875 C 30.976562 -70.644531 31.257812 -72.238281 31.6875 -73.75 C 32.113281 -75.269531 32.785156 -76.554688 33.703125 -77.609375 C 34.628906 -78.671875 35.984375 -79.203125 37.765625 -79.203125 C 39.679688 -79.203125 41.164062 -78.738281 42.21875 -77.8125 C 43.269531 -76.894531 44.039062 -75.726562 44.53125 -74.3125 C 45.03125 -72.894531 45.328125 -71.359375 45.421875 -69.703125 C 45.523438 -68.054688 45.578125 -66.507812 45.578125 -65.0625 Z M 29.46875 -21.15625 C 29.46875 -22.675781 29.429688 -24.160156 29.359375 -25.609375 C 29.296875 -27.054688 29.296875 -28.539062 29.359375 -30.0625 C 28.960938 -30.914062 28.5 -31.851562 27.96875 -32.875 C 27.445312 -33.894531 26.804688 -34.847656 26.046875 -35.734375 C 25.296875 -36.628906 24.457031 -37.375 23.53125 -37.96875 C 22.613281 -38.5625 21.625 -38.859375 20.5625 -38.859375 C 19.375 -38.859375 18.414062 -38.492188 17.6875 -37.765625 C 16.96875 -37.046875 16.441406 -36.175781 16.109375 -35.15625 C 15.785156 -34.132812 15.570312 -33.03125 15.46875 -31.84375 C 15.375 -30.65625 15.328125 -29.628906 15.328125 -28.765625 C 15.328125 -27.984375 15.390625 -26.816406 15.515625 -25.265625 C 15.648438 -23.710938 15.898438 -22.144531 16.265625 -20.5625 C 16.628906 -18.976562 17.140625 -17.59375 17.796875 -16.40625 C 18.453125 -15.226562 19.34375 -14.640625 20.46875 -14.640625 C 21.320312 -14.640625 22.175781 -14.816406 23.03125 -15.171875 C 23.894531 -15.535156 24.703125 -16 25.453125 -16.5625 C 26.210938 -17.125 26.9375 -17.75 27.625 -18.4375 C 28.320312 -19.132812 28.9375 -19.78125 29.46875 -20.375 Z M 29.46875 -21.15625 "/></g></g><g transform="translate(590.630129, 719.262176)"><g><path d="M 44.984375 -13.9375 C 44.984375 -12.75 44.929688 -11.195312 44.828125 -9.28125 C 44.734375 -7.375 44.457031 -5.515625 44 -3.703125 C 43.539062 -1.890625 42.816406 -0.328125 41.828125 0.984375 C 40.835938 2.304688 39.453125 2.96875 37.671875 2.96875 C 35.234375 2.96875 33.351562 2.175781 32.03125 0.59375 C 30.71875 -0.988281 30.09375 -2.96875 30.15625 -5.34375 C 28.050781 -3.5 25.660156 -2.046875 22.984375 -0.984375 C 20.316406 0.0664062 17.597656 0.59375 14.828125 0.59375 C 12.921875 0.59375 11.109375 0.132812 9.390625 -0.78125 C 7.679688 -1.707031 6.164062 -2.894531 4.84375 -4.34375 C 3.53125 -5.800781 2.476562 -7.4375 1.6875 -9.25 C 0.894531 -11.0625 0.5 -12.859375 0.5 -14.640625 C 0.5 -17.796875 1.46875 -20.5625 3.40625 -22.9375 C 5.351562 -25.3125 7.742188 -27.335938 10.578125 -29.015625 C 13.410156 -30.703125 16.425781 -32.039062 19.625 -33.03125 C 22.820312 -34.019531 25.675781 -34.675781 28.1875 -35 C 28.1875 -35.332031 28.203125 -35.628906 28.234375 -35.890625 C 28.265625 -36.148438 28.28125 -36.445312 28.28125 -36.78125 C 28.28125 -38.820312 27.71875 -40.46875 26.59375 -41.71875 C 25.476562 -42.976562 23.898438 -43.609375 21.859375 -43.609375 C 20.203125 -43.609375 18.78125 -43.328125 17.59375 -42.765625 C 16.414062 -42.203125 15.296875 -41.570312 14.234375 -40.875 C 13.179688 -40.1875 12.128906 -39.5625 11.078125 -39 C 10.023438 -38.445312 8.835938 -38.171875 7.515625 -38.171875 C 6.066406 -38.171875 4.832031 -38.628906 3.8125 -39.546875 C 2.789062 -40.472656 2.28125 -41.660156 2.28125 -43.109375 C 2.28125 -45.285156 2.921875 -47.265625 4.203125 -49.046875 C 5.484375 -50.828125 7.097656 -52.328125 9.046875 -53.546875 C 10.992188 -54.765625 13.101562 -55.71875 15.375 -56.40625 C 17.644531 -57.101562 19.738281 -57.453125 21.65625 -57.453125 C 23.4375 -57.453125 25.210938 -57.234375 26.984375 -56.796875 C 28.765625 -56.367188 30.445312 -55.710938 32.03125 -54.828125 C 33.613281 -53.941406 35.046875 -52.851562 36.328125 -51.5625 C 37.617188 -50.28125 38.660156 -48.78125 39.453125 -47.0625 C 40.640625 -44.625 41.59375 -42.035156 42.3125 -39.296875 C 43.039062 -36.566406 43.601562 -33.765625 44 -30.890625 C 44.394531 -28.023438 44.65625 -25.160156 44.78125 -22.296875 C 44.914062 -19.429688 44.984375 -16.644531 44.984375 -13.9375 Z M 29.171875 -17.109375 L 28.875 -23.828125 C 28.738281 -23.828125 28.601562 -23.84375 28.46875 -23.875 C 28.34375 -23.90625 28.210938 -23.921875 28.078125 -23.921875 C 27.222656 -23.921875 26.148438 -23.707031 24.859375 -23.28125 C 23.578125 -22.851562 22.34375 -22.257812 21.15625 -21.5 C 19.96875 -20.75 18.960938 -19.910156 18.140625 -18.984375 C 17.316406 -18.054688 16.90625 -17.097656 16.90625 -16.109375 C 16.90625 -15.191406 17.234375 -14.566406 17.890625 -14.234375 C 18.554688 -13.910156 19.316406 -13.75 20.171875 -13.75 C 21.617188 -13.75 23.164062 -14.125 24.8125 -14.875 C 26.46875 -15.632812 27.921875 -16.378906 29.171875 -17.109375 Z M 29.171875 -17.109375 "/></g></g><g transform="translate(638.585449, 719.262176)"><g><path d="M 24.421875 28.765625 C 22.835938 28.765625 21.039062 28.519531 19.03125 28.03125 C 17.019531 27.539062 15.125 26.832031 13.34375 25.90625 C 11.5625 24.976562 10.0625 23.851562 8.84375 22.53125 C 7.625 21.21875 7.015625 19.707031 7.015625 18 C 7.015625 17.332031 7.179688 16.671875 7.515625 16.015625 C 7.847656 15.359375 8.289062 14.78125 8.84375 14.28125 C 9.40625 13.789062 10.015625 13.394531 10.671875 13.09375 C 11.335938 12.800781 12.03125 12.65625 12.75 12.65625 C 13.539062 12.65625 14.316406 12.769531 15.078125 13 C 15.835938 13.226562 16.613281 13.507812 17.40625 13.84375 C 18.257812 14.175781 19.097656 14.472656 19.921875 14.734375 C 20.742188 14.992188 21.617188 15.125 22.546875 15.125 C 24.191406 15.125 25.625 14.5625 26.84375 13.4375 C 28.0625 12.320312 29.097656 10.859375 29.953125 9.046875 C 30.816406 7.234375 31.507812 5.222656 32.03125 3.015625 C 32.5625 0.804688 32.972656 -1.382812 33.265625 -3.5625 C 33.566406 -5.738281 33.78125 -7.78125 33.90625 -9.6875 C 34.039062 -11.601562 34.144531 -13.15625 34.21875 -14.34375 C 31.90625 -10.84375 29.609375 -8.148438 27.328125 -6.265625 C 25.054688 -4.390625 22.273438 -3.453125 18.984375 -3.453125 C 16.484375 -3.453125 14.289062 -3.976562 12.40625 -5.03125 C 10.53125 -6.09375 8.929688 -7.476562 7.609375 -9.1875 C 6.296875 -10.90625 5.207031 -12.867188 4.34375 -15.078125 C 3.488281 -17.285156 2.847656 -19.578125 2.421875 -21.953125 C 1.992188 -24.328125 1.710938 -26.648438 1.578125 -28.921875 C 1.453125 -31.191406 1.453125 -33.285156 1.578125 -35.203125 C 1.648438 -36.648438 1.832031 -38.539062 2.125 -40.875 C 2.425781 -43.21875 2.90625 -45.507812 3.5625 -47.75 C 4.21875 -50 5.140625 -51.894531 6.328125 -53.4375 C 7.515625 -54.988281 9.0625 -55.695312 10.96875 -55.5625 C 12.226562 -55.5 13.253906 -54.957031 14.046875 -53.9375 C 14.835938 -52.914062 15.476562 -51.644531 15.96875 -50.125 C 16.457031 -48.613281 16.816406 -46.953125 17.046875 -45.140625 C 17.285156 -43.328125 17.4375 -41.53125 17.5 -39.75 C 17.5625 -37.96875 17.578125 -36.332031 17.546875 -34.84375 C 17.515625 -33.363281 17.5 -32.226562 17.5 -31.4375 C 17.5 -30.320312 17.53125 -29.203125 17.59375 -28.078125 C 17.664062 -26.960938 17.898438 -25.957031 18.296875 -25.0625 C 18.691406 -24.175781 19.300781 -23.46875 20.125 -22.9375 C 20.945312 -22.414062 22.113281 -22.15625 23.625 -22.15625 C 25.34375 -22.15625 26.710938 -22.582031 27.734375 -23.4375 C 28.753906 -24.289062 29.507812 -25.359375 30 -26.640625 C 30.5 -27.929688 30.8125 -29.316406 30.9375 -30.796875 C 31.070312 -32.285156 31.140625 -33.6875 31.140625 -35 C 31.140625 -35.925781 31.140625 -37.046875 31.140625 -38.359375 C 31.140625 -39.679688 31.15625 -41.066406 31.1875 -42.515625 C 31.226562 -43.960938 31.363281 -45.394531 31.59375 -46.8125 C 31.820312 -48.226562 32.179688 -49.515625 32.671875 -50.671875 C 33.171875 -51.828125 33.832031 -52.765625 34.65625 -53.484375 C 35.476562 -54.210938 36.550781 -54.578125 37.875 -54.578125 C 39.519531 -54.578125 40.9375 -53.929688 42.125 -52.640625 C 43.3125 -51.359375 44.316406 -49.679688 45.140625 -47.609375 C 45.960938 -45.535156 46.617188 -43.242188 47.109375 -40.734375 C 47.609375 -38.234375 47.988281 -35.742188 48.25 -33.265625 C 48.507812 -30.796875 48.6875 -28.519531 48.78125 -26.4375 C 48.882812 -24.363281 48.9375 -22.738281 48.9375 -21.5625 C 48.9375 -18.789062 48.835938 -15.640625 48.640625 -12.109375 C 48.441406 -8.585938 48.0625 -4.960938 47.5 -1.234375 C 46.945312 2.484375 46.109375 6.140625 44.984375 9.734375 C 43.867188 13.328125 42.40625 16.539062 40.59375 19.375 C 38.78125 22.207031 36.550781 24.476562 33.90625 26.1875 C 31.269531 27.90625 28.109375 28.765625 24.421875 28.765625 Z M 24.421875 28.765625 "/></g></g></g></svg>