<svg xmlns="http://www.w3.org/2000/svg" xmlns:xlink="http://www.w3.org/1999/xlink" width="500" zoomAndPan="magnify" viewBox="0 0 375 374.999991" height="500" preserveAspectRatio="xMidYMid meet" version="1.0"><defs><filter x="0%" y="0%" width="100%" height="100%" id="723f4b8931"><feColorMatrix values="0 0 0 0 1 0 0 0 0 1 0 0 0 0 1 0 0 0 1 0" color-interpolation-filters="sRGB"/></filter><g/><mask id="7a47e497b6"><g filter="url(#723f4b8931)"><rect x="-37.5" width="450" fill="#000000" y="-37.499999" height="449.999989" fill-opacity="0.43"/></g></mask><clipPath id="6fa2b06fa0"><path d="M 3.308594 2.105469 L 345.671875 2.105469 L 345.671875 225 L 3.308594 225 Z M 3.308594 2.105469 " clip-rule="nonzero"/></clipPath><clipPath id="b018d06e8a"><path d="M 3.765625 74.390625 C 3.765625 74.335938 4.183594 72.671875 4.4375 71.8125 C 4.6875 70.953125 4.855469 70.414062 5.109375 69.285156 C 5.53125 66.972656 5.023438 62.890625 6.285156 58.859375 C 8.21875 53 14.1875 43.863281 18.050781 37.734375 C 21.160156 32.953125 27.296875 25.480469 27.382812 25.105469 C 27.382812 25.050781 27.382812 25.050781 27.382812 25.050781 C 27.382812 25.050781 27.382812 25.050781 27.382812 24.996094 C 27.71875 24.730469 31.246094 20.75 30.910156 20.214844 C 30.828125 20.105469 30.324219 20.054688 30.324219 20.054688 C 30.324219 20.054688 32.171875 21.183594 33.601562 21.019531 C 37.800781 20.589844 45.703125 9.894531 54.777344 7.421875 C 65.117188 4.628906 86.042969 5.488281 93.691406 6.992188 C 97.304688 7.691406 98.3125 10.269531 100.835938 10.21875 C 103.859375 10.109375 105.710938 6.292969 110.5 5.058594 C 119.410156 2.691406 140.503906 1.511719 154.035156 2.800781 C 166.472656 4.089844 183.785156 7.582031 188.828125 11.9375 C 192.191406 14.730469 189.164062 21.503906 190.59375 22.042969 C 191.015625 22.257812 191.351562 21.828125 192.273438 21.71875 C 196.5625 21.234375 222.363281 18.546875 229.507812 20.859375 C 233.710938 22.203125 232.867188 26.933594 236.652344 27.632812 C 242.535156 28.707031 254.214844 19.890625 264.804688 19.570312 C 277.75 19.191406 302.121094 22.632812 309.097656 29.296875 C 316.15625 36.125 310.019531 53.429688 305.902344 60.472656 C 303.464844 64.71875 294.390625 67.886719 295.3125 69.554688 C 296.152344 70.84375 302.960938 69.015625 305.988281 70.898438 C 312.878906 75.144531 311.785156 100.027344 318.59375 105.511719 C 321.871094 108.199219 327.585938 106.640625 330.359375 109.273438 C 335.570312 114.109375 336.578125 132.976562 334.394531 138.082031 C 333.554688 140.179688 329.519531 141.414062 330.023438 142.058594 C 330.527344 142.703125 335.066406 141.039062 337 142.058594 C 341.707031 144.476562 346.75 158.667969 345.152344 166.566406 C 343.554688 174.523438 331.285156 183.230469 327.25 189.519531 C 324.5625 193.710938 321.113281 197.203125 321.703125 200.320312 C 322.292969 202.902344 327.921875 206.449219 328.511719 207.09375 C 328.679688 207.199219 328.761719 207.199219 328.761719 207.253906 C 328.679688 207.46875 327.25 207.898438 325.90625 208.328125 C 322.796875 209.457031 312.878906 212.039062 310.019531 213.273438 C 308.84375 213.757812 307.835938 214.5625 307.835938 214.617188 C 307.75 214.617188 305.484375 215.421875 304.304688 215.855469 C 303.046875 216.285156 300.777344 217.089844 300.691406 217.089844 C 300.691406 217.144531 298.003906 217.574219 296.824219 217.789062 C 295.734375 217.949219 294.21875 218.21875 293.882812 218.273438 C 293.800781 218.324219 293.714844 218.324219 293.714844 218.324219 C 293.714844 218.324219 293.800781 218.324219 293.800781 218.273438 C 293.800781 218.273438 292.960938 218.433594 292.875 218.433594 C 292.875 218.433594 290.1875 218.488281 288.84375 218.488281 C 287.496094 218.542969 284.808594 218.542969 284.808594 218.542969 C 284.722656 218.542969 282.117188 218.164062 280.859375 218.003906 C 279.511719 217.789062 276.90625 217.464844 276.90625 217.414062 C 276.824219 217.414062 274.46875 216.660156 273.292969 216.285156 C 272.03125 215.90625 269.679688 215.15625 269.597656 215.101562 C 269.597656 215.101562 267.578125 214.027344 266.570312 213.433594 C 265.476562 212.898438 263.460938 211.769531 263.460938 211.769531 C 263.375 211.714844 261.863281 210.371094 261.105469 209.671875 C 260.265625 208.972656 258.753906 207.578125 258.671875 207.578125 C 258.671875 207.523438 257.660156 205.964844 257.15625 205.15625 C 256.652344 204.351562 255.644531 202.792969 255.644531 202.738281 C 255.644531 202.738281 255.308594 201.074219 255.054688 200.214844 C 254.886719 199.351562 254.550781 197.6875 254.550781 197.632812 C 254.550781 197.578125 254.804688 195.804688 254.886719 195.054688 C 255.054688 194.460938 255.730469 193.980469 255.140625 193.496094 C 252.871094 191.507812 222.53125 192.636719 217.152344 188.65625 C 213.371094 185.917969 218.246094 177.691406 216.144531 177.046875 C 214.800781 176.617188 212.78125 178.605469 209.839844 179.898438 C 203.367188 182.746094 188.746094 189.140625 178.238281 193.546875 C 167.902344 197.902344 157.566406 203.277344 147.480469 206.179688 C 138.90625 208.652344 126.386719 209.457031 122.265625 210.800781 C 120.753906 211.230469 119.578125 212.089844 119.492188 212.089844 C 119.492188 212.089844 117.054688 212.789062 115.796875 213.113281 C 114.535156 213.433594 112.097656 214.132812 112.011719 214.132812 C 112.011719 214.132812 109.40625 214.402344 108.0625 214.5625 C 106.71875 214.671875 104.113281 214.941406 104.027344 214.941406 C 104.027344 214.941406 100.835938 214.726562 100.332031 214.777344 C 100.164062 214.777344 100.078125 214.832031 100.078125 214.832031 C 100.078125 214.832031 100.246094 214.777344 100.246094 214.777344 C 100.246094 214.777344 100.164062 214.777344 99.996094 214.777344 C 99.492188 214.726562 96.042969 214.5625 95.960938 214.5625 C 95.875 214.5625 93.019531 213.917969 92.09375 213.703125 C 91.589844 213.597656 91.589844 213.433594 90.917969 213.488281 C 86.800781 213.542969 48.726562 224.828125 48.308594 224.453125 C 48.222656 224.347656 49.316406 223.96875 49.230469 223.914062 C 49.148438 223.808594 48.054688 224.023438 47.382812 224.128906 C 46.289062 224.238281 43.433594 224.5625 43.347656 224.5625 C 43.265625 224.5625 40.660156 224.453125 39.316406 224.398438 C 37.96875 224.347656 35.363281 224.238281 35.28125 224.238281 C 35.195312 224.238281 32.675781 223.753906 31.414062 223.484375 C 30.15625 223.21875 27.550781 222.734375 27.550781 222.679688 C 27.464844 222.679688 25.195312 221.820312 24.101562 221.335938 C 22.925781 220.90625 20.65625 220.046875 20.574219 219.992188 C 20.574219 219.992188 18.722656 218.808594 17.714844 218.164062 C 16.792969 217.574219 14.941406 216.390625 14.859375 216.335938 C 14.859375 216.335938 13.515625 214.832031 12.839844 214.132812 C 12.085938 213.382812 10.738281 211.929688 10.738281 211.875 C 10.65625 211.875 9.898438 210.265625 9.480469 209.402344 C 9.144531 208.597656 8.304688 206.984375 8.304688 206.933594 C 8.304688 206.933594 8.136719 205.210938 8.050781 204.351562 C 8.050781 203.492188 7.882812 201.824219 7.882812 201.773438 C 7.882812 201.71875 8.386719 200.050781 8.554688 199.246094 C 8.808594 198.386719 9.226562 197.257812 9.3125 196.667969 C 9.394531 196.398438 9.226562 196.34375 9.394531 195.96875 C 10.152344 194.625 18.554688 187.796875 18.554688 186.722656 C 18.554688 186.507812 18.386719 186.507812 18.136719 186.347656 C 17.714844 185.917969 15.949219 184.195312 15.949219 184.195312 C 15.949219 184.144531 15.027344 182.53125 14.605469 181.722656 C 14.1875 180.972656 13.515625 179.519531 13.429688 179.46875 C 13.34375 179.46875 13.34375 179.574219 13.34375 179.574219 C 13.34375 179.574219 13.34375 179.46875 13.34375 179.46875 C 13.34375 179.414062 13.261719 179.304688 13.261719 179.304688 C 13.261719 179.253906 13.007812 177.585938 12.925781 176.726562 C 12.757812 175.867188 12.503906 174.144531 12.503906 174.144531 C 12.503906 174.09375 12.925781 172.425781 13.09375 171.566406 C 13.34375 170.707031 13.683594 169.039062 13.683594 168.984375 C 13.683594 168.984375 14.941406 167.105469 15.277344 166.621094 C 15.445312 166.351562 15.445312 166.351562 15.613281 166.03125 C 16.457031 163.988281 15.867188 151.625 19.230469 144.425781 C 23.011719 136.253906 36.289062 122.601562 38.894531 119.808594 C 39.398438 119.214844 39.988281 119.324219 39.988281 118.785156 C 39.988281 116.476562 20.992188 105.617188 20.238281 101.15625 C 19.734375 98.738281 24.355469 95.566406 24.101562 95.191406 C 24.019531 95.136719 23.851562 95.136719 23.851562 95.136719 C 23.765625 95.136719 21.496094 94.277344 20.320312 93.847656 C 19.144531 93.417969 16.875 92.558594 16.875 92.503906 C 16.792969 92.503906 14.941406 91.320312 13.933594 90.675781 C 13.007812 90.085938 11.078125 88.902344 11.078125 88.902344 C 10.992188 88.847656 9.648438 87.398438 8.890625 86.699219 C 8.21875 85.945312 6.789062 84.496094 6.789062 84.496094 C 6.789062 84.441406 5.949219 82.828125 5.53125 82.023438 C 5.109375 81.164062 4.351562 79.605469 4.269531 79.550781 C 4.269531 79.496094 4.101562 77.832031 4.015625 76.972656 C 3.933594 76.109375 3.765625 74.390625 3.765625 74.390625 M 116.886719 48.96875 C 116.972656 48.96875 116.972656 48.914062 116.972656 48.914062 C 116.972656 48.914062 116.972656 48.914062 116.886719 48.914062 C 116.886719 48.96875 116.886719 48.96875 116.886719 48.96875 " clip-rule="nonzero"/></clipPath><mask id="b5f7ad2f98"><g filter="url(#723f4b8931)"><rect x="-95.5" width="540" fill="#000000" y="-131.499998" height="539.999987" fill-opacity="0.5"/></g></mask><clipPath id="6a30d75c3f"><path d="M 0.558594 0.105469 L 342.671875 0.105469 L 342.671875 222.839844 L 0.558594 222.839844 Z M 0.558594 0.105469 " clip-rule="nonzero"/></clipPath><clipPath id="80bfe86248"><path d="M 0.765625 72.390625 C 0.765625 72.335938 1.183594 70.671875 1.4375 69.8125 C 1.6875 68.953125 1.855469 68.414062 2.109375 67.285156 C 2.53125 64.972656 2.023438 60.890625 3.285156 56.859375 C 5.21875 51 11.1875 41.863281 15.050781 35.734375 C 18.160156 30.953125 24.296875 23.480469 24.382812 23.105469 C 24.382812 23.050781 24.382812 23.050781 24.382812 23.050781 C 24.382812 23.050781 24.382812 23.050781 24.382812 22.996094 C 24.71875 22.730469 28.246094 18.75 27.910156 18.214844 C 27.828125 18.105469 27.324219 18.054688 27.324219 18.054688 C 27.324219 18.054688 29.171875 19.183594 30.601562 19.019531 C 34.800781 18.589844 42.703125 7.894531 51.777344 5.421875 C 62.117188 2.628906 83.042969 3.488281 90.691406 4.992188 C 94.304688 5.691406 95.3125 8.269531 97.835938 8.21875 C 100.859375 8.109375 102.710938 4.292969 107.5 3.058594 C 116.410156 0.691406 137.503906 -0.488281 151.035156 0.800781 C 163.472656 2.089844 180.785156 5.582031 185.828125 9.9375 C 189.191406 12.730469 186.164062 19.503906 187.59375 20.042969 C 188.015625 20.257812 188.351562 19.828125 189.273438 19.71875 C 193.5625 19.234375 219.363281 16.546875 226.507812 18.859375 C 230.710938 20.203125 229.867188 24.933594 233.652344 25.632812 C 239.535156 26.707031 251.214844 17.890625 261.804688 17.570312 C 274.75 17.191406 299.121094 20.632812 306.097656 27.296875 C 313.15625 34.125 307.019531 51.429688 302.902344 58.472656 C 300.464844 62.71875 291.390625 65.886719 292.3125 67.554688 C 293.152344 68.84375 299.960938 67.015625 302.988281 68.898438 C 309.878906 73.144531 308.785156 98.027344 315.59375 103.511719 C 318.871094 106.199219 324.585938 104.640625 327.359375 107.273438 C 332.570312 112.109375 333.578125 130.976562 331.394531 136.082031 C 330.554688 138.179688 326.519531 139.414062 327.023438 140.058594 C 327.527344 140.703125 332.066406 139.039062 334 140.058594 C 338.707031 142.476562 343.75 156.667969 342.152344 164.566406 C 340.554688 172.523438 328.285156 181.230469 324.25 187.519531 C 321.5625 191.710938 318.113281 195.203125 318.703125 198.320312 C 319.292969 200.902344 324.921875 204.449219 325.511719 205.09375 C 325.679688 205.199219 325.761719 205.199219 325.761719 205.253906 C 325.679688 205.46875 324.25 205.898438 322.90625 206.328125 C 319.796875 207.457031 309.878906 210.039062 307.019531 211.273438 C 305.84375 211.757812 304.835938 212.5625 304.835938 212.617188 C 304.75 212.617188 302.484375 213.421875 301.304688 213.855469 C 300.046875 214.285156 297.777344 215.089844 297.691406 215.089844 C 297.691406 215.144531 295.003906 215.574219 293.824219 215.789062 C 292.734375 215.949219 291.21875 216.21875 290.882812 216.273438 C 290.800781 216.324219 290.714844 216.324219 290.714844 216.324219 C 290.714844 216.324219 290.800781 216.324219 290.800781 216.273438 C 290.800781 216.273438 289.960938 216.433594 289.875 216.433594 C 289.875 216.433594 287.1875 216.488281 285.84375 216.488281 C 284.496094 216.542969 281.808594 216.542969 281.808594 216.542969 C 281.722656 216.542969 279.117188 216.164062 277.859375 216.003906 C 276.511719 215.789062 273.90625 215.464844 273.90625 215.414062 C 273.824219 215.414062 271.46875 214.660156 270.292969 214.285156 C 269.03125 213.90625 266.679688 213.15625 266.597656 213.101562 C 266.597656 213.101562 264.578125 212.027344 263.570312 211.433594 C 262.476562 210.898438 260.460938 209.769531 260.460938 209.769531 C 260.375 209.714844 258.863281 208.371094 258.105469 207.671875 C 257.265625 206.972656 255.753906 205.578125 255.671875 205.578125 C 255.671875 205.523438 254.660156 203.964844 254.15625 203.15625 C 253.652344 202.351562 252.644531 200.792969 252.644531 200.738281 C 252.644531 200.738281 252.308594 199.074219 252.054688 198.214844 C 251.886719 197.351562 251.550781 195.6875 251.550781 195.632812 C 251.550781 195.578125 251.804688 193.804688 251.886719 193.054688 C 252.054688 192.460938 252.730469 191.980469 252.140625 191.496094 C 249.871094 189.507812 219.53125 190.636719 214.152344 186.65625 C 210.371094 183.917969 215.246094 175.691406 213.144531 175.046875 C 211.800781 174.617188 209.78125 176.605469 206.839844 177.898438 C 200.367188 180.746094 185.746094 187.140625 175.238281 191.546875 C 164.902344 195.902344 154.566406 201.277344 144.480469 204.179688 C 135.90625 206.652344 123.386719 207.457031 119.265625 208.800781 C 117.753906 209.230469 116.578125 210.089844 116.492188 210.089844 C 116.492188 210.089844 114.054688 210.789062 112.796875 211.113281 C 111.535156 211.433594 109.097656 212.132812 109.011719 212.132812 C 109.011719 212.132812 106.40625 212.402344 105.0625 212.5625 C 103.71875 212.671875 101.113281 212.941406 101.027344 212.941406 C 101.027344 212.941406 97.835938 212.726562 97.332031 212.777344 C 97.164062 212.777344 97.078125 212.832031 97.078125 212.832031 C 97.078125 212.832031 97.246094 212.777344 97.246094 212.777344 C 97.246094 212.777344 97.164062 212.777344 96.996094 212.777344 C 96.492188 212.726562 93.042969 212.5625 92.960938 212.5625 C 92.875 212.5625 90.019531 211.917969 89.09375 211.703125 C 88.589844 211.597656 88.589844 211.433594 87.917969 211.488281 C 83.800781 211.542969 45.726562 222.828125 45.308594 222.453125 C 45.222656 222.347656 46.316406 221.96875 46.230469 221.914062 C 46.148438 221.808594 45.054688 222.023438 44.382812 222.128906 C 43.289062 222.238281 40.433594 222.5625 40.347656 222.5625 C 40.265625 222.5625 37.660156 222.453125 36.316406 222.398438 C 34.96875 222.347656 32.363281 222.238281 32.28125 222.238281 C 32.195312 222.238281 29.675781 221.753906 28.414062 221.484375 C 27.15625 221.21875 24.550781 220.734375 24.550781 220.679688 C 24.464844 220.679688 22.195312 219.820312 21.101562 219.335938 C 19.925781 218.90625 17.65625 218.046875 17.574219 217.992188 C 17.574219 217.992188 15.722656 216.808594 14.714844 216.164062 C 13.792969 215.574219 11.941406 214.390625 11.859375 214.335938 C 11.859375 214.335938 10.515625 212.832031 9.839844 212.132812 C 9.085938 211.382812 7.738281 209.929688 7.738281 209.875 C 7.65625 209.875 6.898438 208.265625 6.480469 207.402344 C 6.144531 206.597656 5.304688 204.984375 5.304688 204.933594 C 5.304688 204.933594 5.136719 203.210938 5.050781 202.351562 C 5.050781 201.492188 4.882812 199.824219 4.882812 199.773438 C 4.882812 199.71875 5.386719 198.050781 5.554688 197.246094 C 5.808594 196.386719 6.226562 195.257812 6.3125 194.667969 C 6.394531 194.398438 6.226562 194.34375 6.394531 193.96875 C 7.152344 192.625 15.554688 185.796875 15.554688 184.722656 C 15.554688 184.507812 15.386719 184.507812 15.136719 184.347656 C 14.714844 183.917969 12.949219 182.195312 12.949219 182.195312 C 12.949219 182.144531 12.027344 180.53125 11.605469 179.722656 C 11.1875 178.972656 10.515625 177.519531 10.429688 177.46875 C 10.34375 177.46875 10.34375 177.574219 10.34375 177.574219 C 10.34375 177.574219 10.34375 177.46875 10.34375 177.46875 C 10.34375 177.414062 10.261719 177.304688 10.261719 177.304688 C 10.261719 177.253906 10.007812 175.585938 9.925781 174.726562 C 9.757812 173.867188 9.503906 172.144531 9.503906 172.144531 C 9.503906 172.09375 9.925781 170.425781 10.09375 169.566406 C 10.34375 168.707031 10.683594 167.039062 10.683594 166.984375 C 10.683594 166.984375 11.941406 165.105469 12.277344 164.621094 C 12.445312 164.351562 12.445312 164.351562 12.613281 164.03125 C 13.457031 161.988281 12.867188 149.625 16.230469 142.425781 C 20.011719 134.253906 33.289062 120.601562 35.894531 117.808594 C 36.398438 117.214844 36.988281 117.324219 36.988281 116.785156 C 36.988281 114.476562 17.992188 103.617188 17.238281 99.15625 C 16.734375 96.738281 21.355469 93.566406 21.101562 93.191406 C 21.019531 93.136719 20.851562 93.136719 20.851562 93.136719 C 20.765625 93.136719 18.496094 92.277344 17.320312 91.847656 C 16.144531 91.417969 13.875 90.558594 13.875 90.503906 C 13.792969 90.503906 11.941406 89.320312 10.933594 88.675781 C 10.007812 88.085938 8.078125 86.902344 8.078125 86.902344 C 7.992188 86.847656 6.648438 85.398438 5.890625 84.699219 C 5.21875 83.945312 3.789062 82.496094 3.789062 82.496094 C 3.789062 82.441406 2.949219 80.828125 2.53125 80.023438 C 2.109375 79.164062 1.351562 77.605469 1.269531 77.550781 C 1.269531 77.496094 1.101562 75.832031 1.015625 74.972656 C 0.933594 74.109375 0.765625 72.390625 0.765625 72.390625 M 113.886719 46.96875 C 113.972656 46.96875 113.972656 46.914062 113.972656 46.914062 C 113.972656 46.914062 113.972656 46.914062 113.886719 46.914062 C 113.886719 46.96875 113.886719 46.96875 113.886719 46.96875 " clip-rule="nonzero"/></clipPath><clipPath id="fda8c0ab26"><rect x="0" width="343" y="0" height="223"/></clipPath><clipPath id="5b2cca80ad"><rect x="0" width="350" y="0" height="227"/></clipPath><clipPath id="a1a8d4e0e9"><path d="M 110.894531 228.1875 L 149.378906 228.1875 L 149.378906 248.796875 L 110.894531 248.796875 Z M 110.894531 228.1875 " clip-rule="nonzero"/></clipPath><clipPath id="fb96218986"><path d="M 121.199219 228.1875 L 139.007812 228.1875 C 144.699219 228.1875 149.3125 232.800781 149.3125 238.492188 C 149.3125 244.183594 144.699219 248.796875 139.007812 248.796875 L 121.199219 248.796875 C 115.507812 248.796875 110.894531 244.183594 110.894531 238.492188 C 110.894531 232.800781 115.507812 228.1875 121.199219 228.1875 Z M 121.199219 228.1875 " clip-rule="nonzero"/></clipPath><clipPath id="7e619ba8a6"><path d="M 0.894531 0.1875 L 39.378906 0.1875 L 39.378906 20.796875 L 0.894531 20.796875 Z M 0.894531 0.1875 " clip-rule="nonzero"/></clipPath><clipPath id="a517cc6156"><path d="M 11.199219 0.1875 L 29.007812 0.1875 C 34.699219 0.1875 39.3125 4.800781 39.3125 10.492188 C 39.3125 16.183594 34.699219 20.796875 29.007812 20.796875 L 11.199219 20.796875 C 5.507812 20.796875 0.894531 16.183594 0.894531 10.492188 C 0.894531 4.800781 5.507812 0.1875 11.199219 0.1875 Z M 11.199219 0.1875 " clip-rule="nonzero"/></clipPath><clipPath id="2a18650349"><rect x="0" width="40" y="0" height="21"/></clipPath><clipPath id="001eb1ce29"><path d="M 110.902344 228.1875 L 149.144531 228.1875 L 149.144531 248.4375 L 110.902344 248.4375 Z M 110.902344 228.1875 " clip-rule="nonzero"/></clipPath><clipPath id="19c597ddde"><path d="M 121.203125 228.1875 L 139.003906 228.1875 C 144.691406 228.1875 149.304688 232.800781 149.304688 238.488281 C 149.304688 244.175781 144.691406 248.789062 139.003906 248.789062 L 121.203125 248.789062 C 115.515625 248.789062 110.902344 244.175781 110.902344 238.488281 C 110.902344 232.800781 115.515625 228.1875 121.203125 228.1875 Z M 121.203125 228.1875 " clip-rule="nonzero"/></clipPath><clipPath id="350e147c88"><path d="M 227.414062 228.1875 L 265.898438 228.1875 L 265.898438 248.796875 L 227.414062 248.796875 Z M 227.414062 228.1875 " clip-rule="nonzero"/></clipPath><clipPath id="68a66fc15a"><path d="M 237.71875 228.1875 L 255.527344 228.1875 C 261.21875 228.1875 265.832031 232.800781 265.832031 238.492188 C 265.832031 244.183594 261.21875 248.796875 255.527344 248.796875 L 237.71875 248.796875 C 232.027344 248.796875 227.414062 244.183594 227.414062 238.492188 C 227.414062 232.800781 232.027344 228.1875 237.71875 228.1875 Z M 237.71875 228.1875 " clip-rule="nonzero"/></clipPath><clipPath id="6bb935aafb"><path d="M 0.414062 0.1875 L 38.898438 0.1875 L 38.898438 20.796875 L 0.414062 20.796875 Z M 0.414062 0.1875 " clip-rule="nonzero"/></clipPath><clipPath id="ab6cf9e7b8"><path d="M 10.71875 0.1875 L 28.527344 0.1875 C 34.21875 0.1875 38.832031 4.800781 38.832031 10.492188 C 38.832031 16.183594 34.21875 20.796875 28.527344 20.796875 L 10.71875 20.796875 C 5.027344 20.796875 0.414062 16.183594 0.414062 10.492188 C 0.414062 4.800781 5.027344 0.1875 10.71875 0.1875 Z M 10.71875 0.1875 " clip-rule="nonzero"/></clipPath><clipPath id="c10ead9651"><rect x="0" width="39" y="0" height="21"/></clipPath><clipPath id="40e7e4fcba"><path d="M 227.421875 228.1875 L 265.664062 228.1875 L 265.664062 248.4375 L 227.421875 248.4375 Z M 227.421875 228.1875 " clip-rule="nonzero"/></clipPath><clipPath id="9d462d4a7f"><path d="M 237.722656 228.1875 L 255.519531 228.1875 C 261.210938 228.1875 265.820312 232.800781 265.820312 238.488281 C 265.820312 244.175781 261.210938 248.789062 255.519531 248.789062 L 237.722656 248.789062 C 232.03125 248.789062 227.421875 244.175781 227.421875 238.488281 C 227.421875 232.800781 232.03125 228.1875 237.722656 228.1875 Z M 237.722656 228.1875 " clip-rule="nonzero"/></clipPath><clipPath id="ca14761b97"><path d="M 75.308594 110.191406 L 318.3125 110.191406 L 318.3125 149.539062 L 75.308594 149.539062 Z M 75.308594 110.191406 " clip-rule="nonzero"/></clipPath><clipPath id="c4b3c86044"><path d="M 173.394531 110.191406 C 196.800781 110.191406 217.332031 113.609375 228.886719 118.742188 C 239.039062 116.859375 251.609375 116.390625 263.480469 117.796875 C 276.730469 119.367188 285.984375 122.90625 289.230469 127.011719 C 305.6875 127.945312 318.199219 132.59375 318.199219 138.191406 C 318.199219 144.457031 302.515625 149.539062 283.167969 149.539062 L 110.339844 149.539062 C 89.855469 149.539062 75.308594 145.085938 75.308594 138.191406 C 75.308594 132.152344 89.863281 127.214844 108.226562 126.859375 C 110.960938 117.53125 139.089844 110.191406 173.394531 110.191406 Z M 173.394531 110.191406 " clip-rule="nonzero"/></clipPath><clipPath id="be81d3855c"><path d="M 0.308594 0.191406 L 243.238281 0.191406 L 243.238281 39.539062 L 0.308594 39.539062 Z M 0.308594 0.191406 " clip-rule="nonzero"/></clipPath><clipPath id="5ac2db8af0"><path d="M 98.394531 0.191406 C 121.800781 0.191406 142.332031 3.609375 153.886719 8.742188 C 164.039062 6.859375 176.609375 6.390625 188.480469 7.796875 C 201.730469 9.367188 210.984375 12.90625 214.230469 17.011719 C 230.6875 17.945312 243.199219 22.59375 243.199219 28.191406 C 243.199219 34.457031 227.515625 39.539062 208.167969 39.539062 L 35.339844 39.539062 C 14.855469 39.539062 0.308594 35.085938 0.308594 28.191406 C 0.308594 22.152344 14.863281 17.214844 33.226562 16.859375 C 35.960938 7.53125 64.089844 0.191406 98.394531 0.191406 Z M 98.394531 0.191406 " clip-rule="nonzero"/></clipPath><clipPath id="827bffc526"><rect x="0" width="244" y="0" height="40"/></clipPath><clipPath id="d16deabbd2"><path d="M 89.285156 98.332031 L 98.394531 98.332031 L 98.394531 138.296875 L 89.285156 138.296875 Z M 89.285156 98.332031 " clip-rule="nonzero"/></clipPath><clipPath id="5ba7bed58e"><path d="M 93.839844 98.332031 C 96.355469 98.332031 98.394531 100.371094 98.394531 102.886719 L 98.394531 133.722656 C 98.394531 136.242188 96.355469 138.28125 93.839844 138.28125 C 91.324219 138.28125 89.285156 136.242188 89.285156 133.722656 L 89.285156 102.886719 C 89.285156 100.371094 91.324219 98.332031 93.839844 98.332031 Z M 93.839844 98.332031 " clip-rule="nonzero"/></clipPath><clipPath id="da77799f7f"><path d="M 0.285156 0.332031 L 9.394531 0.332031 L 9.394531 40.296875 L 0.285156 40.296875 Z M 0.285156 0.332031 " clip-rule="nonzero"/></clipPath><clipPath id="c6bf4d883d"><path d="M 4.839844 0.332031 C 7.355469 0.332031 9.394531 2.371094 9.394531 4.886719 L 9.394531 35.722656 C 9.394531 38.242188 7.355469 40.28125 4.839844 40.28125 C 2.324219 40.28125 0.285156 38.242188 0.285156 35.722656 L 0.285156 4.886719 C 0.285156 2.371094 2.324219 0.332031 4.839844 0.332031 Z M 4.839844 0.332031 " clip-rule="nonzero"/></clipPath><clipPath id="da6e61f0b5"><rect x="0" width="10" y="0" height="41"/></clipPath><clipPath id="2b9dd60f2d"><path d="M 66.9375 88.34375 L 102.785156 88.34375 L 102.785156 104.96875 L 66.9375 104.96875 Z M 66.9375 88.34375 " clip-rule="nonzero"/></clipPath><clipPath id="c3c3c5d902"><path d="M 102.785156 96.65625 C 102.785156 98.859375 101.910156 100.972656 100.351562 102.53125 C 98.792969 104.09375 96.679688 104.96875 94.472656 104.96875 L 75.300781 104.96875 C 73.097656 104.96875 70.980469 104.09375 69.421875 102.53125 C 67.863281 100.972656 66.988281 98.859375 66.988281 96.65625 C 66.988281 94.449219 67.863281 92.335938 69.421875 90.777344 C 70.980469 89.21875 73.097656 88.34375 75.300781 88.34375 L 94.472656 88.34375 C 96.679688 88.34375 98.792969 89.21875 100.351562 90.777344 C 101.910156 92.335938 102.785156 94.449219 102.785156 96.65625 Z M 102.785156 96.65625 " clip-rule="nonzero"/></clipPath><clipPath id="945537975e"><path d="M 1 0.34375 L 36.785156 0.34375 L 36.785156 16.96875 L 1 16.96875 Z M 1 0.34375 " clip-rule="nonzero"/></clipPath><clipPath id="99e9920378"><path d="M 36.785156 8.65625 C 36.785156 10.859375 35.910156 12.972656 34.351562 14.53125 C 32.792969 16.09375 30.679688 16.96875 28.472656 16.96875 L 9.300781 16.96875 C 7.097656 16.96875 4.980469 16.09375 3.421875 14.53125 C 1.863281 12.972656 0.988281 10.859375 0.988281 8.65625 C 0.988281 6.449219 1.863281 4.335938 3.421875 2.777344 C 4.980469 1.21875 7.097656 0.34375 9.300781 0.34375 L 28.472656 0.34375 C 30.679688 0.34375 32.792969 1.21875 34.351562 2.777344 C 35.910156 4.335938 36.785156 6.449219 36.785156 8.65625 Z M 36.785156 8.65625 " clip-rule="nonzero"/></clipPath><clipPath id="f411dffeb4"><rect x="0" width="37" y="0" height="17"/></clipPath><clipPath id="61e8c5bb8c"><path d="M 67 88.34375 L 102.78125 88.34375 L 102.78125 104.84375 L 67 104.84375 Z M 67 88.34375 " clip-rule="nonzero"/></clipPath><clipPath id="e34e606953"><path d="M 102.78125 96.652344 C 102.78125 98.855469 101.90625 100.96875 100.347656 102.527344 C 98.789062 104.085938 96.675781 104.960938 94.472656 104.960938 L 75.308594 104.960938 C 73.105469 104.960938 70.992188 104.085938 69.433594 102.527344 C 67.875 100.96875 67 98.855469 67 96.652344 C 67 94.449219 67.875 92.335938 69.433594 90.777344 C 70.992188 89.21875 73.105469 88.34375 75.308594 88.34375 L 94.472656 88.34375 C 96.675781 88.34375 98.789062 89.21875 100.347656 90.777344 C 101.90625 92.335938 102.78125 94.449219 102.78125 96.652344 Z M 102.78125 96.652344 " clip-rule="nonzero"/></clipPath><clipPath id="3bcbc079a8"><path d="M 66.996094 88.34375 L 83.621094 88.34375 L 83.621094 150.230469 L 66.996094 150.230469 Z M 66.996094 88.34375 " clip-rule="nonzero"/></clipPath><clipPath id="f543d36274"><path d="M 75.308594 88.34375 C 77.511719 88.34375 79.628906 89.21875 81.1875 90.777344 C 82.746094 92.335938 83.621094 94.453125 83.621094 96.65625 L 83.621094 141.90625 C 83.621094 144.109375 82.746094 146.222656 81.1875 147.78125 C 79.628906 149.34375 77.511719 150.21875 75.308594 150.21875 C 73.105469 150.21875 70.988281 149.34375 69.429688 147.78125 C 67.871094 146.222656 66.996094 144.109375 66.996094 141.90625 L 66.996094 96.65625 C 66.996094 94.453125 67.871094 92.335938 69.429688 90.777344 C 70.988281 89.21875 73.105469 88.34375 75.308594 88.34375 Z M 75.308594 88.34375 " clip-rule="nonzero"/></clipPath><clipPath id="f7b5a493c4"><path d="M 0.996094 0.34375 L 17.621094 0.34375 L 17.621094 62.230469 L 0.996094 62.230469 Z M 0.996094 0.34375 " clip-rule="nonzero"/></clipPath><clipPath id="05594852d7"><path d="M 9.308594 0.34375 C 11.511719 0.34375 13.628906 1.21875 15.1875 2.777344 C 16.746094 4.335938 17.621094 6.453125 17.621094 8.65625 L 17.621094 53.90625 C 17.621094 56.109375 16.746094 58.222656 15.1875 59.78125 C 13.628906 61.34375 11.511719 62.21875 9.308594 62.21875 C 7.105469 62.21875 4.988281 61.34375 3.429688 59.78125 C 1.871094 58.222656 0.996094 56.109375 0.996094 53.90625 L 0.996094 8.65625 C 0.996094 6.453125 1.871094 4.335938 3.429688 2.777344 C 4.988281 1.21875 7.105469 0.34375 9.308594 0.34375 Z M 9.308594 0.34375 " clip-rule="nonzero"/></clipPath><clipPath id="14c5a4b744"><rect x="0" width="18" y="0" height="63"/></clipPath><clipPath id="c15bdf2a4e"><path d="M 66.996094 88.351562 L 83.496094 88.351562 L 83.496094 149.84375 L 66.996094 149.84375 Z M 66.996094 88.351562 " clip-rule="nonzero"/></clipPath><clipPath id="dc512b4db3"><path d="M 75.304688 88.351562 C 77.507812 88.351562 79.621094 89.226562 81.179688 90.785156 C 82.738281 92.34375 83.613281 94.457031 83.613281 96.660156 L 83.613281 141.890625 C 83.613281 144.09375 82.738281 146.207031 81.179688 147.765625 C 79.621094 149.324219 77.507812 150.199219 75.304688 150.199219 C 73.101562 150.199219 70.988281 149.324219 69.429688 147.765625 C 67.871094 146.207031 66.996094 144.09375 66.996094 141.890625 L 66.996094 96.660156 C 66.996094 94.457031 67.871094 92.34375 69.429688 90.785156 C 70.988281 89.226562 73.101562 88.351562 75.304688 88.351562 Z M 75.304688 88.351562 " clip-rule="nonzero"/></clipPath><clipPath id="6d5b0c892b"><path d="M 48.027344 129.867188 L 327 129.867188 L 327 235.675781 L 48.027344 235.675781 Z M 48.027344 129.867188 " clip-rule="nonzero"/></clipPath><clipPath id="4004460992"><path d="M 65.984375 129.867188 L 309.015625 129.867188 C 314.433594 129.867188 319.546875 132.359375 322.886719 136.625 C 326.222656 140.886719 327.414062 146.449219 326.113281 151.707031 L 310.738281 213.835938 C 307.5625 226.664062 296.046875 235.675781 282.832031 235.675781 L 92.167969 235.675781 C 78.953125 235.675781 67.4375 226.664062 64.261719 213.835938 L 48.886719 151.707031 C 47.585938 146.449219 48.777344 140.886719 52.113281 136.625 C 55.453125 132.359375 60.566406 129.867188 65.984375 129.867188 Z M 65.984375 129.867188 " clip-rule="nonzero"/></clipPath><clipPath id="1fd7e2e1da"><path d="M 0.0273438 0.867188 L 279 0.867188 L 279 106.675781 L 0.0273438 106.675781 Z M 0.0273438 0.867188 " clip-rule="nonzero"/></clipPath><clipPath id="5912c2249d"><path d="M 17.984375 0.867188 L 261.015625 0.867188 C 266.433594 0.867188 271.546875 3.359375 274.886719 7.625 C 278.222656 11.886719 279.414062 17.449219 278.113281 22.707031 L 262.738281 84.835938 C 259.5625 97.664062 248.046875 106.675781 234.832031 106.675781 L 44.167969 106.675781 C 30.953125 106.675781 19.4375 97.664062 16.261719 84.835938 L 0.886719 22.707031 C -0.414062 17.449219 0.777344 11.886719 4.113281 7.625 C 7.453125 3.359375 12.566406 0.867188 17.984375 0.867188 Z M 17.984375 0.867188 " clip-rule="nonzero"/></clipPath><clipPath id="6198a31047"><rect x="0" width="279" y="0" height="107"/></clipPath><clipPath id="b8af0572f9"><path d="M 48 129.867188 L 327 129.867188 L 327 235.617188 L 48 235.617188 Z M 48 129.867188 " clip-rule="nonzero"/></clipPath><clipPath id="ac2b6837c5"><path d="M 65.992188 129.867188 L 309 129.867188 C 314.414062 129.867188 319.527344 132.359375 322.863281 136.621094 C 326.203125 140.886719 327.390625 146.449219 326.089844 151.707031 L 310.71875 213.824219 C 307.542969 226.652344 296.03125 235.664062 282.816406 235.664062 L 92.171875 235.664062 C 78.957031 235.664062 67.445312 226.652344 64.269531 213.824219 L 48.898438 151.707031 C 47.597656 146.449219 48.785156 140.886719 52.125 136.621094 C 55.460938 132.359375 60.574219 129.867188 65.992188 129.867188 Z M 65.992188 129.867188 " clip-rule="nonzero"/></clipPath><clipPath id="62887ccf4b"><path d="M 86.136719 142.589844 L 307.292969 142.589844 L 307.292969 182.769531 L 86.136719 182.769531 Z M 86.136719 142.589844 " clip-rule="nonzero"/></clipPath><clipPath id="fc7da750d4"><path d="M 99.289062 142.589844 L 294.21875 142.589844 C 298.988281 142.589844 303.371094 145.203125 305.644531 149.394531 C 307.914062 153.585938 307.710938 158.6875 305.105469 162.679688 C 296.9375 175.214844 282.992188 182.769531 268.035156 182.769531 L 125.472656 182.769531 C 110.515625 182.769531 96.566406 175.214844 88.402344 162.679688 C 85.796875 158.6875 85.589844 153.585938 87.863281 149.394531 C 90.136719 145.203125 94.519531 142.589844 99.289062 142.589844 Z M 99.289062 142.589844 " clip-rule="nonzero"/></clipPath><clipPath id="9d9a823546"><path d="M 0.136719 0.589844 L 221.292969 0.589844 L 221.292969 40.769531 L 0.136719 40.769531 Z M 0.136719 0.589844 " clip-rule="nonzero"/></clipPath><clipPath id="02183f98c8"><path d="M 13.289062 0.589844 L 208.21875 0.589844 C 212.988281 0.589844 217.371094 3.203125 219.644531 7.394531 C 221.914062 11.585938 221.710938 16.6875 219.105469 20.679688 C 210.9375 33.214844 196.992188 40.769531 182.035156 40.769531 L 39.472656 40.769531 C 24.515625 40.769531 10.566406 33.214844 2.402344 20.679688 C -0.203125 16.6875 -0.410156 11.585938 1.863281 7.394531 C 4.136719 3.203125 8.519531 0.589844 13.289062 0.589844 Z M 13.289062 0.589844 " clip-rule="nonzero"/></clipPath><clipPath id="b2e0765270"><rect x="0" width="222" y="0" height="41"/></clipPath></defs><g mask="url(#7a47e497b6)"><g transform="matrix(1, 0, 0, 1, 13, 49)"><g clip-path="url(#5b2cca80ad)"><g clip-path="url(#6fa2b06fa0)"><g clip-path="url(#b018d06e8a)"><g mask="url(#b5f7ad2f98)"><g transform="matrix(1, 0, 0, 1, 3, 2)"><g clip-path="url(#fda8c0ab26)"><g clip-path="url(#6a30d75c3f)"><g clip-path="url(#80bfe86248)"><rect x="-152.5" width="648" fill="#8bcfdb" y="-187.499997" height="647.999984" fill-opacity="1"/></g></g></g></g></g></g></g></g></g></g><g clip-path="url(#a1a8d4e0e9)"><g clip-path="url(#fb96218986)"><g transform="matrix(1, 0, 0, 1, 110, 228)"><g clip-path="url(#2a18650349)"><g clip-path="url(#7e619ba8a6)"><g clip-path="url(#a517cc6156)"><path fill="#d9d9d9" d="M 0.894531 0.1875 L 39.300781 0.1875 L 39.300781 20.796875 L 0.894531 20.796875 Z M 0.894531 0.1875 " fill-opacity="1" fill-rule="nonzero"/></g></g></g></g></g></g><g clip-path="url(#001eb1ce29)"><g clip-path="url(#19c597ddde)"><path stroke-linecap="butt" transform="matrix(0.75, 0, 0, 0.75, 110.902461, 228.187367)" fill="none" stroke-linejoin="miter" d="M 13.734218 0.000176779 L 37.468593 0.000176779 C 45.051927 0.000176779 51.202968 6.151218 51.202968 13.734552 C 51.202968 21.317885 45.051927 27.468927 37.468593 27.468927 L 13.734218 27.468927 C 6.150885 27.468927 -0.000156623 21.317885 -0.000156623 13.734552 C -0.000156623 6.151218 6.150885 0.000176779 13.734218 0.000176779 Z M 13.734218 0.000176779 " stroke="#000000" stroke-width="8" stroke-opacity="1" stroke-miterlimit="4"/></g></g><g clip-path="url(#350e147c88)"><g clip-path="url(#68a66fc15a)"><g transform="matrix(1, 0, 0, 1, 227, 228)"><g clip-path="url(#c10ead9651)"><g clip-path="url(#6bb935aafb)"><g clip-path="url(#ab6cf9e7b8)"><path fill="#d9d9d9" d="M 0.414062 0.1875 L 38.816406 0.1875 L 38.816406 20.796875 L 0.414062 20.796875 Z M 0.414062 0.1875 " fill-opacity="1" fill-rule="nonzero"/></g></g></g></g></g></g><g clip-path="url(#40e7e4fcba)"><g clip-path="url(#9d462d4a7f)"><path stroke-linecap="butt" transform="matrix(0.75, 0, 0, 0.75, 227.420586, 228.187367)" fill="none" stroke-linejoin="miter" d="M 13.736093 0.000176779 L 37.46526 0.000176779 C 45.053802 0.000176779 51.199635 6.151218 51.199635 13.734552 C 51.199635 21.317885 45.053802 27.468927 37.46526 27.468927 L 13.736093 27.468927 C 6.147552 27.468927 0.00171818 21.317885 0.00171818 13.734552 C 0.00171818 6.151218 6.147552 0.000176779 13.736093 0.000176779 Z M 13.736093 0.000176779 " stroke="#000000" stroke-width="8" stroke-opacity="1" stroke-miterlimit="4"/></g></g><g clip-path="url(#ca14761b97)"><g clip-path="url(#c4b3c86044)"><g transform="matrix(1, 0, 0, 1, 75, 110)"><g clip-path="url(#827bffc526)"><g clip-path="url(#be81d3855c)"><g clip-path="url(#5ac2db8af0)"><path fill="#ffffff" d="M 0.308594 0.191406 L 243.160156 0.191406 L 243.160156 39.539062 L 0.308594 39.539062 Z M 0.308594 0.191406 " fill-opacity="1" fill-rule="nonzero"/></g></g></g></g></g></g><g clip-path="url(#d16deabbd2)"><g clip-path="url(#5ba7bed58e)"><g transform="matrix(1, 0, 0, 1, 89, 98)"><g clip-path="url(#da6e61f0b5)"><g clip-path="url(#da77799f7f)"><g clip-path="url(#c6bf4d883d)"><path fill="#38b6ff" d="M 0.285156 0.332031 L 9.394531 0.332031 L 9.394531 40.296875 L 0.285156 40.296875 Z M 0.285156 0.332031 " fill-opacity="1" fill-rule="nonzero"/></g></g></g></g></g></g><g clip-path="url(#2b9dd60f2d)"><g clip-path="url(#c3c3c5d902)"><g transform="matrix(1, 0, 0, 1, 66, 88)"><g clip-path="url(#f411dffeb4)"><g clip-path="url(#945537975e)"><g clip-path="url(#99e9920378)"><path fill="#e8e8e8" d="M 36.785156 0.34375 L 36.785156 16.96875 L 1.003906 16.96875 L 1.003906 0.34375 Z M 36.785156 0.34375 " fill-opacity="1" fill-rule="nonzero"/></g></g></g></g></g></g><g clip-path="url(#61e8c5bb8c)"><g clip-path="url(#e34e606953)"><path stroke-linecap="butt" transform="matrix(0, 0.75, -0.75, 0, 102.782107, 88.34308)" fill="none" stroke-linejoin="miter" d="M 11.079019 0.00114313 C 14.01652 0.00114313 16.834228 1.16781 18.912353 3.245935 C 20.990478 5.32406 22.157145 8.141769 22.157145 11.079269 L 22.157145 36.631354 C 22.157145 39.568854 20.990478 42.386563 18.912353 44.464688 C 16.834228 46.542813 14.01652 47.70948 11.079019 47.70948 C 8.141519 47.70948 5.323811 46.542813 3.245685 44.464688 C 1.16756 42.386563 0.000893602 39.568854 0.000893602 36.631354 L 0.000893602 11.079269 C 0.000893602 8.141769 1.16756 5.32406 3.245685 3.245935 C 5.323811 1.16781 8.141519 0.00114313 11.079019 0.00114313 Z M 11.079019 0.00114313 " stroke="#000000" stroke-width="8" stroke-opacity="1" stroke-miterlimit="4"/></g></g><g clip-path="url(#3bcbc079a8)"><g clip-path="url(#f543d36274)"><g transform="matrix(1, 0, 0, 1, 66, 88)"><g clip-path="url(#14c5a4b744)"><g clip-path="url(#f7b5a493c4)"><g clip-path="url(#05594852d7)"><path fill="#e8e8e8" d="M 0.996094 0.34375 L 17.621094 0.34375 L 17.621094 62.230469 L 0.996094 62.230469 Z M 0.996094 0.34375 " fill-opacity="1" fill-rule="nonzero"/></g></g></g></g></g></g><g clip-path="url(#c15bdf2a4e)"><g clip-path="url(#dc512b4db3)"><path stroke-linecap="butt" transform="matrix(0.75, 0, 0, 0.75, 66.996108, 88.351929)" fill="none" stroke-linejoin="miter" d="M 11.078107 -0.000488131 C 14.015607 -0.000488131 16.833315 1.166179 18.91144 3.244304 C 20.989566 5.322429 22.156232 8.140137 22.156232 11.077638 L 22.156232 71.384933 C 22.156232 74.322433 20.989566 77.140142 18.91144 79.218267 C 16.833315 81.296392 14.015607 82.463059 11.078107 82.463059 C 8.140606 82.463059 5.322898 81.296392 3.244773 79.218267 C 1.166648 77.140142 -0.0000191341 74.322433 -0.0000191341 71.384933 L -0.0000191341 11.077638 C -0.0000191341 8.140137 1.166648 5.322429 3.244773 3.244304 C 5.322898 1.166179 8.140606 -0.000488131 11.078107 -0.000488131 Z M 11.078107 -0.000488131 " stroke="#000000" stroke-width="8" stroke-opacity="1" stroke-miterlimit="4"/></g></g><g clip-path="url(#6d5b0c892b)"><g clip-path="url(#4004460992)"><g transform="matrix(1, 0, 0, 1, 48, 129)"><g clip-path="url(#6198a31047)"><g clip-path="url(#1fd7e2e1da)"><g clip-path="url(#5912c2249d)"><path fill="#f6f6f6" d="M -4.515625 0.867188 L 283.5625 0.867188 L 283.5625 106.675781 L -4.515625 106.675781 Z M -4.515625 0.867188 " fill-opacity="1" fill-rule="nonzero"/></g></g></g></g></g></g><g clip-path="url(#b8af0572f9)"><g clip-path="url(#ac2b6837c5)"><path stroke-linecap="butt" transform="matrix(0.75, 0, 0, 0.75, 43.493217, 129.866828)" fill="none" stroke-linejoin="miter" d="M 29.998631 0.000478971 L 354.00909 0.000478971 C 361.227841 0.000478971 368.04555 3.323396 372.493468 9.005688 C 376.946593 14.693189 378.529927 22.109857 376.795551 29.120274 L 356.300757 111.943202 C 352.066382 129.047371 336.717421 141.062997 319.097627 141.062997 L 64.904886 141.062997 C 47.285092 141.062997 31.936132 129.047371 27.701756 111.943202 L 7.206962 29.120274 C 5.472587 22.109857 7.05592 14.693189 11.509046 9.005688 C 15.956963 3.323396 22.774672 0.000478971 29.998631 0.000478971 Z M 29.998631 0.000478971 " stroke="#000000" stroke-width="8" stroke-opacity="1" stroke-miterlimit="4"/></g></g><g clip-path="url(#62887ccf4b)"><g clip-path="url(#fc7da750d4)"><g transform="matrix(1, 0, 0, 1, 86, 142)"><g clip-path="url(#b2e0765270)"><g clip-path="url(#9d9a823546)"><g clip-path="url(#02183f98c8)"><path fill="#ffffff" d="M -10.691406 0.589844 L 232.121094 0.589844 L 232.121094 40.769531 L -10.691406 40.769531 Z M -10.691406 0.589844 " fill-opacity="1" fill-rule="nonzero"/></g></g></g></g></g></g><g fill="#000000" fill-opacity="1"><g transform="translate(141.404292, 335.05158)"><g><path d="M 14.15625 -21.625 C 17.144531 -21.601562 19.691406 -20.523438 21.796875 -18.390625 C 23.898438 -16.265625 24.9375 -13.71875 24.90625 -10.75 C 24.875 -7.757812 23.796875 -5.210938 21.671875 -3.109375 C 19.546875 -1.003906 17 0.03125 14.03125 0 C 11.476562 0 9.195312 -0.828125 7.1875 -2.484375 L 7.1875 0 L 1.296875 0 L 1.265625 -29.3125 L 7.140625 -29.3125 L 7.140625 -19.0625 C 9.148438 -20.769531 11.488281 -21.625 14.15625 -21.625 Z M 17.84375 -7.015625 C 18.851562 -8.023438 19.390625 -9.285156 19.453125 -10.796875 C 19.453125 -12.222656 18.929688 -13.484375 17.890625 -14.578125 C 16.859375 -15.609375 15.597656 -16.125 14.109375 -16.125 C 12.648438 -16.125 11.390625 -15.617188 10.328125 -14.609375 C 9.296875 -13.578125 8.78125 -12.320312 8.78125 -10.84375 C 8.71875 -9.382812 9.222656 -8.125 10.296875 -7.0625 C 11.296875 -6.050781 12.550781 -5.515625 14.0625 -5.453125 C 15.550781 -5.453125 16.8125 -5.972656 17.84375 -7.015625 Z M 17.84375 -7.015625 "/></g></g></g><g fill="#000000" fill-opacity="1"><g transform="translate(166.982293, 335.05158)"><g><path d="M 16.796875 -21.71875 L 22.6875 -21.71875 L 22.6875 0 L 16.796875 0 L 16.796875 -2.4375 C 15.597656 -0.863281 13.78125 -0.078125 11.34375 -0.078125 C 8.375 -0.0546875 5.828125 -1.09375 3.703125 -3.1875 C 1.566406 -5.289062 0.488281 -7.84375 0.46875 -10.84375 C 0.4375 -13.800781 1.46875 -16.347656 3.5625 -18.484375 C 5.664062 -20.609375 8.21875 -21.6875 11.21875 -21.71875 C 13.675781 -21.71875 15.535156 -20.914062 16.796875 -19.3125 Z M 15.03125 -7.140625 C 16.070312 -8.171875 16.59375 -9.429688 16.59375 -10.921875 C 16.59375 -12.429688 16.0625 -13.691406 15 -14.703125 C 13.925781 -15.765625 12.675781 -16.269531 11.25 -16.21875 C 9.769531 -16.21875 8.507812 -15.695312 7.46875 -14.65625 C 6.4375 -13.625 5.921875 -12.363281 5.921875 -10.875 C 5.921875 -9.414062 6.453125 -8.15625 7.515625 -7.09375 C 8.554688 -6.0625 9.816406 -5.546875 11.296875 -5.546875 C 12.804688 -5.597656 14.050781 -6.128906 15.03125 -7.140625 Z M 15.03125 -7.140625 "/></g></g></g><g fill="#000000" fill-opacity="1"><g transform="translate(190.92229, 335.05158)"><g><path d="M 16.84375 -21.625 L 16.84375 -15.75 L 12.015625 -15.75 L 12.015625 0 L 6.125 0 L 6.125 -15.75 L 1.265625 -15.75 L 1.265625 -21.625 L 6.125 -21.625 L 6.125 -29.1875 L 12.015625 -29.1875 L 12.015625 -21.625 Z M 16.84375 -21.625 "/></g></g><g transform="translate(209.024289, 335.05158)"><g><path d="M 23.3125 0 L 17.84375 0 L 17.84375 -10.671875 L 17.8125 -10.671875 L 17.8125 -10.796875 C 17.8125 -12.253906 17.289062 -13.5 16.25 -14.53125 C 15.21875 -15.570312 13.957031 -16.09375 12.46875 -16.09375 C 11.019531 -16.09375 9.757812 -15.554688 8.6875 -14.484375 C 7.625 -13.421875 7.125 -12.160156 7.1875 -10.703125 L 7.1875 -10.671875 L 7.140625 -10.671875 L 7.140625 0 L 1.265625 0 L 1.265625 -27.296875 L 7.140625 -27.296875 L 7.140625 -18.90625 C 8.453125 -20.46875 10.21875 -21.347656 12.4375 -21.546875 C 15.507812 -21.796875 18.054688 -21 20.078125 -19.15625 C 22.234375 -17.164062 23.3125 -14.378906 23.3125 -10.796875 Z M 23.3125 0 "/></g></g></g></svg>