<svg xmlns="http://www.w3.org/2000/svg" xmlns:xlink="http://www.w3.org/1999/xlink" width="500" zoomAndPan="magnify" viewBox="0 0 375 374.999991" height="500" preserveAspectRatio="xMidYMid meet" version="1.0"><defs><filter x="0%" y="0%" width="100%" height="100%" id="e00d236354"><feColorMatrix values="0 0 0 0 1 0 0 0 0 1 0 0 0 0 1 0 0 0 1 0" color-interpolation-filters="sRGB"/></filter><g/><mask id="52d1357ce6"><g filter="url(#e00d236354)"><rect x="-37.5" width="450" fill="#000000" y="-37.499999" height="449.999989" fill-opacity="0.18"/></g></mask><clipPath id="c8a57d28dc"><path d="M 3.0625 2 L 339.585938 2 L 339.585938 250 L 3.0625 250 Z M 3.0625 2 " clip-rule="nonzero"/></clipPath><clipPath id="9ab9b6befb"><path d="M 3.515625 82.597656 C 3.515625 82.539062 3.925781 80.683594 4.175781 79.726562 C 4.421875 78.769531 4.589844 78.167969 4.835938 76.914062 C 5.25 74.339844 4.753906 69.792969 5.992188 65.304688 C 7.890625 58.78125 13.753906 48.609375 17.550781 41.789062 C 20.605469 36.460938 26.632812 28.144531 26.714844 27.726562 C 26.714844 27.667969 26.714844 27.667969 26.714844 27.667969 C 26.714844 27.667969 26.714844 27.667969 26.714844 27.605469 C 27.046875 27.308594 30.515625 22.878906 30.183594 22.28125 C 30.101562 22.160156 29.605469 22.101562 29.605469 22.101562 C 29.605469 22.101562 31.421875 23.359375 32.828125 23.179688 C 36.953125 22.699219 44.714844 10.792969 53.632812 8.039062 C 63.789062 4.929688 84.347656 5.886719 91.863281 7.5625 C 95.414062 8.339844 96.40625 11.210938 98.882812 11.152344 C 101.855469 11.03125 103.671875 6.78125 108.378906 5.40625 C 117.128906 2.773438 137.855469 1.457031 151.148438 2.894531 C 163.367188 4.328125 180.378906 8.21875 185.332031 13.066406 C 188.632812 16.175781 185.660156 23.71875 187.066406 24.316406 C 187.476562 24.554688 187.808594 24.074219 188.714844 23.957031 C 192.929688 23.417969 218.277344 20.425781 225.292969 23 C 229.421875 24.496094 228.597656 29.761719 232.3125 30.539062 C 238.09375 31.734375 249.570312 21.921875 259.972656 21.5625 C 272.6875 21.144531 296.632812 24.972656 303.488281 32.394531 C 310.421875 39.992188 304.394531 59.261719 300.351562 67.097656 C 297.957031 71.828125 289.039062 75.355469 289.945312 77.210938 C 290.773438 78.648438 297.460938 76.613281 300.433594 78.707031 C 307.203125 83.433594 306.128906 111.140625 312.816406 117.242188 C 316.039062 120.234375 321.652344 118.5 324.378906 121.433594 C 329.496094 126.816406 330.488281 147.820312 328.339844 153.503906 C 327.515625 155.839844 323.550781 157.214844 324.046875 157.933594 C 324.542969 158.652344 329 156.796875 330.902344 157.933594 C 335.523438 160.625 340.480469 176.421875 338.910156 185.21875 C 337.339844 194.074219 325.285156 203.769531 321.324219 210.769531 C 318.679688 215.4375 315.296875 219.328125 315.871094 222.796875 C 316.449219 225.671875 321.984375 229.621094 322.5625 230.335938 C 322.726562 230.457031 322.808594 230.457031 322.808594 230.515625 C 322.726562 230.757812 321.324219 231.234375 320 231.714844 C 316.945312 232.96875 307.203125 235.84375 304.394531 237.21875 C 303.238281 237.757812 302.25 238.65625 302.25 238.714844 C 302.167969 238.714844 299.9375 239.613281 298.78125 240.089844 C 297.542969 240.570312 295.3125 241.46875 295.230469 241.46875 C 295.230469 241.527344 292.589844 242.003906 291.433594 242.246094 C 290.359375 242.425781 288.871094 242.722656 288.542969 242.785156 C 288.460938 242.84375 288.378906 242.84375 288.378906 242.84375 C 288.378906 242.84375 288.460938 242.84375 288.460938 242.785156 C 288.460938 242.785156 287.632812 242.964844 287.550781 242.964844 C 287.550781 242.964844 284.910156 243.023438 283.589844 243.023438 C 282.265625 243.082031 279.625 243.082031 279.625 243.082031 C 279.542969 243.082031 276.984375 242.664062 275.746094 242.484375 C 274.421875 242.246094 271.863281 241.886719 271.863281 241.828125 C 271.78125 241.828125 269.46875 240.988281 268.3125 240.570312 C 267.074219 240.152344 264.761719 239.3125 264.679688 239.253906 C 264.679688 239.253906 262.699219 238.054688 261.707031 237.398438 C 260.632812 236.800781 258.652344 235.542969 258.652344 235.542969 C 258.570312 235.484375 257.082031 233.988281 256.339844 233.210938 C 255.515625 232.429688 254.027344 230.875 253.945312 230.875 C 253.945312 230.816406 252.957031 229.082031 252.460938 228.183594 C 251.964844 227.285156 250.972656 225.550781 250.972656 225.492188 C 250.972656 225.492188 250.644531 223.636719 250.394531 222.679688 C 250.230469 221.71875 249.898438 219.867188 249.898438 219.804688 C 249.898438 219.746094 250.148438 217.769531 250.230469 216.933594 C 250.394531 216.277344 251.054688 215.738281 250.476562 215.199219 C 248.25 212.984375 218.441406 214.242188 213.15625 209.8125 C 209.441406 206.761719 214.230469 197.605469 212.167969 196.886719 C 210.84375 196.410156 208.863281 198.625 205.972656 200.058594 C 199.617188 203.230469 185.25 210.351562 174.929688 215.257812 C 164.773438 220.105469 154.617188 226.089844 144.707031 229.320312 C 136.285156 232.074219 123.984375 232.96875 119.9375 234.464844 C 118.449219 234.945312 117.292969 235.902344 117.210938 235.902344 C 117.210938 235.902344 114.816406 236.679688 113.578125 237.039062 C 112.339844 237.398438 109.945312 238.175781 109.863281 238.175781 C 109.863281 238.175781 107.304688 238.476562 105.984375 238.65625 C 104.660156 238.773438 102.101562 239.074219 102.019531 239.074219 C 102.019531 239.074219 98.882812 238.835938 98.386719 238.894531 C 98.222656 238.894531 98.136719 238.953125 98.136719 238.953125 C 98.136719 238.953125 98.304688 238.894531 98.304688 238.894531 C 98.304688 238.894531 98.222656 238.894531 98.054688 238.894531 C 97.5625 238.835938 94.175781 238.65625 94.09375 238.65625 C 94.011719 238.65625 91.203125 237.9375 90.292969 237.699219 C 89.800781 237.578125 89.800781 237.398438 89.136719 237.457031 C 85.09375 237.519531 47.6875 250.082031 47.277344 249.664062 C 47.195312 249.546875 48.265625 249.125 48.183594 249.066406 C 48.101562 248.945312 47.027344 249.1875 46.367188 249.304688 C 45.292969 249.425781 42.488281 249.785156 42.40625 249.785156 C 42.320312 249.785156 39.761719 249.664062 38.441406 249.605469 C 37.121094 249.546875 34.558594 249.425781 34.476562 249.425781 C 34.394531 249.425781 31.917969 248.886719 30.679688 248.585938 C 29.441406 248.289062 26.882812 247.75 26.882812 247.691406 C 26.800781 247.691406 24.570312 246.734375 23.496094 246.195312 C 22.339844 245.714844 20.109375 244.757812 20.027344 244.699219 C 20.027344 244.699219 18.210938 243.382812 17.222656 242.664062 C 16.3125 242.003906 14.496094 240.6875 14.414062 240.628906 C 14.414062 240.628906 13.09375 238.953125 12.433594 238.175781 C 11.6875 237.339844 10.367188 235.722656 10.367188 235.664062 C 10.285156 235.664062 9.542969 233.867188 9.128906 232.910156 C 8.800781 232.011719 7.972656 230.21875 7.972656 230.15625 C 7.972656 230.15625 7.808594 228.242188 7.726562 227.285156 C 7.726562 226.328125 7.558594 224.472656 7.558594 224.414062 C 7.558594 224.351562 8.054688 222.5 8.222656 221.601562 C 8.46875 220.644531 8.882812 219.386719 8.964844 218.730469 C 9.046875 218.429688 8.882812 218.371094 9.046875 217.949219 C 9.789062 216.453125 18.046875 208.855469 18.046875 207.660156 C 18.046875 207.417969 17.882812 207.417969 17.632812 207.238281 C 17.222656 206.761719 15.488281 204.847656 15.488281 204.847656 C 15.488281 204.785156 14.578125 202.992188 14.164062 202.09375 C 13.753906 201.257812 13.09375 199.640625 13.011719 199.582031 C 12.925781 199.582031 12.925781 199.699219 12.925781 199.699219 C 12.925781 199.699219 12.925781 199.582031 12.925781 199.582031 C 12.925781 199.519531 12.84375 199.402344 12.84375 199.402344 C 12.84375 199.339844 12.597656 197.484375 12.515625 196.527344 C 12.347656 195.570312 12.101562 193.65625 12.101562 193.65625 C 12.101562 193.597656 12.515625 191.742188 12.679688 190.785156 C 12.925781 189.828125 13.257812 187.972656 13.257812 187.914062 C 13.257812 187.914062 14.496094 185.816406 14.828125 185.28125 C 14.992188 184.980469 14.992188 184.980469 15.15625 184.621094 C 15.984375 182.347656 15.40625 168.585938 18.707031 160.566406 C 22.421875 151.472656 35.46875 136.273438 38.027344 133.160156 C 38.523438 132.503906 39.101562 132.621094 39.101562 132.023438 C 39.101562 129.449219 20.441406 117.363281 19.699219 112.398438 C 19.203125 109.703125 23.742188 106.171875 23.496094 105.753906 C 23.414062 105.695312 23.25 105.695312 23.25 105.695312 C 23.164062 105.695312 20.9375 104.738281 19.78125 104.257812 C 18.625 103.78125 16.394531 102.824219 16.394531 102.761719 C 16.3125 102.761719 14.496094 101.445312 13.503906 100.726562 C 12.597656 100.070312 10.699219 98.753906 10.699219 98.753906 C 10.617188 98.695312 9.292969 97.078125 8.550781 96.300781 C 7.890625 95.460938 6.488281 93.847656 6.488281 93.847656 C 6.488281 93.789062 5.660156 91.992188 5.25 91.09375 C 4.835938 90.136719 4.09375 88.402344 4.011719 88.34375 C 4.011719 88.28125 3.84375 86.425781 3.761719 85.46875 C 3.679688 84.511719 3.515625 82.597656 3.515625 82.597656 M 114.652344 54.292969 C 114.734375 54.292969 114.734375 54.234375 114.734375 54.234375 C 114.734375 54.234375 114.734375 54.234375 114.652344 54.234375 C 114.652344 54.292969 114.652344 54.292969 114.652344 54.292969 " clip-rule="nonzero"/></clipPath><mask id="e7a7a57e7c"><g filter="url(#e00d236354)"><rect x="-99.5" width="540" fill="#000000" y="-119.499998" height="539.999987" fill-opacity="0.5"/></g></mask><clipPath id="5c3c03a811"><path d="M 0.398438 0 L 336.585938 0 L 336.585938 248 L 0.398438 248 Z M 0.398438 0 " clip-rule="nonzero"/></clipPath><clipPath id="7a9ed29403"><path d="M 0.515625 80.597656 C 0.515625 80.539062 0.925781 78.683594 1.175781 77.726562 C 1.421875 76.769531 1.589844 76.167969 1.835938 74.914062 C 2.25 72.339844 1.753906 67.792969 2.992188 63.304688 C 4.890625 56.78125 10.753906 46.609375 14.550781 39.789062 C 17.605469 34.460938 23.632812 26.144531 23.714844 25.726562 C 23.714844 25.667969 23.714844 25.667969 23.714844 25.667969 C 23.714844 25.667969 23.714844 25.667969 23.714844 25.605469 C 24.046875 25.308594 27.515625 20.878906 27.183594 20.28125 C 27.101562 20.160156 26.605469 20.101562 26.605469 20.101562 C 26.605469 20.101562 28.421875 21.359375 29.828125 21.179688 C 33.953125 20.699219 41.714844 8.792969 50.632812 6.039062 C 60.789062 2.929688 81.347656 3.886719 88.863281 5.5625 C 92.414062 6.339844 93.40625 9.210938 95.882812 9.152344 C 98.855469 9.03125 100.671875 4.78125 105.378906 3.40625 C 114.128906 0.773438 134.855469 -0.542969 148.148438 0.894531 C 160.367188 2.328125 177.378906 6.21875 182.332031 11.066406 C 185.632812 14.175781 182.660156 21.71875 184.066406 22.316406 C 184.476562 22.554688 184.808594 22.074219 185.714844 21.957031 C 189.929688 21.417969 215.277344 18.425781 222.292969 21 C 226.421875 22.496094 225.597656 27.761719 229.3125 28.539062 C 235.09375 29.734375 246.570312 19.921875 256.972656 19.5625 C 269.6875 19.144531 293.632812 22.972656 300.488281 30.394531 C 307.421875 37.992188 301.394531 57.261719 297.351562 65.097656 C 294.957031 69.828125 286.039062 73.355469 286.945312 75.210938 C 287.773438 76.648438 294.460938 74.613281 297.433594 76.707031 C 304.203125 81.433594 303.128906 109.140625 309.816406 115.242188 C 313.039062 118.234375 318.652344 116.5 321.378906 119.433594 C 326.496094 124.816406 327.488281 145.820312 325.339844 151.503906 C 324.515625 153.839844 320.550781 155.214844 321.046875 155.933594 C 321.542969 156.652344 326 154.796875 327.902344 155.933594 C 332.523438 158.625 337.480469 174.421875 335.910156 183.21875 C 334.339844 192.074219 322.285156 201.769531 318.324219 208.769531 C 315.679688 213.4375 312.296875 217.328125 312.871094 220.796875 C 313.449219 223.671875 318.984375 227.621094 319.5625 228.335938 C 319.726562 228.457031 319.808594 228.457031 319.808594 228.515625 C 319.726562 228.757812 318.324219 229.234375 317 229.714844 C 313.945312 230.96875 304.203125 233.84375 301.394531 235.21875 C 300.238281 235.757812 299.25 236.65625 299.25 236.714844 C 299.167969 236.714844 296.9375 237.613281 295.78125 238.089844 C 294.542969 238.570312 292.3125 239.46875 292.230469 239.46875 C 292.230469 239.527344 289.589844 240.003906 288.433594 240.246094 C 287.359375 240.425781 285.871094 240.722656 285.542969 240.785156 C 285.460938 240.84375 285.378906 240.84375 285.378906 240.84375 C 285.378906 240.84375 285.460938 240.84375 285.460938 240.785156 C 285.460938 240.785156 284.632812 240.964844 284.550781 240.964844 C 284.550781 240.964844 281.910156 241.023438 280.589844 241.023438 C 279.265625 241.082031 276.625 241.082031 276.625 241.082031 C 276.542969 241.082031 273.984375 240.664062 272.746094 240.484375 C 271.421875 240.246094 268.863281 239.886719 268.863281 239.828125 C 268.78125 239.828125 266.46875 238.988281 265.3125 238.570312 C 264.074219 238.152344 261.761719 237.3125 261.679688 237.253906 C 261.679688 237.253906 259.699219 236.054688 258.707031 235.398438 C 257.632812 234.800781 255.652344 233.542969 255.652344 233.542969 C 255.570312 233.484375 254.082031 231.988281 253.339844 231.210938 C 252.515625 230.429688 251.027344 228.875 250.945312 228.875 C 250.945312 228.816406 249.957031 227.082031 249.460938 226.183594 C 248.964844 225.285156 247.972656 223.550781 247.972656 223.492188 C 247.972656 223.492188 247.644531 221.636719 247.394531 220.679688 C 247.230469 219.71875 246.898438 217.867188 246.898438 217.804688 C 246.898438 217.746094 247.148438 215.769531 247.230469 214.933594 C 247.394531 214.277344 248.054688 213.738281 247.476562 213.199219 C 245.25 210.984375 215.441406 212.242188 210.15625 207.8125 C 206.441406 204.761719 211.230469 195.605469 209.167969 194.886719 C 207.84375 194.410156 205.863281 196.625 202.972656 198.058594 C 196.617188 201.230469 182.25 208.351562 171.929688 213.257812 C 161.773438 218.105469 151.617188 224.089844 141.707031 227.320312 C 133.285156 230.074219 120.984375 230.96875 116.9375 232.464844 C 115.449219 232.945312 114.292969 233.902344 114.210938 233.902344 C 114.210938 233.902344 111.816406 234.679688 110.578125 235.039062 C 109.339844 235.398438 106.945312 236.175781 106.863281 236.175781 C 106.863281 236.175781 104.304688 236.476562 102.984375 236.65625 C 101.660156 236.773438 99.101562 237.074219 99.019531 237.074219 C 99.019531 237.074219 95.882812 236.835938 95.386719 236.894531 C 95.222656 236.894531 95.136719 236.953125 95.136719 236.953125 C 95.136719 236.953125 95.304688 236.894531 95.304688 236.894531 C 95.304688 236.894531 95.222656 236.894531 95.054688 236.894531 C 94.5625 236.835938 91.175781 236.65625 91.09375 236.65625 C 91.011719 236.65625 88.203125 235.9375 87.292969 235.699219 C 86.800781 235.578125 86.800781 235.398438 86.136719 235.457031 C 82.09375 235.519531 44.6875 248.082031 44.277344 247.664062 C 44.195312 247.546875 45.265625 247.125 45.183594 247.066406 C 45.101562 246.945312 44.027344 247.1875 43.367188 247.304688 C 42.292969 247.425781 39.488281 247.785156 39.40625 247.785156 C 39.320312 247.785156 36.761719 247.664062 35.441406 247.605469 C 34.121094 247.546875 31.558594 247.425781 31.476562 247.425781 C 31.394531 247.425781 28.917969 246.886719 27.679688 246.585938 C 26.441406 246.289062 23.882812 245.75 23.882812 245.691406 C 23.800781 245.691406 21.570312 244.734375 20.496094 244.195312 C 19.339844 243.714844 17.109375 242.757812 17.027344 242.699219 C 17.027344 242.699219 15.210938 241.382812 14.222656 240.664062 C 13.3125 240.003906 11.496094 238.6875 11.414062 238.628906 C 11.414062 238.628906 10.09375 236.953125 9.433594 236.175781 C 8.6875 235.339844 7.367188 233.722656 7.367188 233.664062 C 7.285156 233.664062 6.542969 231.867188 6.128906 230.910156 C 5.800781 230.011719 4.972656 228.21875 4.972656 228.15625 C 4.972656 228.15625 4.808594 226.242188 4.726562 225.285156 C 4.726562 224.328125 4.558594 222.472656 4.558594 222.414062 C 4.558594 222.351562 5.054688 220.5 5.222656 219.601562 C 5.46875 218.644531 5.882812 217.386719 5.964844 216.730469 C 6.046875 216.429688 5.882812 216.371094 6.046875 215.949219 C 6.789062 214.453125 15.046875 206.855469 15.046875 205.660156 C 15.046875 205.417969 14.882812 205.417969 14.632812 205.238281 C 14.222656 204.761719 12.488281 202.847656 12.488281 202.847656 C 12.488281 202.785156 11.578125 200.992188 11.164062 200.09375 C 10.753906 199.257812 10.09375 197.640625 10.011719 197.582031 C 9.925781 197.582031 9.925781 197.699219 9.925781 197.699219 C 9.925781 197.699219 9.925781 197.582031 9.925781 197.582031 C 9.925781 197.519531 9.84375 197.402344 9.84375 197.402344 C 9.84375 197.339844 9.597656 195.484375 9.515625 194.527344 C 9.347656 193.570312 9.101562 191.65625 9.101562 191.65625 C 9.101562 191.597656 9.515625 189.742188 9.679688 188.785156 C 9.925781 187.828125 10.257812 185.972656 10.257812 185.914062 C 10.257812 185.914062 11.496094 183.816406 11.828125 183.28125 C 11.992188 182.980469 11.992188 182.980469 12.15625 182.621094 C 12.984375 180.347656 12.40625 166.585938 15.707031 158.566406 C 19.421875 149.472656 32.46875 134.273438 35.027344 131.160156 C 35.523438 130.503906 36.101562 130.621094 36.101562 130.023438 C 36.101562 127.449219 17.441406 115.363281 16.699219 110.398438 C 16.203125 107.703125 20.742188 104.171875 20.496094 103.753906 C 20.414062 103.695312 20.25 103.695312 20.25 103.695312 C 20.164062 103.695312 17.9375 102.738281 16.78125 102.257812 C 15.625 101.78125 13.394531 100.824219 13.394531 100.761719 C 13.3125 100.761719 11.496094 99.445312 10.503906 98.726562 C 9.597656 98.070312 7.699219 96.753906 7.699219 96.753906 C 7.617188 96.695312 6.292969 95.078125 5.550781 94.300781 C 4.890625 93.460938 3.488281 91.847656 3.488281 91.847656 C 3.488281 91.789062 2.660156 89.992188 2.25 89.09375 C 1.835938 88.136719 1.09375 86.402344 1.011719 86.34375 C 1.011719 86.28125 0.84375 84.425781 0.761719 83.46875 C 0.679688 82.511719 0.515625 80.597656 0.515625 80.597656 M 111.652344 52.292969 C 111.734375 52.292969 111.734375 52.234375 111.734375 52.234375 C 111.734375 52.234375 111.734375 52.234375 111.652344 52.234375 C 111.652344 52.292969 111.652344 52.292969 111.652344 52.292969 " clip-rule="nonzero"/></clipPath><clipPath id="7186eb38a8"><rect x="0" width="337" y="0" height="248"/></clipPath><clipPath id="7263a431bd"><rect x="0" width="343" y="0" height="253"/></clipPath><clipPath id="af19addcc4"><path d="M 51.101562 144.851562 L 323.929688 144.851562 L 323.929688 194.5625 L 51.101562 194.5625 Z M 51.101562 144.851562 " clip-rule="nonzero"/></clipPath><clipPath id="b8e8bffb4e"><path d="M 63.101562 144.851562 L 311.898438 144.851562 C 318.527344 144.851562 323.898438 150.226562 323.898438 156.851562 L 323.898438 182.5625 C 323.898438 189.191406 318.527344 194.5625 311.898438 194.5625 L 63.101562 194.5625 C 56.472656 194.5625 51.101562 189.191406 51.101562 182.5625 L 51.101562 156.851562 C 51.101562 150.226562 56.472656 144.851562 63.101562 144.851562 Z M 63.101562 144.851562 " clip-rule="nonzero"/></clipPath><clipPath id="09a0849639"><path d="M 0.101562 0.851562 L 272.929688 0.851562 L 272.929688 50.5625 L 0.101562 50.5625 Z M 0.101562 0.851562 " clip-rule="nonzero"/></clipPath><clipPath id="b77ecb1b09"><path d="M 12.101562 0.851562 L 260.898438 0.851562 C 267.527344 0.851562 272.898438 6.226562 272.898438 12.851562 L 272.898438 38.5625 C 272.898438 45.191406 267.527344 50.5625 260.898438 50.5625 L 12.101562 50.5625 C 5.472656 50.5625 0.101562 45.191406 0.101562 38.5625 L 0.101562 12.851562 C 0.101562 6.226562 5.472656 0.851562 12.101562 0.851562 Z M 12.101562 0.851562 " clip-rule="nonzero"/></clipPath><clipPath id="042a548a44"><rect x="0" width="273" y="0" height="51"/></clipPath><clipPath id="605cb5d1ed"><path d="M 51.128906 144.851562 L 324 144.851562 L 324 194.351562 L 51.128906 194.351562 Z M 51.128906 144.851562 " clip-rule="nonzero"/></clipPath><clipPath id="25c51c439c"><path d="M 63.125 144.851562 L 311.867188 144.851562 C 318.492188 144.851562 323.863281 150.222656 323.863281 156.847656 L 323.863281 182.554688 C 323.863281 189.179688 318.492188 194.550781 311.867188 194.550781 L 63.125 194.550781 C 56.5 194.550781 51.128906 189.179688 51.128906 182.554688 L 51.128906 156.847656 C 51.128906 150.222656 56.5 144.851562 63.125 144.851562 Z M 63.125 144.851562 " clip-rule="nonzero"/></clipPath><clipPath id="4ea55ac07e"><path d="M 37.308594 73.996094 L 51.101562 73.996094 L 51.101562 245.355469 L 37.308594 245.355469 Z M 37.308594 73.996094 " clip-rule="nonzero"/></clipPath><clipPath id="48336f14bf"><path d="M 44.207031 73.996094 C 46.035156 73.996094 47.789062 74.722656 49.082031 76.015625 C 50.375 77.3125 51.101562 79.0625 51.101562 80.894531 L 51.101562 238.414062 C 51.101562 240.242188 50.375 241.996094 49.082031 243.289062 C 47.789062 244.582031 46.035156 245.308594 44.207031 245.308594 C 42.375 245.308594 40.621094 244.582031 39.328125 243.289062 C 38.035156 241.996094 37.308594 240.242188 37.308594 238.414062 L 37.308594 80.894531 C 37.308594 79.0625 38.035156 77.3125 39.328125 76.015625 C 40.621094 74.722656 42.375 73.996094 44.207031 73.996094 Z M 44.207031 73.996094 " clip-rule="nonzero"/></clipPath><clipPath id="b4c80f0de8"><path d="M 0.308594 0.996094 L 14.101562 0.996094 L 14.101562 172.355469 L 0.308594 172.355469 Z M 0.308594 0.996094 " clip-rule="nonzero"/></clipPath><clipPath id="208fdcd908"><path d="M 7.207031 0.996094 C 9.035156 0.996094 10.789062 1.722656 12.082031 3.015625 C 13.375 4.3125 14.101562 6.0625 14.101562 7.894531 L 14.101562 165.414062 C 14.101562 167.242188 13.375 168.996094 12.082031 170.289062 C 10.789062 171.582031 9.035156 172.308594 7.207031 172.308594 C 5.375 172.308594 3.621094 171.582031 2.328125 170.289062 C 1.035156 168.996094 0.308594 167.242188 0.308594 165.414062 L 0.308594 7.894531 C 0.308594 6.0625 1.035156 4.3125 2.328125 3.015625 C 3.621094 1.722656 5.375 0.996094 7.207031 0.996094 Z M 7.207031 0.996094 " clip-rule="nonzero"/></clipPath><clipPath id="d5063fea29"><rect x="0" width="15" y="0" height="173"/></clipPath><clipPath id="ca95fe6485"><path d="M 37.308594 74.050781 L 50.808594 74.050781 L 50.808594 244.996094 L 37.308594 244.996094 Z M 37.308594 74.050781 " clip-rule="nonzero"/></clipPath><clipPath id="3315b5c92b"><path d="M 44.199219 74.050781 C 46.027344 74.050781 47.78125 74.777344 49.074219 76.070312 C 50.367188 77.363281 51.089844 79.117188 51.089844 80.941406 L 51.089844 238.359375 C 51.089844 240.183594 50.367188 241.9375 49.074219 243.230469 C 47.78125 244.523438 46.027344 245.25 44.199219 245.25 C 42.375 245.25 40.621094 244.523438 39.328125 243.230469 C 38.035156 241.9375 37.308594 240.183594 37.308594 238.359375 L 37.308594 80.941406 C 37.308594 79.117188 38.035156 77.363281 39.328125 76.070312 C 40.621094 74.777344 42.375 74.050781 44.199219 74.050781 Z M 44.199219 74.050781 " clip-rule="nonzero"/></clipPath><clipPath id="a973c6c872"><path d="M 323.898438 73.996094 L 337.691406 73.996094 L 337.691406 245.355469 L 323.898438 245.355469 Z M 323.898438 73.996094 " clip-rule="nonzero"/></clipPath><clipPath id="c480851f8b"><path d="M 330.792969 73.996094 C 332.625 73.996094 334.378906 74.722656 335.671875 76.015625 C 336.964844 77.3125 337.691406 79.0625 337.691406 80.894531 L 337.691406 238.414062 C 337.691406 240.242188 336.964844 241.996094 335.671875 243.289062 C 334.378906 244.582031 332.625 245.308594 330.792969 245.308594 C 328.964844 245.308594 327.210938 244.582031 325.917969 243.289062 C 324.625 241.996094 323.898438 240.242188 323.898438 238.414062 L 323.898438 80.894531 C 323.898438 79.0625 324.625 77.3125 325.917969 76.015625 C 327.210938 74.722656 328.964844 73.996094 330.792969 73.996094 Z M 330.792969 73.996094 " clip-rule="nonzero"/></clipPath><clipPath id="f665b5c99c"><path d="M 0.898438 0.996094 L 14.691406 0.996094 L 14.691406 172.355469 L 0.898438 172.355469 Z M 0.898438 0.996094 " clip-rule="nonzero"/></clipPath><clipPath id="1f996d3b31"><path d="M 7.792969 0.996094 C 9.625 0.996094 11.378906 1.722656 12.671875 3.015625 C 13.964844 4.3125 14.691406 6.0625 14.691406 7.894531 L 14.691406 165.414062 C 14.691406 167.242188 13.964844 168.996094 12.671875 170.289062 C 11.378906 171.582031 9.625 172.308594 7.792969 172.308594 C 5.964844 172.308594 4.210938 171.582031 2.917969 170.289062 C 1.625 168.996094 0.898438 167.242188 0.898438 165.414062 L 0.898438 7.894531 C 0.898438 6.0625 1.625 4.3125 2.917969 3.015625 C 4.210938 1.722656 5.964844 0.996094 7.792969 0.996094 Z M 7.792969 0.996094 " clip-rule="nonzero"/></clipPath><clipPath id="505d6e6de5"><rect x="0" width="15" y="0" height="173"/></clipPath><clipPath id="7f535644d8"><path d="M 323.898438 74.050781 L 337.398438 74.050781 L 337.398438 244.996094 L 323.898438 244.996094 Z M 323.898438 74.050781 " clip-rule="nonzero"/></clipPath><clipPath id="4dc0f47407"><path d="M 330.789062 74.050781 C 332.617188 74.050781 334.371094 74.777344 335.664062 76.070312 C 336.953125 77.363281 337.679688 79.117188 337.679688 80.941406 L 337.679688 238.359375 C 337.679688 240.183594 336.953125 241.9375 335.664062 243.230469 C 334.371094 244.523438 332.617188 245.25 330.789062 245.25 C 328.960938 245.25 327.210938 244.523438 325.917969 243.230469 C 324.625 241.9375 323.898438 240.183594 323.898438 238.359375 L 323.898438 80.941406 C 323.898438 79.117188 324.625 77.363281 325.917969 76.070312 C 327.210938 74.777344 328.960938 74.050781 330.789062 74.050781 Z M 330.789062 74.050781 " clip-rule="nonzero"/></clipPath><clipPath id="e604899678"><path d="M 57.523438 117.257812 L 119 117.257812 L 119 144.851562 L 57.523438 144.851562 Z M 57.523438 117.257812 " clip-rule="nonzero"/></clipPath><clipPath id="9d50f633b3"><path d="M 65.132812 117.367188 L 111.472656 117.367188 C 113.460938 117.367188 115.367188 118.15625 116.773438 119.5625 C 118.179688 120.96875 118.972656 122.875 118.972656 124.867188 L 118.972656 137.351562 C 118.972656 139.339844 118.179688 141.25 116.773438 142.65625 C 115.367188 144.0625 113.460938 144.851562 111.472656 144.851562 L 65.132812 144.851562 C 63.140625 144.851562 61.234375 144.0625 59.828125 142.65625 C 58.421875 141.25 57.632812 139.339844 57.632812 137.351562 L 57.632812 124.867188 C 57.632812 122.875 58.421875 120.96875 59.828125 119.5625 C 61.234375 118.15625 63.140625 117.367188 65.132812 117.367188 Z M 65.132812 117.367188 " clip-rule="nonzero"/></clipPath><clipPath id="419738e642"><path d="M 0.601562 0.359375 L 62 0.359375 L 62 27.851562 L 0.601562 27.851562 Z M 0.601562 0.359375 " clip-rule="nonzero"/></clipPath><clipPath id="48b5ee9109"><path d="M 8.132812 0.367188 L 54.472656 0.367188 C 56.460938 0.367188 58.367188 1.15625 59.773438 2.5625 C 61.179688 3.96875 61.972656 5.875 61.972656 7.867188 L 61.972656 20.351562 C 61.972656 22.339844 61.179688 24.25 59.773438 25.65625 C 58.367188 27.0625 56.460938 27.851562 54.472656 27.851562 L 8.132812 27.851562 C 6.140625 27.851562 4.234375 27.0625 2.828125 25.65625 C 1.421875 24.25 0.632812 22.339844 0.632812 20.351562 L 0.632812 7.867188 C 0.632812 5.875 1.421875 3.96875 2.828125 2.5625 C 4.234375 1.15625 6.140625 0.367188 8.132812 0.367188 Z M 8.132812 0.367188 " clip-rule="nonzero"/></clipPath><clipPath id="5aba99d8c7"><rect x="0" width="62" y="0" height="28"/></clipPath><clipPath id="a455916a38"><path d="M 57.636719 117.367188 L 119 117.367188 L 119 145 L 57.636719 145 Z M 57.636719 117.367188 " clip-rule="nonzero"/></clipPath><clipPath id="f30414345c"><path d="M 65.132812 117.367188 L 111.464844 117.367188 C 113.453125 117.367188 115.359375 118.15625 116.765625 119.5625 C 118.171875 120.96875 118.960938 122.875 118.960938 124.863281 L 118.960938 137.347656 C 118.960938 139.335938 118.171875 141.242188 116.765625 142.648438 C 115.359375 144.054688 113.453125 144.847656 111.464844 144.847656 L 65.132812 144.847656 C 63.144531 144.847656 61.238281 144.054688 59.832031 142.648438 C 58.425781 141.242188 57.636719 139.335938 57.636719 137.347656 L 57.636719 124.863281 C 57.636719 122.875 58.425781 120.96875 59.832031 119.5625 C 61.238281 118.15625 63.144531 117.367188 65.132812 117.367188 Z M 65.132812 117.367188 " clip-rule="nonzero"/></clipPath><clipPath id="a898f059ed"><path d="M 51.085938 194.5625 L 323.890625 194.5625 L 323.890625 208.460938 L 51.085938 208.460938 Z M 51.085938 194.5625 " clip-rule="nonzero"/></clipPath><clipPath id="f925c84415"><path d="M 323.890625 201.511719 C 323.890625 205.351562 320.777344 208.460938 316.941406 208.460938 L 58.039062 208.460938 C 54.199219 208.460938 51.089844 205.351562 51.089844 201.511719 C 51.089844 197.675781 54.199219 194.5625 58.039062 194.5625 L 316.941406 194.5625 C 320.777344 194.5625 323.890625 197.675781 323.890625 201.511719 Z M 323.890625 201.511719 " clip-rule="nonzero"/></clipPath><clipPath id="3c0af27def"><path d="M 0.0859375 0.5625 L 272.890625 0.5625 L 272.890625 14.460938 L 0.0859375 14.460938 Z M 0.0859375 0.5625 " clip-rule="nonzero"/></clipPath><clipPath id="bfe4bca20a"><path d="M 272.890625 7.511719 C 272.890625 11.351562 269.777344 14.460938 265.941406 14.460938 L 7.039062 14.460938 C 3.199219 14.460938 0.0898438 11.351562 0.0898438 7.511719 C 0.0898438 3.675781 3.199219 0.5625 7.039062 0.5625 L 265.941406 0.5625 C 269.777344 0.5625 272.890625 3.675781 272.890625 7.511719 Z M 272.890625 7.511719 " clip-rule="nonzero"/></clipPath><clipPath id="6474d99896"><rect x="0" width="273" y="0" height="15"/></clipPath><clipPath id="b9c70a0b74"><path d="M 51 194.5625 L 323.78125 194.5625 L 323.78125 208.8125 L 51 208.8125 Z M 51 194.5625 " clip-rule="nonzero"/></clipPath><clipPath id="6f6793ad17"><path d="M 323.78125 201.507812 C 323.78125 205.34375 320.671875 208.449219 316.839844 208.449219 L 58.148438 208.449219 C 54.316406 208.449219 51.207031 205.34375 51.207031 201.507812 C 51.207031 197.671875 54.316406 194.5625 58.148438 194.5625 L 316.839844 194.5625 C 320.671875 194.5625 323.78125 197.671875 323.78125 201.507812 Z M 323.78125 201.507812 " clip-rule="nonzero"/></clipPath><clipPath id="3a2af6e3ad"><path d="M 118.972656 108.527344 L 324 108.527344 L 324 219.695312 L 118.972656 219.695312 Z M 118.972656 108.527344 " clip-rule="nonzero"/></clipPath><clipPath id="49fc7a8d80"><path d="M 308.898438 108.527344 L 133.972656 108.527344 C 129.992188 108.527344 126.175781 110.105469 123.363281 112.917969 C 120.550781 115.730469 118.972656 119.546875 118.972656 123.527344 L 118.972656 207.863281 C 129.871094 216.464844 164.753906 229.476562 217.074219 207.863281 C 269.398438 187.214844 310.09375 199.257812 323.898438 207.863281 L 323.898438 123.527344 C 323.898438 119.546875 322.320312 115.730469 319.507812 112.917969 C 316.691406 110.105469 312.878906 108.527344 308.898438 108.527344 Z M 308.898438 108.527344 " clip-rule="nonzero"/></clipPath><clipPath id="300f095f0f"><path d="M 0.972656 0.527344 L 206 0.527344 L 206 111.359375 L 0.972656 111.359375 Z M 0.972656 0.527344 " clip-rule="nonzero"/></clipPath><clipPath id="2526f4f523"><path d="M 190.898438 0.527344 L 15.972656 0.527344 C 11.992188 0.527344 8.175781 2.105469 5.363281 4.917969 C 2.550781 7.730469 0.972656 11.546875 0.972656 15.527344 L 0.972656 99.863281 C 11.871094 108.464844 46.753906 121.476562 99.074219 99.863281 C 151.398438 79.214844 192.09375 91.257812 205.898438 99.863281 L 205.898438 15.527344 C 205.898438 11.546875 204.320312 7.730469 201.507812 4.917969 C 198.691406 2.105469 194.878906 0.527344 190.898438 0.527344 Z M 190.898438 0.527344 " clip-rule="nonzero"/></clipPath><clipPath id="6d79f2ba99"><rect x="0" width="206" y="0" height="112"/></clipPath><clipPath id="42ed797180"><path d="M 118.972656 108.527344 L 323.722656 108.527344 L 323.722656 219.527344 L 118.972656 219.527344 Z M 118.972656 108.527344 " clip-rule="nonzero"/></clipPath><clipPath id="98e5fcf7fb"><path d="M 308.894531 108.527344 L 133.972656 108.527344 C 129.996094 108.527344 126.179688 110.105469 123.367188 112.917969 C 120.554688 115.730469 118.972656 119.546875 118.972656 123.523438 L 118.972656 207.859375 C 129.875 216.460938 164.753906 229.472656 217.074219 207.859375 C 269.394531 187.214844 310.085938 199.253906 323.894531 207.859375 L 323.894531 123.523438 C 323.894531 119.546875 322.3125 115.730469 319.5 112.917969 C 316.6875 110.105469 312.871094 108.527344 308.894531 108.527344 Z M 308.894531 108.527344 " clip-rule="nonzero"/></clipPath><clipPath id="7759726ee9"><path d="M 128.222656 116.367188 L 315.761719 116.367188 L 315.761719 173 L 128.222656 173 Z M 128.222656 116.367188 " clip-rule="nonzero"/></clipPath><clipPath id="1e8688fa79"><path d="M 302.144531 116.367188 L 141.722656 116.367188 C 134.265625 116.367188 128.222656 122.410156 128.222656 129.867188 L 128.222656 166.328125 C 138.191406 170.65625 170.09375 179.5 217.945312 166.328125 C 265.796875 155.945312 303.015625 162.003906 315.644531 166.328125 L 315.644531 129.867188 C 315.644531 122.410156 309.601562 116.367188 302.144531 116.367188 Z M 302.144531 116.367188 " clip-rule="nonzero"/></clipPath><clipPath id="d5d3eadcef"><path d="M 0.222656 0.367188 L 187.761719 0.367188 L 187.761719 56.078125 L 0.222656 56.078125 Z M 0.222656 0.367188 " clip-rule="nonzero"/></clipPath><clipPath id="2f9aa08c3e"><path d="M 174.144531 0.367188 L 13.722656 0.367188 C 6.265625 0.367188 0.222656 6.410156 0.222656 13.867188 L 0.222656 50.328125 C 10.191406 54.65625 42.09375 63.5 89.945312 50.328125 C 137.796875 39.945312 175.015625 46.003906 187.644531 50.328125 L 187.644531 13.867188 C 187.644531 6.410156 181.601562 0.367188 174.144531 0.367188 Z M 174.144531 0.367188 " clip-rule="nonzero"/></clipPath><clipPath id="7514431b06"><rect x="0" width="188" y="0" height="57"/></clipPath><clipPath id="69f273c2b8"><path d="M 62.492188 122.53125 L 114.269531 122.53125 L 114.269531 131.109375 L 62.492188 131.109375 Z M 62.492188 122.53125 " clip-rule="nonzero"/></clipPath><clipPath id="1e732a3559"><path d="M 64.773438 122.5625 L 111.992188 122.5625 C 112.589844 122.5625 113.164062 122.800781 113.585938 123.222656 C 114.007812 123.644531 114.242188 124.214844 114.242188 124.8125 L 114.242188 128.859375 C 114.242188 129.457031 114.007812 130.027344 113.585938 130.449219 C 113.164062 130.871094 112.589844 131.109375 111.992188 131.109375 L 64.773438 131.109375 C 64.179688 131.109375 63.605469 130.871094 63.183594 130.449219 C 62.761719 130.027344 62.523438 129.457031 62.523438 128.859375 L 62.523438 124.8125 C 62.523438 124.214844 62.761719 123.644531 63.183594 123.222656 C 63.605469 122.800781 64.179688 122.5625 64.773438 122.5625 Z M 64.773438 122.5625 " clip-rule="nonzero"/></clipPath><clipPath id="63a53b284a"><path d="M 0.492188 0.53125 L 52.269531 0.53125 L 52.269531 9.109375 L 0.492188 9.109375 Z M 0.492188 0.53125 " clip-rule="nonzero"/></clipPath><clipPath id="5b63437986"><path d="M 2.773438 0.5625 L 49.992188 0.5625 C 50.589844 0.5625 51.164062 0.800781 51.585938 1.222656 C 52.007812 1.644531 52.242188 2.214844 52.242188 2.8125 L 52.242188 6.859375 C 52.242188 7.457031 52.007812 8.027344 51.585938 8.449219 C 51.164062 8.871094 50.589844 9.109375 49.992188 9.109375 L 2.773438 9.109375 C 2.179688 9.109375 1.605469 8.871094 1.183594 8.449219 C 0.761719 8.027344 0.523438 7.457031 0.523438 6.859375 L 0.523438 2.8125 C 0.523438 2.214844 0.761719 1.644531 1.183594 1.222656 C 1.605469 0.800781 2.179688 0.5625 2.773438 0.5625 Z M 2.773438 0.5625 " clip-rule="nonzero"/></clipPath><clipPath id="68d1575e1c"><rect x="0" width="53" y="0" height="10"/></clipPath></defs><g mask="url(#52d1357ce6)"><g transform="matrix(1, 0, 0, 1, 17, 37)"><g clip-path="url(#7263a431bd)"><g clip-path="url(#c8a57d28dc)"><g clip-path="url(#9ab9b6befb)"><g mask="url(#e7a7a57e7c)"><g transform="matrix(1, 0, 0, 1, 3, 2)"><g clip-path="url(#7186eb38a8)"><g clip-path="url(#5c3c03a811)"><g clip-path="url(#7a9ed29403)"><rect x="-156.5" width="648" fill="#ff7d7d" y="-175.499997" height="647.999984" fill-opacity="1"/></g></g></g></g></g></g></g></g></g></g><g clip-path="url(#af19addcc4)"><g clip-path="url(#b8e8bffb4e)"><g transform="matrix(1, 0, 0, 1, 51, 144)"><g clip-path="url(#042a548a44)"><g clip-path="url(#09a0849639)"><g clip-path="url(#b77ecb1b09)"><path fill="#b4b4b4" d="M 0.101562 0.851562 L 272.929688 0.851562 L 272.929688 50.5625 L 0.101562 50.5625 Z M 0.101562 0.851562 " fill-opacity="1" fill-rule="nonzero"/></g></g></g></g></g></g><g clip-path="url(#605cb5d1ed)"><g clip-path="url(#25c51c439c)"><path stroke-linecap="butt" transform="matrix(0.75, 0, 0, 0.75, 51.1276, 144.852413)" fill="none" stroke-linejoin="miter" d="M 15.996535 -0.00113385 L 347.652807 -0.00113385 C 356.486141 -0.00113385 363.647599 7.160325 363.647599 15.993659 L 363.647599 50.269703 C 363.647599 59.103037 356.486141 66.264496 347.652807 66.264496 L 15.996535 66.264496 C 7.163201 66.264496 0.00174228 59.103037 0.00174228 50.269703 L 0.00174228 15.993659 C 0.00174228 7.160325 7.163201 -0.00113385 15.996535 -0.00113385 Z M 15.996535 -0.00113385 " stroke="#000000" stroke-width="8" stroke-opacity="1" stroke-miterlimit="4"/></g></g><g clip-path="url(#4ea55ac07e)"><g clip-path="url(#48336f14bf)"><g transform="matrix(1, 0, 0, 1, 37, 73)"><g clip-path="url(#d5063fea29)"><g clip-path="url(#b4c80f0de8)"><g clip-path="url(#208fdcd908)"><path fill="#9b5a32" d="M 0.308594 0.996094 L 14.101562 0.996094 L 14.101562 172.300781 L 0.308594 172.300781 Z M 0.308594 0.996094 " fill-opacity="1" fill-rule="nonzero"/></g></g></g></g></g></g><g clip-path="url(#ca95fe6485)"><g clip-path="url(#3315b5c92b)"><path stroke-linecap="butt" transform="matrix(0.75, 0, 0, 0.75, 37.310118, 74.052125)" fill="none" stroke-linejoin="miter" d="M 9.185469 -0.00179132 C 11.622969 -0.00179132 13.961511 0.966959 15.68547 2.690917 C 17.409428 4.414876 18.37297 6.753418 18.37297 9.18571 L 18.37297 219.076362 C 18.37297 221.508654 17.409428 223.847196 15.68547 225.571155 C 13.961511 227.295113 11.622969 228.263863 9.185469 228.263863 C 6.753177 228.263863 4.414635 227.295113 2.690676 225.571155 C 0.966718 223.847196 -0.00203251 221.508654 -0.00203251 219.076362 L -0.00203251 9.18571 C -0.00203251 6.753418 0.966718 4.414876 2.690676 2.690917 C 4.414635 0.966959 6.753177 -0.00179132 9.185469 -0.00179132 Z M 9.185469 -0.00179132 " stroke="#000000" stroke-width="8" stroke-opacity="1" stroke-miterlimit="4"/></g></g><g clip-path="url(#a973c6c872)"><g clip-path="url(#c480851f8b)"><g transform="matrix(1, 0, 0, 1, 323, 73)"><g clip-path="url(#505d6e6de5)"><g clip-path="url(#f665b5c99c)"><g clip-path="url(#1f996d3b31)"><path fill="#9b5a32" d="M 0.898438 0.996094 L 14.691406 0.996094 L 14.691406 172.300781 L 0.898438 172.300781 Z M 0.898438 0.996094 " fill-opacity="1" fill-rule="nonzero"/></g></g></g></g></g></g><g clip-path="url(#7f535644d8)"><g clip-path="url(#4dc0f47407)"><path stroke-linecap="butt" transform="matrix(0.75, 0, 0, 0.75, 323.899495, 74.052125)" fill="none" stroke-linejoin="miter" d="M 9.186091 -0.00179132 C 11.623591 -0.00179132 13.962133 0.966959 15.686092 2.690917 C 17.404842 4.414876 18.373592 6.753418 18.373592 9.18571 L 18.373592 219.076362 C 18.373592 221.508654 17.404842 223.847196 15.686092 225.571155 C 13.962133 227.295113 11.623591 228.263863 9.186091 228.263863 C 6.748591 228.263863 4.415257 227.295113 2.691298 225.571155 C 0.96734 223.847196 -0.00141031 221.508654 -0.00141031 219.076362 L -0.00141031 9.18571 C -0.00141031 6.753418 0.96734 4.414876 2.691298 2.690917 C 4.415257 0.966959 6.748591 -0.00179132 9.186091 -0.00179132 Z M 9.186091 -0.00179132 " stroke="#000000" stroke-width="8" stroke-opacity="1" stroke-miterlimit="4"/></g></g><g clip-path="url(#e604899678)"><g clip-path="url(#9d50f633b3)"><g transform="matrix(1, 0, 0, 1, 57, 117)"><g clip-path="url(#5aba99d8c7)"><g clip-path="url(#419738e642)"><g clip-path="url(#48b5ee9109)"><path fill="#38b6ff" d="M 0.632812 0.367188 L 61.9375 0.367188 L 61.9375 27.851562 L 0.632812 27.851562 Z M 0.632812 0.367188 " fill-opacity="1" fill-rule="nonzero"/></g></g></g></g></g></g><g clip-path="url(#a455916a38)"><g clip-path="url(#f30414345c)"><path stroke-linecap="butt" transform="matrix(0.75, 0, 0, 0.75, 57.63583, 117.365793)" fill="none" stroke-linejoin="miter" d="M 9.995977 0.00185921 L 71.772023 0.00185921 C 74.423064 0.00185921 76.964731 1.053943 78.839731 2.928943 C 80.714732 4.803943 81.766815 7.34561 81.766815 9.996652 L 81.766815 26.642486 C 81.766815 29.293528 80.714732 31.835195 78.839731 33.710195 C 76.964731 35.585195 74.423064 36.642487 71.772023 36.642487 L 9.995977 36.642487 C 7.344935 36.642487 4.803268 35.585195 2.928268 33.710195 C 1.053268 31.835195 0.00118458 29.293528 0.00118458 26.642486 L 0.00118458 9.996652 C 0.00118458 7.34561 1.053268 4.803943 2.928268 2.928943 C 4.803268 1.053943 7.344935 0.00185921 9.995977 0.00185921 Z M 9.995977 0.00185921 " stroke="#000000" stroke-width="8" stroke-opacity="1" stroke-miterlimit="4"/></g></g><g clip-path="url(#a898f059ed)"><g clip-path="url(#f925c84415)"><g transform="matrix(1, 0, 0, 1, 51, 194)"><g clip-path="url(#6474d99896)"><g clip-path="url(#3c0af27def)"><g clip-path="url(#bfe4bca20a)"><path fill="#9b5a32" d="M 272.890625 0.5625 L 272.890625 14.460938 L 0.0859375 14.460938 L 0.0859375 0.5625 Z M 272.890625 0.5625 " fill-opacity="1" fill-rule="nonzero"/></g></g></g></g></g></g><g clip-path="url(#b9c70a0b74)"><g clip-path="url(#6f6793ad17)"><path stroke-linecap="butt" transform="matrix(0, 0.75, -0.75, 0, 323.781984, 194.564063)" fill="none" stroke-linejoin="miter" d="M 9.258333 0.000978718 C 14.372917 0.000978718 18.513542 4.146812 18.513542 9.256188 L 18.513542 354.178085 C 18.513542 359.287461 14.372917 363.433294 9.258333 363.433294 C 4.143749 363.433294 -0.0020843 359.287461 -0.0020843 354.178085 L -0.0020843 9.256188 C -0.0020843 4.146812 4.143749 0.000978718 9.258333 0.000978718 Z M 9.258333 0.000978718 " stroke="#000000" stroke-width="8" stroke-opacity="1" stroke-miterlimit="4"/></g></g><g clip-path="url(#3a2af6e3ad)"><g clip-path="url(#49fc7a8d80)"><g transform="matrix(1, 0, 0, 1, 118, 108)"><g clip-path="url(#6d79f2ba99)"><g clip-path="url(#300f095f0f)"><g clip-path="url(#2526f4f523)"><path fill="#38b6ff" d="M 0.972656 0.527344 L 206.003906 0.527344 L 206.003906 111.261719 L 0.972656 111.261719 Z M 0.972656 0.527344 " fill-opacity="1" fill-rule="nonzero"/></g></g></g></g></g></g><g clip-path="url(#42ed797180)"><g clip-path="url(#98e5fcf7fb)"><path stroke-linecap="butt" transform="matrix(0.75, 0, 0, 0.75, 118.973742, 108.525754)" fill="none" stroke-linejoin="miter" d="M 253.227735 0.0021201 L 19.998553 0.0021201 C 14.69647 0.0021201 9.607928 2.106287 5.857927 5.856287 C 2.107927 9.606287 -0.00144805 14.694829 -0.00144805 19.996913 L -0.00144805 132.444837 C 14.535011 143.913588 61.040223 161.262547 130.800644 132.444837 C 200.561065 104.918794 254.816277 120.970878 273.227737 132.444837 L 273.227737 19.996913 C 273.227737 14.694829 271.118361 9.606287 267.368361 5.856287 C 263.618361 2.106287 258.529819 0.0021201 253.227735 0.0021201 Z M 253.227735 0.0021201 " stroke="#000000" stroke-width="8" stroke-opacity="1" stroke-miterlimit="4"/></g></g><g clip-path="url(#7759726ee9)"><g clip-path="url(#1e8688fa79)"><g transform="matrix(1, 0, 0, 1, 128, 116)"><g clip-path="url(#7514431b06)"><g clip-path="url(#d5d3eadcef)"><g clip-path="url(#2f9aa08c3e)"><path fill="#6dc9ff" d="M 0.222656 0.367188 L 187.542969 0.367188 L 187.542969 56.0625 L 0.222656 56.0625 Z M 0.222656 0.367188 " fill-opacity="1" fill-rule="nonzero"/></g></g></g></g></g></g><g clip-path="url(#69f273c2b8)"><g clip-path="url(#1e732a3559)"><g transform="matrix(1, 0, 0, 1, 62, 122)"><g clip-path="url(#68d1575e1c)"><g clip-path="url(#63a53b284a)"><g clip-path="url(#5b63437986)"><path fill="#6dc9ff" d="M 0.523438 0.5625 L 52.234375 0.5625 L 52.234375 9.109375 L 0.523438 9.109375 Z M 0.523438 0.5625 " fill-opacity="1" fill-rule="nonzero"/></g></g></g></g></g></g><g fill="#000000" fill-opacity="1"><g transform="translate(106.502928, 335.051551)"><g><path d="M 14.15625 -21.625 C 17.144531 -21.601562 19.691406 -20.523438 21.796875 -18.390625 C 23.898438 -16.265625 24.9375 -13.71875 24.90625 -10.75 C 24.875 -7.757812 23.796875 -5.210938 21.671875 -3.109375 C 19.546875 -1.003906 17 0.03125 14.03125 0 C 11.476562 0 9.195312 -0.828125 7.1875 -2.484375 L 7.1875 0 L 1.296875 0 L 1.265625 -29.3125 L 7.140625 -29.3125 L 7.140625 -19.0625 C 9.148438 -20.769531 11.488281 -21.625 14.15625 -21.625 Z M 17.84375 -7.015625 C 18.851562 -8.023438 19.390625 -9.285156 19.453125 -10.796875 C 19.453125 -12.222656 18.929688 -13.484375 17.890625 -14.578125 C 16.859375 -15.609375 15.597656 -16.125 14.109375 -16.125 C 12.648438 -16.125 11.390625 -15.617188 10.328125 -14.609375 C 9.296875 -13.578125 8.78125 -12.320312 8.78125 -10.84375 C 8.71875 -9.382812 9.222656 -8.125 10.296875 -7.0625 C 11.296875 -6.050781 12.550781 -5.515625 14.0625 -5.453125 C 15.550781 -5.453125 16.8125 -5.972656 17.84375 -7.015625 Z M 17.84375 -7.015625 "/></g></g></g><g fill="#000000" fill-opacity="1"><g transform="translate(132.080929, 335.051551)"><g><path d="M 22.09375 -9.875 C 22.125 -9.28125 22.125 -8.925781 22.09375 -8.8125 L 6.296875 -8.859375 C 6.523438 -8.210938 6.929688 -7.597656 7.515625 -7.015625 C 8.609375 -5.972656 9.867188 -5.453125 11.296875 -5.453125 C 12.804688 -5.515625 14.066406 -6.050781 15.078125 -7.0625 L 15.25 -7.21875 L 20.703125 -5.5 C 19.503906 -3.625 18.242188 -2.28125 16.921875 -1.46875 C 15.441406 -0.519531 13.582031 -0.03125 11.34375 0 C 8.375 0.03125 5.828125 -1.003906 3.703125 -3.109375 C 1.566406 -5.210938 0.488281 -7.757812 0.46875 -10.75 C 0.4375 -13.71875 1.46875 -16.265625 3.5625 -18.390625 C 5.664062 -20.523438 8.21875 -21.601562 11.21875 -21.625 C 14.1875 -21.65625 16.734375 -20.617188 18.859375 -18.515625 C 20.984375 -16.421875 22.0625 -13.875 22.09375 -10.875 Z M 11.25 -16.125 C 9.769531 -16.125 8.507812 -15.609375 7.46875 -14.578125 C 6.9375 -13.984375 6.5625 -13.394531 6.34375 -12.8125 L 16.21875 -12.8125 C 15.988281 -13.394531 15.59375 -13.992188 15.03125 -14.609375 C 13.96875 -15.617188 12.707031 -16.125 11.25 -16.125 Z M 11.25 -16.125 "/></g></g></g><g fill="#000000" fill-opacity="1"><g transform="translate(155.096919, 335.051551)"><g><path d="M 18.1875 0 L 18.1875 -2.484375 C 16.164062 -0.828125 13.882812 0 11.34375 0 C 8.375 0.03125 5.828125 -1.003906 3.703125 -3.109375 C 1.566406 -5.210938 0.488281 -7.757812 0.46875 -10.75 C 0.4375 -13.71875 1.46875 -16.265625 3.5625 -18.390625 C 5.664062 -20.523438 8.21875 -21.601562 11.21875 -21.625 C 13.820312 -21.625 16.128906 -20.800781 18.140625 -19.15625 L 18.140625 -29.3125 L 24.03125 -29.3125 L 24.0625 0 Z M 15.078125 -7.0625 C 16.109375 -8.09375 16.625 -9.351562 16.625 -10.84375 C 16.570312 -12.351562 16.039062 -13.609375 15.03125 -14.609375 C 13.96875 -15.617188 12.707031 -16.125 11.25 -16.125 C 9.769531 -16.125 8.507812 -15.609375 7.46875 -14.578125 C 6.4375 -13.429688 5.9375 -12.171875 5.96875 -10.796875 C 5.96875 -9.304688 6.484375 -8.046875 7.515625 -7.015625 C 8.554688 -5.972656 9.816406 -5.453125 11.296875 -5.453125 C 12.804688 -5.515625 14.066406 -6.050781 15.078125 -7.0625 Z M 15.078125 -7.0625 "/></g></g></g><g fill="#000000" fill-opacity="1"><g transform="translate(180.42291, 335.051551)"><g><path d="M 16.84375 -21.625 L 16.84375 -15.75 L 12.015625 -15.75 L 12.015625 0 L 6.125 0 L 6.125 -15.75 L 1.265625 -15.75 L 1.265625 -21.625 L 6.125 -21.625 L 6.125 -29.1875 L 12.015625 -29.1875 L 12.015625 -21.625 Z M 16.84375 -21.625 "/></g></g><g transform="translate(198.524908, 335.051551)"><g><path d="M 7.09375 -29.28125 L 7.09375 -24.3125 L 1.265625 -24.3125 L 1.265625 -29.28125 Z M 7.140625 -21.59375 L 7.140625 0 L 1.265625 0 L 1.265625 -21.59375 Z M 7.140625 -21.59375 "/></g></g></g><g fill="#000000" fill-opacity="1"><g transform="translate(206.924907, 335.051551)"><g><path d="M 27.71875 -21.671875 C 30.632812 -21.703125 33 -20.832031 34.8125 -19.0625 C 36.78125 -17.21875 37.765625 -14.628906 37.765625 -11.296875 L 37.765625 0 L 32.296875 0 L 32.296875 -10.921875 C 32.296875 -11.335938 32.226562 -11.8125 32.09375 -12.34375 C 31.894531 -12.988281 31.628906 -13.5625 31.296875 -14.0625 C 30.398438 -15.5 29.082031 -16.21875 27.34375 -16.21875 C 25.488281 -16.21875 24.144531 -15.5 23.3125 -14.0625 C 23 -13.53125 22.773438 -12.929688 22.640625 -12.265625 C 22.523438 -11.785156 22.46875 -11.3125 22.46875 -10.84375 L 22.46875 0 L 16.96875 0 L 16.96875 -10.921875 C 16.96875 -11.335938 16.898438 -11.8125 16.765625 -12.34375 C 16.585938 -12.988281 16.332031 -13.5625 16 -14.0625 C 15.070312 -15.5 13.753906 -16.21875 12.046875 -16.21875 C 10.171875 -16.21875 8.816406 -15.5 7.984375 -14.0625 C 7.671875 -13.53125 7.445312 -12.929688 7.3125 -12.265625 C 7.195312 -11.785156 7.140625 -11.3125 7.140625 -10.84375 L 7.140625 0 L 1.265625 0 L 1.265625 -21.71875 L 7.140625 -21.71875 L 7.140625 -19.453125 C 8.515625 -20.929688 10.28125 -21.671875 12.4375 -21.671875 C 15.59375 -21.722656 18.15625 -20.503906 20.125 -18.015625 L 21.875 -19.65625 C 23.53125 -21 25.476562 -21.671875 27.71875 -21.671875 Z M 27.71875 -21.671875 "/></g></g><g transform="translate(245.942904, 335.051551)"><g><path d="M 22.09375 -9.875 C 22.125 -9.28125 22.125 -8.925781 22.09375 -8.8125 L 6.296875 -8.859375 C 6.523438 -8.210938 6.929688 -7.597656 7.515625 -7.015625 C 8.609375 -5.972656 9.867188 -5.453125 11.296875 -5.453125 C 12.804688 -5.515625 14.066406 -6.050781 15.078125 -7.0625 L 15.25 -7.21875 L 20.703125 -5.5 C 19.503906 -3.625 18.242188 -2.28125 16.921875 -1.46875 C 15.441406 -0.519531 13.582031 -0.03125 11.34375 0 C 8.375 0.03125 5.828125 -1.003906 3.703125 -3.109375 C 1.566406 -5.210938 0.488281 -7.757812 0.46875 -10.75 C 0.4375 -13.71875 1.46875 -16.265625 3.5625 -18.390625 C 5.664062 -20.523438 8.21875 -21.601562 11.21875 -21.625 C 14.1875 -21.65625 16.734375 -20.617188 18.859375 -18.515625 C 20.984375 -16.421875 22.0625 -13.875 22.09375 -10.875 Z M 11.25 -16.125 C 9.769531 -16.125 8.507812 -15.609375 7.46875 -14.578125 C 6.9375 -13.984375 6.5625 -13.394531 6.34375 -12.8125 L 16.21875 -12.8125 C 15.988281 -13.394531 15.59375 -13.992188 15.03125 -14.609375 C 13.96875 -15.617188 12.707031 -16.125 11.25 -16.125 Z M 11.25 -16.125 "/></g></g></g></svg>