<svg xmlns="http://www.w3.org/2000/svg" xmlns:xlink="http://www.w3.org/1999/xlink" width="500" zoomAndPan="magnify" viewBox="0 0 375 374.999991" height="500" preserveAspectRatio="xMidYMid meet" version="1.0"><defs><filter x="0%" y="0%" width="100%" height="100%" id="f7ce4c91b7"><feColorMatrix values="0 0 0 0 1 0 0 0 0 1 0 0 0 0 1 0 0 0 1 0" color-interpolation-filters="sRGB"/></filter><g/><mask id="d4ec656720"><g filter="url(#f7ce4c91b7)"><rect x="-37.5" width="450" fill="#000000" y="-37.499999" height="449.999989" fill-opacity="0.43"/></g></mask><clipPath id="6291ddc2e7"><path d="M 3.308594 1.703125 L 345.671875 1.703125 L 345.671875 224.855469 L 3.308594 224.855469 Z M 3.308594 1.703125 " clip-rule="nonzero"/></clipPath><clipPath id="23c5fa33be"><path d="M 3.765625 73.988281 C 3.765625 73.9375 4.183594 72.269531 4.4375 71.410156 C 4.6875 70.550781 4.855469 70.011719 5.109375 68.882812 C 5.53125 66.574219 5.023438 62.488281 6.285156 58.457031 C 8.21875 52.597656 14.1875 43.460938 18.050781 37.335938 C 21.160156 32.550781 27.296875 25.078125 27.382812 24.703125 C 27.382812 24.648438 27.382812 24.648438 27.382812 24.648438 C 27.382812 24.648438 27.382812 24.648438 27.382812 24.597656 C 27.71875 24.328125 31.246094 20.351562 30.910156 19.8125 C 30.828125 19.707031 30.324219 19.652344 30.324219 19.652344 C 30.324219 19.652344 32.171875 20.78125 33.601562 20.617188 C 37.800781 20.1875 45.703125 9.492188 54.777344 7.019531 C 65.117188 4.226562 86.042969 5.085938 93.691406 6.589844 C 97.304688 7.289062 98.3125 9.871094 100.835938 9.816406 C 103.859375 9.707031 105.710938 5.890625 110.5 4.65625 C 119.410156 2.292969 140.503906 1.109375 154.035156 2.398438 C 166.472656 3.6875 183.785156 7.183594 188.828125 11.535156 C 192.191406 14.332031 189.164062 21.101562 190.59375 21.640625 C 191.015625 21.855469 191.351562 21.425781 192.273438 21.316406 C 196.5625 20.832031 222.363281 18.144531 229.507812 20.457031 C 233.710938 21.800781 232.867188 26.53125 236.652344 27.230469 C 242.535156 28.304688 254.214844 19.488281 264.804688 19.167969 C 277.75 18.792969 302.121094 22.230469 309.097656 28.894531 C 316.15625 35.722656 310.019531 53.027344 305.902344 60.070312 C 303.464844 64.316406 294.390625 67.488281 295.3125 69.152344 C 296.152344 70.441406 302.960938 68.613281 305.988281 70.496094 C 312.878906 74.742188 311.785156 99.628906 318.59375 105.109375 C 321.871094 107.796875 327.585938 106.238281 330.359375 108.871094 C 335.570312 113.707031 336.578125 132.574219 334.394531 137.679688 C 333.554688 139.777344 329.519531 141.011719 330.023438 141.65625 C 330.527344 142.300781 335.066406 140.636719 337 141.65625 C 341.707031 144.074219 346.75 158.265625 345.152344 166.167969 C 343.554688 174.121094 331.285156 182.828125 327.25 189.117188 C 324.5625 193.308594 321.113281 196.800781 321.703125 199.917969 C 322.292969 202.5 327.921875 206.046875 328.511719 206.691406 C 328.679688 206.800781 328.761719 206.800781 328.761719 206.851562 C 328.679688 207.066406 327.25 207.496094 325.90625 207.925781 C 322.796875 209.054688 312.878906 211.636719 310.019531 212.871094 C 308.84375 213.355469 307.835938 214.164062 307.835938 214.214844 C 307.75 214.214844 305.484375 215.023438 304.304688 215.453125 C 303.046875 215.882812 300.777344 216.6875 300.691406 216.6875 C 300.691406 216.742188 298.003906 217.171875 296.824219 217.386719 C 295.734375 217.546875 294.21875 217.816406 293.882812 217.871094 C 293.800781 217.925781 293.714844 217.925781 293.714844 217.925781 C 293.714844 217.925781 293.800781 217.925781 293.800781 217.871094 C 293.800781 217.871094 292.960938 218.03125 292.875 218.03125 C 292.875 218.03125 290.1875 218.085938 288.84375 218.085938 C 287.496094 218.140625 284.808594 218.140625 284.808594 218.140625 C 284.722656 218.140625 282.117188 217.761719 280.859375 217.601562 C 279.511719 217.386719 276.90625 217.066406 276.90625 217.011719 C 276.824219 217.011719 274.46875 216.257812 273.292969 215.882812 C 272.03125 215.507812 269.679688 214.753906 269.597656 214.699219 C 269.597656 214.699219 267.578125 213.625 266.570312 213.035156 C 265.476562 212.496094 263.460938 211.367188 263.460938 211.367188 C 263.375 211.3125 261.863281 209.96875 261.105469 209.269531 C 260.265625 208.574219 258.753906 207.175781 258.671875 207.175781 C 258.671875 207.121094 257.660156 205.5625 257.15625 204.757812 C 256.652344 203.949219 255.644531 202.390625 255.644531 202.335938 C 255.644531 202.335938 255.308594 200.671875 255.054688 199.8125 C 254.886719 198.953125 254.550781 197.285156 254.550781 197.230469 C 254.550781 197.179688 254.804688 195.40625 254.886719 194.652344 C 255.054688 194.0625 255.730469 193.578125 255.140625 193.09375 C 252.871094 191.105469 222.53125 192.234375 217.152344 188.257812 C 213.371094 185.515625 218.246094 177.292969 216.144531 176.648438 C 214.800781 176.214844 212.78125 178.207031 209.839844 179.496094 C 203.367188 182.34375 188.746094 188.738281 178.238281 193.148438 C 167.902344 197.5 157.566406 202.875 147.480469 205.777344 C 138.90625 208.25 126.386719 209.054688 122.265625 210.398438 C 120.753906 210.828125 119.578125 211.691406 119.492188 211.691406 C 119.492188 211.691406 117.054688 212.386719 115.796875 212.710938 C 114.535156 213.035156 112.097656 213.730469 112.011719 213.730469 C 112.011719 213.730469 109.40625 214 108.0625 214.164062 C 106.71875 214.269531 104.113281 214.539062 104.027344 214.539062 C 104.027344 214.539062 100.835938 214.324219 100.332031 214.378906 C 100.164062 214.378906 100.078125 214.429688 100.078125 214.429688 C 100.078125 214.429688 100.246094 214.378906 100.246094 214.378906 C 100.246094 214.378906 100.164062 214.378906 99.996094 214.378906 C 99.492188 214.324219 96.042969 214.164062 95.960938 214.164062 C 95.875 214.164062 93.019531 213.515625 92.09375 213.300781 C 91.589844 213.195312 91.589844 213.035156 90.917969 213.085938 C 86.800781 213.140625 48.726562 224.429688 48.308594 224.050781 C 48.222656 223.945312 49.316406 223.566406 49.230469 223.515625 C 49.148438 223.40625 48.054688 223.621094 47.382812 223.730469 C 46.289062 223.835938 43.433594 224.160156 43.347656 224.160156 C 43.265625 224.160156 40.660156 224.050781 39.316406 223.996094 C 37.96875 223.945312 35.363281 223.835938 35.28125 223.835938 C 35.195312 223.835938 32.675781 223.351562 31.414062 223.085938 C 30.15625 222.816406 27.550781 222.332031 27.550781 222.277344 C 27.464844 222.277344 25.195312 221.417969 24.101562 220.933594 C 22.925781 220.503906 20.65625 219.644531 20.574219 219.589844 C 20.574219 219.589844 18.722656 218.410156 17.714844 217.761719 C 16.792969 217.171875 14.941406 215.988281 14.859375 215.9375 C 14.859375 215.9375 13.515625 214.429688 12.839844 213.730469 C 12.085938 212.980469 10.738281 211.527344 10.738281 211.476562 C 10.65625 211.476562 9.898438 209.863281 9.480469 209.003906 C 9.144531 208.195312 8.304688 206.582031 8.304688 206.53125 C 8.304688 206.53125 8.136719 204.808594 8.050781 203.949219 C 8.050781 203.089844 7.882812 201.425781 7.882812 201.371094 C 7.882812 201.316406 8.386719 199.652344 8.554688 198.84375 C 8.808594 197.984375 9.226562 196.855469 9.3125 196.265625 C 9.394531 195.996094 9.226562 195.941406 9.394531 195.566406 C 10.152344 194.222656 18.554688 187.394531 18.554688 186.320312 C 18.554688 186.105469 18.386719 186.105469 18.136719 185.945312 C 17.714844 185.515625 15.949219 183.796875 15.949219 183.796875 C 15.949219 183.742188 15.027344 182.128906 14.605469 181.324219 C 14.1875 180.570312 13.515625 179.117188 13.429688 179.066406 C 13.34375 179.066406 13.34375 179.171875 13.34375 179.171875 C 13.34375 179.171875 13.34375 179.066406 13.34375 179.066406 C 13.34375 179.011719 13.261719 178.902344 13.261719 178.902344 C 13.261719 178.851562 13.007812 177.183594 12.925781 176.324219 C 12.757812 175.464844 12.503906 173.746094 12.503906 173.746094 C 12.503906 173.691406 12.925781 172.023438 13.09375 171.164062 C 13.34375 170.304688 13.683594 168.636719 13.683594 168.585938 C 13.683594 168.585938 14.941406 166.703125 15.277344 166.21875 C 15.445312 165.949219 15.445312 165.949219 15.613281 165.628906 C 16.457031 163.585938 15.867188 151.222656 19.230469 144.023438 C 23.011719 135.851562 36.289062 122.199219 38.894531 119.40625 C 39.398438 118.816406 39.988281 118.921875 39.988281 118.386719 C 39.988281 116.074219 20.992188 105.21875 20.238281 100.753906 C 19.734375 98.335938 24.355469 95.167969 24.101562 94.789062 C 24.019531 94.734375 23.851562 94.734375 23.851562 94.734375 C 23.765625 94.734375 21.496094 93.875 20.320312 93.445312 C 19.144531 93.015625 16.875 92.15625 16.875 92.101562 C 16.792969 92.101562 14.941406 90.921875 13.933594 90.273438 C 13.007812 89.683594 11.078125 88.5 11.078125 88.5 C 10.992188 88.449219 9.648438 86.996094 8.890625 86.296875 C 8.21875 85.546875 6.789062 84.09375 6.789062 84.09375 C 6.789062 84.039062 5.949219 82.429688 5.53125 81.621094 C 5.109375 80.761719 4.351562 79.203125 4.269531 79.148438 C 4.269531 79.09375 4.101562 77.429688 4.015625 76.570312 C 3.933594 75.710938 3.765625 73.988281 3.765625 73.988281 M 116.886719 48.566406 C 116.972656 48.566406 116.972656 48.511719 116.972656 48.511719 C 116.972656 48.511719 116.972656 48.511719 116.886719 48.511719 C 116.886719 48.566406 116.886719 48.566406 116.886719 48.566406 " clip-rule="nonzero"/></clipPath><mask id="ad6261295d"><g filter="url(#f7ce4c91b7)"><rect x="-95.5" width="540" fill="#000000" y="-134.499998" height="539.999987" fill-opacity="0.5"/></g></mask><clipPath id="a1ca91c447"><path d="M 0.558594 0.703125 L 342.671875 0.703125 L 342.671875 223.480469 L 0.558594 223.480469 Z M 0.558594 0.703125 " clip-rule="nonzero"/></clipPath><clipPath id="6674ebcd13"><path d="M 0.765625 72.988281 C 0.765625 72.9375 1.183594 71.269531 1.4375 70.410156 C 1.6875 69.550781 1.855469 69.011719 2.109375 67.882812 C 2.53125 65.574219 2.023438 61.488281 3.285156 57.457031 C 5.21875 51.597656 11.1875 42.460938 15.050781 36.335938 C 18.160156 31.550781 24.296875 24.078125 24.382812 23.703125 C 24.382812 23.648438 24.382812 23.648438 24.382812 23.648438 C 24.382812 23.648438 24.382812 23.648438 24.382812 23.597656 C 24.71875 23.328125 28.246094 19.351562 27.910156 18.8125 C 27.828125 18.707031 27.324219 18.652344 27.324219 18.652344 C 27.324219 18.652344 29.171875 19.78125 30.601562 19.617188 C 34.800781 19.1875 42.703125 8.492188 51.777344 6.019531 C 62.117188 3.226562 83.042969 4.085938 90.691406 5.589844 C 94.304688 6.289062 95.3125 8.871094 97.835938 8.816406 C 100.859375 8.707031 102.710938 4.890625 107.5 3.65625 C 116.410156 1.292969 137.503906 0.109375 151.035156 1.398438 C 163.472656 2.6875 180.785156 6.183594 185.828125 10.535156 C 189.191406 13.332031 186.164062 20.101562 187.59375 20.640625 C 188.015625 20.855469 188.351562 20.425781 189.273438 20.316406 C 193.5625 19.832031 219.363281 17.144531 226.507812 19.457031 C 230.710938 20.800781 229.867188 25.53125 233.652344 26.230469 C 239.535156 27.304688 251.214844 18.488281 261.804688 18.167969 C 274.75 17.792969 299.121094 21.230469 306.097656 27.894531 C 313.15625 34.722656 307.019531 52.027344 302.902344 59.070312 C 300.464844 63.316406 291.390625 66.488281 292.3125 68.152344 C 293.152344 69.441406 299.960938 67.613281 302.988281 69.496094 C 309.878906 73.742188 308.785156 98.628906 315.59375 104.109375 C 318.871094 106.796875 324.585938 105.238281 327.359375 107.871094 C 332.570312 112.707031 333.578125 131.574219 331.394531 136.679688 C 330.554688 138.777344 326.519531 140.011719 327.023438 140.65625 C 327.527344 141.300781 332.066406 139.636719 334 140.65625 C 338.707031 143.074219 343.75 157.265625 342.152344 165.167969 C 340.554688 173.121094 328.285156 181.828125 324.25 188.117188 C 321.5625 192.308594 318.113281 195.800781 318.703125 198.917969 C 319.292969 201.5 324.921875 205.046875 325.511719 205.691406 C 325.679688 205.800781 325.761719 205.800781 325.761719 205.851562 C 325.679688 206.066406 324.25 206.496094 322.90625 206.925781 C 319.796875 208.054688 309.878906 210.636719 307.019531 211.871094 C 305.84375 212.355469 304.835938 213.164062 304.835938 213.214844 C 304.75 213.214844 302.484375 214.023438 301.304688 214.453125 C 300.046875 214.882812 297.777344 215.6875 297.691406 215.6875 C 297.691406 215.742188 295.003906 216.171875 293.824219 216.386719 C 292.734375 216.546875 291.21875 216.816406 290.882812 216.871094 C 290.800781 216.925781 290.714844 216.925781 290.714844 216.925781 C 290.714844 216.925781 290.800781 216.925781 290.800781 216.871094 C 290.800781 216.871094 289.960938 217.03125 289.875 217.03125 C 289.875 217.03125 287.1875 217.085938 285.84375 217.085938 C 284.496094 217.140625 281.808594 217.140625 281.808594 217.140625 C 281.722656 217.140625 279.117188 216.761719 277.859375 216.601562 C 276.511719 216.386719 273.90625 216.066406 273.90625 216.011719 C 273.824219 216.011719 271.46875 215.257812 270.292969 214.882812 C 269.03125 214.507812 266.679688 213.753906 266.597656 213.699219 C 266.597656 213.699219 264.578125 212.625 263.570312 212.035156 C 262.476562 211.496094 260.460938 210.367188 260.460938 210.367188 C 260.375 210.3125 258.863281 208.96875 258.105469 208.269531 C 257.265625 207.574219 255.753906 206.175781 255.671875 206.175781 C 255.671875 206.121094 254.660156 204.5625 254.15625 203.757812 C 253.652344 202.949219 252.644531 201.390625 252.644531 201.335938 C 252.644531 201.335938 252.308594 199.671875 252.054688 198.8125 C 251.886719 197.953125 251.550781 196.285156 251.550781 196.230469 C 251.550781 196.179688 251.804688 194.40625 251.886719 193.652344 C 252.054688 193.0625 252.730469 192.578125 252.140625 192.09375 C 249.871094 190.105469 219.53125 191.234375 214.152344 187.257812 C 210.371094 184.515625 215.246094 176.292969 213.144531 175.648438 C 211.800781 175.214844 209.78125 177.207031 206.839844 178.496094 C 200.367188 181.34375 185.746094 187.738281 175.238281 192.148438 C 164.902344 196.5 154.566406 201.875 144.480469 204.777344 C 135.90625 207.25 123.386719 208.054688 119.265625 209.398438 C 117.753906 209.828125 116.578125 210.691406 116.492188 210.691406 C 116.492188 210.691406 114.054688 211.386719 112.796875 211.710938 C 111.535156 212.035156 109.097656 212.730469 109.011719 212.730469 C 109.011719 212.730469 106.40625 213 105.0625 213.164062 C 103.71875 213.269531 101.113281 213.539062 101.027344 213.539062 C 101.027344 213.539062 97.835938 213.324219 97.332031 213.378906 C 97.164062 213.378906 97.078125 213.429688 97.078125 213.429688 C 97.078125 213.429688 97.246094 213.378906 97.246094 213.378906 C 97.246094 213.378906 97.164062 213.378906 96.996094 213.378906 C 96.492188 213.324219 93.042969 213.164062 92.960938 213.164062 C 92.875 213.164062 90.019531 212.515625 89.09375 212.300781 C 88.589844 212.195312 88.589844 212.035156 87.917969 212.085938 C 83.800781 212.140625 45.726562 223.429688 45.308594 223.050781 C 45.222656 222.945312 46.316406 222.566406 46.230469 222.515625 C 46.148438 222.40625 45.054688 222.621094 44.382812 222.730469 C 43.289062 222.835938 40.433594 223.160156 40.347656 223.160156 C 40.265625 223.160156 37.660156 223.050781 36.316406 222.996094 C 34.96875 222.945312 32.363281 222.835938 32.28125 222.835938 C 32.195312 222.835938 29.675781 222.351562 28.414062 222.085938 C 27.15625 221.816406 24.550781 221.332031 24.550781 221.277344 C 24.464844 221.277344 22.195312 220.417969 21.101562 219.933594 C 19.925781 219.503906 17.65625 218.644531 17.574219 218.589844 C 17.574219 218.589844 15.722656 217.410156 14.714844 216.761719 C 13.792969 216.171875 11.941406 214.988281 11.859375 214.9375 C 11.859375 214.9375 10.515625 213.429688 9.839844 212.730469 C 9.085938 211.980469 7.738281 210.527344 7.738281 210.476562 C 7.65625 210.476562 6.898438 208.863281 6.480469 208.003906 C 6.144531 207.195312 5.304688 205.582031 5.304688 205.53125 C 5.304688 205.53125 5.136719 203.808594 5.050781 202.949219 C 5.050781 202.089844 4.882812 200.425781 4.882812 200.371094 C 4.882812 200.316406 5.386719 198.652344 5.554688 197.84375 C 5.808594 196.984375 6.226562 195.855469 6.3125 195.265625 C 6.394531 194.996094 6.226562 194.941406 6.394531 194.566406 C 7.152344 193.222656 15.554688 186.394531 15.554688 185.320312 C 15.554688 185.105469 15.386719 185.105469 15.136719 184.945312 C 14.714844 184.515625 12.949219 182.796875 12.949219 182.796875 C 12.949219 182.742188 12.027344 181.128906 11.605469 180.324219 C 11.1875 179.570312 10.515625 178.117188 10.429688 178.066406 C 10.34375 178.066406 10.34375 178.171875 10.34375 178.171875 C 10.34375 178.171875 10.34375 178.066406 10.34375 178.066406 C 10.34375 178.011719 10.261719 177.902344 10.261719 177.902344 C 10.261719 177.851562 10.007812 176.183594 9.925781 175.324219 C 9.757812 174.464844 9.503906 172.746094 9.503906 172.746094 C 9.503906 172.691406 9.925781 171.023438 10.09375 170.164062 C 10.34375 169.304688 10.683594 167.636719 10.683594 167.585938 C 10.683594 167.585938 11.941406 165.703125 12.277344 165.21875 C 12.445312 164.949219 12.445312 164.949219 12.613281 164.628906 C 13.457031 162.585938 12.867188 150.222656 16.230469 143.023438 C 20.011719 134.851562 33.289062 121.199219 35.894531 118.40625 C 36.398438 117.816406 36.988281 117.921875 36.988281 117.386719 C 36.988281 115.074219 17.992188 104.21875 17.238281 99.753906 C 16.734375 97.335938 21.355469 94.167969 21.101562 93.789062 C 21.019531 93.734375 20.851562 93.734375 20.851562 93.734375 C 20.765625 93.734375 18.496094 92.875 17.320312 92.445312 C 16.144531 92.015625 13.875 91.15625 13.875 91.101562 C 13.792969 91.101562 11.941406 89.921875 10.933594 89.273438 C 10.007812 88.683594 8.078125 87.5 8.078125 87.5 C 7.992188 87.449219 6.648438 85.996094 5.890625 85.296875 C 5.21875 84.546875 3.789062 83.09375 3.789062 83.09375 C 3.789062 83.039062 2.949219 81.429688 2.53125 80.621094 C 2.109375 79.761719 1.351562 78.203125 1.269531 78.148438 C 1.269531 78.09375 1.101562 76.429688 1.015625 75.570312 C 0.933594 74.710938 0.765625 72.988281 0.765625 72.988281 M 113.886719 47.566406 C 113.972656 47.566406 113.972656 47.511719 113.972656 47.511719 C 113.972656 47.511719 113.972656 47.511719 113.886719 47.511719 C 113.886719 47.566406 113.886719 47.566406 113.886719 47.566406 " clip-rule="nonzero"/></clipPath><clipPath id="f841125571"><rect x="0" width="343" y="0" height="224"/></clipPath><clipPath id="eff9ce54ba"><rect x="0" width="350" y="0" height="227"/></clipPath><clipPath id="05992ed44b"><path d="M 29 26 L 63 26 L 63 68 L 29 68 Z M 29 26 " clip-rule="nonzero"/></clipPath><clipPath id="97f4f14cec"><path d="M 54.460938 23.902344 L 64.816406 31.308594 L 37.074219 70.089844 L 26.722656 62.683594 Z M 54.460938 23.902344 " clip-rule="nonzero"/></clipPath><clipPath id="a3ffd87d76"><path d="M 59.640625 27.605469 C 61.011719 28.585938 61.9375 30.074219 62.214844 31.738281 C 62.492188 33.40625 62.09375 35.113281 61.113281 36.484375 L 40.796875 64.882812 C 39.816406 66.257812 38.328125 67.183594 36.664062 67.460938 C 35 67.734375 33.292969 67.339844 31.917969 66.359375 C 30.546875 65.375 29.621094 63.886719 29.34375 62.222656 C 29.066406 60.558594 29.464844 58.851562 30.445312 57.480469 L 50.761719 29.078125 C 51.742188 27.707031 53.230469 26.78125 54.894531 26.503906 C 56.558594 26.226562 58.265625 26.625 59.640625 27.605469 Z M 59.640625 27.605469 " clip-rule="nonzero"/></clipPath><clipPath id="05122a7447"><path d="M 0 0.199219 L 33.519531 0.199219 L 33.519531 41.960938 L 0 41.960938 Z M 0 0.199219 " clip-rule="nonzero"/></clipPath><clipPath id="5d8a572912"><path d="M 25.460938 -2.097656 L 35.816406 5.308594 L 8.074219 44.089844 L -2.277344 36.683594 Z M 25.460938 -2.097656 " clip-rule="nonzero"/></clipPath><clipPath id="6e23343fa0"><path d="M 30.640625 1.605469 C 32.011719 2.585938 32.9375 4.074219 33.214844 5.738281 C 33.492188 7.40625 33.09375 9.113281 32.113281 10.484375 L 11.796875 38.882812 C 10.816406 40.257812 9.328125 41.183594 7.664062 41.460938 C 6 41.734375 4.292969 41.339844 2.917969 40.359375 C 1.546875 39.375 0.621094 37.886719 0.34375 36.222656 C 0.0664062 34.558594 0.464844 32.851562 1.445312 31.480469 L 21.761719 3.078125 C 22.742188 1.707031 24.230469 0.78125 25.894531 0.503906 C 27.558594 0.226562 29.265625 0.625 30.640625 1.605469 Z M 30.640625 1.605469 " clip-rule="nonzero"/></clipPath><clipPath id="129b81e739"><rect x="0" width="34" y="0" height="42"/></clipPath><clipPath id="90d4e3fb5f"><path d="M 29 26 L 63 26 L 63 68 L 29 68 Z M 29 26 " clip-rule="nonzero"/></clipPath><clipPath id="997531955c"><path d="M 54.460938 23.902344 L 64.820312 31.3125 L 37.15625 69.988281 L 26.796875 62.578125 Z M 54.460938 23.902344 " clip-rule="nonzero"/></clipPath><clipPath id="fad57269a5"><path d="M 54.457031 23.910156 L 67.050781 32.917969 L 38.226562 73.210938 L 25.636719 64.203125 Z M 54.457031 23.910156 " clip-rule="nonzero"/></clipPath><clipPath id="96485b5354"><path d="M 59.632812 27.609375 C 61.003906 28.59375 61.929688 30.078125 62.207031 31.742188 C 62.484375 33.40625 62.085938 35.113281 61.105469 36.484375 L 40.800781 64.875 C 39.816406 66.246094 38.332031 67.171875 36.667969 67.449219 C 35 67.726562 33.296875 67.328125 31.921875 66.347656 C 30.550781 65.367188 29.625 63.878906 29.347656 62.214844 C 29.074219 60.550781 29.46875 58.84375 30.449219 57.472656 L 50.757812 29.082031 C 51.738281 27.710938 53.222656 26.785156 54.890625 26.507812 C 56.554688 26.234375 58.257812 26.628906 59.632812 27.609375 Z M 59.632812 27.609375 " clip-rule="nonzero"/></clipPath><clipPath id="47fd7a2d8b"><path d="M 37 31 L 71 31 L 71 73 L 37 73 Z M 37 31 " clip-rule="nonzero"/></clipPath><clipPath id="f4380c0210"><path d="M 62.996094 29.125 L 73.347656 36.53125 L 45.605469 75.316406 L 35.253906 67.910156 Z M 62.996094 29.125 " clip-rule="nonzero"/></clipPath><clipPath id="0c2476921d"><path d="M 68.171875 32.828125 C 69.542969 33.8125 70.472656 35.296875 70.746094 36.964844 C 71.023438 38.628906 70.628906 40.335938 69.644531 41.707031 L 49.332031 70.109375 C 48.347656 71.480469 46.863281 72.40625 45.195312 72.683594 C 43.53125 72.960938 41.824219 72.5625 40.453125 71.582031 C 39.078125 70.597656 38.152344 69.113281 37.875 67.445312 C 37.601562 65.78125 37.996094 64.074219 38.976562 62.703125 L 59.292969 34.300781 C 60.273438 32.929688 61.761719 32.003906 63.425781 31.726562 C 65.09375 31.449219 66.800781 31.847656 68.171875 32.828125 Z M 68.171875 32.828125 " clip-rule="nonzero"/></clipPath><clipPath id="540b463513"><path d="M 0.558594 0.238281 L 34 0.238281 L 34 42 L 0.558594 42 Z M 0.558594 0.238281 " clip-rule="nonzero"/></clipPath><clipPath id="9b120c1338"><path d="M 25.996094 -1.875 L 36.347656 5.53125 L 8.605469 44.316406 L -1.746094 36.910156 Z M 25.996094 -1.875 " clip-rule="nonzero"/></clipPath><clipPath id="1c5d796ed4"><path d="M 31.171875 1.828125 C 32.542969 2.8125 33.472656 4.296875 33.746094 5.964844 C 34.023438 7.628906 33.628906 9.335938 32.644531 10.707031 L 12.332031 39.109375 C 11.347656 40.480469 9.863281 41.40625 8.195312 41.683594 C 6.53125 41.960938 4.824219 41.5625 3.453125 40.582031 C 2.078125 39.597656 1.152344 38.113281 0.875 36.445312 C 0.601562 34.78125 0.996094 33.074219 1.976562 31.703125 L 22.292969 3.300781 C 23.273438 1.929688 24.761719 1.003906 26.425781 0.726562 C 28.09375 0.449219 29.800781 0.847656 31.171875 1.828125 Z M 31.171875 1.828125 " clip-rule="nonzero"/></clipPath><clipPath id="87af97109d"><rect x="0" width="34" y="0" height="42"/></clipPath><clipPath id="56b7a3c1a7"><path d="M 37 31 L 71 31 L 71 73 L 37 73 Z M 37 31 " clip-rule="nonzero"/></clipPath><clipPath id="1b70cd6277"><path d="M 62.996094 29.125 L 73.355469 36.535156 L 45.691406 75.210938 L 35.332031 67.800781 Z M 62.996094 29.125 " clip-rule="nonzero"/></clipPath><clipPath id="648baa4c5a"><path d="M 62.992188 29.132812 L 75.582031 38.140625 L 46.761719 78.433594 L 34.167969 69.425781 Z M 62.992188 29.132812 " clip-rule="nonzero"/></clipPath><clipPath id="ab926c3c50"><path d="M 68.164062 32.835938 C 69.535156 33.816406 70.464844 35.300781 70.738281 36.96875 C 71.015625 38.632812 70.621094 40.335938 69.636719 41.710938 L 49.332031 70.097656 C 48.351562 71.46875 46.863281 72.394531 45.199219 72.671875 C 43.535156 72.949219 41.828125 72.550781 40.457031 71.570312 C 39.085938 70.589844 38.15625 69.101562 37.882812 67.4375 C 37.605469 65.773438 38 64.066406 38.984375 62.695312 L 59.289062 34.308594 C 60.269531 32.933594 61.757812 32.007812 63.421875 31.734375 C 65.085938 31.457031 66.792969 31.851562 68.164062 32.835938 Z M 68.164062 32.835938 " clip-rule="nonzero"/></clipPath><clipPath id="29d08143e2"><path d="M 46 36 L 80 36 L 80 78 L 46 78 Z M 46 36 " clip-rule="nonzero"/></clipPath><clipPath id="8c8a9d9f4a"><path d="M 71.527344 34.351562 L 81.882812 41.753906 L 54.140625 80.539062 L 43.785156 73.132812 Z M 71.527344 34.351562 " clip-rule="nonzero"/></clipPath><clipPath id="582b860022"><path d="M 76.703125 38.050781 C 78.078125 39.035156 79.003906 40.523438 79.28125 42.1875 C 79.558594 43.851562 79.160156 45.558594 78.179688 46.933594 L 57.863281 75.332031 C 56.882812 76.703125 55.394531 77.628906 53.730469 77.90625 C 52.066406 78.183594 50.359375 77.789062 48.984375 76.804688 C 47.613281 75.824219 46.6875 74.335938 46.410156 72.671875 C 46.132812 71.003906 46.527344 69.300781 47.511719 67.925781 L 67.824219 39.527344 C 68.808594 38.152344 70.292969 37.226562 71.960938 36.949219 C 73.625 36.675781 75.332031 37.070312 76.703125 38.050781 Z M 76.703125 38.050781 " clip-rule="nonzero"/></clipPath><clipPath id="107fb0295a"><path d="M 0 0.519531 L 33.558594 0.519531 L 33.558594 42 L 0 42 Z M 0 0.519531 " clip-rule="nonzero"/></clipPath><clipPath id="c9e1ba8556"><path d="M 25.527344 -1.648438 L 35.882812 5.753906 L 8.140625 44.539062 L -2.214844 37.132812 Z M 25.527344 -1.648438 " clip-rule="nonzero"/></clipPath><clipPath id="081b8c7878"><path d="M 30.703125 2.050781 C 32.078125 3.035156 33.003906 4.523438 33.28125 6.1875 C 33.558594 7.851562 33.160156 9.558594 32.179688 10.933594 L 11.863281 39.332031 C 10.882812 40.703125 9.394531 41.628906 7.730469 41.90625 C 6.066406 42.183594 4.359375 41.789062 2.984375 40.804688 C 1.613281 39.824219 0.6875 38.335938 0.410156 36.671875 C 0.132812 35.003906 0.527344 33.300781 1.511719 31.925781 L 21.824219 3.527344 C 22.808594 2.152344 24.292969 1.226562 25.960938 0.949219 C 27.625 0.675781 29.332031 1.070312 30.703125 2.050781 Z M 30.703125 2.050781 " clip-rule="nonzero"/></clipPath><clipPath id="6d8ceb4104"><rect x="0" width="34" y="0" height="42"/></clipPath><clipPath id="28d3aaa7b1"><path d="M 46 36 L 80 36 L 80 78 L 46 78 Z M 46 36 " clip-rule="nonzero"/></clipPath><clipPath id="9998cba403"><path d="M 71.527344 34.351562 L 81.886719 41.761719 L 54.222656 80.433594 L 43.863281 73.023438 Z M 71.527344 34.351562 " clip-rule="nonzero"/></clipPath><clipPath id="74d95c3df4"><path d="M 71.523438 34.355469 L 84.113281 43.363281 L 55.292969 83.65625 L 42.703125 74.648438 Z M 71.523438 34.355469 " clip-rule="nonzero"/></clipPath><clipPath id="15d1823c9f"><path d="M 76.699219 38.058594 C 78.070312 39.039062 78.996094 40.527344 79.273438 42.191406 C 79.546875 43.855469 79.152344 45.5625 78.171875 46.933594 L 57.863281 75.320312 C 56.882812 76.695312 55.398438 77.621094 53.730469 77.894531 C 52.066406 78.171875 50.363281 77.777344 48.988281 76.792969 C 47.617188 75.8125 46.691406 74.328125 46.414062 72.660156 C 46.136719 70.996094 46.535156 69.292969 47.515625 67.917969 L 67.820312 39.53125 C 68.804688 38.160156 70.289062 37.234375 71.953125 36.957031 C 73.617188 36.679688 75.324219 37.078125 76.699219 38.058594 Z M 76.699219 38.058594 " clip-rule="nonzero"/></clipPath><clipPath id="49e4c54a86"><path d="M 54 42 L 88 42 L 88 84 L 54 84 Z M 54 42 " clip-rule="nonzero"/></clipPath><clipPath id="fec7953cf3"><path d="M 80.0625 39.574219 L 90.414062 46.980469 L 62.671875 85.761719 L 52.320312 78.355469 Z M 80.0625 39.574219 " clip-rule="nonzero"/></clipPath><clipPath id="fca71c1213"><path d="M 85.238281 43.277344 C 86.609375 44.257812 87.535156 45.746094 87.8125 47.410156 C 88.089844 49.074219 87.691406 50.78125 86.710938 52.15625 L 66.398438 80.554688 C 65.414062 81.929688 63.929688 82.855469 62.261719 83.132812 C 60.597656 83.40625 58.890625 83.011719 57.519531 82.027344 C 56.144531 81.046875 55.21875 79.558594 54.941406 77.894531 C 54.664062 76.230469 55.0625 74.523438 56.042969 73.148438 L 76.359375 44.75 C 77.339844 43.378906 78.828125 42.449219 80.492188 42.175781 C 82.15625 41.898438 83.863281 42.292969 85.238281 43.277344 Z M 85.238281 43.277344 " clip-rule="nonzero"/></clipPath><clipPath id="30e67936ea"><path d="M 0.601562 0 L 34 0 L 34 41.558594 L 0.601562 41.558594 Z M 0.601562 0 " clip-rule="nonzero"/></clipPath><clipPath id="1c53d6b604"><path d="M 26.0625 -2.425781 L 36.414062 4.980469 L 8.671875 43.761719 L -1.679688 36.355469 Z M 26.0625 -2.425781 " clip-rule="nonzero"/></clipPath><clipPath id="e9c0790544"><path d="M 31.238281 1.277344 C 32.609375 2.257812 33.535156 3.746094 33.8125 5.410156 C 34.089844 7.074219 33.691406 8.78125 32.710938 10.15625 L 12.398438 38.554688 C 11.414062 39.929688 9.929688 40.855469 8.261719 41.132812 C 6.597656 41.40625 4.890625 41.011719 3.519531 40.027344 C 2.144531 39.046875 1.21875 37.558594 0.941406 35.894531 C 0.664062 34.230469 1.0625 32.523438 2.042969 31.148438 L 22.359375 2.75 C 23.339844 1.378906 24.828125 0.449219 26.492188 0.175781 C 28.15625 -0.101562 29.863281 0.292969 31.238281 1.277344 Z M 31.238281 1.277344 " clip-rule="nonzero"/></clipPath><clipPath id="17ee220ddc"><rect x="0" width="34" y="0" height="42"/></clipPath><clipPath id="12d49129df"><path d="M 54 42 L 88 42 L 88 84 L 54 84 Z M 54 42 " clip-rule="nonzero"/></clipPath><clipPath id="6a96d758e4"><path d="M 80.0625 39.574219 L 90.421875 46.984375 L 62.757812 85.660156 L 52.398438 78.25 Z M 80.0625 39.574219 " clip-rule="nonzero"/></clipPath><clipPath id="3af52709d7"><path d="M 80.054688 39.582031 L 92.648438 48.585938 L 63.824219 88.882812 L 51.234375 79.875 Z M 80.054688 39.582031 " clip-rule="nonzero"/></clipPath><clipPath id="4814316d61"><path d="M 85.230469 43.28125 C 86.601562 44.261719 87.527344 45.75 87.804688 47.414062 C 88.082031 49.078125 87.683594 50.785156 86.703125 52.15625 L 66.398438 80.546875 C 65.417969 81.917969 63.929688 82.84375 62.265625 83.121094 C 60.601562 83.394531 58.894531 83 57.523438 82.019531 C 56.148438 81.035156 55.222656 79.550781 54.949219 77.886719 C 54.671875 76.222656 55.066406 74.515625 56.050781 73.144531 L 76.355469 44.753906 C 77.335938 43.382812 78.824219 42.457031 80.488281 42.179688 C 82.152344 41.902344 83.859375 42.300781 85.230469 43.28125 Z M 85.230469 43.28125 " clip-rule="nonzero"/></clipPath><clipPath id="42c474bcd2"><path d="M 63 47 L 97 47 L 97 89 L 63 89 Z M 63 47 " clip-rule="nonzero"/></clipPath><clipPath id="b5167a3d33"><path d="M 88.59375 44.796875 L 98.945312 52.203125 L 71.207031 90.984375 L 60.851562 83.582031 Z M 88.59375 44.796875 " clip-rule="nonzero"/></clipPath><clipPath id="a23f62dd43"><path d="M 93.769531 48.5 C 95.144531 49.480469 96.070312 50.96875 96.347656 52.632812 C 96.621094 54.300781 96.226562 56.007812 95.246094 57.378906 L 74.929688 85.777344 C 73.949219 87.152344 72.460938 88.078125 70.796875 88.355469 C 69.128906 88.632812 67.421875 88.234375 66.050781 87.253906 C 64.679688 86.269531 63.75 84.785156 63.476562 83.117188 C 63.199219 81.453125 63.59375 79.746094 64.578125 78.375 L 84.890625 49.972656 C 85.875 48.601562 87.359375 47.675781 89.027344 47.398438 C 90.691406 47.121094 92.398438 47.519531 93.769531 48.5 Z M 93.769531 48.5 " clip-rule="nonzero"/></clipPath><clipPath id="de0fe1c0fd"><path d="M 0 0.078125 L 33.839844 0.078125 L 33.839844 41.839844 L 0 41.839844 Z M 0 0.078125 " clip-rule="nonzero"/></clipPath><clipPath id="20a49ebae6"><path d="M 25.59375 -2.203125 L 35.945312 5.203125 L 8.207031 43.984375 L -2.148438 36.582031 Z M 25.59375 -2.203125 " clip-rule="nonzero"/></clipPath><clipPath id="49dfcccb44"><path d="M 30.769531 1.5 C 32.144531 2.480469 33.070312 3.96875 33.347656 5.632812 C 33.621094 7.300781 33.226562 9.007812 32.246094 10.378906 L 11.929688 38.777344 C 10.949219 40.152344 9.460938 41.078125 7.796875 41.355469 C 6.128906 41.632812 4.421875 41.234375 3.050781 40.253906 C 1.679688 39.269531 0.75 37.785156 0.476562 36.117188 C 0.199219 34.453125 0.59375 32.746094 1.578125 31.375 L 21.890625 2.972656 C 22.875 1.601562 24.359375 0.675781 26.027344 0.398438 C 27.691406 0.121094 29.398438 0.519531 30.769531 1.5 Z M 30.769531 1.5 " clip-rule="nonzero"/></clipPath><clipPath id="3f8d3b0bee"><rect x="0" width="34" y="0" height="42"/></clipPath><clipPath id="611110e3b2"><path d="M 63 47 L 97 47 L 97 89 L 63 89 Z M 63 47 " clip-rule="nonzero"/></clipPath><clipPath id="00d37e0a3a"><path d="M 88.59375 44.796875 L 98.953125 52.207031 L 71.289062 90.882812 L 60.929688 83.472656 Z M 88.59375 44.796875 " clip-rule="nonzero"/></clipPath><clipPath id="d2d875f5c2"><path d="M 88.589844 44.804688 L 101.179688 53.8125 L 72.359375 94.105469 L 59.765625 85.097656 Z M 88.589844 44.804688 " clip-rule="nonzero"/></clipPath><clipPath id="b76d9c7d78"><path d="M 93.761719 48.503906 C 95.136719 49.488281 96.0625 50.972656 96.339844 52.636719 C 96.613281 54.304688 96.21875 56.007812 95.234375 57.382812 L 74.929688 85.769531 C 73.949219 87.140625 72.460938 88.066406 70.796875 88.34375 C 69.132812 88.621094 67.425781 88.222656 66.054688 87.242188 C 64.683594 86.261719 63.757812 84.773438 63.480469 83.109375 C 63.203125 81.445312 63.601562 79.738281 64.582031 78.367188 L 84.886719 49.980469 C 85.871094 48.605469 87.355469 47.679688 89.019531 47.402344 C 90.683594 47.128906 92.390625 47.523438 93.761719 48.503906 Z M 93.761719 48.503906 " clip-rule="nonzero"/></clipPath><clipPath id="e419ad266d"><path d="M 71 52 L 105 52 L 105 94 L 71 94 Z M 71 52 " clip-rule="nonzero"/></clipPath><clipPath id="bb5d8199f0"><path d="M 97.125 50.019531 L 107.480469 57.425781 L 79.738281 96.210938 L 69.386719 88.804688 Z M 97.125 50.019531 " clip-rule="nonzero"/></clipPath><clipPath id="05aa745bbf"><path d="M 102.304688 53.722656 C 103.675781 54.707031 104.601562 56.191406 104.878906 57.859375 C 105.15625 59.523438 104.757812 61.230469 103.777344 62.601562 L 83.460938 91.003906 C 82.480469 92.375 80.992188 93.300781 79.328125 93.578125 C 77.664062 93.855469 75.957031 93.457031 74.582031 92.476562 C 73.210938 91.496094 72.285156 90.007812 72.007812 88.34375 C 71.730469 86.675781 72.128906 84.96875 73.109375 83.597656 L 93.425781 55.199219 C 94.40625 53.824219 95.894531 52.898438 97.558594 52.621094 C 99.222656 52.34375 100.929688 52.742188 102.304688 53.722656 Z M 102.304688 53.722656 " clip-rule="nonzero"/></clipPath><clipPath id="9315e0d11a"><path d="M 0.640625 0.121094 L 34 0.121094 L 34 41.878906 L 0.640625 41.878906 Z M 0.640625 0.121094 " clip-rule="nonzero"/></clipPath><clipPath id="d2ae90ee2e"><path d="M 26.125 -1.980469 L 36.480469 5.425781 L 8.738281 44.210938 L -1.613281 36.804688 Z M 26.125 -1.980469 " clip-rule="nonzero"/></clipPath><clipPath id="55a0b24ea8"><path d="M 31.304688 1.722656 C 32.675781 2.707031 33.601562 4.191406 33.878906 5.859375 C 34.15625 7.523438 33.757812 9.230469 32.777344 10.601562 L 12.460938 39.003906 C 11.480469 40.375 9.992188 41.300781 8.328125 41.578125 C 6.664062 41.855469 4.957031 41.457031 3.582031 40.476562 C 2.210938 39.496094 1.285156 38.007812 1.007812 36.34375 C 0.730469 34.675781 1.128906 32.96875 2.109375 31.597656 L 22.425781 3.199219 C 23.40625 1.824219 24.894531 0.898438 26.558594 0.621094 C 28.222656 0.34375 29.929688 0.742188 31.304688 1.722656 Z M 31.304688 1.722656 " clip-rule="nonzero"/></clipPath><clipPath id="3e4a8971ba"><rect x="0" width="34" y="0" height="42"/></clipPath><clipPath id="a9b5313d9e"><path d="M 71 52 L 105 52 L 105 94 L 71 94 Z M 71 52 " clip-rule="nonzero"/></clipPath><clipPath id="7f8520ec04"><path d="M 97.125 50.019531 L 107.484375 57.429688 L 79.820312 96.105469 L 69.460938 88.695312 Z M 97.125 50.019531 " clip-rule="nonzero"/></clipPath><clipPath id="9b3aca8077"><path d="M 97.121094 50.027344 L 109.714844 59.035156 L 80.890625 99.328125 L 68.300781 90.320312 Z M 97.121094 50.027344 " clip-rule="nonzero"/></clipPath><clipPath id="2fcad8e7c1"><path d="M 102.296875 53.730469 C 103.667969 54.710938 104.59375 56.199219 104.871094 57.863281 C 105.148438 59.527344 104.75 61.234375 103.769531 62.605469 L 83.464844 90.992188 C 82.480469 92.363281 80.996094 93.292969 79.332031 93.566406 C 77.667969 93.84375 75.960938 93.449219 74.589844 92.464844 C 73.214844 91.484375 72.289062 89.996094 72.011719 88.332031 C 71.738281 86.667969 72.132812 84.960938 73.113281 83.589844 L 93.421875 55.203125 C 94.402344 53.832031 95.890625 52.902344 97.554688 52.628906 C 99.21875 52.351562 100.921875 52.746094 102.296875 53.730469 Z M 102.296875 53.730469 " clip-rule="nonzero"/></clipPath><clipPath id="31d6ed1dda"><path d="M 80 57 L 114 57 L 114 99 L 80 99 Z M 80 57 " clip-rule="nonzero"/></clipPath><clipPath id="8f1033d2e7"><path d="M 105.660156 55.246094 L 116.011719 62.648438 L 88.269531 101.433594 L 77.917969 94.027344 Z M 105.660156 55.246094 " clip-rule="nonzero"/></clipPath><clipPath id="8a5bc34bde"><path d="M 110.835938 58.949219 C 112.210938 59.929688 113.136719 61.417969 113.410156 63.082031 C 113.6875 64.746094 113.292969 66.453125 112.308594 67.828125 L 91.996094 96.226562 C 91.011719 97.597656 89.527344 98.527344 87.859375 98.800781 C 86.195312 99.078125 84.488281 98.683594 83.117188 97.699219 C 81.742188 96.71875 80.816406 95.230469 80.539062 93.566406 C 80.265625 91.902344 80.660156 90.195312 81.644531 88.820312 L 101.957031 60.421875 C 102.9375 59.046875 104.425781 58.121094 106.089844 57.84375 C 107.757812 57.570312 109.464844 57.964844 110.835938 58.949219 Z M 110.835938 58.949219 " clip-rule="nonzero"/></clipPath><clipPath id="88e705e730"><path d="M 0.0390625 0.398438 L 33.878906 0.398438 L 33.878906 42 L 0.0390625 42 Z M 0.0390625 0.398438 " clip-rule="nonzero"/></clipPath><clipPath id="230805e224"><path d="M 25.660156 -1.753906 L 36.011719 5.648438 L 8.269531 44.433594 L -2.082031 37.027344 Z M 25.660156 -1.753906 " clip-rule="nonzero"/></clipPath><clipPath id="379a016642"><path d="M 30.835938 1.949219 C 32.210938 2.929688 33.136719 4.417969 33.410156 6.082031 C 33.6875 7.746094 33.292969 9.453125 32.308594 10.828125 L 11.996094 39.226562 C 11.011719 40.597656 9.527344 41.527344 7.859375 41.800781 C 6.195312 42.078125 4.488281 41.683594 3.117188 40.699219 C 1.742188 39.71875 0.816406 38.230469 0.539062 36.566406 C 0.265625 34.902344 0.660156 33.195312 1.644531 31.820312 L 21.957031 3.421875 C 22.9375 2.046875 24.425781 1.121094 26.089844 0.84375 C 27.757812 0.570312 29.464844 0.964844 30.835938 1.949219 Z M 30.835938 1.949219 " clip-rule="nonzero"/></clipPath><clipPath id="5bcbccbb6c"><rect x="0" width="34" y="0" height="42"/></clipPath><clipPath id="2e17042a6b"><path d="M 80 57 L 114 57 L 114 99 L 80 99 Z M 80 57 " clip-rule="nonzero"/></clipPath><clipPath id="a63487a88e"><path d="M 105.660156 55.246094 L 116.019531 62.65625 L 88.355469 101.332031 L 77.996094 93.921875 Z M 105.660156 55.246094 " clip-rule="nonzero"/></clipPath><clipPath id="b04f3e4b67"><path d="M 105.65625 55.253906 L 118.246094 64.257812 L 89.425781 104.550781 L 76.832031 95.546875 Z M 105.65625 55.253906 " clip-rule="nonzero"/></clipPath><clipPath id="d1d946f5ee"><path d="M 110.828125 58.953125 C 112.203125 59.933594 113.128906 61.421875 113.402344 63.085938 C 113.679688 64.75 113.285156 66.457031 112.300781 67.828125 L 91.996094 96.214844 C 91.015625 97.589844 89.527344 98.515625 87.863281 98.792969 C 86.199219 99.066406 84.492188 98.671875 83.121094 97.691406 C 81.75 96.707031 80.824219 95.222656 80.546875 93.558594 C 80.269531 91.890625 80.664062 90.1875 81.648438 88.8125 L 101.953125 60.425781 C 102.933594 59.054688 104.421875 58.128906 106.085938 57.851562 C 107.75 57.574219 109.457031 57.972656 110.828125 58.953125 Z M 110.828125 58.953125 " clip-rule="nonzero"/></clipPath><clipPath id="2f2bf72011"><path d="M 88 62 L 123 62 L 123 105 L 88 105 Z M 88 62 " clip-rule="nonzero"/></clipPath><clipPath id="cbe52cb59f"><path d="M 114.191406 60.46875 L 124.546875 67.875 L 96.804688 106.65625 L 86.449219 99.25 Z M 114.191406 60.46875 " clip-rule="nonzero"/></clipPath><clipPath id="3e05a6e06a"><path d="M 119.367188 64.171875 C 120.742188 65.152344 121.667969 66.640625 121.945312 68.304688 C 122.222656 69.972656 121.824219 71.675781 120.84375 73.050781 L 100.527344 101.449219 C 99.546875 102.824219 98.058594 103.75 96.394531 104.027344 C 94.730469 104.300781 93.023438 103.90625 91.648438 102.925781 C 90.277344 101.941406 89.351562 100.453125 89.074219 98.789062 C 88.796875 97.125 89.195312 95.417969 90.175781 94.042969 L 110.488281 65.644531 C 111.472656 64.273438 112.960938 63.34375 114.625 63.070312 C 116.289062 62.792969 117.996094 63.1875 119.367188 64.171875 Z M 119.367188 64.171875 " clip-rule="nonzero"/></clipPath><clipPath id="a02ba0b4be"><path d="M 0.679688 0.679688 L 34.28125 0.679688 L 34.28125 42.441406 L 0.679688 42.441406 Z M 0.679688 0.679688 " clip-rule="nonzero"/></clipPath><clipPath id="746e2c294c"><path d="M 26.191406 -1.53125 L 36.546875 5.875 L 8.804688 44.65625 L -1.550781 37.25 Z M 26.191406 -1.53125 " clip-rule="nonzero"/></clipPath><clipPath id="99fdf3fbdb"><path d="M 31.367188 2.171875 C 32.742188 3.152344 33.667969 4.640625 33.945312 6.304688 C 34.222656 7.972656 33.824219 9.675781 32.84375 11.050781 L 12.527344 39.449219 C 11.546875 40.824219 10.058594 41.75 8.394531 42.027344 C 6.730469 42.300781 5.023438 41.90625 3.648438 40.925781 C 2.277344 39.941406 1.351562 38.453125 1.074219 36.789062 C 0.796875 35.125 1.195312 33.417969 2.175781 32.042969 L 22.488281 3.644531 C 23.472656 2.273438 24.960938 1.34375 26.625 1.070312 C 28.289062 0.792969 29.996094 1.1875 31.367188 2.171875 Z M 31.367188 2.171875 " clip-rule="nonzero"/></clipPath><clipPath id="6e98937823"><rect x="0" width="35" y="0" height="43"/></clipPath><clipPath id="b4c01808fc"><path d="M 88 62 L 123 62 L 123 105 L 88 105 Z M 88 62 " clip-rule="nonzero"/></clipPath><clipPath id="8d298ffab5"><path d="M 114.191406 60.46875 L 124.550781 67.878906 L 96.886719 106.554688 L 86.527344 99.144531 Z M 114.191406 60.46875 " clip-rule="nonzero"/></clipPath><clipPath id="8896e2995d"><path d="M 114.1875 60.476562 L 126.777344 69.484375 L 97.957031 109.777344 L 85.367188 100.769531 Z M 114.1875 60.476562 " clip-rule="nonzero"/></clipPath><clipPath id="2c20dacabb"><path d="M 119.363281 64.175781 C 120.734375 65.160156 121.660156 66.644531 121.9375 68.308594 C 122.210938 69.972656 121.816406 71.679688 120.835938 73.050781 L 100.527344 101.441406 C 99.546875 102.8125 98.0625 103.738281 96.394531 104.015625 C 94.730469 104.292969 93.027344 103.894531 91.652344 102.914062 C 90.28125 101.933594 89.355469 100.445312 89.078125 98.78125 C 88.800781 97.117188 89.199219 95.410156 90.179688 94.039062 L 110.484375 65.648438 C 111.46875 64.277344 112.953125 63.351562 114.617188 63.074219 C 116.285156 62.800781 117.988281 63.195312 119.363281 64.175781 Z M 119.363281 64.175781 " clip-rule="nonzero"/></clipPath><clipPath id="1604024ef3"><path d="M 97 68 L 131 68 L 131 110 L 97 110 Z M 97 68 " clip-rule="nonzero"/></clipPath><clipPath id="0e6d3a3385"><path d="M 122.726562 65.691406 L 133.078125 73.097656 L 105.335938 111.878906 L 94.984375 104.476562 Z M 122.726562 65.691406 " clip-rule="nonzero"/></clipPath><clipPath id="519c9673d4"><path d="M 127.902344 69.394531 C 129.273438 70.378906 130.203125 71.863281 130.476562 73.53125 C 130.753906 75.195312 130.359375 76.902344 129.375 78.273438 L 109.0625 106.675781 C 108.078125 108.046875 106.59375 108.972656 104.925781 109.25 C 103.261719 109.527344 101.554688 109.128906 100.183594 108.148438 C 98.808594 107.164062 97.882812 105.679688 97.605469 104.011719 C 97.328125 102.347656 97.726562 100.640625 98.707031 99.269531 L 119.023438 70.867188 C 120.003906 69.496094 121.492188 68.570312 123.15625 68.292969 C 124.820312 68.015625 126.527344 68.414062 127.902344 69.394531 Z M 127.902344 69.394531 " clip-rule="nonzero"/></clipPath><clipPath id="cb7a27b13b"><path d="M 0.320312 0 L 33.921875 0 L 33.921875 41.71875 L 0.320312 41.71875 Z M 0.320312 0 " clip-rule="nonzero"/></clipPath><clipPath id="481e96f83f"><path d="M 25.726562 -2.308594 L 36.078125 5.097656 L 8.335938 43.878906 L -2.015625 36.476562 Z M 25.726562 -2.308594 " clip-rule="nonzero"/></clipPath><clipPath id="480c3efcc1"><path d="M 30.902344 1.394531 C 32.273438 2.378906 33.203125 3.863281 33.476562 5.53125 C 33.753906 7.195312 33.359375 8.902344 32.375 10.273438 L 12.0625 38.675781 C 11.078125 40.046875 9.59375 40.972656 7.925781 41.25 C 6.261719 41.527344 4.554688 41.128906 3.183594 40.148438 C 1.808594 39.164062 0.882812 37.679688 0.605469 36.011719 C 0.328125 34.347656 0.726562 32.640625 1.707031 31.269531 L 22.023438 2.867188 C 23.003906 1.496094 24.492188 0.570312 26.15625 0.292969 C 27.820312 0.015625 29.527344 0.414062 30.902344 1.394531 Z M 30.902344 1.394531 " clip-rule="nonzero"/></clipPath><clipPath id="34d419bb25"><rect x="0" width="34" y="0" height="42"/></clipPath><clipPath id="6569d082e6"><path d="M 97 68 L 131 68 L 131 110 L 97 110 Z M 97 68 " clip-rule="nonzero"/></clipPath><clipPath id="2c3ab926bb"><path d="M 122.726562 65.691406 L 133.085938 73.101562 L 105.421875 111.777344 L 95.0625 104.367188 Z M 122.726562 65.691406 " clip-rule="nonzero"/></clipPath><clipPath id="1b9f74400f"><path d="M 122.71875 65.699219 L 135.3125 74.707031 L 106.488281 115 L 93.898438 105.992188 Z M 122.71875 65.699219 " clip-rule="nonzero"/></clipPath><clipPath id="a6359031b7"><path d="M 127.894531 69.402344 C 129.265625 70.382812 130.191406 71.867188 130.46875 73.535156 C 130.746094 75.199219 130.347656 76.902344 129.367188 78.277344 L 109.0625 106.664062 C 108.082031 108.035156 106.59375 108.960938 104.929688 109.238281 C 103.265625 109.515625 101.558594 109.117188 100.1875 108.136719 C 98.8125 107.15625 97.886719 105.667969 97.613281 104.003906 C 97.335938 102.339844 97.730469 100.632812 98.714844 99.261719 L 119.019531 70.875 C 120 69.5 121.488281 68.574219 123.152344 68.300781 C 124.816406 68.023438 126.523438 68.417969 127.894531 69.402344 Z M 127.894531 69.402344 " clip-rule="nonzero"/></clipPath><clipPath id="9709775534"><rect x="0" width="159" y="0" height="137"/></clipPath><clipPath id="6f59b32237"><path d="M 29 76 L 347 76 L 347 279 L 29 279 Z M 29 76 " clip-rule="nonzero"/></clipPath><clipPath id="95422b202b"><path d="M 37.621094 71.261719 L 351.171875 262.074219 L 337.96875 283.769531 L 24.421875 92.957031 Z M 37.621094 71.261719 " clip-rule="nonzero"/></clipPath><clipPath id="b3f60580cf"><path d="M 48.46875 77.863281 L 340.273438 255.445312 C 343.152344 257.195312 345.214844 260.015625 346.011719 263.289062 C 346.804688 266.5625 346.269531 270.015625 344.519531 272.890625 C 342.769531 275.769531 339.945312 277.832031 336.675781 278.628906 C 333.402344 279.425781 329.949219 278.890625 327.070312 277.136719 L 35.265625 99.558594 C 32.390625 97.808594 30.328125 94.984375 29.53125 91.714844 C 28.734375 88.441406 29.269531 84.988281 31.019531 82.109375 C 32.773438 79.234375 35.59375 77.171875 38.867188 76.375 C 42.136719 75.578125 45.59375 76.113281 48.46875 77.863281 Z M 48.46875 77.863281 " clip-rule="nonzero"/></clipPath><clipPath id="aee7c8bc9d"><path d="M 0 0 L 318 0 L 318 203 L 0 203 Z M 0 0 " clip-rule="nonzero"/></clipPath><clipPath id="8306b57356"><path d="M 8.621094 -4.738281 L 322.171875 186.074219 L 308.96875 207.769531 L -4.578125 16.957031 Z M 8.621094 -4.738281 " clip-rule="nonzero"/></clipPath><clipPath id="c9641f5835"><path d="M 19.46875 1.863281 L 311.273438 179.445312 C 314.152344 181.195312 316.214844 184.015625 317.011719 187.289062 C 317.804688 190.5625 317.269531 194.015625 315.519531 196.890625 C 313.769531 199.769531 310.945312 201.832031 307.675781 202.628906 C 304.402344 203.425781 300.949219 202.890625 298.070312 201.136719 L 6.265625 23.558594 C 3.390625 21.808594 1.328125 18.984375 0.53125 15.714844 C -0.265625 12.441406 0.269531 8.988281 2.019531 6.109375 C 3.773438 3.234375 6.59375 1.171875 9.867188 0.375 C 13.136719 -0.421875 16.59375 0.113281 19.46875 1.863281 Z M 19.46875 1.863281 " clip-rule="nonzero"/></clipPath><clipPath id="5fba17e684"><rect x="0" width="318" y="0" height="203"/></clipPath><clipPath id="a977402b3f"><path d="M 29 76 L 347 76 L 347 279 L 29 279 Z M 29 76 " clip-rule="nonzero"/></clipPath><clipPath id="1f9b096003"><path d="M 37.621094 71.261719 L 350.917969 261.921875 L 337.664062 283.707031 L 24.367188 93.046875 Z M 37.621094 71.261719 " clip-rule="nonzero"/></clipPath><clipPath id="c7ef352a12"><path d="M 37.628906 71.265625 L 351.769531 262.441406 L 337.488281 285.910156 L 23.34375 94.738281 Z M 37.628906 71.265625 " clip-rule="nonzero"/></clipPath><clipPath id="de804fefcc"><path d="M 48.472656 77.867188 L 340.265625 255.441406 C 343.144531 257.191406 345.207031 260.011719 346.003906 263.285156 C 346.800781 266.554688 346.261719 270.011719 344.511719 272.886719 C 342.761719 275.765625 339.941406 277.828125 336.667969 278.625 C 333.394531 279.421875 329.941406 278.882812 327.066406 277.132812 L 35.273438 99.5625 C 32.394531 97.808594 30.332031 94.988281 29.535156 91.714844 C 28.738281 88.445312 29.277344 84.988281 31.027344 82.113281 C 32.777344 79.238281 35.597656 77.171875 38.871094 76.375 C 42.144531 75.582031 45.597656 76.117188 48.472656 77.867188 Z M 48.472656 77.867188 " clip-rule="nonzero"/></clipPath><clipPath id="8a011b1343"><path d="M 37 86 L 115 86 L 115 138 L 37 138 Z M 37 86 " clip-rule="nonzero"/></clipPath><clipPath id="2e01a07e13"><path d="M 39.960938 84.875 L 116.339844 131.578125 L 111.992188 138.6875 L 35.613281 91.984375 Z M 39.960938 84.875 " clip-rule="nonzero"/></clipPath><clipPath id="f177a97f70"><path d="M 43.515625 87.050781 L 112.777344 129.402344 C 114.742188 130.601562 115.359375 133.164062 114.160156 135.128906 C 112.960938 137.089844 110.394531 137.707031 108.433594 136.507812 L 39.167969 94.15625 C 37.207031 92.957031 36.589844 90.394531 37.789062 88.429688 C 38.988281 86.46875 41.550781 85.847656 43.515625 87.050781 Z M 43.515625 87.050781 " clip-rule="nonzero"/></clipPath><clipPath id="e5d84a1a2d"><path d="M 0 0 L 78 0 L 78 51.761719 L 0 51.761719 Z M 0 0 " clip-rule="nonzero"/></clipPath><clipPath id="408e54d008"><path d="M 2.960938 -1.125 L 79.339844 45.578125 L 74.992188 52.6875 L -1.386719 5.984375 Z M 2.960938 -1.125 " clip-rule="nonzero"/></clipPath><clipPath id="8ada500aed"><path d="M 6.515625 1.050781 L 75.777344 43.402344 C 77.742188 44.601562 78.359375 47.164062 77.160156 49.128906 C 75.960938 51.089844 73.394531 51.707031 71.433594 50.507812 L 2.167969 8.15625 C 0.207031 6.957031 -0.410156 4.394531 0.789062 2.429688 C 1.988281 0.46875 4.550781 -0.152344 6.515625 1.050781 Z M 6.515625 1.050781 " clip-rule="nonzero"/></clipPath><clipPath id="c78dda3518"><rect x="0" width="78" y="0" height="52"/></clipPath></defs><g mask="url(#d4ec656720)"><g transform="matrix(1, 0, 0, 1, 13, 52)"><g clip-path="url(#eff9ce54ba)"><g clip-path="url(#6291ddc2e7)"><g clip-path="url(#23c5fa33be)"><g mask="url(#ad6261295d)"><g transform="matrix(1, 0, 0, 1, 3, 1)"><g clip-path="url(#f841125571)"><g clip-path="url(#a1ca91c447)"><g clip-path="url(#6674ebcd13)"><rect x="-152.5" width="648" fill="#8bcfdb" y="-189.499997" height="647.999984" fill-opacity="1"/></g></g></g></g></g></g></g></g></g></g><g transform="matrix(1, 0, 0, 1, 15, 17)"><g clip-path="url(#9709775534)"><g clip-path="url(#05992ed44b)"><g clip-path="url(#97f4f14cec)"><g clip-path="url(#a3ffd87d76)"><g transform="matrix(1, 0, 0, 1, 29, 26)"><g clip-path="url(#129b81e739)"><g clip-path="url(#05122a7447)"><g clip-path="url(#5d8a572912)"><g clip-path="url(#6e23343fa0)"><path fill="#ffffff" d="M 25.460938 -2.097656 L 35.816406 5.308594 L 8.101562 44.050781 L -2.25 36.644531 Z M 25.460938 -2.097656 " fill-opacity="1" fill-rule="nonzero"/></g></g></g></g></g></g></g></g><g clip-path="url(#90d4e3fb5f)"><g clip-path="url(#997531955c)"><g clip-path="url(#fad57269a5)"><g clip-path="url(#96485b5354)"><path stroke-linecap="butt" transform="matrix(0.690627, 0.494005, -0.494005, 0.690627, 54.457404, 23.90956)" fill="none" stroke-linejoin="miter" d="M 7.492306 -0.0020595 C 9.480083 0.00142035 11.38389 0.788943 12.789696 2.192865 C 14.195503 3.596787 14.983443 5.504885 14.983705 7.489986 L 14.986674 48.596321 C 14.983194 50.584098 14.195672 52.487905 12.79175 53.893712 C 11.384086 55.302195 9.479729 56.087458 7.490887 56.090396 C 5.505787 56.090658 3.599303 55.299394 2.193497 53.895472 C 0.791432 52.488873 -0.000249694 50.583451 -0.000511503 48.598351 L 0.000260793 7.489339 C -0.00000101609 5.504239 0.787521 3.600432 2.195185 2.191949 C 3.601784 0.789884 5.503464 0.000878717 7.492306 -0.0020595 Z M 7.492306 -0.0020595 " stroke="#000000" stroke-width="7.066128" stroke-opacity="1" stroke-miterlimit="4"/></g></g></g></g><g clip-path="url(#47fd7a2d8b)"><g clip-path="url(#f4380c0210)"><g clip-path="url(#0c2476921d)"><g transform="matrix(1, 0, 0, 1, 37, 31)"><g clip-path="url(#87af97109d)"><g clip-path="url(#540b463513)"><g clip-path="url(#9b120c1338)"><g clip-path="url(#1c5d796ed4)"><path fill="#ffffff" d="M 25.996094 -1.875 L 36.347656 5.53125 L 8.636719 44.273438 L -1.71875 36.867188 Z M 25.996094 -1.875 " fill-opacity="1" fill-rule="nonzero"/></g></g></g></g></g></g></g></g><g clip-path="url(#56b7a3c1a7)"><g clip-path="url(#1b70cd6277)"><g clip-path="url(#648baa4c5a)"><g clip-path="url(#ab926c3c50)"><path stroke-linecap="butt" transform="matrix(0.690627, 0.494005, -0.494005, 0.690627, 62.990272, 29.133303)" fill="none" stroke-linejoin="miter" d="M 7.492688 0.00175048 C 9.477788 0.00148867 11.385337 0.786335 12.790079 2.196675 C 14.195885 3.600597 14.98489 5.502277 14.984087 7.493796 L 14.98438 48.59639 C 14.984642 50.58149 14.193377 52.487973 12.789455 53.89378 C 11.385533 55.299587 9.477435 56.087526 7.492335 56.087788 C 5.507234 56.08805 3.597009 55.299462 2.194944 53.892864 C 0.789138 52.488942 -0.00254397 50.58352 0.000935876 48.595743 L 0.000642918 7.493149 C -0.0022953 5.504307 0.788969 3.597824 2.195567 2.195759 C 3.599489 0.789952 5.504912 -0.00172937 7.492688 0.00175048 Z M 7.492688 0.00175048 " stroke="#000000" stroke-width="7.066128" stroke-opacity="1" stroke-miterlimit="4"/></g></g></g></g><g clip-path="url(#29d08143e2)"><g clip-path="url(#8c8a9d9f4a)"><g clip-path="url(#582b860022)"><g transform="matrix(1, 0, 0, 1, 46, 36)"><g clip-path="url(#6d8ceb4104)"><g clip-path="url(#107fb0295a)"><g clip-path="url(#c9e1ba8556)"><g clip-path="url(#081b8c7878)"><path fill="#ffffff" d="M 25.527344 -1.648438 L 35.882812 5.753906 L 8.167969 44.496094 L -2.183594 37.09375 Z M 25.527344 -1.648438 " fill-opacity="1" fill-rule="nonzero"/></g></g></g></g></g></g></g></g><g clip-path="url(#28d3aaa7b1)"><g clip-path="url(#9998cba403)"><g clip-path="url(#74d95c3df4)"><g clip-path="url(#15d1823c9f)"><path stroke-linecap="butt" transform="matrix(0.690627, 0.494005, -0.494005, 0.690627, 71.523133, 34.357041)" fill="none" stroke-linejoin="miter" d="M 7.494145 -0.000858872 C 9.479245 -0.00112068 11.385729 0.790143 12.791535 2.194066 C 14.1936 3.600664 14.985282 5.506086 14.985544 7.491186 L 14.982095 48.596457 C 14.985033 50.585298 14.197511 52.489106 12.787171 53.893847 C 11.383249 55.299654 9.481568 56.088659 7.49005 56.087855 C 5.50495 56.088117 3.601142 55.300595 2.192659 53.892931 C 0.786853 52.489009 0.00158934 50.584652 -0.00134888 48.59581 L -0.00164183 7.493216 C 0.00183802 5.50544 0.78936 3.601632 2.193283 2.195826 C 3.597205 0.790019 5.505303 0.00207934 7.494145 -0.000858872 Z M 7.494145 -0.000858872 " stroke="#000000" stroke-width="7.066128" stroke-opacity="1" stroke-miterlimit="4"/></g></g></g></g><g clip-path="url(#49e4c54a86)"><g clip-path="url(#fec7953cf3)"><g clip-path="url(#fca71c1213)"><g transform="matrix(1, 0, 0, 1, 54, 42)"><g clip-path="url(#17ee220ddc)"><g clip-path="url(#30e67936ea)"><g clip-path="url(#1c53d6b604)"><g clip-path="url(#e9c0790544)"><path fill="#ffffff" d="M 26.0625 -2.425781 L 36.414062 4.980469 L 8.703125 43.722656 L -1.652344 36.316406 Z M 26.0625 -2.425781 " fill-opacity="1" fill-rule="nonzero"/></g></g></g></g></g></g></g></g><g clip-path="url(#12d49129df)"><g clip-path="url(#6a96d758e4)"><g clip-path="url(#3af52709d7)"><g clip-path="url(#4814316d61)"><path stroke-linecap="butt" transform="matrix(0.690627, 0.494005, -0.494005, 0.690627, 80.056001, 39.580787)" fill="none" stroke-linejoin="miter" d="M 7.491848 -0.000794007 C 9.476948 -0.00105582 11.383432 0.790208 12.789239 2.19413 C 14.195045 3.598053 14.982985 5.506151 14.983247 7.491251 L 14.986216 48.597587 C 14.986478 50.582687 14.195214 52.489171 12.791292 53.894977 C 11.384693 55.297042 9.479271 56.088724 7.494171 56.088985 C 5.502653 56.088182 3.598846 55.300659 2.196781 53.894061 C 0.790974 52.490139 -0.000707409 50.584717 0.00277244 48.59694 L -0.000196922 7.490605 C -0.000458731 5.505505 0.790805 3.599021 2.194727 2.193214 C 3.59865 0.787408 5.506748 -0.000532198 7.491848 -0.000794007 Z M 7.491848 -0.000794007 " stroke="#000000" stroke-width="7.066128" stroke-opacity="1" stroke-miterlimit="4"/></g></g></g></g><g clip-path="url(#42c474bcd2)"><g clip-path="url(#b5167a3d33)"><g clip-path="url(#a23f62dd43)"><g transform="matrix(1, 0, 0, 1, 63, 47)"><g clip-path="url(#3f8d3b0bee)"><g clip-path="url(#de0fe1c0fd)"><g clip-path="url(#20a49ebae6)"><g clip-path="url(#49dfcccb44)"><path fill="#ffffff" d="M 25.59375 -2.203125 L 35.945312 5.203125 L 8.234375 43.945312 L -2.117188 36.539062 Z M 25.59375 -2.203125 " fill-opacity="1" fill-rule="nonzero"/></g></g></g></g></g></g></g></g><g clip-path="url(#611110e3b2)"><g clip-path="url(#00d37e0a3a)"><g clip-path="url(#d2d875f5c2)"><g clip-path="url(#b76d9c7d78)"><path stroke-linecap="butt" transform="matrix(0.690627, 0.494005, -0.494005, 0.690627, 88.58887, 44.80453)" fill="none" stroke-linejoin="miter" d="M 7.489554 -0.000725463 C 9.481072 0.0000779816 11.38488 0.7876 12.790686 2.191523 C 14.195428 3.601863 14.984433 5.503543 14.983629 7.495061 L 14.983922 48.597655 C 14.984184 50.582755 14.19292 52.489239 12.788998 53.895046 C 11.385076 55.300852 9.476977 56.088792 7.491877 56.089054 C 5.506777 56.089316 3.600293 55.298052 2.194487 53.89413 C 0.78868 52.490207 0.000740135 50.582109 0.000478326 48.597009 L 0.000185368 7.494415 C 0.000988813 5.502897 0.788511 3.599089 2.192433 2.193283 C 3.599032 0.791218 5.504454 -0.000463654 7.489554 -0.000725463 Z M 7.489554 -0.000725463 " stroke="#000000" stroke-width="7.066128" stroke-opacity="1" stroke-miterlimit="4"/></g></g></g></g><g clip-path="url(#e419ad266d)"><g clip-path="url(#bb5d8199f0)"><g clip-path="url(#05aa745bbf)"><g transform="matrix(1, 0, 0, 1, 71, 52)"><g clip-path="url(#3e4a8971ba)"><g clip-path="url(#9315e0d11a)"><g clip-path="url(#d2ae90ee2e)"><g clip-path="url(#55a0b24ea8)"><path fill="#ffffff" d="M 26.125 -1.980469 L 36.480469 5.425781 L 8.765625 44.167969 L -1.585938 36.765625 Z M 26.125 -1.980469 " fill-opacity="1" fill-rule="nonzero"/></g></g></g></g></g></g></g></g><g clip-path="url(#a9b5313d9e)"><g clip-path="url(#7f8520ec04)"><g clip-path="url(#9b3aca8077)"><g clip-path="url(#2fcad8e7c1)"><path stroke-linecap="butt" transform="matrix(0.690627, 0.494005, -0.494005, 0.690627, 97.121745, 50.028271)" fill="none" stroke-linejoin="miter" d="M 7.493672 0.000414187 C 9.478772 0.000152377 11.385256 0.791417 12.791062 2.195339 C 14.196869 3.599261 14.984809 5.507359 14.985071 7.492459 L 14.985364 48.595053 C 14.981884 50.58283 14.197038 52.490379 12.790439 53.892444 C 11.386517 55.29825 9.481095 56.089932 7.493318 56.086452 C 5.504476 56.08939 3.597993 55.298126 2.192186 53.894204 C 0.790121 52.487605 -0.00156022 50.582183 -0.00182203 48.597083 L 0.00162667 7.491813 C 0.00136486 5.506713 0.789953 3.596487 2.196551 2.194422 C 3.600473 0.788616 5.502154 -0.000389258 7.493672 0.000414187 Z M 7.493672 0.000414187 " stroke="#000000" stroke-width="7.066128" stroke-opacity="1" stroke-miterlimit="4"/></g></g></g></g><g clip-path="url(#31d6ed1dda)"><g clip-path="url(#8f1033d2e7)"><g clip-path="url(#8a5bc34bde)"><g transform="matrix(1, 0, 0, 1, 80, 57)"><g clip-path="url(#5bcbccbb6c)"><g clip-path="url(#88e705e730)"><g clip-path="url(#230805e224)"><g clip-path="url(#379a016642)"><path fill="#ffffff" d="M 25.660156 -1.753906 L 36.011719 5.648438 L 8.300781 44.394531 L -2.054688 36.988281 Z M 25.660156 -1.753906 " fill-opacity="1" fill-rule="nonzero"/></g></g></g></g></g></g></g></g><g clip-path="url(#2e17042a6b)"><g clip-path="url(#a63487a88e)"><g clip-path="url(#b04f3e4b67)"><g clip-path="url(#d1d946f5ee)"><path stroke-linecap="butt" transform="matrix(0.690627, 0.494005, -0.494005, 0.690627, 105.654606, 55.252014)" fill="none" stroke-linejoin="miter" d="M 7.491384 0.000476417 C 9.480226 -0.0024618 11.386709 0.788802 12.788774 2.195401 C 14.194581 3.599323 14.986262 5.504745 14.982782 7.492522 L 14.983075 48.595115 C 14.986014 50.583957 14.194749 52.490441 12.790827 53.896248 C 11.384229 55.298312 9.478807 56.089994 7.493707 56.090256 C 5.50593 56.086776 3.602123 55.299254 2.196316 53.895331 C 0.787833 52.487668 0.00256964 50.583311 -0.000368575 48.594469 L -0.000661533 7.491875 C -0.000923342 5.506775 0.790341 3.600291 2.194263 2.194485 C 3.598185 0.788678 5.506283 0.000738226 7.491384 0.000476417 Z M 7.491384 0.000476417 " stroke="#000000" stroke-width="7.066128" stroke-opacity="1" stroke-miterlimit="4"/></g></g></g></g><g clip-path="url(#2f2bf72011)"><g clip-path="url(#cbe52cb59f)"><g clip-path="url(#3e05a6e06a)"><g transform="matrix(1, 0, 0, 1, 88, 62)"><g clip-path="url(#6e98937823)"><g clip-path="url(#a02ba0b4be)"><g clip-path="url(#746e2c294c)"><g clip-path="url(#99fdf3fbdb)"><path fill="#ffffff" d="M 26.191406 -1.53125 L 36.546875 5.875 L 8.832031 44.617188 L -1.519531 37.210938 Z M 26.191406 -1.53125 " fill-opacity="1" fill-rule="nonzero"/></g></g></g></g></g></g></g></g><g clip-path="url(#b4c01808fc)"><g clip-path="url(#8d298ffab5)"><g clip-path="url(#8896e2995d)"><g clip-path="url(#2c20dacabb)"><path stroke-linecap="butt" transform="matrix(0.690627, 0.494005, -0.494005, 0.690627, 114.187482, 60.475763)" fill="none" stroke-linejoin="miter" d="M 7.49282 -0.00213249 C 9.480597 0.00134736 11.384404 0.78887 12.79021 2.192792 C 14.192275 3.59939 14.983957 5.504813 14.984219 7.489913 L 14.983446 48.598925 C 14.983708 50.584025 14.196186 52.487832 12.788522 53.896315 C 11.3846 55.302122 9.480243 56.087385 7.491401 56.090323 C 5.506301 56.090585 3.599817 55.299321 2.194011 53.895399 C 0.788204 52.491477 0.000264351 50.583378 0.00000254243 48.598278 L -0.00296682 7.491943 C 0.00051303 5.504166 0.788035 3.600359 2.191958 2.194552 C 3.602298 0.789811 5.503978 0.000805726 7.49282 -0.00213249 Z M 7.49282 -0.00213249 " stroke="#000000" stroke-width="7.066128" stroke-opacity="1" stroke-miterlimit="4"/></g></g></g></g><g clip-path="url(#1604024ef3)"><g clip-path="url(#0e6d3a3385)"><g clip-path="url(#519c9673d4)"><g transform="matrix(1, 0, 0, 1, 97, 68)"><g clip-path="url(#34d419bb25)"><g clip-path="url(#cb7a27b13b)"><g clip-path="url(#481e96f83f)"><g clip-path="url(#480c3efcc1)"><path fill="#ffffff" d="M 25.726562 -2.308594 L 36.078125 5.097656 L 8.367188 43.839844 L -1.988281 36.433594 Z M 25.726562 -2.308594 " fill-opacity="1" fill-rule="nonzero"/></g></g></g></g></g></g></g></g><g clip-path="url(#6569d082e6)"><g clip-path="url(#2c3ab926bb)"><g clip-path="url(#1b9f74400f)"><g clip-path="url(#a6359031b7)"><path stroke-linecap="butt" transform="matrix(0.690627, 0.494005, -0.494005, 0.690627, 122.720343, 65.699499)" fill="none" stroke-linejoin="miter" d="M 7.493213 0.0016783 C 9.478313 0.00141649 11.382121 0.788939 12.790604 2.196603 C 14.19641 3.600525 14.981674 5.504882 14.984612 7.493723 L 14.984905 48.596317 C 14.985167 50.581418 14.193903 52.487901 12.78998 53.893708 C 11.386058 55.299514 9.47796 56.087454 7.49286 56.087716 C 5.504018 56.090654 3.597534 55.29939 2.195469 53.892792 C 0.789663 52.48887 -0.00201892 50.583447 0.00146093 48.595671 L 0.00116797 7.493077 C -0.00177024 5.504235 0.789494 3.597751 2.196092 2.195687 C 3.600014 0.78988 5.505437 -0.00180155 7.493213 0.0016783 Z M 7.493213 0.0016783 " stroke="#000000" stroke-width="7.066128" stroke-opacity="1" stroke-miterlimit="4"/></g></g></g></g></g></g><g clip-path="url(#6f59b32237)"><g clip-path="url(#95422b202b)"><g clip-path="url(#b3f60580cf)"><g transform="matrix(1, 0, 0, 1, 29, 76)"><g clip-path="url(#5fba17e684)"><g clip-path="url(#aee7c8bc9d)"><g clip-path="url(#8306b57356)"><g clip-path="url(#c9641f5835)"><path fill="#38b6ff" d="M 8.621094 -4.738281 L 322.085938 186.023438 L 308.882812 207.71875 L -4.578125 16.957031 Z M 8.621094 -4.738281 " fill-opacity="1" fill-rule="nonzero"/></g></g></g></g></g></g></g></g><g clip-path="url(#a977402b3f)"><g clip-path="url(#1f9b096003)"><g clip-path="url(#c7ef352a12)"><g clip-path="url(#de804fefcc)"><path stroke-linecap="butt" transform="matrix(0.640688, 0.389895, -0.389895, 0.640688, 37.627645, 71.26662)" fill="none" stroke-linejoin="miter" d="M 16.927652 0.000864163 L 472.365433 0.00261421 C 476.85752 0.000360317 481.161603 1.783084 484.33822 4.959183 C 487.512129 8.130832 489.294369 12.442046 489.293915 16.929684 C 489.296169 21.42177 487.513445 25.725854 484.337347 28.902471 C 481.161248 32.079088 476.854483 33.85862 472.366846 33.858166 L 16.931773 33.860865 C 12.436978 33.85867 8.132895 32.075946 4.956278 28.899847 C 1.782368 25.728198 0.000128932 21.416984 0.000582646 16.929346 C 0.00103636 12.441709 1.781052 8.133176 4.957151 4.956559 C 8.135957 1.784392 12.440014 0.000410449 16.927652 0.000864163 Z M 16.927652 0.000864163 " stroke="#000000" stroke-width="8" stroke-opacity="1" stroke-miterlimit="4"/></g></g></g></g><g clip-path="url(#8a011b1343)"><g clip-path="url(#2e01a07e13)"><g clip-path="url(#f177a97f70)"><g transform="matrix(1, 0, 0, 1, 37, 86)"><g clip-path="url(#c78dda3518)"><g clip-path="url(#e5d84a1a2d)"><g clip-path="url(#408e54d008)"><g clip-path="url(#8ada500aed)"><path fill="#3397d1" d="M 2.960938 -1.125 L 79.339844 45.578125 L 74.992188 52.6875 L -1.386719 5.984375 Z M 2.960938 -1.125 " fill-opacity="1" fill-rule="nonzero"/></g></g></g></g></g></g></g></g><g fill="#000000" fill-opacity="1"><g transform="translate(75.820312, 335.05158)"><g><path d="M 14.15625 -21.625 C 17.144531 -21.601562 19.691406 -20.523438 21.796875 -18.390625 C 23.898438 -16.265625 24.9375 -13.71875 24.90625 -10.75 C 24.875 -7.757812 23.796875 -5.210938 21.671875 -3.109375 C 19.546875 -1.003906 17 0.03125 14.03125 0 C 11.476562 0 9.195312 -0.828125 7.1875 -2.484375 L 7.1875 0 L 1.296875 0 L 1.265625 -29.3125 L 7.140625 -29.3125 L 7.140625 -19.0625 C 9.148438 -20.769531 11.488281 -21.625 14.15625 -21.625 Z M 17.84375 -7.015625 C 18.851562 -8.023438 19.390625 -9.285156 19.453125 -10.796875 C 19.453125 -12.222656 18.929688 -13.484375 17.890625 -14.578125 C 16.859375 -15.609375 15.597656 -16.125 14.109375 -16.125 C 12.648438 -16.125 11.390625 -15.617188 10.328125 -14.609375 C 9.296875 -13.578125 8.78125 -12.320312 8.78125 -10.84375 C 8.71875 -9.382812 9.222656 -8.125 10.296875 -7.0625 C 11.296875 -6.050781 12.550781 -5.515625 14.0625 -5.453125 C 15.550781 -5.453125 16.8125 -5.972656 17.84375 -7.015625 Z M 17.84375 -7.015625 "/></g></g></g><g fill="#000000" fill-opacity="1"><g transform="translate(101.398314, 335.05158)"><g><path d="M 7.140625 -18.390625 C 7.617188 -19.734375 8.414062 -20.671875 9.53125 -21.203125 C 10.625 -21.742188 12.265625 -22.015625 14.453125 -22.015625 L 14.453125 -16 C 12.316406 -16 10.535156 -15.269531 9.109375 -13.8125 C 7.796875 -12.53125 7.140625 -11.117188 7.140625 -9.578125 L 7.140625 0 L 1.265625 0 L 1.265625 -21.625 L 7.140625 -21.625 Z M 7.140625 -18.390625 "/></g></g></g><g fill="#000000" fill-opacity="1"><g transform="translate(116.476316, 335.05158)"><g><path d="M 1.265625 -21.71875 L 6.71875 -21.71875 L 6.71875 -10.796875 C 6.71875 -10.367188 6.789062 -9.890625 6.9375 -9.359375 C 7.101562 -8.722656 7.351562 -8.140625 7.6875 -7.609375 C 8.613281 -6.203125 9.929688 -5.5 11.640625 -5.5 C 13.515625 -5.5 14.867188 -6.210938 15.703125 -7.640625 C 16.015625 -8.148438 16.238281 -8.738281 16.375 -9.40625 C 16.488281 -9.882812 16.546875 -10.363281 16.546875 -10.84375 L 16.546875 -21.71875 L 22.421875 -21.71875 L 22.421875 0 L 16.546875 0 L 16.546875 -2.265625 C 15.171875 -0.753906 13.40625 0 11.25 0 C 8.476562 0.03125 6.128906 -0.960938 4.203125 -2.984375 C 2.242188 -4.972656 1.265625 -7.4375 1.265625 -10.375 Z M 1.265625 -21.71875 "/></g></g></g><g fill="#000000" fill-opacity="1"><g transform="translate(140.164314, 335.05158)"><g><path d="M 10 0 C 8.539062 0 7.265625 -0.222656 6.171875 -0.671875 C 5.304688 -0.984375 4.410156 -1.554688 3.484375 -2.390625 C 1.890625 -3.878906 1.160156 -5.753906 1.296875 -8.015625 L 1.296875 -8.484375 L 6 -8.40625 L 6.390625 -8.40625 L 6.390625 -8.0625 C 6.410156 -7.363281 6.5625 -6.789062 6.84375 -6.34375 C 7.320312 -5.53125 8.375 -5.125 10 -5.125 C 11.34375 -5.125 12.304688 -5.28125 12.890625 -5.59375 C 13.203125 -5.726562 13.414062 -5.90625 13.53125 -6.125 C 13.582031 -6.21875 13.609375 -6.304688 13.609375 -6.390625 L 13.65625 -6.59375 C 13.65625 -7.175781 13.191406 -7.648438 12.265625 -8.015625 C 11.898438 -8.160156 11.476562 -8.273438 11 -8.359375 C 10.632812 -8.441406 10.226562 -8.507812 9.78125 -8.5625 C 8.101562 -8.726562 6.707031 -9.066406 5.59375 -9.578125 C 4.46875 -10.023438 3.539062 -10.640625 2.8125 -11.421875 C 1.800781 -12.566406 1.296875 -13.882812 1.296875 -15.375 C 1.296875 -16.300781 1.46875 -17.15625 1.8125 -17.9375 C 2.0625 -18.550781 2.394531 -19.097656 2.8125 -19.578125 C 4.320312 -21.304688 6.742188 -22.171875 10.078125 -22.171875 C 12.066406 -22.171875 13.75 -21.78125 15.125 -21 C 16.1875 -20.414062 17.039062 -19.617188 17.6875 -18.609375 C 18.1875 -17.847656 18.535156 -16.960938 18.734375 -15.953125 C 18.785156 -15.617188 18.828125 -15.300781 18.859375 -15 L 18.859375 -14.109375 L 13.78125 -14.109375 L 13.78125 -14.734375 C 13.75 -14.847656 13.734375 -14.960938 13.734375 -15.078125 C 13.648438 -15.390625 13.535156 -15.640625 13.390625 -15.828125 C 12.773438 -16.671875 11.671875 -17.09375 10.078125 -17.09375 C 7.722656 -17.09375 6.546875 -16.601562 6.546875 -15.625 C 6.546875 -15.125 6.828125 -14.71875 7.390625 -14.40625 C 7.984375 -14.039062 8.976562 -13.773438 10.375 -13.609375 C 13.59375 -13.273438 15.929688 -12.253906 17.390625 -10.546875 C 18.367188 -9.390625 18.859375 -8.070312 18.859375 -6.59375 L 18.859375 -6.296875 L 18.8125 -5.921875 C 18.8125 -5.554688 18.769531 -5.21875 18.6875 -4.90625 C 18.46875 -4.007812 18.050781 -3.210938 17.4375 -2.515625 C 16.726562 -1.679688 15.742188 -1.050781 14.484375 -0.625 C 13.222656 -0.207031 11.726562 0 10 0 Z M 10 0 "/></g></g></g><g fill="#000000" fill-opacity="1"><g transform="translate(160.282305, 335.05158)"><g><path d="M 23.3125 0 L 17.84375 0 L 17.84375 -10.671875 L 17.8125 -10.671875 L 17.8125 -10.796875 C 17.8125 -12.253906 17.289062 -13.5 16.25 -14.53125 C 15.21875 -15.570312 13.957031 -16.09375 12.46875 -16.09375 C 11.019531 -16.09375 9.757812 -15.554688 8.6875 -14.484375 C 7.625 -13.421875 7.125 -12.160156 7.1875 -10.703125 L 7.1875 -10.671875 L 7.140625 -10.671875 L 7.140625 0 L 1.265625 0 L 1.265625 -27.296875 L 7.140625 -27.296875 L 7.140625 -18.90625 C 8.453125 -20.46875 10.21875 -21.347656 12.4375 -21.546875 C 15.507812 -21.796875 18.054688 -21 20.078125 -19.15625 C 22.234375 -17.164062 23.3125 -14.378906 23.3125 -10.796875 Z M 23.3125 0 "/></g></g></g><g fill="#000000" fill-opacity="1"><g transform="translate(184.8523, 335.05158)"><g/></g></g><g fill="#000000" fill-opacity="1"><g transform="translate(195.772297, 335.05158)"><g><path d="M 16.84375 -21.625 L 16.84375 -15.75 L 12.015625 -15.75 L 12.015625 0 L 6.125 0 L 6.125 -15.75 L 1.265625 -15.75 L 1.265625 -21.625 L 6.125 -21.625 L 6.125 -29.1875 L 12.015625 -29.1875 L 12.015625 -21.625 Z M 16.84375 -21.625 "/></g></g></g><g fill="#000000" fill-opacity="1"><g transform="translate(212.614303, 335.05158)"><g><path d="M 22.09375 -9.875 C 22.125 -9.28125 22.125 -8.925781 22.09375 -8.8125 L 6.296875 -8.859375 C 6.523438 -8.210938 6.929688 -7.597656 7.515625 -7.015625 C 8.609375 -5.972656 9.867188 -5.453125 11.296875 -5.453125 C 12.804688 -5.515625 14.066406 -6.050781 15.078125 -7.0625 L 15.25 -7.21875 L 20.703125 -5.5 C 19.503906 -3.625 18.242188 -2.28125 16.921875 -1.46875 C 15.441406 -0.519531 13.582031 -0.03125 11.34375 0 C 8.375 0.03125 5.828125 -1.003906 3.703125 -3.109375 C 1.566406 -5.210938 0.488281 -7.757812 0.46875 -10.75 C 0.4375 -13.71875 1.46875 -16.265625 3.5625 -18.390625 C 5.664062 -20.523438 8.21875 -21.601562 11.21875 -21.625 C 14.1875 -21.65625 16.734375 -20.617188 18.859375 -18.515625 C 20.984375 -16.421875 22.0625 -13.875 22.09375 -10.875 Z M 11.25 -16.125 C 9.769531 -16.125 8.507812 -15.609375 7.46875 -14.578125 C 6.9375 -13.984375 6.5625 -13.394531 6.34375 -12.8125 L 16.21875 -12.8125 C 15.988281 -13.394531 15.59375 -13.992188 15.03125 -14.609375 C 13.96875 -15.617188 12.707031 -16.125 11.25 -16.125 Z M 11.25 -16.125 "/></g></g></g><g fill="#000000" fill-opacity="1"><g transform="translate(235.420294, 335.05158)"><g><path d="M 22.09375 -9.875 C 22.125 -9.28125 22.125 -8.925781 22.09375 -8.8125 L 6.296875 -8.859375 C 6.523438 -8.210938 6.929688 -7.597656 7.515625 -7.015625 C 8.609375 -5.972656 9.867188 -5.453125 11.296875 -5.453125 C 12.804688 -5.515625 14.066406 -6.050781 15.078125 -7.0625 L 15.25 -7.21875 L 20.703125 -5.5 C 19.503906 -3.625 18.242188 -2.28125 16.921875 -1.46875 C 15.441406 -0.519531 13.582031 -0.03125 11.34375 0 C 8.375 0.03125 5.828125 -1.003906 3.703125 -3.109375 C 1.566406 -5.210938 0.488281 -7.757812 0.46875 -10.75 C 0.4375 -13.71875 1.46875 -16.265625 3.5625 -18.390625 C 5.664062 -20.523438 8.21875 -21.601562 11.21875 -21.625 C 14.1875 -21.65625 16.734375 -20.617188 18.859375 -18.515625 C 20.984375 -16.421875 22.0625 -13.875 22.09375 -10.875 Z M 11.25 -16.125 C 9.769531 -16.125 8.507812 -15.609375 7.46875 -14.578125 C 6.9375 -13.984375 6.5625 -13.394531 6.34375 -12.8125 L 16.21875 -12.8125 C 15.988281 -13.394531 15.59375 -13.992188 15.03125 -14.609375 C 13.96875 -15.617188 12.707031 -16.125 11.25 -16.125 Z M 11.25 -16.125 "/></g></g></g><g fill="#000000" fill-opacity="1"><g transform="translate(256.504281, 335.05158)"><g><path d="M 16.84375 -21.625 L 16.84375 -15.75 L 12.015625 -15.75 L 12.015625 0 L 6.125 0 L 6.125 -15.75 L 1.265625 -15.75 L 1.265625 -21.625 L 6.125 -21.625 L 6.125 -29.1875 L 12.015625 -29.1875 L 12.015625 -21.625 Z M 16.84375 -21.625 "/></g></g><g transform="translate(274.606279, 335.05158)"><g><path d="M 23.3125 0 L 17.84375 0 L 17.84375 -10.671875 L 17.8125 -10.671875 L 17.8125 -10.796875 C 17.8125 -12.253906 17.289062 -13.5 16.25 -14.53125 C 15.21875 -15.570312 13.957031 -16.09375 12.46875 -16.09375 C 11.019531 -16.09375 9.757812 -15.554688 8.6875 -14.484375 C 7.625 -13.421875 7.125 -12.160156 7.1875 -10.703125 L 7.1875 -10.671875 L 7.140625 -10.671875 L 7.140625 0 L 1.265625 0 L 1.265625 -27.296875 L 7.140625 -27.296875 L 7.140625 -18.90625 C 8.453125 -20.46875 10.21875 -21.347656 12.4375 -21.546875 C 15.507812 -21.796875 18.054688 -21 20.078125 -19.15625 C 22.234375 -17.164062 23.3125 -14.378906 23.3125 -10.796875 Z M 23.3125 0 "/></g></g></g></svg>