<svg xmlns="http://www.w3.org/2000/svg" xmlns:xlink="http://www.w3.org/1999/xlink" width="500" zoomAndPan="magnify" viewBox="0 0 375 374.999991" height="500" preserveAspectRatio="xMidYMid meet" version="1.0"><defs><filter x="0%" y="0%" width="100%" height="100%" id="64c72d5807"><feColorMatrix values="0 0 0 0 1 0 0 0 0 1 0 0 0 0 1 0 0 0 1 0" color-interpolation-filters="sRGB"/></filter><g/><mask id="245a536e1e"><g filter="url(#64c72d5807)"><rect x="-37.5" width="450" fill="#000000" y="-37.499999" height="449.999989" fill-opacity="0.43"/></g></mask><clipPath id="b6a96a346d"><path d="M 3.75 2 L 349.554688 2 L 349.554688 161 L 3.75 161 Z M 3.75 2 " clip-rule="nonzero"/></clipPath><clipPath id="4a42d05c44"><path d="M 3.992188 53.652344 C 3.992188 53.613281 4.417969 52.421875 4.671875 51.808594 C 4.925781 51.195312 5.09375 50.808594 5.351562 50.003906 C 5.773438 48.351562 5.265625 45.433594 6.539062 42.550781 C 8.492188 38.367188 14.519531 31.835938 18.425781 27.457031 C 21.570312 24.039062 27.769531 18.703125 27.851562 18.433594 C 27.851562 18.394531 27.851562 18.394531 27.851562 18.394531 C 27.851562 18.394531 27.851562 18.394531 27.851562 18.355469 C 28.191406 18.164062 31.757812 15.320312 31.417969 14.9375 C 31.335938 14.859375 30.824219 14.820312 30.824219 14.820312 C 30.824219 14.820312 32.695312 15.628906 34.136719 15.511719 C 38.382812 15.207031 46.363281 7.5625 55.535156 5.796875 C 65.980469 3.800781 87.125 4.414062 94.851562 5.488281 C 98.503906 5.988281 99.523438 7.832031 102.070312 7.792969 C 105.128906 7.714844 106.996094 4.988281 111.835938 4.105469 C 120.835938 2.417969 142.152344 1.570312 155.824219 2.492188 C 168.390625 3.414062 185.882812 5.910156 190.976562 9.023438 C 194.375 11.019531 191.316406 15.859375 192.761719 16.242188 C 193.1875 16.398438 193.527344 16.089844 194.460938 16.011719 C 198.789062 15.667969 224.859375 13.746094 232.078125 15.398438 C 236.324219 16.359375 235.476562 19.738281 239.296875 20.238281 C 245.238281 21.003906 257.042969 14.707031 267.742188 14.476562 C 280.820312 14.207031 305.445312 16.664062 312.496094 21.429688 C 319.628906 26.304688 313.429688 38.671875 309.265625 43.703125 C 306.804688 46.738281 297.632812 49.003906 298.566406 50.195312 C 299.417969 51.117188 306.296875 49.8125 309.351562 51.15625 C 316.316406 54.191406 315.210938 71.972656 322.089844 75.890625 C 325.402344 77.8125 331.175781 76.695312 333.976562 78.578125 C 339.242188 82.035156 340.261719 95.515625 338.054688 99.164062 C 337.203125 100.664062 333.128906 101.546875 333.636719 102.007812 C 334.148438 102.46875 338.734375 101.277344 340.6875 102.007812 C 345.441406 103.734375 350.535156 113.875 348.921875 119.523438 C 347.308594 125.207031 334.914062 131.429688 330.835938 135.921875 C 328.117188 138.917969 324.636719 141.414062 325.230469 143.640625 C 325.824219 145.484375 331.515625 148.019531 332.109375 148.480469 C 332.28125 148.558594 332.363281 148.558594 332.363281 148.597656 C 332.28125 148.75 330.835938 149.058594 329.476562 149.363281 C 326.335938 150.171875 316.316406 152.015625 313.429688 152.898438 C 312.238281 153.242188 311.21875 153.820312 311.21875 153.859375 C 311.136719 153.859375 308.84375 154.433594 307.652344 154.742188 C 306.378906 155.050781 304.085938 155.625 304.003906 155.625 C 304.003906 155.664062 301.285156 155.96875 300.097656 156.125 C 298.992188 156.238281 297.464844 156.429688 297.125 156.46875 C 297.039062 156.507812 296.953125 156.507812 296.953125 156.507812 C 296.953125 156.507812 297.039062 156.507812 297.039062 156.46875 C 297.039062 156.46875 296.191406 156.585938 296.105469 156.585938 C 296.105469 156.585938 293.386719 156.625 292.027344 156.625 C 290.671875 156.660156 287.953125 156.660156 287.953125 156.660156 C 287.867188 156.660156 285.234375 156.394531 283.960938 156.277344 C 282.601562 156.125 279.972656 155.894531 279.972656 155.855469 C 279.886719 155.855469 277.507812 155.316406 276.320312 155.050781 C 275.046875 154.78125 272.667969 154.242188 272.582031 154.203125 C 272.582031 154.203125 270.546875 153.4375 269.527344 153.011719 C 268.421875 152.628906 266.382812 151.824219 266.382812 151.824219 C 266.300781 151.785156 264.769531 150.824219 264.007812 150.324219 C 263.15625 149.824219 261.628906 148.828125 261.542969 148.828125 C 261.542969 148.789062 260.523438 147.675781 260.015625 147.097656 C 259.507812 146.523438 258.488281 145.410156 258.488281 145.371094 C 258.488281 145.371094 258.148438 144.179688 257.894531 143.566406 C 257.722656 142.949219 257.382812 141.761719 257.382812 141.722656 C 257.382812 141.683594 257.636719 140.414062 257.722656 139.878906 C 257.894531 139.457031 258.570312 139.109375 257.976562 138.765625 C 255.683594 137.34375 225.03125 138.148438 219.59375 135.308594 C 215.773438 133.347656 220.699219 127.472656 218.578125 127.011719 C 217.21875 126.703125 215.179688 128.125 212.207031 129.046875 C 205.667969 131.082031 190.894531 135.652344 180.277344 138.800781 C 169.835938 141.914062 159.390625 145.753906 149.199219 147.828125 C 140.539062 149.59375 127.886719 150.171875 123.722656 151.132812 C 122.195312 151.4375 121.007812 152.054688 120.921875 152.054688 C 120.921875 152.054688 118.460938 152.550781 117.1875 152.78125 C 115.910156 153.011719 113.449219 153.511719 113.363281 153.511719 C 113.363281 153.511719 110.730469 153.703125 109.375 153.820312 C 108.015625 153.898438 105.382812 154.089844 105.296875 154.089844 C 105.296875 154.089844 102.070312 153.933594 101.5625 153.972656 C 101.390625 153.972656 101.304688 154.011719 101.304688 154.011719 C 101.304688 154.011719 101.476562 153.972656 101.476562 153.972656 C 101.476562 153.972656 101.390625 153.972656 101.222656 153.972656 C 100.710938 153.933594 97.230469 153.820312 97.144531 153.820312 C 97.058594 153.820312 94.171875 153.359375 93.238281 153.207031 C 92.730469 153.128906 92.730469 153.011719 92.050781 153.050781 C 87.890625 153.089844 49.421875 161.15625 48.996094 160.886719 C 48.914062 160.808594 50.015625 160.542969 49.929688 160.503906 C 49.847656 160.425781 48.742188 160.578125 48.0625 160.65625 C 46.960938 160.734375 44.074219 160.964844 43.988281 160.964844 C 43.902344 160.964844 41.269531 160.886719 39.910156 160.847656 C 38.550781 160.808594 35.921875 160.734375 35.835938 160.734375 C 35.75 160.734375 33.203125 160.386719 31.929688 160.195312 C 30.65625 160.003906 28.023438 159.65625 28.023438 159.621094 C 27.9375 159.621094 25.644531 159.003906 24.542969 158.660156 C 23.351562 158.351562 21.058594 157.738281 20.976562 157.699219 C 20.976562 157.699219 19.105469 156.855469 18.085938 156.394531 C 17.152344 155.96875 15.285156 155.125 15.199219 155.085938 C 15.199219 155.085938 13.84375 154.011719 13.164062 153.511719 C 12.398438 152.976562 11.039062 151.9375 11.039062 151.898438 C 10.953125 151.898438 10.191406 150.746094 9.765625 150.132812 C 9.425781 149.554688 8.578125 148.40625 8.578125 148.367188 C 8.578125 148.367188 8.40625 147.136719 8.324219 146.523438 C 8.324219 145.90625 8.152344 144.71875 8.152344 144.679688 C 8.152344 144.640625 8.660156 143.449219 8.832031 142.875 C 9.085938 142.257812 9.511719 141.453125 9.597656 141.03125 C 9.679688 140.839844 9.511719 140.800781 9.679688 140.53125 C 10.445312 139.570312 18.9375 134.691406 18.9375 133.925781 C 18.9375 133.769531 18.765625 133.769531 18.511719 133.65625 C 18.085938 133.347656 16.304688 132.121094 16.304688 132.121094 C 16.304688 132.082031 15.371094 130.929688 14.945312 130.351562 C 14.519531 129.816406 13.84375 128.777344 13.757812 128.738281 C 13.671875 128.738281 13.671875 128.816406 13.671875 128.816406 C 13.671875 128.816406 13.671875 128.738281 13.671875 128.738281 C 13.671875 128.699219 13.585938 128.625 13.585938 128.625 C 13.585938 128.585938 13.332031 127.394531 13.246094 126.78125 C 13.078125 126.167969 12.824219 124.9375 12.824219 124.9375 C 12.824219 124.898438 13.246094 123.707031 13.417969 123.09375 C 13.671875 122.480469 14.011719 121.289062 14.011719 121.25 C 14.011719 121.25 15.285156 119.90625 15.625 119.558594 C 15.796875 119.367188 15.796875 119.367188 15.964844 119.136719 C 16.8125 117.679688 16.21875 108.84375 19.617188 103.699219 C 23.4375 97.859375 36.855469 88.105469 39.488281 86.105469 C 39.996094 85.683594 40.589844 85.761719 40.589844 85.378906 C 40.589844 83.726562 21.398438 75.96875 20.636719 72.78125 C 20.125 71.050781 24.796875 68.785156 24.542969 68.515625 C 24.457031 68.476562 24.285156 68.476562 24.285156 68.476562 C 24.203125 68.476562 21.910156 67.863281 20.71875 67.554688 C 19.53125 67.25 17.238281 66.632812 17.238281 66.597656 C 17.152344 66.597656 15.285156 65.75 14.265625 65.289062 C 13.332031 64.867188 11.378906 64.023438 11.378906 64.023438 C 11.292969 63.984375 9.9375 62.945312 9.171875 62.449219 C 8.492188 61.910156 7.046875 60.871094 7.046875 60.871094 C 7.046875 60.835938 6.199219 59.683594 5.773438 59.105469 C 5.351562 58.492188 4.585938 57.378906 4.5 57.339844 C 4.5 57.300781 4.332031 56.109375 4.246094 55.496094 C 4.160156 54.882812 3.992188 53.652344 3.992188 53.652344 M 118.289062 35.484375 C 118.375 35.484375 118.375 35.445312 118.375 35.445312 C 118.375 35.445312 118.375 35.445312 118.289062 35.445312 C 118.289062 35.484375 118.289062 35.484375 118.289062 35.484375 " clip-rule="nonzero"/></clipPath><mask id="9f6b4b2a61"><g filter="url(#64c72d5807)"><rect x="-93.5" width="540" fill="#000000" y="-107.499998" height="539.999987" fill-opacity="0.5"/></g></mask><clipPath id="12462b195e"><path d="M 0.878906 0 L 346.554688 0 L 346.554688 159 L 0.878906 159 Z M 0.878906 0 " clip-rule="nonzero"/></clipPath><clipPath id="0e2bbebf30"><path d="M 0.992188 51.652344 C 0.992188 51.613281 1.417969 50.421875 1.671875 49.808594 C 1.925781 49.195312 2.09375 48.808594 2.351562 48.003906 C 2.773438 46.351562 2.265625 43.433594 3.539062 40.550781 C 5.492188 36.367188 11.519531 29.835938 15.425781 25.457031 C 18.570312 22.039062 24.769531 16.703125 24.851562 16.433594 C 24.851562 16.394531 24.851562 16.394531 24.851562 16.394531 C 24.851562 16.394531 24.851562 16.394531 24.851562 16.355469 C 25.191406 16.164062 28.757812 13.320312 28.417969 12.9375 C 28.335938 12.859375 27.824219 12.820312 27.824219 12.820312 C 27.824219 12.820312 29.695312 13.628906 31.136719 13.511719 C 35.382812 13.207031 43.363281 5.5625 52.535156 3.796875 C 62.980469 1.800781 84.125 2.414062 91.851562 3.488281 C 95.503906 3.988281 96.523438 5.832031 99.070312 5.792969 C 102.128906 5.714844 103.996094 2.988281 108.835938 2.105469 C 117.835938 0.417969 139.152344 -0.429688 152.824219 0.492188 C 165.390625 1.414062 182.882812 3.910156 187.976562 7.023438 C 191.375 9.019531 188.316406 13.859375 189.761719 14.242188 C 190.1875 14.398438 190.527344 14.089844 191.460938 14.011719 C 195.789062 13.667969 221.859375 11.746094 229.078125 13.398438 C 233.324219 14.359375 232.476562 17.738281 236.296875 18.238281 C 242.238281 19.003906 254.042969 12.707031 264.742188 12.476562 C 277.820312 12.207031 302.445312 14.664062 309.496094 19.429688 C 316.628906 24.304688 310.429688 36.671875 306.265625 41.703125 C 303.804688 44.738281 294.632812 47.003906 295.566406 48.195312 C 296.417969 49.117188 303.296875 47.8125 306.351562 49.15625 C 313.316406 52.191406 312.210938 69.972656 319.089844 73.890625 C 322.402344 75.8125 328.175781 74.695312 330.976562 76.578125 C 336.242188 80.035156 337.261719 93.515625 335.054688 97.164062 C 334.203125 98.664062 330.128906 99.546875 330.636719 100.007812 C 331.148438 100.46875 335.734375 99.277344 337.6875 100.007812 C 342.441406 101.734375 347.535156 111.875 345.921875 117.523438 C 344.308594 123.207031 331.914062 129.429688 327.835938 133.921875 C 325.117188 136.917969 321.636719 139.414062 322.230469 141.640625 C 322.824219 143.484375 328.515625 146.019531 329.109375 146.480469 C 329.28125 146.558594 329.363281 146.558594 329.363281 146.597656 C 329.28125 146.75 327.835938 147.058594 326.476562 147.363281 C 323.335938 148.171875 313.316406 150.015625 310.429688 150.898438 C 309.238281 151.242188 308.21875 151.820312 308.21875 151.859375 C 308.136719 151.859375 305.84375 152.433594 304.652344 152.742188 C 303.378906 153.050781 301.085938 153.625 301.003906 153.625 C 301.003906 153.664062 298.285156 153.96875 297.097656 154.125 C 295.992188 154.238281 294.464844 154.429688 294.125 154.46875 C 294.039062 154.507812 293.953125 154.507812 293.953125 154.507812 C 293.953125 154.507812 294.039062 154.507812 294.039062 154.46875 C 294.039062 154.46875 293.191406 154.585938 293.105469 154.585938 C 293.105469 154.585938 290.386719 154.625 289.027344 154.625 C 287.671875 154.660156 284.953125 154.660156 284.953125 154.660156 C 284.867188 154.660156 282.234375 154.394531 280.960938 154.277344 C 279.601562 154.125 276.972656 153.894531 276.972656 153.855469 C 276.886719 153.855469 274.507812 153.316406 273.320312 153.050781 C 272.046875 152.78125 269.667969 152.242188 269.582031 152.203125 C 269.582031 152.203125 267.546875 151.4375 266.527344 151.011719 C 265.421875 150.628906 263.382812 149.824219 263.382812 149.824219 C 263.300781 149.785156 261.769531 148.824219 261.007812 148.324219 C 260.15625 147.824219 258.628906 146.828125 258.542969 146.828125 C 258.542969 146.789062 257.523438 145.675781 257.015625 145.097656 C 256.507812 144.523438 255.488281 143.410156 255.488281 143.371094 C 255.488281 143.371094 255.148438 142.179688 254.894531 141.566406 C 254.722656 140.949219 254.382812 139.761719 254.382812 139.722656 C 254.382812 139.683594 254.636719 138.414062 254.722656 137.878906 C 254.894531 137.457031 255.570312 137.109375 254.976562 136.765625 C 252.683594 135.34375 222.03125 136.148438 216.59375 133.308594 C 212.773438 131.347656 217.699219 125.472656 215.578125 125.011719 C 214.21875 124.703125 212.179688 126.125 209.207031 127.046875 C 202.667969 129.082031 187.894531 133.652344 177.277344 136.800781 C 166.835938 139.914062 156.390625 143.753906 146.199219 145.828125 C 137.539062 147.59375 124.886719 148.171875 120.722656 149.132812 C 119.195312 149.4375 118.007812 150.054688 117.921875 150.054688 C 117.921875 150.054688 115.460938 150.550781 114.1875 150.78125 C 112.910156 151.011719 110.449219 151.511719 110.363281 151.511719 C 110.363281 151.511719 107.730469 151.703125 106.375 151.820312 C 105.015625 151.898438 102.382812 152.089844 102.296875 152.089844 C 102.296875 152.089844 99.070312 151.933594 98.5625 151.972656 C 98.390625 151.972656 98.304688 152.011719 98.304688 152.011719 C 98.304688 152.011719 98.476562 151.972656 98.476562 151.972656 C 98.476562 151.972656 98.390625 151.972656 98.222656 151.972656 C 97.710938 151.933594 94.230469 151.820312 94.144531 151.820312 C 94.058594 151.820312 91.171875 151.359375 90.238281 151.207031 C 89.730469 151.128906 89.730469 151.011719 89.050781 151.050781 C 84.890625 151.089844 46.421875 159.15625 45.996094 158.886719 C 45.914062 158.808594 47.015625 158.542969 46.929688 158.503906 C 46.847656 158.425781 45.742188 158.578125 45.0625 158.65625 C 43.960938 158.734375 41.074219 158.964844 40.988281 158.964844 C 40.902344 158.964844 38.269531 158.886719 36.910156 158.847656 C 35.550781 158.808594 32.921875 158.734375 32.835938 158.734375 C 32.75 158.734375 30.203125 158.386719 28.929688 158.195312 C 27.65625 158.003906 25.023438 157.65625 25.023438 157.621094 C 24.9375 157.621094 22.644531 157.003906 21.542969 156.660156 C 20.351562 156.351562 18.058594 155.738281 17.976562 155.699219 C 17.976562 155.699219 16.105469 154.855469 15.085938 154.394531 C 14.152344 153.96875 12.285156 153.125 12.199219 153.085938 C 12.199219 153.085938 10.84375 152.011719 10.164062 151.511719 C 9.398438 150.976562 8.039062 149.9375 8.039062 149.898438 C 7.953125 149.898438 7.191406 148.746094 6.765625 148.132812 C 6.425781 147.554688 5.578125 146.40625 5.578125 146.367188 C 5.578125 146.367188 5.40625 145.136719 5.324219 144.523438 C 5.324219 143.90625 5.152344 142.71875 5.152344 142.679688 C 5.152344 142.640625 5.660156 141.449219 5.832031 140.875 C 6.085938 140.257812 6.511719 139.453125 6.597656 139.03125 C 6.679688 138.839844 6.511719 138.800781 6.679688 138.53125 C 7.445312 137.570312 15.9375 132.691406 15.9375 131.925781 C 15.9375 131.769531 15.765625 131.769531 15.511719 131.65625 C 15.085938 131.347656 13.304688 130.121094 13.304688 130.121094 C 13.304688 130.082031 12.371094 128.929688 11.945312 128.351562 C 11.519531 127.816406 10.84375 126.777344 10.757812 126.738281 C 10.671875 126.738281 10.671875 126.816406 10.671875 126.816406 C 10.671875 126.816406 10.671875 126.738281 10.671875 126.738281 C 10.671875 126.699219 10.585938 126.625 10.585938 126.625 C 10.585938 126.585938 10.332031 125.394531 10.246094 124.78125 C 10.078125 124.167969 9.824219 122.9375 9.824219 122.9375 C 9.824219 122.898438 10.246094 121.707031 10.417969 121.09375 C 10.671875 120.480469 11.011719 119.289062 11.011719 119.25 C 11.011719 119.25 12.285156 117.90625 12.625 117.558594 C 12.796875 117.367188 12.796875 117.367188 12.964844 117.136719 C 13.8125 115.679688 13.21875 106.84375 16.617188 101.699219 C 20.4375 95.859375 33.855469 86.105469 36.488281 84.105469 C 36.996094 83.683594 37.589844 83.761719 37.589844 83.378906 C 37.589844 81.726562 18.398438 73.96875 17.636719 70.78125 C 17.125 69.050781 21.796875 66.785156 21.542969 66.515625 C 21.457031 66.476562 21.285156 66.476562 21.285156 66.476562 C 21.203125 66.476562 18.910156 65.863281 17.71875 65.554688 C 16.53125 65.25 14.238281 64.632812 14.238281 64.597656 C 14.152344 64.597656 12.285156 63.75 11.265625 63.289062 C 10.332031 62.867188 8.378906 62.023438 8.378906 62.023438 C 8.292969 61.984375 6.9375 60.945312 6.171875 60.449219 C 5.492188 59.910156 4.046875 58.871094 4.046875 58.871094 C 4.046875 58.835938 3.199219 57.683594 2.773438 57.105469 C 2.351562 56.492188 1.585938 55.378906 1.5 55.339844 C 1.5 55.300781 1.332031 54.109375 1.246094 53.496094 C 1.160156 52.882812 0.992188 51.652344 0.992188 51.652344 M 115.289062 33.484375 C 115.375 33.484375 115.375 33.445312 115.375 33.445312 C 115.375 33.445312 115.375 33.445312 115.289062 33.445312 C 115.289062 33.484375 115.289062 33.484375 115.289062 33.484375 " clip-rule="nonzero"/></clipPath><clipPath id="b74136bb8c"><rect x="0" width="347" y="0" height="159"/></clipPath><clipPath id="52b4cb3beb"><rect x="0" width="353" y="0" height="163"/></clipPath><clipPath id="ea01c06d01"><path d="M 57.917969 21.734375 L 323 21.734375 L 323 109.128906 L 57.917969 109.128906 Z M 57.917969 21.734375 " clip-rule="nonzero"/></clipPath><clipPath id="25720dad25"><path d="M 190.453125 21.734375 L 322.992188 109.128906 L 57.917969 109.128906 Z M 190.453125 21.734375 " clip-rule="nonzero"/></clipPath><clipPath id="26f5ac6091"><path d="M 0.917969 0.734375 L 266 0.734375 L 266 88.128906 L 0.917969 88.128906 Z M 0.917969 0.734375 " clip-rule="nonzero"/></clipPath><clipPath id="35313d174c"><path d="M 133.453125 0.734375 L 265.992188 88.128906 L 0.917969 88.128906 Z M 133.453125 0.734375 " clip-rule="nonzero"/></clipPath><clipPath id="74af84ed31"><rect x="0" width="266" y="0" height="89"/></clipPath><mask id="7c782d0f15"><g filter="url(#64c72d5807)"><rect x="-37.5" width="450" fill="#000000" y="-37.499999" height="449.999989" fill-opacity="0.43"/></g></mask><clipPath id="77a31bae68"><path d="M 3.320312 1.691406 L 349.195312 1.691406 L 349.195312 117.597656 L 3.320312 117.597656 Z M 3.320312 1.691406 " clip-rule="nonzero"/></clipPath><clipPath id="70cb520f04"><path d="M 349.007812 79.796875 C 349.007812 79.828125 348.582031 80.691406 348.328125 81.136719 C 348.074219 81.582031 347.902344 81.863281 347.648438 82.449219 C 347.222656 83.644531 347.734375 85.765625 346.460938 87.855469 C 344.507812 90.894531 338.476562 95.636719 334.570312 98.816406 C 331.429688 101.296875 325.230469 105.171875 325.144531 105.367188 C 325.144531 105.394531 325.144531 105.394531 325.144531 105.394531 C 325.144531 105.394531 325.144531 105.394531 325.144531 105.421875 C 324.804688 105.5625 321.238281 107.625 321.578125 107.90625 C 321.664062 107.960938 322.171875 107.988281 322.171875 107.988281 C 322.171875 107.988281 320.304688 107.402344 318.863281 107.488281 C 314.617188 107.710938 306.632812 113.257812 297.460938 114.542969 C 287.019531 115.992188 265.875 115.546875 258.144531 114.765625 C 254.496094 114.402344 253.476562 113.0625 250.929688 113.089844 C 247.871094 113.148438 246.003906 115.125 241.164062 115.769531 C 232.160156 116.996094 210.847656 117.609375 197.175781 116.9375 C 184.609375 116.269531 167.113281 114.457031 162.019531 112.199219 C 158.625 110.75 161.679688 107.234375 160.238281 106.957031 C 159.8125 106.84375 159.472656 107.070312 158.539062 107.125 C 154.207031 107.375 128.136719 108.769531 120.921875 107.570312 C 116.675781 106.875 117.523438 104.417969 113.703125 104.058594 C 107.757812 103.5 95.953125 108.074219 85.253906 108.238281 C 72.179688 108.433594 47.550781 106.648438 40.503906 103.191406 C 33.371094 99.652344 39.570312 90.671875 43.730469 87.019531 C 46.195312 84.816406 55.363281 83.171875 54.429688 82.308594 C 53.582031 81.640625 46.703125 82.585938 43.644531 81.609375 C 36.683594 79.410156 37.785156 66.5 30.910156 63.652344 C 27.597656 62.261719 21.824219 63.070312 19.019531 61.703125 C 13.753906 59.191406 12.738281 49.40625 14.945312 46.757812 C 15.792969 45.667969 19.871094 45.027344 19.359375 44.695312 C 18.851562 44.359375 14.265625 45.222656 12.3125 44.695312 C 7.554688 43.4375 2.460938 36.078125 4.074219 31.980469 C 5.6875 27.851562 18.085938 23.335938 22.164062 20.074219 C 24.878906 17.898438 28.359375 16.085938 27.765625 14.46875 C 27.171875 13.128906 21.484375 11.289062 20.886719 10.953125 C 20.71875 10.898438 20.632812 10.898438 20.632812 10.871094 C 20.71875 10.757812 22.164062 10.535156 23.519531 10.3125 C 26.664062 9.726562 36.683594 8.390625 39.570312 7.746094 C 40.757812 7.496094 41.777344 7.078125 41.777344 7.050781 C 41.863281 7.050781 44.15625 6.632812 45.34375 6.410156 C 46.617188 6.1875 48.910156 5.769531 48.996094 5.769531 C 48.996094 5.742188 51.714844 5.515625 52.902344 5.40625 C 54.007812 5.320312 55.535156 5.183594 55.875 5.15625 C 55.960938 5.125 56.042969 5.125 56.042969 5.125 C 56.042969 5.125 55.960938 5.125 55.960938 5.15625 C 55.960938 5.15625 56.808594 5.070312 56.894531 5.070312 C 56.894531 5.070312 59.609375 5.042969 60.96875 5.042969 C 62.328125 5.015625 65.046875 5.015625 65.046875 5.015625 C 65.128906 5.015625 67.761719 5.210938 69.035156 5.292969 C 70.394531 5.40625 73.027344 5.574219 73.027344 5.601562 C 73.113281 5.601562 75.488281 5.992188 76.679688 6.1875 C 77.953125 6.382812 80.332031 6.773438 80.414062 6.800781 C 80.414062 6.800781 82.453125 7.359375 83.472656 7.664062 C 84.574219 7.941406 86.613281 8.527344 86.613281 8.527344 C 86.699219 8.554688 88.226562 9.253906 88.992188 9.617188 C 89.839844 9.980469 91.371094 10.703125 91.453125 10.703125 C 91.453125 10.730469 92.472656 11.539062 92.984375 11.957031 C 93.492188 12.375 94.511719 13.183594 94.511719 13.214844 C 94.511719 13.214844 94.851562 14.078125 95.105469 14.523438 C 95.277344 14.96875 95.613281 15.835938 95.613281 15.863281 C 95.613281 15.890625 95.359375 16.808594 95.277344 17.199219 C 95.105469 17.507812 94.425781 17.757812 95.019531 18.007812 C 97.3125 19.039062 127.96875 18.457031 133.402344 20.519531 C 137.222656 21.941406 132.300781 26.207031 134.421875 26.542969 C 135.78125 26.765625 137.820312 25.734375 140.789062 25.0625 C 147.328125 23.585938 162.105469 20.265625 172.71875 17.980469 C 183.164062 15.722656 193.609375 12.933594 203.800781 11.429688 C 212.460938 10.144531 225.113281 9.726562 229.273438 9.03125 C 230.800781 8.808594 231.992188 8.359375 232.078125 8.359375 C 232.078125 8.359375 234.539062 8 235.8125 7.832031 C 237.085938 7.664062 239.550781 7.300781 239.632812 7.300781 C 239.632812 7.300781 242.265625 7.164062 243.625 7.078125 C 244.984375 7.023438 247.617188 6.882812 247.699219 6.882812 C 247.699219 6.882812 250.929688 6.996094 251.4375 6.96875 C 251.605469 6.96875 251.691406 6.9375 251.691406 6.9375 C 251.691406 6.9375 251.523438 6.96875 251.523438 6.96875 C 251.523438 6.96875 251.605469 6.96875 251.777344 6.96875 C 252.285156 6.996094 255.769531 7.078125 255.851562 7.078125 C 255.9375 7.078125 258.824219 7.414062 259.757812 7.523438 C 260.269531 7.582031 260.269531 7.664062 260.949219 7.636719 C 265.109375 7.609375 303.578125 1.753906 304 1.949219 C 304.085938 2.003906 302.980469 2.199219 303.066406 2.226562 C 303.152344 2.28125 304.253906 2.171875 304.933594 2.117188 C 306.039062 2.058594 308.925781 1.890625 309.011719 1.890625 C 309.097656 1.890625 311.726562 1.949219 313.085938 1.976562 C 314.445312 2.003906 317.078125 2.058594 317.164062 2.058594 C 317.246094 2.058594 319.796875 2.3125 321.070312 2.449219 C 322.34375 2.589844 324.976562 2.839844 324.976562 2.867188 C 325.058594 2.867188 327.351562 3.3125 328.457031 3.566406 C 329.644531 3.789062 331.9375 4.234375 332.023438 4.261719 C 332.023438 4.261719 333.890625 4.875 334.910156 5.210938 C 335.84375 5.515625 337.714844 6.128906 337.796875 6.160156 C 337.796875 6.160156 339.15625 6.9375 339.835938 7.300781 C 340.601562 7.691406 341.957031 8.445312 341.957031 8.472656 C 342.042969 8.472656 342.808594 9.308594 343.234375 9.753906 C 343.570312 10.171875 344.421875 11.011719 344.421875 11.039062 C 344.421875 11.039062 344.589844 11.929688 344.675781 12.375 C 344.675781 12.824219 344.847656 13.6875 344.847656 13.714844 C 344.847656 13.742188 344.335938 14.605469 344.167969 15.027344 C 343.910156 15.472656 343.488281 16.058594 343.402344 16.363281 C 343.316406 16.503906 343.488281 16.53125 343.316406 16.726562 C 342.554688 17.421875 334.0625 20.964844 334.0625 21.523438 C 334.0625 21.632812 334.230469 21.632812 334.484375 21.71875 C 334.910156 21.941406 336.695312 22.832031 336.695312 22.832031 C 336.695312 22.859375 337.628906 23.695312 338.050781 24.117188 C 338.476562 24.503906 339.15625 25.257812 339.242188 25.285156 C 339.328125 25.285156 339.328125 25.230469 339.328125 25.230469 C 339.328125 25.230469 339.328125 25.285156 339.328125 25.285156 C 339.328125 25.3125 339.410156 25.371094 339.410156 25.371094 C 339.410156 25.398438 339.664062 26.261719 339.75 26.707031 C 339.921875 27.15625 340.175781 28.046875 340.175781 28.046875 C 340.175781 28.074219 339.75 28.9375 339.582031 29.386719 C 339.328125 29.832031 338.988281 30.695312 338.988281 30.722656 C 338.988281 30.722656 337.714844 31.699219 337.375 31.949219 C 337.203125 32.089844 337.203125 32.089844 337.035156 32.257812 C 336.183594 33.316406 336.777344 39.730469 333.382812 43.464844 C 329.5625 47.703125 316.144531 54.789062 313.511719 56.238281 C 313.003906 56.542969 312.40625 56.488281 312.40625 56.765625 C 312.40625 57.964844 331.597656 63.597656 332.363281 65.914062 C 332.871094 67.167969 328.203125 68.8125 328.457031 69.007812 C 328.542969 69.035156 328.710938 69.035156 328.710938 69.035156 C 328.796875 69.035156 331.089844 69.480469 332.277344 69.703125 C 333.46875 69.929688 335.761719 70.375 335.761719 70.402344 C 335.84375 70.402344 337.714844 71.015625 338.730469 71.351562 C 339.664062 71.65625 341.617188 72.269531 341.617188 72.269531 C 341.703125 72.296875 343.0625 73.050781 343.828125 73.414062 C 344.507812 73.804688 345.949219 74.554688 345.949219 74.554688 C 345.949219 74.585938 346.800781 75.421875 347.222656 75.839844 C 347.648438 76.285156 348.414062 77.09375 348.496094 77.121094 C 348.496094 77.148438 348.667969 78.015625 348.753906 78.460938 C 348.835938 78.90625 349.007812 79.796875 349.007812 79.796875 M 234.707031 92.988281 C 234.625 92.988281 234.625 93.015625 234.625 93.015625 C 234.625 93.015625 234.625 93.015625 234.707031 93.015625 C 234.707031 92.988281 234.707031 92.988281 234.707031 92.988281 " clip-rule="nonzero"/></clipPath><mask id="bdf5b8c1d5"><g filter="url(#64c72d5807)"><rect x="-93.5" width="540" fill="#000000" y="-261.499998" height="539.999987" fill-opacity="0.5"/></g></mask><clipPath id="125d040947"><path d="M 0.320312 0.71875 L 346.195312 0.71875 L 346.195312 116.597656 L 0.320312 116.597656 Z M 0.320312 0.71875 " clip-rule="nonzero"/></clipPath><clipPath id="9545d3a5cf"><path d="M 346.007812 78.796875 C 346.007812 78.828125 345.582031 79.691406 345.328125 80.136719 C 345.074219 80.582031 344.902344 80.863281 344.648438 81.449219 C 344.222656 82.644531 344.734375 84.765625 343.460938 86.855469 C 341.507812 89.894531 335.476562 94.636719 331.570312 97.816406 C 328.429688 100.296875 322.230469 104.171875 322.144531 104.367188 C 322.144531 104.394531 322.144531 104.394531 322.144531 104.394531 C 322.144531 104.394531 322.144531 104.394531 322.144531 104.421875 C 321.804688 104.5625 318.238281 106.625 318.578125 106.90625 C 318.664062 106.960938 319.171875 106.988281 319.171875 106.988281 C 319.171875 106.988281 317.304688 106.402344 315.863281 106.488281 C 311.617188 106.710938 303.632812 112.257812 294.460938 113.542969 C 284.019531 114.992188 262.875 114.546875 255.144531 113.765625 C 251.496094 113.402344 250.476562 112.0625 247.929688 112.089844 C 244.871094 112.148438 243.003906 114.125 238.164062 114.769531 C 229.160156 115.996094 207.847656 116.609375 194.175781 115.9375 C 181.609375 115.269531 164.113281 113.457031 159.019531 111.199219 C 155.625 109.75 158.679688 106.234375 157.238281 105.957031 C 156.8125 105.84375 156.472656 106.070312 155.539062 106.125 C 151.207031 106.375 125.136719 107.769531 117.921875 106.570312 C 113.675781 105.875 114.523438 103.417969 110.703125 103.058594 C 104.757812 102.5 92.953125 107.074219 82.253906 107.238281 C 69.179688 107.433594 44.550781 105.648438 37.503906 102.191406 C 30.371094 98.652344 36.570312 89.671875 40.730469 86.019531 C 43.195312 83.816406 52.363281 82.171875 51.429688 81.308594 C 50.582031 80.640625 43.703125 81.585938 40.644531 80.609375 C 33.683594 78.410156 34.785156 65.5 27.910156 62.652344 C 24.597656 61.261719 18.824219 62.070312 16.019531 60.703125 C 10.753906 58.191406 9.738281 48.40625 11.945312 45.757812 C 12.792969 44.667969 16.871094 44.027344 16.359375 43.695312 C 15.851562 43.359375 11.265625 44.222656 9.3125 43.695312 C 4.554688 42.4375 -0.539062 35.078125 1.074219 30.980469 C 2.6875 26.851562 15.085938 22.335938 19.164062 19.074219 C 21.878906 16.898438 25.359375 15.085938 24.765625 13.46875 C 24.171875 12.128906 18.484375 10.289062 17.886719 9.953125 C 17.71875 9.898438 17.632812 9.898438 17.632812 9.871094 C 17.71875 9.757812 19.164062 9.535156 20.519531 9.3125 C 23.664062 8.726562 33.683594 7.390625 36.570312 6.746094 C 37.757812 6.496094 38.777344 6.078125 38.777344 6.050781 C 38.863281 6.050781 41.15625 5.632812 42.34375 5.410156 C 43.617188 5.1875 45.910156 4.769531 45.996094 4.769531 C 45.996094 4.742188 48.714844 4.515625 49.902344 4.40625 C 51.007812 4.320312 52.535156 4.183594 52.875 4.15625 C 52.960938 4.125 53.042969 4.125 53.042969 4.125 C 53.042969 4.125 52.960938 4.125 52.960938 4.15625 C 52.960938 4.15625 53.808594 4.070312 53.894531 4.070312 C 53.894531 4.070312 56.609375 4.042969 57.96875 4.042969 C 59.328125 4.015625 62.046875 4.015625 62.046875 4.015625 C 62.128906 4.015625 64.761719 4.210938 66.035156 4.292969 C 67.394531 4.40625 70.027344 4.574219 70.027344 4.601562 C 70.113281 4.601562 72.488281 4.992188 73.679688 5.1875 C 74.953125 5.382812 77.332031 5.773438 77.414062 5.800781 C 77.414062 5.800781 79.453125 6.359375 80.472656 6.664062 C 81.574219 6.941406 83.613281 7.527344 83.613281 7.527344 C 83.699219 7.554688 85.226562 8.253906 85.992188 8.617188 C 86.839844 8.980469 88.371094 9.703125 88.453125 9.703125 C 88.453125 9.730469 89.472656 10.539062 89.984375 10.957031 C 90.492188 11.375 91.511719 12.183594 91.511719 12.214844 C 91.511719 12.214844 91.851562 13.078125 92.105469 13.523438 C 92.277344 13.96875 92.613281 14.835938 92.613281 14.863281 C 92.613281 14.890625 92.359375 15.808594 92.277344 16.199219 C 92.105469 16.507812 91.425781 16.757812 92.019531 17.007812 C 94.3125 18.039062 124.96875 17.457031 130.402344 19.519531 C 134.222656 20.941406 129.300781 25.207031 131.421875 25.542969 C 132.78125 25.765625 134.820312 24.734375 137.789062 24.0625 C 144.328125 22.585938 159.105469 19.265625 169.71875 16.980469 C 180.164062 14.722656 190.609375 11.933594 200.800781 10.429688 C 209.460938 9.144531 222.113281 8.726562 226.273438 8.03125 C 227.800781 7.808594 228.992188 7.359375 229.078125 7.359375 C 229.078125 7.359375 231.539062 7 232.8125 6.832031 C 234.085938 6.664062 236.550781 6.300781 236.632812 6.300781 C 236.632812 6.300781 239.265625 6.164062 240.625 6.078125 C 241.984375 6.023438 244.617188 5.882812 244.699219 5.882812 C 244.699219 5.882812 247.929688 5.996094 248.4375 5.96875 C 248.605469 5.96875 248.691406 5.9375 248.691406 5.9375 C 248.691406 5.9375 248.523438 5.96875 248.523438 5.96875 C 248.523438 5.96875 248.605469 5.96875 248.777344 5.96875 C 249.285156 5.996094 252.769531 6.078125 252.851562 6.078125 C 252.9375 6.078125 255.824219 6.414062 256.757812 6.523438 C 257.269531 6.582031 257.269531 6.664062 257.949219 6.636719 C 262.109375 6.609375 300.578125 0.753906 301 0.949219 C 301.085938 1.003906 299.980469 1.199219 300.066406 1.226562 C 300.152344 1.28125 301.253906 1.171875 301.933594 1.117188 C 303.039062 1.058594 305.925781 0.890625 306.011719 0.890625 C 306.097656 0.890625 308.726562 0.949219 310.085938 0.976562 C 311.445312 1.003906 314.078125 1.058594 314.164062 1.058594 C 314.246094 1.058594 316.796875 1.3125 318.070312 1.449219 C 319.34375 1.589844 321.976562 1.839844 321.976562 1.867188 C 322.058594 1.867188 324.351562 2.3125 325.457031 2.566406 C 326.644531 2.789062 328.9375 3.234375 329.023438 3.261719 C 329.023438 3.261719 330.890625 3.875 331.910156 4.210938 C 332.84375 4.515625 334.714844 5.128906 334.796875 5.160156 C 334.796875 5.160156 336.15625 5.9375 336.835938 6.300781 C 337.601562 6.691406 338.957031 7.445312 338.957031 7.472656 C 339.042969 7.472656 339.808594 8.308594 340.234375 8.753906 C 340.570312 9.171875 341.421875 10.011719 341.421875 10.039062 C 341.421875 10.039062 341.589844 10.929688 341.675781 11.375 C 341.675781 11.824219 341.847656 12.6875 341.847656 12.714844 C 341.847656 12.742188 341.335938 13.605469 341.167969 14.027344 C 340.910156 14.472656 340.488281 15.058594 340.402344 15.363281 C 340.316406 15.503906 340.488281 15.53125 340.316406 15.726562 C 339.554688 16.421875 331.0625 19.964844 331.0625 20.523438 C 331.0625 20.632812 331.230469 20.632812 331.484375 20.71875 C 331.910156 20.941406 333.695312 21.832031 333.695312 21.832031 C 333.695312 21.859375 334.628906 22.695312 335.050781 23.117188 C 335.476562 23.503906 336.15625 24.257812 336.242188 24.285156 C 336.328125 24.285156 336.328125 24.230469 336.328125 24.230469 C 336.328125 24.230469 336.328125 24.285156 336.328125 24.285156 C 336.328125 24.3125 336.410156 24.371094 336.410156 24.371094 C 336.410156 24.398438 336.664062 25.261719 336.75 25.707031 C 336.921875 26.15625 337.175781 27.046875 337.175781 27.046875 C 337.175781 27.074219 336.75 27.9375 336.582031 28.386719 C 336.328125 28.832031 335.988281 29.695312 335.988281 29.722656 C 335.988281 29.722656 334.714844 30.699219 334.375 30.949219 C 334.203125 31.089844 334.203125 31.089844 334.035156 31.257812 C 333.183594 32.316406 333.777344 38.730469 330.382812 42.464844 C 326.5625 46.703125 313.144531 53.789062 310.511719 55.238281 C 310.003906 55.542969 309.40625 55.488281 309.40625 55.765625 C 309.40625 56.964844 328.597656 62.597656 329.363281 64.914062 C 329.871094 66.167969 325.203125 67.8125 325.457031 68.007812 C 325.542969 68.035156 325.710938 68.035156 325.710938 68.035156 C 325.796875 68.035156 328.089844 68.480469 329.277344 68.703125 C 330.46875 68.929688 332.761719 69.375 332.761719 69.402344 C 332.84375 69.402344 334.714844 70.015625 335.730469 70.351562 C 336.664062 70.65625 338.617188 71.269531 338.617188 71.269531 C 338.703125 71.296875 340.0625 72.050781 340.828125 72.414062 C 341.507812 72.804688 342.949219 73.554688 342.949219 73.554688 C 342.949219 73.585938 343.800781 74.421875 344.222656 74.839844 C 344.648438 75.285156 345.414062 76.09375 345.496094 76.121094 C 345.496094 76.148438 345.667969 77.015625 345.753906 77.460938 C 345.835938 77.90625 346.007812 78.796875 346.007812 78.796875 M 231.707031 91.988281 C 231.625 91.988281 231.625 92.015625 231.625 92.015625 C 231.625 92.015625 231.625 92.015625 231.707031 92.015625 C 231.707031 91.988281 231.707031 91.988281 231.707031 91.988281 " clip-rule="nonzero"/></clipPath><clipPath id="26b496a09e"><rect x="0" width="347" y="0" height="117"/></clipPath><clipPath id="c49b784694"><rect x="0" width="353" y="0" height="119"/></clipPath><clipPath id="f3e946b9f2"><path d="M 61.042969 107.179688 L 319.867188 107.179688 L 319.867188 283.28125 L 61.042969 283.28125 Z M 61.042969 107.179688 " clip-rule="nonzero"/></clipPath><clipPath id="d0c0703484"><path d="M 0.0429688 0.179688 L 258.867188 0.179688 L 258.867188 176.28125 L 0.0429688 176.28125 Z M 0.0429688 0.179688 " clip-rule="nonzero"/></clipPath><clipPath id="4cc8285580"><rect x="0" width="259" y="0" height="177"/></clipPath><clipPath id="a1ca5fb4a2"><path d="M 161.789062 189.375 L 219.125 189.375 L 219.125 285 L 161.789062 285 Z M 161.789062 189.375 " clip-rule="nonzero"/></clipPath><clipPath id="080c799be9"><path d="M 219.125 193.125 L 219.125 281.046875 C 219.125 283.121094 217.445312 284.796875 215.375 284.796875 L 165.539062 284.796875 C 163.46875 284.796875 161.789062 283.121094 161.789062 281.046875 L 161.789062 193.125 C 161.789062 191.050781 163.46875 189.375 165.539062 189.375 L 215.375 189.375 C 217.445312 189.375 219.125 191.050781 219.125 193.125 Z M 219.125 193.125 " clip-rule="nonzero"/></clipPath><clipPath id="5274b6da43"><path d="M 0.789062 0.375 L 58.125 0.375 L 58.125 95.878906 L 0.789062 95.878906 Z M 0.789062 0.375 " clip-rule="nonzero"/></clipPath><clipPath id="4182ece910"><path d="M 58.125 4.125 L 58.125 92.046875 C 58.125 94.121094 56.445312 95.796875 54.375 95.796875 L 4.539062 95.796875 C 2.46875 95.796875 0.789062 94.121094 0.789062 92.046875 L 0.789062 4.125 C 0.789062 2.050781 2.46875 0.375 4.539062 0.375 L 54.375 0.375 C 56.445312 0.375 58.125 2.050781 58.125 4.125 Z M 58.125 4.125 " clip-rule="nonzero"/></clipPath><clipPath id="ec022e9cec"><rect x="0" width="59" y="0" height="96"/></clipPath><clipPath id="c1bd442a5c"><path d="M 161.789062 189.378906 L 218.789062 189.378906 L 218.789062 284.625 L 161.789062 284.625 Z M 161.789062 189.378906 " clip-rule="nonzero"/></clipPath><clipPath id="a664a95df7"><path d="M 219.117188 193.128906 L 219.117188 281.042969 C 219.117188 283.113281 217.4375 284.792969 215.367188 284.792969 L 165.539062 284.792969 C 163.46875 284.792969 161.789062 283.113281 161.789062 281.042969 L 161.789062 193.128906 C 161.789062 191.058594 163.46875 189.378906 165.539062 189.378906 L 215.367188 189.378906 C 217.4375 189.378906 219.117188 191.058594 219.117188 193.128906 Z M 219.117188 193.128906 " clip-rule="nonzero"/></clipPath><clipPath id="6926424b0d"><path d="M 203.402344 237.085938 L 211.59375 237.085938 L 211.59375 245.277344 L 203.402344 245.277344 Z M 203.402344 237.085938 " clip-rule="nonzero"/></clipPath><clipPath id="42fb01eda7"><path d="M 207.5 237.085938 C 205.238281 237.085938 203.402344 238.917969 203.402344 241.179688 C 203.402344 243.441406 205.238281 245.277344 207.5 245.277344 C 209.761719 245.277344 211.59375 243.441406 211.59375 241.179688 C 211.59375 238.917969 209.761719 237.085938 207.5 237.085938 Z M 207.5 237.085938 " clip-rule="nonzero"/></clipPath><clipPath id="4687f9ecd8"><path d="M 0.402344 0.0859375 L 8.59375 0.0859375 L 8.59375 8.277344 L 0.402344 8.277344 Z M 0.402344 0.0859375 " clip-rule="nonzero"/></clipPath><clipPath id="6c93b52fcc"><path d="M 4.5 0.0859375 C 2.238281 0.0859375 0.402344 1.917969 0.402344 4.179688 C 0.402344 6.441406 2.238281 8.277344 4.5 8.277344 C 6.761719 8.277344 8.59375 6.441406 8.59375 4.179688 C 8.59375 1.917969 6.761719 0.0859375 4.5 0.0859375 Z M 4.5 0.0859375 " clip-rule="nonzero"/></clipPath><clipPath id="524bef1a18"><rect x="0" width="9" y="0" height="9"/></clipPath><clipPath id="af8d8863d1"><path d="M 161.789062 116.09375 L 219.171875 116.09375 L 219.171875 173.03125 L 161.789062 173.03125 Z M 161.789062 116.09375 " clip-rule="nonzero"/></clipPath><clipPath id="b9fac2f9ff"><path d="M 219.125 119.84375 L 219.125 169.28125 C 219.125 171.355469 217.445312 173.03125 215.375 173.03125 L 165.539062 173.03125 C 163.46875 173.03125 161.789062 171.355469 161.789062 169.28125 L 161.789062 119.84375 C 161.789062 117.773438 163.46875 116.09375 165.539062 116.09375 L 215.375 116.09375 C 217.445312 116.09375 219.125 117.773438 219.125 119.84375 Z M 219.125 119.84375 " clip-rule="nonzero"/></clipPath><clipPath id="97c2b11b0f"><path d="M 0.789062 0.09375 L 58.171875 0.09375 L 58.171875 57.03125 L 0.789062 57.03125 Z M 0.789062 0.09375 " clip-rule="nonzero"/></clipPath><clipPath id="b1c81d10f4"><path d="M 58.125 3.84375 L 58.125 53.28125 C 58.125 55.355469 56.445312 57.03125 54.375 57.03125 L 4.539062 57.03125 C 2.46875 57.03125 0.789062 55.355469 0.789062 53.28125 L 0.789062 3.84375 C 0.789062 1.773438 2.46875 0.09375 4.539062 0.09375 L 54.375 0.09375 C 56.445312 0.09375 58.125 1.773438 58.125 3.84375 Z M 58.125 3.84375 " clip-rule="nonzero"/></clipPath><clipPath id="bb30d6251a"><rect x="0" width="59" y="0" height="58"/></clipPath><clipPath id="501989485a"><path d="M 161.789062 116.097656 L 218.789062 116.097656 L 218.789062 173.09375 L 161.789062 173.09375 Z M 161.789062 116.097656 " clip-rule="nonzero"/></clipPath><clipPath id="52de8bc924"><path d="M 219.117188 119.847656 L 219.117188 169.28125 C 219.117188 171.351562 217.4375 173.03125 215.367188 173.03125 L 165.539062 173.03125 C 163.46875 173.03125 161.789062 171.351562 161.789062 169.28125 L 161.789062 119.847656 C 161.789062 117.777344 163.46875 116.097656 165.539062 116.097656 L 215.367188 116.097656 C 217.4375 116.097656 219.117188 117.777344 219.117188 119.847656 Z M 219.117188 119.847656 " clip-rule="nonzero"/></clipPath><clipPath id="af859188cf"><path d="M 239.644531 116.09375 L 297 116.09375 L 297 173.03125 L 239.644531 173.03125 Z M 239.644531 116.09375 " clip-rule="nonzero"/></clipPath><clipPath id="310a9adcbd"><path d="M 296.980469 119.84375 L 296.980469 169.28125 C 296.980469 171.355469 295.300781 173.03125 293.230469 173.03125 L 243.394531 173.03125 C 241.324219 173.03125 239.644531 171.355469 239.644531 169.28125 L 239.644531 119.84375 C 239.644531 117.773438 241.324219 116.09375 243.394531 116.09375 L 293.230469 116.09375 C 295.300781 116.09375 296.980469 117.773438 296.980469 119.84375 Z M 296.980469 119.84375 " clip-rule="nonzero"/></clipPath><clipPath id="78ef9eb0c2"><path d="M 0.644531 0.09375 L 58 0.09375 L 58 57.03125 L 0.644531 57.03125 Z M 0.644531 0.09375 " clip-rule="nonzero"/></clipPath><clipPath id="c6a9b8303a"><path d="M 57.980469 3.84375 L 57.980469 53.28125 C 57.980469 55.355469 56.300781 57.03125 54.230469 57.03125 L 4.394531 57.03125 C 2.324219 57.03125 0.644531 55.355469 0.644531 53.28125 L 0.644531 3.84375 C 0.644531 1.773438 2.324219 0.09375 4.394531 0.09375 L 54.230469 0.09375 C 56.300781 0.09375 57.980469 1.773438 57.980469 3.84375 Z M 57.980469 3.84375 " clip-rule="nonzero"/></clipPath><clipPath id="1284a0f77d"><rect x="0" width="58" y="0" height="58"/></clipPath><clipPath id="38278c7550"><path d="M 239.644531 116.097656 L 296.644531 116.097656 L 296.644531 173.09375 L 239.644531 173.09375 Z M 239.644531 116.097656 " clip-rule="nonzero"/></clipPath><clipPath id="cc780405af"><path d="M 296.972656 119.847656 L 296.972656 169.28125 C 296.972656 171.351562 295.292969 173.03125 293.222656 173.03125 L 243.394531 173.03125 C 241.324219 173.03125 239.644531 171.351562 239.644531 169.28125 L 239.644531 119.847656 C 239.644531 117.777344 241.324219 116.097656 243.394531 116.097656 L 293.222656 116.097656 C 295.292969 116.097656 296.972656 117.777344 296.972656 119.847656 Z M 296.972656 119.847656 " clip-rule="nonzero"/></clipPath><clipPath id="58d7e344d1"><path d="M 84.054688 116.09375 L 141.4375 116.09375 L 141.4375 173.03125 L 84.054688 173.03125 Z M 84.054688 116.09375 " clip-rule="nonzero"/></clipPath><clipPath id="06993c5275"><path d="M 141.386719 119.84375 L 141.386719 169.28125 C 141.386719 171.355469 139.710938 173.03125 137.636719 173.03125 L 87.804688 173.03125 C 85.734375 173.03125 84.054688 171.355469 84.054688 169.28125 L 84.054688 119.84375 C 84.054688 117.773438 85.734375 116.09375 87.804688 116.09375 L 137.636719 116.09375 C 139.710938 116.09375 141.386719 117.773438 141.386719 119.84375 Z M 141.386719 119.84375 " clip-rule="nonzero"/></clipPath><clipPath id="ff8df5ba23"><path d="M 0.0546875 0.09375 L 57.4375 0.09375 L 57.4375 57.03125 L 0.0546875 57.03125 Z M 0.0546875 0.09375 " clip-rule="nonzero"/></clipPath><clipPath id="a89f7be107"><path d="M 57.386719 3.84375 L 57.386719 53.28125 C 57.386719 55.355469 55.710938 57.03125 53.636719 57.03125 L 3.804688 57.03125 C 1.734375 57.03125 0.0546875 55.355469 0.0546875 53.28125 L 0.0546875 3.84375 C 0.0546875 1.773438 1.734375 0.09375 3.804688 0.09375 L 53.636719 0.09375 C 55.710938 0.09375 57.386719 1.773438 57.386719 3.84375 Z M 57.386719 3.84375 " clip-rule="nonzero"/></clipPath><clipPath id="4968548753"><rect x="0" width="58" y="0" height="58"/></clipPath><clipPath id="4791954075"><path d="M 84.054688 116.097656 L 141.054688 116.097656 L 141.054688 173.09375 L 84.054688 173.09375 Z M 84.054688 116.097656 " clip-rule="nonzero"/></clipPath><clipPath id="5c30395539"><path d="M 141.382812 119.847656 L 141.382812 169.28125 C 141.382812 171.351562 139.703125 173.03125 137.632812 173.03125 L 87.804688 173.03125 C 85.734375 173.03125 84.054688 171.351562 84.054688 169.28125 L 84.054688 119.847656 C 84.054688 117.777344 85.734375 116.097656 87.804688 116.097656 L 137.632812 116.097656 C 139.703125 116.097656 141.382812 117.777344 141.382812 119.847656 Z M 141.382812 119.847656 " clip-rule="nonzero"/></clipPath><clipPath id="465205f5be"><path d="M 84.054688 189.375 L 141.4375 189.375 L 141.4375 246.3125 L 84.054688 246.3125 Z M 84.054688 189.375 " clip-rule="nonzero"/></clipPath><clipPath id="727e924359"><path d="M 141.386719 193.125 L 141.386719 242.5625 C 141.386719 244.632812 139.710938 246.3125 137.636719 246.3125 L 87.804688 246.3125 C 85.734375 246.3125 84.054688 244.632812 84.054688 242.5625 L 84.054688 193.125 C 84.054688 191.050781 85.734375 189.375 87.804688 189.375 L 137.636719 189.375 C 139.710938 189.375 141.386719 191.050781 141.386719 193.125 Z M 141.386719 193.125 " clip-rule="nonzero"/></clipPath><clipPath id="f043b3282b"><path d="M 0.0546875 0.375 L 57.4375 0.375 L 57.4375 57.3125 L 0.0546875 57.3125 Z M 0.0546875 0.375 " clip-rule="nonzero"/></clipPath><clipPath id="0b49e0e346"><path d="M 57.386719 4.125 L 57.386719 53.5625 C 57.386719 55.632812 55.710938 57.3125 53.636719 57.3125 L 3.804688 57.3125 C 1.734375 57.3125 0.0546875 55.632812 0.0546875 53.5625 L 0.0546875 4.125 C 0.0546875 2.050781 1.734375 0.375 3.804688 0.375 L 53.636719 0.375 C 55.710938 0.375 57.386719 2.050781 57.386719 4.125 Z M 57.386719 4.125 " clip-rule="nonzero"/></clipPath><clipPath id="0602c03ae9"><rect x="0" width="58" y="0" height="58"/></clipPath><clipPath id="2c718f46f0"><path d="M 84.054688 189.378906 L 141.054688 189.378906 L 141.054688 246.375 L 84.054688 246.375 Z M 84.054688 189.378906 " clip-rule="nonzero"/></clipPath><clipPath id="3735cc0027"><path d="M 141.382812 193.128906 L 141.382812 242.5625 C 141.382812 244.632812 139.703125 246.3125 137.632812 246.3125 L 87.804688 246.3125 C 85.734375 246.3125 84.054688 244.632812 84.054688 242.5625 L 84.054688 193.128906 C 84.054688 191.054688 85.734375 189.378906 87.804688 189.378906 L 137.632812 189.378906 C 139.703125 189.378906 141.382812 191.054688 141.382812 193.128906 Z M 141.382812 193.128906 " clip-rule="nonzero"/></clipPath><clipPath id="8133bdf10c"><path d="M 239.644531 189.375 L 297 189.375 L 297 246.3125 L 239.644531 246.3125 Z M 239.644531 189.375 " clip-rule="nonzero"/></clipPath><clipPath id="439b14f6ed"><path d="M 296.980469 193.125 L 296.980469 242.5625 C 296.980469 244.632812 295.300781 246.3125 293.230469 246.3125 L 243.394531 246.3125 C 241.324219 246.3125 239.644531 244.632812 239.644531 242.5625 L 239.644531 193.125 C 239.644531 191.050781 241.324219 189.375 243.394531 189.375 L 293.230469 189.375 C 295.300781 189.375 296.980469 191.050781 296.980469 193.125 Z M 296.980469 193.125 " clip-rule="nonzero"/></clipPath><clipPath id="1162aaf3fd"><path d="M 0.644531 0.375 L 58 0.375 L 58 57.3125 L 0.644531 57.3125 Z M 0.644531 0.375 " clip-rule="nonzero"/></clipPath><clipPath id="8955d26a2c"><path d="M 57.980469 4.125 L 57.980469 53.5625 C 57.980469 55.632812 56.300781 57.3125 54.230469 57.3125 L 4.394531 57.3125 C 2.324219 57.3125 0.644531 55.632812 0.644531 53.5625 L 0.644531 4.125 C 0.644531 2.050781 2.324219 0.375 4.394531 0.375 L 54.230469 0.375 C 56.300781 0.375 57.980469 2.050781 57.980469 4.125 Z M 57.980469 4.125 " clip-rule="nonzero"/></clipPath><clipPath id="d30b792d2b"><rect x="0" width="58" y="0" height="58"/></clipPath><clipPath id="868a0664d6"><path d="M 239.644531 189.378906 L 296.644531 189.378906 L 296.644531 246.375 L 239.644531 246.375 Z M 239.644531 189.378906 " clip-rule="nonzero"/></clipPath><clipPath id="1a0d5f10a2"><path d="M 296.972656 193.128906 L 296.972656 242.5625 C 296.972656 244.632812 295.292969 246.3125 293.222656 246.3125 L 243.394531 246.3125 C 241.324219 246.3125 239.644531 244.632812 239.644531 242.5625 L 239.644531 193.128906 C 239.644531 191.054688 241.324219 189.378906 243.394531 189.378906 L 293.222656 189.378906 C 295.292969 189.378906 296.972656 191.054688 296.972656 193.128906 Z M 296.972656 193.128906 " clip-rule="nonzero"/></clipPath><clipPath id="34e661f1e2"><path d="M 172.929688 198.652344 L 208.167969 198.652344 L 208.167969 217.84375 L 172.929688 217.84375 Z M 172.929688 198.652344 " clip-rule="nonzero"/></clipPath><clipPath id="4df1f8edb8"><path d="M 180.429688 198.652344 L 200.601562 198.652344 C 202.589844 198.652344 204.496094 199.441406 205.90625 200.847656 C 207.3125 202.253906 208.101562 204.160156 208.101562 206.152344 L 208.101562 210.34375 C 208.101562 212.332031 207.3125 214.242188 205.90625 215.648438 C 204.496094 217.054688 202.589844 217.84375 200.601562 217.84375 L 180.429688 217.84375 C 178.441406 217.84375 176.535156 217.054688 175.128906 215.648438 C 173.722656 214.242188 172.929688 212.332031 172.929688 210.34375 L 172.929688 206.152344 C 172.929688 204.160156 173.722656 202.253906 175.128906 200.847656 C 176.535156 199.441406 178.441406 198.652344 180.429688 198.652344 Z M 180.429688 198.652344 " clip-rule="nonzero"/></clipPath><clipPath id="17d78284c3"><path d="M 0.929688 0.652344 L 36.167969 0.652344 L 36.167969 19.84375 L 0.929688 19.84375 Z M 0.929688 0.652344 " clip-rule="nonzero"/></clipPath><clipPath id="580dc6dab4"><path d="M 8.429688 0.652344 L 28.601562 0.652344 C 30.589844 0.652344 32.496094 1.441406 33.90625 2.847656 C 35.3125 4.253906 36.101562 6.160156 36.101562 8.152344 L 36.101562 12.34375 C 36.101562 14.332031 35.3125 16.242188 33.90625 17.648438 C 32.496094 19.054688 30.589844 19.84375 28.601562 19.84375 L 8.429688 19.84375 C 6.441406 19.84375 4.535156 19.054688 3.128906 17.648438 C 1.722656 16.242188 0.929688 14.332031 0.929688 12.34375 L 0.929688 8.152344 C 0.929688 6.160156 1.722656 4.253906 3.128906 2.847656 C 4.535156 1.441406 6.441406 0.652344 8.429688 0.652344 Z M 8.429688 0.652344 " clip-rule="nonzero"/></clipPath><clipPath id="81a4b01570"><rect x="0" width="37" y="0" height="20"/></clipPath><clipPath id="86d659b49c"><path d="M 172.9375 198.652344 L 208.179688 198.652344 L 208.179688 218 L 172.9375 218 Z M 172.9375 198.652344 " clip-rule="nonzero"/></clipPath><clipPath id="ff079dac0c"><path d="M 180.433594 198.652344 L 200.59375 198.652344 C 202.582031 198.652344 204.488281 199.441406 205.894531 200.847656 C 207.300781 202.253906 208.089844 204.160156 208.089844 206.148438 L 208.089844 210.339844 C 208.089844 212.328125 207.300781 214.234375 205.894531 215.640625 C 204.488281 217.042969 202.582031 217.835938 200.59375 217.835938 L 180.433594 217.835938 C 178.445312 217.835938 176.539062 217.042969 175.136719 215.640625 C 173.730469 214.234375 172.9375 212.328125 172.9375 210.339844 L 172.9375 206.148438 C 172.9375 204.160156 173.730469 202.253906 175.136719 200.847656 C 176.539062 199.441406 178.445312 198.652344 180.433594 198.652344 Z M 180.433594 198.652344 " clip-rule="nonzero"/></clipPath></defs><g mask="url(#245a536e1e)"><g transform="matrix(1, 0, 0, 1, 11, 25)"><g clip-path="url(#52b4cb3beb)"><g clip-path="url(#b6a96a346d)"><g clip-path="url(#4a42d05c44)"><g mask="url(#9f6b4b2a61)"><g transform="matrix(1, 0, 0, 1, 3, 2)"><g clip-path="url(#b74136bb8c)"><g clip-path="url(#12462b195e)"><g clip-path="url(#0e2bbebf30)"><rect x="-150.5" width="648" fill="#8bcfdb" y="-163.499997" height="647.999984" fill-opacity="1"/></g></g></g></g></g></g></g></g></g></g><g clip-path="url(#ea01c06d01)"><g clip-path="url(#25720dad25)"><g transform="matrix(1, 0, 0, 1, 57, 21)"><g clip-path="url(#74af84ed31)"><g clip-path="url(#26f5ac6091)"><g clip-path="url(#35313d174c)"><path fill="#ffcbba" d="M 0.917969 0.734375 L 265.832031 0.734375 L 265.832031 88.128906 L 0.917969 88.128906 Z M 0.917969 0.734375 " fill-opacity="1" fill-rule="nonzero"/></g></g></g></g></g></g><g mask="url(#7c782d0f15)"><g transform="matrix(1, 0, 0, 1, 11, 179)"><g clip-path="url(#c49b784694)"><g clip-path="url(#77a31bae68)"><g clip-path="url(#70cb520f04)"><g mask="url(#bdf5b8c1d5)"><g transform="matrix(1, 0, 0, 1, 3, 1)"><g clip-path="url(#26b496a09e)"><g clip-path="url(#125d040947)"><g clip-path="url(#9545d3a5cf)"><rect x="-150.5" width="648" fill="#7ed957" y="-316.499997" height="647.999984" fill-opacity="1"/></g></g></g></g></g></g></g></g></g></g><g clip-path="url(#f3e946b9f2)"><g transform="matrix(1, 0, 0, 1, 61, 107)"><g clip-path="url(#4cc8285580)"><g clip-path="url(#d0c0703484)"><path fill="#ffcbba" d="M 0.0429688 0.179688 L 258.691406 0.179688 L 258.691406 176.28125 L 0.0429688 176.28125 Z M 0.0429688 0.179688 " fill-opacity="1" fill-rule="nonzero"/></g></g></g></g><path stroke-linecap="butt" transform="matrix(0.75, 0, 0, 0.75, 59.252981, 281.670742)" fill="none" stroke-linejoin="miter" d="M 0.00123312 2.00151 L 352.77209 2.00151 " stroke="#000000" stroke-width="4" stroke-opacity="1" stroke-miterlimit="4"/><path stroke-linecap="round" transform="matrix(0.00919049, 0.749944, -0.749944, 0.00919049, 60.748781, 105.634227)" fill="none" stroke-linejoin="miter" d="M 1.999771 2.002197 L 234.715204 1.999721 " stroke="#000000" stroke-width="4" stroke-opacity="1" stroke-miterlimit="4"/><path stroke-linecap="round" transform="matrix(0.00919049, 0.749944, -0.749944, 0.00919049, 320.976691, 105.607558)" fill="none" stroke-linejoin="miter" d="M 1.998913 1.998775 L 234.714282 2.001507 " stroke="#000000" stroke-width="4" stroke-opacity="1" stroke-miterlimit="4"/><path stroke-linecap="round" transform="matrix(0.629737, -0.407346, 0.407346, 0.629737, 37.57119, 118.701789)" fill="none" stroke-linejoin="miter" d="M 1.997725 2.00149 L 241.706082 2.000963 " stroke="#000000" stroke-width="4" stroke-opacity="1" stroke-miterlimit="4"/><path stroke-linecap="round" transform="matrix(0.629303, 0.408017, -0.408017, 0.629303, 191.270368, 20.477848)" fill="none" stroke-linejoin="miter" d="M 2.000894 1.996709 L 238.742818 2.001255 " stroke="#000000" stroke-width="4" stroke-opacity="1" stroke-miterlimit="4"/><g clip-path="url(#a1ca5fb4a2)"><g clip-path="url(#080c799be9)"><g transform="matrix(1, 0, 0, 1, 161, 189)"><g clip-path="url(#ec022e9cec)"><g clip-path="url(#5274b6da43)"><g clip-path="url(#4182ece910)"><path fill="#8bcfdb" d="M 0.789062 0.375 L 58.125 0.375 L 58.125 95.78125 L 0.789062 95.78125 Z M 0.789062 0.375 " fill-opacity="1" fill-rule="nonzero"/></g></g></g></g></g></g><g clip-path="url(#c1bd442a5c)"><g clip-path="url(#a664a95df7)"><path stroke-linecap="butt" transform="matrix(0.75, 0, 0, 0.75, 161.788412, 189.379264)" fill="none" stroke-linejoin="miter" d="M 76.438377 4.999523 L 76.438377 122.218288 C 76.438377 124.978705 74.198793 127.218289 71.438376 127.218289 L 5.000868 127.218289 C 2.240451 127.218289 0.000866966 124.978705 0.000866966 122.218288 L 0.000866966 4.999523 C 0.000866966 2.239106 2.240451 -0.000477486 5.000868 -0.000477486 L 71.438376 -0.000477486 C 74.198793 -0.000477486 76.438377 2.239106 76.438377 4.999523 Z M 76.438377 4.999523 " stroke="#000000" stroke-width="8" stroke-opacity="1" stroke-miterlimit="4"/></g></g><g clip-path="url(#6926424b0d)"><g clip-path="url(#42fb01eda7)"><g transform="matrix(1, 0, 0, 1, 203, 237)"><g clip-path="url(#524bef1a18)"><g clip-path="url(#4687f9ecd8)"><g clip-path="url(#6c93b52fcc)"><path fill="#000000" d="M 0.402344 0.0859375 L 8.59375 0.0859375 L 8.59375 8.277344 L 0.402344 8.277344 Z M 0.402344 0.0859375 " fill-opacity="1" fill-rule="nonzero"/></g></g></g></g></g></g><g clip-path="url(#af8d8863d1)"><g clip-path="url(#b9fac2f9ff)"><g transform="matrix(1, 0, 0, 1, 161, 116)"><g clip-path="url(#bb30d6251a)"><g clip-path="url(#97c2b11b0f)"><g clip-path="url(#b1c81d10f4)"><path fill="#d9d9d9" d="M 0.789062 0.09375 L 58.171875 0.09375 L 58.171875 57.03125 L 0.789062 57.03125 Z M 0.789062 0.09375 " fill-opacity="1" fill-rule="nonzero"/></g></g></g></g></g></g><g clip-path="url(#501989485a)"><g clip-path="url(#52de8bc924)"><path stroke-linecap="butt" transform="matrix(0.75, 0, 0, 0.75, 161.788412, 116.09718)" fill="none" stroke-linejoin="miter" d="M 76.438377 5.000636 L 76.438377 70.912103 C 76.438377 73.67252 74.198793 75.912104 71.438376 75.912104 L 5.000868 75.912104 C 2.240451 75.912104 0.000866966 73.67252 0.000866966 70.912103 L 0.000866966 5.000636 C 0.000866966 2.240219 2.240451 0.000635565 5.000868 0.000635565 L 71.438376 0.000635565 C 74.198793 0.000635565 76.438377 2.240219 76.438377 5.000636 Z M 76.438377 5.000636 " stroke="#000000" stroke-width="8" stroke-opacity="1" stroke-miterlimit="4"/></g></g><g clip-path="url(#af859188cf)"><g clip-path="url(#310a9adcbd)"><g transform="matrix(1, 0, 0, 1, 239, 116)"><g clip-path="url(#1284a0f77d)"><g clip-path="url(#78ef9eb0c2)"><g clip-path="url(#c6a9b8303a)"><path fill="#d9d9d9" d="M 0.644531 0.09375 L 58.027344 0.09375 L 58.027344 57.03125 L 0.644531 57.03125 Z M 0.644531 0.09375 " fill-opacity="1" fill-rule="nonzero"/></g></g></g></g></g></g><g clip-path="url(#38278c7550)"><g clip-path="url(#cc780405af)"><path stroke-linecap="butt" transform="matrix(0.75, 0, 0, 0.75, 239.643754, 116.09718)" fill="none" stroke-linejoin="miter" d="M 76.438546 5.000636 L 76.438546 70.912103 C 76.438546 73.67252 74.198962 75.912104 71.438545 75.912104 L 5.001036 75.912104 C 2.240619 75.912104 0.00103585 73.67252 0.00103585 70.912103 L 0.00103585 5.000636 C 0.00103585 2.240219 2.240619 0.000635565 5.001036 0.000635565 L 71.438545 0.000635565 C 74.198962 0.000635565 76.438546 2.240219 76.438546 5.000636 Z M 76.438546 5.000636 " stroke="#000000" stroke-width="8" stroke-opacity="1" stroke-miterlimit="4"/></g></g><g clip-path="url(#58d7e344d1)"><g clip-path="url(#06993c5275)"><g transform="matrix(1, 0, 0, 1, 84, 116)"><g clip-path="url(#4968548753)"><g clip-path="url(#ff8df5ba23)"><g clip-path="url(#a89f7be107)"><path fill="#d9d9d9" d="M 0.0546875 0.09375 L 57.4375 0.09375 L 57.4375 57.03125 L 0.0546875 57.03125 Z M 0.0546875 0.09375 " fill-opacity="1" fill-rule="nonzero"/></g></g></g></g></g></g><g clip-path="url(#4791954075)"><g clip-path="url(#5c30395539)"><path stroke-linecap="butt" transform="matrix(0.75, 0, 0, 0.75, 84.053692, 116.09718)" fill="none" stroke-linejoin="miter" d="M 76.438838 5.000636 L 76.438838 70.912103 C 76.438838 73.67252 74.199254 75.912104 71.438837 75.912104 L 5.001328 75.912104 C 2.240911 75.912104 0.00132763 73.67252 0.00132763 70.912103 L 0.00132763 5.000636 C 0.00132763 2.240219 2.240911 0.000635565 5.001328 0.000635565 L 71.438837 0.000635565 C 74.199254 0.000635565 76.438838 2.240219 76.438838 5.000636 Z M 76.438838 5.000636 " stroke="#000000" stroke-width="8" stroke-opacity="1" stroke-miterlimit="4"/></g></g><g clip-path="url(#465205f5be)"><g clip-path="url(#727e924359)"><g transform="matrix(1, 0, 0, 1, 84, 189)"><g clip-path="url(#0602c03ae9)"><g clip-path="url(#f043b3282b)"><g clip-path="url(#0b49e0e346)"><path fill="#d9d9d9" d="M 0.0546875 0.375 L 57.4375 0.375 L 57.4375 57.3125 L 0.0546875 57.3125 Z M 0.0546875 0.375 " fill-opacity="1" fill-rule="nonzero"/></g></g></g></g></g></g><g clip-path="url(#2c718f46f0)"><g clip-path="url(#3735cc0027)"><path stroke-linecap="butt" transform="matrix(0.75, 0, 0, 0.75, 84.053692, 189.377551)" fill="none" stroke-linejoin="miter" d="M 76.438838 5.001808 L 76.438838 70.913275 C 76.438838 73.673692 74.199254 75.913275 71.438837 75.913275 L 5.001328 75.913275 C 2.240911 75.913275 0.00132763 73.673692 0.00132763 70.913275 L 0.00132763 5.001808 C 0.00132763 2.236183 2.240911 0.00180731 5.001328 0.00180731 L 71.438837 0.00180731 C 74.199254 0.00180731 76.438838 2.236183 76.438838 5.001808 Z M 76.438838 5.001808 " stroke="#000000" stroke-width="8" stroke-opacity="1" stroke-miterlimit="4"/></g></g><g clip-path="url(#8133bdf10c)"><g clip-path="url(#439b14f6ed)"><g transform="matrix(1, 0, 0, 1, 239, 189)"><g clip-path="url(#d30b792d2b)"><g clip-path="url(#1162aaf3fd)"><g clip-path="url(#8955d26a2c)"><path fill="#d9d9d9" d="M 0.644531 0.375 L 58.027344 0.375 L 58.027344 57.3125 L 0.644531 57.3125 Z M 0.644531 0.375 " fill-opacity="1" fill-rule="nonzero"/></g></g></g></g></g></g><g clip-path="url(#868a0664d6)"><g clip-path="url(#1a0d5f10a2)"><path stroke-linecap="butt" transform="matrix(0.75, 0, 0, 0.75, 239.643754, 189.377551)" fill="none" stroke-linejoin="miter" d="M 76.438546 5.001808 L 76.438546 70.913275 C 76.438546 73.673692 74.198962 75.913275 71.438545 75.913275 L 5.001036 75.913275 C 2.240619 75.913275 0.00103585 73.673692 0.00103585 70.913275 L 0.00103585 5.001808 C 0.00103585 2.236183 2.240619 0.00180731 5.001036 0.00180731 L 71.438545 0.00180731 C 74.198962 0.00180731 76.438546 2.236183 76.438546 5.001808 Z M 76.438546 5.001808 " stroke="#000000" stroke-width="8" stroke-opacity="1" stroke-miterlimit="4"/></g></g><path stroke-linecap="butt" transform="matrix(0.75, 0.00000000000000058, -0.00000000000000058, 0.75, 85.172401, 143.064058)" fill="none" stroke-linejoin="miter" d="M -0.000701743 1.997923 L 73.462845 1.997923 " stroke="#000000" stroke-width="4" stroke-opacity="1" stroke-miterlimit="4"/><path stroke-linecap="butt" transform="matrix(0.000000001309, -0.75, 0.75, 0.000000001309, 111.217322, 172.108978)" fill="none" stroke-linejoin="miter" d="M -0.000528932 2.001904 L 73.463018 2.001904 " stroke="#000000" stroke-width="4" stroke-opacity="1" stroke-miterlimit="4"/><path stroke-linecap="butt" transform="matrix(0.75, 0.00000000000000058, -0.00000000000000058, 0.75, 162.907127, 143.064058)" fill="none" stroke-linejoin="miter" d="M -0.0011688 1.997923 L 73.462378 1.997923 " stroke="#000000" stroke-width="4" stroke-opacity="1" stroke-miterlimit="4"/><path stroke-linecap="butt" transform="matrix(0.000000001309, -0.75, 0.75, 0.000000001309, 188.952047, 172.108978)" fill="none" stroke-linejoin="miter" d="M -0.000528932 2.001437 L 73.463018 2.001437 " stroke="#000000" stroke-width="4" stroke-opacity="1" stroke-miterlimit="4"/><path stroke-linecap="butt" transform="matrix(0.75, 0.00000000000000058, -0.00000000000000058, 0.75, 241.881171, 143.064058)" fill="none" stroke-linejoin="miter" d="M 0.00218864 1.997923 L 73.465735 1.997923 " stroke="#000000" stroke-width="4" stroke-opacity="1" stroke-miterlimit="4"/><path stroke-linecap="butt" transform="matrix(0.000000001309, -0.75, 0.75, 0.000000001309, 267.926089, 172.108978)" fill="none" stroke-linejoin="miter" d="M -0.000528932 1.999589 L 73.463018 1.999589 " stroke="#000000" stroke-width="4" stroke-opacity="1" stroke-miterlimit="4"/><path stroke-linecap="butt" transform="matrix(0.75, 0, 0, 0.75, 85.172401, 216.344429)" fill="none" stroke-linejoin="miter" d="M -0.000701743 1.999095 L 73.462845 1.999095 " stroke="#000000" stroke-width="4" stroke-opacity="1" stroke-miterlimit="4"/><path stroke-linecap="butt" transform="matrix(0.000000001309, -0.75, 0.75, 0.000000001309, 111.217322, 245.389349)" fill="none" stroke-linejoin="miter" d="M -0.00170068 2.001904 L 73.461846 2.001904 " stroke="#000000" stroke-width="4" stroke-opacity="1" stroke-miterlimit="4"/><path stroke-linecap="butt" transform="matrix(0.75, 0, 0, 0.75, 240.762469, 216.344429)" fill="none" stroke-linejoin="miter" d="M -0.00099992 1.999095 L 73.462547 1.999095 " stroke="#000000" stroke-width="4" stroke-opacity="1" stroke-miterlimit="4"/><path stroke-linecap="butt" transform="matrix(0, -0.75, 0.75, 0, 266.807389, 245.389349)" fill="none" stroke-linejoin="miter" d="M -0.00170069 2.001606 L 73.461846 2.001606 " stroke="#000000" stroke-width="4" stroke-opacity="1" stroke-miterlimit="4"/><g clip-path="url(#34e661f1e2)"><g clip-path="url(#4df1f8edb8)"><g transform="matrix(1, 0, 0, 1, 172, 198)"><g clip-path="url(#81a4b01570)"><g clip-path="url(#17d78284c3)"><g clip-path="url(#580dc6dab4)"><path fill="#d9d9d9" d="M 0.929688 0.652344 L 36.09375 0.652344 L 36.09375 19.84375 L 0.929688 19.84375 Z M 0.929688 0.652344 " fill-opacity="1" fill-rule="nonzero"/></g></g></g></g></g></g><g clip-path="url(#86d659b49c)"><g clip-path="url(#ff079dac0c)"><path stroke-linecap="butt" transform="matrix(0.75, 0, 0, 0.75, 172.939241, 198.650656)" fill="none" stroke-linejoin="miter" d="M 9.992471 0.00225066 L 36.872681 0.00225066 C 39.523723 0.00225066 42.06539 1.054334 43.94039 2.929334 C 45.81539 4.804334 46.867473 7.346001 46.867473 9.997043 L 46.867473 15.585585 C 46.867473 18.236627 45.81539 20.778294 43.94039 22.653294 C 42.06539 24.523086 39.523723 25.580377 36.872681 25.580377 L 9.992471 25.580377 C 7.341429 25.580377 4.799762 24.523086 2.92997 22.653294 C 1.05497 20.778294 -0.00232153 18.236627 -0.00232153 15.585585 L -0.00232153 9.997043 C -0.00232153 7.346001 1.05497 4.804334 2.92997 2.929334 C 4.799762 1.054334 7.341429 0.00225066 9.992471 0.00225066 Z M 9.992471 0.00225066 " stroke="#000000" stroke-width="8" stroke-opacity="1" stroke-miterlimit="4"/></g></g><path stroke-linecap="round" transform="matrix(0.75, 0, 0, 0.75, 181.387536, 239.68094)" fill="none" stroke-linejoin="miter" d="M 1.998911 1.99833 L 22.181204 1.99833 " stroke="#000000" stroke-width="4" stroke-opacity="1" stroke-miterlimit="4"/><g fill="#000000" fill-opacity="1"><g transform="translate(133.17187, 335.051551)"><g><path d="M 23.3125 0 L 17.84375 0 L 17.84375 -10.671875 L 17.8125 -10.671875 L 17.8125 -10.796875 C 17.8125 -12.253906 17.289062 -13.5 16.25 -14.53125 C 15.21875 -15.570312 13.957031 -16.09375 12.46875 -16.09375 C 11.019531 -16.09375 9.757812 -15.554688 8.6875 -14.484375 C 7.625 -13.421875 7.125 -12.160156 7.1875 -10.703125 L 7.1875 -10.671875 L 7.140625 -10.671875 L 7.140625 0 L 1.265625 0 L 1.265625 -27.296875 L 7.140625 -27.296875 L 7.140625 -18.90625 C 8.453125 -20.46875 10.21875 -21.347656 12.4375 -21.546875 C 15.507812 -21.796875 18.054688 -21 20.078125 -19.15625 C 22.234375 -17.164062 23.3125 -14.378906 23.3125 -10.796875 Z M 23.3125 0 "/></g></g></g><g fill="#000000" fill-opacity="1"><g transform="translate(157.741865, 335.051551)"><g><path d="M 11.21875 -21.625 C 14.207031 -21.65625 16.753906 -20.617188 18.859375 -18.515625 C 20.984375 -16.390625 22.046875 -13.84375 22.046875 -10.875 C 22.078125 -7.882812 21.039062 -5.335938 18.9375 -3.234375 C 16.84375 -1.109375 14.3125 -0.03125 11.34375 0 C 8.34375 0.03125 5.78125 -1.003906 3.65625 -3.109375 C 1.53125 -5.210938 0.46875 -7.757812 0.46875 -10.75 C 0.4375 -13.75 1.46875 -16.296875 3.5625 -18.390625 C 5.664062 -20.523438 8.21875 -21.601562 11.21875 -21.625 Z M 15.03125 -7.0625 C 16.070312 -8.09375 16.59375 -9.351562 16.59375 -10.84375 C 16.59375 -12.289062 16.0625 -13.546875 15 -14.609375 C 13.925781 -15.617188 12.664062 -16.125 11.21875 -16.125 C 9.757812 -16.125 8.507812 -15.609375 7.46875 -14.578125 C 6.4375 -13.484375 5.921875 -12.222656 5.921875 -10.796875 C 5.921875 -9.335938 6.453125 -8.078125 7.515625 -7.015625 C 8.554688 -5.972656 9.816406 -5.453125 11.296875 -5.453125 C 12.804688 -5.515625 14.050781 -6.050781 15.03125 -7.0625 Z M 15.03125 -7.0625 "/></g></g></g><g fill="#000000" fill-opacity="1"><g transform="translate(180.253857, 335.051551)"><g><path d="M 27.71875 -21.671875 C 30.632812 -21.703125 33 -20.832031 34.8125 -19.0625 C 36.78125 -17.21875 37.765625 -14.628906 37.765625 -11.296875 L 37.765625 0 L 32.296875 0 L 32.296875 -10.921875 C 32.296875 -11.335938 32.226562 -11.8125 32.09375 -12.34375 C 31.894531 -12.988281 31.628906 -13.5625 31.296875 -14.0625 C 30.398438 -15.5 29.082031 -16.21875 27.34375 -16.21875 C 25.488281 -16.21875 24.144531 -15.5 23.3125 -14.0625 C 23 -13.53125 22.773438 -12.929688 22.640625 -12.265625 C 22.523438 -11.785156 22.46875 -11.3125 22.46875 -10.84375 L 22.46875 0 L 16.96875 0 L 16.96875 -10.921875 C 16.96875 -11.335938 16.898438 -11.8125 16.765625 -12.34375 C 16.585938 -12.988281 16.332031 -13.5625 16 -14.0625 C 15.070312 -15.5 13.753906 -16.21875 12.046875 -16.21875 C 10.171875 -16.21875 8.816406 -15.5 7.984375 -14.0625 C 7.671875 -13.53125 7.445312 -12.929688 7.3125 -12.265625 C 7.195312 -11.785156 7.140625 -11.3125 7.140625 -10.84375 L 7.140625 0 L 1.265625 0 L 1.265625 -21.71875 L 7.140625 -21.71875 L 7.140625 -19.453125 C 8.515625 -20.929688 10.28125 -21.671875 12.4375 -21.671875 C 15.59375 -21.722656 18.15625 -20.503906 20.125 -18.015625 L 21.875 -19.65625 C 23.53125 -21 25.476562 -21.671875 27.71875 -21.671875 Z M 27.71875 -21.671875 "/></g></g><g transform="translate(219.271854, 335.051551)"><g><path d="M 22.09375 -9.875 C 22.125 -9.28125 22.125 -8.925781 22.09375 -8.8125 L 6.296875 -8.859375 C 6.523438 -8.210938 6.929688 -7.597656 7.515625 -7.015625 C 8.609375 -5.972656 9.867188 -5.453125 11.296875 -5.453125 C 12.804688 -5.515625 14.066406 -6.050781 15.078125 -7.0625 L 15.25 -7.21875 L 20.703125 -5.5 C 19.503906 -3.625 18.242188 -2.28125 16.921875 -1.46875 C 15.441406 -0.519531 13.582031 -0.03125 11.34375 0 C 8.375 0.03125 5.828125 -1.003906 3.703125 -3.109375 C 1.566406 -5.210938 0.488281 -7.757812 0.46875 -10.75 C 0.4375 -13.71875 1.46875 -16.265625 3.5625 -18.390625 C 5.664062 -20.523438 8.21875 -21.601562 11.21875 -21.625 C 14.1875 -21.65625 16.734375 -20.617188 18.859375 -18.515625 C 20.984375 -16.421875 22.0625 -13.875 22.09375 -10.875 Z M 11.25 -16.125 C 9.769531 -16.125 8.507812 -15.609375 7.46875 -14.578125 C 6.9375 -13.984375 6.5625 -13.394531 6.34375 -12.8125 L 16.21875 -12.8125 C 15.988281 -13.394531 15.59375 -13.992188 15.03125 -14.609375 C 13.96875 -15.617188 12.707031 -16.125 11.25 -16.125 Z M 11.25 -16.125 "/></g></g></g></svg>