<svg xmlns="http://www.w3.org/2000/svg" xmlns:xlink="http://www.w3.org/1999/xlink" width="500" zoomAndPan="magnify" viewBox="0 0 375 374.999991" height="500" preserveAspectRatio="xMidYMid meet" version="1.0"><defs><filter x="0%" y="0%" width="100%" height="100%" id="d37e06ccdf"><feColorMatrix values="0 0 0 0 1 0 0 0 0 1 0 0 0 0 1 0 0 0 1 0" color-interpolation-filters="sRGB"/></filter><g/><mask id="27e2f06109"><g filter="url(#d37e06ccdf)"><rect x="-37.5" width="450" fill="#000000" y="-37.499999" height="449.999989" fill-opacity="0.43"/></g></mask><clipPath id="e95c925990"><path d="M 3.308594 2 L 333.675781 2 L 333.675781 217 L 3.308594 217 Z M 3.308594 2 " clip-rule="nonzero"/></clipPath><clipPath id="5f9be728ad"><path d="M 3.746094 71.65625 C 3.746094 71.605469 4.152344 69.996094 4.394531 69.167969 C 4.636719 68.339844 4.800781 67.820312 5.042969 66.730469 C 5.449219 64.5 4.960938 60.558594 6.179688 56.667969 C 8.042969 51.015625 13.800781 42.199219 17.535156 36.285156 C 20.535156 31.671875 26.453125 24.460938 26.535156 24.097656 C 26.535156 24.046875 26.535156 24.046875 26.535156 24.046875 C 26.535156 24.046875 26.535156 24.046875 26.535156 23.996094 C 26.859375 23.734375 30.265625 19.898438 29.941406 19.378906 C 29.859375 19.273438 29.375 19.222656 29.375 19.222656 C 29.375 19.222656 31.15625 20.3125 32.535156 20.15625 C 36.589844 19.742188 44.214844 9.421875 52.972656 7.035156 C 62.949219 4.339844 83.144531 5.167969 90.523438 6.621094 C 94.011719 7.292969 94.984375 9.785156 97.417969 9.730469 C 100.335938 9.628906 102.121094 5.945312 106.742188 4.753906 C 115.339844 2.472656 135.695312 1.328125 148.753906 2.574219 C 160.753906 3.820312 177.460938 7.191406 182.328125 11.390625 C 185.570312 14.089844 182.652344 20.625 184.03125 21.140625 C 184.4375 21.347656 184.761719 20.933594 185.652344 20.832031 C 189.789062 20.363281 214.6875 17.769531 221.578125 20 C 225.632812 21.296875 224.824219 25.863281 228.472656 26.535156 C 234.148438 27.574219 245.421875 19.066406 255.640625 18.757812 C 268.128906 18.394531 291.648438 21.710938 298.382812 28.144531 C 305.191406 34.730469 299.273438 51.429688 295.300781 58.226562 C 292.945312 62.320312 284.1875 65.382812 285.082031 66.988281 C 285.890625 68.234375 292.460938 66.472656 295.378906 68.285156 C 302.03125 72.382812 300.976562 96.398438 307.546875 101.6875 C 310.707031 104.28125 316.222656 102.777344 318.898438 105.316406 C 323.925781 109.984375 324.902344 128.1875 322.792969 133.117188 C 321.980469 135.140625 318.089844 136.332031 318.574219 136.953125 C 319.0625 137.578125 323.441406 135.96875 325.304688 136.953125 C 329.847656 139.289062 334.714844 152.980469 333.171875 160.605469 C 331.632812 168.28125 319.792969 176.683594 315.898438 182.75 C 313.304688 186.796875 309.976562 190.167969 310.546875 193.175781 C 311.113281 195.664062 316.546875 199.085938 317.113281 199.710938 C 317.277344 199.8125 317.359375 199.8125 317.359375 199.867188 C 317.277344 200.074219 315.898438 200.488281 314.601562 200.902344 C 311.601562 201.992188 302.03125 204.480469 299.273438 205.675781 C 298.136719 206.140625 297.164062 206.917969 297.164062 206.972656 C 297.082031 206.972656 294.894531 207.75 293.757812 208.164062 C 292.542969 208.578125 290.351562 209.355469 290.269531 209.355469 C 290.269531 209.410156 287.675781 209.824219 286.539062 210.03125 C 285.484375 210.1875 284.027344 210.445312 283.703125 210.496094 C 283.621094 210.550781 283.539062 210.550781 283.539062 210.550781 C 283.539062 210.550781 283.621094 210.550781 283.621094 210.496094 C 283.621094 210.496094 282.808594 210.652344 282.730469 210.652344 C 282.730469 210.652344 280.132812 210.707031 278.835938 210.707031 C 277.539062 210.757812 274.941406 210.757812 274.941406 210.757812 C 274.863281 210.757812 272.347656 210.394531 271.132812 210.238281 C 269.832031 210.03125 267.320312 209.71875 267.320312 209.667969 C 267.238281 209.667969 264.96875 208.941406 263.832031 208.578125 C 262.617188 208.214844 260.34375 207.488281 260.265625 207.4375 C 260.265625 207.4375 258.316406 206.398438 257.34375 205.828125 C 256.289062 205.3125 254.34375 204.222656 254.34375 204.222656 C 254.261719 204.171875 252.804688 202.875 252.074219 202.199219 C 251.261719 201.523438 249.800781 200.175781 249.722656 200.175781 C 249.722656 200.125 248.746094 198.621094 248.261719 197.84375 C 247.773438 197.066406 246.800781 195.5625 246.800781 195.507812 C 246.800781 195.507812 246.476562 193.902344 246.234375 193.070312 C 246.070312 192.242188 245.746094 190.632812 245.746094 190.582031 C 245.746094 190.53125 245.992188 188.820312 246.070312 188.09375 C 246.234375 187.523438 246.882812 187.054688 246.316406 186.589844 C 244.125 184.667969 214.847656 185.757812 209.65625 181.921875 C 206.007812 179.277344 210.710938 171.339844 208.683594 170.71875 C 207.386719 170.304688 205.441406 172.222656 202.601562 173.464844 C 196.359375 176.214844 182.246094 182.386719 172.109375 186.640625 C 162.132812 190.839844 152.160156 196.027344 142.425781 198.828125 C 134.15625 201.214844 122.070312 201.992188 118.097656 203.289062 C 116.636719 203.703125 115.5 204.535156 115.421875 204.535156 C 115.421875 204.535156 113.070312 205.207031 111.851562 205.519531 C 110.636719 205.828125 108.285156 206.503906 108.203125 206.503906 C 108.203125 206.503906 105.6875 206.761719 104.390625 206.917969 C 103.09375 207.023438 100.578125 207.28125 100.5 207.28125 C 100.5 207.28125 97.417969 207.074219 96.929688 207.125 C 96.765625 207.125 96.6875 207.179688 96.6875 207.179688 C 96.6875 207.179688 96.847656 207.125 96.847656 207.125 C 96.847656 207.125 96.765625 207.125 96.605469 207.125 C 96.117188 207.074219 92.792969 206.917969 92.710938 206.917969 C 92.632812 206.917969 89.875 206.296875 88.980469 206.089844 C 88.496094 205.984375 88.496094 205.828125 87.847656 205.882812 C 83.871094 205.933594 47.132812 216.824219 46.730469 216.460938 C 46.648438 216.359375 47.703125 215.996094 47.621094 215.945312 C 47.539062 215.839844 46.484375 216.046875 45.835938 216.152344 C 44.78125 216.253906 42.023438 216.566406 41.945312 216.566406 C 41.863281 216.566406 39.347656 216.460938 38.050781 216.410156 C 36.753906 216.359375 34.238281 216.253906 34.160156 216.253906 C 34.078125 216.253906 31.644531 215.789062 30.429688 215.527344 C 29.210938 215.269531 26.699219 214.800781 26.699219 214.75 C 26.617188 214.75 24.425781 213.921875 23.371094 213.453125 C 22.238281 213.039062 20.046875 212.210938 19.964844 212.15625 C 19.964844 212.15625 18.183594 211.015625 17.207031 210.394531 C 16.316406 209.824219 14.53125 208.683594 14.453125 208.628906 C 14.453125 208.628906 13.152344 207.179688 12.503906 206.503906 C 11.773438 205.777344 10.476562 204.378906 10.476562 204.324219 C 10.394531 204.324219 9.667969 202.769531 9.261719 201.941406 C 8.9375 201.160156 8.125 199.605469 8.125 199.554688 C 8.125 199.554688 7.964844 197.894531 7.882812 197.066406 C 7.882812 196.234375 7.71875 194.628906 7.71875 194.574219 C 7.71875 194.523438 8.207031 192.914062 8.367188 192.136719 C 8.613281 191.308594 9.019531 190.21875 9.097656 189.648438 C 9.179688 189.390625 9.019531 189.335938 9.179688 188.972656 C 9.910156 187.675781 18.019531 181.089844 18.019531 180.054688 C 18.019531 179.847656 17.859375 179.847656 17.613281 179.691406 C 17.207031 179.277344 15.503906 177.617188 15.503906 177.617188 C 15.503906 177.5625 14.613281 176.007812 14.207031 175.230469 C 13.800781 174.503906 13.152344 173.105469 13.074219 173.050781 C 12.992188 173.050781 12.992188 173.15625 12.992188 173.15625 C 12.992188 173.15625 12.992188 173.050781 12.992188 173.050781 C 12.992188 173 12.910156 172.894531 12.910156 172.894531 C 12.910156 172.84375 12.667969 171.238281 12.585938 170.40625 C 12.425781 169.578125 12.179688 167.917969 12.179688 167.917969 C 12.179688 167.867188 12.585938 166.257812 12.75 165.429688 C 12.992188 164.597656 13.316406 162.988281 13.316406 162.9375 C 13.316406 162.9375 14.53125 161.125 14.855469 160.65625 C 15.019531 160.398438 15.019531 160.398438 15.179688 160.085938 C 15.992188 158.113281 15.425781 146.1875 18.667969 139.238281 C 22.316406 131.351562 35.132812 118.179688 37.644531 115.484375 C 38.132812 114.914062 38.699219 115.015625 38.699219 114.496094 C 38.699219 112.265625 20.371094 101.789062 19.640625 97.484375 C 19.15625 95.152344 23.617188 92.09375 23.371094 91.730469 C 23.292969 91.675781 23.128906 91.675781 23.128906 91.675781 C 23.046875 91.675781 20.859375 90.847656 19.722656 90.433594 C 18.585938 90.015625 16.398438 89.1875 16.398438 89.136719 C 16.316406 89.136719 14.53125 87.996094 13.558594 87.371094 C 12.667969 86.800781 10.800781 85.660156 10.800781 85.660156 C 10.722656 85.609375 9.421875 84.207031 8.695312 83.535156 C 8.042969 82.808594 6.664062 81.40625 6.664062 81.40625 C 6.664062 81.355469 5.855469 79.800781 5.449219 79.023438 C 5.042969 78.191406 4.3125 76.6875 4.234375 76.636719 C 4.234375 76.585938 4.070312 74.976562 3.988281 74.148438 C 3.910156 73.316406 3.746094 71.65625 3.746094 71.65625 M 112.90625 47.125 C 112.988281 47.125 112.988281 47.074219 112.988281 47.074219 C 112.988281 47.074219 112.988281 47.074219 112.90625 47.074219 C 112.90625 47.125 112.90625 47.125 112.90625 47.125 " clip-rule="nonzero"/></clipPath><mask id="352099fcb0"><g filter="url(#d37e06ccdf)"><rect x="-101.5" width="540" fill="#000000" y="-119.499998" height="539.999987" fill-opacity="0.5"/></g></mask><clipPath id="42c2be7425"><path d="M 0.558594 0 L 330.675781 0 L 330.675781 214.921875 L 0.558594 214.921875 Z M 0.558594 0 " clip-rule="nonzero"/></clipPath><clipPath id="f28eb14a05"><path d="M 0.746094 69.65625 C 0.746094 69.605469 1.152344 67.996094 1.394531 67.167969 C 1.636719 66.339844 1.800781 65.820312 2.042969 64.730469 C 2.449219 62.5 1.960938 58.558594 3.179688 54.667969 C 5.042969 49.015625 10.800781 40.199219 14.535156 34.285156 C 17.535156 29.671875 23.453125 22.460938 23.535156 22.097656 C 23.535156 22.046875 23.535156 22.046875 23.535156 22.046875 C 23.535156 22.046875 23.535156 22.046875 23.535156 21.996094 C 23.859375 21.734375 27.265625 17.898438 26.941406 17.378906 C 26.859375 17.273438 26.375 17.222656 26.375 17.222656 C 26.375 17.222656 28.15625 18.3125 29.535156 18.15625 C 33.589844 17.742188 41.214844 7.421875 49.972656 5.035156 C 59.949219 2.339844 80.144531 3.167969 87.523438 4.621094 C 91.011719 5.292969 91.984375 7.785156 94.417969 7.730469 C 97.335938 7.628906 99.121094 3.945312 103.742188 2.753906 C 112.339844 0.472656 132.695312 -0.671875 145.753906 0.574219 C 157.753906 1.820312 174.460938 5.191406 179.328125 9.390625 C 182.570312 12.089844 179.652344 18.625 181.03125 19.140625 C 181.4375 19.347656 181.761719 18.933594 182.652344 18.832031 C 186.789062 18.363281 211.6875 15.769531 218.578125 18 C 222.632812 19.296875 221.824219 23.863281 225.472656 24.535156 C 231.148438 25.574219 242.421875 17.066406 252.640625 16.757812 C 265.128906 16.394531 288.648438 19.710938 295.382812 26.144531 C 302.191406 32.730469 296.273438 49.429688 292.300781 56.226562 C 289.945312 60.320312 281.1875 63.382812 282.082031 64.988281 C 282.890625 66.234375 289.460938 64.472656 292.378906 66.285156 C 299.03125 70.382812 297.976562 94.398438 304.546875 99.6875 C 307.707031 102.28125 313.222656 100.777344 315.898438 103.316406 C 320.925781 107.984375 321.902344 126.1875 319.792969 131.117188 C 318.980469 133.140625 315.089844 134.332031 315.574219 134.953125 C 316.0625 135.578125 320.441406 133.96875 322.304688 134.953125 C 326.847656 137.289062 331.714844 150.980469 330.171875 158.605469 C 328.632812 166.28125 316.792969 174.683594 312.898438 180.75 C 310.304688 184.796875 306.976562 188.167969 307.546875 191.175781 C 308.113281 193.664062 313.546875 197.085938 314.113281 197.710938 C 314.277344 197.8125 314.359375 197.8125 314.359375 197.867188 C 314.277344 198.074219 312.898438 198.488281 311.601562 198.902344 C 308.601562 199.992188 299.03125 202.480469 296.273438 203.675781 C 295.136719 204.140625 294.164062 204.917969 294.164062 204.972656 C 294.082031 204.972656 291.894531 205.75 290.757812 206.164062 C 289.542969 206.578125 287.351562 207.355469 287.269531 207.355469 C 287.269531 207.410156 284.675781 207.824219 283.539062 208.03125 C 282.484375 208.1875 281.027344 208.445312 280.703125 208.496094 C 280.621094 208.550781 280.539062 208.550781 280.539062 208.550781 C 280.539062 208.550781 280.621094 208.550781 280.621094 208.496094 C 280.621094 208.496094 279.808594 208.652344 279.730469 208.652344 C 279.730469 208.652344 277.132812 208.707031 275.835938 208.707031 C 274.539062 208.757812 271.941406 208.757812 271.941406 208.757812 C 271.863281 208.757812 269.347656 208.394531 268.132812 208.238281 C 266.832031 208.03125 264.320312 207.71875 264.320312 207.667969 C 264.238281 207.667969 261.96875 206.941406 260.832031 206.578125 C 259.617188 206.214844 257.34375 205.488281 257.265625 205.4375 C 257.265625 205.4375 255.316406 204.398438 254.34375 203.828125 C 253.289062 203.3125 251.34375 202.222656 251.34375 202.222656 C 251.261719 202.171875 249.804688 200.875 249.074219 200.199219 C 248.261719 199.523438 246.800781 198.175781 246.722656 198.175781 C 246.722656 198.125 245.746094 196.621094 245.261719 195.84375 C 244.773438 195.066406 243.800781 193.5625 243.800781 193.507812 C 243.800781 193.507812 243.476562 191.902344 243.234375 191.070312 C 243.070312 190.242188 242.746094 188.632812 242.746094 188.582031 C 242.746094 188.53125 242.992188 186.820312 243.070312 186.09375 C 243.234375 185.523438 243.882812 185.054688 243.316406 184.589844 C 241.125 182.667969 211.847656 183.757812 206.65625 179.921875 C 203.007812 177.277344 207.710938 169.339844 205.683594 168.71875 C 204.386719 168.304688 202.441406 170.222656 199.601562 171.464844 C 193.359375 174.214844 179.246094 180.386719 169.109375 184.640625 C 159.132812 188.839844 149.160156 194.027344 139.425781 196.828125 C 131.15625 199.214844 119.070312 199.992188 115.097656 201.289062 C 113.636719 201.703125 112.5 202.535156 112.421875 202.535156 C 112.421875 202.535156 110.070312 203.207031 108.851562 203.519531 C 107.636719 203.828125 105.285156 204.503906 105.203125 204.503906 C 105.203125 204.503906 102.6875 204.761719 101.390625 204.917969 C 100.09375 205.023438 97.578125 205.28125 97.5 205.28125 C 97.5 205.28125 94.417969 205.074219 93.929688 205.125 C 93.765625 205.125 93.6875 205.179688 93.6875 205.179688 C 93.6875 205.179688 93.847656 205.125 93.847656 205.125 C 93.847656 205.125 93.765625 205.125 93.605469 205.125 C 93.117188 205.074219 89.792969 204.917969 89.710938 204.917969 C 89.632812 204.917969 86.875 204.296875 85.980469 204.089844 C 85.496094 203.984375 85.496094 203.828125 84.847656 203.882812 C 80.871094 203.933594 44.132812 214.824219 43.730469 214.460938 C 43.648438 214.359375 44.703125 213.996094 44.621094 213.945312 C 44.539062 213.839844 43.484375 214.046875 42.835938 214.152344 C 41.78125 214.253906 39.023438 214.566406 38.945312 214.566406 C 38.863281 214.566406 36.347656 214.460938 35.050781 214.410156 C 33.753906 214.359375 31.238281 214.253906 31.160156 214.253906 C 31.078125 214.253906 28.644531 213.789062 27.429688 213.527344 C 26.210938 213.269531 23.699219 212.800781 23.699219 212.75 C 23.617188 212.75 21.425781 211.921875 20.371094 211.453125 C 19.238281 211.039062 17.046875 210.210938 16.964844 210.15625 C 16.964844 210.15625 15.183594 209.015625 14.207031 208.394531 C 13.316406 207.824219 11.53125 206.683594 11.453125 206.628906 C 11.453125 206.628906 10.152344 205.179688 9.503906 204.503906 C 8.773438 203.777344 7.476562 202.378906 7.476562 202.324219 C 7.394531 202.324219 6.667969 200.769531 6.261719 199.941406 C 5.9375 199.160156 5.125 197.605469 5.125 197.554688 C 5.125 197.554688 4.964844 195.894531 4.882812 195.066406 C 4.882812 194.234375 4.71875 192.628906 4.71875 192.574219 C 4.71875 192.523438 5.207031 190.914062 5.367188 190.136719 C 5.613281 189.308594 6.019531 188.21875 6.097656 187.648438 C 6.179688 187.390625 6.019531 187.335938 6.179688 186.972656 C 6.910156 185.675781 15.019531 179.089844 15.019531 178.054688 C 15.019531 177.847656 14.859375 177.847656 14.613281 177.691406 C 14.207031 177.277344 12.503906 175.617188 12.503906 175.617188 C 12.503906 175.5625 11.613281 174.007812 11.207031 173.230469 C 10.800781 172.503906 10.152344 171.105469 10.074219 171.050781 C 9.992188 171.050781 9.992188 171.15625 9.992188 171.15625 C 9.992188 171.15625 9.992188 171.050781 9.992188 171.050781 C 9.992188 171 9.910156 170.894531 9.910156 170.894531 C 9.910156 170.84375 9.667969 169.238281 9.585938 168.40625 C 9.425781 167.578125 9.179688 165.917969 9.179688 165.917969 C 9.179688 165.867188 9.585938 164.257812 9.75 163.429688 C 9.992188 162.597656 10.316406 160.988281 10.316406 160.9375 C 10.316406 160.9375 11.53125 159.125 11.855469 158.65625 C 12.019531 158.398438 12.019531 158.398438 12.179688 158.085938 C 12.992188 156.113281 12.425781 144.1875 15.667969 137.238281 C 19.316406 129.351562 32.132812 116.179688 34.644531 113.484375 C 35.132812 112.914062 35.699219 113.015625 35.699219 112.496094 C 35.699219 110.265625 17.371094 99.789062 16.640625 95.484375 C 16.15625 93.152344 20.617188 90.09375 20.371094 89.730469 C 20.292969 89.675781 20.128906 89.675781 20.128906 89.675781 C 20.046875 89.675781 17.859375 88.847656 16.722656 88.433594 C 15.585938 88.015625 13.398438 87.1875 13.398438 87.136719 C 13.316406 87.136719 11.53125 85.996094 10.558594 85.371094 C 9.667969 84.800781 7.800781 83.660156 7.800781 83.660156 C 7.722656 83.609375 6.421875 82.207031 5.695312 81.535156 C 5.042969 80.808594 3.664062 79.40625 3.664062 79.40625 C 3.664062 79.355469 2.855469 77.800781 2.449219 77.023438 C 2.042969 76.191406 1.3125 74.6875 1.234375 74.636719 C 1.234375 74.585938 1.070312 72.976562 0.988281 72.148438 C 0.910156 71.316406 0.746094 69.65625 0.746094 69.65625 M 109.90625 45.125 C 109.988281 45.125 109.988281 45.074219 109.988281 45.074219 C 109.988281 45.074219 109.988281 45.074219 109.90625 45.074219 C 109.90625 45.125 109.90625 45.125 109.90625 45.125 " clip-rule="nonzero"/></clipPath><clipPath id="31dfd3e4b2"><rect x="0" width="331" y="0" height="215"/></clipPath><clipPath id="37a41ba564"><rect x="0" width="338" y="0" height="219"/></clipPath><clipPath id="c2dcb2268f"><path d="M 102.058594 46 L 272 46 L 272 282 L 102.058594 282 Z M 102.058594 46 " clip-rule="nonzero"/></clipPath><clipPath id="922185372a"><path d="M 159.746094 281.851562 L 214.433594 281.851562 C 226.976562 281.851562 237.675781 272.769531 239.707031 260.390625 L 271.335938 67.863281 C 272.214844 62.515625 270.699219 57.050781 267.191406 52.917969 C 263.679688 48.785156 258.535156 46.402344 253.113281 46.402344 L 121.066406 46.402344 C 115.644531 46.402344 110.496094 48.785156 106.988281 52.917969 C 103.480469 57.050781 101.964844 62.515625 102.84375 67.863281 L 134.46875 260.390625 C 136.503906 272.769531 147.203125 281.851562 159.746094 281.851562 Z M 159.746094 281.851562 " clip-rule="nonzero"/></clipPath><clipPath id="349976796c"><path d="M 0.0585938 0.320312 L 170 0.320312 L 170 236 L 0.0585938 236 Z M 0.0585938 0.320312 " clip-rule="nonzero"/></clipPath><clipPath id="a278a141a4"><path d="M 57.746094 235.851562 L 112.433594 235.851562 C 124.976562 235.851562 135.675781 226.769531 137.707031 214.390625 L 169.335938 21.863281 C 170.214844 16.515625 168.699219 11.050781 165.191406 6.917969 C 161.679688 2.785156 156.535156 0.402344 151.113281 0.402344 L 19.066406 0.402344 C 13.644531 0.402344 8.496094 2.785156 4.988281 6.917969 C 1.480469 11.050781 -0.0351562 16.515625 0.84375 21.863281 L 32.46875 214.390625 C 34.503906 226.769531 45.203125 235.851562 57.746094 235.851562 Z M 57.746094 235.851562 " clip-rule="nonzero"/></clipPath><clipPath id="9162a4e3a0"><rect x="0" width="170" y="0" height="236"/></clipPath><clipPath id="85fce1d1e7"><path d="M 102 46.40625 L 272 46.40625 L 272 281.902344 L 102 281.902344 Z M 102 46.40625 " clip-rule="nonzero"/></clipPath><clipPath id="5fd1a1d656"><path d="M 159.742188 281.839844 L 214.425781 281.839844 C 226.96875 281.839844 237.667969 272.757812 239.699219 260.378906 L 271.328125 67.867188 C 272.207031 62.515625 270.6875 57.050781 267.179688 52.917969 C 263.671875 48.785156 258.523438 46.40625 253.101562 46.40625 L 121.066406 46.40625 C 115.644531 46.40625 110.496094 48.785156 106.988281 52.917969 C 103.480469 57.050781 101.964844 62.515625 102.84375 67.867188 L 134.46875 260.378906 C 136.5 272.757812 147.199219 281.839844 159.742188 281.839844 Z M 159.742188 281.839844 " clip-rule="nonzero"/></clipPath><clipPath id="54e28db023"><path d="M 114 84.898438 L 260.121094 84.898438 L 260.121094 270.488281 L 114 270.488281 Z M 114 84.898438 " clip-rule="nonzero"/></clipPath><clipPath id="656cc73ec2"><path d="M 153.945312 270.265625 L 220.140625 270.265625 C 224.484375 270.265625 228.207031 267.160156 228.980469 262.886719 L 259.941406 92.277344 C 260.273438 90.453125 259.777344 88.570312 258.585938 87.148438 C 257.398438 85.722656 255.636719 84.898438 253.78125 84.898438 L 120.308594 84.898438 C 118.449219 84.898438 116.691406 85.722656 115.5 87.148438 C 114.3125 88.570312 113.816406 90.453125 114.144531 92.277344 L 145.105469 262.886719 C 145.882812 267.160156 149.601562 270.265625 153.945312 270.265625 Z M 153.945312 270.265625 " clip-rule="nonzero"/></clipPath><clipPath id="6e4a874729"><path d="M 0 0.898438 L 146.121094 0.898438 L 146.121094 186.480469 L 0 186.480469 Z M 0 0.898438 " clip-rule="nonzero"/></clipPath><clipPath id="c5eb11abec"><path d="M 39.945312 186.265625 L 106.140625 186.265625 C 110.484375 186.265625 114.207031 183.160156 114.980469 178.886719 L 145.941406 8.277344 C 146.273438 6.453125 145.777344 4.570312 144.585938 3.148438 C 143.398438 1.722656 141.636719 0.898438 139.78125 0.898438 L 6.308594 0.898438 C 4.449219 0.898438 2.691406 1.722656 1.5 3.148438 C 0.3125 4.570312 -0.183594 6.453125 0.144531 8.277344 L 31.105469 178.886719 C 31.882812 183.160156 35.601562 186.265625 39.945312 186.265625 Z M 39.945312 186.265625 " clip-rule="nonzero"/></clipPath><clipPath id="096a3f66f3"><rect x="0" width="147" y="0" height="187"/></clipPath><clipPath id="c1dcc38fc7"><path d="M 117.15625 271.804688 L 245.261719 271.804688 L 245.261719 304.699219 L 117.15625 304.699219 Z M 117.15625 271.804688 " clip-rule="nonzero"/></clipPath><clipPath id="b200416287"><path d="M 0.15625 0.804688 L 128.261719 0.804688 L 128.261719 33.699219 L 0.15625 33.699219 Z M 0.15625 0.804688 " clip-rule="nonzero"/></clipPath><clipPath id="1b65db8043"><rect x="0" width="129" y="0" height="34"/></clipPath><clipPath id="73a0de7386"><path d="M 125.25 92.878906 L 206.707031 92.878906 L 206.707031 262.417969 L 125.25 262.417969 Z M 125.25 92.878906 " clip-rule="nonzero"/></clipPath><clipPath id="4d4c6b494c"><path d="M 163.71875 262.289062 L 168.238281 262.289062 C 175.164062 262.289062 181.070312 257.28125 182.203125 250.449219 L 206.398438 104.714844 C 206.886719 101.765625 206.054688 98.753906 204.125 96.472656 C 202.191406 94.191406 199.351562 92.878906 196.363281 92.878906 L 135.59375 92.878906 C 132.605469 92.878906 129.765625 94.191406 127.832031 96.472656 C 125.902344 98.753906 125.070312 101.765625 125.558594 104.714844 L 149.753906 250.449219 C 150.886719 257.28125 156.792969 262.289062 163.71875 262.289062 Z M 163.71875 262.289062 " clip-rule="nonzero"/></clipPath><clipPath id="96ab23b3a0"><path d="M 0.25 0.878906 L 81.707031 0.878906 L 81.707031 170.320312 L 0.25 170.320312 Z M 0.25 0.878906 " clip-rule="nonzero"/></clipPath><clipPath id="ddb9081671"><path d="M 38.71875 170.289062 L 43.238281 170.289062 C 50.164062 170.289062 56.070312 165.28125 57.203125 158.449219 L 81.398438 12.714844 C 81.886719 9.765625 81.054688 6.753906 79.125 4.472656 C 77.191406 2.191406 74.351562 0.878906 71.363281 0.878906 L 10.59375 0.878906 C 7.605469 0.878906 4.765625 2.191406 2.832031 4.472656 C 0.902344 6.753906 0.0703125 9.765625 0.558594 12.714844 L 24.753906 158.449219 C 25.886719 165.28125 31.792969 170.289062 38.71875 170.289062 Z M 38.71875 170.289062 " clip-rule="nonzero"/></clipPath><clipPath id="154bd1cb60"><rect x="0" width="82" y="0" height="171"/></clipPath></defs><g mask="url(#27e2f06109)"><g transform="matrix(1, 0, 0, 1, 19, 37)"><g clip-path="url(#37a41ba564)"><g clip-path="url(#e95c925990)"><g clip-path="url(#5f9be728ad)"><g mask="url(#352099fcb0)"><g transform="matrix(1, 0, 0, 1, 3, 2)"><g clip-path="url(#31dfd3e4b2)"><g clip-path="url(#42c2be7425)"><g clip-path="url(#f28eb14a05)"><rect x="-158.5" width="648" fill="#8bcfdb" y="-175.499997" height="647.999984" fill-opacity="1"/></g></g></g></g></g></g></g></g></g></g><g clip-path="url(#c2dcb2268f)"><g clip-path="url(#922185372a)"><g transform="matrix(1, 0, 0, 1, 102, 46)"><g clip-path="url(#9162a4e3a0)"><g clip-path="url(#349976796c)"><g clip-path="url(#a278a141a4)"><path fill="#d9d9d9" d="M -2.683594 0.402344 L 172.863281 0.402344 L 172.863281 235.605469 L -2.683594 235.605469 Z M -2.683594 0.402344 " fill-opacity="1" fill-rule="nonzero"/></g></g></g></g></g></g><g clip-path="url(#85fce1d1e7)"><g clip-path="url(#5fd1a1d656)"><path stroke-linecap="butt" transform="matrix(0.75, 0, 0, 0.75, 99.316815, 46.404559)" fill="none" stroke-linejoin="miter" d="M 80.567169 313.913734 L 153.478632 313.913734 C 170.202591 313.913734 184.468217 301.804358 187.176551 285.299149 L 229.348429 28.61684 C 230.520304 21.481423 228.494262 14.194965 223.817178 8.684547 C 219.140095 3.17413 212.275511 0.00225526 205.046344 0.00225526 L 28.999457 0.00225526 C 21.77029 0.00225526 14.905706 3.17413 10.228623 8.684547 C 5.551539 14.194965 3.530706 21.481423 4.702581 28.61684 L 46.86925 285.299149 C 49.577584 301.804358 63.843209 313.913734 80.567169 313.913734 Z M 80.567169 313.913734 " stroke="#000000" stroke-width="8" stroke-opacity="1" stroke-miterlimit="4"/></g></g><g clip-path="url(#54e28db023)"><g clip-path="url(#656cc73ec2)"><g transform="matrix(1, 0, 0, 1, 114, 84)"><g clip-path="url(#096a3f66f3)"><g clip-path="url(#6e4a874729)"><g clip-path="url(#c5eb11abec)"><path fill="#ffffff" d="M -1.191406 0.898438 L 147.28125 0.898438 L 147.28125 186.488281 L -1.191406 186.488281 Z M -1.191406 0.898438 " fill-opacity="1" fill-rule="nonzero"/></g></g></g></g></g></g><path stroke-linecap="butt" transform="matrix(0.75, 0, 0, 0.75, 139.871347, 268.766819)" fill="none" stroke-linejoin="miter" d="M -0.000338087 1.998408 L 126.004879 1.998408 " stroke="#000000" stroke-width="4" stroke-opacity="1" stroke-miterlimit="4"/><g clip-path="url(#c1dcc38fc7)"><g transform="matrix(1, 0, 0, 1, 117, 271)"><g clip-path="url(#1b65db8043)"><g clip-path="url(#b200416287)"><path fill="#ffffff" d="M 0.15625 0.804688 L 128.253906 0.804688 L 128.253906 33.699219 L 0.15625 33.699219 Z M 0.15625 0.804688 " fill-opacity="1" fill-rule="nonzero"/></g></g></g></g><g clip-path="url(#73a0de7386)"><g clip-path="url(#4d4c6b494c)"><g transform="matrix(1, 0, 0, 1, 125, 92)"><g clip-path="url(#154bd1cb60)"><g clip-path="url(#96ab23b3a0)"><g clip-path="url(#ddb9081671)"><path fill="#f6f6f6" d="M -1.40625 0.878906 L 83.363281 0.878906 L 83.363281 170.417969 L -1.40625 170.417969 Z M -1.40625 0.878906 " fill-opacity="1" fill-rule="nonzero"/></g></g></g></g></g></g><g fill="#000000" fill-opacity="1"><g transform="translate(146.967768, 335.05158)"><g><path d="M 27.71875 -21.671875 C 30.632812 -21.703125 33 -20.832031 34.8125 -19.0625 C 36.78125 -17.21875 37.765625 -14.628906 37.765625 -11.296875 L 37.765625 0 L 32.296875 0 L 32.296875 -10.921875 C 32.296875 -11.335938 32.226562 -11.8125 32.09375 -12.34375 C 31.894531 -12.988281 31.628906 -13.5625 31.296875 -14.0625 C 30.398438 -15.5 29.082031 -16.21875 27.34375 -16.21875 C 25.488281 -16.21875 24.144531 -15.5 23.3125 -14.0625 C 23 -13.53125 22.773438 -12.929688 22.640625 -12.265625 C 22.523438 -11.785156 22.46875 -11.3125 22.46875 -10.84375 L 22.46875 0 L 16.96875 0 L 16.96875 -10.921875 C 16.96875 -11.335938 16.898438 -11.8125 16.765625 -12.34375 C 16.585938 -12.988281 16.332031 -13.5625 16 -14.0625 C 15.070312 -15.5 13.753906 -16.21875 12.046875 -16.21875 C 10.171875 -16.21875 8.816406 -15.5 7.984375 -14.0625 C 7.671875 -13.53125 7.445312 -12.929688 7.3125 -12.265625 C 7.195312 -11.785156 7.140625 -11.3125 7.140625 -10.84375 L 7.140625 0 L 1.265625 0 L 1.265625 -21.71875 L 7.140625 -21.71875 L 7.140625 -19.453125 C 8.515625 -20.929688 10.28125 -21.671875 12.4375 -21.671875 C 15.59375 -21.722656 18.15625 -20.503906 20.125 -18.015625 L 21.875 -19.65625 C 23.53125 -21 25.476562 -21.671875 27.71875 -21.671875 Z M 27.71875 -21.671875 "/></g></g><g transform="translate(185.985765, 335.05158)"><g><path d="M 7.09375 -29.28125 L 7.09375 -24.3125 L 1.265625 -24.3125 L 1.265625 -29.28125 Z M 7.140625 -21.59375 L 7.140625 0 L 1.265625 0 L 1.265625 -21.59375 Z M 7.140625 -21.59375 "/></g></g></g><g fill="#000000" fill-opacity="1"><g transform="translate(194.385764, 335.05158)"><g><path d="M 7.140625 -29.1875 L 7.140625 0 L 1.265625 0 L 1.265625 -29.1875 Z M 7.140625 -29.1875 "/></g></g></g><g fill="#000000" fill-opacity="1"><g transform="translate(202.785761, 335.05158)"><g><path d="M 16.171875 0 L 9.15625 -8.40625 L 7.140625 -6.421875 L 7.140625 0 L 1.265625 0 L 1.265625 -29.1875 L 7.140625 -29.1875 L 7.140625 -14.734375 L 14.03125 -21.625 L 22.34375 -21.59375 L 13.265625 -12.5625 L 23.984375 0 Z M 16.171875 0 "/></g></g></g></svg>