<svg xmlns="http://www.w3.org/2000/svg" xmlns:xlink="http://www.w3.org/1999/xlink" width="500" zoomAndPan="magnify" viewBox="0 0 375 374.999991" height="500" preserveAspectRatio="xMidYMid meet" version="1.0"><defs><filter x="0%" y="0%" width="100%" height="100%" id="1d5b2d2148"><feColorMatrix values="0 0 0 0 1 0 0 0 0 1 0 0 0 0 1 0 0 0 1 0" color-interpolation-filters="sRGB"/></filter><g/><mask id="5ffa43f676"><g filter="url(#1d5b2d2148)"><rect x="-37.5" width="450" fill="#000000" y="-37.499999" height="449.999989" fill-opacity="0.18"/></g></mask><clipPath id="42b60ca46b"><path d="M 3.4375 2 L 339.957031 2 L 339.957031 250 L 3.4375 250 Z M 3.4375 2 " clip-rule="nonzero"/></clipPath><clipPath id="3f801f4ce4"><path d="M 3.886719 82.597656 C 3.886719 82.539062 4.300781 80.683594 4.546875 79.726562 C 4.796875 78.769531 4.960938 78.167969 5.207031 76.914062 C 5.621094 74.339844 5.125 69.792969 6.363281 65.304688 C 8.265625 58.78125 14.125 48.609375 17.925781 41.789062 C 20.980469 36.460938 27.007812 28.144531 27.089844 27.726562 C 27.089844 27.667969 27.089844 27.667969 27.089844 27.667969 C 27.089844 27.667969 27.089844 27.667969 27.089844 27.605469 C 27.417969 27.308594 30.886719 22.878906 30.558594 22.28125 C 30.476562 22.160156 29.980469 22.101562 29.980469 22.101562 C 29.980469 22.101562 31.796875 23.359375 33.199219 23.179688 C 37.328125 22.699219 45.089844 10.792969 54.007812 8.039062 C 64.164062 4.929688 84.722656 5.886719 92.238281 7.5625 C 95.785156 8.339844 96.777344 11.210938 99.253906 11.152344 C 102.226562 11.03125 104.042969 6.78125 108.75 5.40625 C 117.503906 2.773438 138.226562 1.457031 151.519531 2.894531 C 163.742188 4.328125 180.75 8.21875 185.703125 13.066406 C 189.007812 16.175781 186.035156 23.71875 187.4375 24.316406 C 187.851562 24.554688 188.179688 24.074219 189.089844 23.957031 C 193.300781 23.417969 218.648438 20.425781 225.667969 23 C 229.796875 24.496094 228.96875 29.761719 232.6875 30.539062 C 238.464844 31.734375 249.941406 21.921875 260.347656 21.5625 C 273.0625 21.144531 297.007812 24.972656 303.859375 32.394531 C 310.796875 39.992188 304.769531 59.261719 300.722656 67.097656 C 298.328125 71.828125 289.410156 75.355469 290.320312 77.210938 C 291.144531 78.648438 297.832031 76.613281 300.804688 78.707031 C 307.578125 83.433594 306.503906 111.140625 313.191406 117.242188 C 316.410156 120.234375 322.027344 118.5 324.75 121.433594 C 329.871094 126.816406 330.859375 147.820312 328.714844 153.503906 C 327.886719 155.839844 323.925781 157.214844 324.421875 157.933594 C 324.914062 158.652344 329.375 156.796875 331.273438 157.933594 C 335.898438 160.625 340.851562 176.421875 339.28125 185.21875 C 337.714844 194.074219 325.660156 203.769531 321.695312 210.769531 C 319.054688 215.4375 315.667969 219.328125 316.246094 222.796875 C 316.824219 225.671875 322.355469 229.621094 322.933594 230.335938 C 323.097656 230.457031 323.183594 230.457031 323.183594 230.515625 C 323.097656 230.757812 321.695312 231.234375 320.375 231.714844 C 317.320312 232.96875 307.578125 235.84375 304.769531 237.21875 C 303.613281 237.757812 302.621094 238.65625 302.621094 238.714844 C 302.539062 238.714844 300.308594 239.613281 299.152344 240.089844 C 297.914062 240.570312 295.6875 241.46875 295.605469 241.46875 C 295.605469 241.527344 292.960938 242.003906 291.804688 242.246094 C 290.730469 242.425781 289.246094 242.722656 288.914062 242.785156 C 288.832031 242.84375 288.75 242.84375 288.75 242.84375 C 288.75 242.84375 288.832031 242.84375 288.832031 242.785156 C 288.832031 242.785156 288.007812 242.964844 287.925781 242.964844 C 287.925781 242.964844 285.28125 243.023438 283.960938 243.023438 C 282.640625 243.082031 280 243.082031 280 243.082031 C 279.914062 243.082031 277.355469 242.664062 276.117188 242.484375 C 274.796875 242.246094 272.238281 241.886719 272.238281 241.828125 C 272.152344 241.828125 269.84375 240.988281 268.6875 240.570312 C 267.449219 240.152344 265.136719 239.3125 265.054688 239.253906 C 265.054688 239.253906 263.070312 238.054688 262.082031 237.398438 C 261.007812 236.800781 259.027344 235.542969 259.027344 235.542969 C 258.941406 235.484375 257.457031 233.988281 256.714844 233.210938 C 255.886719 232.429688 254.402344 230.875 254.320312 230.875 C 254.320312 230.816406 253.328125 229.082031 252.832031 228.183594 C 252.335938 227.285156 251.347656 225.550781 251.347656 225.492188 C 251.347656 225.492188 251.015625 223.636719 250.769531 222.679688 C 250.605469 221.71875 250.273438 219.867188 250.273438 219.804688 C 250.273438 219.746094 250.519531 217.769531 250.605469 216.933594 C 250.769531 216.277344 251.429688 215.738281 250.851562 215.199219 C 248.621094 212.984375 218.816406 214.242188 213.53125 209.8125 C 209.816406 206.761719 214.605469 197.605469 212.539062 196.886719 C 211.21875 196.410156 209.238281 198.625 206.347656 200.058594 C 199.988281 203.230469 185.621094 210.351562 175.300781 215.257812 C 165.144531 220.105469 154.988281 226.089844 145.082031 229.320312 C 136.660156 232.074219 124.355469 232.96875 120.308594 234.464844 C 118.824219 234.945312 117.667969 235.902344 117.585938 235.902344 C 117.585938 235.902344 115.191406 236.679688 113.953125 237.039062 C 112.714844 237.398438 110.320312 238.175781 110.238281 238.175781 C 110.238281 238.175781 107.675781 238.476562 106.355469 238.65625 C 105.035156 238.773438 102.476562 239.074219 102.390625 239.074219 C 102.390625 239.074219 99.253906 238.835938 98.757812 238.894531 C 98.59375 238.894531 98.511719 238.953125 98.511719 238.953125 C 98.511719 238.953125 98.675781 238.894531 98.675781 238.894531 C 98.675781 238.894531 98.59375 238.894531 98.429688 238.894531 C 97.933594 238.835938 94.546875 238.65625 94.464844 238.65625 C 94.382812 238.65625 91.574219 237.9375 90.667969 237.699219 C 90.171875 237.578125 90.171875 237.398438 89.511719 237.457031 C 85.464844 237.519531 48.0625 250.082031 47.648438 249.664062 C 47.566406 249.546875 48.640625 249.125 48.558594 249.066406 C 48.476562 248.945312 47.402344 249.1875 46.742188 249.304688 C 45.667969 249.425781 42.859375 249.785156 42.777344 249.785156 C 42.695312 249.785156 40.136719 249.664062 38.8125 249.605469 C 37.492188 249.546875 34.933594 249.425781 34.851562 249.425781 C 34.769531 249.425781 32.292969 248.886719 31.054688 248.585938 C 29.8125 248.289062 27.253906 247.75 27.253906 247.691406 C 27.171875 247.691406 24.941406 246.734375 23.871094 246.195312 C 22.714844 245.714844 20.484375 244.757812 20.402344 244.699219 C 20.402344 244.699219 18.585938 243.382812 17.59375 242.664062 C 16.6875 242.003906 14.871094 240.6875 14.785156 240.628906 C 14.785156 240.628906 13.464844 238.953125 12.804688 238.175781 C 12.0625 237.339844 10.742188 235.722656 10.742188 235.664062 C 10.660156 235.664062 9.914062 233.867188 9.503906 232.910156 C 9.171875 232.011719 8.347656 230.21875 8.347656 230.15625 C 8.347656 230.15625 8.179688 228.242188 8.097656 227.285156 C 8.097656 226.328125 7.933594 224.472656 7.933594 224.414062 C 7.933594 224.351562 8.429688 222.5 8.59375 221.601562 C 8.839844 220.644531 9.253906 219.386719 9.335938 218.730469 C 9.417969 218.429688 9.253906 218.371094 9.417969 217.949219 C 10.164062 216.453125 18.417969 208.855469 18.417969 207.660156 C 18.417969 207.417969 18.253906 207.417969 18.007812 207.238281 C 17.59375 206.761719 15.859375 204.847656 15.859375 204.847656 C 15.859375 204.785156 14.953125 202.992188 14.539062 202.09375 C 14.125 201.257812 13.464844 199.640625 13.382812 199.582031 C 13.300781 199.582031 13.300781 199.699219 13.300781 199.699219 C 13.300781 199.699219 13.300781 199.582031 13.300781 199.582031 C 13.300781 199.519531 13.21875 199.402344 13.21875 199.402344 C 13.21875 199.339844 12.96875 197.484375 12.886719 196.527344 C 12.722656 195.570312 12.476562 193.65625 12.476562 193.65625 C 12.476562 193.597656 12.886719 191.742188 13.050781 190.785156 C 13.300781 189.828125 13.628906 187.972656 13.628906 187.914062 C 13.628906 187.914062 14.871094 185.816406 15.199219 185.28125 C 15.363281 184.980469 15.363281 184.980469 15.53125 184.621094 C 16.355469 182.347656 15.777344 168.585938 19.082031 160.566406 C 22.796875 151.472656 35.839844 136.273438 38.402344 133.160156 C 38.898438 132.503906 39.476562 132.621094 39.476562 132.023438 C 39.476562 129.449219 20.8125 117.363281 20.070312 112.398438 C 19.574219 109.703125 24.117188 106.171875 23.871094 105.753906 C 23.785156 105.695312 23.621094 105.695312 23.621094 105.695312 C 23.539062 105.695312 21.308594 104.738281 20.152344 104.257812 C 18.996094 103.78125 16.769531 102.824219 16.769531 102.761719 C 16.6875 102.761719 14.871094 101.445312 13.878906 100.726562 C 12.96875 100.070312 11.070312 98.753906 11.070312 98.753906 C 10.988281 98.695312 9.667969 97.078125 8.925781 96.300781 C 8.265625 95.460938 6.859375 93.847656 6.859375 93.847656 C 6.859375 93.789062 6.035156 91.992188 5.621094 91.09375 C 5.207031 90.136719 4.464844 88.402344 4.382812 88.34375 C 4.382812 88.28125 4.21875 86.425781 4.136719 85.46875 C 4.050781 84.511719 3.886719 82.597656 3.886719 82.597656 M 115.027344 54.292969 C 115.109375 54.292969 115.109375 54.234375 115.109375 54.234375 C 115.109375 54.234375 115.109375 54.234375 115.027344 54.234375 C 115.027344 54.292969 115.027344 54.292969 115.027344 54.292969 " clip-rule="nonzero"/></clipPath><mask id="fe1bad61c7"><g filter="url(#1d5b2d2148)"><rect x="-99.5" width="540" fill="#000000" y="-119.499998" height="539.999987" fill-opacity="0.5"/></g></mask><clipPath id="fc535735ba"><path d="M 0.878906 0 L 336.957031 0 L 336.957031 248 L 0.878906 248 Z M 0.878906 0 " clip-rule="nonzero"/></clipPath><clipPath id="504dedb4a8"><path d="M 0.886719 80.597656 C 0.886719 80.539062 1.300781 78.683594 1.546875 77.726562 C 1.796875 76.769531 1.960938 76.167969 2.207031 74.914062 C 2.621094 72.339844 2.125 67.792969 3.363281 63.304688 C 5.265625 56.78125 11.125 46.609375 14.925781 39.789062 C 17.980469 34.460938 24.007812 26.144531 24.089844 25.726562 C 24.089844 25.667969 24.089844 25.667969 24.089844 25.667969 C 24.089844 25.667969 24.089844 25.667969 24.089844 25.605469 C 24.417969 25.308594 27.886719 20.878906 27.558594 20.28125 C 27.476562 20.160156 26.980469 20.101562 26.980469 20.101562 C 26.980469 20.101562 28.796875 21.359375 30.199219 21.179688 C 34.328125 20.699219 42.089844 8.792969 51.007812 6.039062 C 61.164062 2.929688 81.722656 3.886719 89.238281 5.5625 C 92.785156 6.339844 93.777344 9.210938 96.253906 9.152344 C 99.226562 9.03125 101.042969 4.78125 105.75 3.40625 C 114.503906 0.773438 135.226562 -0.542969 148.519531 0.894531 C 160.742188 2.328125 177.75 6.21875 182.703125 11.066406 C 186.007812 14.175781 183.035156 21.71875 184.4375 22.316406 C 184.851562 22.554688 185.179688 22.074219 186.089844 21.957031 C 190.300781 21.417969 215.648438 18.425781 222.667969 21 C 226.796875 22.496094 225.96875 27.761719 229.6875 28.539062 C 235.464844 29.734375 246.941406 19.921875 257.347656 19.5625 C 270.0625 19.144531 294.007812 22.972656 300.859375 30.394531 C 307.796875 37.992188 301.769531 57.261719 297.722656 65.097656 C 295.328125 69.828125 286.410156 73.355469 287.320312 75.210938 C 288.144531 76.648438 294.832031 74.613281 297.804688 76.707031 C 304.578125 81.433594 303.503906 109.140625 310.191406 115.242188 C 313.410156 118.234375 319.027344 116.5 321.75 119.433594 C 326.871094 124.816406 327.859375 145.820312 325.714844 151.503906 C 324.886719 153.839844 320.925781 155.214844 321.421875 155.933594 C 321.914062 156.652344 326.375 154.796875 328.273438 155.933594 C 332.898438 158.625 337.851562 174.421875 336.28125 183.21875 C 334.714844 192.074219 322.660156 201.769531 318.695312 208.769531 C 316.054688 213.4375 312.667969 217.328125 313.246094 220.796875 C 313.824219 223.671875 319.355469 227.621094 319.933594 228.335938 C 320.097656 228.457031 320.183594 228.457031 320.183594 228.515625 C 320.097656 228.757812 318.695312 229.234375 317.375 229.714844 C 314.320312 230.96875 304.578125 233.84375 301.769531 235.21875 C 300.613281 235.757812 299.621094 236.65625 299.621094 236.714844 C 299.539062 236.714844 297.308594 237.613281 296.152344 238.089844 C 294.914062 238.570312 292.6875 239.46875 292.605469 239.46875 C 292.605469 239.527344 289.960938 240.003906 288.804688 240.246094 C 287.730469 240.425781 286.246094 240.722656 285.914062 240.785156 C 285.832031 240.84375 285.75 240.84375 285.75 240.84375 C 285.75 240.84375 285.832031 240.84375 285.832031 240.785156 C 285.832031 240.785156 285.007812 240.964844 284.925781 240.964844 C 284.925781 240.964844 282.28125 241.023438 280.960938 241.023438 C 279.640625 241.082031 277 241.082031 277 241.082031 C 276.914062 241.082031 274.355469 240.664062 273.117188 240.484375 C 271.796875 240.246094 269.238281 239.886719 269.238281 239.828125 C 269.152344 239.828125 266.84375 238.988281 265.6875 238.570312 C 264.449219 238.152344 262.136719 237.3125 262.054688 237.253906 C 262.054688 237.253906 260.070312 236.054688 259.082031 235.398438 C 258.007812 234.800781 256.027344 233.542969 256.027344 233.542969 C 255.941406 233.484375 254.457031 231.988281 253.714844 231.210938 C 252.886719 230.429688 251.402344 228.875 251.320312 228.875 C 251.320312 228.816406 250.328125 227.082031 249.832031 226.183594 C 249.335938 225.285156 248.347656 223.550781 248.347656 223.492188 C 248.347656 223.492188 248.015625 221.636719 247.769531 220.679688 C 247.605469 219.71875 247.273438 217.867188 247.273438 217.804688 C 247.273438 217.746094 247.519531 215.769531 247.605469 214.933594 C 247.769531 214.277344 248.429688 213.738281 247.851562 213.199219 C 245.621094 210.984375 215.816406 212.242188 210.53125 207.8125 C 206.816406 204.761719 211.605469 195.605469 209.539062 194.886719 C 208.21875 194.410156 206.238281 196.625 203.347656 198.058594 C 196.988281 201.230469 182.621094 208.351562 172.300781 213.257812 C 162.144531 218.105469 151.988281 224.089844 142.082031 227.320312 C 133.660156 230.074219 121.355469 230.96875 117.308594 232.464844 C 115.824219 232.945312 114.667969 233.902344 114.585938 233.902344 C 114.585938 233.902344 112.191406 234.679688 110.953125 235.039062 C 109.714844 235.398438 107.320312 236.175781 107.238281 236.175781 C 107.238281 236.175781 104.675781 236.476562 103.355469 236.65625 C 102.035156 236.773438 99.476562 237.074219 99.390625 237.074219 C 99.390625 237.074219 96.253906 236.835938 95.757812 236.894531 C 95.59375 236.894531 95.511719 236.953125 95.511719 236.953125 C 95.511719 236.953125 95.675781 236.894531 95.675781 236.894531 C 95.675781 236.894531 95.59375 236.894531 95.429688 236.894531 C 94.933594 236.835938 91.546875 236.65625 91.464844 236.65625 C 91.382812 236.65625 88.574219 235.9375 87.667969 235.699219 C 87.171875 235.578125 87.171875 235.398438 86.511719 235.457031 C 82.464844 235.519531 45.0625 248.082031 44.648438 247.664062 C 44.566406 247.546875 45.640625 247.125 45.558594 247.066406 C 45.476562 246.945312 44.402344 247.1875 43.742188 247.304688 C 42.667969 247.425781 39.859375 247.785156 39.777344 247.785156 C 39.695312 247.785156 37.136719 247.664062 35.8125 247.605469 C 34.492188 247.546875 31.933594 247.425781 31.851562 247.425781 C 31.769531 247.425781 29.292969 246.886719 28.054688 246.585938 C 26.8125 246.289062 24.253906 245.75 24.253906 245.691406 C 24.171875 245.691406 21.941406 244.734375 20.871094 244.195312 C 19.714844 243.714844 17.484375 242.757812 17.402344 242.699219 C 17.402344 242.699219 15.585938 241.382812 14.59375 240.664062 C 13.6875 240.003906 11.871094 238.6875 11.785156 238.628906 C 11.785156 238.628906 10.464844 236.953125 9.804688 236.175781 C 9.0625 235.339844 7.742188 233.722656 7.742188 233.664062 C 7.660156 233.664062 6.914062 231.867188 6.503906 230.910156 C 6.171875 230.011719 5.347656 228.21875 5.347656 228.15625 C 5.347656 228.15625 5.179688 226.242188 5.097656 225.285156 C 5.097656 224.328125 4.933594 222.472656 4.933594 222.414062 C 4.933594 222.351562 5.429688 220.5 5.59375 219.601562 C 5.839844 218.644531 6.253906 217.386719 6.335938 216.730469 C 6.417969 216.429688 6.253906 216.371094 6.417969 215.949219 C 7.164062 214.453125 15.417969 206.855469 15.417969 205.660156 C 15.417969 205.417969 15.253906 205.417969 15.007812 205.238281 C 14.59375 204.761719 12.859375 202.847656 12.859375 202.847656 C 12.859375 202.785156 11.953125 200.992188 11.539062 200.09375 C 11.125 199.257812 10.464844 197.640625 10.382812 197.582031 C 10.300781 197.582031 10.300781 197.699219 10.300781 197.699219 C 10.300781 197.699219 10.300781 197.582031 10.300781 197.582031 C 10.300781 197.519531 10.21875 197.402344 10.21875 197.402344 C 10.21875 197.339844 9.96875 195.484375 9.886719 194.527344 C 9.722656 193.570312 9.476562 191.65625 9.476562 191.65625 C 9.476562 191.597656 9.886719 189.742188 10.050781 188.785156 C 10.300781 187.828125 10.628906 185.972656 10.628906 185.914062 C 10.628906 185.914062 11.871094 183.816406 12.199219 183.28125 C 12.363281 182.980469 12.363281 182.980469 12.53125 182.621094 C 13.355469 180.347656 12.777344 166.585938 16.082031 158.566406 C 19.796875 149.472656 32.839844 134.273438 35.402344 131.160156 C 35.898438 130.503906 36.476562 130.621094 36.476562 130.023438 C 36.476562 127.449219 17.8125 115.363281 17.070312 110.398438 C 16.574219 107.703125 21.117188 104.171875 20.871094 103.753906 C 20.785156 103.695312 20.621094 103.695312 20.621094 103.695312 C 20.539062 103.695312 18.308594 102.738281 17.152344 102.257812 C 15.996094 101.78125 13.769531 100.824219 13.769531 100.761719 C 13.6875 100.761719 11.871094 99.445312 10.878906 98.726562 C 9.96875 98.070312 8.070312 96.753906 8.070312 96.753906 C 7.988281 96.695312 6.667969 95.078125 5.925781 94.300781 C 5.265625 93.460938 3.859375 91.847656 3.859375 91.847656 C 3.859375 91.789062 3.035156 89.992188 2.621094 89.09375 C 2.207031 88.136719 1.464844 86.402344 1.382812 86.34375 C 1.382812 86.28125 1.21875 84.425781 1.136719 83.46875 C 1.050781 82.511719 0.886719 80.597656 0.886719 80.597656 M 112.027344 52.292969 C 112.109375 52.292969 112.109375 52.234375 112.109375 52.234375 C 112.109375 52.234375 112.109375 52.234375 112.027344 52.234375 C 112.027344 52.292969 112.027344 52.292969 112.027344 52.292969 " clip-rule="nonzero"/></clipPath><clipPath id="437e7a55d8"><rect x="0" width="337" y="0" height="248"/></clipPath><clipPath id="b0e64982de"><rect x="0" width="343" y="0" height="253"/></clipPath><clipPath id="3c0cf5d641"><path d="M 188 35 L 344 35 L 344 135 L 188 135 Z M 188 35 " clip-rule="nonzero"/></clipPath><clipPath id="f6fd25d59b"><path d="M 168.273438 67.457031 L 319.894531 13.050781 L 343.824219 79.746094 L 192.203125 134.148438 Z M 168.273438 67.457031 " clip-rule="nonzero"/></clipPath><clipPath id="feafe5883b"><path d="M 343.796875 79.753906 C 330.761719 43.429688 285.351562 25.445312 244.070312 40.261719 C 202.785156 55.074219 179.167969 97.824219 192.203125 134.148438 L 234.289062 119.046875 C 228.492188 102.894531 238.996094 83.878906 257.355469 77.292969 C 275.71875 70.703125 295.910156 78.703125 301.707031 94.855469 Z M 343.796875 79.753906 " clip-rule="nonzero"/></clipPath><clipPath id="8fb548649c"><path d="M 0 0 L 155.921875 0 L 155.921875 99.160156 L 0 99.160156 Z M 0 0 " clip-rule="nonzero"/></clipPath><clipPath id="82d9a43aab"><path d="M -19.726562 32.457031 L 131.894531 -21.949219 L 155.824219 44.746094 L 4.203125 99.148438 Z M -19.726562 32.457031 " clip-rule="nonzero"/></clipPath><clipPath id="892d2e53ff"><path d="M 155.796875 44.753906 C 142.761719 8.429688 97.351562 -9.554688 56.070312 5.261719 C 14.785156 20.074219 -8.832031 62.824219 4.203125 99.148438 L 46.289062 84.046875 C 40.492188 67.894531 50.996094 48.878906 69.355469 42.292969 C 87.71875 35.703125 107.910156 43.703125 113.707031 59.855469 Z M 155.796875 44.753906 " clip-rule="nonzero"/></clipPath><clipPath id="10ed001d61"><rect x="0" width="156" y="0" height="100"/></clipPath><clipPath id="f2f7b876ca"><path d="M 188 35 L 344 35 L 344 134 L 188 134 Z M 188 35 " clip-rule="nonzero"/></clipPath><clipPath id="b369e6aa73"><path d="M 168.273438 67.457031 L 320.046875 12.996094 L 343.859375 79.355469 L 192.082031 133.816406 Z M 168.273438 67.457031 " clip-rule="nonzero"/></clipPath><clipPath id="685505db1d"><path d="M 168.277344 67.457031 L 320.992188 12.660156 L 345.101562 79.851562 L 192.386719 134.652344 Z M 168.277344 67.457031 " clip-rule="nonzero"/></clipPath><clipPath id="62ba513d31"><path d="M 343.785156 79.753906 C 330.753906 43.429688 285.347656 25.449219 244.066406 40.261719 C 202.785156 55.074219 179.171875 97.820312 192.203125 134.144531 L 234.289062 119.042969 C 228.492188 102.890625 238.992188 83.878906 257.351562 77.289062 C 275.714844 70.703125 295.90625 78.699219 301.703125 94.855469 Z M 343.785156 79.753906 " clip-rule="nonzero"/></clipPath><clipPath id="74582bfbcb"><path d="M 16 21 L 121 21 L 121 191 L 16 191 Z M 16 21 " clip-rule="nonzero"/></clipPath><clipPath id="b8567a17b1"><path d="M 38.789062 16.003906 L 121.726562 27.652344 L 98.097656 195.886719 L 15.160156 184.238281 Z M 38.789062 16.003906 " clip-rule="nonzero"/></clipPath><clipPath id="100aede09e"><path d="M 78.839844 21.628906 L 113.011719 26.429688 C 115.582031 26.789062 117.855469 28.273438 119.21875 30.480469 C 120.582031 32.6875 120.894531 35.382812 120.070312 37.84375 L 71.808594 181.585938 C 69.871094 187.355469 64.097656 190.925781 58.070312 190.078125 L 23.898438 185.277344 C 21.328125 184.917969 19.054688 183.433594 17.691406 181.226562 C 16.328125 179.023438 16.015625 176.324219 16.839844 173.863281 L 65.101562 30.121094 C 67.039062 24.351562 72.8125 20.78125 78.839844 21.628906 Z M 78.839844 21.628906 " clip-rule="nonzero"/></clipPath><clipPath id="5eec10ae7f"><path d="M 0 0 L 104.960938 0 L 104.960938 170 L 0 170 Z M 0 0 " clip-rule="nonzero"/></clipPath><clipPath id="c0fa5a2385"><path d="M 22.789062 -4.996094 L 105.726562 6.652344 L 82.097656 174.886719 L -0.839844 163.238281 Z M 22.789062 -4.996094 " clip-rule="nonzero"/></clipPath><clipPath id="cc20a88df9"><path d="M 62.839844 0.628906 L 97.011719 5.429688 C 99.582031 5.789062 101.855469 7.273438 103.21875 9.480469 C 104.582031 11.6875 104.894531 14.382812 104.070312 16.84375 L 55.808594 160.585938 C 53.871094 166.355469 48.097656 169.925781 42.070312 169.078125 L 7.898438 164.277344 C 5.328125 163.917969 3.054688 162.433594 1.691406 160.226562 C 0.328125 158.023438 0.015625 155.324219 0.839844 152.863281 L 49.101562 9.121094 C 51.039062 3.351562 56.8125 -0.21875 62.839844 0.628906 Z M 62.839844 0.628906 " clip-rule="nonzero"/></clipPath><clipPath id="537d98d053"><rect x="0" width="105" y="0" height="170"/></clipPath><clipPath id="1be341337c"><path d="M 16 21 L 121 21 L 121 191 L 16 191 Z M 16 21 " clip-rule="nonzero"/></clipPath><clipPath id="a5b473af2b"><path d="M 37.101562 15.765625 L 123.183594 27.855469 L 99.59375 195.84375 L 13.507812 183.753906 Z M 37.101562 15.765625 " clip-rule="nonzero"/></clipPath><clipPath id="fefbe37764"><path d="M 37.101562 15.765625 L 123.285156 27.871094 L 99.628906 196.316406 L 13.445312 184.214844 Z M 37.101562 15.765625 " clip-rule="nonzero"/></clipPath><clipPath id="54aa2b45f4"><path d="M 78.839844 21.628906 L 113.007812 26.425781 C 115.578125 26.789062 117.851562 28.273438 119.214844 30.480469 C 120.578125 32.683594 120.890625 35.382812 120.0625 37.839844 L 71.808594 181.574219 C 69.871094 187.34375 64.097656 190.914062 58.070312 190.066406 L 23.898438 185.269531 C 21.332031 184.90625 19.058594 183.421875 17.695312 181.214844 C 16.332031 179.011719 16.019531 176.3125 16.84375 173.855469 L 65.101562 30.121094 C 67.039062 24.351562 72.8125 20.78125 78.839844 21.628906 Z M 78.839844 21.628906 " clip-rule="nonzero"/></clipPath><clipPath id="0965bd475c"><path d="M 98 25 L 159 25 L 159 203 L 98 203 Z M 98 25 " clip-rule="nonzero"/></clipPath><clipPath id="9182a5e9f9"><path d="M 99.855469 24.582031 L 181.285156 36.015625 L 157.667969 204.175781 L 76.238281 192.742188 Z M 99.855469 24.582031 " clip-rule="nonzero"/></clipPath><clipPath id="864a80530c"><path d="M 141.203125 30.386719 L 108.597656 25.808594 C 106.03125 25.449219 103.433594 26.25 101.515625 27.992188 C 99.597656 29.738281 98.554688 32.246094 98.671875 34.835938 L 105.46875 186.3125 C 105.742188 192.390625 110.308594 197.414062 116.335938 198.261719 L 148.941406 202.839844 C 151.511719 203.203125 154.105469 202.402344 156.023438 200.65625 C 157.941406 198.910156 158.984375 196.402344 158.871094 193.8125 L 152.070312 42.335938 C 151.796875 36.257812 147.230469 31.234375 141.203125 30.386719 Z M 141.203125 30.386719 " clip-rule="nonzero"/></clipPath><clipPath id="8b2e16654b"><path d="M 0.398438 0.238281 L 61 0.238281 L 61 178 L 0.398438 178 Z M 0.398438 0.238281 " clip-rule="nonzero"/></clipPath><clipPath id="1d1f3d660f"><path d="M 1.855469 -0.417969 L 83.285156 11.015625 L 59.667969 179.175781 L -21.761719 167.742188 Z M 1.855469 -0.417969 " clip-rule="nonzero"/></clipPath><clipPath id="018142fb12"><path d="M 43.203125 5.386719 L 10.597656 0.808594 C 8.03125 0.449219 5.433594 1.25 3.515625 2.992188 C 1.597656 4.738281 0.554688 7.246094 0.671875 9.835938 L 7.46875 161.3125 C 7.742188 167.390625 12.308594 172.414062 18.335938 173.261719 L 50.941406 177.839844 C 53.511719 178.203125 56.105469 177.402344 58.023438 175.65625 C 59.941406 173.910156 60.984375 171.402344 60.871094 168.8125 L 54.070312 17.335938 C 53.796875 11.257812 49.230469 6.234375 43.203125 5.386719 Z M 43.203125 5.386719 " clip-rule="nonzero"/></clipPath><clipPath id="7f905f8341"><rect x="0" width="61" y="0" height="178"/></clipPath><clipPath id="4ebe6c6dd3"><path d="M 98 25 L 159 25 L 159 203 L 98 203 Z M 98 25 " clip-rule="nonzero"/></clipPath><clipPath id="1b5f4e5008"><path d="M 98.199219 24.347656 L 182.613281 36.203125 L 159.019531 204.191406 L 74.605469 192.335938 Z M 98.199219 24.347656 " clip-rule="nonzero"/></clipPath><clipPath id="a0c6f03f8b"><path d="M 98.199219 24.347656 L 182.425781 36.175781 L 158.765625 204.625 L 74.542969 192.792969 Z M 98.199219 24.347656 " clip-rule="nonzero"/></clipPath><clipPath id="5d51c8fa1b"><path d="M 141.199219 30.386719 L 108.597656 25.808594 C 106.03125 25.449219 103.433594 26.25 101.515625 27.992188 C 99.597656 29.738281 98.554688 32.246094 98.671875 34.835938 L 105.46875 186.300781 C 105.742188 192.382812 110.308594 197.402344 116.335938 198.25 L 148.941406 202.828125 C 151.507812 203.1875 154.101562 202.386719 156.019531 200.644531 C 157.941406 198.898438 158.980469 196.390625 158.867188 193.800781 L 152.070312 42.335938 C 151.796875 36.253906 147.226562 31.234375 141.199219 30.386719 Z M 141.199219 30.386719 " clip-rule="nonzero"/></clipPath><clipPath id="7787c6cb29"><rect x="0" width="197" y="0" height="219"/></clipPath><clipPath id="bfc2f310ee"><path d="M 221 62 L 325 62 L 325 186 L 221 186 Z M 221 62 " clip-rule="nonzero"/></clipPath><clipPath id="d528ce7ac0"><path d="M 217.550781 80.570312 L 297.730469 58.25 L 328.160156 167.558594 L 247.980469 189.878906 Z M 217.550781 80.570312 " clip-rule="nonzero"/></clipPath><clipPath id="10dab57e70"><path d="M 234.171875 75.945312 L 281.113281 62.875 C 285.519531 61.648438 290.234375 62.222656 294.21875 64.472656 C 298.203125 66.722656 301.132812 70.460938 302.359375 74.867188 L 323.503906 150.832031 C 324.734375 155.242188 324.160156 159.953125 321.910156 163.9375 C 319.660156 167.921875 315.921875 170.851562 311.515625 172.078125 L 264.570312 185.144531 C 260.164062 186.371094 255.449219 185.796875 251.464844 183.550781 C 247.480469 181.300781 244.554688 177.5625 243.328125 173.152344 L 222.179688 97.1875 C 220.953125 92.78125 221.527344 88.066406 223.773438 84.082031 C 226.023438 80.097656 229.761719 77.171875 234.171875 75.945312 Z M 234.171875 75.945312 " clip-rule="nonzero"/></clipPath><clipPath id="7783b4bd3d"><path d="M 0 0 L 103.960938 0 L 103.960938 124 L 0 124 Z M 0 0 " clip-rule="nonzero"/></clipPath><clipPath id="44677ec1a5"><path d="M -3.449219 18.570312 L 76.730469 -3.75 L 107.160156 105.558594 L 26.980469 127.878906 Z M -3.449219 18.570312 " clip-rule="nonzero"/></clipPath><clipPath id="20c856dace"><path d="M 13.171875 13.945312 L 60.113281 0.875 C 64.519531 -0.351562 69.234375 0.222656 73.21875 2.472656 C 77.203125 4.722656 80.132812 8.460938 81.359375 12.867188 L 102.503906 88.832031 C 103.734375 93.242188 103.160156 97.953125 100.910156 101.9375 C 98.660156 105.921875 94.921875 108.851562 90.515625 110.078125 L 43.570312 123.144531 C 39.164062 124.371094 34.449219 123.796875 30.464844 121.550781 C 26.480469 119.300781 23.554688 115.5625 22.328125 111.152344 L 1.179688 35.1875 C -0.046875 30.78125 0.527344 26.066406 2.773438 22.082031 C 5.023438 18.097656 8.761719 15.171875 13.171875 13.945312 Z M 13.171875 13.945312 " clip-rule="nonzero"/></clipPath><clipPath id="39ff4a5233"><rect x="0" width="104" y="0" height="124"/></clipPath><clipPath id="2b41dab222"><path d="M 221 62 L 325 62 L 325 186 L 221 186 Z M 221 62 " clip-rule="nonzero"/></clipPath><clipPath id="59038d7fb6"><path d="M 217.550781 80.570312 L 297.753906 58.242188 L 328.125 167.34375 L 247.925781 189.671875 Z M 217.550781 80.570312 " clip-rule="nonzero"/></clipPath><clipPath id="23929ccb62"><path d="M 217.554688 80.570312 L 298.832031 57.945312 L 329.472656 168.003906 L 248.195312 190.632812 Z M 217.554688 80.570312 " clip-rule="nonzero"/></clipPath><clipPath id="2b69b29682"><path d="M 234.171875 75.945312 L 281.109375 62.875 C 285.519531 61.648438 290.230469 62.222656 294.214844 64.472656 C 298.199219 66.722656 301.125 70.460938 302.351562 74.867188 L 323.5 150.824219 C 324.726562 155.234375 324.152344 159.945312 321.902344 163.929688 C 319.652344 167.914062 315.914062 170.839844 311.507812 172.070312 L 264.570312 185.136719 C 260.160156 186.363281 255.449219 185.789062 251.464844 183.539062 C 247.480469 181.289062 244.554688 177.550781 243.328125 173.144531 L 222.179688 97.1875 C 220.953125 92.777344 221.527344 88.066406 223.777344 84.082031 C 226.027344 80.097656 229.765625 77.171875 234.171875 75.945312 Z M 234.171875 75.945312 " clip-rule="nonzero"/></clipPath><clipPath id="e4dc6b7152"><path d="M 204 44 L 315 44 L 315 113 L 204 113 Z M 204 44 " clip-rule="nonzero"/></clipPath><clipPath id="1bca10c1d8"><path d="M 199.113281 78.890625 L 304.699219 40.027344 L 318.910156 78.640625 L 213.328125 117.5 Z M 199.113281 78.890625 " clip-rule="nonzero"/></clipPath><clipPath id="29517f2a14"><path d="M 215.304688 72.929688 L 288.503906 45.988281 C 292.796875 44.410156 297.542969 44.597656 301.695312 46.515625 C 305.847656 48.4375 309.070312 51.925781 310.648438 56.21875 L 312.945312 62.457031 C 314.523438 66.75 314.335938 71.496094 312.414062 75.648438 C 310.496094 79.800781 307.007812 83.023438 302.714844 84.601562 L 229.515625 111.542969 C 225.222656 113.125 220.476562 112.933594 216.324219 111.015625 C 212.167969 109.097656 208.949219 105.605469 207.367188 101.3125 L 205.074219 95.078125 C 203.492188 90.785156 203.683594 86.039062 205.601562 81.886719 C 207.519531 77.730469 211.007812 74.511719 215.304688 72.929688 Z M 215.304688 72.929688 " clip-rule="nonzero"/></clipPath><clipPath id="152a160b2c"><path d="M 0 0.398438 L 110.640625 0.398438 L 110.640625 69 L 0 69 Z M 0 0.398438 " clip-rule="nonzero"/></clipPath><clipPath id="2716e28f61"><path d="M -4.886719 34.890625 L 100.699219 -3.972656 L 114.910156 34.640625 L 9.328125 73.5 Z M -4.886719 34.890625 " clip-rule="nonzero"/></clipPath><clipPath id="89437136a9"><path d="M 11.304688 28.929688 L 84.503906 1.988281 C 88.796875 0.410156 93.542969 0.597656 97.695312 2.515625 C 101.847656 4.4375 105.070312 7.925781 106.648438 12.21875 L 108.945312 18.457031 C 110.523438 22.75 110.335938 27.496094 108.414062 31.648438 C 106.496094 35.800781 103.007812 39.023438 98.714844 40.601562 L 25.515625 67.542969 C 21.222656 69.125 16.476562 68.933594 12.324219 67.015625 C 8.167969 65.097656 4.949219 61.605469 3.367188 57.3125 L 1.074219 51.078125 C -0.507812 46.785156 -0.316406 42.039062 1.601562 37.886719 C 3.519531 33.730469 7.007812 30.511719 11.304688 28.929688 Z M 11.304688 28.929688 " clip-rule="nonzero"/></clipPath><clipPath id="7dddd7d96e"><rect x="0" width="111" y="0" height="69"/></clipPath><clipPath id="9b1edd25a2"><path d="M 215 36 L 292 36 L 292 89 L 215 89 Z M 215 36 " clip-rule="nonzero"/></clipPath><clipPath id="b89d12cf23"><path d="M 301.261719 76.65625 L 226.078125 97.269531 L 215.179688 57.503906 L 290.359375 36.894531 Z M 301.261719 76.65625 " clip-rule="nonzero"/></clipPath><clipPath id="45b26de074"><path d="M 215.191406 57.5 C 221.128906 79.160156 243.203125 92.574219 263.675781 86.960938 C 284.148438 81.347656 296.296875 58.550781 290.359375 36.894531 L 269.488281 42.613281 C 272.128906 52.246094 266.726562 62.386719 257.625 64.882812 C 248.519531 67.378906 238.699219 61.410156 236.058594 51.777344 Z M 215.191406 57.5 " clip-rule="nonzero"/></clipPath><clipPath id="6932d6861a"><path d="M 0.0390625 0.71875 L 77 0.71875 L 77 53 L 0.0390625 53 Z M 0.0390625 0.71875 " clip-rule="nonzero"/></clipPath><clipPath id="264313df17"><path d="M 86.261719 40.65625 L 11.078125 61.269531 L 0.179688 21.503906 L 75.359375 0.894531 Z M 86.261719 40.65625 " clip-rule="nonzero"/></clipPath><clipPath id="dd344abcfb"><path d="M 0.191406 21.5 C 6.128906 43.160156 28.203125 56.574219 48.675781 50.960938 C 69.148438 45.347656 81.296875 22.550781 75.359375 0.894531 L 54.488281 6.613281 C 57.128906 16.246094 51.726562 26.386719 42.625 28.882812 C 33.519531 31.378906 23.699219 25.410156 21.058594 15.777344 Z M 0.191406 21.5 " clip-rule="nonzero"/></clipPath><clipPath id="2eaf04e7bd"><rect x="0" width="77" y="0" height="53"/></clipPath><clipPath id="d85e8ab1a2"><path d="M 215 36 L 292 36 L 292 89 L 215 89 Z M 215 36 " clip-rule="nonzero"/></clipPath><clipPath id="0a6016e16a"><path d="M 301.261719 76.65625 L 226.035156 97.28125 L 215.128906 57.5 L 290.355469 36.875 Z M 301.261719 76.65625 " clip-rule="nonzero"/></clipPath><clipPath id="c4fcb1ca0e"><path d="M 302.785156 76.238281 L 224.792969 97.621094 L 213.894531 57.859375 L 291.882812 36.480469 Z M 302.785156 76.238281 " clip-rule="nonzero"/></clipPath><clipPath id="3a6b538050"><path d="M 215.199219 57.503906 C 221.136719 79.160156 243.207031 92.574219 263.675781 86.960938 C 284.144531 81.351562 296.292969 58.554688 290.355469 36.898438 L 269.488281 42.621094 C 272.128906 52.25 266.726562 62.386719 257.625 64.882812 C 248.519531 67.378906 238.703125 61.414062 236.0625 51.785156 Z M 215.199219 57.503906 " clip-rule="nonzero"/></clipPath><clipPath id="024bc4b5f3"><path d="M 96 97 L 164 97 L 164 157 L 96 157 Z M 96 97 " clip-rule="nonzero"/></clipPath><clipPath id="d1e5907277"><path d="M 102.226562 95.710938 L 165.78125 104.722656 L 158.117188 158.777344 L 94.5625 149.765625 Z M 102.226562 95.710938 " clip-rule="nonzero"/></clipPath><clipPath id="e2cb935b24"><path d="M 119.304688 98.132812 L 148.558594 102.28125 C 153.085938 102.925781 157.175781 105.339844 159.925781 108.996094 C 162.675781 112.652344 163.859375 117.253906 163.214844 121.78125 L 160.394531 141.675781 C 159.753906 146.207031 157.335938 150.296875 153.679688 153.042969 C 150.023438 155.792969 145.421875 156.976562 140.894531 156.335938 L 111.640625 152.1875 C 107.113281 151.546875 103.023438 149.128906 100.273438 145.472656 C 97.523438 141.816406 96.339844 137.214844 96.984375 132.6875 L 99.804688 112.792969 C 100.445312 108.261719 102.863281 104.171875 106.519531 101.425781 C 110.175781 98.675781 114.777344 97.492188 119.304688 98.132812 Z M 119.304688 98.132812 " clip-rule="nonzero"/></clipPath><clipPath id="3c886d243b"><path d="M 0.238281 0.441406 L 67.921875 0.441406 L 67.921875 60 L 0.238281 60 Z M 0.238281 0.441406 " clip-rule="nonzero"/></clipPath><clipPath id="a76a345cd6"><path d="M 6.226562 -1.289062 L 69.78125 7.722656 L 62.117188 61.777344 L -1.4375 52.765625 Z M 6.226562 -1.289062 " clip-rule="nonzero"/></clipPath><clipPath id="ba1dfe9089"><path d="M 23.304688 1.132812 L 52.558594 5.28125 C 57.085938 5.925781 61.175781 8.339844 63.925781 11.996094 C 66.675781 15.652344 67.859375 20.253906 67.214844 24.78125 L 64.394531 44.675781 C 63.753906 49.207031 61.335938 53.296875 57.679688 56.042969 C 54.023438 58.792969 49.421875 59.976562 44.894531 59.335938 L 15.640625 55.1875 C 11.113281 54.546875 7.023438 52.128906 4.273438 48.472656 C 1.523438 44.816406 0.339844 40.214844 0.984375 35.6875 L 3.804688 15.792969 C 4.445312 11.261719 6.863281 7.171875 10.519531 4.425781 C 14.175781 1.675781 18.777344 0.492188 23.304688 1.132812 Z M 23.304688 1.132812 " clip-rule="nonzero"/></clipPath><clipPath id="812497b0f1"><rect x="0" width="68" y="0" height="60"/></clipPath><clipPath id="1a02c18afa"><path d="M 189 110 L 233 110 L 233 138 L 189 138 Z M 189 110 " clip-rule="nonzero"/></clipPath><clipPath id="18eb5b1132"><path d="M 188.605469 122.882812 L 228.535156 109.28125 L 233.9375 125.140625 L 194.007812 138.742188 Z M 188.605469 122.882812 " clip-rule="nonzero"/></clipPath><clipPath id="506a5ffbca"><path d="M 192.886719 121.492188 L 224.269531 110.800781 C 225.398438 110.417969 226.636719 110.496094 227.707031 111.023438 C 228.777344 111.550781 229.59375 112.480469 229.980469 113.609375 L 232.460938 120.890625 C 232.84375 122.019531 232.765625 123.253906 232.238281 124.328125 C 231.710938 125.398438 230.78125 126.214844 229.652344 126.601562 L 198.269531 137.292969 C 195.917969 138.09375 193.359375 136.835938 192.558594 134.484375 L 190.078125 127.203125 C 189.691406 126.074219 189.773438 124.839844 190.300781 123.765625 C 190.824219 122.695312 191.757812 121.878906 192.886719 121.492188 Z M 192.886719 121.492188 " clip-rule="nonzero"/></clipPath><clipPath id="2411778c3d"><path d="M 0.601562 0.398438 L 44 0.398438 L 44 28 L 0.601562 28 Z M 0.601562 0.398438 " clip-rule="nonzero"/></clipPath><clipPath id="8755b33b82"><path d="M -0.394531 12.882812 L 39.535156 -0.71875 L 44.9375 15.140625 L 5.007812 28.742188 Z M -0.394531 12.882812 " clip-rule="nonzero"/></clipPath><clipPath id="5ca718f0af"><path d="M 3.886719 11.492188 L 35.269531 0.800781 C 36.398438 0.417969 37.636719 0.496094 38.707031 1.023438 C 39.777344 1.550781 40.59375 2.480469 40.980469 3.609375 L 43.460938 10.890625 C 43.84375 12.019531 43.765625 13.253906 43.238281 14.328125 C 42.710938 15.398438 41.78125 16.214844 40.652344 16.601562 L 9.269531 27.292969 C 6.917969 28.09375 4.359375 26.835938 3.558594 24.484375 L 1.078125 17.203125 C 0.691406 16.074219 0.773438 14.839844 1.300781 13.765625 C 1.824219 12.695312 2.757812 11.878906 3.886719 11.492188 Z M 3.886719 11.492188 " clip-rule="nonzero"/></clipPath><clipPath id="fcea3c4c24"><rect x="0" width="44" y="0" height="28"/></clipPath><clipPath id="e185c43b92"><path d="M 189 110 L 233 110 L 233 138 L 189 138 Z M 189 110 " clip-rule="nonzero"/></clipPath><clipPath id="23551b7e33"><path d="M 188.625 122.945312 L 228.382812 109.398438 L 233.703125 125.019531 L 193.949219 138.5625 Z M 188.625 122.945312 " clip-rule="nonzero"/></clipPath><clipPath id="a004ccab73"><path d="M 188.628906 122.945312 L 228.554688 109.339844 L 234.222656 125.976562 L 194.296875 139.582031 Z M 188.628906 122.945312 " clip-rule="nonzero"/></clipPath><clipPath id="6563db69f3"><path d="M 192.886719 121.492188 L 224.265625 110.800781 C 225.394531 110.417969 226.632812 110.496094 227.703125 111.023438 C 228.773438 111.550781 229.589844 112.480469 229.976562 113.609375 L 232.457031 120.890625 C 232.839844 122.019531 232.761719 123.253906 232.234375 124.324219 C 231.707031 125.394531 230.777344 126.214844 229.648438 126.597656 L 198.269531 137.289062 C 195.917969 138.089844 193.363281 136.832031 192.558594 134.480469 L 190.082031 127.203125 C 189.695312 126.074219 189.773438 124.835938 190.300781 123.765625 C 190.828125 122.695312 191.757812 121.878906 192.886719 121.492188 Z M 192.886719 121.492188 " clip-rule="nonzero"/></clipPath><clipPath id="749f3c037a"><path d="M 300 68 L 345 68 L 345 98 L 300 98 Z M 300 68 " clip-rule="nonzero"/></clipPath><clipPath id="3bc6821bac"><path d="M 299.378906 83.441406 L 339.273438 66.785156 L 345.808594 82.4375 L 305.914062 99.09375 Z M 299.378906 83.441406 " clip-rule="nonzero"/></clipPath><clipPath id="52761822ed"><path d="M 303.617188 81.742188 L 335.089844 68.601562 C 336.191406 68.144531 337.429688 68.140625 338.535156 68.59375 C 339.636719 69.046875 340.515625 69.921875 340.976562 71.023438 L 344.019531 78.308594 C 344.476562 79.410156 344.480469 80.648438 344.027344 81.753906 C 343.574219 82.855469 342.699219 83.734375 341.597656 84.195312 L 310.128906 97.332031 C 309.027344 97.792969 307.789062 97.796875 306.683594 97.34375 C 305.578125 96.890625 304.703125 96.015625 304.242188 94.914062 L 301.199219 87.628906 C 300.738281 86.527344 300.734375 85.289062 301.191406 84.183594 C 301.644531 83.078125 302.515625 82.203125 303.617188 81.742188 Z M 303.617188 81.742188 " clip-rule="nonzero"/></clipPath><clipPath id="061adecb43"><path d="M 0.71875 0 L 44.640625 0 L 44.640625 29.921875 L 0.71875 29.921875 Z M 0.71875 0 " clip-rule="nonzero"/></clipPath><clipPath id="abfdd39d41"><path d="M -0.621094 15.441406 L 39.273438 -1.214844 L 45.808594 14.4375 L 5.914062 31.09375 Z M -0.621094 15.441406 " clip-rule="nonzero"/></clipPath><clipPath id="35f69d3a03"><path d="M 3.617188 13.742188 L 35.089844 0.601562 C 36.191406 0.144531 37.429688 0.140625 38.535156 0.59375 C 39.636719 1.046875 40.515625 1.921875 40.976562 3.023438 L 44.019531 10.308594 C 44.476562 11.410156 44.480469 12.648438 44.027344 13.753906 C 43.574219 14.855469 42.699219 15.734375 41.597656 16.195312 L 10.128906 29.332031 C 9.027344 29.792969 7.789062 29.796875 6.683594 29.34375 C 5.578125 28.890625 4.703125 28.015625 4.242188 26.914062 L 1.199219 19.628906 C 0.738281 18.527344 0.734375 17.289062 1.191406 16.183594 C 1.644531 15.078125 2.515625 14.203125 3.617188 13.742188 Z M 3.617188 13.742188 " clip-rule="nonzero"/></clipPath><clipPath id="16c6fd86a2"><rect x="0" width="45" y="0" height="30"/></clipPath><clipPath id="219be43d38"><path d="M 300 68 L 345 68 L 345 98 L 300 98 Z M 300 68 " clip-rule="nonzero"/></clipPath><clipPath id="c44081cccf"><path d="M 299.464844 83.476562 L 338.914062 67.003906 L 345.5625 82.925781 L 306.113281 99.394531 Z M 299.464844 83.476562 " clip-rule="nonzero"/></clipPath><clipPath id="3dfd054212"><path d="M 299.476562 83.472656 L 340.007812 66.550781 L 346.773438 82.761719 L 306.246094 99.683594 Z M 299.476562 83.472656 " clip-rule="nonzero"/></clipPath><clipPath id="7d1778cd25"><path d="M 303.625 81.738281 L 335.078125 68.605469 C 336.179688 68.148438 337.417969 68.144531 338.523438 68.597656 C 339.625 69.050781 340.503906 69.925781 340.960938 71.023438 L 344.003906 78.308594 C 344.460938 79.40625 344.464844 80.644531 344.011719 81.75 C 343.558594 82.851562 342.6875 83.730469 341.585938 84.191406 L 310.132812 97.320312 C 309.03125 97.78125 307.792969 97.785156 306.691406 97.332031 C 305.585938 96.878906 304.707031 96.003906 304.25 94.902344 L 301.210938 87.621094 C 300.75 86.519531 300.746094 85.28125 301.199219 84.179688 C 301.652344 83.074219 302.527344 82.199219 303.625 81.738281 Z M 303.625 81.738281 " clip-rule="nonzero"/></clipPath><clipPath id="1f85768dd8"><path d="M 244 150 L 329 150 L 329 192 L 244 192 Z M 244 150 " clip-rule="nonzero"/></clipPath><clipPath id="798d55ebb3"><path d="M 243.605469 173.785156 L 323.378906 149.828125 L 328.996094 168.527344 L 249.222656 192.488281 Z M 243.605469 173.785156 " clip-rule="nonzero"/></clipPath><clipPath id="8e43ab2a7a"><path d="M 247.199219 172.707031 L 319.738281 150.921875 C 320.691406 150.632812 321.71875 150.738281 322.59375 151.210938 C 323.46875 151.679688 324.121094 152.480469 324.410156 153.433594 L 327.867188 164.949219 C 328.152344 165.902344 328.050781 166.929688 327.578125 167.804688 C 327.109375 168.683594 326.308594 169.335938 325.355469 169.621094 L 252.816406 191.410156 C 251.863281 191.695312 250.835938 191.589844 249.957031 191.121094 C 249.082031 190.648438 248.429688 189.847656 248.144531 188.894531 L 244.683594 177.378906 C 244.398438 176.425781 244.503906 175.398438 244.972656 174.523438 C 245.445312 173.648438 246.246094 172.996094 247.199219 172.707031 Z M 247.199219 172.707031 " clip-rule="nonzero"/></clipPath><clipPath id="6e6d404643"><path d="M 0.320312 0.480469 L 84.320312 0.480469 L 84.320312 41.761719 L 0.320312 41.761719 Z M 0.320312 0.480469 " clip-rule="nonzero"/></clipPath><clipPath id="6ea89390e5"><path d="M -0.394531 23.785156 L 79.378906 -0.171875 L 84.996094 18.527344 L 5.222656 42.488281 Z M -0.394531 23.785156 " clip-rule="nonzero"/></clipPath><clipPath id="fcebb1740c"><path d="M 3.199219 22.707031 L 75.738281 0.921875 C 76.691406 0.632812 77.71875 0.738281 78.59375 1.210938 C 79.46875 1.679688 80.121094 2.480469 80.410156 3.433594 L 83.867188 14.949219 C 84.152344 15.902344 84.050781 16.929688 83.578125 17.804688 C 83.109375 18.683594 82.308594 19.335938 81.355469 19.621094 L 8.816406 41.410156 C 7.863281 41.695312 6.835938 41.589844 5.957031 41.121094 C 5.082031 40.648438 4.429688 39.847656 4.144531 38.894531 L 0.683594 27.378906 C 0.398438 26.425781 0.503906 25.398438 0.972656 24.523438 C 1.445312 23.648438 2.246094 22.996094 3.199219 22.707031 Z M 3.199219 22.707031 " clip-rule="nonzero"/></clipPath><clipPath id="8d4496cf30"><rect x="0" width="85" y="0" height="42"/></clipPath><clipPath id="06c879e585"><path d="M 244 150 L 329 150 L 329 192 L 244 192 Z M 244 150 " clip-rule="nonzero"/></clipPath><clipPath id="9dfef946f8"><path d="M 243.605469 173.785156 L 323.335938 149.839844 L 328.945312 168.515625 L 249.214844 192.460938 Z M 243.605469 173.785156 " clip-rule="nonzero"/></clipPath><clipPath id="ac4f718a77"><path d="M 243.609375 173.785156 L 324.40625 149.519531 L 330.472656 169.71875 L 249.675781 193.984375 Z M 243.609375 173.785156 " clip-rule="nonzero"/></clipPath><clipPath id="b40d932b9e"><path d="M 247.199219 172.707031 L 319.730469 150.921875 C 320.683594 150.636719 321.710938 150.738281 322.585938 151.210938 C 323.460938 151.683594 324.113281 152.480469 324.402344 153.433594 L 327.859375 164.949219 C 328.144531 165.902344 328.042969 166.929688 327.570312 167.804688 C 327.097656 168.683594 326.300781 169.335938 325.347656 169.621094 L 252.816406 191.40625 C 251.863281 191.691406 250.835938 191.585938 249.960938 191.117188 C 249.085938 190.644531 248.433594 189.84375 248.148438 188.894531 L 244.6875 177.375 C 244.402344 176.425781 244.507812 175.398438 244.976562 174.523438 C 245.449219 173.644531 246.25 172.992188 247.199219 172.707031 Z M 247.199219 172.707031 " clip-rule="nonzero"/></clipPath><clipPath id="52e317eaf5"><path d="M 212 29 L 294 29 L 294 59 L 212 59 Z M 212 29 " clip-rule="nonzero"/></clipPath><clipPath id="beb270840b"><path d="M 208.652344 44.660156 L 290.242188 22.117188 L 293.996094 35.707031 L 212.410156 58.25 Z M 208.652344 44.660156 " clip-rule="nonzero"/></clipPath><clipPath id="73be21c162"><path d="M 293.992188 35.707031 C 291.945312 28.308594 271.664062 27.25 249.445312 33.390625 C 227.226562 39.527344 210.363281 50.847656 212.410156 58.25 Z M 293.992188 35.707031 " clip-rule="nonzero"/></clipPath><clipPath id="cfb2cf4b1e"><path d="M 0 0 L 82 0 L 82 29.320312 L 0 29.320312 Z M 0 0 " clip-rule="nonzero"/></clipPath><clipPath id="b98e6e4ab9"><path d="M -3.347656 15.660156 L 78.242188 -6.882812 L 81.996094 6.707031 L 0.410156 29.25 Z M -3.347656 15.660156 " clip-rule="nonzero"/></clipPath><clipPath id="29b1c3e144"><path d="M 81.992188 6.707031 C 79.945312 -0.691406 59.664062 -1.75 37.445312 4.390625 C 15.226562 10.527344 -1.636719 21.847656 0.410156 29.25 Z M 81.992188 6.707031 " clip-rule="nonzero"/></clipPath><clipPath id="0109221b48"><rect x="0" width="82" y="0" height="30"/></clipPath><clipPath id="805b098d1c"><path d="M 287.726562 107.9375 L 303.351562 107.9375 L 303.351562 122.871094 L 287.726562 122.871094 Z M 287.726562 107.9375 " clip-rule="nonzero"/></clipPath><clipPath id="d192c4894a"><path d="M 296.253906 108.488281 L 297.058594 110.96875 C 297.472656 112.246094 298.660156 113.109375 300 113.109375 L 302.59375 113.109375 C 302.910156 113.109375 303.191406 113.3125 303.289062 113.613281 C 303.390625 113.917969 303.28125 114.246094 303.027344 114.433594 L 300.925781 115.964844 C 299.839844 116.753906 299.386719 118.152344 299.800781 119.425781 L 300.605469 121.90625 C 300.703125 122.207031 300.59375 122.539062 300.339844 122.722656 C 300.082031 122.910156 299.734375 122.910156 299.480469 122.722656 L 297.378906 121.195312 C 296.296875 120.40625 294.824219 120.40625 293.742188 121.195312 L 291.640625 122.722656 C 291.386719 122.910156 291.039062 122.910156 290.78125 122.722656 C 290.527344 122.539062 290.417969 122.207031 290.515625 121.90625 L 291.320312 119.425781 C 291.734375 118.152344 291.28125 116.753906 290.195312 115.964844 L 288.09375 114.433594 C 287.839844 114.246094 287.730469 113.917969 287.828125 113.613281 C 287.929688 113.3125 288.207031 113.109375 288.527344 113.109375 L 291.117188 113.109375 C 292.460938 113.109375 293.648438 112.246094 294.0625 110.96875 L 294.867188 108.488281 C 294.964844 108.1875 295.242188 107.984375 295.558594 107.984375 C 295.875 107.984375 296.15625 108.1875 296.253906 108.488281 Z M 296.253906 108.488281 " clip-rule="nonzero"/></clipPath><clipPath id="80c9ed3a2a"><path d="M 0.726562 0.9375 L 16.351562 0.9375 L 16.351562 15.871094 L 0.726562 15.871094 Z M 0.726562 0.9375 " clip-rule="nonzero"/></clipPath><clipPath id="a3a0f46e9a"><path d="M 9.253906 1.488281 L 10.058594 3.96875 C 10.472656 5.246094 11.660156 6.109375 13 6.109375 L 15.59375 6.109375 C 15.910156 6.109375 16.191406 6.3125 16.289062 6.613281 C 16.390625 6.917969 16.28125 7.246094 16.027344 7.433594 L 13.925781 8.964844 C 12.839844 9.753906 12.386719 11.152344 12.800781 12.425781 L 13.605469 14.90625 C 13.703125 15.207031 13.59375 15.539062 13.339844 15.722656 C 13.082031 15.910156 12.734375 15.910156 12.480469 15.722656 L 10.378906 14.195312 C 9.296875 13.40625 7.824219 13.40625 6.742188 14.195312 L 4.640625 15.722656 C 4.386719 15.910156 4.039062 15.910156 3.78125 15.722656 C 3.527344 15.539062 3.417969 15.207031 3.515625 14.90625 L 4.320312 12.425781 C 4.734375 11.152344 4.28125 9.753906 3.195312 8.964844 L 1.09375 7.433594 C 0.839844 7.246094 0.730469 6.917969 0.828125 6.613281 C 0.929688 6.3125 1.207031 6.109375 1.527344 6.109375 L 4.117188 6.109375 C 5.460938 6.109375 6.648438 5.246094 7.0625 3.96875 L 7.867188 1.488281 C 7.964844 1.1875 8.242188 0.984375 8.558594 0.984375 C 8.875 0.984375 9.15625 1.1875 9.253906 1.488281 Z M 9.253906 1.488281 " clip-rule="nonzero"/></clipPath><clipPath id="4250c373ba"><rect x="0" width="17" y="0" height="16"/></clipPath><clipPath id="5b02a5101b"><path d="M 287.726562 107.800781 L 303.386719 107.800781 L 303.386719 122.882812 L 287.726562 122.882812 Z M 287.726562 107.800781 " clip-rule="nonzero"/></clipPath><clipPath id="1330b11b3d"><path d="M 296.25 108.492188 L 297.054688 110.96875 C 297.46875 112.246094 298.65625 113.109375 299.996094 113.109375 L 302.589844 113.109375 C 302.90625 113.109375 303.1875 113.3125 303.285156 113.613281 C 303.382812 113.914062 303.277344 114.246094 303.019531 114.433594 L 300.921875 115.960938 C 299.835938 116.75 299.382812 118.148438 299.796875 119.425781 L 300.601562 121.902344 C 300.699219 122.203125 300.589844 122.535156 300.332031 122.71875 C 300.078125 122.90625 299.730469 122.90625 299.476562 122.71875 L 297.375 121.191406 C 296.292969 120.402344 294.824219 120.402344 293.738281 121.191406 L 291.640625 122.71875 C 291.382812 122.90625 291.035156 122.90625 290.78125 122.71875 C 290.523438 122.535156 290.417969 122.203125 290.515625 121.902344 L 291.320312 119.425781 C 291.730469 118.148438 291.277344 116.75 290.195312 115.960938 L 288.09375 114.433594 C 287.839844 114.246094 287.730469 113.914062 287.828125 113.613281 C 287.925781 113.3125 288.207031 113.109375 288.523438 113.109375 L 291.117188 113.109375 C 292.457031 113.109375 293.644531 112.246094 294.058594 110.96875 L 294.863281 108.492188 C 294.960938 108.191406 295.242188 107.984375 295.558594 107.984375 C 295.875 107.984375 296.152344 108.191406 296.25 108.492188 Z M 296.25 108.492188 " clip-rule="nonzero"/></clipPath><clipPath id="902685e7e2"><path d="M 282.347656 90.011719 L 297.972656 90.011719 L 297.972656 104.945312 L 282.347656 104.945312 Z M 282.347656 90.011719 " clip-rule="nonzero"/></clipPath><clipPath id="8c3e0d9bcc"><path d="M 290.875 90.5625 L 291.675781 93.042969 C 292.089844 94.316406 293.28125 95.179688 294.621094 95.179688 L 297.214844 95.179688 C 297.53125 95.179688 297.8125 95.386719 297.910156 95.6875 C 298.007812 95.988281 297.902344 96.320312 297.644531 96.507812 L 295.546875 98.035156 C 294.460938 98.824219 294.007812 100.222656 294.421875 101.5 L 295.222656 103.980469 C 295.320312 104.28125 295.214844 104.609375 294.957031 104.796875 C 294.703125 104.980469 294.355469 104.980469 294.097656 104.796875 L 292 103.265625 C 290.914062 102.476562 289.445312 102.476562 288.359375 103.265625 L 286.261719 104.796875 C 286.003906 104.980469 285.65625 104.980469 285.402344 104.796875 C 285.144531 104.609375 285.039062 104.28125 285.136719 103.980469 L 285.941406 101.5 C 286.355469 100.222656 285.898438 98.824219 284.816406 98.035156 L 282.714844 96.507812 C 282.457031 96.320312 282.351562 95.988281 282.449219 95.6875 C 282.546875 95.386719 282.828125 95.179688 283.144531 95.179688 L 285.738281 95.179688 C 287.078125 95.179688 288.269531 94.316406 288.683594 93.042969 L 289.484375 90.5625 C 289.582031 90.261719 289.863281 90.058594 290.179688 90.058594 C 290.496094 90.058594 290.777344 90.261719 290.875 90.5625 Z M 290.875 90.5625 " clip-rule="nonzero"/></clipPath><clipPath id="d57b0b8f1d"><path d="M 0.347656 0.0117188 L 15.972656 0.0117188 L 15.972656 14.945312 L 0.347656 14.945312 Z M 0.347656 0.0117188 " clip-rule="nonzero"/></clipPath><clipPath id="a7c2b55bd0"><path d="M 8.875 0.5625 L 9.675781 3.042969 C 10.089844 4.316406 11.28125 5.179688 12.621094 5.179688 L 15.214844 5.179688 C 15.53125 5.179688 15.8125 5.386719 15.910156 5.6875 C 16.007812 5.988281 15.902344 6.320312 15.644531 6.507812 L 13.546875 8.035156 C 12.460938 8.824219 12.007812 10.222656 12.421875 11.5 L 13.222656 13.980469 C 13.320312 14.28125 13.214844 14.609375 12.957031 14.796875 C 12.703125 14.980469 12.355469 14.980469 12.097656 14.796875 L 10 13.265625 C 8.914062 12.476562 7.445312 12.476562 6.359375 13.265625 L 4.261719 14.796875 C 4.003906 14.980469 3.65625 14.980469 3.402344 14.796875 C 3.144531 14.609375 3.039062 14.28125 3.136719 13.980469 L 3.941406 11.5 C 4.355469 10.222656 3.898438 8.824219 2.816406 8.035156 L 0.714844 6.507812 C 0.457031 6.320312 0.351562 5.988281 0.449219 5.6875 C 0.546875 5.386719 0.828125 5.179688 1.144531 5.179688 L 3.738281 5.179688 C 5.078125 5.179688 6.269531 4.316406 6.683594 3.042969 L 7.484375 0.5625 C 7.582031 0.261719 7.863281 0.0585938 8.179688 0.0585938 C 8.496094 0.0585938 8.777344 0.261719 8.875 0.5625 Z M 8.875 0.5625 " clip-rule="nonzero"/></clipPath><clipPath id="04adf8dae3"><rect x="0" width="16" y="0" height="15"/></clipPath><clipPath id="31a1f9e964"><path d="M 282.347656 90 L 298 90 L 298 104.957031 L 282.347656 104.957031 Z M 282.347656 90 " clip-rule="nonzero"/></clipPath><clipPath id="6f932ea25c"><path d="M 290.871094 90.5625 L 291.675781 93.042969 C 292.085938 94.316406 293.277344 95.179688 294.617188 95.179688 L 297.207031 95.179688 C 297.527344 95.179688 297.808594 95.386719 297.90625 95.6875 C 298.003906 95.988281 297.894531 96.316406 297.640625 96.503906 L 295.539062 98.035156 C 294.457031 98.824219 294 100.222656 294.414062 101.496094 L 295.21875 103.976562 C 295.316406 104.277344 295.210938 104.605469 294.953125 104.792969 C 294.695312 104.976562 294.351562 104.976562 294.09375 104.792969 L 291.996094 103.261719 C 290.910156 102.472656 289.441406 102.472656 288.359375 103.261719 L 286.257812 104.792969 C 286.003906 104.976562 285.65625 104.976562 285.398438 104.792969 C 285.144531 104.605469 285.035156 104.277344 285.132812 103.976562 L 285.9375 101.496094 C 286.351562 100.222656 285.898438 98.824219 284.8125 98.035156 L 282.714844 96.503906 C 282.457031 96.316406 282.351562 95.988281 282.449219 95.6875 C 282.546875 95.386719 282.828125 95.179688 283.144531 95.179688 L 285.738281 95.179688 C 287.078125 95.179688 288.265625 94.316406 288.679688 93.042969 L 289.484375 90.5625 C 289.582031 90.261719 289.859375 90.058594 290.175781 90.058594 C 290.492188 90.058594 290.773438 90.261719 290.871094 90.5625 Z M 290.871094 90.5625 " clip-rule="nonzero"/></clipPath></defs><rect x="-37.5" width="450" fill="#ffffff" y="-37.499999" height="449.999989" fill-opacity="1"/><rect x="-37.5" width="450" fill="#ffffff" y="-37.499999" height="449.999989" fill-opacity="1"/><g mask="url(#5ffa43f676)"><g transform="matrix(1, 0, 0, 1, 17, 37)"><g clip-path="url(#b0e64982de)"><g clip-path="url(#42b60ca46b)"><g clip-path="url(#3f801f4ce4)"><g mask="url(#fe1bad61c7)"><g transform="matrix(1, 0, 0, 1, 3, 2)"><g clip-path="url(#437e7a55d8)"><g clip-path="url(#fc535735ba)"><g clip-path="url(#504dedb4a8)"><rect x="-156.5" width="648" fill="#ff7d7d" y="-175.499997" height="647.999984" fill-opacity="1"/></g></g></g></g></g></g></g></g></g></g><g clip-path="url(#3c0cf5d641)"><g clip-path="url(#f6fd25d59b)"><g clip-path="url(#feafe5883b)"><g transform="matrix(1, 0, 0, 1, 188, 35)"><g clip-path="url(#10ed001d61)"><g clip-path="url(#8fb548649c)"><g clip-path="url(#82d9a43aab)"><g clip-path="url(#892d2e53ff)"><path fill="#ffffff" d="M -19.726562 32.457031 L 131.894531 -21.949219 L 155.824219 44.746094 L 4.203125 99.148438 Z M -19.726562 32.457031 " fill-opacity="1" fill-rule="nonzero"/></g></g></g></g></g></g></g></g><g clip-path="url(#f2f7b876ca)"><g clip-path="url(#b369e6aa73)"><g clip-path="url(#685505db1d)"><g clip-path="url(#62ba513d31)"><path stroke-linecap="butt" transform="matrix(0.70593, -0.253305, 0.253305, 0.70593, 168.275662, 67.456702)" fill="none" stroke-linejoin="miter" d="M 214.724329 94.468152 C 214.72779 43.013532 165.840525 0.000976577 107.362769 0.000712561 C 48.885012 0.000448545 0.00127422 43.012689 -0.0021867 94.467308 L 59.615612 94.467169 C 59.614327 71.585755 81.353029 52.454663 107.361326 52.452083 C 133.372767 52.456164 155.111907 71.583733 155.111433 94.47005 Z M 214.724329 94.468152 " stroke="#000000" stroke-width="8" stroke-opacity="1" stroke-miterlimit="4"/></g></g></g></g><g transform="matrix(1, 0, 0, 1, 24, 71)"><g clip-path="url(#7787c6cb29)"><g clip-path="url(#74582bfbcb)"><g clip-path="url(#b8567a17b1)"><g clip-path="url(#100aede09e)"><g transform="matrix(1, 0, 0, 1, 16, 21)"><g clip-path="url(#537d98d053)"><g clip-path="url(#5eec10ae7f)"><g clip-path="url(#c0fa5a2385)"><g clip-path="url(#cc20a88df9)"><path fill="#0097b2" d="M 21.101562 -5.234375 L 107.410156 6.886719 L 83.832031 174.785156 L -2.476562 162.664062 Z M 21.101562 -5.234375 " fill-opacity="1" fill-rule="nonzero"/></g></g></g></g></g></g></g></g><g clip-path="url(#1be341337c)"><g clip-path="url(#a5b473af2b)"><g clip-path="url(#fefbe37764)"><g clip-path="url(#54aa2b45f4)"><path stroke-linecap="butt" transform="matrix(0.835761, 0.117377, -0.117377, 0.835761, 37.102848, 15.767253)" fill="none" stroke-linejoin="miter" d="M 49.938893 -0.0000404177 L 90.82105 -0.00214403 C 93.896843 0.000551986 96.80904 1.367628 98.772374 3.732635 C 100.735065 6.093057 101.546554 9.208742 100.979756 12.228217 L 68.046366 188.833686 C 66.723735 195.922766 60.537716 201.06348 53.325725 201.062125 L 12.438984 201.064872 C 9.367774 201.061532 6.455578 199.694456 4.492243 197.32945 C 2.529552 194.969027 1.718064 191.853342 2.280278 188.834511 L 35.218251 12.228398 C 36.540882 5.139319 42.726901 -0.00139593 49.938893 -0.0000404177 Z M 49.938893 -0.0000404177 " stroke="#000000" stroke-width="7.109312" stroke-opacity="1" stroke-miterlimit="4"/></g></g></g></g><g clip-path="url(#0965bd475c)"><g clip-path="url(#9182a5e9f9)"><g clip-path="url(#864a80530c)"><g transform="matrix(1, 0, 0, 1, 98, 25)"><g clip-path="url(#7f905f8341)"><g clip-path="url(#8b2e16654b)"><g clip-path="url(#1d1f3d660f)"><g clip-path="url(#018142fb12)"><path fill="#0097b2" d="M 0.199219 -0.652344 L 84.941406 11.25 L 61.324219 179.410156 L -23.417969 167.507812 Z M 0.199219 -0.652344 " fill-opacity="1" fill-rule="nonzero"/></g></g></g></g></g></g></g></g><g clip-path="url(#4ebe6c6dd3)"><g clip-path="url(#1b5f4e5008)"><g clip-path="url(#a0c6f03f8b)"><g clip-path="url(#5d51c8fa1b)"><path stroke-linecap="butt" transform="matrix(0.835761, 0.117377, -0.117377, 0.835761, 98.20052, 24.348021)" fill="none" stroke-linejoin="miter" d="M 51.448513 -0.000220923 L 12.440378 0.000425929 C 9.369812 0.00166967 6.453762 1.369356 4.490374 3.729652 C 2.52763 6.094533 1.717109 9.208998 2.2814 12.228531 L 35.216865 188.832763 C 36.539979 195.924176 42.725243 201.061436 49.937234 201.062791 L 88.949952 201.061501 C 92.020519 201.060257 94.931985 199.693214 96.895373 197.332918 C 98.862701 194.967394 99.668638 191.853573 99.108931 188.833395 L 66.173465 12.229163 C 64.850351 5.13775 58.660504 0.00113459 51.448513 -0.000220923 Z M 51.448513 -0.000220923 " stroke="#000000" stroke-width="7.109312" stroke-opacity="1" stroke-miterlimit="4"/></g></g></g></g></g></g><g clip-path="url(#bfc2f310ee)"><g clip-path="url(#d528ce7ac0)"><g clip-path="url(#10dab57e70)"><g transform="matrix(1, 0, 0, 1, 221, 62)"><g clip-path="url(#39ff4a5233)"><g clip-path="url(#7783b4bd3d)"><g clip-path="url(#44677ec1a5)"><g clip-path="url(#20c856dace)"><path fill="#ffffff" d="M -3.449219 18.570312 L 76.730469 -3.75 L 107.160156 105.558594 L 26.980469 127.878906 Z M -3.449219 18.570312 " fill-opacity="1" fill-rule="nonzero"/></g></g></g></g></g></g></g></g><g clip-path="url(#2b41dab222)"><g clip-path="url(#59038d7fb6)"><g clip-path="url(#23929ccb62)"><g clip-path="url(#2b69b29682)"><path stroke-linecap="butt" transform="matrix(0.722525, -0.201139, 0.201139, 0.722525, 217.555289, 80.569603)" fill="none" stroke-linejoin="miter" d="M 22.997392 0.00192356 L 87.961823 -0.00279686 C 94.065218 -0.00131538 99.911039 2.420805 104.22437 6.735644 C 108.537701 11.050482 110.959099 16.89847 110.959014 22.996848 L 110.963168 128.125151 C 110.961686 134.228547 108.539566 140.074368 104.224727 144.387699 C 99.909889 148.70103 94.061901 151.122427 87.962126 151.12736 L 22.999092 151.127063 C 16.895697 151.125581 11.049876 148.703461 6.736545 144.388623 C 2.423214 140.073784 0.00181641 134.225796 0.00190109 128.127418 L -0.00225272 22.999115 C -0.000771235 16.895719 2.421349 11.049898 6.736188 6.736567 C 11.051026 2.423236 16.899014 0.00183888 22.997392 0.00192356 Z M 22.997392 0.00192356 " stroke="#000000" stroke-width="8" stroke-opacity="1" stroke-miterlimit="4"/></g></g></g></g><g clip-path="url(#e4dc6b7152)"><g clip-path="url(#1bca10c1d8)"><g clip-path="url(#29517f2a14)"><g transform="matrix(1, 0, 0, 1, 204, 44)"><g clip-path="url(#7dddd7d96e)"><g clip-path="url(#152a160b2c)"><g clip-path="url(#2716e28f61)"><g clip-path="url(#89437136a9)"><path fill="#ffffff" d="M -4.886719 34.890625 L 100.699219 -3.972656 L 114.910156 34.640625 L 9.328125 73.5 Z M -4.886719 34.890625 " fill-opacity="1" fill-rule="nonzero"/></g></g></g></g></g></g></g></g><g clip-path="url(#9b1edd25a2)"><g clip-path="url(#b89d12cf23)"><g clip-path="url(#45b26de074)"><g transform="matrix(1, 0, 0, 1, 215, 36)"><g clip-path="url(#2eaf04e7bd)"><g clip-path="url(#6932d6861a)"><g clip-path="url(#264313df17)"><g clip-path="url(#dd344abcfb)"><path fill="#0097b2" d="M 86.261719 40.65625 L 11.078125 61.269531 L 0.179688 21.503906 L 75.359375 0.894531 Z M 86.261719 40.65625 " fill-opacity="1" fill-rule="nonzero"/></g></g></g></g></g></g></g></g><g clip-path="url(#d85e8ab1a2)"><g clip-path="url(#0a6016e16a)"><g clip-path="url(#c4fcb1ca0e)"><g clip-path="url(#3a6b538050)"><path stroke-linecap="butt" transform="matrix(-0.723311, 0.198294, -0.198294, -0.723311, 301.255473, 76.659026)" fill="none" stroke-linejoin="miter" d="M 103.905984 54.968168 C 103.905366 25.027571 80.254212 -0.00170012 51.9549 0.000630097 C 23.656965 -0.00206268 -0.000985296 25.029532 -0.000368045 54.970129 L 28.849846 54.967613 C 28.848717 41.655046 39.368951 30.524825 51.952463 30.523645 C 64.540998 30.523842 75.061039 41.654471 75.062169 54.967038 Z M 103.905984 54.968168 " stroke="#000000" stroke-width="8" stroke-opacity="1" stroke-miterlimit="4"/></g></g></g></g><g clip-path="url(#024bc4b5f3)"><g clip-path="url(#d1e5907277)"><g clip-path="url(#e2cb935b24)"><g transform="matrix(1, 0, 0, 1, 96, 97)"><g clip-path="url(#812497b0f1)"><g clip-path="url(#3c886d243b)"><g clip-path="url(#a76a345cd6)"><g clip-path="url(#ba1dfe9089)"><path fill="#0097b2" d="M 6.226562 -1.289062 L 69.570312 7.695312 L 61.90625 61.746094 L -1.4375 52.765625 Z M 6.226562 -1.289062 " fill-opacity="1" fill-rule="nonzero"/></g></g></g></g></g></g></g></g><g clip-path="url(#1a02c18afa)"><g clip-path="url(#18eb5b1132)"><g clip-path="url(#506a5ffbca)"><g transform="matrix(1, 0, 0, 1, 189, 110)"><g clip-path="url(#fcea3c4c24)"><g clip-path="url(#2411778c3d)"><g clip-path="url(#8755b33b82)"><g clip-path="url(#5ca718f0af)"><path fill="#0097b2" d="M -0.375 12.945312 L 39.554688 -0.660156 L 44.9375 15.140625 L 5.007812 28.742188 Z M -0.375 12.945312 " fill-opacity="1" fill-rule="nonzero"/></g></g></g></g></g></g></g></g><g clip-path="url(#e185c43b92)"><g clip-path="url(#23551b7e33)"><g clip-path="url(#a004ccab73)"><g clip-path="url(#6563db69f3)"><path stroke-linecap="butt" transform="matrix(0.709927, -0.241877, 0.241877, 0.709927, 188.629283, 122.944211)" fill="none" stroke-linejoin="miter" d="M 5.997648 -0.0018778 L 50.198041 -0.00239527 C 51.787435 -0.000106903 53.316665 0.630958 54.440739 1.756752 C 55.564812 2.882546 56.195423 4.406953 56.198065 5.998027 L 56.197686 16.254241 C 56.195398 17.843634 55.566012 19.367935 54.440218 20.492008 C 53.314425 21.616081 51.788337 22.251623 50.198943 22.249334 L 5.998551 22.249852 C 2.686325 22.249333 0.00293794 19.563335 -0.00147302 16.24943 L 0.00215621 5.999826 C -0.00048546 4.408752 0.63058 2.879522 1.756373 1.755448 C 2.882167 0.631375 4.406575 0.000763874 5.997648 -0.0018778 Z M 5.997648 -0.0018778 " stroke="#000000" stroke-width="8" stroke-opacity="1" stroke-miterlimit="4"/></g></g></g></g><g clip-path="url(#749f3c037a)"><g clip-path="url(#3bc6821bac)"><g clip-path="url(#52761822ed)"><g transform="matrix(1, 0, 0, 1, 300, 68)"><g clip-path="url(#16c6fd86a2)"><g clip-path="url(#061adecb43)"><g clip-path="url(#abfdd39d41)"><g clip-path="url(#35f69d3a03)"><path fill="#0097b2" d="M -0.535156 15.476562 L 39.238281 -1.128906 L 45.746094 14.464844 L 5.976562 31.066406 Z M -0.535156 15.476562 " fill-opacity="1" fill-rule="nonzero"/></g></g></g></g></g></g></g></g><g clip-path="url(#219be43d38)"><g clip-path="url(#c44081cccf)"><g clip-path="url(#3dfd054212)"><g clip-path="url(#7d1778cd25)"><path stroke-linecap="butt" transform="matrix(0.692106, -0.288945, 0.288945, 0.692106, 299.476334, 83.470929)" fill="none" stroke-linejoin="miter" d="M 5.994591 -0.000780332 L 51.44092 -0.00268482 C 53.031062 0.000829919 54.556664 0.632104 55.684083 1.757492 C 56.806696 2.880872 57.438641 4.408959 57.437133 5.994295 L 57.438994 16.521142 C 57.437485 18.106478 56.806211 19.632079 55.680824 20.759498 C 54.557443 21.882111 53.034163 22.516063 51.442014 22.517355 L 5.997691 22.514453 C 4.405542 22.515745 2.879941 21.88447 1.757328 20.76109 C 0.629909 19.635702 -0.00203638 18.107616 0.00147836 16.517474 L 0.00241753 5.997439 C 0.00112597 4.40529 0.6324 2.879689 1.755781 1.757076 C 2.881168 0.629657 4.407248 0.00251778 5.994591 -0.000780332 Z M 5.994591 -0.000780332 " stroke="#000000" stroke-width="8" stroke-opacity="1" stroke-miterlimit="4"/></g></g></g></g><g clip-path="url(#1f85768dd8)"><g clip-path="url(#798d55ebb3)"><g clip-path="url(#8e43ab2a7a)"><g transform="matrix(1, 0, 0, 1, 244, 150)"><g clip-path="url(#8d4496cf30)"><g clip-path="url(#6e6d404643)"><g clip-path="url(#6ea89390e5)"><g clip-path="url(#fcebb1740c)"><path fill="#0097b2" d="M -0.394531 23.785156 L 79.304688 -0.152344 L 84.921875 18.550781 L 5.222656 42.488281 Z M -0.394531 23.785156 " fill-opacity="1" fill-rule="nonzero"/></g></g></g></g></g></g></g></g><g clip-path="url(#06c879e585)"><g clip-path="url(#9dfef946f8)"><g clip-path="url(#ac4f718a77)"><g clip-path="url(#b40d932b9e)"><path stroke-linecap="butt" transform="matrix(0.718299, -0.215747, 0.215747, 0.718299, 243.60992, 173.785755)" fill="none" stroke-linejoin="miter" d="M 4.997193 -0.000828739 L 105.973545 -0.0005908 C 107.300035 0.000842589 108.572974 0.524573 109.50904 1.46375 C 110.445107 2.402927 110.972493 3.670723 110.976048 4.998711 L 110.973776 21.02983 C 110.972342 22.35632 110.448612 23.629259 109.509435 24.565325 C 108.56876 25.50638 107.300963 26.033766 105.974474 26.032333 L 4.998121 26.032095 C 3.671632 26.030661 2.400191 25.501943 1.462627 24.567754 C 0.52656 23.628577 0.000672293 22.355792 0.00060744 21.034291 L -0.000610682 4.996685 C -0.000675535 3.675184 0.528043 2.403743 1.462232 1.466179 C 2.402907 0.525124 3.675692 -0.000763886 4.997193 -0.000828739 Z M 4.997193 -0.000828739 " stroke="#000000" stroke-width="8" stroke-opacity="1" stroke-miterlimit="4"/></g></g></g></g><g clip-path="url(#52e317eaf5)"><g clip-path="url(#beb270840b)"><g clip-path="url(#73be21c162)"><g transform="matrix(1, 0, 0, 1, 212, 29)"><g clip-path="url(#0109221b48)"><g clip-path="url(#cfb2cf4b1e)"><g clip-path="url(#b98e6e4ab9)"><g clip-path="url(#29b1c3e144)"><path fill="#ffffff" d="M -3.347656 15.660156 L 78.242188 -6.882812 L 81.996094 6.707031 L 0.410156 29.25 Z M -3.347656 15.660156 " fill-opacity="1" fill-rule="nonzero"/></g></g></g></g></g></g></g></g><g clip-path="url(#805b098d1c)"><g clip-path="url(#d192c4894a)"><g transform="matrix(1, 0, 0, 1, 287, 107)"><g clip-path="url(#4250c373ba)"><g clip-path="url(#80c9ed3a2a)"><g clip-path="url(#a3a0f46e9a)"><rect x="-369.5" width="540" fill="#ffbd59" height="539.999987" y="-189.499998" fill-opacity="1"/></g></g></g></g></g></g><g clip-path="url(#5b02a5101b)"><g clip-path="url(#1330b11b3d)"><path stroke-linecap="butt" transform="matrix(0.75, 0, 0, 0.75, 286.276011, 106.350814)" fill="none" stroke-linejoin="miter" d="M 13.298654 2.855165 L 14.37157 6.157249 C 14.923654 7.860374 16.506987 9.011416 18.293446 9.011416 L 21.751779 9.011416 C 22.173654 9.011416 22.548654 9.282249 22.678862 9.683291 C 22.809071 10.084332 22.668446 10.527041 22.324696 10.777041 L 19.527821 12.813499 C 18.079904 13.865582 17.475737 15.730166 18.027821 17.433291 L 19.100737 20.735375 C 19.230946 21.136416 19.085112 21.579125 18.741362 21.823916 C 18.402821 22.073916 17.939279 22.073916 17.600737 21.823916 L 14.798654 19.787458 C 13.355945 18.735374 11.397612 18.735374 9.949695 19.787458 L 7.15282 21.823916 C 6.80907 22.073916 6.345528 22.073916 6.006986 21.823916 C 5.663236 21.579125 5.522611 21.136416 5.65282 20.735375 L 6.725736 17.433291 C 7.272611 15.730166 6.668445 13.865582 5.225736 12.813499 L 2.423653 10.777041 C 2.085111 10.527041 1.939278 10.084332 2.069486 9.683291 C 2.199694 9.282249 2.574695 9.011416 2.99657 9.011416 L 6.454903 9.011416 C 8.241362 9.011416 9.824695 7.860374 10.376778 6.157249 L 11.449695 2.855165 C 11.579903 2.454123 11.954903 2.178082 12.376778 2.178082 C 12.798654 2.178082 13.168445 2.454123 13.298654 2.855165 Z M 13.298654 2.855165 " stroke="#000000" stroke-width="2" stroke-opacity="1" stroke-miterlimit="4"/></g></g><g fill="#000000" fill-opacity="1"><g transform="translate(106.628904, 335.05158)"><g><path d="M 12.515625 -21.625 C 15.484375 -21.65625 18.03125 -20.617188 20.15625 -18.515625 C 22.289062 -16.421875 23.367188 -13.875 23.390625 -10.875 C 23.421875 -7.90625 22.382812 -5.359375 20.28125 -3.234375 C 18.1875 -1.109375 15.640625 -0.03125 12.640625 0 C 10.203125 0 8.367188 -0.769531 7.140625 -2.3125 L 7.140625 8.0625 L 1.265625 8.0625 L 1.265625 -21.59375 L 7.140625 -21.59375 L 7.140625 -19.3125 C 8.285156 -20.800781 10.078125 -21.570312 12.515625 -21.625 Z M 16.375 -7.0625 C 17.4375 -8.125 17.941406 -9.382812 17.890625 -10.84375 C 17.890625 -12.320312 17.375 -13.578125 16.34375 -14.609375 C 15.269531 -15.617188 14.007812 -16.125 12.5625 -16.125 C 11.070312 -16.125 9.8125 -15.609375 8.78125 -14.578125 C 7.738281 -13.484375 7.21875 -12.222656 7.21875 -10.796875 C 7.28125 -9.285156 7.8125 -8.023438 8.8125 -7.015625 C 9.851562 -5.972656 11.113281 -5.453125 12.59375 -5.453125 C 14.113281 -5.515625 15.375 -6.050781 16.375 -7.0625 Z M 16.375 -7.0625 "/></g></g></g><g fill="#000000" fill-opacity="1"><g transform="translate(130.358902, 335.05158)"><g><path d="M 16.796875 -21.71875 L 22.6875 -21.71875 L 22.6875 0 L 16.796875 0 L 16.796875 -2.4375 C 15.597656 -0.863281 13.78125 -0.078125 11.34375 -0.078125 C 8.375 -0.0546875 5.828125 -1.09375 3.703125 -3.1875 C 1.566406 -5.289062 0.488281 -7.84375 0.46875 -10.84375 C 0.4375 -13.800781 1.46875 -16.347656 3.5625 -18.484375 C 5.664062 -20.609375 8.21875 -21.6875 11.21875 -21.71875 C 13.675781 -21.71875 15.535156 -20.914062 16.796875 -19.3125 Z M 15.03125 -7.140625 C 16.070312 -8.171875 16.59375 -9.429688 16.59375 -10.921875 C 16.59375 -12.429688 16.0625 -13.691406 15 -14.703125 C 13.925781 -15.765625 12.675781 -16.269531 11.25 -16.21875 C 9.769531 -16.21875 8.507812 -15.695312 7.46875 -14.65625 C 6.4375 -13.625 5.921875 -12.363281 5.921875 -10.875 C 5.921875 -9.414062 6.453125 -8.15625 7.515625 -7.09375 C 8.554688 -6.0625 9.816406 -5.546875 11.296875 -5.546875 C 12.804688 -5.597656 14.050781 -6.128906 15.03125 -7.140625 Z M 15.03125 -7.140625 "/></g></g></g><g fill="#000000" fill-opacity="1"><g transform="translate(151.064902, 335.05158)"><g><path d="M 9.78125 -29.28125 L 9.78125 -24.3125 L 3.90625 -24.3125 L 3.90625 -29.28125 Z M 9.78125 0 C 9.78125 2.320312 8.96875 4.3125 7.34375 5.96875 C 5.695312 7.59375 3.710938 8.40625 1.390625 8.40625 L 1.265625 8.40625 L 1.265625 2.515625 L 1.390625 2.515625 C 1.773438 2.515625 2.148438 2.429688 2.515625 2.265625 C 2.660156 2.179688 2.785156 2.097656 2.890625 2.015625 L 3.0625 1.890625 L 3.1875 1.8125 L 3.28125 1.6875 L 3.40625 1.515625 C 3.488281 1.398438 3.570312 1.273438 3.65625 1.140625 C 3.820312 0.773438 3.90625 0.394531 3.90625 0 L 3.90625 -21.59375 L 9.78125 -21.59375 Z M 9.78125 0 "/></g></g></g><g fill="#000000" fill-opacity="1"><g transform="translate(162.110899, 335.05158)"><g><path d="M 16.796875 -21.71875 L 22.6875 -21.71875 L 22.6875 0 L 16.796875 0 L 16.796875 -2.4375 C 15.597656 -0.863281 13.78125 -0.078125 11.34375 -0.078125 C 8.375 -0.0546875 5.828125 -1.09375 3.703125 -3.1875 C 1.566406 -5.289062 0.488281 -7.84375 0.46875 -10.84375 C 0.4375 -13.800781 1.46875 -16.347656 3.5625 -18.484375 C 5.664062 -20.609375 8.21875 -21.6875 11.21875 -21.71875 C 13.675781 -21.71875 15.535156 -20.914062 16.796875 -19.3125 Z M 15.03125 -7.140625 C 16.070312 -8.171875 16.59375 -9.429688 16.59375 -10.921875 C 16.59375 -12.429688 16.0625 -13.691406 15 -14.703125 C 13.925781 -15.765625 12.675781 -16.269531 11.25 -16.21875 C 9.769531 -16.21875 8.507812 -15.695312 7.46875 -14.65625 C 6.4375 -13.625 5.921875 -12.363281 5.921875 -10.875 C 5.921875 -9.414062 6.453125 -8.15625 7.515625 -7.09375 C 8.554688 -6.0625 9.816406 -5.546875 11.296875 -5.546875 C 12.804688 -5.597656 14.050781 -6.128906 15.03125 -7.140625 Z M 15.03125 -7.140625 "/></g></g></g><g fill="#000000" fill-opacity="1"><g transform="translate(186.050896, 335.05158)"><g><path d="M 27.71875 -21.671875 C 30.632812 -21.703125 33 -20.832031 34.8125 -19.0625 C 36.78125 -17.21875 37.765625 -14.628906 37.765625 -11.296875 L 37.765625 0 L 32.296875 0 L 32.296875 -10.921875 C 32.296875 -11.335938 32.226562 -11.8125 32.09375 -12.34375 C 31.894531 -12.988281 31.628906 -13.5625 31.296875 -14.0625 C 30.398438 -15.5 29.082031 -16.21875 27.34375 -16.21875 C 25.488281 -16.21875 24.144531 -15.5 23.3125 -14.0625 C 23 -13.53125 22.773438 -12.929688 22.640625 -12.265625 C 22.523438 -11.785156 22.46875 -11.3125 22.46875 -10.84375 L 22.46875 0 L 16.96875 0 L 16.96875 -10.921875 C 16.96875 -11.335938 16.898438 -11.8125 16.765625 -12.34375 C 16.585938 -12.988281 16.332031 -13.5625 16 -14.0625 C 15.070312 -15.5 13.753906 -16.21875 12.046875 -16.21875 C 10.171875 -16.21875 8.816406 -15.5 7.984375 -14.0625 C 7.671875 -13.53125 7.445312 -12.929688 7.3125 -12.265625 C 7.195312 -11.785156 7.140625 -11.3125 7.140625 -10.84375 L 7.140625 0 L 1.265625 0 L 1.265625 -21.71875 L 7.140625 -21.71875 L 7.140625 -19.453125 C 8.515625 -20.929688 10.28125 -21.671875 12.4375 -21.671875 C 15.59375 -21.722656 18.15625 -20.503906 20.125 -18.015625 L 21.875 -19.65625 C 23.53125 -21 25.476562 -21.671875 27.71875 -21.671875 Z M 27.71875 -21.671875 "/></g></g><g transform="translate(225.068893, 335.05158)"><g><path d="M 16.796875 -21.71875 L 22.6875 -21.71875 L 22.6875 0 L 16.796875 0 L 16.796875 -2.4375 C 15.597656 -0.863281 13.78125 -0.078125 11.34375 -0.078125 C 8.375 -0.0546875 5.828125 -1.09375 3.703125 -3.1875 C 1.566406 -5.289062 0.488281 -7.84375 0.46875 -10.84375 C 0.4375 -13.800781 1.46875 -16.347656 3.5625 -18.484375 C 5.664062 -20.609375 8.21875 -21.6875 11.21875 -21.71875 C 13.675781 -21.71875 15.535156 -20.914062 16.796875 -19.3125 Z M 15.03125 -7.140625 C 16.070312 -8.171875 16.59375 -9.429688 16.59375 -10.921875 C 16.59375 -12.429688 16.0625 -13.691406 15 -14.703125 C 13.925781 -15.765625 12.675781 -16.269531 11.25 -16.21875 C 9.769531 -16.21875 8.507812 -15.695312 7.46875 -14.65625 C 6.4375 -13.625 5.921875 -12.363281 5.921875 -10.875 C 5.921875 -9.414062 6.453125 -8.15625 7.515625 -7.09375 C 8.554688 -6.0625 9.816406 -5.546875 11.296875 -5.546875 C 12.804688 -5.597656 14.050781 -6.128906 15.03125 -7.140625 Z M 15.03125 -7.140625 "/></g></g></g><g fill="#000000" fill-opacity="1"><g transform="translate(248.252895, 335.05158)"><g><path d="M 10 0 C 8.539062 0 7.265625 -0.222656 6.171875 -0.671875 C 5.304688 -0.984375 4.410156 -1.554688 3.484375 -2.390625 C 1.890625 -3.878906 1.160156 -5.753906 1.296875 -8.015625 L 1.296875 -8.484375 L 6 -8.40625 L 6.390625 -8.40625 L 6.390625 -8.0625 C 6.410156 -7.363281 6.5625 -6.789062 6.84375 -6.34375 C 7.320312 -5.53125 8.375 -5.125 10 -5.125 C 11.34375 -5.125 12.304688 -5.28125 12.890625 -5.59375 C 13.203125 -5.726562 13.414062 -5.90625 13.53125 -6.125 C 13.582031 -6.21875 13.609375 -6.304688 13.609375 -6.390625 L 13.65625 -6.59375 C 13.65625 -7.175781 13.191406 -7.648438 12.265625 -8.015625 C 11.898438 -8.160156 11.476562 -8.273438 11 -8.359375 C 10.632812 -8.441406 10.226562 -8.507812 9.78125 -8.5625 C 8.101562 -8.726562 6.707031 -9.066406 5.59375 -9.578125 C 4.46875 -10.023438 3.539062 -10.640625 2.8125 -11.421875 C 1.800781 -12.566406 1.296875 -13.882812 1.296875 -15.375 C 1.296875 -16.300781 1.46875 -17.15625 1.8125 -17.9375 C 2.0625 -18.550781 2.394531 -19.097656 2.8125 -19.578125 C 4.320312 -21.304688 6.742188 -22.171875 10.078125 -22.171875 C 12.066406 -22.171875 13.75 -21.78125 15.125 -21 C 16.1875 -20.414062 17.039062 -19.617188 17.6875 -18.609375 C 18.1875 -17.847656 18.535156 -16.960938 18.734375 -15.953125 C 18.785156 -15.617188 18.828125 -15.300781 18.859375 -15 L 18.859375 -14.109375 L 13.78125 -14.109375 L 13.78125 -14.734375 C 13.75 -14.847656 13.734375 -14.960938 13.734375 -15.078125 C 13.648438 -15.390625 13.535156 -15.640625 13.390625 -15.828125 C 12.773438 -16.671875 11.671875 -17.09375 10.078125 -17.09375 C 7.722656 -17.09375 6.546875 -16.601562 6.546875 -15.625 C 6.546875 -15.125 6.828125 -14.71875 7.390625 -14.40625 C 7.984375 -14.039062 8.976562 -13.773438 10.375 -13.609375 C 13.59375 -13.273438 15.929688 -12.253906 17.390625 -10.546875 C 18.367188 -9.390625 18.859375 -8.070312 18.859375 -6.59375 L 18.859375 -6.296875 L 18.8125 -5.921875 C 18.8125 -5.554688 18.769531 -5.21875 18.6875 -4.90625 C 18.46875 -4.007812 18.050781 -3.210938 17.4375 -2.515625 C 16.726562 -1.679688 15.742188 -1.050781 14.484375 -0.625 C 13.222656 -0.207031 11.726562 0 10 0 Z M 10 0 "/></g></g></g><g fill="#000000" fill-opacity="1"><g transform="translate(107.560793, 78.716947)"><g><path d="M 14.96875 -2.9375 C 14.96875 -2.519531 14.796875 -2.15625 14.453125 -1.84375 C 14.109375 -1.53125 13.671875 -1.25 13.140625 -1 C 12.609375 -0.75 12.003906 -0.539062 11.328125 -0.375 C 10.648438 -0.207031 9.984375 -0.0703125 9.328125 0.03125 C 8.671875 0.132812 8.050781 0.210938 7.46875 0.265625 C 6.882812 0.316406 6.414062 0.34375 6.0625 0.34375 C 5.707031 0.34375 5.210938 0.332031 4.578125 0.3125 C 3.941406 0.289062 3.3125 0.210938 2.6875 0.078125 C 2.0625 -0.0546875 1.519531 -0.273438 1.0625 -0.578125 C 0.601562 -0.878906 0.375 -1.300781 0.375 -1.84375 C 0.375 -2.257812 0.519531 -2.769531 0.8125 -3.375 C 1.101562 -3.976562 1.476562 -4.632812 1.9375 -5.34375 C 2.394531 -6.050781 2.90625 -6.773438 3.46875 -7.515625 C 4.03125 -8.253906 4.582031 -8.96875 5.125 -9.65625 C 5.664062 -10.34375 6.175781 -10.972656 6.65625 -11.546875 C 7.132812 -12.117188 7.507812 -12.59375 7.78125 -12.96875 C 7.488281 -12.90625 7.117188 -12.816406 6.671875 -12.703125 C 6.222656 -12.585938 5.757812 -12.476562 5.28125 -12.375 C 4.800781 -12.269531 4.335938 -12.179688 3.890625 -12.109375 C 3.441406 -12.035156 3.0625 -12 2.75 -12 C 2.5 -12 2.21875 -12.046875 1.90625 -12.140625 C 1.59375 -12.234375 1.296875 -12.363281 1.015625 -12.53125 C 0.734375 -12.695312 0.492188 -12.894531 0.296875 -13.125 C 0.0976562 -13.351562 0 -13.613281 0 -13.90625 C 0 -14.28125 0.164062 -14.628906 0.5 -14.953125 C 0.832031 -15.273438 1.269531 -15.566406 1.8125 -15.828125 C 2.351562 -16.085938 2.957031 -16.316406 3.625 -16.515625 C 4.289062 -16.710938 4.945312 -16.878906 5.59375 -17.015625 C 6.238281 -17.148438 6.851562 -17.25 7.4375 -17.3125 C 8.019531 -17.375 8.488281 -17.40625 8.84375 -17.40625 C 9.238281 -17.40625 9.71875 -17.363281 10.28125 -17.28125 C 10.84375 -17.195312 11.390625 -17.050781 11.921875 -16.84375 C 12.453125 -16.632812 12.90625 -16.351562 13.28125 -16 C 13.65625 -15.644531 13.84375 -15.195312 13.84375 -14.65625 C 13.84375 -14.488281 13.828125 -14.335938 13.796875 -14.203125 C 13.765625 -14.066406 13.726562 -13.914062 13.6875 -13.75 C 13.644531 -13.601562 13.460938 -13.273438 13.140625 -12.765625 C 12.816406 -12.253906 12.421875 -11.648438 11.953125 -10.953125 C 11.484375 -10.253906 10.972656 -9.503906 10.421875 -8.703125 C 9.867188 -7.898438 9.34375 -7.144531 8.84375 -6.4375 C 8.34375 -5.726562 7.90625 -5.101562 7.53125 -4.5625 C 7.15625 -4.019531 6.90625 -3.65625 6.78125 -3.46875 C 7.632812 -3.695312 8.503906 -3.890625 9.390625 -4.046875 C 10.273438 -4.203125 11.15625 -4.28125 12.03125 -4.28125 C 12.238281 -4.28125 12.507812 -4.269531 12.84375 -4.25 C 13.175781 -4.226562 13.5 -4.171875 13.8125 -4.078125 C 14.125 -3.984375 14.394531 -3.847656 14.625 -3.671875 C 14.851562 -3.492188 14.96875 -3.25 14.96875 -2.9375 Z M 14.96875 -2.9375 "/></g></g></g><g fill="#000000" fill-opacity="1"><g transform="translate(130.10024, 67.299986)"><g><path d="M 14.96875 -2.9375 C 14.96875 -2.519531 14.796875 -2.15625 14.453125 -1.84375 C 14.109375 -1.53125 13.671875 -1.25 13.140625 -1 C 12.609375 -0.75 12.003906 -0.539062 11.328125 -0.375 C 10.648438 -0.207031 9.984375 -0.0703125 9.328125 0.03125 C 8.671875 0.132812 8.050781 0.210938 7.46875 0.265625 C 6.882812 0.316406 6.414062 0.34375 6.0625 0.34375 C 5.707031 0.34375 5.210938 0.332031 4.578125 0.3125 C 3.941406 0.289062 3.3125 0.210938 2.6875 0.078125 C 2.0625 -0.0546875 1.519531 -0.273438 1.0625 -0.578125 C 0.601562 -0.878906 0.375 -1.300781 0.375 -1.84375 C 0.375 -2.257812 0.519531 -2.769531 0.8125 -3.375 C 1.101562 -3.976562 1.476562 -4.632812 1.9375 -5.34375 C 2.394531 -6.050781 2.90625 -6.773438 3.46875 -7.515625 C 4.03125 -8.253906 4.582031 -8.96875 5.125 -9.65625 C 5.664062 -10.34375 6.175781 -10.972656 6.65625 -11.546875 C 7.132812 -12.117188 7.507812 -12.59375 7.78125 -12.96875 C 7.488281 -12.90625 7.117188 -12.816406 6.671875 -12.703125 C 6.222656 -12.585938 5.757812 -12.476562 5.28125 -12.375 C 4.800781 -12.269531 4.335938 -12.179688 3.890625 -12.109375 C 3.441406 -12.035156 3.0625 -12 2.75 -12 C 2.5 -12 2.21875 -12.046875 1.90625 -12.140625 C 1.59375 -12.234375 1.296875 -12.363281 1.015625 -12.53125 C 0.734375 -12.695312 0.492188 -12.894531 0.296875 -13.125 C 0.0976562 -13.351562 0 -13.613281 0 -13.90625 C 0 -14.28125 0.164062 -14.628906 0.5 -14.953125 C 0.832031 -15.273438 1.269531 -15.566406 1.8125 -15.828125 C 2.351562 -16.085938 2.957031 -16.316406 3.625 -16.515625 C 4.289062 -16.710938 4.945312 -16.878906 5.59375 -17.015625 C 6.238281 -17.148438 6.851562 -17.25 7.4375 -17.3125 C 8.019531 -17.375 8.488281 -17.40625 8.84375 -17.40625 C 9.238281 -17.40625 9.71875 -17.363281 10.28125 -17.28125 C 10.84375 -17.195312 11.390625 -17.050781 11.921875 -16.84375 C 12.453125 -16.632812 12.90625 -16.351562 13.28125 -16 C 13.65625 -15.644531 13.84375 -15.195312 13.84375 -14.65625 C 13.84375 -14.488281 13.828125 -14.335938 13.796875 -14.203125 C 13.765625 -14.066406 13.726562 -13.914062 13.6875 -13.75 C 13.644531 -13.601562 13.460938 -13.273438 13.140625 -12.765625 C 12.816406 -12.253906 12.421875 -11.648438 11.953125 -10.953125 C 11.484375 -10.253906 10.972656 -9.503906 10.421875 -8.703125 C 9.867188 -7.898438 9.34375 -7.144531 8.84375 -6.4375 C 8.34375 -5.726562 7.90625 -5.101562 7.53125 -4.5625 C 7.15625 -4.019531 6.90625 -3.65625 6.78125 -3.46875 C 7.632812 -3.695312 8.503906 -3.890625 9.390625 -4.046875 C 10.273438 -4.203125 11.15625 -4.28125 12.03125 -4.28125 C 12.238281 -4.28125 12.507812 -4.269531 12.84375 -4.25 C 13.175781 -4.226562 13.5 -4.171875 13.8125 -4.078125 C 14.125 -3.984375 14.394531 -3.847656 14.625 -3.671875 C 14.851562 -3.492188 14.96875 -3.25 14.96875 -2.9375 Z M 14.96875 -2.9375 "/></g></g></g><g fill="#000000" fill-opacity="1"><g transform="translate(213.792631, 198.374987)"><g><path d="M 14.96875 -2.9375 C 14.96875 -2.519531 14.796875 -2.15625 14.453125 -1.84375 C 14.109375 -1.53125 13.671875 -1.25 13.140625 -1 C 12.609375 -0.75 12.003906 -0.539062 11.328125 -0.375 C 10.648438 -0.207031 9.984375 -0.0703125 9.328125 0.03125 C 8.671875 0.132812 8.050781 0.210938 7.46875 0.265625 C 6.882812 0.316406 6.414062 0.34375 6.0625 0.34375 C 5.707031 0.34375 5.210938 0.332031 4.578125 0.3125 C 3.941406 0.289062 3.3125 0.210938 2.6875 0.078125 C 2.0625 -0.0546875 1.519531 -0.273438 1.0625 -0.578125 C 0.601562 -0.878906 0.375 -1.300781 0.375 -1.84375 C 0.375 -2.257812 0.519531 -2.769531 0.8125 -3.375 C 1.101562 -3.976562 1.476562 -4.632812 1.9375 -5.34375 C 2.394531 -6.050781 2.90625 -6.773438 3.46875 -7.515625 C 4.03125 -8.253906 4.582031 -8.96875 5.125 -9.65625 C 5.664062 -10.34375 6.175781 -10.972656 6.65625 -11.546875 C 7.132812 -12.117188 7.507812 -12.59375 7.78125 -12.96875 C 7.488281 -12.90625 7.117188 -12.816406 6.671875 -12.703125 C 6.222656 -12.585938 5.757812 -12.476562 5.28125 -12.375 C 4.800781 -12.269531 4.335938 -12.179688 3.890625 -12.109375 C 3.441406 -12.035156 3.0625 -12 2.75 -12 C 2.5 -12 2.21875 -12.046875 1.90625 -12.140625 C 1.59375 -12.234375 1.296875 -12.363281 1.015625 -12.53125 C 0.734375 -12.695312 0.492188 -12.894531 0.296875 -13.125 C 0.0976562 -13.351562 0 -13.613281 0 -13.90625 C 0 -14.28125 0.164062 -14.628906 0.5 -14.953125 C 0.832031 -15.273438 1.269531 -15.566406 1.8125 -15.828125 C 2.351562 -16.085938 2.957031 -16.316406 3.625 -16.515625 C 4.289062 -16.710938 4.945312 -16.878906 5.59375 -17.015625 C 6.238281 -17.148438 6.851562 -17.25 7.4375 -17.3125 C 8.019531 -17.375 8.488281 -17.40625 8.84375 -17.40625 C 9.238281 -17.40625 9.71875 -17.363281 10.28125 -17.28125 C 10.84375 -17.195312 11.390625 -17.050781 11.921875 -16.84375 C 12.453125 -16.632812 12.90625 -16.351562 13.28125 -16 C 13.65625 -15.644531 13.84375 -15.195312 13.84375 -14.65625 C 13.84375 -14.488281 13.828125 -14.335938 13.796875 -14.203125 C 13.765625 -14.066406 13.726562 -13.914062 13.6875 -13.75 C 13.644531 -13.601562 13.460938 -13.273438 13.140625 -12.765625 C 12.816406 -12.253906 12.421875 -11.648438 11.953125 -10.953125 C 11.484375 -10.253906 10.972656 -9.503906 10.421875 -8.703125 C 9.867188 -7.898438 9.34375 -7.144531 8.84375 -6.4375 C 8.34375 -5.726562 7.90625 -5.101562 7.53125 -4.5625 C 7.15625 -4.019531 6.90625 -3.65625 6.78125 -3.46875 C 7.632812 -3.695312 8.503906 -3.890625 9.390625 -4.046875 C 10.273438 -4.203125 11.15625 -4.28125 12.03125 -4.28125 C 12.238281 -4.28125 12.507812 -4.269531 12.84375 -4.25 C 13.175781 -4.226562 13.5 -4.171875 13.8125 -4.078125 C 14.125 -3.984375 14.394531 -3.847656 14.625 -3.671875 C 14.851562 -3.492188 14.96875 -3.25 14.96875 -2.9375 Z M 14.96875 -2.9375 "/></g></g></g><g clip-path="url(#902685e7e2)"><g clip-path="url(#8c3e0d9bcc)"><g transform="matrix(1, 0, 0, 1, 282, 90)"><g clip-path="url(#04adf8dae3)"><g clip-path="url(#d57b0b8f1d)"><g clip-path="url(#a7c2b55bd0)"><rect x="-364.5" width="540" fill="#ffbd59" height="539.999987" y="-172.499998" fill-opacity="1"/></g></g></g></g></g></g><g clip-path="url(#31a1f9e964)"><g clip-path="url(#6f932ea25c)"><path stroke-linecap="butt" transform="matrix(0.75, 0, 0, 0.75, 280.895612, 88.422913)" fill="none" stroke-linejoin="miter" d="M 13.300644 2.852782 L 14.37356 6.160074 C 14.920435 7.857991 16.508977 9.009033 18.295436 9.009033 L 21.748561 9.009033 C 22.175644 9.009033 22.550644 9.285074 22.680853 9.686116 C 22.811061 10.087158 22.665228 10.524658 22.326686 10.774658 L 19.524602 12.816325 C 18.081894 13.868408 17.472519 15.732992 18.024602 17.430908 L 19.097519 20.7382 C 19.227727 21.139242 19.087102 21.576742 18.743352 21.826742 C 18.399602 22.071534 17.941269 22.071534 17.597519 21.826742 L 14.800644 19.785075 C 13.352727 18.732992 11.394394 18.732992 9.951685 19.785075 L 7.149602 21.826742 C 6.81106 22.071534 6.347518 22.071534 6.003768 21.826742 C 5.665226 21.576742 5.519393 21.139242 5.649601 20.7382 L 6.722518 17.430908 C 7.274602 15.732992 6.670435 13.868408 5.222518 12.816325 L 2.425643 10.774658 C 2.081893 10.524658 1.941268 10.087158 2.071476 9.686116 C 2.201685 9.285074 2.576685 9.009033 2.99856 9.009033 L 6.456893 9.009033 C 8.243352 9.009033 9.826685 7.857991 10.378768 6.160074 L 11.451685 2.852782 C 11.581894 2.451741 11.951685 2.180907 12.37356 2.180907 C 12.795435 2.180907 13.170435 2.451741 13.300644 2.852782 Z M 13.300644 2.852782 " stroke="#000000" stroke-width="2" stroke-opacity="1" stroke-miterlimit="4"/></g></g></svg>