<svg xmlns="http://www.w3.org/2000/svg" xmlns:xlink="http://www.w3.org/1999/xlink" width="500" zoomAndPan="magnify" viewBox="0 0 375 374.999991" height="500" preserveAspectRatio="xMidYMid meet" version="1.0"><defs><filter x="0%" y="0%" width="100%" height="100%" id="2557103975"><feColorMatrix values="0 0 0 0 1 0 0 0 0 1 0 0 0 0 1 0 0 0 1 0" color-interpolation-filters="sRGB"/></filter><g/><mask id="7ebd931a41"><g filter="url(#2557103975)"><rect x="-37.5" width="450" fill="#000000" y="-37.499999" height="449.999989" fill-opacity="0.43"/></g></mask><clipPath id="2398525106"><path d="M 4 2 L 323 2 L 323 134.601562 L 4 134.601562 Z M 4 2 " clip-rule="nonzero"/></clipPath><clipPath id="290650bcd0"><path d="M 322.785156 91.320312 C 322.785156 91.351562 322.394531 92.339844 322.15625 92.851562 C 321.921875 93.363281 321.765625 93.683594 321.53125 94.351562 C 321.140625 95.726562 321.609375 98.152344 320.433594 100.546875 C 318.628906 104.027344 313.066406 109.453125 309.460938 113.09375 C 306.558594 115.9375 300.835938 120.375 300.757812 120.597656 C 300.757812 120.628906 300.757812 120.628906 300.757812 120.628906 C 300.757812 120.628906 300.757812 120.628906 300.757812 120.660156 C 300.445312 120.820312 297.152344 123.183594 297.464844 123.503906 C 297.542969 123.566406 298.015625 123.597656 298.015625 123.597656 C 298.015625 123.597656 296.289062 122.929688 294.957031 123.023438 C 291.039062 123.28125 283.667969 129.632812 275.203125 131.101562 C 265.5625 132.761719 246.042969 132.25 238.910156 131.359375 C 235.539062 130.941406 234.597656 129.410156 232.246094 129.441406 C 229.425781 129.507812 227.699219 131.773438 223.234375 132.507812 C 214.925781 133.910156 195.25 134.613281 182.628906 133.847656 C 171.027344 133.082031 154.878906 131.007812 150.175781 128.421875 C 147.039062 126.761719 149.863281 122.738281 148.53125 122.417969 C 148.136719 122.289062 147.824219 122.546875 146.960938 122.609375 C 142.964844 122.898438 118.898438 124.492188 112.238281 123.121094 C 108.316406 122.320312 109.101562 119.511719 105.574219 119.097656 C 100.085938 118.457031 89.191406 123.695312 79.3125 123.886719 C 67.242188 124.109375 44.507812 122.066406 38.003906 118.109375 C 31.417969 114.050781 37.140625 103.773438 40.980469 99.589844 C 43.253906 97.066406 51.722656 95.183594 50.859375 94.195312 C 50.074219 93.425781 43.726562 94.511719 40.902344 93.394531 C 34.476562 90.871094 35.496094 76.089844 29.144531 72.832031 C 26.089844 71.238281 20.757812 72.164062 18.171875 70.597656 C 13.3125 67.726562 12.371094 56.519531 14.410156 53.484375 C 15.191406 52.238281 18.957031 51.503906 18.484375 51.121094 C 18.015625 50.738281 13.78125 51.730469 11.980469 51.121094 C 7.589844 49.683594 2.886719 41.257812 4.375 36.5625 C 5.863281 31.835938 17.308594 26.664062 21.070312 22.929688 C 23.582031 20.4375 26.792969 18.363281 26.246094 16.511719 C 25.695312 14.980469 20.445312 12.871094 19.894531 12.488281 C 19.738281 12.425781 19.660156 12.425781 19.660156 12.394531 C 19.738281 12.265625 21.070312 12.011719 22.324219 11.753906 C 25.226562 11.085938 34.476562 9.550781 37.140625 8.816406 C 38.238281 8.53125 39.179688 8.050781 39.179688 8.019531 C 39.257812 8.019531 41.375 7.539062 42.472656 7.285156 C 43.648438 7.03125 45.765625 6.550781 45.84375 6.550781 C 45.84375 6.519531 48.351562 6.261719 49.449219 6.136719 C 50.46875 6.039062 51.878906 5.878906 52.191406 5.847656 C 52.269531 5.816406 52.347656 5.816406 52.347656 5.816406 C 52.347656 5.816406 52.269531 5.816406 52.269531 5.847656 C 52.269531 5.847656 53.054688 5.753906 53.132812 5.753906 C 53.132812 5.753906 55.640625 5.71875 56.894531 5.71875 C 58.148438 5.6875 60.65625 5.6875 60.65625 5.6875 C 60.734375 5.6875 63.164062 5.910156 64.339844 6.007812 C 65.597656 6.136719 68.027344 6.328125 68.027344 6.359375 C 68.105469 6.359375 70.300781 6.804688 71.398438 7.03125 C 72.574219 7.253906 74.765625 7.699219 74.84375 7.730469 C 74.84375 7.730469 76.726562 8.371094 77.667969 8.722656 C 78.6875 9.039062 80.566406 9.710938 80.566406 9.710938 C 80.644531 9.742188 82.058594 10.542969 82.761719 10.957031 C 83.546875 11.371094 84.957031 12.203125 85.035156 12.203125 C 85.035156 12.234375 85.976562 13.160156 86.445312 13.636719 C 86.917969 14.117188 87.859375 15.042969 87.859375 15.074219 C 87.859375 15.074219 88.171875 16.066406 88.40625 16.574219 C 88.5625 17.085938 88.875 18.078125 88.875 18.109375 C 88.875 18.140625 88.640625 19.195312 88.5625 19.640625 C 88.40625 19.992188 87.78125 20.28125 88.328125 20.566406 C 90.445312 21.75 118.742188 21.078125 123.757812 23.441406 C 127.285156 25.070312 122.742188 29.953125 124.699219 30.335938 C 125.953125 30.59375 127.835938 29.410156 130.578125 28.644531 C 136.613281 26.953125 150.253906 23.152344 160.050781 20.535156 C 169.695312 17.949219 179.335938 14.757812 188.742188 13.03125 C 196.738281 11.5625 208.417969 11.085938 212.257812 10.285156 C 213.667969 10.03125 214.765625 9.519531 214.84375 9.519531 C 214.84375 9.519531 217.117188 9.105469 218.292969 8.914062 C 219.46875 8.722656 221.742188 8.304688 221.820312 8.304688 C 221.820312 8.304688 224.253906 8.148438 225.507812 8.050781 C 226.761719 7.988281 229.191406 7.828125 229.269531 7.828125 C 229.269531 7.828125 232.246094 7.957031 232.71875 7.921875 C 232.875 7.921875 232.953125 7.890625 232.953125 7.890625 C 232.953125 7.890625 232.796875 7.921875 232.796875 7.921875 C 232.796875 7.921875 232.875 7.921875 233.03125 7.921875 C 233.5 7.957031 236.714844 8.050781 236.792969 8.050781 C 236.871094 8.050781 239.539062 8.433594 240.398438 8.5625 C 240.871094 8.625 240.871094 8.722656 241.496094 8.691406 C 245.339844 8.65625 280.847656 1.953125 281.238281 2.175781 C 281.316406 2.238281 280.300781 2.464844 280.378906 2.496094 C 280.457031 2.558594 281.476562 2.433594 282.101562 2.367188 C 283.121094 2.304688 285.785156 2.113281 285.863281 2.113281 C 285.941406 2.113281 288.371094 2.175781 289.628906 2.207031 C 290.882812 2.238281 293.3125 2.304688 293.390625 2.304688 C 293.46875 2.304688 295.820312 2.589844 296.996094 2.75 C 298.171875 2.910156 300.601562 3.199219 300.601562 3.230469 C 300.679688 3.230469 302.796875 3.742188 303.816406 4.027344 C 304.914062 4.285156 307.027344 4.792969 307.109375 4.828125 C 307.109375 4.828125 308.832031 5.527344 309.773438 5.910156 C 310.636719 6.261719 312.359375 6.964844 312.4375 6.996094 C 312.4375 6.996094 313.691406 7.890625 314.320312 8.304688 C 315.023438 8.753906 316.277344 9.617188 316.277344 9.648438 C 316.355469 9.648438 317.0625 10.605469 317.453125 11.117188 C 317.769531 11.59375 318.550781 12.554688 318.550781 12.585938 C 318.550781 12.585938 318.707031 13.605469 318.789062 14.117188 C 318.789062 14.628906 318.945312 15.617188 318.945312 15.648438 C 318.945312 15.683594 318.472656 16.671875 318.316406 17.152344 C 318.082031 17.660156 317.691406 18.332031 317.613281 18.683594 C 317.53125 18.84375 317.691406 18.875 317.53125 19.097656 C 316.828125 19.898438 308.988281 23.953125 308.988281 24.589844 C 308.988281 24.71875 309.144531 24.71875 309.378906 24.8125 C 309.773438 25.070312 311.417969 26.089844 311.417969 26.089844 C 311.417969 26.121094 312.28125 27.082031 312.671875 27.558594 C 313.066406 28.007812 313.691406 28.867188 313.769531 28.898438 C 313.847656 28.898438 313.847656 28.835938 313.847656 28.835938 C 313.847656 28.835938 313.847656 28.898438 313.847656 28.898438 C 313.847656 28.933594 313.925781 28.996094 313.925781 28.996094 C 313.925781 29.027344 314.164062 30.019531 314.242188 30.527344 C 314.398438 31.039062 314.632812 32.0625 314.632812 32.0625 C 314.632812 32.09375 314.242188 33.082031 314.082031 33.59375 C 313.847656 34.105469 313.535156 35.09375 313.535156 35.125 C 313.535156 35.125 312.359375 36.242188 312.046875 36.53125 C 311.890625 36.691406 311.890625 36.691406 311.730469 36.882812 C 310.949219 38.09375 311.496094 45.4375 308.363281 49.71875 C 304.835938 54.570312 292.449219 62.679688 290.019531 64.339844 C 289.546875 64.691406 289 64.628906 289 64.945312 C 289 66.320312 306.714844 72.769531 307.421875 75.417969 C 307.890625 76.855469 303.578125 78.738281 303.816406 78.964844 C 303.894531 78.996094 304.050781 78.996094 304.050781 78.996094 C 304.128906 78.996094 306.246094 79.507812 307.34375 79.761719 C 308.441406 80.015625 310.554688 80.527344 310.554688 80.558594 C 310.636719 80.558594 312.359375 81.261719 313.300781 81.644531 C 314.164062 81.996094 315.964844 82.699219 315.964844 82.699219 C 316.042969 82.730469 317.296875 83.59375 318.003906 84.007812 C 318.628906 84.457031 319.964844 85.316406 319.964844 85.316406 C 319.964844 85.347656 320.746094 86.308594 321.140625 86.785156 C 321.53125 87.296875 322.234375 88.222656 322.316406 88.253906 C 322.316406 88.285156 322.472656 89.277344 322.550781 89.789062 C 322.628906 90.296875 322.785156 91.320312 322.785156 91.320312 M 217.277344 106.421875 C 217.195312 106.421875 217.195312 106.453125 217.195312 106.453125 C 217.195312 106.453125 217.195312 106.453125 217.277344 106.453125 C 217.277344 106.421875 217.277344 106.421875 217.277344 106.421875 " clip-rule="nonzero"/></clipPath><mask id="003c763841"><g filter="url(#2557103975)"><rect x="-110.5" width="540" fill="#000000" y="-229.499998" height="539.999987" fill-opacity="0.5"/></g></mask><clipPath id="06ff499873"><path d="M 0 0 L 318.878906 0 L 318.878906 132.601562 L 0 132.601562 Z M 0 0 " clip-rule="nonzero"/></clipPath><clipPath id="88555e92de"><path d="M 318.785156 89.320312 C 318.785156 89.351562 318.394531 90.339844 318.15625 90.851562 C 317.921875 91.363281 317.765625 91.683594 317.53125 92.351562 C 317.140625 93.726562 317.609375 96.152344 316.433594 98.546875 C 314.628906 102.027344 309.066406 107.453125 305.460938 111.09375 C 302.558594 113.9375 296.835938 118.375 296.757812 118.597656 C 296.757812 118.628906 296.757812 118.628906 296.757812 118.628906 C 296.757812 118.628906 296.757812 118.628906 296.757812 118.660156 C 296.445312 118.820312 293.152344 121.183594 293.464844 121.503906 C 293.542969 121.566406 294.015625 121.597656 294.015625 121.597656 C 294.015625 121.597656 292.289062 120.929688 290.957031 121.023438 C 287.039062 121.28125 279.667969 127.632812 271.203125 129.101562 C 261.5625 130.761719 242.042969 130.25 234.910156 129.359375 C 231.539062 128.941406 230.597656 127.410156 228.246094 127.441406 C 225.425781 127.507812 223.699219 129.773438 219.234375 130.507812 C 210.925781 131.910156 191.25 132.613281 178.628906 131.847656 C 167.027344 131.082031 150.878906 129.007812 146.175781 126.421875 C 143.039062 124.761719 145.863281 120.738281 144.53125 120.417969 C 144.136719 120.289062 143.824219 120.546875 142.960938 120.609375 C 138.964844 120.898438 114.898438 122.492188 108.238281 121.121094 C 104.316406 120.320312 105.101562 117.511719 101.574219 117.097656 C 96.085938 116.457031 85.191406 121.695312 75.3125 121.886719 C 63.242188 122.109375 40.507812 120.066406 34.003906 116.109375 C 27.417969 112.050781 33.140625 101.773438 36.980469 97.589844 C 39.253906 95.066406 47.722656 93.183594 46.859375 92.195312 C 46.074219 91.425781 39.726562 92.511719 36.902344 91.394531 C 30.476562 88.871094 31.496094 74.089844 25.144531 70.832031 C 22.089844 69.238281 16.757812 70.164062 14.171875 68.597656 C 9.3125 65.726562 8.371094 54.519531 10.410156 51.484375 C 11.191406 50.238281 14.957031 49.503906 14.484375 49.121094 C 14.015625 48.738281 9.78125 49.730469 7.980469 49.121094 C 3.589844 47.683594 -1.113281 39.257812 0.375 34.5625 C 1.863281 29.835938 13.308594 24.664062 17.070312 20.929688 C 19.582031 18.4375 22.792969 16.363281 22.246094 14.511719 C 21.695312 12.980469 16.445312 10.871094 15.894531 10.488281 C 15.738281 10.425781 15.660156 10.425781 15.660156 10.394531 C 15.738281 10.265625 17.070312 10.011719 18.324219 9.753906 C 21.226562 9.085938 30.476562 7.550781 33.140625 6.816406 C 34.238281 6.53125 35.179688 6.050781 35.179688 6.019531 C 35.257812 6.019531 37.375 5.539062 38.472656 5.285156 C 39.648438 5.03125 41.765625 4.550781 41.84375 4.550781 C 41.84375 4.519531 44.351562 4.261719 45.449219 4.136719 C 46.46875 4.039062 47.878906 3.878906 48.191406 3.847656 C 48.269531 3.816406 48.347656 3.816406 48.347656 3.816406 C 48.347656 3.816406 48.269531 3.816406 48.269531 3.847656 C 48.269531 3.847656 49.054688 3.753906 49.132812 3.753906 C 49.132812 3.753906 51.640625 3.71875 52.894531 3.71875 C 54.148438 3.6875 56.65625 3.6875 56.65625 3.6875 C 56.734375 3.6875 59.164062 3.910156 60.339844 4.007812 C 61.597656 4.136719 64.027344 4.328125 64.027344 4.359375 C 64.105469 4.359375 66.300781 4.804688 67.398438 5.03125 C 68.574219 5.253906 70.765625 5.699219 70.84375 5.730469 C 70.84375 5.730469 72.726562 6.371094 73.667969 6.722656 C 74.6875 7.039062 76.566406 7.710938 76.566406 7.710938 C 76.644531 7.742188 78.058594 8.542969 78.761719 8.957031 C 79.546875 9.371094 80.957031 10.203125 81.035156 10.203125 C 81.035156 10.234375 81.976562 11.160156 82.445312 11.636719 C 82.917969 12.117188 83.859375 13.042969 83.859375 13.074219 C 83.859375 13.074219 84.171875 14.066406 84.40625 14.574219 C 84.5625 15.085938 84.875 16.078125 84.875 16.109375 C 84.875 16.140625 84.640625 17.195312 84.5625 17.640625 C 84.40625 17.992188 83.78125 18.28125 84.328125 18.566406 C 86.445312 19.75 114.742188 19.078125 119.757812 21.441406 C 123.285156 23.070312 118.742188 27.953125 120.699219 28.335938 C 121.953125 28.59375 123.835938 27.410156 126.578125 26.644531 C 132.613281 24.953125 146.253906 21.152344 156.050781 18.535156 C 165.695312 15.949219 175.335938 12.757812 184.742188 11.03125 C 192.738281 9.5625 204.417969 9.085938 208.257812 8.285156 C 209.667969 8.03125 210.765625 7.519531 210.84375 7.519531 C 210.84375 7.519531 213.117188 7.105469 214.292969 6.914062 C 215.46875 6.722656 217.742188 6.304688 217.820312 6.304688 C 217.820312 6.304688 220.253906 6.148438 221.507812 6.050781 C 222.761719 5.988281 225.191406 5.828125 225.269531 5.828125 C 225.269531 5.828125 228.246094 5.957031 228.71875 5.921875 C 228.875 5.921875 228.953125 5.890625 228.953125 5.890625 C 228.953125 5.890625 228.796875 5.921875 228.796875 5.921875 C 228.796875 5.921875 228.875 5.921875 229.03125 5.921875 C 229.5 5.957031 232.714844 6.050781 232.792969 6.050781 C 232.871094 6.050781 235.539062 6.433594 236.398438 6.5625 C 236.871094 6.625 236.871094 6.722656 237.496094 6.691406 C 241.339844 6.65625 276.847656 -0.046875 277.238281 0.175781 C 277.316406 0.238281 276.300781 0.464844 276.378906 0.496094 C 276.457031 0.558594 277.476562 0.433594 278.101562 0.367188 C 279.121094 0.304688 281.785156 0.113281 281.863281 0.113281 C 281.941406 0.113281 284.371094 0.175781 285.628906 0.207031 C 286.882812 0.238281 289.3125 0.304688 289.390625 0.304688 C 289.46875 0.304688 291.820312 0.589844 292.996094 0.75 C 294.171875 0.910156 296.601562 1.199219 296.601562 1.230469 C 296.679688 1.230469 298.796875 1.742188 299.816406 2.027344 C 300.914062 2.285156 303.027344 2.792969 303.109375 2.828125 C 303.109375 2.828125 304.832031 3.527344 305.773438 3.910156 C 306.636719 4.261719 308.359375 4.964844 308.4375 4.996094 C 308.4375 4.996094 309.691406 5.890625 310.320312 6.304688 C 311.023438 6.753906 312.277344 7.617188 312.277344 7.648438 C 312.355469 7.648438 313.0625 8.605469 313.453125 9.117188 C 313.769531 9.59375 314.550781 10.554688 314.550781 10.585938 C 314.550781 10.585938 314.707031 11.605469 314.789062 12.117188 C 314.789062 12.628906 314.945312 13.617188 314.945312 13.648438 C 314.945312 13.683594 314.472656 14.671875 314.316406 15.152344 C 314.082031 15.660156 313.691406 16.332031 313.613281 16.683594 C 313.53125 16.84375 313.691406 16.875 313.53125 17.097656 C 312.828125 17.898438 304.988281 21.953125 304.988281 22.589844 C 304.988281 22.71875 305.144531 22.71875 305.378906 22.8125 C 305.773438 23.070312 307.417969 24.089844 307.417969 24.089844 C 307.417969 24.121094 308.28125 25.082031 308.671875 25.558594 C 309.066406 26.007812 309.691406 26.867188 309.769531 26.898438 C 309.847656 26.898438 309.847656 26.835938 309.847656 26.835938 C 309.847656 26.835938 309.847656 26.898438 309.847656 26.898438 C 309.847656 26.933594 309.925781 26.996094 309.925781 26.996094 C 309.925781 27.027344 310.164062 28.019531 310.242188 28.527344 C 310.398438 29.039062 310.632812 30.0625 310.632812 30.0625 C 310.632812 30.09375 310.242188 31.082031 310.082031 31.59375 C 309.847656 32.105469 309.535156 33.09375 309.535156 33.125 C 309.535156 33.125 308.359375 34.242188 308.046875 34.53125 C 307.890625 34.691406 307.890625 34.691406 307.730469 34.882812 C 306.949219 36.09375 307.496094 43.4375 304.363281 47.71875 C 300.835938 52.570312 288.449219 60.679688 286.019531 62.339844 C 285.546875 62.691406 285 62.628906 285 62.945312 C 285 64.320312 302.714844 70.769531 303.421875 73.417969 C 303.890625 74.855469 299.578125 76.738281 299.816406 76.964844 C 299.894531 76.996094 300.050781 76.996094 300.050781 76.996094 C 300.128906 76.996094 302.246094 77.507812 303.34375 77.761719 C 304.441406 78.015625 306.554688 78.527344 306.554688 78.558594 C 306.636719 78.558594 308.359375 79.261719 309.300781 79.644531 C 310.164062 79.996094 311.964844 80.699219 311.964844 80.699219 C 312.042969 80.730469 313.296875 81.59375 314.003906 82.007812 C 314.628906 82.457031 315.964844 83.316406 315.964844 83.316406 C 315.964844 83.347656 316.746094 84.308594 317.140625 84.785156 C 317.53125 85.296875 318.234375 86.222656 318.316406 86.253906 C 318.316406 86.285156 318.472656 87.277344 318.550781 87.789062 C 318.628906 88.296875 318.785156 89.320312 318.785156 89.320312 M 213.277344 104.421875 C 213.195312 104.421875 213.195312 104.453125 213.195312 104.453125 C 213.195312 104.453125 213.195312 104.453125 213.277344 104.453125 C 213.277344 104.421875 213.277344 104.421875 213.277344 104.421875 " clip-rule="nonzero"/></clipPath><clipPath id="73eacb57e7"><rect x="0" width="319" y="0" height="133"/></clipPath><clipPath id="816f1bf1b3"><rect x="0" width="326" y="0" height="136"/></clipPath><mask id="1a8211ce82"><g filter="url(#2557103975)"><rect x="-37.5" width="450" fill="#000000" y="-37.499999" height="449.999989" fill-opacity="0.43"/></g></mask><clipPath id="ad382d2b92"><path d="M 3 1 L 322 1 L 322 133.652344 L 3 133.652344 Z M 3 1 " clip-rule="nonzero"/></clipPath><clipPath id="5f49189f07"><path d="M 3.304688 44.21875 C 3.304688 44.1875 3.699219 43.195312 3.933594 42.6875 C 4.167969 42.175781 4.324219 41.855469 4.558594 41.183594 C 4.953125 39.8125 4.480469 37.386719 5.65625 34.992188 C 7.460938 31.511719 13.027344 26.082031 16.632812 22.441406 C 19.53125 19.601562 25.253906 15.164062 25.332031 14.941406 C 25.332031 14.90625 25.332031 14.90625 25.332031 14.90625 C 25.332031 14.90625 25.332031 14.90625 25.332031 14.875 C 25.644531 14.714844 28.9375 12.355469 28.625 12.035156 C 28.546875 11.96875 28.078125 11.9375 28.078125 11.9375 C 28.078125 11.9375 29.800781 12.609375 31.132812 12.511719 C 35.054688 12.257812 42.421875 5.90625 50.886719 4.4375 C 60.527344 2.773438 80.046875 3.285156 87.179688 4.179688 C 90.550781 4.59375 91.492188 6.128906 93.84375 6.097656 C 96.664062 6.03125 98.390625 3.765625 102.859375 3.03125 C 111.167969 1.625 130.84375 0.921875 143.460938 1.691406 C 155.0625 2.457031 171.210938 4.53125 175.914062 7.117188 C 179.050781 8.777344 176.230469 12.800781 177.5625 13.121094 C 177.953125 13.246094 178.265625 12.992188 179.128906 12.929688 C 183.125 12.640625 207.191406 11.042969 213.855469 12.417969 C 217.773438 13.214844 216.988281 16.027344 220.515625 16.441406 C 226.003906 17.078125 236.902344 11.84375 246.777344 11.652344 C 258.847656 11.429688 281.582031 13.472656 288.085938 17.429688 C 294.671875 21.484375 288.949219 31.765625 285.109375 35.949219 C 282.835938 38.472656 274.371094 40.355469 275.230469 41.34375 C 276.015625 42.109375 282.363281 41.023438 285.1875 42.144531 C 291.613281 44.664062 290.597656 59.449219 296.945312 62.703125 C 300.003906 64.300781 305.332031 63.375 307.917969 64.941406 C 312.78125 67.8125 313.71875 79.019531 311.683594 82.054688 C 310.898438 83.296875 307.136719 84.03125 307.605469 84.414062 C 308.078125 84.800781 312.308594 83.808594 314.113281 84.414062 C 318.5 85.851562 323.203125 94.28125 321.714844 98.976562 C 320.226562 103.699219 308.78125 108.871094 305.019531 112.609375 C 302.511719 115.097656 299.296875 117.175781 299.84375 119.027344 C 300.394531 120.558594 305.644531 122.664062 306.195312 123.046875 C 306.351562 123.113281 306.429688 123.113281 306.429688 123.144531 C 306.351562 123.273438 305.019531 123.527344 303.765625 123.78125 C 300.863281 124.453125 291.613281 125.984375 288.949219 126.71875 C 287.851562 127.007812 286.910156 127.488281 286.910156 127.519531 C 286.832031 127.519531 284.714844 127.996094 283.621094 128.253906 C 282.445312 128.507812 280.328125 128.988281 280.25 128.988281 C 280.25 129.019531 277.742188 129.273438 276.644531 129.402344 C 275.625 129.5 274.210938 129.65625 273.898438 129.691406 C 273.820312 129.722656 273.742188 129.722656 273.742188 129.722656 C 273.742188 129.722656 273.820312 129.722656 273.820312 129.691406 C 273.820312 129.691406 273.035156 129.785156 272.957031 129.785156 C 272.957031 129.785156 270.449219 129.816406 269.195312 129.816406 C 267.941406 129.847656 265.433594 129.847656 265.433594 129.847656 C 265.355469 129.847656 262.925781 129.625 261.75 129.53125 C 260.496094 129.402344 258.066406 129.210938 258.066406 129.179688 C 257.988281 129.179688 255.792969 128.730469 254.695312 128.507812 C 253.519531 128.285156 251.324219 127.839844 251.246094 127.804688 C 251.246094 127.804688 249.363281 127.167969 248.421875 126.816406 C 247.40625 126.496094 245.523438 125.828125 245.523438 125.828125 C 245.445312 125.792969 244.035156 124.996094 243.328125 124.582031 C 242.542969 124.167969 241.132812 123.335938 241.054688 123.335938 C 241.054688 123.304688 240.113281 122.378906 239.644531 121.898438 C 239.171875 121.421875 238.234375 120.496094 238.234375 120.460938 C 238.234375 120.460938 237.917969 119.472656 237.683594 118.960938 C 237.527344 118.449219 237.214844 117.460938 237.214844 117.429688 C 237.214844 117.398438 237.449219 116.34375 237.527344 115.898438 C 237.683594 115.546875 238.3125 115.257812 237.761719 114.972656 C 235.644531 113.789062 207.347656 114.460938 202.332031 112.097656 C 198.804688 110.46875 203.351562 105.585938 201.390625 105.199219 C 200.136719 104.945312 198.253906 106.125 195.511719 106.894531 C 189.476562 108.585938 175.835938 112.386719 166.039062 115.003906 C 156.398438 117.589844 146.753906 120.78125 137.347656 122.507812 C 129.351562 123.976562 117.671875 124.453125 113.832031 125.25 C 112.421875 125.507812 111.324219 126.019531 111.246094 126.019531 C 111.246094 126.019531 108.972656 126.433594 107.796875 126.625 C 106.621094 126.816406 104.347656 127.230469 104.269531 127.230469 C 104.269531 127.230469 101.839844 127.390625 100.585938 127.488281 C 99.332031 127.550781 96.902344 127.710938 96.820312 127.710938 C 96.820312 127.710938 93.84375 127.582031 93.375 127.613281 C 93.214844 127.613281 93.136719 127.644531 93.136719 127.644531 C 93.136719 127.644531 93.292969 127.613281 93.292969 127.613281 C 93.292969 127.613281 93.214844 127.613281 93.058594 127.613281 C 92.589844 127.582031 89.375 127.488281 89.296875 127.488281 C 89.21875 127.488281 86.554688 127.105469 85.691406 126.976562 C 85.222656 126.914062 85.222656 126.816406 84.59375 126.847656 C 80.753906 126.878906 45.242188 133.585938 44.851562 133.363281 C 44.773438 133.296875 45.792969 133.074219 45.714844 133.042969 C 45.636719 132.976562 44.617188 133.105469 43.988281 133.171875 C 42.96875 133.234375 40.304688 133.425781 40.226562 133.425781 C 40.148438 133.425781 37.71875 133.363281 36.464844 133.328125 C 35.210938 133.296875 32.78125 133.234375 32.703125 133.234375 C 32.621094 133.234375 30.269531 132.945312 29.09375 132.785156 C 27.917969 132.628906 25.488281 132.339844 25.488281 132.308594 C 25.410156 132.308594 23.292969 131.796875 22.277344 131.511719 C 21.179688 131.253906 19.0625 130.742188 18.984375 130.710938 C 18.984375 130.710938 17.257812 130.007812 16.316406 129.625 C 15.457031 129.273438 13.730469 128.574219 13.652344 128.539062 C 13.652344 128.539062 12.398438 127.644531 11.773438 127.230469 C 11.066406 126.785156 9.8125 125.921875 9.8125 125.890625 C 9.734375 125.890625 9.027344 124.933594 8.636719 124.421875 C 8.324219 123.941406 7.539062 122.984375 7.539062 122.953125 C 7.539062 122.953125 7.382812 121.929688 7.304688 121.421875 C 7.304688 120.910156 7.148438 119.917969 7.148438 119.886719 C 7.148438 119.855469 7.617188 118.867188 7.773438 118.386719 C 8.007812 117.875 8.402344 117.207031 8.480469 116.855469 C 8.558594 116.695312 8.402344 116.664062 8.558594 116.441406 C 9.261719 115.640625 17.101562 111.585938 17.101562 110.949219 C 17.101562 110.820312 16.945312 110.820312 16.710938 110.722656 C 16.316406 110.46875 14.671875 109.449219 14.671875 109.449219 C 14.671875 109.414062 13.808594 108.457031 13.417969 107.980469 C 13.027344 107.53125 12.398438 106.667969 12.320312 106.636719 C 12.242188 106.636719 12.242188 106.703125 12.242188 106.703125 C 12.242188 106.703125 12.242188 106.636719 12.242188 106.636719 C 12.242188 106.605469 12.164062 106.542969 12.164062 106.542969 C 12.164062 106.511719 11.929688 105.519531 11.851562 105.007812 C 11.695312 104.5 11.457031 103.476562 11.457031 103.476562 C 11.457031 103.445312 11.851562 102.457031 12.007812 101.945312 C 12.242188 101.433594 12.554688 100.445312 12.554688 100.410156 C 12.554688 100.410156 13.730469 99.292969 14.046875 99.007812 C 14.203125 98.847656 14.203125 98.847656 14.359375 98.65625 C 15.140625 97.441406 14.59375 90.097656 17.730469 85.820312 C 21.257812 80.96875 33.640625 72.859375 36.070312 71.199219 C 36.542969 70.847656 37.089844 70.910156 37.089844 70.589844 C 37.089844 69.21875 19.375 62.769531 18.667969 60.117188 C 18.199219 58.679688 22.511719 56.796875 22.277344 56.574219 C 22.199219 56.542969 22.039062 56.542969 22.039062 56.542969 C 21.960938 56.542969 19.847656 56.03125 18.75 55.777344 C 17.652344 55.519531 15.535156 55.011719 15.535156 54.976562 C 15.457031 54.976562 13.730469 54.277344 12.789062 53.890625 C 11.929688 53.542969 10.125 52.839844 10.125 52.839844 C 10.046875 52.808594 8.792969 51.945312 8.085938 51.53125 C 7.460938 51.082031 6.128906 50.21875 6.128906 50.21875 C 6.128906 50.1875 5.34375 49.230469 4.953125 48.75 C 4.558594 48.242188 3.855469 47.316406 3.777344 47.285156 C 3.777344 47.25 3.621094 46.261719 3.542969 45.75 C 3.460938 45.238281 3.304688 44.21875 3.304688 44.21875 M 108.816406 29.117188 C 108.894531 29.117188 108.894531 29.085938 108.894531 29.085938 C 108.894531 29.085938 108.894531 29.085938 108.816406 29.085938 C 108.816406 29.117188 108.816406 29.117188 108.816406 29.117188 " clip-rule="nonzero"/></clipPath><mask id="25f4f33858"><g filter="url(#2557103975)"><rect x="-111.5" width="540" fill="#000000" y="-103.499998" height="539.999987" fill-opacity="0.5"/></g></mask><clipPath id="01b64d0c77"><path d="M 0.160156 0 L 319 0 L 319 132.652344 L 0.160156 132.652344 Z M 0.160156 0 " clip-rule="nonzero"/></clipPath><clipPath id="a9542baa68"><path d="M 0.304688 43.21875 C 0.304688 43.1875 0.699219 42.195312 0.933594 41.6875 C 1.167969 41.175781 1.324219 40.855469 1.558594 40.183594 C 1.953125 38.8125 1.480469 36.386719 2.65625 33.992188 C 4.460938 30.511719 10.027344 25.082031 13.632812 21.441406 C 16.53125 18.601562 22.253906 14.164062 22.332031 13.941406 C 22.332031 13.90625 22.332031 13.90625 22.332031 13.90625 C 22.332031 13.90625 22.332031 13.90625 22.332031 13.875 C 22.644531 13.714844 25.9375 11.355469 25.625 11.035156 C 25.546875 10.96875 25.078125 10.9375 25.078125 10.9375 C 25.078125 10.9375 26.800781 11.609375 28.132812 11.511719 C 32.054688 11.257812 39.421875 4.90625 47.886719 3.4375 C 57.527344 1.773438 77.046875 2.285156 84.179688 3.179688 C 87.550781 3.59375 88.492188 5.128906 90.84375 5.097656 C 93.664062 5.03125 95.390625 2.765625 99.859375 2.03125 C 108.167969 0.625 127.84375 -0.078125 140.460938 0.691406 C 152.0625 1.457031 168.210938 3.53125 172.914062 6.117188 C 176.050781 7.777344 173.230469 11.800781 174.5625 12.121094 C 174.953125 12.246094 175.265625 11.992188 176.128906 11.929688 C 180.125 11.640625 204.191406 10.042969 210.855469 11.417969 C 214.773438 12.214844 213.988281 15.027344 217.515625 15.441406 C 223.003906 16.078125 233.902344 10.84375 243.777344 10.652344 C 255.847656 10.429688 278.582031 12.472656 285.085938 16.429688 C 291.671875 20.484375 285.949219 30.765625 282.109375 34.949219 C 279.835938 37.472656 271.371094 39.355469 272.230469 40.34375 C 273.015625 41.109375 279.363281 40.023438 282.1875 41.144531 C 288.613281 43.664062 287.597656 58.449219 293.945312 61.703125 C 297.003906 63.300781 302.332031 62.375 304.917969 63.941406 C 309.78125 66.8125 310.71875 78.019531 308.683594 81.054688 C 307.898438 82.296875 304.136719 83.03125 304.605469 83.414062 C 305.078125 83.800781 309.308594 82.808594 311.113281 83.414062 C 315.5 84.851562 320.203125 93.28125 318.714844 97.976562 C 317.226562 102.699219 305.78125 107.871094 302.019531 111.609375 C 299.511719 114.097656 296.296875 116.175781 296.84375 118.027344 C 297.394531 119.558594 302.644531 121.664062 303.195312 122.046875 C 303.351562 122.113281 303.429688 122.113281 303.429688 122.144531 C 303.351562 122.273438 302.019531 122.527344 300.765625 122.78125 C 297.863281 123.453125 288.613281 124.984375 285.949219 125.71875 C 284.851562 126.007812 283.910156 126.488281 283.910156 126.519531 C 283.832031 126.519531 281.714844 126.996094 280.621094 127.253906 C 279.445312 127.507812 277.328125 127.988281 277.25 127.988281 C 277.25 128.019531 274.742188 128.273438 273.644531 128.402344 C 272.625 128.5 271.210938 128.65625 270.898438 128.691406 C 270.820312 128.722656 270.742188 128.722656 270.742188 128.722656 C 270.742188 128.722656 270.820312 128.722656 270.820312 128.691406 C 270.820312 128.691406 270.035156 128.785156 269.957031 128.785156 C 269.957031 128.785156 267.449219 128.816406 266.195312 128.816406 C 264.941406 128.847656 262.433594 128.847656 262.433594 128.847656 C 262.355469 128.847656 259.925781 128.625 258.75 128.53125 C 257.496094 128.402344 255.066406 128.210938 255.066406 128.179688 C 254.988281 128.179688 252.792969 127.730469 251.695312 127.507812 C 250.519531 127.285156 248.324219 126.839844 248.246094 126.804688 C 248.246094 126.804688 246.363281 126.167969 245.421875 125.816406 C 244.40625 125.496094 242.523438 124.828125 242.523438 124.828125 C 242.445312 124.792969 241.035156 123.996094 240.328125 123.582031 C 239.542969 123.167969 238.132812 122.335938 238.054688 122.335938 C 238.054688 122.304688 237.113281 121.378906 236.644531 120.898438 C 236.171875 120.421875 235.234375 119.496094 235.234375 119.460938 C 235.234375 119.460938 234.917969 118.472656 234.683594 117.960938 C 234.527344 117.449219 234.214844 116.460938 234.214844 116.429688 C 234.214844 116.398438 234.449219 115.34375 234.527344 114.898438 C 234.683594 114.546875 235.3125 114.257812 234.761719 113.972656 C 232.644531 112.789062 204.347656 113.460938 199.332031 111.097656 C 195.804688 109.46875 200.351562 104.585938 198.390625 104.199219 C 197.136719 103.945312 195.253906 105.125 192.511719 105.894531 C 186.476562 107.585938 172.835938 111.386719 163.039062 114.003906 C 153.398438 116.589844 143.753906 119.78125 134.347656 121.507812 C 126.351562 122.976562 114.671875 123.453125 110.832031 124.25 C 109.421875 124.507812 108.324219 125.019531 108.246094 125.019531 C 108.246094 125.019531 105.972656 125.433594 104.796875 125.625 C 103.621094 125.816406 101.347656 126.230469 101.269531 126.230469 C 101.269531 126.230469 98.839844 126.390625 97.585938 126.488281 C 96.332031 126.550781 93.902344 126.710938 93.820312 126.710938 C 93.820312 126.710938 90.84375 126.582031 90.375 126.613281 C 90.214844 126.613281 90.136719 126.644531 90.136719 126.644531 C 90.136719 126.644531 90.292969 126.613281 90.292969 126.613281 C 90.292969 126.613281 90.214844 126.613281 90.058594 126.613281 C 89.589844 126.582031 86.375 126.488281 86.296875 126.488281 C 86.21875 126.488281 83.554688 126.105469 82.691406 125.976562 C 82.222656 125.914062 82.222656 125.816406 81.59375 125.847656 C 77.753906 125.878906 42.242188 132.585938 41.851562 132.363281 C 41.773438 132.296875 42.792969 132.074219 42.714844 132.042969 C 42.636719 131.976562 41.617188 132.105469 40.988281 132.171875 C 39.96875 132.234375 37.304688 132.425781 37.226562 132.425781 C 37.148438 132.425781 34.71875 132.363281 33.464844 132.328125 C 32.210938 132.296875 29.78125 132.234375 29.703125 132.234375 C 29.621094 132.234375 27.269531 131.945312 26.09375 131.785156 C 24.917969 131.628906 22.488281 131.339844 22.488281 131.308594 C 22.410156 131.308594 20.292969 130.796875 19.277344 130.511719 C 18.179688 130.253906 16.0625 129.742188 15.984375 129.710938 C 15.984375 129.710938 14.257812 129.007812 13.316406 128.625 C 12.457031 128.273438 10.730469 127.574219 10.652344 127.539062 C 10.652344 127.539062 9.398438 126.644531 8.773438 126.230469 C 8.066406 125.785156 6.8125 124.921875 6.8125 124.890625 C 6.734375 124.890625 6.027344 123.933594 5.636719 123.421875 C 5.324219 122.941406 4.539062 121.984375 4.539062 121.953125 C 4.539062 121.953125 4.382812 120.929688 4.304688 120.421875 C 4.304688 119.910156 4.148438 118.917969 4.148438 118.886719 C 4.148438 118.855469 4.617188 117.867188 4.773438 117.386719 C 5.007812 116.875 5.402344 116.207031 5.480469 115.855469 C 5.558594 115.695312 5.402344 115.664062 5.558594 115.441406 C 6.261719 114.640625 14.101562 110.585938 14.101562 109.949219 C 14.101562 109.820312 13.945312 109.820312 13.710938 109.722656 C 13.316406 109.46875 11.671875 108.449219 11.671875 108.449219 C 11.671875 108.414062 10.808594 107.457031 10.417969 106.980469 C 10.027344 106.53125 9.398438 105.667969 9.320312 105.636719 C 9.242188 105.636719 9.242188 105.703125 9.242188 105.703125 C 9.242188 105.703125 9.242188 105.636719 9.242188 105.636719 C 9.242188 105.605469 9.164062 105.542969 9.164062 105.542969 C 9.164062 105.511719 8.929688 104.519531 8.851562 104.007812 C 8.695312 103.5 8.457031 102.476562 8.457031 102.476562 C 8.457031 102.445312 8.851562 101.457031 9.007812 100.945312 C 9.242188 100.433594 9.554688 99.445312 9.554688 99.410156 C 9.554688 99.410156 10.730469 98.292969 11.046875 98.007812 C 11.203125 97.847656 11.203125 97.847656 11.359375 97.65625 C 12.140625 96.441406 11.59375 89.097656 14.730469 84.820312 C 18.257812 79.96875 30.640625 71.859375 33.070312 70.199219 C 33.542969 69.847656 34.089844 69.910156 34.089844 69.589844 C 34.089844 68.21875 16.375 61.769531 15.667969 59.117188 C 15.199219 57.679688 19.511719 55.796875 19.277344 55.574219 C 19.199219 55.542969 19.039062 55.542969 19.039062 55.542969 C 18.960938 55.542969 16.847656 55.03125 15.75 54.777344 C 14.652344 54.519531 12.535156 54.011719 12.535156 53.976562 C 12.457031 53.976562 10.730469 53.277344 9.789062 52.890625 C 8.929688 52.542969 7.125 51.839844 7.125 51.839844 C 7.046875 51.808594 5.792969 50.945312 5.085938 50.53125 C 4.460938 50.082031 3.128906 49.21875 3.128906 49.21875 C 3.128906 49.1875 2.34375 48.230469 1.953125 47.75 C 1.558594 47.242188 0.855469 46.316406 0.777344 46.285156 C 0.777344 46.25 0.621094 45.261719 0.542969 44.75 C 0.460938 44.238281 0.304688 43.21875 0.304688 43.21875 M 105.816406 28.117188 C 105.894531 28.117188 105.894531 28.085938 105.894531 28.085938 C 105.894531 28.085938 105.894531 28.085938 105.816406 28.085938 C 105.816406 28.117188 105.816406 28.117188 105.816406 28.117188 " clip-rule="nonzero"/></clipPath><clipPath id="48c4f34a13"><rect x="0" width="319" y="0" height="133"/></clipPath><clipPath id="d4608a88f4"><rect x="0" width="326" y="0" height="135"/></clipPath><clipPath id="cca460f0a5"><path d="M 34.066406 127.988281 L 340.933594 127.988281 L 340.933594 214.984375 L 34.066406 214.984375 Z M 34.066406 127.988281 " clip-rule="nonzero"/></clipPath><clipPath id="dcfedf11b4"><path d="M 51.316406 127.988281 L 323.683594 127.988281 C 328.257812 127.988281 332.644531 129.804688 335.882812 133.039062 C 339.117188 136.277344 340.933594 140.664062 340.933594 145.238281 L 340.933594 197.734375 C 340.933594 202.308594 339.117188 206.699219 335.882812 209.933594 C 332.644531 213.167969 328.257812 214.984375 323.683594 214.984375 L 51.316406 214.984375 C 46.742188 214.984375 42.355469 213.167969 39.117188 209.933594 C 35.882812 206.699219 34.066406 202.308594 34.066406 197.734375 L 34.066406 145.238281 C 34.066406 140.664062 35.882812 136.277344 39.117188 133.039062 C 42.355469 129.804688 46.742188 127.988281 51.316406 127.988281 Z M 51.316406 127.988281 " clip-rule="nonzero"/></clipPath><clipPath id="0f3087e3fc"><path d="M 0.0664062 0.988281 L 306.933594 0.988281 L 306.933594 87.984375 L 0.0664062 87.984375 Z M 0.0664062 0.988281 " clip-rule="nonzero"/></clipPath><clipPath id="f477043bb4"><path d="M 17.316406 0.988281 L 289.683594 0.988281 C 294.257812 0.988281 298.644531 2.804688 301.882812 6.039062 C 305.117188 9.277344 306.933594 13.664062 306.933594 18.238281 L 306.933594 70.734375 C 306.933594 75.308594 305.117188 79.699219 301.882812 82.933594 C 298.644531 86.167969 294.257812 87.984375 289.683594 87.984375 L 17.316406 87.984375 C 12.742188 87.984375 8.355469 86.167969 5.117188 82.933594 C 1.882812 79.699219 0.0664062 75.308594 0.0664062 70.734375 L 0.0664062 18.238281 C 0.0664062 13.664062 1.882812 9.277344 5.117188 6.039062 C 8.355469 2.804688 12.742188 0.988281 17.316406 0.988281 Z M 17.316406 0.988281 " clip-rule="nonzero"/></clipPath><clipPath id="0ac3d111c0"><rect x="0" width="307" y="0" height="88"/></clipPath><clipPath id="04dad86bc7"><path d="M 34.082031 127.988281 L 340.816406 127.988281 L 340.816406 214.988281 L 34.082031 214.988281 Z M 34.082031 127.988281 " clip-rule="nonzero"/></clipPath><clipPath id="3f8f5e0ad4"><path d="M 51.328125 127.988281 L 323.667969 127.988281 C 328.246094 127.988281 332.632812 129.804688 335.867188 133.039062 C 339.101562 136.273438 340.917969 140.660156 340.917969 145.234375 L 340.917969 197.726562 C 340.917969 202.300781 339.101562 206.691406 335.867188 209.925781 C 332.632812 213.160156 328.246094 214.976562 323.667969 214.976562 L 51.328125 214.976562 C 46.753906 214.976562 42.367188 213.160156 39.132812 209.925781 C 35.898438 206.691406 34.082031 202.300781 34.082031 197.726562 L 34.082031 145.234375 C 34.082031 140.660156 35.898438 136.273438 39.132812 133.039062 C 42.367188 129.804688 46.753906 127.988281 51.328125 127.988281 Z M 51.328125 127.988281 " clip-rule="nonzero"/></clipPath><clipPath id="2bd6bd12f1"><path d="M 131.25 115.238281 L 243.75 115.238281 L 243.75 227.738281 L 131.25 227.738281 Z M 131.25 115.238281 " clip-rule="nonzero"/></clipPath><clipPath id="a0f0e4de85"><path d="M 148.5 115.238281 L 226.5 115.238281 C 231.074219 115.238281 235.460938 117.054688 238.699219 120.289062 C 241.933594 123.523438 243.75 127.910156 243.75 132.488281 L 243.75 210.488281 C 243.75 215.0625 241.933594 219.449219 238.699219 222.683594 C 235.460938 225.917969 231.074219 227.738281 226.5 227.738281 L 148.5 227.738281 C 143.925781 227.738281 139.539062 225.917969 136.300781 222.683594 C 133.066406 219.449219 131.25 215.0625 131.25 210.488281 L 131.25 132.488281 C 131.25 127.910156 133.066406 123.523438 136.300781 120.289062 C 139.539062 117.054688 143.925781 115.238281 148.5 115.238281 Z M 148.5 115.238281 " clip-rule="nonzero"/></clipPath><clipPath id="7c405972b0"><path d="M 0.25 0.238281 L 112.75 0.238281 L 112.75 112.738281 L 0.25 112.738281 Z M 0.25 0.238281 " clip-rule="nonzero"/></clipPath><clipPath id="666a6a6cb5"><path d="M 17.5 0.238281 L 95.5 0.238281 C 100.074219 0.238281 104.460938 2.054688 107.699219 5.289062 C 110.933594 8.523438 112.75 12.910156 112.75 17.488281 L 112.75 95.488281 C 112.75 100.0625 110.933594 104.449219 107.699219 107.683594 C 104.460938 110.917969 100.074219 112.738281 95.5 112.738281 L 17.5 112.738281 C 12.925781 112.738281 8.539062 110.917969 5.300781 107.683594 C 2.066406 104.449219 0.25 100.0625 0.25 95.488281 L 0.25 17.488281 C 0.25 12.910156 2.066406 8.523438 5.300781 5.289062 C 8.539062 2.054688 12.925781 0.238281 17.5 0.238281 Z M 17.5 0.238281 " clip-rule="nonzero"/></clipPath><clipPath id="70d9715391"><rect x="0" width="113" y="0" height="113"/></clipPath><clipPath id="89f62cd0a4"><path d="M 31.625 83.546875 L 182.164062 83.546875 L 182.164062 140.636719 L 31.625 140.636719 Z M 31.625 83.546875 " clip-rule="nonzero"/></clipPath><clipPath id="12ae5f5818"><path d="M 68.648438 83.546875 L 173.25 83.546875 C 176.3125 83.546875 179.160156 85.125 180.777344 87.726562 C 182.394531 90.328125 182.554688 93.582031 181.203125 96.328125 L 165.671875 127.855469 C 161.816406 135.679688 153.851562 140.636719 145.125 140.636719 L 40.523438 140.636719 C 37.460938 140.636719 34.613281 139.058594 32.996094 136.457031 C 31.378906 133.855469 31.214844 130.601562 32.570312 127.855469 L 48.101562 96.328125 C 51.957031 88.5 59.921875 83.546875 68.648438 83.546875 Z M 68.648438 83.546875 " clip-rule="nonzero"/></clipPath><clipPath id="6809c2990a"><path d="M 0.625 0.546875 L 151.164062 0.546875 L 151.164062 57.636719 L 0.625 57.636719 Z M 0.625 0.546875 " clip-rule="nonzero"/></clipPath><clipPath id="fddf420092"><path d="M 37.648438 0.546875 L 142.25 0.546875 C 145.3125 0.546875 148.160156 2.125 149.777344 4.726562 C 151.394531 7.328125 151.554688 10.582031 150.203125 13.328125 L 134.671875 44.855469 C 130.816406 52.679688 122.851562 57.636719 114.125 57.636719 L 9.523438 57.636719 C 6.460938 57.636719 3.613281 56.058594 1.996094 53.457031 C 0.378906 50.855469 0.214844 47.601562 1.570312 44.855469 L 17.101562 13.328125 C 20.957031 5.5 28.921875 0.546875 37.648438 0.546875 Z M 37.648438 0.546875 " clip-rule="nonzero"/></clipPath><clipPath id="4a62a99d0a"><rect x="0" width="152" y="0" height="58"/></clipPath><clipPath id="5def5ee639"><path d="M 31.558594 83.546875 L 182.703125 83.546875 L 182.703125 140.546875 L 31.558594 140.546875 Z M 31.558594 83.546875 " clip-rule="nonzero"/></clipPath><clipPath id="9d619bf5b9"><path d="M 68.65625 83.546875 L 173.238281 83.546875 C 176.300781 83.546875 179.144531 85.125 180.761719 87.726562 C 182.382812 90.328125 182.542969 93.578125 181.1875 96.324219 L 165.660156 127.847656 C 161.804688 135.671875 153.839844 140.628906 145.117188 140.628906 L 40.535156 140.628906 C 37.472656 140.628906 34.628906 139.046875 33.007812 136.445312 C 31.390625 133.84375 31.230469 130.59375 32.585938 127.847656 L 48.113281 96.324219 C 51.964844 88.5 59.933594 83.546875 68.65625 83.546875 Z M 68.65625 83.546875 " clip-rule="nonzero"/></clipPath><clipPath id="6159fd1999"><path d="M 207.257812 82.4375 L 344.351562 82.4375 L 344.351562 140.636719 L 207.257812 140.636719 Z M 207.257812 82.4375 " clip-rule="nonzero"/></clipPath><clipPath id="3e52c79805"><path d="M 307.148438 82.4375 L 216.28125 82.4375 C 213.203125 82.4375 210.34375 84.019531 208.707031 86.625 C 207.070312 89.234375 206.890625 92.496094 208.230469 95.269531 L 223.957031 127.808594 C 227.746094 135.652344 235.691406 140.636719 244.40625 140.636719 L 335.273438 140.636719 C 338.351562 140.636719 341.210938 139.054688 342.847656 136.449219 C 344.480469 133.84375 344.660156 130.578125 343.324219 127.808594 L 327.597656 95.269531 C 323.808594 87.421875 315.863281 82.4375 307.148438 82.4375 Z M 307.148438 82.4375 " clip-rule="nonzero"/></clipPath><clipPath id="99067099cb"><path d="M 0.257812 0.4375 L 137.351562 0.4375 L 137.351562 58.636719 L 0.257812 58.636719 Z M 0.257812 0.4375 " clip-rule="nonzero"/></clipPath><clipPath id="8611c41645"><path d="M 100.148438 0.4375 L 9.28125 0.4375 C 6.203125 0.4375 3.34375 2.019531 1.707031 4.625 C 0.0703125 7.234375 -0.109375 10.496094 1.230469 13.269531 L 16.957031 45.808594 C 20.746094 53.652344 28.691406 58.636719 37.40625 58.636719 L 128.273438 58.636719 C 131.351562 58.636719 134.210938 57.054688 135.847656 54.449219 C 137.480469 51.84375 137.660156 48.578125 136.324219 45.808594 L 120.597656 13.269531 C 116.808594 5.421875 108.863281 0.4375 100.148438 0.4375 Z M 100.148438 0.4375 " clip-rule="nonzero"/></clipPath><clipPath id="be5b859708"><rect x="0" width="138" y="0" height="59"/></clipPath><clipPath id="e8cc394d74"><path d="M 207.3125 82.4375 L 344.40625 82.4375 L 344.40625 140.9375 L 207.3125 140.9375 Z M 207.3125 82.4375 " clip-rule="nonzero"/></clipPath><clipPath id="0be9c473ff"><path d="M 307.144531 82.4375 L 216.285156 82.4375 C 213.210938 82.4375 210.347656 84.019531 208.714844 86.625 C 207.078125 89.230469 206.898438 92.496094 208.238281 95.265625 L 223.960938 127.804688 C 227.75 135.648438 235.695312 140.632812 244.410156 140.632812 L 335.265625 140.632812 C 338.34375 140.632812 341.203125 139.050781 342.839844 136.445312 C 344.476562 133.835938 344.65625 130.574219 343.316406 127.804688 L 327.59375 95.265625 C 323.800781 87.421875 315.859375 82.4375 307.144531 82.4375 Z M 307.144531 82.4375 " clip-rule="nonzero"/></clipPath><clipPath id="e084e43aaa"><path d="M 123.207031 59.007812 L 251.628906 59.007812 L 251.628906 140.636719 L 123.207031 140.636719 Z M 123.207031 59.007812 " clip-rule="nonzero"/></clipPath><clipPath id="a0f95fa76a"><path d="M 195.523438 63.113281 L 250.257812 130.726562 C 251.734375 132.550781 252.03125 135.058594 251.019531 137.175781 C 250.011719 139.289062 247.875 140.636719 245.53125 140.636719 L 129.46875 140.636719 C 127.125 140.636719 124.988281 139.289062 123.980469 137.175781 C 122.96875 135.058594 123.265625 132.550781 124.742188 130.726562 L 179.476562 63.113281 C 181.4375 60.691406 184.386719 59.285156 187.5 59.285156 C 190.613281 59.285156 193.5625 60.691406 195.523438 63.113281 Z M 195.523438 63.113281 " clip-rule="nonzero"/></clipPath><clipPath id="b385535feb"><path d="M 0.207031 0.28125 L 128.628906 0.28125 L 128.628906 81.636719 L 0.207031 81.636719 Z M 0.207031 0.28125 " clip-rule="nonzero"/></clipPath><clipPath id="6e167dc5bf"><path d="M 72.523438 4.113281 L 127.257812 71.726562 C 128.734375 73.550781 129.03125 76.058594 128.019531 78.175781 C 127.011719 80.289062 124.875 81.636719 122.53125 81.636719 L 6.46875 81.636719 C 4.125 81.636719 1.988281 80.289062 0.980469 78.175781 C -0.03125 76.058594 0.265625 73.550781 1.742188 71.726562 L 56.476562 4.113281 C 58.4375 1.691406 61.386719 0.285156 64.5 0.285156 C 67.613281 0.285156 70.5625 1.691406 72.523438 4.113281 Z M 72.523438 4.113281 " clip-rule="nonzero"/></clipPath><clipPath id="f89aeed652"><rect x="0" width="129" y="0" height="82"/></clipPath><clipPath id="e9404e35ac"><path d="M 123 59 L 252 59 L 252 140.953125 L 123 140.953125 Z M 123 59 " clip-rule="nonzero"/></clipPath><clipPath id="a3edc4d3c5"><path d="M 195.515625 63.113281 L 250.25 130.726562 C 251.722656 132.546875 252.019531 135.054688 251.011719 137.171875 C 250 139.285156 247.867188 140.632812 245.519531 140.632812 L 129.46875 140.632812 C 127.125 140.632812 124.988281 139.285156 123.980469 137.171875 C 122.96875 135.054688 123.265625 132.546875 124.742188 130.726562 L 179.472656 63.113281 C 181.433594 60.695312 184.378906 59.289062 187.496094 59.289062 C 190.609375 59.289062 193.558594 60.695312 195.515625 63.113281 Z M 195.515625 63.113281 " clip-rule="nonzero"/></clipPath><clipPath id="60052feb0f"><path d="M 156.152344 155.703125 L 221.269531 155.703125 L 221.269531 227.941406 L 156.152344 227.941406 Z M 156.152344 155.703125 " clip-rule="nonzero"/></clipPath><clipPath id="35fa69d16c"><path d="M 159.902344 155.703125 L 217.519531 155.703125 C 218.511719 155.703125 219.46875 156.097656 220.171875 156.800781 C 220.875 157.503906 221.269531 158.457031 221.269531 159.453125 L 221.269531 223.988281 C 221.269531 224.980469 220.875 225.933594 220.171875 226.636719 C 219.46875 227.339844 218.511719 227.738281 217.519531 227.738281 L 159.902344 227.738281 C 158.90625 227.738281 157.953125 227.339844 157.25 226.636719 C 156.546875 225.933594 156.152344 224.980469 156.152344 223.988281 L 156.152344 159.453125 C 156.152344 158.457031 156.546875 157.503906 157.25 156.800781 C 157.953125 156.097656 158.90625 155.703125 159.902344 155.703125 Z M 159.902344 155.703125 " clip-rule="nonzero"/></clipPath><clipPath id="cdd99d307e"><path d="M 0.152344 0.703125 L 65.269531 0.703125 L 65.269531 72.761719 L 0.152344 72.761719 Z M 0.152344 0.703125 " clip-rule="nonzero"/></clipPath><clipPath id="71addba72c"><path d="M 3.902344 0.703125 L 61.519531 0.703125 C 62.511719 0.703125 63.46875 1.097656 64.171875 1.800781 C 64.875 2.503906 65.269531 3.457031 65.269531 4.453125 L 65.269531 68.988281 C 65.269531 69.980469 64.875 70.933594 64.171875 71.636719 C 63.46875 72.339844 62.511719 72.738281 61.519531 72.738281 L 3.902344 72.738281 C 2.90625 72.738281 1.953125 72.339844 1.25 71.636719 C 0.546875 70.933594 0.152344 69.980469 0.152344 68.988281 L 0.152344 4.453125 C 0.152344 3.457031 0.546875 2.503906 1.25 1.800781 C 1.953125 1.097656 2.90625 0.703125 3.902344 0.703125 Z M 3.902344 0.703125 " clip-rule="nonzero"/></clipPath><clipPath id="d2519cf3ab"><rect x="0" width="66" y="0" height="73"/></clipPath><clipPath id="de1f5ea48f"><path d="M 156.152344 155.703125 L 221.402344 155.703125 L 221.402344 227.703125 L 156.152344 227.703125 Z M 156.152344 155.703125 " clip-rule="nonzero"/></clipPath><clipPath id="92dee7a1f2"><path d="M 159.902344 155.703125 L 217.511719 155.703125 C 218.503906 155.703125 219.460938 156.097656 220.164062 156.800781 C 220.867188 157.503906 221.261719 158.457031 221.261719 159.453125 L 221.261719 223.976562 C 221.261719 224.972656 220.867188 225.925781 220.164062 226.628906 C 219.460938 227.332031 218.503906 227.726562 217.511719 227.726562 L 159.902344 227.726562 C 158.910156 227.726562 157.953125 227.332031 157.25 226.628906 C 156.546875 225.925781 156.152344 224.972656 156.152344 223.976562 L 156.152344 159.453125 C 156.152344 158.457031 156.546875 157.503906 157.25 156.800781 C 157.953125 156.097656 158.910156 155.703125 159.902344 155.703125 Z M 159.902344 155.703125 " clip-rule="nonzero"/></clipPath><clipPath id="b64a30288e"><path d="M 156.152344 155.703125 L 190.269531 155.703125 L 190.269531 227.804688 L 156.152344 227.804688 Z M 156.152344 155.703125 " clip-rule="nonzero"/></clipPath><clipPath id="d316eaf246"><path d="M 159.902344 155.703125 L 186.519531 155.703125 C 187.515625 155.703125 188.46875 156.097656 189.171875 156.800781 C 189.875 157.503906 190.269531 158.457031 190.269531 159.453125 L 190.269531 223.988281 C 190.269531 224.980469 189.875 225.933594 189.171875 226.636719 C 188.46875 227.339844 187.515625 227.738281 186.519531 227.738281 L 159.902344 227.738281 C 158.90625 227.738281 157.953125 227.339844 157.25 226.636719 C 156.546875 225.933594 156.152344 224.980469 156.152344 223.988281 L 156.152344 159.453125 C 156.152344 158.457031 156.546875 157.503906 157.25 156.800781 C 157.953125 156.097656 158.90625 155.703125 159.902344 155.703125 Z M 159.902344 155.703125 " clip-rule="nonzero"/></clipPath><clipPath id="5be9271c74"><path d="M 0.152344 0.703125 L 34.269531 0.703125 L 34.269531 72.761719 L 0.152344 72.761719 Z M 0.152344 0.703125 " clip-rule="nonzero"/></clipPath><clipPath id="2ce5d204d6"><path d="M 3.902344 0.703125 L 30.519531 0.703125 C 31.515625 0.703125 32.46875 1.097656 33.171875 1.800781 C 33.875 2.503906 34.269531 3.457031 34.269531 4.453125 L 34.269531 68.988281 C 34.269531 69.980469 33.875 70.933594 33.171875 71.636719 C 32.46875 72.339844 31.515625 72.738281 30.519531 72.738281 L 3.902344 72.738281 C 2.90625 72.738281 1.953125 72.339844 1.25 71.636719 C 0.546875 70.933594 0.152344 69.980469 0.152344 68.988281 L 0.152344 4.453125 C 0.152344 3.457031 0.546875 2.503906 1.25 1.800781 C 1.953125 1.097656 2.90625 0.703125 3.902344 0.703125 Z M 3.902344 0.703125 " clip-rule="nonzero"/></clipPath><clipPath id="a2e8e8776b"><rect x="0" width="35" y="0" height="73"/></clipPath><clipPath id="8100984ccb"><path d="M 156.152344 155.703125 L 189.902344 155.703125 L 189.902344 227.703125 L 156.152344 227.703125 Z M 156.152344 155.703125 " clip-rule="nonzero"/></clipPath><clipPath id="53d906228c"><path d="M 159.902344 155.703125 L 186.515625 155.703125 C 187.511719 155.703125 188.464844 156.097656 189.167969 156.800781 C 189.871094 157.503906 190.265625 158.457031 190.265625 159.453125 L 190.265625 223.976562 C 190.265625 224.96875 189.871094 225.921875 189.167969 226.625 C 188.464844 227.328125 187.511719 227.726562 186.515625 227.726562 L 159.902344 227.726562 C 158.90625 227.726562 157.953125 227.328125 157.25 226.625 C 156.546875 225.921875 156.152344 224.96875 156.152344 223.976562 L 156.152344 159.453125 C 156.152344 158.457031 156.546875 157.503906 157.25 156.800781 C 157.953125 156.097656 158.90625 155.703125 159.902344 155.703125 Z M 159.902344 155.703125 " clip-rule="nonzero"/></clipPath><clipPath id="f773d71650"><path d="M 46.878906 147.855469 L 116.820312 147.855469 L 116.820312 201.949219 L 46.878906 201.949219 Z M 46.878906 147.855469 " clip-rule="nonzero"/></clipPath><clipPath id="de954889dd"><path d="M 56.628906 147.855469 L 106.96875 147.855469 C 112.355469 147.855469 116.71875 152.21875 116.71875 157.605469 L 116.71875 192.199219 C 116.71875 197.585938 112.355469 201.949219 106.96875 201.949219 L 56.628906 201.949219 C 51.242188 201.949219 46.878906 197.585938 46.878906 192.199219 L 46.878906 157.605469 C 46.878906 152.21875 51.242188 147.855469 56.628906 147.855469 Z M 56.628906 147.855469 " clip-rule="nonzero"/></clipPath><clipPath id="5c8a1ed3f3"><path d="M 0.878906 0.855469 L 70.820312 0.855469 L 70.820312 54.949219 L 0.878906 54.949219 Z M 0.878906 0.855469 " clip-rule="nonzero"/></clipPath><clipPath id="919c660e7e"><path d="M 10.628906 0.855469 L 60.96875 0.855469 C 66.355469 0.855469 70.71875 5.21875 70.71875 10.605469 L 70.71875 45.199219 C 70.71875 50.585938 66.355469 54.949219 60.96875 54.949219 L 10.628906 54.949219 C 5.242188 54.949219 0.878906 50.585938 0.878906 45.199219 L 0.878906 10.605469 C 0.878906 5.21875 5.242188 0.855469 10.628906 0.855469 Z M 10.628906 0.855469 " clip-rule="nonzero"/></clipPath><clipPath id="544f2d40e1"><rect x="0" width="71" y="0" height="55"/></clipPath><clipPath id="14712ad4ca"><path d="M 46.878906 147.859375 L 116.628906 147.859375 L 116.628906 201.855469 L 46.878906 201.855469 Z M 46.878906 147.859375 " clip-rule="nonzero"/></clipPath><clipPath id="99ae6e08e5"><path d="M 56.625 147.859375 L 106.960938 147.859375 C 112.34375 147.859375 116.710938 152.222656 116.710938 157.605469 L 116.710938 192.199219 C 116.710938 197.582031 112.34375 201.945312 106.960938 201.945312 L 56.625 201.945312 C 51.242188 201.945312 46.878906 197.582031 46.878906 192.199219 L 46.878906 157.605469 C 46.878906 152.222656 51.242188 147.859375 56.625 147.859375 Z M 56.625 147.859375 " clip-rule="nonzero"/></clipPath><clipPath id="4d368179f3"><path d="M 258 147.855469 L 327.945312 147.855469 L 327.945312 201.949219 L 258 201.949219 Z M 258 147.855469 " clip-rule="nonzero"/></clipPath><clipPath id="bac32fd844"><path d="M 267.75 147.855469 L 318.09375 147.855469 C 323.476562 147.855469 327.84375 152.21875 327.84375 157.605469 L 327.84375 192.199219 C 327.84375 197.585938 323.476562 201.949219 318.09375 201.949219 L 267.75 201.949219 C 262.363281 201.949219 258 197.585938 258 192.199219 L 258 157.605469 C 258 152.21875 262.363281 147.855469 267.75 147.855469 Z M 267.75 147.855469 " clip-rule="nonzero"/></clipPath><clipPath id="a3b7d61083"><path d="M 0 0.855469 L 69.945312 0.855469 L 69.945312 54.949219 L 0 54.949219 Z M 0 0.855469 " clip-rule="nonzero"/></clipPath><clipPath id="5554a049af"><path d="M 9.75 0.855469 L 60.09375 0.855469 C 65.476562 0.855469 69.84375 5.21875 69.84375 10.605469 L 69.84375 45.199219 C 69.84375 50.585938 65.476562 54.949219 60.09375 54.949219 L 9.75 54.949219 C 4.363281 54.949219 0 50.585938 0 45.199219 L 0 10.605469 C 0 5.21875 4.363281 0.855469 9.75 0.855469 Z M 9.75 0.855469 " clip-rule="nonzero"/></clipPath><clipPath id="e77b22425f"><rect x="0" width="70" y="0" height="55"/></clipPath><clipPath id="ec29483675"><path d="M 258 147.859375 L 327.75 147.859375 L 327.75 201.855469 L 258 201.855469 Z M 258 147.859375 " clip-rule="nonzero"/></clipPath><clipPath id="df5e282fc5"><path d="M 267.75 147.859375 L 318.082031 147.859375 C 323.46875 147.859375 327.832031 152.222656 327.832031 157.605469 L 327.832031 192.199219 C 327.832031 197.582031 323.46875 201.945312 318.082031 201.945312 L 267.75 201.945312 C 262.363281 201.945312 258 197.582031 258 192.199219 L 258 157.605469 C 258 152.222656 262.363281 147.859375 267.75 147.859375 Z M 267.75 147.859375 " clip-rule="nonzero"/></clipPath><clipPath id="a53ae778b3"><path d="M 175.875 187.027344 L 182.601562 187.027344 L 182.601562 193.75 L 175.875 193.75 Z M 175.875 187.027344 " clip-rule="nonzero"/></clipPath><clipPath id="61fd4747b3"><path d="M 179.238281 187.027344 C 177.378906 187.027344 175.875 188.53125 175.875 190.386719 C 175.875 192.246094 177.378906 193.75 179.238281 193.75 C 181.09375 193.75 182.601562 192.246094 182.601562 190.386719 C 182.601562 188.53125 181.09375 187.027344 179.238281 187.027344 Z M 179.238281 187.027344 " clip-rule="nonzero"/></clipPath><clipPath id="e676a7956e"><path d="M 0.875 0.0273438 L 7.601562 0.0273438 L 7.601562 6.75 L 0.875 6.75 Z M 0.875 0.0273438 " clip-rule="nonzero"/></clipPath><clipPath id="e233182ee2"><path d="M 4.238281 0.0273438 C 2.378906 0.0273438 0.875 1.53125 0.875 3.386719 C 0.875 5.246094 2.378906 6.75 4.238281 6.75 C 6.09375 6.75 7.601562 5.246094 7.601562 3.386719 C 7.601562 1.53125 6.09375 0.0273438 4.238281 0.0273438 Z M 4.238281 0.0273438 " clip-rule="nonzero"/></clipPath><clipPath id="4ce00f35f0"><rect x="0" width="8" y="0" height="7"/></clipPath><clipPath id="33f32d04bd"><path d="M 195.304688 187.027344 L 202.03125 187.027344 L 202.03125 193.75 L 195.304688 193.75 Z M 195.304688 187.027344 " clip-rule="nonzero"/></clipPath><clipPath id="6f29ebe5b8"><path d="M 198.667969 187.027344 C 196.808594 187.027344 195.304688 188.53125 195.304688 190.386719 C 195.304688 192.246094 196.808594 193.75 198.667969 193.75 C 200.523438 193.75 202.03125 192.246094 202.03125 190.386719 C 202.03125 188.53125 200.523438 187.027344 198.667969 187.027344 Z M 198.667969 187.027344 " clip-rule="nonzero"/></clipPath><clipPath id="966cb590bb"><path d="M 0.304688 0.0273438 L 7.03125 0.0273438 L 7.03125 6.75 L 0.304688 6.75 Z M 0.304688 0.0273438 " clip-rule="nonzero"/></clipPath><clipPath id="e9aa2e781c"><path d="M 3.667969 0.0273438 C 1.808594 0.0273438 0.304688 1.53125 0.304688 3.386719 C 0.304688 5.246094 1.808594 6.75 3.667969 6.75 C 5.523438 6.75 7.03125 5.246094 7.03125 3.386719 C 7.03125 1.53125 5.523438 0.0273438 3.667969 0.0273438 Z M 3.667969 0.0273438 " clip-rule="nonzero"/></clipPath><clipPath id="27e5692c31"><rect x="0" width="8" y="0" height="7"/></clipPath><clipPath id="f81f7319f4"><path d="M 45 91 L 124 91 L 124 132 L 45 132 Z M 45 91 " clip-rule="nonzero"/></clipPath><clipPath id="6daa2dd217"><path d="M 44.628906 93.320312 L 123.0625 91.316406 L 124.035156 129.34375 L 45.601562 131.347656 Z M 44.628906 93.320312 " clip-rule="nonzero"/></clipPath><clipPath id="05ee248ee2"><path d="M 78.234375 92.460938 L 114.535156 91.535156 C 117.65625 91.453125 120.570312 93.09375 122.121094 95.804688 C 123.675781 98.515625 123.617188 101.859375 121.96875 104.511719 L 114.570312 116.417969 C 109.386719 124.769531 100.34375 129.949219 90.515625 130.199219 L 54.214844 131.128906 C 51.09375 131.207031 48.179688 129.566406 46.628906 126.859375 C 45.074219 124.148438 45.132812 120.804688 46.78125 118.152344 L 54.179688 106.242188 C 59.363281 97.894531 68.40625 92.714844 78.234375 92.460938 Z M 78.234375 92.460938 " clip-rule="nonzero"/></clipPath><clipPath id="e9612a00bd"><path d="M 0 0.441406 L 78.839844 0.441406 L 78.839844 40.28125 L 0 40.28125 Z M 0 0.441406 " clip-rule="nonzero"/></clipPath><clipPath id="31f0b5db50"><path d="M -0.371094 2.320312 L 78.0625 0.316406 L 79.035156 38.34375 L 0.601562 40.347656 Z M -0.371094 2.320312 " clip-rule="nonzero"/></clipPath><clipPath id="fecabb53da"><path d="M 33.234375 1.460938 L 69.535156 0.535156 C 72.65625 0.453125 75.570312 2.09375 77.121094 4.804688 C 78.675781 7.515625 78.617188 10.859375 76.96875 13.511719 L 69.570312 25.417969 C 64.386719 33.769531 55.34375 38.949219 45.515625 39.199219 L 9.214844 40.128906 C 6.09375 40.207031 3.179688 38.566406 1.628906 35.859375 C 0.0742188 33.148438 0.132812 29.804688 1.78125 27.152344 L 9.179688 15.242188 C 14.363281 6.894531 23.40625 1.714844 33.234375 1.460938 Z M 33.234375 1.460938 " clip-rule="nonzero"/></clipPath><clipPath id="143b7ee7f2"><rect x="0" width="79" y="0" height="41"/></clipPath><clipPath id="9e4c99deec"><path d="M 145 72 L 197 72 L 197 130 L 145 130 Z M 145 72 " clip-rule="nonzero"/></clipPath><clipPath id="ab31eddf20"><path d="M 207.988281 87.332031 L 166.335938 141.28125 L 143.691406 123.800781 L 185.34375 69.851562 Z M 207.988281 87.332031 " clip-rule="nonzero"/></clipPath><clipPath id="3795e7a62a"><path d="M 192.671875 107.167969 L 181.699219 121.382812 C 177.683594 126.582031 171.359375 129.457031 164.800781 129.066406 L 151.21875 128.257812 C 149.164062 128.132812 147.34375 126.886719 146.492188 125.011719 C 145.640625 123.140625 145.894531 120.949219 147.152344 119.320312 L 181.933594 74.269531 C 183.191406 72.640625 185.246094 71.839844 187.273438 72.191406 C 189.300781 72.539062 190.96875 73.984375 191.605469 75.941406 L 195.828125 88.875 C 197.867188 95.121094 196.6875 101.96875 192.671875 107.167969 Z M 192.671875 107.167969 " clip-rule="nonzero"/></clipPath><clipPath id="35e6855923"><path d="M 0.441406 0 L 52 0 L 52 57.601562 L 0.441406 57.601562 Z M 0.441406 0 " clip-rule="nonzero"/></clipPath><clipPath id="56ac22ea85"><path d="M 62.988281 15.332031 L 21.335938 69.28125 L -1.308594 51.800781 L 40.34375 -2.148438 Z M 62.988281 15.332031 " clip-rule="nonzero"/></clipPath><clipPath id="2170671808"><path d="M 47.671875 35.167969 L 36.699219 49.382812 C 32.683594 54.582031 26.359375 57.457031 19.800781 57.066406 L 6.21875 56.257812 C 4.164062 56.132812 2.34375 54.886719 1.492188 53.011719 C 0.640625 51.140625 0.894531 48.949219 2.152344 47.320312 L 36.933594 2.269531 C 38.191406 0.640625 40.246094 -0.160156 42.273438 0.191406 C 44.300781 0.539062 45.96875 1.984375 46.605469 3.941406 L 50.828125 16.875 C 52.867188 23.121094 51.6875 29.96875 47.671875 35.167969 Z M 47.671875 35.167969 " clip-rule="nonzero"/></clipPath><clipPath id="e430d61204"><rect x="0" width="52" y="0" height="58"/></clipPath></defs><g mask="url(#7ebd931a41)"><g transform="matrix(1, 0, 0, 1, 28, 147)"><g clip-path="url(#816f1bf1b3)"><g clip-path="url(#2398525106)"><g clip-path="url(#290650bcd0)"><g mask="url(#003c763841)"><g transform="matrix(1, 0, 0, 1, 4, 2)"><g clip-path="url(#73eacb57e7)"><g clip-path="url(#06ff499873)"><g clip-path="url(#88555e92de)"><rect x="-168.5" width="648" fill="#7ed957" y="-285.499997" height="647.999984" fill-opacity="1"/></g></g></g></g></g></g></g></g></g></g><g mask="url(#1a8211ce82)"><g transform="matrix(1, 0, 0, 1, 29, 21)"><g clip-path="url(#d4608a88f4)"><g clip-path="url(#ad382d2b92)"><g clip-path="url(#5f49189f07)"><g mask="url(#25f4f33858)"><g transform="matrix(1, 0, 0, 1, 3, 1)"><g clip-path="url(#48c4f34a13)"><g clip-path="url(#01b64d0c77)"><g clip-path="url(#a9542baa68)"><rect x="-168.5" width="648" fill="#8bcfdb" y="-158.499997" height="647.999984" fill-opacity="1"/></g></g></g></g></g></g></g></g></g></g><g clip-path="url(#cca460f0a5)"><g clip-path="url(#dcfedf11b4)"><g transform="matrix(1, 0, 0, 1, 34, 127)"><g clip-path="url(#0ac3d111c0)"><g clip-path="url(#0f3087e3fc)"><g clip-path="url(#f477043bb4)"><path fill="#ffbd59" d="M 0.0664062 0.988281 L 306.933594 0.988281 L 306.933594 87.984375 L 0.0664062 87.984375 Z M 0.0664062 0.988281 " fill-opacity="1" fill-rule="nonzero"/></g></g></g></g></g></g><g clip-path="url(#04dad86bc7)"><g clip-path="url(#3f8f5e0ad4)"><path stroke-linecap="butt" transform="matrix(0.75, 0, 0, 0.75, 34.081819, 127.987991)" fill="none" stroke-linejoin="miter" d="M 22.995077 0.000387273 L 386.114892 0.000387273 C 392.219059 0.000387273 398.068018 2.422262 402.380518 6.734763 C 406.693019 11.047263 409.114894 16.896222 409.114894 22.99518 L 409.114894 92.984768 C 409.114894 99.083727 406.693019 104.937894 402.380518 109.250394 C 398.068018 113.562895 392.219059 115.98477 386.114892 115.98477 L 22.995077 115.98477 C 16.896118 115.98477 11.047159 113.562895 6.734659 109.250394 C 2.422159 104.937894 0.000283557 99.083727 0.000283557 92.984768 L 0.000283557 22.99518 C 0.000283557 16.896222 2.422159 11.047263 6.734659 6.734763 C 11.047159 2.422262 16.896118 0.000387273 22.995077 0.000387273 Z M 22.995077 0.000387273 " stroke="#000000" stroke-width="8" stroke-opacity="1" stroke-miterlimit="4"/></g></g><g clip-path="url(#2bd6bd12f1)"><g clip-path="url(#a0f0e4de85)"><g transform="matrix(1, 0, 0, 1, 131, 115)"><g clip-path="url(#70d9715391)"><g clip-path="url(#7c405972b0)"><g clip-path="url(#666a6a6cb5)"><path fill="#f4eac5" d="M 0.25 0.238281 L 112.75 0.238281 L 112.75 112.738281 L 0.25 112.738281 Z M 0.25 0.238281 " fill-opacity="1" fill-rule="nonzero"/></g></g></g></g><path stroke-linecap="butt" transform="matrix(0.75, 0, 0, 0.75, 131.249996, 115.236547)" fill="none" stroke-linejoin="miter" d="M 23.000007 0.00231256 L 127.000014 0.00231256 C 133.098973 0.00231256 138.947931 2.424188 143.26564 6.736688 C 147.57814 11.049188 150.000015 16.898147 150.000015 23.002314 L 150.000015 127.002321 C 150.000015 133.10128 147.57814 138.950238 143.26564 143.262739 C 138.947931 147.575239 133.098973 150.002322 127.000014 150.002322 L 23.000007 150.002322 C 16.901048 150.002322 11.05209 147.575239 6.734381 143.262739 C 2.421881 138.950238 0.00000549167 133.10128 0.00000549167 127.002321 L 0.00000549167 23.002314 C 0.00000549167 16.898147 2.421881 11.049188 6.734381 6.736688 C 11.05209 2.424188 16.901048 0.00231256 23.000007 0.00231256 Z M 23.000007 0.00231256 " stroke="#000000" stroke-width="8" stroke-opacity="1" stroke-miterlimit="4"/></g></g><g clip-path="url(#89f62cd0a4)"><g clip-path="url(#12ae5f5818)"><g transform="matrix(1, 0, 0, 1, 31, 83)"><g clip-path="url(#4a62a99d0a)"><g clip-path="url(#6809c2990a)"><g clip-path="url(#fddf420092)"><path fill="#bb6c3b" d="M -4.726562 0.546875 L 156.515625 0.546875 L 156.515625 57.636719 L -4.726562 57.636719 Z M -4.726562 0.546875 " fill-opacity="1" fill-rule="nonzero"/></g></g></g></g></g></g><g clip-path="url(#5def5ee639)"><g clip-path="url(#9d619bf5b9)"><path stroke-linecap="butt" transform="matrix(0.75, 0, 0, 0.75, 26.288015, 83.545247)" fill="none" stroke-linejoin="miter" d="M 56.490987 0.00217025 L 195.933713 0.00217025 C 200.017047 0.00217025 203.808714 2.106337 205.964964 5.575088 C 208.126423 9.043838 208.339965 13.377172 206.532673 17.038631 L 185.829545 59.069886 C 180.68892 69.502179 170.069127 76.111555 158.438917 76.111555 L 18.99619 76.111555 C 14.912856 76.111555 11.121189 74.00218 8.959731 70.533429 C 6.80348 67.064679 6.589939 62.731345 8.397231 59.069886 L 29.100358 17.038631 C 34.235776 6.606338 44.860777 0.00217025 56.490987 0.00217025 Z M 56.490987 0.00217025 " stroke="#000000" stroke-width="8" stroke-opacity="1" stroke-miterlimit="4"/></g></g><g clip-path="url(#6159fd1999)"><g clip-path="url(#3e52c79805)"><g transform="matrix(1, 0, 0, 1, 207, 82)"><g clip-path="url(#be5b859708)"><g clip-path="url(#99067099cb)"><g clip-path="url(#8611c41645)"><path fill="#bb6c3b" d="M -4.96875 0.4375 L 142.578125 0.4375 L 142.578125 58.636719 L -4.96875 58.636719 Z M -4.96875 0.4375 " fill-opacity="1" fill-rule="nonzero"/></g></g></g></g></g></g><g clip-path="url(#e8cc394d74)"><g clip-path="url(#0be9c473ff)"><path stroke-linecap="butt" transform="matrix(0.75, 0, 0, 0.75, 202.037775, 82.437146)" fill="none" stroke-linejoin="miter" d="M 140.142351 0.000472285 L 18.996509 0.000472285 C 14.897551 0.000472285 11.079842 2.109847 8.902759 5.583806 C 6.720467 9.057765 6.480883 13.411931 8.267342 17.10464 L 29.230885 60.49006 C 34.282969 70.948394 44.876719 77.594227 56.496512 77.594227 L 177.637145 77.594227 C 181.741312 77.594227 185.553812 75.484852 187.736104 72.010894 C 189.918395 68.531727 190.157979 64.182768 188.37152 60.49006 L 167.407977 17.10464 C 162.350685 6.646306 151.762143 0.000472285 140.142351 0.000472285 Z M 140.142351 0.000472285 " stroke="#000000" stroke-width="8" stroke-opacity="1" stroke-miterlimit="4"/></g></g><g clip-path="url(#e084e43aaa)"><g clip-path="url(#a0f95fa76a)"><g transform="matrix(1, 0, 0, 1, 123, 59)"><g clip-path="url(#f89aeed652)"><g clip-path="url(#b385535feb)"><g clip-path="url(#6e167dc5bf)"><path fill="#bb6c3b" d="M -6.28125 -5.796875 L 135.117188 -5.796875 L 135.117188 81.636719 L -6.28125 81.636719 Z M -6.28125 -5.796875 " fill-opacity="1" fill-rule="nonzero"/></g></g></g></g></g></g><g clip-path="url(#e9404e35ac)"><g clip-path="url(#a3edc4d3c5)"><path stroke-linecap="butt" transform="matrix(0.75, 0, 0, 0.75, 116.719281, 53.205052)" fill="none" stroke-linejoin="miter" d="M 105.061792 13.210973 L 178.040959 103.362015 C 180.004501 105.789098 180.400334 109.132848 179.056584 111.955765 C 177.707626 114.773473 174.863876 116.570348 171.733668 116.570348 L 16.999292 116.570348 C 13.874292 116.570348 11.025334 114.773473 9.681584 111.955765 C 8.332626 109.132848 8.728459 105.789098 10.697209 103.362015 L 83.671167 13.210973 C 86.285751 9.987014 90.212834 8.112014 94.369084 8.112014 C 98.520126 8.112014 102.452417 9.987014 105.061792 13.210973 Z M 105.061792 13.210973 " stroke="#000000" stroke-width="8" stroke-opacity="1" stroke-miterlimit="4"/></g></g><g clip-path="url(#60052feb0f)"><g clip-path="url(#35fa69d16c)"><g transform="matrix(1, 0, 0, 1, 156, 155)"><g clip-path="url(#d2519cf3ab)"><g clip-path="url(#cdd99d307e)"><g clip-path="url(#71addba72c)"><path fill="#c5e9ff" d="M 0.152344 0.703125 L 65.269531 0.703125 L 65.269531 72.6875 L 0.152344 72.6875 Z M 0.152344 0.703125 " fill-opacity="1" fill-rule="nonzero"/></g></g></g></g></g></g><g clip-path="url(#de1f5ea48f)"><g clip-path="url(#92dee7a1f2)"><path stroke-linecap="butt" transform="matrix(0.75, 0, 0, 0.75, 156.153275, 155.702596)" fill="none" stroke-linejoin="miter" d="M 4.998759 0.000705099 L 81.811264 0.000705099 C 83.13418 0.000705099 84.410222 0.526747 85.347722 1.464247 C 86.285222 2.401747 86.811264 3.67258 86.811264 5.000705 L 86.811264 91.031961 C 86.811264 92.360086 86.285222 93.63092 85.347722 94.56842 C 84.410222 95.50592 83.13418 96.031961 81.811264 96.031961 L 4.998759 96.031961 C 3.675842 96.031961 2.3998 95.50592 1.4623 94.56842 C 0.5248 93.63092 -0.00124173 92.360086 -0.00124173 91.031961 L -0.00124173 5.000705 C -0.00124173 3.67258 0.5248 2.401747 1.4623 1.464247 C 2.3998 0.526747 3.675842 0.000705099 4.998759 0.000705099 Z M 4.998759 0.000705099 " stroke="#000000" stroke-width="8" stroke-opacity="1" stroke-miterlimit="4"/></g></g><g clip-path="url(#b64a30288e)"><g clip-path="url(#d316eaf246)"><g transform="matrix(1, 0, 0, 1, 156, 155)"><g clip-path="url(#a2e8e8776b)"><g clip-path="url(#5be9271c74)"><g clip-path="url(#2ce5d204d6)"><path fill="#c5e9ff" d="M 0.152344 0.703125 L 34.269531 0.703125 L 34.269531 72.671875 L 0.152344 72.671875 Z M 0.152344 0.703125 " fill-opacity="1" fill-rule="nonzero"/></g></g></g></g></g></g><g clip-path="url(#8100984ccb)"><g clip-path="url(#53d906228c)"><path stroke-linecap="butt" transform="matrix(0.75, 0, 0, 0.75, 156.152176, 155.703652)" fill="none" stroke-linejoin="miter" d="M 5.000224 -0.000702901 L 40.484602 -0.000702901 C 41.812727 -0.000702901 43.08356 0.525339 44.02106 1.462839 C 44.95856 2.400339 45.484602 3.671172 45.484602 4.999297 L 45.484602 91.030553 C 45.484602 92.35347 44.95856 93.624303 44.02106 94.561803 C 43.08356 95.499303 41.812727 96.030553 40.484602 96.030553 L 5.000224 96.030553 C 3.672099 96.030553 2.401266 95.499303 1.463766 94.561803 C 0.526266 93.624303 0.000223872 92.35347 0.000223872 91.030553 L 0.000223872 4.999297 C 0.000223872 3.671172 0.526266 2.400339 1.463766 1.462839 C 2.401266 0.525339 3.672099 -0.000702901 5.000224 -0.000702901 Z M 5.000224 -0.000702901 " stroke="#000000" stroke-width="8" stroke-opacity="1" stroke-miterlimit="4"/></g></g><g clip-path="url(#f773d71650)"><g clip-path="url(#de954889dd)"><g transform="matrix(1, 0, 0, 1, 46, 147)"><g clip-path="url(#544f2d40e1)"><g clip-path="url(#5c8a1ed3f3)"><g clip-path="url(#919c660e7e)"><path fill="#d9d9d9" d="M 0.878906 0.855469 L 70.820312 0.855469 L 70.820312 54.949219 L 0.878906 54.949219 Z M 0.878906 0.855469 " fill-opacity="1" fill-rule="nonzero"/></g></g></g></g></g></g><g clip-path="url(#14712ad4ca)"><g clip-path="url(#99ae6e08e5)"><path stroke-linecap="butt" transform="matrix(0.75, 0, 0, 0.75, 46.877044, 147.857803)" fill="none" stroke-linejoin="miter" d="M 12.997275 0.00209588 L 80.111858 0.00209588 C 87.288942 0.00209588 93.111858 5.819804 93.111858 12.996888 L 93.111858 59.121888 C 93.111858 66.298971 87.288942 72.116679 80.111858 72.116679 L 12.997275 72.116679 C 5.820192 72.116679 0.00248324 66.298971 0.00248324 59.121888 L 0.00248324 12.996888 C 0.00248324 5.819804 5.820192 0.00209588 12.997275 0.00209588 Z M 12.997275 0.00209588 " stroke="#000000" stroke-width="8" stroke-opacity="1" stroke-miterlimit="4"/></g></g><g clip-path="url(#4d368179f3)"><g clip-path="url(#bac32fd844)"><g transform="matrix(1, 0, 0, 1, 258, 147)"><g clip-path="url(#e77b22425f)"><g clip-path="url(#a3b7d61083)"><g clip-path="url(#5554a049af)"><path fill="#d9d9d9" d="M 0 0.855469 L 69.945312 0.855469 L 69.945312 54.949219 L 0 54.949219 Z M 0 0.855469 " fill-opacity="1" fill-rule="nonzero"/></g></g></g></g></g></g><g clip-path="url(#ec29483675)"><g clip-path="url(#df5e282fc5)"><path stroke-linecap="butt" transform="matrix(0.75, 0, 0, 0.75, 257.999988, 147.857803)" fill="none" stroke-linejoin="miter" d="M 13.000017 0.00209588 L 80.109392 0.00209588 C 87.291683 0.00209588 93.109392 5.819804 93.109392 12.996888 L 93.109392 59.121888 C 93.109392 66.298971 87.291683 72.116679 80.109392 72.116679 L 13.000017 72.116679 C 5.817725 72.116679 0.0000165893 66.298971 0.0000165893 59.121888 L 0.0000165893 12.996888 C 0.0000165893 5.819804 5.817725 0.00209588 13.000017 0.00209588 Z M 13.000017 0.00209588 " stroke="#000000" stroke-width="8" stroke-opacity="1" stroke-miterlimit="4"/></g></g><g clip-path="url(#a53ae778b3)"><g clip-path="url(#61fd4747b3)"><g transform="matrix(1, 0, 0, 1, 175, 187)"><g clip-path="url(#4ce00f35f0)"><g clip-path="url(#e676a7956e)"><g clip-path="url(#e233182ee2)"><path fill="#000000" d="M 0.875 0.0273438 L 7.601562 0.0273438 L 7.601562 6.75 L 0.875 6.75 Z M 0.875 0.0273438 " fill-opacity="1" fill-rule="nonzero"/></g></g></g></g></g></g><g clip-path="url(#33f32d04bd)"><g clip-path="url(#6f29ebe5b8)"><g transform="matrix(1, 0, 0, 1, 195, 187)"><g clip-path="url(#27e5692c31)"><g clip-path="url(#966cb590bb)"><g clip-path="url(#e9aa2e781c)"><path fill="#000000" d="M 0.304688 0.0273438 L 7.03125 0.0273438 L 7.03125 6.75 L 0.304688 6.75 Z M 0.304688 0.0273438 " fill-opacity="1" fill-rule="nonzero"/></g></g></g></g></g></g><g clip-path="url(#f81f7319f4)"><g clip-path="url(#6daa2dd217)"><g clip-path="url(#05ee248ee2)"><g transform="matrix(1, 0, 0, 1, 45, 91)"><g clip-path="url(#143b7ee7f2)"><g clip-path="url(#e9612a00bd)"><g clip-path="url(#31f0b5db50)"><g clip-path="url(#fecabb53da)"><path fill="#cf7f4d" d="M -7.5 2.503906 L 85.339844 0.128906 L 86.3125 38.15625 L -6.527344 40.53125 Z M -7.5 2.503906 " fill-opacity="1" fill-rule="nonzero"/></g></g></g></g></g></g></g></g><g clip-path="url(#9e4c99deec)"><g clip-path="url(#ab31eddf20)"><g clip-path="url(#3795e7a62a)"><g transform="matrix(1, 0, 0, 1, 145, 72)"><g clip-path="url(#e430d61204)"><g clip-path="url(#35e6855923)"><g clip-path="url(#56ac22ea85)"><g clip-path="url(#2170671808)"><path fill="#cf7f4d" d="M 65.992188 11.4375 L 18.398438 73.085938 L -4.246094 55.605469 L 43.347656 -6.042969 Z M 65.992188 11.4375 " fill-opacity="1" fill-rule="nonzero"/></g></g></g></g></g></g></g></g><g fill="#000000" fill-opacity="1"><g transform="translate(128.698239, 335.051551)"><g><path d="M 10 0 C 8.539062 0 7.265625 -0.222656 6.171875 -0.671875 C 5.304688 -0.984375 4.410156 -1.554688 3.484375 -2.390625 C 1.890625 -3.878906 1.160156 -5.753906 1.296875 -8.015625 L 1.296875 -8.484375 L 6 -8.40625 L 6.390625 -8.40625 L 6.390625 -8.0625 C 6.410156 -7.363281 6.5625 -6.789062 6.84375 -6.34375 C 7.320312 -5.53125 8.375 -5.125 10 -5.125 C 11.34375 -5.125 12.304688 -5.28125 12.890625 -5.59375 C 13.203125 -5.726562 13.414062 -5.90625 13.53125 -6.125 C 13.582031 -6.21875 13.609375 -6.304688 13.609375 -6.390625 L 13.65625 -6.59375 C 13.65625 -7.175781 13.191406 -7.648438 12.265625 -8.015625 C 11.898438 -8.160156 11.476562 -8.273438 11 -8.359375 C 10.632812 -8.441406 10.226562 -8.507812 9.78125 -8.5625 C 8.101562 -8.726562 6.707031 -9.066406 5.59375 -9.578125 C 4.46875 -10.023438 3.539062 -10.640625 2.8125 -11.421875 C 1.800781 -12.566406 1.296875 -13.882812 1.296875 -15.375 C 1.296875 -16.300781 1.46875 -17.15625 1.8125 -17.9375 C 2.0625 -18.550781 2.394531 -19.097656 2.8125 -19.578125 C 4.320312 -21.304688 6.742188 -22.171875 10.078125 -22.171875 C 12.066406 -22.171875 13.75 -21.78125 15.125 -21 C 16.1875 -20.414062 17.039062 -19.617188 17.6875 -18.609375 C 18.1875 -17.847656 18.535156 -16.960938 18.734375 -15.953125 C 18.785156 -15.617188 18.828125 -15.300781 18.859375 -15 L 18.859375 -14.109375 L 13.78125 -14.109375 L 13.78125 -14.734375 C 13.75 -14.847656 13.734375 -14.960938 13.734375 -15.078125 C 13.648438 -15.390625 13.535156 -15.640625 13.390625 -15.828125 C 12.773438 -16.671875 11.671875 -17.09375 10.078125 -17.09375 C 7.722656 -17.09375 6.546875 -16.601562 6.546875 -15.625 C 6.546875 -15.125 6.828125 -14.71875 7.390625 -14.40625 C 7.984375 -14.039062 8.976562 -13.773438 10.375 -13.609375 C 13.59375 -13.273438 15.929688 -12.253906 17.390625 -10.546875 C 18.367188 -9.390625 18.859375 -8.070312 18.859375 -6.59375 L 18.859375 -6.296875 L 18.8125 -5.921875 C 18.8125 -5.554688 18.769531 -5.21875 18.6875 -4.90625 C 18.46875 -4.007812 18.050781 -3.210938 17.4375 -2.515625 C 16.726562 -1.679688 15.742188 -1.050781 14.484375 -0.625 C 13.222656 -0.207031 11.726562 0 10 0 Z M 10 0 "/></g></g></g><g fill="#000000" fill-opacity="1"><g transform="translate(148.81623, 335.051551)"><g><path d="M 18.5625 -2.609375 C 16.519531 -0.867188 14.140625 0 11.421875 0 C 8.429688 -0.03125 5.882812 -1.109375 3.78125 -3.234375 C 1.675781 -5.359375 0.640625 -7.90625 0.671875 -10.875 C 0.703125 -13.875 1.78125 -16.421875 3.90625 -18.515625 C 6.03125 -20.617188 8.578125 -21.65625 11.546875 -21.625 C 14.234375 -21.601562 16.585938 -20.707031 18.609375 -18.9375 L 14.703125 -15.078125 C 13.742188 -15.773438 12.679688 -16.125 11.515625 -16.125 C 10.054688 -16.125 8.796875 -15.617188 7.734375 -14.609375 C 6.691406 -13.578125 6.171875 -12.320312 6.171875 -10.84375 C 6.117188 -9.382812 6.625 -8.125 7.6875 -7.0625 C 8.695312 -6.050781 9.957031 -5.515625 11.46875 -5.453125 C 12.644531 -5.453125 13.707031 -5.804688 14.65625 -6.515625 Z M 18.5625 -2.609375 "/></g></g></g><g fill="#000000" fill-opacity="1"><g transform="translate(168.052225, 335.051551)"><g><path d="M 23.3125 0 L 17.84375 0 L 17.84375 -10.671875 L 17.8125 -10.671875 L 17.8125 -10.796875 C 17.8125 -12.253906 17.289062 -13.5 16.25 -14.53125 C 15.21875 -15.570312 13.957031 -16.09375 12.46875 -16.09375 C 11.019531 -16.09375 9.757812 -15.554688 8.6875 -14.484375 C 7.625 -13.421875 7.125 -12.160156 7.1875 -10.703125 L 7.1875 -10.671875 L 7.140625 -10.671875 L 7.140625 0 L 1.265625 0 L 1.265625 -27.296875 L 7.140625 -27.296875 L 7.140625 -18.90625 C 8.453125 -20.46875 10.21875 -21.347656 12.4375 -21.546875 C 15.507812 -21.796875 18.054688 -21 20.078125 -19.15625 C 22.234375 -17.164062 23.3125 -14.378906 23.3125 -10.796875 Z M 23.3125 0 "/></g></g></g><g fill="#000000" fill-opacity="1"><g transform="translate(192.62222, 335.051551)"><g><path d="M 11.21875 -21.625 C 14.207031 -21.65625 16.753906 -20.617188 18.859375 -18.515625 C 20.984375 -16.390625 22.046875 -13.84375 22.046875 -10.875 C 22.078125 -7.882812 21.039062 -5.335938 18.9375 -3.234375 C 16.84375 -1.109375 14.3125 -0.03125 11.34375 0 C 8.34375 0.03125 5.78125 -1.003906 3.65625 -3.109375 C 1.53125 -5.210938 0.46875 -7.757812 0.46875 -10.75 C 0.4375 -13.75 1.46875 -16.296875 3.5625 -18.390625 C 5.664062 -20.523438 8.21875 -21.601562 11.21875 -21.625 Z M 15.03125 -7.0625 C 16.070312 -8.09375 16.59375 -9.351562 16.59375 -10.84375 C 16.59375 -12.289062 16.0625 -13.546875 15 -14.609375 C 13.925781 -15.617188 12.664062 -16.125 11.21875 -16.125 C 9.757812 -16.125 8.507812 -15.609375 7.46875 -14.578125 C 6.4375 -13.484375 5.921875 -12.222656 5.921875 -10.796875 C 5.921875 -9.335938 6.453125 -8.078125 7.515625 -7.015625 C 8.554688 -5.972656 9.816406 -5.453125 11.296875 -5.453125 C 12.804688 -5.515625 14.050781 -6.050781 15.03125 -7.0625 Z M 15.03125 -7.0625 "/></g></g></g><g fill="#000000" fill-opacity="1"><g transform="translate(215.386211, 335.051551)"><g><path d="M 11.21875 -21.625 C 14.207031 -21.65625 16.753906 -20.617188 18.859375 -18.515625 C 20.984375 -16.390625 22.046875 -13.84375 22.046875 -10.875 C 22.078125 -7.882812 21.039062 -5.335938 18.9375 -3.234375 C 16.84375 -1.109375 14.3125 -0.03125 11.34375 0 C 8.34375 0.03125 5.78125 -1.003906 3.65625 -3.109375 C 1.53125 -5.210938 0.46875 -7.757812 0.46875 -10.75 C 0.4375 -13.75 1.46875 -16.296875 3.5625 -18.390625 C 5.664062 -20.523438 8.21875 -21.601562 11.21875 -21.625 Z M 15.03125 -7.0625 C 16.070312 -8.09375 16.59375 -9.351562 16.59375 -10.84375 C 16.59375 -12.289062 16.0625 -13.546875 15 -14.609375 C 13.925781 -15.617188 12.664062 -16.125 11.21875 -16.125 C 9.757812 -16.125 8.507812 -15.609375 7.46875 -14.578125 C 6.4375 -13.484375 5.921875 -12.222656 5.921875 -10.796875 C 5.921875 -9.335938 6.453125 -8.078125 7.515625 -7.015625 C 8.554688 -5.972656 9.816406 -5.453125 11.296875 -5.453125 C 12.804688 -5.515625 14.050781 -6.050781 15.03125 -7.0625 Z M 15.03125 -7.0625 "/></g></g></g><g fill="#000000" fill-opacity="1"><g transform="translate(237.898203, 335.051551)"><g><path d="M 7.140625 -29.1875 L 7.140625 0 L 1.265625 0 L 1.265625 -29.1875 Z M 7.140625 -29.1875 "/></g></g></g></svg>