<svg xmlns="http://www.w3.org/2000/svg" xmlns:xlink="http://www.w3.org/1999/xlink" width="500" zoomAndPan="magnify" viewBox="0 0 375 374.999991" height="500" preserveAspectRatio="xMidYMid meet" version="1.0"><defs><filter x="0%" y="0%" width="100%" height="100%" id="72d5f2118b"><feColorMatrix values="0 0 0 0 1 0 0 0 0 1 0 0 0 0 1 0 0 0 1 0" color-interpolation-filters="sRGB"/></filter><g/><mask id="c24a200686"><g filter="url(#72d5f2118b)"><rect x="-37.5" width="450" fill="#000000" y="-37.499999" height="449.999989" fill-opacity="0.43"/></g></mask><clipPath id="5e825ba57a"><path d="M 3.527344 2.410156 L 349.628906 2.410156 L 349.628906 233.386719 L 3.527344 233.386719 Z M 3.527344 2.410156 " clip-rule="nonzero"/></clipPath><clipPath id="10c14cfbc3"><path d="M 3.992188 77.484375 C 3.992188 77.429688 4.417969 75.699219 4.671875 74.808594 C 4.925781 73.914062 5.09375 73.355469 5.351562 72.1875 C 5.773438 69.785156 5.265625 65.546875 6.539062 61.363281 C 8.492188 55.28125 14.519531 45.796875 18.425781 39.4375 C 21.570312 34.472656 27.769531 26.71875 27.851562 26.328125 C 27.851562 26.273438 27.851562 26.273438 27.851562 26.273438 C 27.851562 26.273438 27.851562 26.273438 27.851562 26.214844 C 28.191406 25.9375 31.757812 21.808594 31.417969 21.25 C 31.335938 21.140625 30.824219 21.085938 30.824219 21.085938 C 30.824219 21.085938 32.695312 22.253906 34.136719 22.089844 C 38.382812 21.640625 46.363281 10.539062 55.535156 7.972656 C 65.980469 5.074219 87.125 5.964844 94.851562 7.527344 C 98.503906 8.253906 99.523438 10.929688 102.070312 10.875 C 105.128906 10.761719 106.996094 6.800781 111.835938 5.519531 C 120.835938 3.066406 142.152344 1.835938 155.824219 3.175781 C 168.390625 4.515625 185.882812 8.140625 190.976562 12.660156 C 194.375 15.5625 191.316406 22.589844 192.761719 23.148438 C 193.1875 23.371094 193.527344 22.925781 194.460938 22.8125 C 198.789062 22.3125 224.859375 19.523438 232.078125 21.921875 C 236.324219 23.316406 235.476562 28.226562 239.296875 28.949219 C 245.238281 30.066406 257.042969 20.917969 267.742188 20.582031 C 280.820312 20.191406 305.445312 23.761719 312.496094 30.679688 C 319.628906 37.765625 313.429688 55.726562 309.265625 63.035156 C 306.804688 67.445312 297.632812 70.734375 298.566406 72.464844 C 299.417969 73.804688 306.296875 71.90625 309.351562 73.859375 C 316.316406 78.265625 315.210938 104.097656 322.089844 109.785156 C 325.402344 112.574219 331.175781 110.957031 333.976562 113.691406 C 339.242188 118.710938 340.261719 138.292969 338.054688 143.59375 C 337.203125 145.769531 333.128906 147.054688 333.636719 147.722656 C 334.148438 148.390625 338.734375 146.664062 340.6875 147.722656 C 345.441406 150.234375 350.535156 164.960938 348.921875 173.160156 C 347.308594 181.417969 334.914062 190.457031 330.835938 196.984375 C 328.117188 201.335938 324.636719 204.960938 325.230469 208.195312 C 325.824219 210.875 331.515625 214.554688 332.109375 215.226562 C 332.28125 215.335938 332.363281 215.335938 332.363281 215.394531 C 332.28125 215.617188 330.835938 216.0625 329.476562 216.507812 C 326.335938 217.679688 316.316406 220.359375 313.429688 221.640625 C 312.238281 222.144531 311.21875 222.980469 311.21875 223.035156 C 311.136719 223.035156 308.84375 223.871094 307.652344 224.320312 C 306.378906 224.765625 304.085938 225.601562 304.003906 225.601562 C 304.003906 225.65625 301.285156 226.105469 300.097656 226.328125 C 298.992188 226.496094 297.464844 226.773438 297.125 226.828125 C 297.039062 226.886719 296.953125 226.886719 296.953125 226.886719 C 296.953125 226.886719 297.039062 226.886719 297.039062 226.828125 C 297.039062 226.828125 296.191406 226.996094 296.105469 226.996094 C 296.105469 226.996094 293.386719 227.050781 292.027344 227.050781 C 290.671875 227.109375 287.953125 227.109375 287.953125 227.109375 C 287.867188 227.109375 285.234375 226.71875 283.960938 226.550781 C 282.601562 226.328125 279.972656 225.992188 279.972656 225.9375 C 279.886719 225.9375 277.507812 225.15625 276.320312 224.765625 C 275.046875 224.375 272.667969 223.59375 272.582031 223.539062 C 272.582031 223.539062 270.546875 222.421875 269.527344 221.808594 C 268.421875 221.25 266.382812 220.078125 266.382812 220.078125 C 266.300781 220.023438 264.769531 218.628906 264.007812 217.902344 C 263.15625 217.179688 261.628906 215.726562 261.542969 215.726562 C 261.542969 215.671875 260.523438 214.054688 260.015625 213.21875 C 259.507812 212.378906 258.488281 210.761719 258.488281 210.707031 C 258.488281 210.707031 258.148438 208.976562 257.894531 208.085938 C 257.722656 207.191406 257.382812 205.460938 257.382812 205.40625 C 257.382812 205.351562 257.636719 203.511719 257.722656 202.730469 C 257.894531 202.117188 258.570312 201.613281 257.976562 201.109375 C 255.683594 199.046875 225.03125 200.21875 219.59375 196.089844 C 215.773438 193.246094 220.699219 184.710938 218.578125 184.039062 C 217.21875 183.59375 215.179688 185.65625 212.207031 186.996094 C 205.667969 189.953125 190.894531 196.59375 180.277344 201.167969 C 169.835938 205.6875 159.390625 211.265625 149.199219 214.277344 C 140.539062 216.84375 127.886719 217.679688 123.722656 219.074219 C 122.195312 219.519531 121.007812 220.414062 120.921875 220.414062 C 120.921875 220.414062 118.460938 221.140625 117.1875 221.472656 C 115.910156 221.808594 113.449219 222.535156 113.363281 222.535156 C 113.363281 222.535156 110.730469 222.8125 109.375 222.980469 C 108.015625 223.089844 105.382812 223.371094 105.296875 223.371094 C 105.296875 223.371094 102.070312 223.148438 101.5625 223.203125 C 101.390625 223.203125 101.304688 223.257812 101.304688 223.257812 C 101.304688 223.257812 101.476562 223.203125 101.476562 223.203125 C 101.476562 223.203125 101.390625 223.203125 101.222656 223.203125 C 100.710938 223.148438 97.230469 222.980469 97.144531 222.980469 C 97.058594 222.980469 94.171875 222.3125 93.238281 222.085938 C 92.730469 221.976562 92.730469 221.808594 92.050781 221.863281 C 87.890625 221.921875 49.421875 233.636719 48.996094 233.246094 C 48.914062 233.132812 50.015625 232.742188 49.929688 232.6875 C 49.847656 232.574219 48.742188 232.796875 48.0625 232.910156 C 46.960938 233.023438 44.074219 233.355469 43.988281 233.355469 C 43.902344 233.355469 41.269531 233.246094 39.910156 233.1875 C 38.550781 233.132812 35.921875 233.023438 35.835938 233.023438 C 35.75 233.023438 33.203125 232.519531 31.929688 232.242188 C 30.65625 231.960938 28.023438 231.460938 28.023438 231.402344 C 27.9375 231.402344 25.644531 230.511719 24.542969 230.007812 C 23.351562 229.5625 21.058594 228.671875 20.976562 228.613281 C 20.976562 228.613281 19.105469 227.386719 18.085938 226.71875 C 17.152344 226.105469 15.285156 224.875 15.199219 224.820312 C 15.199219 224.820312 13.84375 223.257812 13.164062 222.535156 C 12.398438 221.753906 11.039062 220.246094 11.039062 220.191406 C 10.953125 220.191406 10.191406 218.515625 9.765625 217.625 C 9.425781 216.789062 8.578125 215.113281 8.578125 215.058594 C 8.578125 215.058594 8.40625 213.273438 8.324219 212.378906 C 8.324219 211.488281 8.152344 209.757812 8.152344 209.703125 C 8.152344 209.648438 8.660156 207.917969 8.832031 207.082031 C 9.085938 206.1875 9.511719 205.015625 9.597656 204.402344 C 9.679688 204.125 9.511719 204.066406 9.679688 203.675781 C 10.445312 202.28125 18.9375 195.199219 18.9375 194.082031 C 18.9375 193.859375 18.765625 193.859375 18.511719 193.691406 C 18.085938 193.246094 16.304688 191.460938 16.304688 191.460938 C 16.304688 191.402344 15.371094 189.730469 14.945312 188.894531 C 14.519531 188.113281 13.84375 186.605469 13.757812 186.550781 C 13.671875 186.550781 13.671875 186.664062 13.671875 186.664062 C 13.671875 186.664062 13.671875 186.550781 13.671875 186.550781 C 13.671875 186.496094 13.585938 186.382812 13.585938 186.382812 C 13.585938 186.328125 13.332031 184.597656 13.246094 183.707031 C 13.078125 182.8125 12.824219 181.027344 12.824219 181.027344 C 12.824219 180.972656 13.246094 179.242188 13.417969 178.351562 C 13.671875 177.457031 14.011719 175.726562 14.011719 175.671875 C 14.011719 175.671875 15.285156 173.71875 15.625 173.21875 C 15.796875 172.9375 15.796875 172.9375 15.964844 172.605469 C 16.8125 170.484375 16.21875 157.652344 19.617188 150.175781 C 23.4375 141.695312 36.855469 127.527344 39.488281 124.625 C 39.996094 124.011719 40.589844 124.125 40.589844 123.566406 C 40.589844 121.167969 21.398438 109.898438 20.636719 105.269531 C 20.125 102.757812 24.796875 99.464844 24.542969 99.074219 C 24.457031 99.019531 24.285156 99.019531 24.285156 99.019531 C 24.203125 99.019531 21.910156 98.128906 20.71875 97.679688 C 19.53125 97.234375 17.238281 96.339844 17.238281 96.285156 C 17.152344 96.285156 15.285156 95.058594 14.265625 94.390625 C 13.332031 93.777344 11.378906 92.546875 11.378906 92.546875 C 11.292969 92.492188 9.9375 90.984375 9.171875 90.261719 C 8.492188 89.480469 7.046875 87.972656 7.046875 87.972656 C 7.046875 87.917969 6.199219 86.246094 5.773438 85.40625 C 5.351562 84.515625 4.585938 82.898438 4.5 82.839844 C 4.5 82.785156 4.332031 81.054688 4.246094 80.164062 C 4.160156 79.269531 3.992188 77.484375 3.992188 77.484375 M 118.289062 51.097656 C 118.375 51.097656 118.375 51.042969 118.375 51.042969 C 118.375 51.042969 118.375 51.042969 118.289062 51.042969 C 118.289062 51.097656 118.289062 51.097656 118.289062 51.097656 " clip-rule="nonzero"/></clipPath><mask id="51529af972"><g filter="url(#72d5f2118b)"><rect x="-93.5" width="540" fill="#000000" y="-117.499998" height="539.999987" fill-opacity="0.5"/></g></mask><clipPath id="34442dd6e5"><path d="M 0.878906 0.410156 L 346.628906 0.410156 L 346.628906 231.386719 L 0.878906 231.386719 Z M 0.878906 0.410156 " clip-rule="nonzero"/></clipPath><clipPath id="703709a964"><path d="M 0.992188 75.484375 C 0.992188 75.429688 1.417969 73.699219 1.671875 72.808594 C 1.925781 71.914062 2.09375 71.355469 2.351562 70.1875 C 2.773438 67.785156 2.265625 63.546875 3.539062 59.363281 C 5.492188 53.28125 11.519531 43.796875 15.425781 37.4375 C 18.570312 32.472656 24.769531 24.71875 24.851562 24.328125 C 24.851562 24.273438 24.851562 24.273438 24.851562 24.273438 C 24.851562 24.273438 24.851562 24.273438 24.851562 24.214844 C 25.191406 23.9375 28.757812 19.808594 28.417969 19.25 C 28.335938 19.140625 27.824219 19.085938 27.824219 19.085938 C 27.824219 19.085938 29.695312 20.253906 31.136719 20.089844 C 35.382812 19.640625 43.363281 8.539062 52.535156 5.972656 C 62.980469 3.074219 84.125 3.964844 91.851562 5.527344 C 95.503906 6.253906 96.523438 8.929688 99.070312 8.875 C 102.128906 8.761719 103.996094 4.800781 108.835938 3.519531 C 117.835938 1.066406 139.152344 -0.164062 152.824219 1.175781 C 165.390625 2.515625 182.882812 6.140625 187.976562 10.660156 C 191.375 13.5625 188.316406 20.589844 189.761719 21.148438 C 190.1875 21.371094 190.527344 20.925781 191.460938 20.8125 C 195.789062 20.3125 221.859375 17.523438 229.078125 19.921875 C 233.324219 21.316406 232.476562 26.226562 236.296875 26.949219 C 242.238281 28.066406 254.042969 18.917969 264.742188 18.582031 C 277.820312 18.191406 302.445312 21.761719 309.496094 28.679688 C 316.628906 35.765625 310.429688 53.726562 306.265625 61.035156 C 303.804688 65.445312 294.632812 68.734375 295.566406 70.464844 C 296.417969 71.804688 303.296875 69.90625 306.351562 71.859375 C 313.316406 76.265625 312.210938 102.097656 319.089844 107.785156 C 322.402344 110.574219 328.175781 108.957031 330.976562 111.691406 C 336.242188 116.710938 337.261719 136.292969 335.054688 141.59375 C 334.203125 143.769531 330.128906 145.054688 330.636719 145.722656 C 331.148438 146.390625 335.734375 144.664062 337.6875 145.722656 C 342.441406 148.234375 347.535156 162.960938 345.921875 171.160156 C 344.308594 179.417969 331.914062 188.457031 327.835938 194.984375 C 325.117188 199.335938 321.636719 202.960938 322.230469 206.195312 C 322.824219 208.875 328.515625 212.554688 329.109375 213.226562 C 329.28125 213.335938 329.363281 213.335938 329.363281 213.394531 C 329.28125 213.617188 327.835938 214.0625 326.476562 214.507812 C 323.335938 215.679688 313.316406 218.359375 310.429688 219.640625 C 309.238281 220.144531 308.21875 220.980469 308.21875 221.035156 C 308.136719 221.035156 305.84375 221.871094 304.652344 222.320312 C 303.378906 222.765625 301.085938 223.601562 301.003906 223.601562 C 301.003906 223.65625 298.285156 224.105469 297.097656 224.328125 C 295.992188 224.496094 294.464844 224.773438 294.125 224.828125 C 294.039062 224.886719 293.953125 224.886719 293.953125 224.886719 C 293.953125 224.886719 294.039062 224.886719 294.039062 224.828125 C 294.039062 224.828125 293.191406 224.996094 293.105469 224.996094 C 293.105469 224.996094 290.386719 225.050781 289.027344 225.050781 C 287.671875 225.109375 284.953125 225.109375 284.953125 225.109375 C 284.867188 225.109375 282.234375 224.71875 280.960938 224.550781 C 279.601562 224.328125 276.972656 223.992188 276.972656 223.9375 C 276.886719 223.9375 274.507812 223.15625 273.320312 222.765625 C 272.046875 222.375 269.667969 221.59375 269.582031 221.539062 C 269.582031 221.539062 267.546875 220.421875 266.527344 219.808594 C 265.421875 219.25 263.382812 218.078125 263.382812 218.078125 C 263.300781 218.023438 261.769531 216.628906 261.007812 215.902344 C 260.15625 215.179688 258.628906 213.726562 258.542969 213.726562 C 258.542969 213.671875 257.523438 212.054688 257.015625 211.21875 C 256.507812 210.378906 255.488281 208.761719 255.488281 208.707031 C 255.488281 208.707031 255.148438 206.976562 254.894531 206.085938 C 254.722656 205.191406 254.382812 203.460938 254.382812 203.40625 C 254.382812 203.351562 254.636719 201.511719 254.722656 200.730469 C 254.894531 200.117188 255.570312 199.613281 254.976562 199.109375 C 252.683594 197.046875 222.03125 198.21875 216.59375 194.089844 C 212.773438 191.246094 217.699219 182.710938 215.578125 182.039062 C 214.21875 181.59375 212.179688 183.65625 209.207031 184.996094 C 202.667969 187.953125 187.894531 194.59375 177.277344 199.167969 C 166.835938 203.6875 156.390625 209.265625 146.199219 212.277344 C 137.539062 214.84375 124.886719 215.679688 120.722656 217.074219 C 119.195312 217.519531 118.007812 218.414062 117.921875 218.414062 C 117.921875 218.414062 115.460938 219.140625 114.1875 219.472656 C 112.910156 219.808594 110.449219 220.535156 110.363281 220.535156 C 110.363281 220.535156 107.730469 220.8125 106.375 220.980469 C 105.015625 221.089844 102.382812 221.371094 102.296875 221.371094 C 102.296875 221.371094 99.070312 221.148438 98.5625 221.203125 C 98.390625 221.203125 98.304688 221.257812 98.304688 221.257812 C 98.304688 221.257812 98.476562 221.203125 98.476562 221.203125 C 98.476562 221.203125 98.390625 221.203125 98.222656 221.203125 C 97.710938 221.148438 94.230469 220.980469 94.144531 220.980469 C 94.058594 220.980469 91.171875 220.3125 90.238281 220.085938 C 89.730469 219.976562 89.730469 219.808594 89.050781 219.863281 C 84.890625 219.921875 46.421875 231.636719 45.996094 231.246094 C 45.914062 231.132812 47.015625 230.742188 46.929688 230.6875 C 46.847656 230.574219 45.742188 230.796875 45.0625 230.910156 C 43.960938 231.023438 41.074219 231.355469 40.988281 231.355469 C 40.902344 231.355469 38.269531 231.246094 36.910156 231.1875 C 35.550781 231.132812 32.921875 231.023438 32.835938 231.023438 C 32.75 231.023438 30.203125 230.519531 28.929688 230.242188 C 27.65625 229.960938 25.023438 229.460938 25.023438 229.402344 C 24.9375 229.402344 22.644531 228.511719 21.542969 228.007812 C 20.351562 227.5625 18.058594 226.671875 17.976562 226.613281 C 17.976562 226.613281 16.105469 225.386719 15.085938 224.71875 C 14.152344 224.105469 12.285156 222.875 12.199219 222.820312 C 12.199219 222.820312 10.84375 221.257812 10.164062 220.535156 C 9.398438 219.753906 8.039062 218.246094 8.039062 218.191406 C 7.953125 218.191406 7.191406 216.515625 6.765625 215.625 C 6.425781 214.789062 5.578125 213.113281 5.578125 213.058594 C 5.578125 213.058594 5.40625 211.273438 5.324219 210.378906 C 5.324219 209.488281 5.152344 207.757812 5.152344 207.703125 C 5.152344 207.648438 5.660156 205.917969 5.832031 205.082031 C 6.085938 204.1875 6.511719 203.015625 6.597656 202.402344 C 6.679688 202.125 6.511719 202.066406 6.679688 201.675781 C 7.445312 200.28125 15.9375 193.199219 15.9375 192.082031 C 15.9375 191.859375 15.765625 191.859375 15.511719 191.691406 C 15.085938 191.246094 13.304688 189.460938 13.304688 189.460938 C 13.304688 189.402344 12.371094 187.730469 11.945312 186.894531 C 11.519531 186.113281 10.84375 184.605469 10.757812 184.550781 C 10.671875 184.550781 10.671875 184.664062 10.671875 184.664062 C 10.671875 184.664062 10.671875 184.550781 10.671875 184.550781 C 10.671875 184.496094 10.585938 184.382812 10.585938 184.382812 C 10.585938 184.328125 10.332031 182.597656 10.246094 181.707031 C 10.078125 180.8125 9.824219 179.027344 9.824219 179.027344 C 9.824219 178.972656 10.246094 177.242188 10.417969 176.351562 C 10.671875 175.457031 11.011719 173.726562 11.011719 173.671875 C 11.011719 173.671875 12.285156 171.71875 12.625 171.21875 C 12.796875 170.9375 12.796875 170.9375 12.964844 170.605469 C 13.8125 168.484375 13.21875 155.652344 16.617188 148.175781 C 20.4375 139.695312 33.855469 125.527344 36.488281 122.625 C 36.996094 122.011719 37.589844 122.125 37.589844 121.566406 C 37.589844 119.167969 18.398438 107.898438 17.636719 103.269531 C 17.125 100.757812 21.796875 97.464844 21.542969 97.074219 C 21.457031 97.019531 21.285156 97.019531 21.285156 97.019531 C 21.203125 97.019531 18.910156 96.128906 17.71875 95.679688 C 16.53125 95.234375 14.238281 94.339844 14.238281 94.285156 C 14.152344 94.285156 12.285156 93.058594 11.265625 92.390625 C 10.332031 91.777344 8.378906 90.546875 8.378906 90.546875 C 8.292969 90.492188 6.9375 88.984375 6.171875 88.261719 C 5.492188 87.480469 4.046875 85.972656 4.046875 85.972656 C 4.046875 85.917969 3.199219 84.246094 2.773438 83.40625 C 2.351562 82.515625 1.585938 80.898438 1.5 80.839844 C 1.5 80.785156 1.332031 79.054688 1.246094 78.164062 C 1.160156 77.269531 0.992188 75.484375 0.992188 75.484375 M 115.289062 49.097656 C 115.375 49.097656 115.375 49.042969 115.375 49.042969 C 115.375 49.042969 115.375 49.042969 115.289062 49.042969 C 115.289062 49.097656 115.289062 49.097656 115.289062 49.097656 " clip-rule="nonzero"/></clipPath><clipPath id="0c5284c1e1"><rect x="0" width="347" y="0" height="232"/></clipPath><clipPath id="4aae10418c"><rect x="0" width="353" y="0" height="236"/></clipPath><clipPath id="3b01b00a89"><path d="M 57.90625 84.996094 L 99.09375 84.996094 L 99.09375 209.523438 L 57.90625 209.523438 Z M 57.90625 84.996094 " clip-rule="nonzero"/></clipPath><clipPath id="cf0b40d83d"><path d="M 75.15625 84.996094 L 81.84375 84.996094 C 91.371094 84.996094 99.09375 92.71875 99.09375 102.246094 L 99.09375 192.152344 C 99.09375 201.679688 91.371094 209.402344 81.84375 209.402344 L 75.15625 209.402344 C 65.628906 209.402344 57.90625 201.679688 57.90625 192.152344 L 57.90625 102.246094 C 57.90625 92.71875 65.628906 84.996094 75.15625 84.996094 Z M 75.15625 84.996094 " clip-rule="nonzero"/></clipPath><clipPath id="7b16269058"><path d="M 0.90625 0.996094 L 42.09375 0.996094 L 42.09375 125.480469 L 0.90625 125.480469 Z M 0.90625 0.996094 " clip-rule="nonzero"/></clipPath><clipPath id="4a5a55b162"><path d="M 18.15625 0.996094 L 24.84375 0.996094 C 34.371094 0.996094 42.09375 8.71875 42.09375 18.246094 L 42.09375 108.152344 C 42.09375 117.679688 34.371094 125.402344 24.84375 125.402344 L 18.15625 125.402344 C 8.628906 125.402344 0.90625 117.679688 0.90625 108.152344 L 0.90625 18.246094 C 0.90625 8.71875 8.628906 0.996094 18.15625 0.996094 Z M 18.15625 0.996094 " clip-rule="nonzero"/></clipPath><clipPath id="b7daf991a8"><rect x="0" width="43" y="0" height="126"/></clipPath><clipPath id="978034b323"><path d="M 57.90625 85 L 99.375 85 L 99.375 209.398438 L 57.90625 209.398438 Z M 57.90625 85 " clip-rule="nonzero"/></clipPath><clipPath id="25a84b6208"><path d="M 75.15625 85 L 81.839844 85 C 91.367188 85 99.089844 92.722656 99.089844 102.25 L 99.089844 192.148438 C 99.089844 201.675781 91.367188 209.398438 81.839844 209.398438 L 75.15625 209.398438 C 65.628906 209.398438 57.90625 201.675781 57.90625 192.148438 L 57.90625 102.25 C 57.90625 92.722656 65.628906 85 75.15625 85 Z M 75.15625 85 " clip-rule="nonzero"/></clipPath><clipPath id="2d1b86eda1"><path d="M 51.234375 206.84375 L 105.765625 206.84375 L 105.765625 277.992188 L 51.234375 277.992188 Z M 51.234375 206.84375 " clip-rule="nonzero"/></clipPath><clipPath id="e79633a541"><path d="M 68.484375 206.84375 L 88.515625 206.84375 C 98.042969 206.84375 105.765625 214.566406 105.765625 224.09375 L 105.765625 260.613281 C 105.765625 270.140625 98.042969 277.863281 88.515625 277.863281 L 68.484375 277.863281 C 58.957031 277.863281 51.234375 270.140625 51.234375 260.613281 L 51.234375 224.09375 C 51.234375 214.566406 58.957031 206.84375 68.484375 206.84375 Z M 68.484375 206.84375 " clip-rule="nonzero"/></clipPath><clipPath id="a6c5b45828"><path d="M 0.234375 0.84375 L 54.765625 0.84375 L 54.765625 71.878906 L 0.234375 71.878906 Z M 0.234375 0.84375 " clip-rule="nonzero"/></clipPath><clipPath id="1891d52441"><path d="M 17.484375 0.84375 L 37.515625 0.84375 C 47.042969 0.84375 54.765625 8.566406 54.765625 18.09375 L 54.765625 54.613281 C 54.765625 64.140625 47.042969 71.863281 37.515625 71.863281 L 17.484375 71.863281 C 7.957031 71.863281 0.234375 64.140625 0.234375 54.613281 L 0.234375 18.09375 C 0.234375 8.566406 7.957031 0.84375 17.484375 0.84375 Z M 17.484375 0.84375 " clip-rule="nonzero"/></clipPath><clipPath id="5d848e34f1"><rect x="0" width="55" y="0" height="72"/></clipPath><clipPath id="d501c6d7c5"><path d="M 51.234375 206.84375 L 105.972656 206.84375 L 105.972656 278 L 51.234375 278 Z M 51.234375 206.84375 " clip-rule="nonzero"/></clipPath><clipPath id="37277cb69e"><path d="M 68.484375 206.84375 L 88.515625 206.84375 C 98.042969 206.84375 105.765625 214.566406 105.765625 224.09375 L 105.765625 260.613281 C 105.765625 270.136719 98.042969 277.859375 88.515625 277.859375 L 68.484375 277.859375 C 58.957031 277.859375 51.234375 270.136719 51.234375 260.613281 L 51.234375 224.09375 C 51.234375 214.566406 58.957031 206.84375 68.484375 206.84375 Z M 68.484375 206.84375 " clip-rule="nonzero"/></clipPath><clipPath id="5cd72994a4"><path d="M 57.90625 242.355469 L 69.003906 242.355469 L 69.003906 268.152344 L 57.90625 268.152344 Z M 57.90625 242.355469 " clip-rule="nonzero"/></clipPath><clipPath id="bed0e6d688"><path d="M 63.457031 242.355469 C 64.929688 242.355469 66.339844 242.941406 67.378906 243.980469 C 68.421875 245.019531 69.003906 246.433594 69.003906 247.90625 L 69.003906 262.566406 C 69.003906 264.035156 68.421875 265.449219 67.378906 266.488281 C 66.339844 267.53125 64.929688 268.113281 63.457031 268.113281 C 61.984375 268.113281 60.574219 267.53125 59.53125 266.488281 C 58.492188 265.449219 57.90625 264.035156 57.90625 262.566406 L 57.90625 247.90625 C 57.90625 246.433594 58.492188 245.019531 59.53125 243.980469 C 60.574219 242.941406 61.984375 242.355469 63.457031 242.355469 Z M 63.457031 242.355469 " clip-rule="nonzero"/></clipPath><clipPath id="32559373e7"><path d="M 0.90625 0.355469 L 12.003906 0.355469 L 12.003906 26.152344 L 0.90625 26.152344 Z M 0.90625 0.355469 " clip-rule="nonzero"/></clipPath><clipPath id="9436c183d2"><path d="M 6.457031 0.355469 C 7.929688 0.355469 9.339844 0.941406 10.378906 1.980469 C 11.421875 3.019531 12.003906 4.433594 12.003906 5.90625 L 12.003906 20.566406 C 12.003906 22.035156 11.421875 23.449219 10.378906 24.488281 C 9.339844 25.53125 7.929688 26.113281 6.457031 26.113281 C 4.984375 26.113281 3.574219 25.53125 2.53125 24.488281 C 1.492188 23.449219 0.90625 22.035156 0.90625 20.566406 L 0.90625 5.90625 C 0.90625 4.433594 1.492188 3.019531 2.53125 1.980469 C 3.574219 0.941406 4.984375 0.355469 6.457031 0.355469 Z M 6.457031 0.355469 " clip-rule="nonzero"/></clipPath><clipPath id="916fc73ba1"><rect x="0" width="13" y="0" height="27"/></clipPath><clipPath id="eba3047fdb"><path d="M 20 147.199219 L 137 147.199219 L 137 242.355469 L 20 242.355469 Z M 20 147.199219 " clip-rule="nonzero"/></clipPath><clipPath id="bb130ff2fc"><path d="M 76.128906 242.355469 L 80.871094 242.355469 C 101.027344 242.355469 118.921875 229.457031 125.292969 210.335938 L 135.667969 179.21875 C 138.140625 171.800781 136.894531 163.644531 132.324219 157.300781 C 127.753906 150.957031 120.410156 147.199219 112.589844 147.199219 L 44.410156 147.199219 C 36.589844 147.199219 29.246094 150.957031 24.675781 157.300781 C 20.105469 163.644531 18.859375 171.800781 21.332031 179.21875 L 31.707031 210.335938 C 38.078125 229.457031 55.972656 242.355469 76.128906 242.355469 Z M 76.128906 242.355469 " clip-rule="nonzero"/></clipPath><clipPath id="86c8fa8d88"><path d="M 0 0.199219 L 117 0.199219 L 117 95.355469 L 0 95.355469 Z M 0 0.199219 " clip-rule="nonzero"/></clipPath><clipPath id="beaa623e9a"><path d="M 56.128906 95.355469 L 60.871094 95.355469 C 81.027344 95.355469 98.921875 82.457031 105.292969 63.335938 L 115.667969 32.21875 C 118.140625 24.800781 116.894531 16.644531 112.324219 10.300781 C 107.753906 3.957031 100.410156 0.199219 92.589844 0.199219 L 24.410156 0.199219 C 16.589844 0.199219 9.246094 3.957031 4.675781 10.300781 C 0.105469 16.644531 -1.140625 24.800781 1.332031 32.21875 L 11.707031 63.335938 C 18.078125 82.457031 35.972656 95.355469 56.128906 95.355469 Z M 56.128906 95.355469 " clip-rule="nonzero"/></clipPath><clipPath id="5ebe21956d"><rect x="0" width="117" y="0" height="96"/></clipPath><clipPath id="8104325bc5"><path d="M 20 147.199219 L 137 147.199219 L 137 242.34375 L 20 242.34375 Z M 20 147.199219 " clip-rule="nonzero"/></clipPath><clipPath id="5539276824"><path d="M 76.121094 242.34375 L 80.867188 242.34375 C 101.019531 242.34375 118.910156 229.449219 125.285156 210.332031 L 135.65625 179.214844 C 138.128906 171.796875 136.882812 163.644531 132.3125 157.300781 C 127.742188 150.957031 120.398438 147.199219 112.582031 147.199219 L 44.40625 147.199219 C 36.589844 147.199219 29.246094 150.957031 24.675781 157.300781 C 20.101562 163.644531 18.859375 171.796875 21.332031 179.214844 L 31.703125 210.332031 C 38.078125 229.449219 55.96875 242.34375 76.121094 242.34375 Z M 76.121094 242.34375 " clip-rule="nonzero"/></clipPath><clipPath id="c96b3a22c8"><path d="M 14.066406 147.199219 L 142.960938 147.199219 L 142.960938 174.203125 L 14.066406 174.203125 Z M 14.066406 147.199219 " clip-rule="nonzero"/></clipPath><clipPath id="2651119d48"><path d="M 27.566406 147.199219 L 129.433594 147.199219 C 136.886719 147.199219 142.933594 153.246094 142.933594 160.699219 C 142.933594 168.15625 136.886719 174.203125 129.433594 174.203125 L 27.566406 174.203125 C 20.113281 174.203125 14.066406 168.15625 14.066406 160.699219 C 14.066406 153.246094 20.113281 147.199219 27.566406 147.199219 Z M 27.566406 147.199219 " clip-rule="nonzero"/></clipPath><clipPath id="11c79e2347"><path d="M 0.0664062 0.199219 L 128.960938 0.199219 L 128.960938 27.203125 L 0.0664062 27.203125 Z M 0.0664062 0.199219 " clip-rule="nonzero"/></clipPath><clipPath id="f76f867ddc"><path d="M 13.566406 0.199219 L 115.433594 0.199219 C 122.886719 0.199219 128.933594 6.246094 128.933594 13.699219 C 128.933594 21.15625 122.886719 27.203125 115.433594 27.203125 L 13.566406 27.203125 C 6.113281 27.203125 0.0664062 21.15625 0.0664062 13.699219 C 0.0664062 6.246094 6.113281 0.199219 13.566406 0.199219 Z M 13.566406 0.199219 " clip-rule="nonzero"/></clipPath><clipPath id="5e572c81db"><rect x="0" width="129" y="0" height="28"/></clipPath><clipPath id="fb2eb287cc"><path d="M 14.085938 147.199219 L 142.621094 147.199219 L 142.621094 174.40625 L 14.085938 174.40625 Z M 14.085938 147.199219 " clip-rule="nonzero"/></clipPath><clipPath id="5e676e7b7f"><path d="M 27.585938 147.199219 L 129.414062 147.199219 C 136.867188 147.199219 142.910156 153.242188 142.910156 160.695312 C 142.910156 168.152344 136.867188 174.195312 129.414062 174.195312 L 27.585938 174.195312 C 20.128906 174.195312 14.085938 168.152344 14.085938 160.695312 C 14.085938 153.242188 20.128906 147.199219 27.585938 147.199219 Z M 27.585938 147.199219 " clip-rule="nonzero"/></clipPath><clipPath id="94ddb0a423"><path d="M 25.78125 32.234375 L 132.398438 32.234375 L 132.398438 143 L 25.78125 143 Z M 25.78125 32.234375 " clip-rule="nonzero"/></clipPath><clipPath id="1427729243"><path d="M 35.53125 32.234375 L 122.648438 32.234375 C 128.035156 32.234375 132.398438 36.597656 132.398438 41.984375 L 132.398438 133.09375 C 132.398438 138.480469 128.035156 142.84375 122.648438 142.84375 L 35.53125 142.84375 C 30.148438 142.84375 25.78125 138.480469 25.78125 133.09375 L 25.78125 41.984375 C 25.78125 36.597656 30.148438 32.234375 35.53125 32.234375 Z M 35.53125 32.234375 " clip-rule="nonzero"/></clipPath><clipPath id="a9c06a4450"><path d="M 0.78125 0.234375 L 107.398438 0.234375 L 107.398438 111 L 0.78125 111 Z M 0.78125 0.234375 " clip-rule="nonzero"/></clipPath><clipPath id="f723cb9ce8"><path d="M 10.53125 0.234375 L 97.648438 0.234375 C 103.035156 0.234375 107.398438 4.597656 107.398438 9.984375 L 107.398438 101.09375 C 107.398438 106.480469 103.035156 110.84375 97.648438 110.84375 L 10.53125 110.84375 C 5.148438 110.84375 0.78125 106.480469 0.78125 101.09375 L 0.78125 9.984375 C 0.78125 4.597656 5.148438 0.234375 10.53125 0.234375 Z M 10.53125 0.234375 " clip-rule="nonzero"/></clipPath><clipPath id="550c6418b0"><rect x="0" width="108" y="0" height="111"/></clipPath><clipPath id="dbfdd49876"><path d="M 25.785156 32.234375 L 132.691406 32.234375 L 132.691406 142.539062 L 25.785156 142.539062 Z M 25.785156 32.234375 " clip-rule="nonzero"/></clipPath><clipPath id="c4f9a449a9"><path d="M 35.535156 32.234375 L 122.644531 32.234375 C 128.03125 32.234375 132.394531 36.597656 132.394531 41.984375 L 132.394531 133.089844 C 132.394531 138.472656 128.03125 142.839844 122.644531 142.839844 L 35.535156 142.839844 C 30.148438 142.839844 25.785156 138.472656 25.785156 133.089844 L 25.785156 41.984375 C 25.785156 36.597656 30.148438 32.234375 35.535156 32.234375 Z M 35.535156 32.234375 " clip-rule="nonzero"/></clipPath><clipPath id="3b51fe4d7f"><path d="M 30.953125 43.058594 L 69.753906 43.058594 L 69.753906 137.785156 L 30.953125 137.785156 Z M 30.953125 43.058594 " clip-rule="nonzero"/></clipPath><clipPath id="202c0e02b9"><path d="M 39.203125 43.058594 L 61.503906 43.058594 C 66.058594 43.058594 69.753906 46.753906 69.753906 51.308594 L 69.753906 129.4375 C 69.753906 133.992188 66.058594 137.6875 61.503906 137.6875 L 39.203125 137.6875 C 34.648438 137.6875 30.953125 133.992188 30.953125 129.4375 L 30.953125 51.308594 C 30.953125 46.753906 34.648438 43.058594 39.203125 43.058594 Z M 39.203125 43.058594 " clip-rule="nonzero"/></clipPath><clipPath id="49b5942486"><path d="M 0.953125 0.0585938 L 39.753906 0.0585938 L 39.753906 94.71875 L 0.953125 94.71875 Z M 0.953125 0.0585938 " clip-rule="nonzero"/></clipPath><clipPath id="c165fd1c7d"><path d="M 9.203125 0.0585938 L 31.503906 0.0585938 C 36.058594 0.0585938 39.753906 3.753906 39.753906 8.308594 L 39.753906 86.4375 C 39.753906 90.992188 36.058594 94.6875 31.503906 94.6875 L 9.203125 94.6875 C 4.648438 94.6875 0.953125 90.992188 0.953125 86.4375 L 0.953125 8.308594 C 0.953125 3.753906 4.648438 0.0585938 9.203125 0.0585938 Z M 9.203125 0.0585938 " clip-rule="nonzero"/></clipPath><clipPath id="bc643feb54"><rect x="0" width="40" y="0" height="95"/></clipPath><clipPath id="cb280c0f8d"><path d="M 14.066406 20.289062 L 142.960938 20.289062 L 142.960938 41.015625 L 14.066406 41.015625 Z M 14.066406 20.289062 " clip-rule="nonzero"/></clipPath><clipPath id="ac2327f9f8"><path d="M 24.429688 20.289062 L 132.570312 20.289062 C 138.292969 20.289062 142.933594 24.929688 142.933594 30.652344 C 142.933594 36.375 138.292969 41.015625 132.570312 41.015625 L 24.429688 41.015625 C 18.707031 41.015625 14.066406 36.375 14.066406 30.652344 C 14.066406 24.929688 18.707031 20.289062 24.429688 20.289062 Z M 24.429688 20.289062 " clip-rule="nonzero"/></clipPath><clipPath id="edd914f88c"><path d="M 0.0664062 0.289062 L 128.960938 0.289062 L 128.960938 21.015625 L 0.0664062 21.015625 Z M 0.0664062 0.289062 " clip-rule="nonzero"/></clipPath><clipPath id="71e3eecc97"><path d="M 10.429688 0.289062 L 118.570312 0.289062 C 124.292969 0.289062 128.933594 4.929688 128.933594 10.652344 C 128.933594 16.375 124.292969 21.015625 118.570312 21.015625 L 10.429688 21.015625 C 4.707031 21.015625 0.0664062 16.375 0.0664062 10.652344 C 0.0664062 4.929688 4.707031 0.289062 10.429688 0.289062 Z M 10.429688 0.289062 " clip-rule="nonzero"/></clipPath><clipPath id="5503385af8"><rect x="0" width="129" y="0" height="22"/></clipPath><clipPath id="e2a69aebfa"><path d="M 14.082031 20.289062 L 142.621094 20.289062 L 142.621094 41.023438 L 14.082031 41.023438 Z M 14.082031 20.289062 " clip-rule="nonzero"/></clipPath><clipPath id="c50e3b5fc9"><path d="M 24.445312 20.289062 L 132.554688 20.289062 C 138.277344 20.289062 142.914062 24.925781 142.914062 30.648438 C 142.914062 36.371094 138.277344 41.011719 132.554688 41.011719 L 24.445312 41.011719 C 18.722656 41.011719 14.082031 36.371094 14.082031 30.648438 C 14.082031 24.925781 18.722656 20.289062 24.445312 20.289062 Z M 24.445312 20.289062 " clip-rule="nonzero"/></clipPath><clipPath id="fc8452362a"><path d="M 31.402344 178.269531 L 69.15625 178.269531 L 69.15625 232.039062 L 31.402344 232.039062 Z M 31.402344 178.269531 " clip-rule="nonzero"/></clipPath><clipPath id="bcad514433"><path d="M 69.15625 232.039062 C 59.253906 232.039062 49.566406 226.3125 42.5625 216.3125 C 35.558594 206.3125 31.546875 192.488281 31.546875 178.347656 L 60.90625 178.347656 C 65.464844 178.347656 69.15625 182.039062 69.15625 186.597656 Z M 69.15625 232.039062 " clip-rule="nonzero"/></clipPath><clipPath id="8145c7da22"><path d="M 0.402344 0.28125 L 38.15625 0.28125 L 38.15625 54.039062 L 0.402344 54.039062 Z M 0.402344 0.28125 " clip-rule="nonzero"/></clipPath><clipPath id="cb91dc5652"><path d="M 38.15625 54.039062 C 28.253906 54.039062 18.566406 48.3125 11.5625 38.3125 C 4.558594 28.3125 0.546875 14.488281 0.546875 0.347656 L 29.90625 0.347656 C 34.464844 0.347656 38.15625 4.039062 38.15625 8.597656 Z M 38.15625 54.039062 " clip-rule="nonzero"/></clipPath><clipPath id="e5c73608d0"><rect x="0" width="39" y="0" height="55"/></clipPath><clipPath id="72b600c75e"><path d="M 66.050781 14.667969 L 90.992188 14.667969 L 90.992188 25.910156 L 66.050781 25.910156 Z M 66.050781 14.667969 " clip-rule="nonzero"/></clipPath><clipPath id="d16c5fa45e"><path d="M 71.671875 14.667969 L 85.328125 14.667969 C 88.433594 14.667969 90.949219 17.183594 90.949219 20.289062 C 90.949219 23.394531 88.433594 25.910156 85.328125 25.910156 L 71.671875 25.910156 C 68.566406 25.910156 66.050781 23.394531 66.050781 20.289062 C 66.050781 17.183594 68.566406 14.667969 71.671875 14.667969 Z M 71.671875 14.667969 " clip-rule="nonzero"/></clipPath><clipPath id="82327c5e06"><path d="M 0.0507812 0.667969 L 24.992188 0.667969 L 24.992188 11.910156 L 0.0507812 11.910156 Z M 0.0507812 0.667969 " clip-rule="nonzero"/></clipPath><clipPath id="6ec16744b3"><path d="M 5.671875 0.667969 L 19.328125 0.667969 C 22.433594 0.667969 24.949219 3.183594 24.949219 6.289062 C 24.949219 9.394531 22.433594 11.910156 19.328125 11.910156 L 5.671875 11.910156 C 2.566406 11.910156 0.0507812 9.394531 0.0507812 6.289062 C 0.0507812 3.183594 2.566406 0.667969 5.671875 0.667969 Z M 5.671875 0.667969 " clip-rule="nonzero"/></clipPath><clipPath id="b40dc1b298"><rect x="0" width="25" y="0" height="12"/></clipPath><clipPath id="edd66f035e"><path d="M 66.054688 14.667969 L 90.929688 14.667969 L 90.929688 26 L 66.054688 26 Z M 66.054688 14.667969 " clip-rule="nonzero"/></clipPath><clipPath id="dce8d6471c"><path d="M 71.671875 14.667969 L 85.320312 14.667969 C 88.425781 14.667969 90.941406 17.183594 90.941406 20.285156 C 90.941406 23.386719 88.425781 25.902344 85.320312 25.902344 L 71.671875 25.902344 C 68.566406 25.902344 66.054688 23.386719 66.054688 20.285156 C 66.054688 17.183594 68.566406 14.667969 71.671875 14.667969 Z M 71.671875 14.667969 " clip-rule="nonzero"/></clipPath><clipPath id="e09471692f"><path d="M 17.203125 23.851562 L 69.757812 23.851562 L 69.757812 37.453125 L 17.203125 37.453125 Z M 17.203125 23.851562 " clip-rule="nonzero"/></clipPath><clipPath id="b16e4e11cb"><path d="M 24.003906 23.851562 L 62.953125 23.851562 C 66.707031 23.851562 69.753906 26.894531 69.753906 30.652344 C 69.753906 34.410156 66.707031 37.453125 62.953125 37.453125 L 24.003906 37.453125 C 20.246094 37.453125 17.203125 34.410156 17.203125 30.652344 C 17.203125 26.894531 20.246094 23.851562 24.003906 23.851562 Z M 24.003906 23.851562 " clip-rule="nonzero"/></clipPath><clipPath id="92ca7d305a"><path d="M 0.203125 0.851562 L 52.757812 0.851562 L 52.757812 14.453125 L 0.203125 14.453125 Z M 0.203125 0.851562 " clip-rule="nonzero"/></clipPath><clipPath id="076db03fb5"><path d="M 7.003906 0.851562 L 45.953125 0.851562 C 49.707031 0.851562 52.753906 3.894531 52.753906 7.652344 C 52.753906 11.410156 49.707031 14.453125 45.953125 14.453125 L 7.003906 14.453125 C 3.246094 14.453125 0.203125 11.410156 0.203125 7.652344 C 0.203125 3.894531 3.246094 0.851562 7.003906 0.851562 Z M 7.003906 0.851562 " clip-rule="nonzero"/></clipPath><clipPath id="061a3d5a5a"><rect x="0" width="53" y="0" height="15"/></clipPath><clipPath id="2ed016df06"><path d="M 21.933594 153.722656 L 135.925781 153.722656 L 135.925781 167.679688 L 21.933594 167.679688 Z M 21.933594 153.722656 " clip-rule="nonzero"/></clipPath><clipPath id="50f8f2c902"><path d="M 28.910156 153.722656 L 128.933594 153.722656 C 132.789062 153.722656 135.914062 156.847656 135.914062 160.699219 C 135.914062 164.554688 132.789062 167.679688 128.933594 167.679688 L 28.910156 167.679688 C 25.058594 167.679688 21.933594 164.554688 21.933594 160.699219 C 21.933594 156.847656 25.058594 153.722656 28.910156 153.722656 Z M 28.910156 153.722656 " clip-rule="nonzero"/></clipPath><clipPath id="ea51c65519"><path d="M 0.933594 0.722656 L 114.925781 0.722656 L 114.925781 14.679688 L 0.933594 14.679688 Z M 0.933594 0.722656 " clip-rule="nonzero"/></clipPath><clipPath id="9fef6a34db"><path d="M 7.910156 0.722656 L 107.933594 0.722656 C 111.789062 0.722656 114.914062 3.847656 114.914062 7.699219 C 114.914062 11.554688 111.789062 14.679688 107.933594 14.679688 L 7.910156 14.679688 C 4.058594 14.679688 0.933594 11.554688 0.933594 7.699219 C 0.933594 3.847656 4.058594 0.722656 7.910156 0.722656 Z M 7.910156 0.722656 " clip-rule="nonzero"/></clipPath><clipPath id="7457972061"><rect x="0" width="115" y="0" height="15"/></clipPath><clipPath id="154ca4fc29"><rect x="0" width="156" y="0" height="291"/></clipPath></defs><g mask="url(#c24a200686)"><g transform="matrix(1, 0, 0, 1, 11, 35)"><g clip-path="url(#4aae10418c)"><g clip-path="url(#5e825ba57a)"><g clip-path="url(#10c14cfbc3)"><g mask="url(#51529af972)"><g transform="matrix(1, 0, 0, 1, 3, 2)"><g clip-path="url(#0c5284c1e1)"><g clip-path="url(#34442dd6e5)"><g clip-path="url(#703709a964)"><rect x="-150.5" width="648" fill="#8bcfdb" y="-173.499997" height="647.999984" fill-opacity="1"/></g></g></g></g></g></g></g></g></g></g><g transform="matrix(1, 0, 0, 1, 109, 7)"><g clip-path="url(#154ca4fc29)"><g clip-path="url(#3b01b00a89)"><g clip-path="url(#cf0b40d83d)"><g transform="matrix(1, 0, 0, 1, 57, 84)"><g clip-path="url(#b7daf991a8)"><g clip-path="url(#7b16269058)"><g clip-path="url(#4a5a55b162)"><path fill="#ffffff" d="M 0.90625 0.996094 L 42.09375 0.996094 L 42.09375 125.359375 L 0.90625 125.359375 Z M 0.90625 0.996094 " fill-opacity="1" fill-rule="nonzero"/></g></g></g></g></g></g><g clip-path="url(#978034b323)"><g clip-path="url(#25a84b6208)"><path stroke-linecap="butt" transform="matrix(0.829377, 0, 0, 0.829377, 57.906664, 85.001109)" fill="none" stroke-linejoin="miter" d="M 20.798254 -0.00133734 L 28.856829 -0.00133734 C 40.344184 -0.00133734 49.655582 9.310061 49.655582 20.797416 L 49.655582 129.190194 C 49.655582 140.677549 40.344184 149.988947 28.856829 149.988947 L 20.798254 149.988947 C 9.310899 149.988947 -0.000499097 140.677549 -0.000499097 129.190194 L -0.000499097 20.797416 C -0.000499097 9.310061 9.310899 -0.00133734 20.798254 -0.00133734 Z M 20.798254 -0.00133734 " stroke="#000000" stroke-width="7.234349" stroke-opacity="1" stroke-miterlimit="4"/></g></g><g clip-path="url(#2d1b86eda1)"><g clip-path="url(#e79633a541)"><g transform="matrix(1, 0, 0, 1, 51, 206)"><g clip-path="url(#5d848e34f1)"><g clip-path="url(#a6c5b45828)"><g clip-path="url(#1891d52441)"><path fill="#ffffff" d="M 0.234375 0.84375 L 54.765625 0.84375 L 54.765625 71.78125 L 0.234375 71.78125 Z M 0.234375 0.84375 " fill-opacity="1" fill-rule="nonzero"/></g></g></g></g></g></g><g clip-path="url(#d501c6d7c5)"><g clip-path="url(#37277cb69e)"><path stroke-linecap="butt" transform="matrix(0.829377, 0, 0, 0.829377, 51.234345, 206.844863)" fill="none" stroke-linejoin="miter" d="M 20.798789 -0.00134168 L 44.950965 -0.00134168 C 56.43832 -0.00134168 65.749718 9.310057 65.749718 20.797412 L 65.749718 64.829917 C 65.749718 76.312562 56.43832 85.623961 44.950965 85.623961 L 20.798789 85.623961 C 9.311434 85.623961 0.0000359572 76.312562 0.0000359572 64.829917 L 0.0000359572 20.797412 C 0.0000359572 9.310057 9.311434 -0.00134168 20.798789 -0.00134168 Z M 20.798789 -0.00134168 " stroke="#000000" stroke-width="7.234349" stroke-opacity="1" stroke-miterlimit="4"/></g></g><g clip-path="url(#5cd72994a4)"><g clip-path="url(#bed0e6d688)"><g transform="matrix(1, 0, 0, 1, 57, 242)"><g clip-path="url(#916fc73ba1)"><g clip-path="url(#32559373e7)"><g clip-path="url(#9436c183d2)"><path fill="#e8e8e8" d="M 0.90625 0.355469 L 12.003906 0.355469 L 12.003906 26.105469 L 0.90625 26.105469 Z M 0.90625 0.355469 " fill-opacity="1" fill-rule="nonzero"/></g></g></g></g></g></g><g clip-path="url(#eba3047fdb)"><g clip-path="url(#bb130ff2fc)"><g transform="matrix(1, 0, 0, 1, 20, 147)"><g clip-path="url(#5ebe21956d)"><g clip-path="url(#86c8fa8d88)"><g clip-path="url(#beaa623e9a)"><path fill="#ffffff" d="M -9.339844 0.199219 L 126.328125 0.199219 L 126.328125 95.355469 L -9.339844 95.355469 Z M -9.339844 0.199219 " fill-opacity="1" fill-rule="nonzero"/></g></g></g></g></g></g><g clip-path="url(#8104325bc5)"><g clip-path="url(#5539276824)"><path stroke-linecap="butt" transform="matrix(0.829377, 0, 0, 0.829377, 10.660373, 147.199887)" fill="none" stroke-linejoin="miter" d="M 78.927624 114.717328 L 84.650107 114.717328 C 108.948291 114.717328 130.519463 99.17007 138.20596 76.120001 L 150.710646 38.601232 C 153.691989 29.657202 152.189543 19.827718 146.679003 12.1789 C 141.168464 4.530083 132.313921 -0.000805333 122.889485 -0.000805333 L 40.688246 -0.000805333 C 31.26381 -0.000805333 22.409267 4.530083 16.898728 12.1789 C 11.383478 19.827718 9.885742 29.657202 12.867085 38.601232 L 25.371771 76.120001 C 33.058268 99.17007 54.62944 114.717328 78.927624 114.717328 Z M 78.927624 114.717328 " stroke="#000000" stroke-width="7.234349" stroke-opacity="1" stroke-miterlimit="4"/></g></g><g clip-path="url(#c96b3a22c8)"><g clip-path="url(#2651119d48)"><g transform="matrix(1, 0, 0, 1, 14, 147)"><g clip-path="url(#5e572c81db)"><g clip-path="url(#11c79e2347)"><g clip-path="url(#f76f867ddc)"><path fill="#bb6c3b" d="M 0.0664062 0.199219 L 128.960938 0.199219 L 128.960938 27.203125 L 0.0664062 27.203125 Z M 0.0664062 0.199219 " fill-opacity="1" fill-rule="nonzero"/></g></g></g></g></g></g><g clip-path="url(#fb2eb287cc)"><g clip-path="url(#5e676e7b7f)"><path stroke-linecap="butt" transform="matrix(0.829377, 0, 0, 0.829377, 14.087213, 147.199887)" fill="none" stroke-linejoin="miter" d="M 16.275746 -0.000805333 L 139.052438 -0.000805333 C 148.038855 -0.000805333 155.325012 7.285352 155.325012 16.271769 C 155.325012 25.262896 148.038855 32.549053 139.052438 32.549053 L 16.275746 32.549053 C 7.284619 32.549053 -0.00153807 25.262896 -0.00153807 16.271769 C -0.00153807 7.285352 7.284619 -0.000805333 16.275746 -0.000805333 Z M 16.275746 -0.000805333 " stroke="#000000" stroke-width="7.234349" stroke-opacity="1" stroke-miterlimit="4"/></g></g><g clip-path="url(#94ddb0a423)"><g clip-path="url(#1427729243)"><g transform="matrix(1, 0, 0, 1, 25, 32)"><g clip-path="url(#550c6418b0)"><g clip-path="url(#a9c06a4450)"><g clip-path="url(#f723cb9ce8)"><path fill="#ffffff" d="M 0.78125 0.234375 L 107.398438 0.234375 L 107.398438 111.015625 L 0.78125 111.015625 Z M 0.78125 0.234375 " fill-opacity="1" fill-rule="nonzero"/></g></g></g></g></g></g><g clip-path="url(#dbfdd49876)"><g clip-path="url(#c4f9a449a9)"><path stroke-linecap="butt" transform="matrix(0.829377, 0, 0, 0.829377, 25.784107, 32.233845)" fill="none" stroke-linejoin="miter" d="M 11.757082 0.000639006 L 116.787018 0.000639006 C 123.281919 0.000639006 128.542836 5.261556 128.542836 11.756456 L 128.542836 121.604582 C 128.542836 128.094773 123.281919 133.360399 116.787018 133.360399 L 11.757082 133.360399 C 5.262182 133.360399 0.0012651 128.094773 0.0012651 121.604582 L 0.0012651 11.756456 C 0.0012651 5.261556 5.262182 0.000639006 11.757082 0.000639006 Z M 11.757082 0.000639006 " stroke="#000000" stroke-width="7.234349" stroke-opacity="1" stroke-miterlimit="4"/></g></g><g clip-path="url(#3b51fe4d7f)"><g clip-path="url(#202c0e02b9)"><g transform="matrix(1, 0, 0, 1, 30, 43)"><g clip-path="url(#bc643feb54)"><g clip-path="url(#49b5942486)"><g clip-path="url(#c165fd1c7d)"><path fill="#e8e8e8" d="M 0.953125 0.0585938 L 39.753906 0.0585938 L 39.753906 94.632812 L 0.953125 94.632812 Z M 0.953125 0.0585938 " fill-opacity="1" fill-rule="nonzero"/></g></g></g></g></g></g><g clip-path="url(#cb280c0f8d)"><g clip-path="url(#ac2327f9f8)"><g transform="matrix(1, 0, 0, 1, 14, 20)"><g clip-path="url(#5503385af8)"><g clip-path="url(#edd914f88c)"><g clip-path="url(#71e3eecc97)"><path fill="#ffffff" d="M 0.0664062 0.289062 L 128.960938 0.289062 L 128.960938 21.015625 L 0.0664062 21.015625 Z M 0.0664062 0.289062 " fill-opacity="1" fill-rule="nonzero"/></g></g></g></g></g></g><g clip-path="url(#e2a69aebfa)"><g clip-path="url(#c50e3b5fc9)"><path stroke-linecap="butt" transform="matrix(0.829377, 0, 0, 0.829377, 14.083038, 20.288855)" fill="none" stroke-linejoin="miter" d="M 12.494051 0.000250757 L 142.844209 0.000250757 C 149.744158 0.000250757 155.334765 5.590858 155.334765 12.490806 C 155.334765 19.390755 149.744158 24.986072 142.844209 24.986072 L 12.494051 24.986072 C 5.594103 24.986072 -0.00121427 19.390755 -0.00121427 12.490806 C -0.00121427 5.590858 5.594103 0.000250757 12.494051 0.000250757 Z M 12.494051 0.000250757 " stroke="#000000" stroke-width="7.234349" stroke-opacity="1" stroke-miterlimit="4"/></g></g><g clip-path="url(#fc8452362a)"><g clip-path="url(#bcad514433)"><g transform="matrix(1, 0, 0, 1, 31, 178)"><g clip-path="url(#e5c73608d0)"><g clip-path="url(#8145c7da22)"><g clip-path="url(#cb91dc5652)"><path fill="#e8e8e8" d="M 0.546875 54.039062 L 0.546875 0.417969 L 38.15625 0.417969 L 38.15625 54.039062 Z M 0.546875 54.039062 " fill-opacity="1" fill-rule="nonzero"/></g></g></g></g></g></g><path stroke-linecap="round" transform="matrix(0.829377, 0, 0, 0.829377, 39.62811, 179.912132)" fill="none" stroke-linejoin="miter" d="M 1.997942 1.99931 L 89.846299 1.99931 " stroke="#000000" stroke-width="4" stroke-opacity="1" stroke-miterlimit="4"/><path stroke-linecap="round" transform="matrix(0.00000000144754, 0.829377, -0.829377, 0.00000000144754, 51.232689, 54.052835)" fill="none" stroke-linejoin="miter" d="M 1.999215 1.999659 L 87.252438 1.999659 " stroke="#000000" stroke-width="4" stroke-opacity="1" stroke-miterlimit="4"/><path stroke-linecap="round" transform="matrix(0.00000000144754, 0.829377, -0.829377, 0.00000000144754, 109.459873, 54.052835)" fill="none" stroke-linejoin="miter" d="M 1.999215 2.000408 L 87.252438 2.000408 " stroke="#000000" stroke-width="4" stroke-opacity="1" stroke-miterlimit="4"/><g clip-path="url(#72b600c75e)"><g clip-path="url(#d16c5fa45e)"><g transform="matrix(1, 0, 0, 1, 66, 14)"><g clip-path="url(#b40dc1b298)"><g clip-path="url(#82327c5e06)"><g clip-path="url(#6ec16744b3)"><path fill="#ffffff" d="M 0.0507812 0.667969 L 24.949219 0.667969 L 24.949219 11.910156 L 0.0507812 11.910156 Z M 0.0507812 0.667969 " fill-opacity="1" fill-rule="nonzero"/></g></g></g></g></g></g><g clip-path="url(#edd66f035e)"><g clip-path="url(#dce8d6471c)"><path stroke-linecap="butt" transform="matrix(0.829377, 0, 0, 0.829377, 66.053099, 14.667733)" fill="none" stroke-linejoin="miter" d="M 6.774698 0.000284181 L 23.230957 0.000284181 C 26.975297 0.000284181 30.008449 3.033436 30.008449 6.773066 C 30.008449 10.512697 26.975297 13.545848 23.230957 13.545848 L 6.774698 13.545848 C 3.030357 13.545848 0.00191577 10.512697 0.00191577 6.773066 C 0.00191577 3.033436 3.030357 0.000284181 6.774698 0.000284181 Z M 6.774698 0.000284181 " stroke="#000000" stroke-width="7.234349" stroke-opacity="1" stroke-miterlimit="4"/></g></g><g clip-path="url(#e09471692f)"><g clip-path="url(#b16e4e11cb)"><g transform="matrix(1, 0, 0, 1, 17, 23)"><g clip-path="url(#061a3d5a5a)"><g clip-path="url(#92ca7d305a)"><g clip-path="url(#076db03fb5)"><path fill="#e8e8e8" d="M 0.203125 0.851562 L 52.757812 0.851562 L 52.757812 14.453125 L 0.203125 14.453125 Z M 0.203125 0.851562 " fill-opacity="1" fill-rule="nonzero"/></g></g></g></g></g></g><g clip-path="url(#2ed016df06)"><g clip-path="url(#50f8f2c902)"><g transform="matrix(1, 0, 0, 1, 21, 153)"><g clip-path="url(#7457972061)"><g clip-path="url(#ea51c65519)"><g clip-path="url(#9fef6a34db)"><path fill="#9b5a32" d="M 0.933594 0.722656 L 114.925781 0.722656 L 114.925781 14.679688 L 0.933594 14.679688 Z M 0.933594 0.722656 " fill-opacity="1" fill-rule="nonzero"/></g></g></g></g></g></g></g></g><g fill="#000000" fill-opacity="1"><g transform="translate(139.828121, 335.05158)"><g><path d="M 16.84375 -21.625 L 16.84375 -15.75 L 12.015625 -15.75 L 12.015625 0 L 6.125 0 L 6.125 -15.75 L 1.265625 -15.75 L 1.265625 -21.625 L 6.125 -21.625 L 6.125 -29.1875 L 12.015625 -29.1875 L 12.015625 -21.625 Z M 16.84375 -21.625 "/></g></g></g><g fill="#000000" fill-opacity="1"><g transform="translate(156.670127, 335.05158)"><g><path d="M 11.21875 -21.625 C 14.207031 -21.65625 16.753906 -20.617188 18.859375 -18.515625 C 20.984375 -16.390625 22.046875 -13.84375 22.046875 -10.875 C 22.078125 -7.882812 21.039062 -5.335938 18.9375 -3.234375 C 16.84375 -1.109375 14.3125 -0.03125 11.34375 0 C 8.34375 0.03125 5.78125 -1.003906 3.65625 -3.109375 C 1.53125 -5.210938 0.46875 -7.757812 0.46875 -10.75 C 0.4375 -13.75 1.46875 -16.296875 3.5625 -18.390625 C 5.664062 -20.523438 8.21875 -21.601562 11.21875 -21.625 Z M 15.03125 -7.0625 C 16.070312 -8.09375 16.59375 -9.351562 16.59375 -10.84375 C 16.59375 -12.289062 16.0625 -13.546875 15 -14.609375 C 13.925781 -15.617188 12.664062 -16.125 11.21875 -16.125 C 9.757812 -16.125 8.507812 -15.609375 7.46875 -14.578125 C 6.4375 -13.484375 5.921875 -12.222656 5.921875 -10.796875 C 5.921875 -9.335938 6.453125 -8.078125 7.515625 -7.015625 C 8.554688 -5.972656 9.816406 -5.453125 11.296875 -5.453125 C 12.804688 -5.515625 14.050781 -6.050781 15.03125 -7.0625 Z M 15.03125 -7.0625 "/></g></g></g><g fill="#000000" fill-opacity="1"><g transform="translate(179.182118, 335.05158)"><g><path d="M 7.09375 -29.28125 L 7.09375 -24.3125 L 1.265625 -24.3125 L 1.265625 -29.28125 Z M 7.140625 -21.59375 L 7.140625 0 L 1.265625 0 L 1.265625 -21.59375 Z M 7.140625 -21.59375 "/></g></g></g><g fill="#000000" fill-opacity="1"><g transform="translate(187.582115, 335.05158)"><g><path d="M 7.140625 -29.1875 L 7.140625 0 L 1.265625 0 L 1.265625 -29.1875 Z M 7.140625 -29.1875 "/></g></g></g><g fill="#000000" fill-opacity="1"><g transform="translate(195.982113, 335.05158)"><g><path d="M 22.09375 -9.875 C 22.125 -9.28125 22.125 -8.925781 22.09375 -8.8125 L 6.296875 -8.859375 C 6.523438 -8.210938 6.929688 -7.597656 7.515625 -7.015625 C 8.609375 -5.972656 9.867188 -5.453125 11.296875 -5.453125 C 12.804688 -5.515625 14.066406 -6.050781 15.078125 -7.0625 L 15.25 -7.21875 L 20.703125 -5.5 C 19.503906 -3.625 18.242188 -2.28125 16.921875 -1.46875 C 15.441406 -0.519531 13.582031 -0.03125 11.34375 0 C 8.375 0.03125 5.828125 -1.003906 3.703125 -3.109375 C 1.566406 -5.210938 0.488281 -7.757812 0.46875 -10.75 C 0.4375 -13.71875 1.46875 -16.265625 3.5625 -18.390625 C 5.664062 -20.523438 8.21875 -21.601562 11.21875 -21.625 C 14.1875 -21.65625 16.734375 -20.617188 18.859375 -18.515625 C 20.984375 -16.421875 22.0625 -13.875 22.09375 -10.875 Z M 11.25 -16.125 C 9.769531 -16.125 8.507812 -15.609375 7.46875 -14.578125 C 6.9375 -13.984375 6.5625 -13.394531 6.34375 -12.8125 L 16.21875 -12.8125 C 15.988281 -13.394531 15.59375 -13.992188 15.03125 -14.609375 C 13.96875 -15.617188 12.707031 -16.125 11.25 -16.125 Z M 11.25 -16.125 "/></g></g></g><g fill="#000000" fill-opacity="1"><g transform="translate(217.066099, 335.05158)"><g><path d="M 16.84375 -21.625 L 16.84375 -15.75 L 12.015625 -15.75 L 12.015625 0 L 6.125 0 L 6.125 -15.75 L 1.265625 -15.75 L 1.265625 -21.625 L 6.125 -21.625 L 6.125 -29.1875 L 12.015625 -29.1875 L 12.015625 -21.625 Z M 16.84375 -21.625 "/></g></g></g></svg>