<svg xmlns="http://www.w3.org/2000/svg" xmlns:xlink="http://www.w3.org/1999/xlink" width="500" zoomAndPan="magnify" viewBox="0 0 375 374.999991" height="500" preserveAspectRatio="xMidYMid meet" version="1.0"><defs><filter x="0%" y="0%" width="100%" height="100%" id="65e0b14fbc"><feColorMatrix values="0 0 0 0 1 0 0 0 0 1 0 0 0 0 1 0 0 0 1 0" color-interpolation-filters="sRGB"/></filter><g/><mask id="06a90de669"><g filter="url(#65e0b14fbc)"><rect x="-37.5" width="450" fill="#000000" y="-37.499999" height="449.999989" fill-opacity="0.43"/></g></mask><clipPath id="07f170792c"><path d="M 3.308594 2 L 333.675781 2 L 333.675781 217 L 3.308594 217 Z M 3.308594 2 " clip-rule="nonzero"/></clipPath><clipPath id="75402758c7"><path d="M 3.746094 71.65625 C 3.746094 71.605469 4.152344 69.996094 4.394531 69.167969 C 4.636719 68.339844 4.800781 67.820312 5.042969 66.730469 C 5.449219 64.5 4.960938 60.558594 6.179688 56.667969 C 8.042969 51.015625 13.800781 42.199219 17.535156 36.285156 C 20.535156 31.671875 26.453125 24.460938 26.535156 24.097656 C 26.535156 24.046875 26.535156 24.046875 26.535156 24.046875 C 26.535156 24.046875 26.535156 24.046875 26.535156 23.996094 C 26.859375 23.734375 30.265625 19.898438 29.941406 19.378906 C 29.859375 19.273438 29.375 19.222656 29.375 19.222656 C 29.375 19.222656 31.15625 20.3125 32.535156 20.15625 C 36.589844 19.742188 44.214844 9.421875 52.972656 7.035156 C 62.949219 4.339844 83.144531 5.167969 90.523438 6.621094 C 94.011719 7.292969 94.984375 9.785156 97.417969 9.730469 C 100.335938 9.628906 102.121094 5.945312 106.742188 4.753906 C 115.339844 2.472656 135.695312 1.328125 148.753906 2.574219 C 160.753906 3.820312 177.460938 7.191406 182.328125 11.390625 C 185.570312 14.089844 182.652344 20.625 184.03125 21.140625 C 184.4375 21.347656 184.761719 20.933594 185.652344 20.832031 C 189.789062 20.363281 214.6875 17.769531 221.578125 20 C 225.632812 21.296875 224.824219 25.863281 228.472656 26.535156 C 234.148438 27.574219 245.421875 19.066406 255.640625 18.757812 C 268.128906 18.394531 291.648438 21.710938 298.382812 28.144531 C 305.191406 34.730469 299.273438 51.429688 295.300781 58.226562 C 292.945312 62.320312 284.1875 65.382812 285.082031 66.988281 C 285.890625 68.234375 292.460938 66.472656 295.378906 68.285156 C 302.03125 72.382812 300.976562 96.398438 307.546875 101.6875 C 310.707031 104.28125 316.222656 102.777344 318.898438 105.316406 C 323.925781 109.984375 324.902344 128.1875 322.792969 133.117188 C 321.980469 135.140625 318.089844 136.332031 318.574219 136.953125 C 319.0625 137.578125 323.441406 135.96875 325.304688 136.953125 C 329.847656 139.289062 334.714844 152.980469 333.171875 160.605469 C 331.632812 168.28125 319.792969 176.683594 315.898438 182.75 C 313.304688 186.796875 309.976562 190.167969 310.546875 193.175781 C 311.113281 195.664062 316.546875 199.085938 317.113281 199.710938 C 317.277344 199.8125 317.359375 199.8125 317.359375 199.867188 C 317.277344 200.074219 315.898438 200.488281 314.601562 200.902344 C 311.601562 201.992188 302.03125 204.480469 299.273438 205.675781 C 298.136719 206.140625 297.164062 206.917969 297.164062 206.972656 C 297.082031 206.972656 294.894531 207.75 293.757812 208.164062 C 292.542969 208.578125 290.351562 209.355469 290.269531 209.355469 C 290.269531 209.410156 287.675781 209.824219 286.539062 210.03125 C 285.484375 210.1875 284.027344 210.445312 283.703125 210.496094 C 283.621094 210.550781 283.539062 210.550781 283.539062 210.550781 C 283.539062 210.550781 283.621094 210.550781 283.621094 210.496094 C 283.621094 210.496094 282.808594 210.652344 282.730469 210.652344 C 282.730469 210.652344 280.132812 210.707031 278.835938 210.707031 C 277.539062 210.757812 274.941406 210.757812 274.941406 210.757812 C 274.863281 210.757812 272.347656 210.394531 271.132812 210.238281 C 269.832031 210.03125 267.320312 209.71875 267.320312 209.667969 C 267.238281 209.667969 264.96875 208.941406 263.832031 208.578125 C 262.617188 208.214844 260.34375 207.488281 260.265625 207.4375 C 260.265625 207.4375 258.316406 206.398438 257.34375 205.828125 C 256.289062 205.3125 254.34375 204.222656 254.34375 204.222656 C 254.261719 204.171875 252.804688 202.875 252.074219 202.199219 C 251.261719 201.523438 249.800781 200.175781 249.722656 200.175781 C 249.722656 200.125 248.746094 198.621094 248.261719 197.84375 C 247.773438 197.066406 246.800781 195.5625 246.800781 195.507812 C 246.800781 195.507812 246.476562 193.902344 246.234375 193.070312 C 246.070312 192.242188 245.746094 190.632812 245.746094 190.582031 C 245.746094 190.53125 245.992188 188.820312 246.070312 188.09375 C 246.234375 187.523438 246.882812 187.054688 246.316406 186.589844 C 244.125 184.667969 214.847656 185.757812 209.65625 181.921875 C 206.007812 179.277344 210.710938 171.339844 208.683594 170.71875 C 207.386719 170.304688 205.441406 172.222656 202.601562 173.464844 C 196.359375 176.214844 182.246094 182.386719 172.109375 186.640625 C 162.132812 190.839844 152.160156 196.027344 142.425781 198.828125 C 134.15625 201.214844 122.070312 201.992188 118.097656 203.289062 C 116.636719 203.703125 115.5 204.535156 115.421875 204.535156 C 115.421875 204.535156 113.070312 205.207031 111.851562 205.519531 C 110.636719 205.828125 108.285156 206.503906 108.203125 206.503906 C 108.203125 206.503906 105.6875 206.761719 104.390625 206.917969 C 103.09375 207.023438 100.578125 207.28125 100.5 207.28125 C 100.5 207.28125 97.417969 207.074219 96.929688 207.125 C 96.765625 207.125 96.6875 207.179688 96.6875 207.179688 C 96.6875 207.179688 96.847656 207.125 96.847656 207.125 C 96.847656 207.125 96.765625 207.125 96.605469 207.125 C 96.117188 207.074219 92.792969 206.917969 92.710938 206.917969 C 92.632812 206.917969 89.875 206.296875 88.980469 206.089844 C 88.496094 205.984375 88.496094 205.828125 87.847656 205.882812 C 83.871094 205.933594 47.132812 216.824219 46.730469 216.460938 C 46.648438 216.359375 47.703125 215.996094 47.621094 215.945312 C 47.539062 215.839844 46.484375 216.046875 45.835938 216.152344 C 44.78125 216.253906 42.023438 216.566406 41.945312 216.566406 C 41.863281 216.566406 39.347656 216.460938 38.050781 216.410156 C 36.753906 216.359375 34.238281 216.253906 34.160156 216.253906 C 34.078125 216.253906 31.644531 215.789062 30.429688 215.527344 C 29.210938 215.269531 26.699219 214.800781 26.699219 214.75 C 26.617188 214.75 24.425781 213.921875 23.371094 213.453125 C 22.238281 213.039062 20.046875 212.210938 19.964844 212.15625 C 19.964844 212.15625 18.183594 211.015625 17.207031 210.394531 C 16.316406 209.824219 14.53125 208.683594 14.453125 208.628906 C 14.453125 208.628906 13.152344 207.179688 12.503906 206.503906 C 11.773438 205.777344 10.476562 204.378906 10.476562 204.324219 C 10.394531 204.324219 9.667969 202.769531 9.261719 201.941406 C 8.9375 201.160156 8.125 199.605469 8.125 199.554688 C 8.125 199.554688 7.964844 197.894531 7.882812 197.066406 C 7.882812 196.234375 7.71875 194.628906 7.71875 194.574219 C 7.71875 194.523438 8.207031 192.914062 8.367188 192.136719 C 8.613281 191.308594 9.019531 190.21875 9.097656 189.648438 C 9.179688 189.390625 9.019531 189.335938 9.179688 188.972656 C 9.910156 187.675781 18.019531 181.089844 18.019531 180.054688 C 18.019531 179.847656 17.859375 179.847656 17.613281 179.691406 C 17.207031 179.277344 15.503906 177.617188 15.503906 177.617188 C 15.503906 177.5625 14.613281 176.007812 14.207031 175.230469 C 13.800781 174.503906 13.152344 173.105469 13.074219 173.050781 C 12.992188 173.050781 12.992188 173.15625 12.992188 173.15625 C 12.992188 173.15625 12.992188 173.050781 12.992188 173.050781 C 12.992188 173 12.910156 172.894531 12.910156 172.894531 C 12.910156 172.84375 12.667969 171.238281 12.585938 170.40625 C 12.425781 169.578125 12.179688 167.917969 12.179688 167.917969 C 12.179688 167.867188 12.585938 166.257812 12.75 165.429688 C 12.992188 164.597656 13.316406 162.988281 13.316406 162.9375 C 13.316406 162.9375 14.53125 161.125 14.855469 160.65625 C 15.019531 160.398438 15.019531 160.398438 15.179688 160.085938 C 15.992188 158.113281 15.425781 146.1875 18.667969 139.238281 C 22.316406 131.351562 35.132812 118.179688 37.644531 115.484375 C 38.132812 114.914062 38.699219 115.015625 38.699219 114.496094 C 38.699219 112.265625 20.371094 101.789062 19.640625 97.484375 C 19.15625 95.152344 23.617188 92.09375 23.371094 91.730469 C 23.292969 91.675781 23.128906 91.675781 23.128906 91.675781 C 23.046875 91.675781 20.859375 90.847656 19.722656 90.433594 C 18.585938 90.015625 16.398438 89.1875 16.398438 89.136719 C 16.316406 89.136719 14.53125 87.996094 13.558594 87.371094 C 12.667969 86.800781 10.800781 85.660156 10.800781 85.660156 C 10.722656 85.609375 9.421875 84.207031 8.695312 83.535156 C 8.042969 82.808594 6.664062 81.40625 6.664062 81.40625 C 6.664062 81.355469 5.855469 79.800781 5.449219 79.023438 C 5.042969 78.191406 4.3125 76.6875 4.234375 76.636719 C 4.234375 76.585938 4.070312 74.976562 3.988281 74.148438 C 3.910156 73.316406 3.746094 71.65625 3.746094 71.65625 M 112.90625 47.125 C 112.988281 47.125 112.988281 47.074219 112.988281 47.074219 C 112.988281 47.074219 112.988281 47.074219 112.90625 47.074219 C 112.90625 47.125 112.90625 47.125 112.90625 47.125 " clip-rule="nonzero"/></clipPath><mask id="7728a8f5e6"><g filter="url(#65e0b14fbc)"><rect x="-101.5" width="540" fill="#000000" y="-119.499998" height="539.999987" fill-opacity="0.5"/></g></mask><clipPath id="513a9f455d"><path d="M 0.558594 0 L 330.675781 0 L 330.675781 214.921875 L 0.558594 214.921875 Z M 0.558594 0 " clip-rule="nonzero"/></clipPath><clipPath id="128f028b4b"><path d="M 0.746094 69.65625 C 0.746094 69.605469 1.152344 67.996094 1.394531 67.167969 C 1.636719 66.339844 1.800781 65.820312 2.042969 64.730469 C 2.449219 62.5 1.960938 58.558594 3.179688 54.667969 C 5.042969 49.015625 10.800781 40.199219 14.535156 34.285156 C 17.535156 29.671875 23.453125 22.460938 23.535156 22.097656 C 23.535156 22.046875 23.535156 22.046875 23.535156 22.046875 C 23.535156 22.046875 23.535156 22.046875 23.535156 21.996094 C 23.859375 21.734375 27.265625 17.898438 26.941406 17.378906 C 26.859375 17.273438 26.375 17.222656 26.375 17.222656 C 26.375 17.222656 28.15625 18.3125 29.535156 18.15625 C 33.589844 17.742188 41.214844 7.421875 49.972656 5.035156 C 59.949219 2.339844 80.144531 3.167969 87.523438 4.621094 C 91.011719 5.292969 91.984375 7.785156 94.417969 7.730469 C 97.335938 7.628906 99.121094 3.945312 103.742188 2.753906 C 112.339844 0.472656 132.695312 -0.671875 145.753906 0.574219 C 157.753906 1.820312 174.460938 5.191406 179.328125 9.390625 C 182.570312 12.089844 179.652344 18.625 181.03125 19.140625 C 181.4375 19.347656 181.761719 18.933594 182.652344 18.832031 C 186.789062 18.363281 211.6875 15.769531 218.578125 18 C 222.632812 19.296875 221.824219 23.863281 225.472656 24.535156 C 231.148438 25.574219 242.421875 17.066406 252.640625 16.757812 C 265.128906 16.394531 288.648438 19.710938 295.382812 26.144531 C 302.191406 32.730469 296.273438 49.429688 292.300781 56.226562 C 289.945312 60.320312 281.1875 63.382812 282.082031 64.988281 C 282.890625 66.234375 289.460938 64.472656 292.378906 66.285156 C 299.03125 70.382812 297.976562 94.398438 304.546875 99.6875 C 307.707031 102.28125 313.222656 100.777344 315.898438 103.316406 C 320.925781 107.984375 321.902344 126.1875 319.792969 131.117188 C 318.980469 133.140625 315.089844 134.332031 315.574219 134.953125 C 316.0625 135.578125 320.441406 133.96875 322.304688 134.953125 C 326.847656 137.289062 331.714844 150.980469 330.171875 158.605469 C 328.632812 166.28125 316.792969 174.683594 312.898438 180.75 C 310.304688 184.796875 306.976562 188.167969 307.546875 191.175781 C 308.113281 193.664062 313.546875 197.085938 314.113281 197.710938 C 314.277344 197.8125 314.359375 197.8125 314.359375 197.867188 C 314.277344 198.074219 312.898438 198.488281 311.601562 198.902344 C 308.601562 199.992188 299.03125 202.480469 296.273438 203.675781 C 295.136719 204.140625 294.164062 204.917969 294.164062 204.972656 C 294.082031 204.972656 291.894531 205.75 290.757812 206.164062 C 289.542969 206.578125 287.351562 207.355469 287.269531 207.355469 C 287.269531 207.410156 284.675781 207.824219 283.539062 208.03125 C 282.484375 208.1875 281.027344 208.445312 280.703125 208.496094 C 280.621094 208.550781 280.539062 208.550781 280.539062 208.550781 C 280.539062 208.550781 280.621094 208.550781 280.621094 208.496094 C 280.621094 208.496094 279.808594 208.652344 279.730469 208.652344 C 279.730469 208.652344 277.132812 208.707031 275.835938 208.707031 C 274.539062 208.757812 271.941406 208.757812 271.941406 208.757812 C 271.863281 208.757812 269.347656 208.394531 268.132812 208.238281 C 266.832031 208.03125 264.320312 207.71875 264.320312 207.667969 C 264.238281 207.667969 261.96875 206.941406 260.832031 206.578125 C 259.617188 206.214844 257.34375 205.488281 257.265625 205.4375 C 257.265625 205.4375 255.316406 204.398438 254.34375 203.828125 C 253.289062 203.3125 251.34375 202.222656 251.34375 202.222656 C 251.261719 202.171875 249.804688 200.875 249.074219 200.199219 C 248.261719 199.523438 246.800781 198.175781 246.722656 198.175781 C 246.722656 198.125 245.746094 196.621094 245.261719 195.84375 C 244.773438 195.066406 243.800781 193.5625 243.800781 193.507812 C 243.800781 193.507812 243.476562 191.902344 243.234375 191.070312 C 243.070312 190.242188 242.746094 188.632812 242.746094 188.582031 C 242.746094 188.53125 242.992188 186.820312 243.070312 186.09375 C 243.234375 185.523438 243.882812 185.054688 243.316406 184.589844 C 241.125 182.667969 211.847656 183.757812 206.65625 179.921875 C 203.007812 177.277344 207.710938 169.339844 205.683594 168.71875 C 204.386719 168.304688 202.441406 170.222656 199.601562 171.464844 C 193.359375 174.214844 179.246094 180.386719 169.109375 184.640625 C 159.132812 188.839844 149.160156 194.027344 139.425781 196.828125 C 131.15625 199.214844 119.070312 199.992188 115.097656 201.289062 C 113.636719 201.703125 112.5 202.535156 112.421875 202.535156 C 112.421875 202.535156 110.070312 203.207031 108.851562 203.519531 C 107.636719 203.828125 105.285156 204.503906 105.203125 204.503906 C 105.203125 204.503906 102.6875 204.761719 101.390625 204.917969 C 100.09375 205.023438 97.578125 205.28125 97.5 205.28125 C 97.5 205.28125 94.417969 205.074219 93.929688 205.125 C 93.765625 205.125 93.6875 205.179688 93.6875 205.179688 C 93.6875 205.179688 93.847656 205.125 93.847656 205.125 C 93.847656 205.125 93.765625 205.125 93.605469 205.125 C 93.117188 205.074219 89.792969 204.917969 89.710938 204.917969 C 89.632812 204.917969 86.875 204.296875 85.980469 204.089844 C 85.496094 203.984375 85.496094 203.828125 84.847656 203.882812 C 80.871094 203.933594 44.132812 214.824219 43.730469 214.460938 C 43.648438 214.359375 44.703125 213.996094 44.621094 213.945312 C 44.539062 213.839844 43.484375 214.046875 42.835938 214.152344 C 41.78125 214.253906 39.023438 214.566406 38.945312 214.566406 C 38.863281 214.566406 36.347656 214.460938 35.050781 214.410156 C 33.753906 214.359375 31.238281 214.253906 31.160156 214.253906 C 31.078125 214.253906 28.644531 213.789062 27.429688 213.527344 C 26.210938 213.269531 23.699219 212.800781 23.699219 212.75 C 23.617188 212.75 21.425781 211.921875 20.371094 211.453125 C 19.238281 211.039062 17.046875 210.210938 16.964844 210.15625 C 16.964844 210.15625 15.183594 209.015625 14.207031 208.394531 C 13.316406 207.824219 11.53125 206.683594 11.453125 206.628906 C 11.453125 206.628906 10.152344 205.179688 9.503906 204.503906 C 8.773438 203.777344 7.476562 202.378906 7.476562 202.324219 C 7.394531 202.324219 6.667969 200.769531 6.261719 199.941406 C 5.9375 199.160156 5.125 197.605469 5.125 197.554688 C 5.125 197.554688 4.964844 195.894531 4.882812 195.066406 C 4.882812 194.234375 4.71875 192.628906 4.71875 192.574219 C 4.71875 192.523438 5.207031 190.914062 5.367188 190.136719 C 5.613281 189.308594 6.019531 188.21875 6.097656 187.648438 C 6.179688 187.390625 6.019531 187.335938 6.179688 186.972656 C 6.910156 185.675781 15.019531 179.089844 15.019531 178.054688 C 15.019531 177.847656 14.859375 177.847656 14.613281 177.691406 C 14.207031 177.277344 12.503906 175.617188 12.503906 175.617188 C 12.503906 175.5625 11.613281 174.007812 11.207031 173.230469 C 10.800781 172.503906 10.152344 171.105469 10.074219 171.050781 C 9.992188 171.050781 9.992188 171.15625 9.992188 171.15625 C 9.992188 171.15625 9.992188 171.050781 9.992188 171.050781 C 9.992188 171 9.910156 170.894531 9.910156 170.894531 C 9.910156 170.84375 9.667969 169.238281 9.585938 168.40625 C 9.425781 167.578125 9.179688 165.917969 9.179688 165.917969 C 9.179688 165.867188 9.585938 164.257812 9.75 163.429688 C 9.992188 162.597656 10.316406 160.988281 10.316406 160.9375 C 10.316406 160.9375 11.53125 159.125 11.855469 158.65625 C 12.019531 158.398438 12.019531 158.398438 12.179688 158.085938 C 12.992188 156.113281 12.425781 144.1875 15.667969 137.238281 C 19.316406 129.351562 32.132812 116.179688 34.644531 113.484375 C 35.132812 112.914062 35.699219 113.015625 35.699219 112.496094 C 35.699219 110.265625 17.371094 99.789062 16.640625 95.484375 C 16.15625 93.152344 20.617188 90.09375 20.371094 89.730469 C 20.292969 89.675781 20.128906 89.675781 20.128906 89.675781 C 20.046875 89.675781 17.859375 88.847656 16.722656 88.433594 C 15.585938 88.015625 13.398438 87.1875 13.398438 87.136719 C 13.316406 87.136719 11.53125 85.996094 10.558594 85.371094 C 9.667969 84.800781 7.800781 83.660156 7.800781 83.660156 C 7.722656 83.609375 6.421875 82.207031 5.695312 81.535156 C 5.042969 80.808594 3.664062 79.40625 3.664062 79.40625 C 3.664062 79.355469 2.855469 77.800781 2.449219 77.023438 C 2.042969 76.191406 1.3125 74.6875 1.234375 74.636719 C 1.234375 74.585938 1.070312 72.976562 0.988281 72.148438 C 0.910156 71.316406 0.746094 69.65625 0.746094 69.65625 M 109.90625 45.125 C 109.988281 45.125 109.988281 45.074219 109.988281 45.074219 C 109.988281 45.074219 109.988281 45.074219 109.90625 45.074219 C 109.90625 45.125 109.90625 45.125 109.90625 45.125 " clip-rule="nonzero"/></clipPath><clipPath id="4909824b0d"><rect x="0" width="331" y="0" height="215"/></clipPath><clipPath id="5e64851866"><rect x="0" width="338" y="0" height="219"/></clipPath><clipPath id="72d6fe4d72"><path d="M 102.195312 46 L 272 46 L 272 282.492188 L 102.195312 282.492188 Z M 102.195312 46 " clip-rule="nonzero"/></clipPath><clipPath id="67735b502c"><path d="M 159.882812 282.054688 L 214.570312 282.054688 C 227.113281 282.054688 237.8125 272.96875 239.84375 260.589844 L 271.472656 68.066406 C 272.351562 62.714844 270.835938 57.25 267.328125 53.117188 C 263.816406 48.984375 258.671875 46.601562 253.25 46.601562 L 121.203125 46.601562 C 115.78125 46.601562 110.632812 48.984375 107.125 53.117188 C 103.617188 57.25 102.101562 62.714844 102.980469 68.066406 L 134.605469 260.589844 C 136.640625 272.96875 147.339844 282.054688 159.882812 282.054688 Z M 159.882812 282.054688 " clip-rule="nonzero"/></clipPath><clipPath id="76b096265e"><path d="M 0.195312 0.558594 L 170 0.558594 L 170 236 L 0.195312 236 Z M 0.195312 0.558594 " clip-rule="nonzero"/></clipPath><clipPath id="728ea10370"><path d="M 57.882812 236.054688 L 112.570312 236.054688 C 125.113281 236.054688 135.8125 226.96875 137.84375 214.589844 L 169.472656 22.066406 C 170.351562 16.714844 168.835938 11.25 165.328125 7.117188 C 161.816406 2.984375 156.671875 0.601562 151.25 0.601562 L 19.203125 0.601562 C 13.78125 0.601562 8.632812 2.984375 5.125 7.117188 C 1.617188 11.25 0.101562 16.714844 0.980469 22.066406 L 32.605469 214.589844 C 34.640625 226.96875 45.339844 236.054688 57.882812 236.054688 Z M 57.882812 236.054688 " clip-rule="nonzero"/></clipPath><clipPath id="c24c76e50b"><rect x="0" width="170" y="0" height="237"/></clipPath><clipPath id="f78bf0b973"><path d="M 102 46.605469 L 272 46.605469 L 272 282.101562 L 102 282.101562 Z M 102 46.605469 " clip-rule="nonzero"/></clipPath><clipPath id="6165b6ef7e"><path d="M 159.878906 282.042969 L 214.5625 282.042969 C 227.105469 282.042969 237.804688 272.957031 239.835938 260.582031 L 271.464844 68.066406 C 272.34375 62.71875 270.824219 57.25 267.316406 53.121094 C 263.808594 48.988281 258.660156 46.605469 253.238281 46.605469 L 121.203125 46.605469 C 115.78125 46.605469 110.632812 48.988281 107.125 53.121094 C 103.617188 57.25 102.101562 62.71875 102.980469 68.066406 L 134.605469 260.582031 C 136.636719 272.957031 147.335938 282.042969 159.878906 282.042969 Z M 159.878906 282.042969 " clip-rule="nonzero"/></clipPath><clipPath id="39527188f2"><path d="M 114 84.898438 L 260.121094 84.898438 L 260.121094 270.488281 L 114 270.488281 Z M 114 84.898438 " clip-rule="nonzero"/></clipPath><clipPath id="eae56c0c6a"><path d="M 153.945312 270.265625 L 220.140625 270.265625 C 224.484375 270.265625 228.207031 267.160156 228.980469 262.886719 L 259.941406 92.277344 C 260.273438 90.453125 259.777344 88.570312 258.585938 87.148438 C 257.398438 85.722656 255.636719 84.898438 253.78125 84.898438 L 120.308594 84.898438 C 118.449219 84.898438 116.691406 85.722656 115.5 87.148438 C 114.3125 88.570312 113.816406 90.453125 114.144531 92.277344 L 145.105469 262.886719 C 145.882812 267.160156 149.601562 270.265625 153.945312 270.265625 Z M 153.945312 270.265625 " clip-rule="nonzero"/></clipPath><clipPath id="f675b5e43f"><path d="M 0 0.898438 L 146.121094 0.898438 L 146.121094 186.480469 L 0 186.480469 Z M 0 0.898438 " clip-rule="nonzero"/></clipPath><clipPath id="635f5c826b"><path d="M 39.945312 186.265625 L 106.140625 186.265625 C 110.484375 186.265625 114.207031 183.160156 114.980469 178.886719 L 145.941406 8.277344 C 146.273438 6.453125 145.777344 4.570312 144.585938 3.148438 C 143.398438 1.722656 141.636719 0.898438 139.78125 0.898438 L 6.308594 0.898438 C 4.449219 0.898438 2.691406 1.722656 1.5 3.148438 C 0.3125 4.570312 -0.183594 6.453125 0.144531 8.277344 L 31.105469 178.886719 C 31.882812 183.160156 35.601562 186.265625 39.945312 186.265625 Z M 39.945312 186.265625 " clip-rule="nonzero"/></clipPath><clipPath id="096f537574"><rect x="0" width="147" y="0" height="187"/></clipPath><clipPath id="4327884195"><path d="M 120.828125 270.265625 L 248.933594 270.265625 L 248.933594 303.160156 L 120.828125 303.160156 Z M 120.828125 270.265625 " clip-rule="nonzero"/></clipPath><clipPath id="9ac71a02ee"><path d="M 0.828125 0.265625 L 128.933594 0.265625 L 128.933594 33.160156 L 0.828125 33.160156 Z M 0.828125 0.265625 " clip-rule="nonzero"/></clipPath><clipPath id="08c8752dde"><rect x="0" width="129" y="0" height="34"/></clipPath><clipPath id="58a407ef18"><path d="M 125.25 92.878906 L 206.707031 92.878906 L 206.707031 262.417969 L 125.25 262.417969 Z M 125.25 92.878906 " clip-rule="nonzero"/></clipPath><clipPath id="90044b79a7"><path d="M 163.71875 262.289062 L 168.238281 262.289062 C 175.164062 262.289062 181.070312 257.28125 182.203125 250.449219 L 206.398438 104.714844 C 206.886719 101.765625 206.054688 98.753906 204.125 96.472656 C 202.191406 94.191406 199.351562 92.878906 196.363281 92.878906 L 135.59375 92.878906 C 132.605469 92.878906 129.765625 94.191406 127.832031 96.472656 C 125.902344 98.753906 125.070312 101.765625 125.558594 104.714844 L 149.753906 250.449219 C 150.886719 257.28125 156.792969 262.289062 163.71875 262.289062 Z M 163.71875 262.289062 " clip-rule="nonzero"/></clipPath><clipPath id="93dd5f98dd"><path d="M 0.25 0.878906 L 81.707031 0.878906 L 81.707031 170.320312 L 0.25 170.320312 Z M 0.25 0.878906 " clip-rule="nonzero"/></clipPath><clipPath id="7c1ec4b7b5"><path d="M 38.71875 170.289062 L 43.238281 170.289062 C 50.164062 170.289062 56.070312 165.28125 57.203125 158.449219 L 81.398438 12.714844 C 81.886719 9.765625 81.054688 6.753906 79.125 4.472656 C 77.191406 2.191406 74.351562 0.878906 71.363281 0.878906 L 10.59375 0.878906 C 7.605469 0.878906 4.765625 2.191406 2.832031 4.472656 C 0.902344 6.753906 0.0703125 9.765625 0.558594 12.714844 L 24.753906 158.449219 C 25.886719 165.28125 31.792969 170.289062 38.71875 170.289062 Z M 38.71875 170.289062 " clip-rule="nonzero"/></clipPath><clipPath id="8624e5ba73"><rect x="0" width="82" y="0" height="171"/></clipPath></defs><g mask="url(#06a90de669)"><g transform="matrix(1, 0, 0, 1, 19, 37)"><g clip-path="url(#5e64851866)"><g clip-path="url(#07f170792c)"><g clip-path="url(#75402758c7)"><g mask="url(#7728a8f5e6)"><g transform="matrix(1, 0, 0, 1, 3, 2)"><g clip-path="url(#4909824b0d)"><g clip-path="url(#513a9f455d)"><g clip-path="url(#128f028b4b)"><rect x="-158.5" width="648" fill="#8bcfdb" y="-175.499997" height="647.999984" fill-opacity="1"/></g></g></g></g></g></g></g></g></g></g><g clip-path="url(#72d6fe4d72)"><g clip-path="url(#67735b502c)"><g transform="matrix(1, 0, 0, 1, 102, 46)"><g clip-path="url(#c24c76e50b)"><g clip-path="url(#76b096265e)"><g clip-path="url(#728ea10370)"><path fill="#f6f6f6" d="M -2.546875 0.601562 L 173 0.601562 L 173 235.804688 L -2.546875 235.804688 Z M -2.546875 0.601562 " fill-opacity="1" fill-rule="nonzero"/></g></g></g></g></g></g><g clip-path="url(#f78bf0b973)"><g clip-path="url(#6165b6ef7e)"><path stroke-linecap="butt" transform="matrix(0.75, 0, 0, 0.75, 99.453646, 46.605359)" fill="none" stroke-linejoin="miter" d="M 80.567019 313.916833 L 153.478482 313.916833 C 170.202442 313.916833 184.468067 301.802249 187.176401 285.302248 L 229.348279 28.614731 C 230.520154 21.484522 228.494112 14.192855 223.817028 8.687646 C 219.139945 3.177229 212.275361 0.000145881 205.046194 0.000145881 L 28.999307 0.000145881 C 21.77014 0.000145881 14.905556 3.177229 10.228473 8.687646 C 5.551389 14.192855 3.530556 21.484522 4.702431 28.614731 L 46.8691 285.302248 C 49.577434 301.802249 63.84306 313.916833 80.567019 313.916833 Z M 80.567019 313.916833 " stroke="#000000" stroke-width="8" stroke-opacity="1" stroke-miterlimit="4"/></g></g><g clip-path="url(#39527188f2)"><g clip-path="url(#eae56c0c6a)"><g transform="matrix(1, 0, 0, 1, 114, 84)"><g clip-path="url(#096f537574)"><g clip-path="url(#f675b5e43f)"><g clip-path="url(#635f5c826b)"><path fill="#6dc9ff" d="M -1.191406 0.898438 L 147.28125 0.898438 L 147.28125 186.488281 L -1.191406 186.488281 Z M -1.191406 0.898438 " fill-opacity="1" fill-rule="nonzero"/></g></g></g></g></g></g><path stroke-linecap="butt" transform="matrix(0.75, -0.000000000000000372, 0.000000000000000372, 0.75, 139.415839, 267.266819)" fill="none" stroke-linejoin="miter" d="M -0.00236913 1.998408 L 126.810139 1.998408 " stroke="#000000" stroke-width="4" stroke-opacity="1" stroke-miterlimit="4"/><g clip-path="url(#4327884195)"><g transform="matrix(1, 0, 0, 1, 120, 270)"><g clip-path="url(#08c8752dde)"><g clip-path="url(#9ac71a02ee)"><path fill="#ffffff" d="M 0.828125 0.265625 L 128.925781 0.265625 L 128.925781 33.160156 L 0.828125 33.160156 Z M 0.828125 0.265625 " fill-opacity="1" fill-rule="nonzero"/></g></g></g></g><g clip-path="url(#58a407ef18)"><g clip-path="url(#90044b79a7)"><g transform="matrix(1, 0, 0, 1, 125, 92)"><g clip-path="url(#8624e5ba73)"><g clip-path="url(#93dd5f98dd)"><g clip-path="url(#7c1ec4b7b5)"><path fill="#c5e9ff" d="M -1.40625 0.878906 L 83.363281 0.878906 L 83.363281 170.417969 L -1.40625 170.417969 Z M -1.40625 0.878906 " fill-opacity="1" fill-rule="nonzero"/></g></g></g></g></g></g><g fill="#000000" fill-opacity="1"><g transform="translate(133.611325, 335.05158)"><g><path d="M 31.375 -21.921875 L 19.609375 0 L 19.578125 -0.046875 L 15.796875 -7.09375 L 11.96875 0 L 11.96875 -0.046875 L 0.203125 -21.921875 L 6.265625 -21.921875 L 11.96875 -10.96875 L 12.8125 -12.59375 L 7.8125 -21.921875 L 13.859375 -21.921875 L 19.609375 -10.96875 L 25.328125 -21.921875 Z M 31.375 -21.921875 "/></g></g></g><g fill="#000000" fill-opacity="1"><g transform="translate(162.96932, 335.05158)"><g><path d="M 16.796875 -21.71875 L 22.6875 -21.71875 L 22.6875 0 L 16.796875 0 L 16.796875 -2.4375 C 15.597656 -0.863281 13.78125 -0.078125 11.34375 -0.078125 C 8.375 -0.0546875 5.828125 -1.09375 3.703125 -3.1875 C 1.566406 -5.289062 0.488281 -7.84375 0.46875 -10.84375 C 0.4375 -13.800781 1.46875 -16.347656 3.5625 -18.484375 C 5.664062 -20.609375 8.21875 -21.6875 11.21875 -21.71875 C 13.675781 -21.71875 15.535156 -20.914062 16.796875 -19.3125 Z M 15.03125 -7.140625 C 16.070312 -8.171875 16.59375 -9.429688 16.59375 -10.921875 C 16.59375 -12.429688 16.0625 -13.691406 15 -14.703125 C 13.925781 -15.765625 12.675781 -16.269531 11.25 -16.21875 C 9.769531 -16.21875 8.507812 -15.695312 7.46875 -14.65625 C 6.4375 -13.625 5.921875 -12.363281 5.921875 -10.875 C 5.921875 -9.414062 6.453125 -8.15625 7.515625 -7.09375 C 8.554688 -6.0625 9.816406 -5.546875 11.296875 -5.546875 C 12.804688 -5.597656 14.050781 -6.128906 15.03125 -7.140625 Z M 15.03125 -7.140625 "/></g></g></g><g fill="#000000" fill-opacity="1"><g transform="translate(186.909317, 335.05158)"><g><path d="M 16.84375 -21.625 L 16.84375 -15.75 L 12.015625 -15.75 L 12.015625 0 L 6.125 0 L 6.125 -15.75 L 1.265625 -15.75 L 1.265625 -21.625 L 6.125 -21.625 L 6.125 -29.1875 L 12.015625 -29.1875 L 12.015625 -21.625 Z M 16.84375 -21.625 "/></g></g></g><g fill="#000000" fill-opacity="1"><g transform="translate(203.751323, 335.05158)"><g><path d="M 22.09375 -9.875 C 22.125 -9.28125 22.125 -8.925781 22.09375 -8.8125 L 6.296875 -8.859375 C 6.523438 -8.210938 6.929688 -7.597656 7.515625 -7.015625 C 8.609375 -5.972656 9.867188 -5.453125 11.296875 -5.453125 C 12.804688 -5.515625 14.066406 -6.050781 15.078125 -7.0625 L 15.25 -7.21875 L 20.703125 -5.5 C 19.503906 -3.625 18.242188 -2.28125 16.921875 -1.46875 C 15.441406 -0.519531 13.582031 -0.03125 11.34375 0 C 8.375 0.03125 5.828125 -1.003906 3.703125 -3.109375 C 1.566406 -5.210938 0.488281 -7.757812 0.46875 -10.75 C 0.4375 -13.71875 1.46875 -16.265625 3.5625 -18.390625 C 5.664062 -20.523438 8.21875 -21.601562 11.21875 -21.625 C 14.1875 -21.65625 16.734375 -20.617188 18.859375 -18.515625 C 20.984375 -16.421875 22.0625 -13.875 22.09375 -10.875 Z M 11.25 -16.125 C 9.769531 -16.125 8.507812 -15.609375 7.46875 -14.578125 C 6.9375 -13.984375 6.5625 -13.394531 6.34375 -12.8125 L 16.21875 -12.8125 C 15.988281 -13.394531 15.59375 -13.992188 15.03125 -14.609375 C 13.96875 -15.617188 12.707031 -16.125 11.25 -16.125 Z M 11.25 -16.125 "/></g></g></g><g fill="#000000" fill-opacity="1"><g transform="translate(226.305315, 335.05158)"><g><path d="M 7.140625 -18.390625 C 7.617188 -19.734375 8.414062 -20.671875 9.53125 -21.203125 C 10.625 -21.742188 12.265625 -22.015625 14.453125 -22.015625 L 14.453125 -16 C 12.316406 -16 10.535156 -15.269531 9.109375 -13.8125 C 7.796875 -12.53125 7.140625 -11.117188 7.140625 -9.578125 L 7.140625 0 L 1.265625 0 L 1.265625 -21.625 L 7.140625 -21.625 Z M 7.140625 -18.390625 "/></g></g></g></svg>