<svg xmlns="http://www.w3.org/2000/svg" xmlns:xlink="http://www.w3.org/1999/xlink" zoomAndPan="magnify" preserveAspectRatio="xMidYMid meet" version="1.0" viewBox="63.73 3.66 227.23 367.61"><defs><clipPath id="66a582cf99"><path d="M 64.066406 0 L 295 0 L 295 375 L 64.066406 375 Z M 64.066406 0 " clip-rule="nonzero"/></clipPath><clipPath id="e0ae934619"><path d="M 0.0664062 3 L 227 3 L 227 372 L 0.0664062 372 Z M 0.0664062 3 " clip-rule="nonzero"/></clipPath><clipPath id="0edcb9baae"><rect x="0" width="231" y="0" height="375"/></clipPath><clipPath id="045122e583"><path d="M 95.25 112.5 L 187.5 112.5 L 187.5 262.5 L 95.25 262.5 Z M 95.25 112.5 " clip-rule="nonzero"/></clipPath><clipPath id="ddfe7ca193"><path d="M 0.25 1 L 92 1 L 92 150 L 0.25 150 Z M 0.25 1 " clip-rule="nonzero"/></clipPath><clipPath id="eb96fbe945"><rect x="0" width="93" y="0" height="151"/></clipPath></defs><g clip-path="url(#66a582cf99)"><g transform="matrix(1, 0, 0, 1, 64, 0)"><g clip-path="url(#0edcb9baae)"><g clip-path="url(#e0ae934619)"><path fill="#000000" d="M 7.296875 169.234375 C 40.359375 136.238281 121.882812 54.847656 162.003906 14.785156 C 176.863281 -0.0429688 200.957031 -0.0429688 215.816406 14.785156 C 230.675781 29.628906 230.675781 53.667969 215.816406 68.511719 L 97.625 186.507812 C 97.09375 187.035156 97.09375 187.902344 97.625 188.433594 C 115.734375 206.503906 180.640625 271.300781 215.816406 306.425781 C 222.953125 313.550781 226.960938 323.210938 226.960938 333.289062 C 226.960938 343.371094 222.953125 353.03125 215.816406 360.152344 C 215.816406 360.152344 215.816406 360.152344 215.8125 360.152344 C 200.957031 374.984375 176.863281 374.984375 162.007812 360.152344 C 121.886719 320.101562 40.359375 238.699219 7.296875 205.691406 C 2.457031 200.859375 -0.265625 194.308594 -0.265625 187.46875 C -0.265625 180.632812 2.457031 174.078125 7.296875 169.234375 Z M 7.296875 169.234375 " fill-opacity="1" fill-rule="nonzero"/></g></g></g></g><g clip-path="url(#045122e583)"><g transform="matrix(1, 0, 0, 1, 95, 112)"><g clip-path="url(#eb96fbe945)"><g clip-path="url(#ddfe7ca193)"><path fill="#000000" d="M 3.289062 68.195312 C 16.492188 54.996094 49.046875 22.441406 65.070312 6.414062 C 71.003906 0.480469 80.625 0.480469 86.558594 6.414062 C 92.496094 12.351562 92.496094 21.96875 86.558594 27.90625 L 39.359375 75.101562 C 39.148438 75.3125 39.148438 75.660156 39.359375 75.875 C 46.59375 83.101562 72.511719 109.019531 86.5625 123.070312 C 89.410156 125.921875 91.011719 129.785156 91.011719 133.816406 C 91.011719 137.847656 89.410156 141.710938 86.5625 144.5625 C 86.558594 144.5625 86.558594 144.5625 86.558594 144.5625 C 80.625 150.492188 71.003906 150.492188 65.070312 144.5625 C 49.050781 128.542969 16.492188 95.980469 3.289062 82.777344 C 1.355469 80.84375 0.269531 78.222656 0.269531 75.488281 C 0.269531 72.753906 1.355469 70.132812 3.289062 68.195312 Z M 3.289062 68.195312 " fill-opacity="1" fill-rule="nonzero"/></g></g></g></g></svg>