<svg xmlns="http://www.w3.org/2000/svg" xmlns:xlink="http://www.w3.org/1999/xlink" width="810" zoomAndPan="magnify" viewBox="0 0 607.5 607.499986" height="810" preserveAspectRatio="xMidYMid meet" version="1.0"><defs><clipPath id="3993d5d656"><path d="M 49.742188 39.882812 L 468.734375 39.882812 L 468.734375 458.875 L 49.742188 458.875 Z M 49.742188 39.882812 " clip-rule="nonzero"/></clipPath><clipPath id="d68ee371d1"><path d="M 259.238281 39.882812 C 143.539062 39.882812 49.742188 133.675781 49.742188 249.378906 C 49.742188 365.078125 143.539062 458.875 259.238281 458.875 C 374.941406 458.875 468.734375 365.078125 468.734375 249.378906 C 468.734375 133.675781 374.941406 39.882812 259.238281 39.882812 Z M 259.238281 39.882812 " clip-rule="nonzero"/></clipPath><clipPath id="c0c39d0801"><path d="M 0.742188 0.882812 L 419.734375 0.882812 L 419.734375 419.875 L 0.742188 419.875 Z M 0.742188 0.882812 " clip-rule="nonzero"/></clipPath><clipPath id="e4aba357d5"><path d="M 210.238281 0.882812 C 94.539062 0.882812 0.742188 94.675781 0.742188 210.378906 C 0.742188 326.078125 94.539062 419.875 210.238281 419.875 C 325.941406 419.875 419.734375 326.078125 419.734375 210.378906 C 419.734375 94.675781 325.941406 0.882812 210.238281 0.882812 Z M 210.238281 0.882812 " clip-rule="nonzero"/></clipPath><clipPath id="4aa67db1b9"><rect x="0" width="420" y="0" height="420"/></clipPath><clipPath id="8b7a0329dd"><path d="M 49.742188 39.882812 L 468.648438 39.882812 L 468.648438 458.789062 L 49.742188 458.789062 Z M 49.742188 39.882812 " clip-rule="nonzero"/></clipPath><clipPath id="d13698d63b"><path d="M 259.238281 39.882812 C 143.535156 39.882812 49.742188 133.675781 49.742188 249.375 C 49.742188 365.074219 143.535156 458.871094 259.238281 458.871094 C 374.9375 458.871094 468.730469 365.074219 468.730469 249.375 C 468.730469 133.675781 374.9375 39.882812 259.238281 39.882812 Z M 259.238281 39.882812 " clip-rule="nonzero"/></clipPath><clipPath id="15378666e1"><path d="M 366 370 L 550 370 L 550 559 L 366 559 Z M 366 370 " clip-rule="nonzero"/></clipPath><clipPath id="0c08cd6f2e"><path d="M 330.300781 404.902344 L 402.597656 335.210938 L 573.832031 512.84375 L 501.535156 582.535156 Z M 330.300781 404.902344 " clip-rule="nonzero"/></clipPath><clipPath id="20f770dcb6"><path d="M 524.054688 461.207031 C 551.542969 489.722656 557.644531 528.441406 537.683594 547.6875 C 517.71875 566.933594 479.25 559.414062 451.757812 530.898438 C 374.105469 450.34375 366.449219 370.058594 366.449219 370.058594 C 366.449219 370.058594 448.390625 382.71875 524.054688 461.207031 Z M 524.054688 461.207031 " clip-rule="nonzero"/></clipPath><clipPath id="54247b76c5"><path d="M 0.417969 0.015625 L 184 0.015625 L 184 189 L 0.417969 189 Z M 0.417969 0.015625 " clip-rule="nonzero"/></clipPath><clipPath id="4ec70869d9"><path d="M -35.699219 34.902344 L 36.597656 -34.789062 L 207.832031 142.84375 L 135.535156 212.535156 Z M -35.699219 34.902344 " clip-rule="nonzero"/></clipPath><clipPath id="50cafe96d7"><path d="M 158.054688 91.207031 C 185.542969 119.722656 191.644531 158.441406 171.683594 177.6875 C 151.71875 196.933594 113.25 189.414062 85.757812 160.898438 C 8.105469 80.34375 0.449219 0.0585938 0.449219 0.0585938 C 0.449219 0.0585938 82.390625 12.71875 158.054688 91.207031 Z M 158.054688 91.207031 " clip-rule="nonzero"/></clipPath><clipPath id="26a7048e0a"><rect x="0" width="184" y="0" height="189"/></clipPath></defs><g clip-path="url(#3993d5d656)"><g clip-path="url(#d68ee371d1)"><g transform="matrix(1, 0, 0, 1, 49, 39)"><g clip-path="url(#4aa67db1b9)"><g clip-path="url(#c0c39d0801)"><g clip-path="url(#e4aba357d5)"><path fill="#ffffff" d="M 0.742188 0.882812 L 419.734375 0.882812 L 419.734375 419.875 L 0.742188 419.875 Z M 0.742188 0.882812 " fill-opacity="1" fill-rule="nonzero"/></g></g></g></g></g></g><g clip-path="url(#8b7a0329dd)"><g clip-path="url(#d13698d63b)"><path stroke-linecap="butt" transform="matrix(0.749383, 0, 0, 0.749383, 49.743357, 39.882333)" fill="none" stroke-linejoin="miter" d="M 279.556482 0.000639204 C 125.158667 0.000639204 -0.00156082 125.160867 -0.00156082 279.553469 C -0.00156082 433.946072 125.158667 559.111512 279.556482 559.111512 C 433.949085 559.111512 559.109312 433.946072 559.109312 279.553469 C 559.109312 125.160867 433.949085 0.000639204 279.556482 0.000639204 Z M 279.556482 0.000639204 " stroke="#000000" stroke-width="154" stroke-opacity="1" stroke-miterlimit="4"/></g></g><g clip-path="url(#15378666e1)"><g clip-path="url(#0c08cd6f2e)"><g clip-path="url(#20f770dcb6)"><g transform="matrix(1, 0, 0, 1, 366, 370)"><g clip-path="url(#26a7048e0a)"><g clip-path="url(#54247b76c5)"><g clip-path="url(#4ec70869d9)"><g clip-path="url(#50cafe96d7)"><path fill="#000000" d="M -35.699219 34.902344 L 36.597656 -34.789062 L 207.832031 142.84375 L 135.535156 212.535156 Z M -35.699219 34.902344 " fill-opacity="1" fill-rule="nonzero"/></g></g></g></g></g></g></g></g></svg>